<?xml version="1.0" standalone="no" ?>
<!DOCTYPE svg PUBLIC "-//W3C//DTD SVG 1.1//EN" "http://www.w3.org/Graphics/SVG/1.1/DTD/svg11.dtd">
<svg width="8700px" height="7052px" xmlns="http://www.w3.org/2000/svg" version="1.1" >
	<path d="M100,3152 100,3507 410,3686 410,3331 100,3152 z " fill-rule="evenodd" fill="rgb(0,128,0)" stroke-width="5" stroke="rgb(0,0,0)" />
	<path d="M724,3152 724,3507 1034,3686 1034,3331 724,3152 z " fill-rule="evenodd" fill="rgb(0,128,0)" stroke-width="5" stroke="rgb(0,0,0)" />
	<path d="M100,3509.31 100,3864.31 410,4043.31 410,3688.31 100,3509.31 z " fill-rule="evenodd" fill="rgb(0,128,0)" stroke-width="5" stroke="rgb(0,0,0)" />
	<path d="M724,3509.31 724,3864.31 1034,4043.31 1034,3688.31 724,3509.31 z " fill-rule="evenodd" fill="rgb(0,128,0)" stroke-width="5" stroke="rgb(0,0,0)" />
	<path d="M1348,3152 1348,3507 1658,3686 1658,3331 1348,3152 z " fill-rule="evenodd" fill="rgb(0,128,0)" stroke-width="5" stroke="rgb(0,0,0)" />
	<path d="M1348,3509.31 1348,3864.31 1658,4043.31 1658,3688.31 1348,3509.31 z " fill-rule="evenodd" fill="rgb(0,128,0)" stroke-width="5" stroke="rgb(0,0,0)" />
	<path d="M100,3866.62 100,4221.62 410,4400.62 410,4045.62 100,3866.62 z " fill-rule="evenodd" fill="rgb(0,128,0)" stroke-width="5" stroke="rgb(0,0,0)" />
	<path d="M724,3866.62 724,4221.62 1034,4400.62 1034,4045.62 724,3866.62 z " fill-rule="evenodd" fill="rgb(0,128,0)" stroke-width="5" stroke="rgb(0,0,0)" />
	<path d="M1348,3866.62 1348,4221.62 1658,4400.62 1658,4045.62 1348,3866.62 z " fill-rule="evenodd" fill="rgb(0,128,0)" stroke-width="5" stroke="rgb(0,0,0)" />
	<path d="M100,2080.07 100,2435.07 410,2614.07 410,2259.07 100,2080.07 z " fill-rule="evenodd" fill="rgb(0,128,0)" stroke-width="5" stroke="rgb(0,0,0)" />
	<path d="M724,2080.07 724,2435.07 1034,2614.07 1034,2259.07 724,2080.07 z " fill-rule="evenodd" fill="rgb(0,128,0)" stroke-width="5" stroke="rgb(0,0,0)" />
	<path d="M1348,2080.07 1348,2435.07 1658,2614.07 1658,2259.07 1348,2080.07 z " fill-rule="evenodd" fill="rgb(0,128,0)" stroke-width="5" stroke="rgb(0,0,0)" />
	<path d="M1972,2080.07 1972,2435.07 2282,2614.07 2282,2259.07 1972,2080.07 z " fill-rule="evenodd" fill="rgb(0,128,0)" stroke-width="5" stroke="rgb(0,0,0)" />
	<path d="M1972,2437.38 1972,2792.38 2282,2971.38 2282,2616.38 1972,2437.38 z " fill-rule="evenodd" fill="rgb(0,128,0)" stroke-width="5" stroke="rgb(0,0,0)" />
	<path d="M1972,3152 1972,3507 2282,3686 2282,3331 1972,3152 z " fill-rule="evenodd" fill="rgb(0,128,0)" stroke-width="5" stroke="rgb(0,0,0)" />
	<path d="M1972,3509.31 1972,3864.31 2282,4043.31 2282,3688.31 1972,3509.31 z " fill-rule="evenodd" fill="rgb(0,128,0)" stroke-width="5" stroke="rgb(0,0,0)" />
	<path d="M1972,3866.62 1972,4221.62 2282,4400.62 2282,4045.62 1972,3866.62 z " fill-rule="evenodd" fill="rgb(0,128,0)" stroke-width="5" stroke="rgb(0,0,0)" />
	<path d="M100,4223.93 100,4578.93 410,4757.93 410,4402.93 100,4223.93 z " fill-rule="evenodd" fill="rgb(0,128,0)" stroke-width="5" stroke="rgb(0,0,0)" />
	<path d="M724,4223.93 724,4578.93 1034,4757.93 1034,4402.93 724,4223.93 z " fill-rule="evenodd" fill="rgb(0,128,0)" stroke-width="5" stroke="rgb(0,0,0)" />
	<path d="M1348,4223.93 1348,4578.93 1658,4757.93 1658,4402.93 1348,4223.93 z " fill-rule="evenodd" fill="rgb(0,128,0)" stroke-width="5" stroke="rgb(0,0,0)" />
	<path d="M1972,4223.93 1972,4578.93 2282,4757.93 2282,4402.93 1972,4223.93 z " fill-rule="evenodd" fill="rgb(0,128,0)" stroke-width="5" stroke="rgb(0,0,0)" />
	<path d="M100,1722.76 100,2077.76 410,2256.76 410,1901.76 100,1722.76 z " fill-rule="evenodd" fill="rgb(0,128,0)" stroke-width="5" stroke="rgb(0,0,0)" />
	<path d="M724,1722.76 724,2077.76 1034,2256.76 1034,1901.76 724,1722.76 z " fill-rule="evenodd" fill="rgb(0,128,0)" stroke-width="5" stroke="rgb(0,0,0)" />
	<path d="M1348,1722.76 1348,2077.76 1658,2256.76 1658,1901.76 1348,1722.76 z " fill-rule="evenodd" fill="rgb(0,128,0)" stroke-width="5" stroke="rgb(0,0,0)" />
	<path d="M1972,1722.76 1972,2077.76 2282,2256.76 2282,1901.76 1972,1722.76 z " fill-rule="evenodd" fill="rgb(0,128,0)" stroke-width="5" stroke="rgb(0,0,0)" />
	<path d="M2596,1722.76 2596,2077.76 2906,2256.76 2906,1901.76 2596,1722.76 z " fill-rule="evenodd" fill="rgb(0,128,0)" stroke-width="5" stroke="rgb(0,0,0)" />
	<path d="M2596,2080.07 2596,2435.07 2906,2614.07 2906,2259.07 2596,2080.07 z " fill-rule="evenodd" fill="rgb(0,128,0)" stroke-width="5" stroke="rgb(0,0,0)" />
	<path d="M100,4581.24 100,4936.24 410,5115.24 410,4760.24 100,4581.24 z " fill-rule="evenodd" fill="rgb(0,128,0)" stroke-width="5" stroke="rgb(0,0,0)" />
	<path d="M724,4581.24 724,4936.24 1034,5115.24 1034,4760.24 724,4581.24 z " fill-rule="evenodd" fill="rgb(0,128,0)" stroke-width="5" stroke="rgb(0,0,0)" />
	<path d="M1348,4581.24 1348,4936.24 1658,5115.24 1658,4760.24 1348,4581.24 z " fill-rule="evenodd" fill="rgb(0,128,0)" stroke-width="5" stroke="rgb(0,0,0)" />
	<path d="M1972,4581.24 1972,4936.24 2282,5115.24 2282,4760.24 1972,4581.24 z " fill-rule="evenodd" fill="rgb(0,128,0)" stroke-width="5" stroke="rgb(0,0,0)" />
	<path d="M2596,1365.45 2596,1720.45 2906,1899.45 2906,1544.45 2596,1365.45 z " fill-rule="evenodd" fill="rgb(0,128,0)" stroke-width="5" stroke="rgb(0,0,0)" />
	<path d="M3220,1722.76 3220,2077.76 3530,2256.76 3530,1901.76 3220,1722.76 z " fill-rule="evenodd" fill="rgb(0,128,0)" stroke-width="5" stroke="rgb(0,0,0)" />
	<path d="M3220,2080.07 3220,2435.07 3530,2614.07 3530,2259.07 3220,2080.07 z " fill-rule="evenodd" fill="rgb(0,128,0)" stroke-width="5" stroke="rgb(0,0,0)" />
	<path d="M100,4938.55 100,5293.55 410,5472.55 410,5117.55 100,4938.55 z " fill-rule="evenodd" fill="rgb(0,128,0)" stroke-width="5" stroke="rgb(0,0,0)" />
	<path d="M724,4938.55 724,5293.55 1034,5472.55 1034,5117.55 724,4938.55 z " fill-rule="evenodd" fill="rgb(0,128,0)" stroke-width="5" stroke="rgb(0,0,0)" />
	<path d="M1348,4938.55 1348,5293.55 1658,5472.55 1658,5117.55 1348,4938.55 z " fill-rule="evenodd" fill="rgb(0,128,0)" stroke-width="5" stroke="rgb(0,0,0)" />
	<path d="M1972,4938.55 1972,5293.55 2282,5472.55 2282,5117.55 1972,4938.55 z " fill-rule="evenodd" fill="rgb(0,128,0)" stroke-width="5" stroke="rgb(0,0,0)" />
	<path d="M2596,1008.14 2596,1363.14 2906,1542.14 2906,1187.14 2596,1008.14 z " fill-rule="evenodd" fill="rgb(0,128,0)" stroke-width="5" stroke="rgb(0,0,0)" />
	<path d="M3844,1008.14 3844,1363.14 4154,1542.14 4154,1187.14 3844,1008.14 z " fill-rule="evenodd" fill="rgb(0,128,0)" stroke-width="5" stroke="rgb(0,0,0)" />
	<path d="M3844,1365.45 3844,1720.45 4154,1899.45 4154,1544.45 3844,1365.45 z " fill-rule="evenodd" fill="rgb(0,128,0)" stroke-width="5" stroke="rgb(0,0,0)" />
	<path d="M3844,1722.76 3844,2077.76 4154,2256.76 4154,1901.76 3844,1722.76 z " fill-rule="evenodd" fill="rgb(0,128,0)" stroke-width="5" stroke="rgb(0,0,0)" />
	<path d="M3844,2080.07 3844,2435.07 4154,2614.07 4154,2259.07 3844,2080.07 z " fill-rule="evenodd" fill="rgb(0,128,0)" stroke-width="5" stroke="rgb(0,0,0)" />
	<path d="M3844,3152 3844,3507 4154,3686 4154,3331 3844,3152 z " fill-rule="evenodd" fill="rgb(0,128,0)" stroke-width="5" stroke="rgb(0,0,0)" />
	<path d="M100,5295.86 100,5650.86 410,5829.86 410,5474.86 100,5295.86 z " fill-rule="evenodd" fill="rgb(0,128,0)" stroke-width="5" stroke="rgb(0,0,0)" />
	<path d="M724,5295.86 724,5650.86 1034,5829.86 1034,5474.86 724,5295.86 z " fill-rule="evenodd" fill="rgb(0,128,0)" stroke-width="5" stroke="rgb(0,0,0)" />
	<path d="M1348,5295.86 1348,5650.86 1658,5829.86 1658,5474.86 1348,5295.86 z " fill-rule="evenodd" fill="rgb(0,128,0)" stroke-width="5" stroke="rgb(0,0,0)" />
	<path d="M1972,5295.86 1972,5650.86 2282,5829.86 2282,5474.86 1972,5295.86 z " fill-rule="evenodd" fill="rgb(0,128,0)" stroke-width="5" stroke="rgb(0,0,0)" />
	<path d="M2596,650.834 2596,1005.83 2906,1184.83 2906,829.834 2596,650.834 z " fill-rule="evenodd" fill="rgb(0,128,0)" stroke-width="5" stroke="rgb(0,0,0)" />
	<path d="M4468,1365.45 4468,1720.45 4778,1899.45 4778,1544.45 4468,1365.45 z " fill-rule="evenodd" fill="rgb(0,128,0)" stroke-width="5" stroke="rgb(0,0,0)" />
	<path d="M4468,1722.76 4468,2077.76 4778,2256.76 4778,1901.76 4468,1722.76 z " fill-rule="evenodd" fill="rgb(0,128,0)" stroke-width="5" stroke="rgb(0,0,0)" />
	<path d="M4468,2080.07 4468,2435.07 4778,2614.07 4778,2259.07 4468,2080.07 z " fill-rule="evenodd" fill="rgb(0,128,0)" stroke-width="5" stroke="rgb(0,0,0)" />
	<path d="M4468,2437.38 4468,2792.38 4778,2971.38 4778,2616.38 4468,2437.38 z " fill-rule="evenodd" fill="rgb(0,128,0)" stroke-width="5" stroke="rgb(0,0,0)" />
	<path d="M4468,2794.69 4468,3149.69 4778,3328.69 4778,2973.69 4468,2794.69 z " fill-rule="evenodd" fill="rgb(0,128,0)" stroke-width="5" stroke="rgb(0,0,0)" />
	<path d="M4468,3152 4468,3507 4778,3686 4778,3331 4468,3152 z " fill-rule="evenodd" fill="rgb(0,128,0)" stroke-width="5" stroke="rgb(0,0,0)" />
	<path d="M3844,3509.31 3844,3864.31 4154,4043.31 4154,3688.31 3844,3509.31 z " fill-rule="evenodd" fill="rgb(0,128,0)" stroke-width="5" stroke="rgb(0,0,0)" />
	<path d="M4468,3509.31 4468,3864.31 4778,4043.31 4778,3688.31 4468,3509.31 z " fill-rule="evenodd" fill="rgb(0,128,0)" stroke-width="5" stroke="rgb(0,0,0)" />
	<path d="M100,5653.17 100,6008.17 410,6187.17 410,5832.17 100,5653.17 z " fill-rule="evenodd" fill="rgb(0,128,0)" stroke-width="5" stroke="rgb(0,0,0)" />
	<path d="M724,5653.17 724,6008.17 1034,6187.17 1034,5832.17 724,5653.17 z " fill-rule="evenodd" fill="rgb(0,128,0)" stroke-width="5" stroke="rgb(0,0,0)" />
	<path d="M1348,5653.17 1348,6008.17 1658,6187.17 1658,5832.17 1348,5653.17 z " fill-rule="evenodd" fill="rgb(0,128,0)" stroke-width="5" stroke="rgb(0,0,0)" />
	<path d="M1972,5653.17 1972,6008.17 2282,6187.17 2282,5832.17 1972,5653.17 z " fill-rule="evenodd" fill="rgb(0,128,0)" stroke-width="5" stroke="rgb(0,0,0)" />
	<path d="M2596,293.524 2596,648.524 2906,827.524 2906,472.524 2596,293.524 z " fill-rule="evenodd" fill="rgb(0,128,0)" stroke-width="5" stroke="rgb(0,0,0)" />
	<path d="M5092,1365.45 5092,1720.45 5402,1899.45 5402,1544.45 5092,1365.45 z " fill-rule="evenodd" fill="rgb(0,128,0)" stroke-width="5" stroke="rgb(0,0,0)" />
	<path d="M5092,1722.76 5092,2077.76 5402,2256.76 5402,1901.76 5092,1722.76 z " fill-rule="evenodd" fill="rgb(0,128,0)" stroke-width="5" stroke="rgb(0,0,0)" />
	<path d="M5092,2080.07 5092,2435.07 5402,2614.07 5402,2259.07 5092,2080.07 z " fill-rule="evenodd" fill="rgb(0,128,0)" stroke-width="5" stroke="rgb(0,0,0)" />
	<path d="M5092,2437.38 5092,2792.38 5402,2971.38 5402,2616.38 5092,2437.38 z " fill-rule="evenodd" fill="rgb(0,128,0)" stroke-width="5" stroke="rgb(0,0,0)" />
	<path d="M5092,2794.69 5092,3149.69 5402,3328.69 5402,2973.69 5092,2794.69 z " fill-rule="evenodd" fill="rgb(0,128,0)" stroke-width="5" stroke="rgb(0,0,0)" />
	<path d="M5092,3152 5092,3507 5402,3686 5402,3331 5092,3152 z " fill-rule="evenodd" fill="rgb(0,128,0)" stroke-width="5" stroke="rgb(0,0,0)" />
	<path d="M5092,3509.31 5092,3864.31 5402,4043.31 5402,3688.31 5092,3509.31 z " fill-rule="evenodd" fill="rgb(0,128,0)" stroke-width="5" stroke="rgb(0,0,0)" />
	<path d="M3844,3866.62 3844,4221.62 4154,4400.62 4154,4045.62 3844,3866.62 z " fill-rule="evenodd" fill="rgb(0,128,0)" stroke-width="5" stroke="rgb(0,0,0)" />
	<path d="M4468,3866.62 4468,4221.62 4778,4400.62 4778,4045.62 4468,3866.62 z " fill-rule="evenodd" fill="rgb(0,128,0)" stroke-width="5" stroke="rgb(0,0,0)" />
	<path d="M5092,3866.62 5092,4221.62 5402,4400.62 5402,4045.62 5092,3866.62 z " fill-rule="evenodd" fill="rgb(0,128,0)" stroke-width="5" stroke="rgb(0,0,0)" />
	<path d="M100,6010.48 100,6365.48 410,6544.48 410,6189.48 100,6010.48 z " fill-rule="evenodd" fill="rgb(0,128,0)" stroke-width="5" stroke="rgb(0,0,0)" />
	<path d="M724,6010.48 724,6365.48 1034,6544.48 1034,6189.48 724,6010.48 z " fill-rule="evenodd" fill="rgb(0,128,0)" stroke-width="5" stroke="rgb(0,0,0)" />
	<path d="M1348,6010.48 1348,6365.48 1658,6544.48 1658,6189.48 1348,6010.48 z " fill-rule="evenodd" fill="rgb(0,128,0)" stroke-width="5" stroke="rgb(0,0,0)" />
	<path d="M1972,6010.48 1972,6365.48 2282,6544.48 2282,6189.48 1972,6010.48 z " fill-rule="evenodd" fill="rgb(0,128,0)" stroke-width="5" stroke="rgb(0,0,0)" />
	<path d="M2596,6010.48 2596,6365.48 2906,6544.48 2906,6189.48 2596,6010.48 z " fill-rule="evenodd" fill="rgb(0,128,0)" stroke-width="5" stroke="rgb(0,0,0)" />
	<path d="M5716,1722.76 5716,2077.76 6026,2256.76 6026,1901.76 5716,1722.76 z " fill-rule="evenodd" fill="rgb(0,128,0)" stroke-width="5" stroke="rgb(0,0,0)" />
	<path d="M5716,2080.07 5716,2435.07 6026,2614.07 6026,2259.07 5716,2080.07 z " fill-rule="evenodd" fill="rgb(0,128,0)" stroke-width="5" stroke="rgb(0,0,0)" />
	<path d="M5716,2437.38 5716,2792.38 6026,2971.38 6026,2616.38 5716,2437.38 z " fill-rule="evenodd" fill="rgb(0,128,0)" stroke-width="5" stroke="rgb(0,0,0)" />
	<path d="M5716,2794.69 5716,3149.69 6026,3328.69 6026,2973.69 5716,2794.69 z " fill-rule="evenodd" fill="rgb(0,128,0)" stroke-width="5" stroke="rgb(0,0,0)" />
	<path d="M5716,3152 5716,3507 6026,3686 6026,3331 5716,3152 z " fill-rule="evenodd" fill="rgb(0,128,0)" stroke-width="5" stroke="rgb(0,0,0)" />
	<path d="M5716,3509.31 5716,3864.31 6026,4043.31 6026,3688.31 5716,3509.31 z " fill-rule="evenodd" fill="rgb(0,128,0)" stroke-width="5" stroke="rgb(0,0,0)" />
	<path d="M5716,3866.62 5716,4221.62 6026,4400.62 6026,4045.62 5716,3866.62 z " fill-rule="evenodd" fill="rgb(0,128,0)" stroke-width="5" stroke="rgb(0,0,0)" />
	<path d="M3844,4223.93 3844,4578.93 4154,4757.93 4154,4402.93 3844,4223.93 z " fill-rule="evenodd" fill="rgb(0,128,0)" stroke-width="5" stroke="rgb(0,0,0)" />
	<path d="M4468,4223.93 4468,4578.93 4778,4757.93 4778,4402.93 4468,4223.93 z " fill-rule="evenodd" fill="rgb(0,128,0)" stroke-width="5" stroke="rgb(0,0,0)" />
	<path d="M5092,4223.93 5092,4578.93 5402,4757.93 5402,4402.93 5092,4223.93 z " fill-rule="evenodd" fill="rgb(0,128,0)" stroke-width="5" stroke="rgb(0,0,0)" />
	<path d="M5716,4223.93 5716,4578.93 6026,4757.93 6026,4402.93 5716,4223.93 z " fill-rule="evenodd" fill="rgb(0,128,0)" stroke-width="5" stroke="rgb(0,0,0)" />
	<path d="M100,6367.79 100,6722.79 410,6901.79 410,6546.79 100,6367.79 z " fill-rule="evenodd" fill="rgb(0,128,0)" stroke-width="5" stroke="rgb(0,0,0)" />
	<path d="M724,6367.79 724,6722.79 1034,6901.79 1034,6546.79 724,6367.79 z " fill-rule="evenodd" fill="rgb(0,128,0)" stroke-width="5" stroke="rgb(0,0,0)" />
	<path d="M1348,6367.79 1348,6722.79 1658,6901.79 1658,6546.79 1348,6367.79 z " fill-rule="evenodd" fill="rgb(0,128,0)" stroke-width="5" stroke="rgb(0,0,0)" />
	<path d="M1972,6367.79 1972,6722.79 2282,6901.79 2282,6546.79 1972,6367.79 z " fill-rule="evenodd" fill="rgb(0,128,0)" stroke-width="5" stroke="rgb(0,0,0)" />
	<path d="M6340,2080.07 6340,2435.07 6650,2614.07 6650,2259.07 6340,2080.07 z " fill-rule="evenodd" fill="rgb(0,128,0)" stroke-width="5" stroke="rgb(0,0,0)" />
	<path d="M6340,2437.38 6340,2792.38 6650,2971.38 6650,2616.38 6340,2437.38 z " fill-rule="evenodd" fill="rgb(0,128,0)" stroke-width="5" stroke="rgb(0,0,0)" />
	<path d="M6340,2794.69 6340,3149.69 6650,3328.69 6650,2973.69 6340,2794.69 z " fill-rule="evenodd" fill="rgb(0,128,0)" stroke-width="5" stroke="rgb(0,0,0)" />
	<path d="M6340,3152 6340,3507 6650,3686 6650,3331 6340,3152 z " fill-rule="evenodd" fill="rgb(0,128,0)" stroke-width="5" stroke="rgb(0,0,0)" />
	<path d="M6340,3509.31 6340,3864.31 6650,4043.31 6650,3688.31 6340,3509.31 z " fill-rule="evenodd" fill="rgb(0,128,0)" stroke-width="5" stroke="rgb(0,0,0)" />
	<path d="M6340,3866.62 6340,4221.62 6650,4400.62 6650,4045.62 6340,3866.62 z " fill-rule="evenodd" fill="rgb(0,128,0)" stroke-width="5" stroke="rgb(0,0,0)" />
	<path d="M6340,4223.93 6340,4578.93 6650,4757.93 6650,4402.93 6340,4223.93 z " fill-rule="evenodd" fill="rgb(0,128,0)" stroke-width="5" stroke="rgb(0,0,0)" />
	<path d="M5092,4581.24 5092,4936.24 5402,5115.24 5402,4760.24 5092,4581.24 z " fill-rule="evenodd" fill="rgb(0,128,0)" stroke-width="5" stroke="rgb(0,0,0)" />
	<path d="M5716,4581.24 5716,4936.24 6026,5115.24 6026,4760.24 5716,4581.24 z " fill-rule="evenodd" fill="rgb(0,128,0)" stroke-width="5" stroke="rgb(0,0,0)" />
	<path d="M6340,4581.24 6340,4936.24 6650,5115.24 6650,4760.24 6340,4581.24 z " fill-rule="evenodd" fill="rgb(0,128,0)" stroke-width="5" stroke="rgb(0,0,0)" />
	<path d="M6964,2080.07 6964,2435.07 7274,2614.07 7274,2259.07 6964,2080.07 z " fill-rule="evenodd" fill="rgb(0,128,0)" stroke-width="5" stroke="rgb(0,0,0)" />
	<path d="M6964,2437.38 6964,2792.38 7274,2971.38 7274,2616.38 6964,2437.38 z " fill-rule="evenodd" fill="rgb(0,128,0)" stroke-width="5" stroke="rgb(0,0,0)" />
	<path d="M6964,2794.69 6964,3149.69 7274,3328.69 7274,2973.69 6964,2794.69 z " fill-rule="evenodd" fill="rgb(0,128,0)" stroke-width="5" stroke="rgb(0,0,0)" />
	<path d="M6964,3152 6964,3507 7274,3686 7274,3331 6964,3152 z " fill-rule="evenodd" fill="rgb(0,128,0)" stroke-width="5" stroke="rgb(0,0,0)" />
	<path d="M6964,3509.31 6964,3864.31 7274,4043.31 7274,3688.31 6964,3509.31 z " fill-rule="evenodd" fill="rgb(0,128,0)" stroke-width="5" stroke="rgb(0,0,0)" />
	<path d="M6964,3866.62 6964,4221.62 7274,4400.62 7274,4045.62 6964,3866.62 z " fill-rule="evenodd" fill="rgb(0,128,0)" stroke-width="5" stroke="rgb(0,0,0)" />
	<path d="M6964,4223.93 6964,4578.93 7274,4757.93 7274,4402.93 6964,4223.93 z " fill-rule="evenodd" fill="rgb(0,128,0)" stroke-width="5" stroke="rgb(0,0,0)" />
	<path d="M6964,4581.24 6964,4936.24 7274,5115.24 7274,4760.24 6964,4581.24 z " fill-rule="evenodd" fill="rgb(0,128,0)" stroke-width="5" stroke="rgb(0,0,0)" />
	<path d="M5092,4938.55 5092,5293.55 5402,5472.55 5402,5117.55 5092,4938.55 z " fill-rule="evenodd" fill="rgb(0,128,0)" stroke-width="5" stroke="rgb(0,0,0)" />
	<path d="M5716,4938.55 5716,5293.55 6026,5472.55 6026,5117.55 5716,4938.55 z " fill-rule="evenodd" fill="rgb(0,128,0)" stroke-width="5" stroke="rgb(0,0,0)" />
	<path d="M6340,4938.55 6340,5293.55 6650,5472.55 6650,5117.55 6340,4938.55 z " fill-rule="evenodd" fill="rgb(0,128,0)" stroke-width="5" stroke="rgb(0,0,0)" />
	<path d="M6964,4938.55 6964,5293.55 7274,5472.55 7274,5117.55 6964,4938.55 z " fill-rule="evenodd" fill="rgb(0,128,0)" stroke-width="5" stroke="rgb(0,0,0)" />
	<path d="M7588,2437.38 7588,2792.38 7898,2971.38 7898,2616.38 7588,2437.38 z " fill-rule="evenodd" fill="rgb(0,128,0)" stroke-width="5" stroke="rgb(0,0,0)" />
	<path d="M7588,2794.69 7588,3149.69 7898,3328.69 7898,2973.69 7588,2794.69 z " fill-rule="evenodd" fill="rgb(0,128,0)" stroke-width="5" stroke="rgb(0,0,0)" />
	<path d="M7588,3152 7588,3507 7898,3686 7898,3331 7588,3152 z " fill-rule="evenodd" fill="rgb(0,128,0)" stroke-width="5" stroke="rgb(0,0,0)" />
	<path d="M7588,3509.31 7588,3864.31 7898,4043.31 7898,3688.31 7588,3509.31 z " fill-rule="evenodd" fill="rgb(0,128,0)" stroke-width="5" stroke="rgb(0,0,0)" />
	<path d="M7588,3866.62 7588,4221.62 7898,4400.62 7898,4045.62 7588,3866.62 z " fill-rule="evenodd" fill="rgb(0,128,0)" stroke-width="5" stroke="rgb(0,0,0)" />
	<path d="M7588,4223.93 7588,4578.93 7898,4757.93 7898,4402.93 7588,4223.93 z " fill-rule="evenodd" fill="rgb(0,128,0)" stroke-width="5" stroke="rgb(0,0,0)" />
	<path d="M7588,4581.24 7588,4936.24 7898,5115.24 7898,4760.24 7588,4581.24 z " fill-rule="evenodd" fill="rgb(0,128,0)" stroke-width="5" stroke="rgb(0,0,0)" />
	<path d="M7588,4938.55 7588,5293.55 7898,5472.55 7898,5117.55 7588,4938.55 z " fill-rule="evenodd" fill="rgb(0,128,0)" stroke-width="5" stroke="rgb(0,0,0)" />
	<path d="M8212,2794.69 8212,3149.69 8522,3328.69 8522,2973.69 8212,2794.69 z " fill-rule="evenodd" fill="rgb(0,128,0)" stroke-width="5" stroke="rgb(0,0,0)" />
	<path d="M8212,3152 8212,3507 8522,3686 8522,3331 8212,3152 z " fill-rule="evenodd" fill="rgb(0,128,0)" stroke-width="5" stroke="rgb(0,0,0)" />
	<path d="M8212,3509.31 8212,3864.31 8522,4043.31 8522,3688.31 8212,3509.31 z " fill-rule="evenodd" fill="rgb(0,128,0)" stroke-width="5" stroke="rgb(0,0,0)" />
	<path d="M8212,3866.62 8212,4221.62 8522,4400.62 8522,4045.62 8212,3866.62 z " fill-rule="evenodd" fill="rgb(0,128,0)" stroke-width="5" stroke="rgb(0,0,0)" />
	<path d="M8212,4223.93 8212,4578.93 8522,4757.93 8522,4402.93 8212,4223.93 z " fill-rule="evenodd" fill="rgb(0,128,0)" stroke-width="5" stroke="rgb(0,0,0)" />
	<path d="M8212,4581.24 8212,4936.24 8522,5115.24 8522,4760.24 8212,4581.24 z " fill-rule="evenodd" fill="rgb(0,128,0)" stroke-width="5" stroke="rgb(0,0,0)" />
	<path d="M8212,4938.55 8212,5293.55 8522,5472.55 8522,5117.55 8212,4938.55 z " fill-rule="evenodd" fill="rgb(0,128,0)" stroke-width="5" stroke="rgb(0,0,0)" />
	<path d="M722,3152 722,3507 412,3686 412,3331 722,3152 z " fill-rule="evenodd" fill="rgb(0,128,0)" stroke-width="5" stroke="rgb(0,0,0)" />
	<path d="M722,3509.31 722,3864.31 412,4043.31 412,3688.31 722,3509.31 z " fill-rule="evenodd" fill="rgb(0,128,0)" stroke-width="5" stroke="rgb(0,0,0)" />
	<path d="M1346,3152 1346,3507 1036,3686 1036,3331 1346,3152 z " fill-rule="evenodd" fill="rgb(0,128,0)" stroke-width="5" stroke="rgb(0,0,0)" />
	<path d="M1346,3509.31 1346,3864.31 1036,4043.31 1036,3688.31 1346,3509.31 z " fill-rule="evenodd" fill="rgb(0,128,0)" stroke-width="5" stroke="rgb(0,0,0)" />
	<path d="M722,3866.62 722,4221.62 412,4400.62 412,4045.62 722,3866.62 z " fill-rule="evenodd" fill="rgb(0,128,0)" stroke-width="5" stroke="rgb(0,0,0)" />
	<path d="M1346,3866.62 1346,4221.62 1036,4400.62 1036,4045.62 1346,3866.62 z " fill-rule="evenodd" fill="rgb(0,128,0)" stroke-width="5" stroke="rgb(0,0,0)" />
	<path d="M722,2080.07 722,2435.07 412,2614.07 412,2259.07 722,2080.07 z " fill-rule="evenodd" fill="rgb(0,128,0)" stroke-width="5" stroke="rgb(0,0,0)" />
	<path d="M1346,2080.07 1346,2435.07 1036,2614.07 1036,2259.07 1346,2080.07 z " fill-rule="evenodd" fill="rgb(0,128,0)" stroke-width="5" stroke="rgb(0,0,0)" />
	<path d="M1970,2080.07 1970,2435.07 1660,2614.07 1660,2259.07 1970,2080.07 z " fill-rule="evenodd" fill="rgb(0,128,0)" stroke-width="5" stroke="rgb(0,0,0)" />
	<path d="M1970,3152 1970,3507 1660,3686 1660,3331 1970,3152 z " fill-rule="evenodd" fill="rgb(0,128,0)" stroke-width="5" stroke="rgb(0,0,0)" />
	<path d="M1970,3509.31 1970,3864.31 1660,4043.31 1660,3688.31 1970,3509.31 z " fill-rule="evenodd" fill="rgb(0,128,0)" stroke-width="5" stroke="rgb(0,0,0)" />
	<path d="M1970,3866.62 1970,4221.62 1660,4400.62 1660,4045.62 1970,3866.62 z " fill-rule="evenodd" fill="rgb(0,128,0)" stroke-width="5" stroke="rgb(0,0,0)" />
	<path d="M722,4223.93 722,4578.93 412,4757.93 412,4402.93 722,4223.93 z " fill-rule="evenodd" fill="rgb(0,128,0)" stroke-width="5" stroke="rgb(0,0,0)" />
	<path d="M1346,4223.93 1346,4578.93 1036,4757.93 1036,4402.93 1346,4223.93 z " fill-rule="evenodd" fill="rgb(0,128,0)" stroke-width="5" stroke="rgb(0,0,0)" />
	<path d="M1970,4223.93 1970,4578.93 1660,4757.93 1660,4402.93 1970,4223.93 z " fill-rule="evenodd" fill="rgb(0,128,0)" stroke-width="5" stroke="rgb(0,0,0)" />
	<path d="M722,1722.76 722,2077.76 412,2256.76 412,1901.76 722,1722.76 z " fill-rule="evenodd" fill="rgb(0,128,0)" stroke-width="5" stroke="rgb(0,0,0)" />
	<path d="M1346,1722.76 1346,2077.76 1036,2256.76 1036,1901.76 1346,1722.76 z " fill-rule="evenodd" fill="rgb(0,128,0)" stroke-width="5" stroke="rgb(0,0,0)" />
	<path d="M1970,1722.76 1970,2077.76 1660,2256.76 1660,1901.76 1970,1722.76 z " fill-rule="evenodd" fill="rgb(0,128,0)" stroke-width="5" stroke="rgb(0,0,0)" />
	<path d="M2594,1722.76 2594,2077.76 2284,2256.76 2284,1901.76 2594,1722.76 z " fill-rule="evenodd" fill="rgb(0,128,0)" stroke-width="5" stroke="rgb(0,0,0)" />
	<path d="M2594,2080.07 2594,2435.07 2284,2614.07 2284,2259.07 2594,2080.07 z " fill-rule="evenodd" fill="rgb(0,128,0)" stroke-width="5" stroke="rgb(0,0,0)" />
	<path d="M2594,2437.38 2594,2792.38 2284,2971.38 2284,2616.38 2594,2437.38 z " fill-rule="evenodd" fill="rgb(0,128,0)" stroke-width="5" stroke="rgb(0,0,0)" />
	<path d="M2594,2794.69 2594,3149.69 2284,3328.69 2284,2973.69 2594,2794.69 z " fill-rule="evenodd" fill="rgb(0,128,0)" stroke-width="5" stroke="rgb(0,0,0)" />
	<path d="M2594,3152 2594,3507 2284,3686 2284,3331 2594,3152 z " fill-rule="evenodd" fill="rgb(0,128,0)" stroke-width="5" stroke="rgb(0,0,0)" />
	<path d="M2594,3509.31 2594,3864.31 2284,4043.31 2284,3688.31 2594,3509.31 z " fill-rule="evenodd" fill="rgb(0,128,0)" stroke-width="5" stroke="rgb(0,0,0)" />
	<path d="M2594,3866.62 2594,4221.62 2284,4400.62 2284,4045.62 2594,3866.62 z " fill-rule="evenodd" fill="rgb(0,128,0)" stroke-width="5" stroke="rgb(0,0,0)" />
	<path d="M2594,4223.93 2594,4578.93 2284,4757.93 2284,4402.93 2594,4223.93 z " fill-rule="evenodd" fill="rgb(0,128,0)" stroke-width="5" stroke="rgb(0,0,0)" />
	<path d="M722,4581.24 722,4936.24 412,5115.24 412,4760.24 722,4581.24 z " fill-rule="evenodd" fill="rgb(0,128,0)" stroke-width="5" stroke="rgb(0,0,0)" />
	<path d="M1346,4581.24 1346,4936.24 1036,5115.24 1036,4760.24 1346,4581.24 z " fill-rule="evenodd" fill="rgb(0,128,0)" stroke-width="5" stroke="rgb(0,0,0)" />
	<path d="M1970,4581.24 1970,4936.24 1660,5115.24 1660,4760.24 1970,4581.24 z " fill-rule="evenodd" fill="rgb(0,128,0)" stroke-width="5" stroke="rgb(0,0,0)" />
	<path d="M2594,4581.24 2594,4936.24 2284,5115.24 2284,4760.24 2594,4581.24 z " fill-rule="evenodd" fill="rgb(0,128,0)" stroke-width="5" stroke="rgb(0,0,0)" />
	<path d="M2594,1365.45 2594,1720.45 2284,1899.45 2284,1544.45 2594,1365.45 z " fill-rule="evenodd" fill="rgb(0,128,0)" stroke-width="5" stroke="rgb(0,0,0)" />
	<path d="M3218,1722.76 3218,2077.76 2908,2256.76 2908,1901.76 3218,1722.76 z " fill-rule="evenodd" fill="rgb(0,128,0)" stroke-width="5" stroke="rgb(0,0,0)" />
	<path d="M3218,2080.07 3218,2435.07 2908,2614.07 2908,2259.07 3218,2080.07 z " fill-rule="evenodd" fill="rgb(0,128,0)" stroke-width="5" stroke="rgb(0,0,0)" />
	<path d="M722,4938.55 722,5293.55 412,5472.55 412,5117.55 722,4938.55 z " fill-rule="evenodd" fill="rgb(0,128,0)" stroke-width="5" stroke="rgb(0,0,0)" />
	<path d="M1346,4938.55 1346,5293.55 1036,5472.55 1036,5117.55 1346,4938.55 z " fill-rule="evenodd" fill="rgb(0,128,0)" stroke-width="5" stroke="rgb(0,0,0)" />
	<path d="M1970,4938.55 1970,5293.55 1660,5472.55 1660,5117.55 1970,4938.55 z " fill-rule="evenodd" fill="rgb(0,128,0)" stroke-width="5" stroke="rgb(0,0,0)" />
	<path d="M2594,4938.55 2594,5293.55 2284,5472.55 2284,5117.55 2594,4938.55 z " fill-rule="evenodd" fill="rgb(0,128,0)" stroke-width="5" stroke="rgb(0,0,0)" />
	<path d="M2594,1008.14 2594,1363.14 2284,1542.14 2284,1187.14 2594,1008.14 z " fill-rule="evenodd" fill="rgb(0,128,0)" stroke-width="5" stroke="rgb(0,0,0)" />
	<path d="M3842,1008.14 3842,1363.14 3532,1542.14 3532,1187.14 3842,1008.14 z " fill-rule="evenodd" fill="rgb(0,128,0)" stroke-width="5" stroke="rgb(0,0,0)" />
	<path d="M3842,1365.45 3842,1720.45 3532,1899.45 3532,1544.45 3842,1365.45 z " fill-rule="evenodd" fill="rgb(0,128,0)" stroke-width="5" stroke="rgb(0,0,0)" />
	<path d="M3842,1722.76 3842,2077.76 3532,2256.76 3532,1901.76 3842,1722.76 z " fill-rule="evenodd" fill="rgb(0,128,0)" stroke-width="5" stroke="rgb(0,0,0)" />
	<path d="M3842,2080.07 3842,2435.07 3532,2614.07 3532,2259.07 3842,2080.07 z " fill-rule="evenodd" fill="rgb(0,128,0)" stroke-width="5" stroke="rgb(0,0,0)" />
	<path d="M722,5295.86 722,5650.86 412,5829.86 412,5474.86 722,5295.86 z " fill-rule="evenodd" fill="rgb(0,128,0)" stroke-width="5" stroke="rgb(0,0,0)" />
	<path d="M1346,5295.86 1346,5650.86 1036,5829.86 1036,5474.86 1346,5295.86 z " fill-rule="evenodd" fill="rgb(0,128,0)" stroke-width="5" stroke="rgb(0,0,0)" />
	<path d="M1970,5295.86 1970,5650.86 1660,5829.86 1660,5474.86 1970,5295.86 z " fill-rule="evenodd" fill="rgb(0,128,0)" stroke-width="5" stroke="rgb(0,0,0)" />
	<path d="M2594,5295.86 2594,5650.86 2284,5829.86 2284,5474.86 2594,5295.86 z " fill-rule="evenodd" fill="rgb(0,128,0)" stroke-width="5" stroke="rgb(0,0,0)" />
	<path d="M2594,650.834 2594,1005.83 2284,1184.83 2284,829.834 2594,650.834 z " fill-rule="evenodd" fill="rgb(0,128,0)" stroke-width="5" stroke="rgb(0,0,0)" />
	<path d="M3218,650.834 3218,1005.83 2908,1184.83 2908,829.834 3218,650.834 z " fill-rule="evenodd" fill="rgb(0,128,0)" stroke-width="5" stroke="rgb(0,0,0)" />
	<path d="M4466,1365.45 4466,1720.45 4156,1899.45 4156,1544.45 4466,1365.45 z " fill-rule="evenodd" fill="rgb(0,128,0)" stroke-width="5" stroke="rgb(0,0,0)" />
	<path d="M4466,1722.76 4466,2077.76 4156,2256.76 4156,1901.76 4466,1722.76 z " fill-rule="evenodd" fill="rgb(0,128,0)" stroke-width="5" stroke="rgb(0,0,0)" />
	<path d="M4466,2080.07 4466,2435.07 4156,2614.07 4156,2259.07 4466,2080.07 z " fill-rule="evenodd" fill="rgb(0,128,0)" stroke-width="5" stroke="rgb(0,0,0)" />
	<path d="M4466,3152 4466,3507 4156,3686 4156,3331 4466,3152 z " fill-rule="evenodd" fill="rgb(0,128,0)" stroke-width="5" stroke="rgb(0,0,0)" />
	<path d="M4466,3509.31 4466,3864.31 4156,4043.31 4156,3688.31 4466,3509.31 z " fill-rule="evenodd" fill="rgb(0,128,0)" stroke-width="5" stroke="rgb(0,0,0)" />
	<path d="M722,5653.17 722,6008.17 412,6187.17 412,5832.17 722,5653.17 z " fill-rule="evenodd" fill="rgb(0,128,0)" stroke-width="5" stroke="rgb(0,0,0)" />
	<path d="M1346,5653.17 1346,6008.17 1036,6187.17 1036,5832.17 1346,5653.17 z " fill-rule="evenodd" fill="rgb(0,128,0)" stroke-width="5" stroke="rgb(0,0,0)" />
	<path d="M1970,5653.17 1970,6008.17 1660,6187.17 1660,5832.17 1970,5653.17 z " fill-rule="evenodd" fill="rgb(0,128,0)" stroke-width="5" stroke="rgb(0,0,0)" />
	<path d="M2594,5653.17 2594,6008.17 2284,6187.17 2284,5832.17 2594,5653.17 z " fill-rule="evenodd" fill="rgb(0,128,0)" stroke-width="5" stroke="rgb(0,0,0)" />
	<path d="M2594,293.524 2594,648.524 2284,827.524 2284,472.524 2594,293.524 z " fill-rule="evenodd" fill="rgb(0,128,0)" stroke-width="5" stroke="rgb(0,0,0)" />
	<path d="M5090,1365.45 5090,1720.45 4780,1899.45 4780,1544.45 5090,1365.45 z " fill-rule="evenodd" fill="rgb(0,128,0)" stroke-width="5" stroke="rgb(0,0,0)" />
	<path d="M5090,1722.76 5090,2077.76 4780,2256.76 4780,1901.76 5090,1722.76 z " fill-rule="evenodd" fill="rgb(0,128,0)" stroke-width="5" stroke="rgb(0,0,0)" />
	<path d="M5090,2080.07 5090,2435.07 4780,2614.07 4780,2259.07 5090,2080.07 z " fill-rule="evenodd" fill="rgb(0,128,0)" stroke-width="5" stroke="rgb(0,0,0)" />
	<path d="M5090,2437.38 5090,2792.38 4780,2971.38 4780,2616.38 5090,2437.38 z " fill-rule="evenodd" fill="rgb(0,128,0)" stroke-width="5" stroke="rgb(0,0,0)" />
	<path d="M4466,3866.62 4466,4221.62 4156,4400.62 4156,4045.62 4466,3866.62 z " fill-rule="evenodd" fill="rgb(0,128,0)" stroke-width="5" stroke="rgb(0,0,0)" />
	<path d="M722,6010.48 722,6365.48 412,6544.48 412,6189.48 722,6010.48 z " fill-rule="evenodd" fill="rgb(0,128,0)" stroke-width="5" stroke="rgb(0,0,0)" />
	<path d="M1346,6010.48 1346,6365.48 1036,6544.48 1036,6189.48 1346,6010.48 z " fill-rule="evenodd" fill="rgb(0,128,0)" stroke-width="5" stroke="rgb(0,0,0)" />
	<path d="M1970,6010.48 1970,6365.48 1660,6544.48 1660,6189.48 1970,6010.48 z " fill-rule="evenodd" fill="rgb(0,128,0)" stroke-width="5" stroke="rgb(0,0,0)" />
	<path d="M2594,6010.48 2594,6365.48 2284,6544.48 2284,6189.48 2594,6010.48 z " fill-rule="evenodd" fill="rgb(0,128,0)" stroke-width="5" stroke="rgb(0,0,0)" />
	<path d="M5714,1722.76 5714,2077.76 5404,2256.76 5404,1901.76 5714,1722.76 z " fill-rule="evenodd" fill="rgb(0,128,0)" stroke-width="5" stroke="rgb(0,0,0)" />
	<path d="M5714,2080.07 5714,2435.07 5404,2614.07 5404,2259.07 5714,2080.07 z " fill-rule="evenodd" fill="rgb(0,128,0)" stroke-width="5" stroke="rgb(0,0,0)" />
	<path d="M5714,2437.38 5714,2792.38 5404,2971.38 5404,2616.38 5714,2437.38 z " fill-rule="evenodd" fill="rgb(0,128,0)" stroke-width="5" stroke="rgb(0,0,0)" />
	<path d="M5714,2794.69 5714,3149.69 5404,3328.69 5404,2973.69 5714,2794.69 z " fill-rule="evenodd" fill="rgb(0,128,0)" stroke-width="5" stroke="rgb(0,0,0)" />
	<path d="M5714,3152 5714,3507 5404,3686 5404,3331 5714,3152 z " fill-rule="evenodd" fill="rgb(0,128,0)" stroke-width="5" stroke="rgb(0,0,0)" />
	<path d="M5714,3509.31 5714,3864.31 5404,4043.31 5404,3688.31 5714,3509.31 z " fill-rule="evenodd" fill="rgb(0,128,0)" stroke-width="5" stroke="rgb(0,0,0)" />
	<path d="M5714,3866.62 5714,4221.62 5404,4400.62 5404,4045.62 5714,3866.62 z " fill-rule="evenodd" fill="rgb(0,128,0)" stroke-width="5" stroke="rgb(0,0,0)" />
	<path d="M4466,4223.93 4466,4578.93 4156,4757.93 4156,4402.93 4466,4223.93 z " fill-rule="evenodd" fill="rgb(0,128,0)" stroke-width="5" stroke="rgb(0,0,0)" />
	<path d="M5714,4223.93 5714,4578.93 5404,4757.93 5404,4402.93 5714,4223.93 z " fill-rule="evenodd" fill="rgb(0,128,0)" stroke-width="5" stroke="rgb(0,0,0)" />
	<path d="M722,6367.79 722,6722.79 412,6901.79 412,6546.79 722,6367.79 z " fill-rule="evenodd" fill="rgb(0,128,0)" stroke-width="5" stroke="rgb(0,0,0)" />
	<path d="M1346,6367.79 1346,6722.79 1036,6901.79 1036,6546.79 1346,6367.79 z " fill-rule="evenodd" fill="rgb(0,128,0)" stroke-width="5" stroke="rgb(0,0,0)" />
	<path d="M1970,6367.79 1970,6722.79 1660,6901.79 1660,6546.79 1970,6367.79 z " fill-rule="evenodd" fill="rgb(0,128,0)" stroke-width="5" stroke="rgb(0,0,0)" />
	<path d="M2594,6367.79 2594,6722.79 2284,6901.79 2284,6546.79 2594,6367.79 z " fill-rule="evenodd" fill="rgb(0,128,0)" stroke-width="5" stroke="rgb(0,0,0)" />
	<path d="M6338,2080.07 6338,2435.07 6028,2614.07 6028,2259.07 6338,2080.07 z " fill-rule="evenodd" fill="rgb(0,128,0)" stroke-width="5" stroke="rgb(0,0,0)" />
	<path d="M6338,2437.38 6338,2792.38 6028,2971.38 6028,2616.38 6338,2437.38 z " fill-rule="evenodd" fill="rgb(0,128,0)" stroke-width="5" stroke="rgb(0,0,0)" />
	<path d="M6338,2794.69 6338,3149.69 6028,3328.69 6028,2973.69 6338,2794.69 z " fill-rule="evenodd" fill="rgb(0,128,0)" stroke-width="5" stroke="rgb(0,0,0)" />
	<path d="M6338,3152 6338,3507 6028,3686 6028,3331 6338,3152 z " fill-rule="evenodd" fill="rgb(0,128,0)" stroke-width="5" stroke="rgb(0,0,0)" />
	<path d="M6338,3509.31 6338,3864.31 6028,4043.31 6028,3688.31 6338,3509.31 z " fill-rule="evenodd" fill="rgb(0,128,0)" stroke-width="5" stroke="rgb(0,0,0)" />
	<path d="M6338,3866.62 6338,4221.62 6028,4400.62 6028,4045.62 6338,3866.62 z " fill-rule="evenodd" fill="rgb(0,128,0)" stroke-width="5" stroke="rgb(0,0,0)" />
	<path d="M6338,4223.93 6338,4578.93 6028,4757.93 6028,4402.93 6338,4223.93 z " fill-rule="evenodd" fill="rgb(0,128,0)" stroke-width="5" stroke="rgb(0,0,0)" />
	<path d="M5714,4581.24 5714,4936.24 5404,5115.24 5404,4760.24 5714,4581.24 z " fill-rule="evenodd" fill="rgb(0,128,0)" stroke-width="5" stroke="rgb(0,0,0)" />
	<path d="M6338,4581.24 6338,4936.24 6028,5115.24 6028,4760.24 6338,4581.24 z " fill-rule="evenodd" fill="rgb(0,128,0)" stroke-width="5" stroke="rgb(0,0,0)" />
	<path d="M6962,2080.07 6962,2435.07 6652,2614.07 6652,2259.07 6962,2080.07 z " fill-rule="evenodd" fill="rgb(0,128,0)" stroke-width="5" stroke="rgb(0,0,0)" />
	<path d="M6962,2437.38 6962,2792.38 6652,2971.38 6652,2616.38 6962,2437.38 z " fill-rule="evenodd" fill="rgb(0,128,0)" stroke-width="5" stroke="rgb(0,0,0)" />
	<path d="M6962,2794.69 6962,3149.69 6652,3328.69 6652,2973.69 6962,2794.69 z " fill-rule="evenodd" fill="rgb(0,128,0)" stroke-width="5" stroke="rgb(0,0,0)" />
	<path d="M6962,3152 6962,3507 6652,3686 6652,3331 6962,3152 z " fill-rule="evenodd" fill="rgb(0,128,0)" stroke-width="5" stroke="rgb(0,0,0)" />
	<path d="M6962,3509.31 6962,3864.31 6652,4043.31 6652,3688.31 6962,3509.31 z " fill-rule="evenodd" fill="rgb(0,128,0)" stroke-width="5" stroke="rgb(0,0,0)" />
	<path d="M6962,3866.62 6962,4221.62 6652,4400.62 6652,4045.62 6962,3866.62 z " fill-rule="evenodd" fill="rgb(0,128,0)" stroke-width="5" stroke="rgb(0,0,0)" />
	<path d="M6962,4223.93 6962,4578.93 6652,4757.93 6652,4402.93 6962,4223.93 z " fill-rule="evenodd" fill="rgb(0,128,0)" stroke-width="5" stroke="rgb(0,0,0)" />
	<path d="M6962,4581.24 6962,4936.24 6652,5115.24 6652,4760.24 6962,4581.24 z " fill-rule="evenodd" fill="rgb(0,128,0)" stroke-width="5" stroke="rgb(0,0,0)" />
	<path d="M5714,4938.55 5714,5293.55 5404,5472.55 5404,5117.55 5714,4938.55 z " fill-rule="evenodd" fill="rgb(0,128,0)" stroke-width="5" stroke="rgb(0,0,0)" />
	<path d="M6338,4938.55 6338,5293.55 6028,5472.55 6028,5117.55 6338,4938.55 z " fill-rule="evenodd" fill="rgb(0,128,0)" stroke-width="5" stroke="rgb(0,0,0)" />
	<path d="M6962,4938.55 6962,5293.55 6652,5472.55 6652,5117.55 6962,4938.55 z " fill-rule="evenodd" fill="rgb(0,128,0)" stroke-width="5" stroke="rgb(0,0,0)" />
	<path d="M7586,2437.38 7586,2792.38 7276,2971.38 7276,2616.38 7586,2437.38 z " fill-rule="evenodd" fill="rgb(0,128,0)" stroke-width="5" stroke="rgb(0,0,0)" />
	<path d="M7586,2794.69 7586,3149.69 7276,3328.69 7276,2973.69 7586,2794.69 z " fill-rule="evenodd" fill="rgb(0,128,0)" stroke-width="5" stroke="rgb(0,0,0)" />
	<path d="M7586,3152 7586,3507 7276,3686 7276,3331 7586,3152 z " fill-rule="evenodd" fill="rgb(0,128,0)" stroke-width="5" stroke="rgb(0,0,0)" />
	<path d="M7586,3509.31 7586,3864.31 7276,4043.31 7276,3688.31 7586,3509.31 z " fill-rule="evenodd" fill="rgb(0,128,0)" stroke-width="5" stroke="rgb(0,0,0)" />
	<path d="M7586,3866.62 7586,4221.62 7276,4400.62 7276,4045.62 7586,3866.62 z " fill-rule="evenodd" fill="rgb(0,128,0)" stroke-width="5" stroke="rgb(0,0,0)" />
	<path d="M7586,4223.93 7586,4578.93 7276,4757.93 7276,4402.93 7586,4223.93 z " fill-rule="evenodd" fill="rgb(0,128,0)" stroke-width="5" stroke="rgb(0,0,0)" />
	<path d="M7586,4581.24 7586,4936.24 7276,5115.24 7276,4760.24 7586,4581.24 z " fill-rule="evenodd" fill="rgb(0,128,0)" stroke-width="5" stroke="rgb(0,0,0)" />
	<path d="M7586,4938.55 7586,5293.55 7276,5472.55 7276,5117.55 7586,4938.55 z " fill-rule="evenodd" fill="rgb(0,128,0)" stroke-width="5" stroke="rgb(0,0,0)" />
	<path d="M8210,2794.69 8210,3149.69 7900,3328.69 7900,2973.69 8210,2794.69 z " fill-rule="evenodd" fill="rgb(0,128,0)" stroke-width="5" stroke="rgb(0,0,0)" />
	<path d="M8210,3152 8210,3507 7900,3686 7900,3331 8210,3152 z " fill-rule="evenodd" fill="rgb(0,128,0)" stroke-width="5" stroke="rgb(0,0,0)" />
	<path d="M8210,3509.31 8210,3864.31 7900,4043.31 7900,3688.31 8210,3509.31 z " fill-rule="evenodd" fill="rgb(0,128,0)" stroke-width="5" stroke="rgb(0,0,0)" />
	<path d="M8210,3866.62 8210,4221.62 7900,4400.62 7900,4045.62 8210,3866.62 z " fill-rule="evenodd" fill="rgb(0,128,0)" stroke-width="5" stroke="rgb(0,0,0)" />
	<path d="M8210,4223.93 8210,4578.93 7900,4757.93 7900,4402.93 8210,4223.93 z " fill-rule="evenodd" fill="rgb(0,128,0)" stroke-width="5" stroke="rgb(0,0,0)" />
	<path d="M8210,4581.24 8210,4936.24 7900,5115.24 7900,4760.24 8210,4581.24 z " fill-rule="evenodd" fill="rgb(0,128,0)" stroke-width="5" stroke="rgb(0,0,0)" />
	<path d="M8210,4938.55 8210,5293.55 7900,5472.55 7900,5117.55 8210,4938.55 z " fill-rule="evenodd" fill="rgb(0,128,0)" stroke-width="5" stroke="rgb(0,0,0)" />
	<path d="M410,3328.69 104,3152 410,3152 410,3328.69 z " fill-rule="evenodd" fill="rgb(255,0,0)" stroke-width="5" stroke="rgb(0,0,0)" />
	<path d="M372.435,2952 100,2952 100,2794.69 372.435,2952 z " fill-rule="evenodd" fill="rgb(255,0,0)" stroke-width="5" stroke="rgb(0,0,0)" />
	<path d="M724,2794.69 996.435,2952 724,2952 724,2794.69 z " fill-rule="evenodd" fill="rgb(255,0,0)" stroke-width="5" stroke="rgb(0,0,0)" />
	<path d="M1034,3328.69 728,3152 1034,3152 1034,3328.69 z " fill-rule="evenodd" fill="rgb(255,0,0)" stroke-width="5" stroke="rgb(0,0,0)" />
	<path d="M100,2792.38 100,2437.38 410,2616.38 410,2952 376.435,2952 100,2792.38 z " fill-rule="evenodd" fill="rgb(255,0,0)" stroke-width="5" stroke="rgb(0,0,0)" />
	<path d="M724,2792.38 724,2437.38 1034,2616.38 1034,2952 1000.44,2952 724,2792.38 z " fill-rule="evenodd" fill="rgb(255,0,0)" stroke-width="5" stroke="rgb(0,0,0)" />
	<path d="M1348,2792.38 1348,2437.38 1658,2616.38 1658,2952 1624.44,2952 1348,2792.38 z " fill-rule="evenodd" fill="rgb(255,0,0)" stroke-width="5" stroke="rgb(0,0,0)" />
	<path d="M1348,2794.69 1620.44,2952 1348,2952 1348,2794.69 z " fill-rule="evenodd" fill="rgb(255,0,0)" stroke-width="5" stroke="rgb(0,0,0)" />
	<path d="M1658,3328.69 1352,3152 1658,3152 1658,3328.69 z " fill-rule="evenodd" fill="rgb(255,0,0)" stroke-width="5" stroke="rgb(0,0,0)" />
	<path d="M1972,2794.69 2282,2973.69 2282,3328.69 1976,3152 2050,3152 2050,2952 1972,2952 1972,2794.69 z " fill-rule="evenodd" fill="rgb(255,0,0)" stroke-width="5" stroke="rgb(0,0,0)" />
	<path d="M2596,2792.38 2596,2437.38 2906,2616.38 2906,2952 2872.44,2952 2596,2792.38 z " fill-rule="evenodd" fill="rgb(255,0,0)" stroke-width="5" stroke="rgb(0,0,0)" />
	<path d="M2596,3149.69 2596,2794.69 2868.44,2952 2850,2952 2850,3152 2900,3152 2900,3325.23 2596,3149.69 z " fill-rule="evenodd" fill="rgb(255,0,0)" stroke-width="5" stroke="rgb(0,0,0)" />
	<path d="M2596,3507 2596,3152 2900,3327.54 2900,3682.54 2596,3507 z " fill-rule="evenodd" fill="rgb(255,0,0)" stroke-width="5" stroke="rgb(0,0,0)" />
	<path d="M2596,3864.31 2596,3509.31 2900,3684.84 2900,4039.84 2596,3864.31 z " fill-rule="evenodd" fill="rgb(255,0,0)" stroke-width="5" stroke="rgb(0,0,0)" />
	<path d="M2596,4221.62 2596,3866.62 2900,4042.15 2900,4397.15 2596,4221.62 z " fill-rule="evenodd" fill="rgb(255,0,0)" stroke-width="5" stroke="rgb(0,0,0)" />
	<path d="M2596,4578.93 2596,4223.93 2900,4399.46 2900,4754.46 2596,4578.93 z " fill-rule="evenodd" fill="rgb(255,0,0)" stroke-width="5" stroke="rgb(0,0,0)" />
	<path d="M2596,4936.24 2596,4581.24 2900,4756.77 2900,5111.77 2596,4936.24 z " fill-rule="evenodd" fill="rgb(255,0,0)" stroke-width="5" stroke="rgb(0,0,0)" />
	<path d="M410,1899.45 100,1720.45 100,1602 410,1602 410,1899.45 z " fill-rule="evenodd" fill="rgb(255,0,0)" stroke-width="5" stroke="rgb(0,0,0)" />
	<path d="M1034,1544.45 1034,1899.45 724,1720.45 724,1502 960.479,1502 1034,1544.45 z " fill-rule="evenodd" fill="rgb(255,0,0)" stroke-width="5" stroke="rgb(0,0,0)" />
	<path d="M1658,1899.45 1348,1720.45 1348,1502 1400,1502 1400,1602 1658,1602 1658,1899.45 z " fill-rule="evenodd" fill="rgb(255,0,0)" stroke-width="5" stroke="rgb(0,0,0)" />
	<path d="M2282,1544.45 2282,1899.45 1972,1720.45 1972,1602 2150,1602 2150,1468.23 2282,1544.45 z " fill-rule="evenodd" fill="rgb(255,0,0)" stroke-width="5" stroke="rgb(0,0,0)" />
	<path d="M3530,1544.45 3530,1899.45 3220,1720.45 3220,1421.98 3238.58,1376.18 3530,1544.45 z " fill-rule="evenodd" fill="rgb(255,0,0)" stroke-width="5" stroke="rgb(0,0,0)" />
	<path d="M3220,2792.38 3220,2437.38 3530,2616.38 3530,2952 3496.44,2952 3220,2792.38 z " fill-rule="evenodd" fill="rgb(255,0,0)" stroke-width="5" stroke="rgb(0,0,0)" />
	<path d="M3220,2794.69 3492.44,2952 3220,2952 3220,2794.69 z " fill-rule="evenodd" fill="rgb(255,0,0)" stroke-width="5" stroke="rgb(0,0,0)" />
	<path d="M2596,5293.55 2596,4938.55 2900,5114.08 2900,5469.08 2596,5293.55 z " fill-rule="evenodd" fill="rgb(255,0,0)" stroke-width="5" stroke="rgb(0,0,0)" />
	<path d="M1034,1542.14 964.478,1502 1034,1502 1034,1542.14 z " fill-rule="evenodd" fill="rgb(255,0,0)" stroke-width="5" stroke="rgb(0,0,0)" />
	<path d="M2282,1187.14 2282,1542.14 2150,1465.92 2150,1110.92 2282,1187.14 z " fill-rule="evenodd" fill="rgb(255,0,0)" stroke-width="5" stroke="rgb(0,0,0)" />
	<path d="M3220,1008.14 3268.9,1036.38 3220,1156.9 3220,1008.14 z " fill-rule="evenodd" fill="rgb(255,0,0)" stroke-width="5" stroke="rgb(0,0,0)" />
	<path d="M3530,1187.14 3530,1542.14 3239.33,1374.31 3355.98,1086.66 3530,1187.14 z " fill-rule="evenodd" fill="rgb(255,0,0)" stroke-width="5" stroke="rgb(0,0,0)" />
	<path d="M3844,2792.38 3844,2437.38 4154,2616.38 4154,2952 4120.44,2952 3844,2792.38 z " fill-rule="evenodd" fill="rgb(255,0,0)" stroke-width="5" stroke="rgb(0,0,0)" />
	<path d="M3844,2794.69 4116.44,2952 3844,2952 3844,2794.69 z " fill-rule="evenodd" fill="rgb(255,0,0)" stroke-width="5" stroke="rgb(0,0,0)" />
	<path d="M4154,3328.69 3844,3149.69 3844,3052 4154,3052 4154,3328.69 z " fill-rule="evenodd" fill="rgb(255,0,0)" stroke-width="5" stroke="rgb(0,0,0)" />
	<path d="M2596,5650.86 2596,5295.86 2900,5471.39 2900,5826.39 2596,5650.86 z " fill-rule="evenodd" fill="rgb(255,0,0)" stroke-width="5" stroke="rgb(0,0,0)" />
	<path d="M2282,829.834 2282,1184.83 2150,1108.61 2150,753.614 2282,829.834 z " fill-rule="evenodd" fill="rgb(255,0,0)" stroke-width="5" stroke="rgb(0,0,0)" />
	<path d="M3220,1005.83 3220,650.834 3386.34,746.881 3269.65,1034.51 3220,1005.83 z " fill-rule="evenodd" fill="rgb(255,0,0)" stroke-width="5" stroke="rgb(0,0,0)" />
	<path d="M3530,829.834 3530,1184.83 3356.74,1084.79 3473.39,797.143 3530,829.834 z " fill-rule="evenodd" fill="rgb(255,0,0)" stroke-width="5" stroke="rgb(0,0,0)" />
	<path d="M4154,1184.83 3844,1005.83 3844,787.901 4154,913.771 4154,1184.83 z " fill-rule="evenodd" fill="rgb(255,0,0)" stroke-width="5" stroke="rgb(0,0,0)" />
	<path d="M4778,1184.83 4674.74,1125.21 4778,1167.14 4778,1184.83 z " fill-rule="evenodd" fill="rgb(255,0,0)" stroke-width="5" stroke="rgb(0,0,0)" />
	<path d="M4778,1187.14 4778,1542.14 4468,1363.14 4468,1041.27 4661.27,1119.74 4778,1187.14 z " fill-rule="evenodd" fill="rgb(255,0,0)" stroke-width="5" stroke="rgb(0,0,0)" />
	<path d="M2906,6187.17 2596,6008.17 2596,5653.17 2900,5828.7 2900,6052 2906,6052 2906,6187.17 z " fill-rule="evenodd" fill="rgb(255,0,0)" stroke-width="5" stroke="rgb(0,0,0)" />
	<path d="M2282,472.524 2282,827.524 2150,751.305 2150,396.305 2282,472.524 z " fill-rule="evenodd" fill="rgb(255,0,0)" stroke-width="5" stroke="rgb(0,0,0)" />
	<path d="M3220,648.524 3220,533.986 3437,622 3387.1,745.009 3220,648.524 z " fill-rule="evenodd" fill="rgb(255,0,0)" stroke-width="5" stroke="rgb(0,0,0)" />
	<path d="M3530,827.524 3474.14,795.272 3529,660 3530,660.406 3530,827.524 z " fill-rule="evenodd" fill="rgb(255,0,0)" stroke-width="5" stroke="rgb(0,0,0)" />
	<path d="M5402,1542.14 5092,1363.14 5092,1294.63 5402,1420.5 5402,1542.14 z " fill-rule="evenodd" fill="rgb(255,0,0)" stroke-width="5" stroke="rgb(0,0,0)" />
	<path d="M2282,470.215 2150,393.995 2150,100 2282,153.538 2282,470.215 z " fill-rule="evenodd" fill="rgb(255,0,0)" stroke-width="5" stroke="rgb(0,0,0)" />
	<path d="M2906,470.215 2596,291.215 2596,280.895 2906,406.629 2906,470.215 z " fill-rule="evenodd" fill="rgb(255,0,0)" stroke-width="5" stroke="rgb(0,0,0)" />
	<path d="M6026,1899.45 5716,1720.45 5716,1548 6026,1673.87 6026,1899.45 z " fill-rule="evenodd" fill="rgb(255,0,0)" stroke-width="5" stroke="rgb(0,0,0)" />
	<path d="M2596,6722.79 2596,6367.79 2906,6546.79 2906,6852 2900,6852 2900,6898.32 2596,6722.79 z " fill-rule="evenodd" fill="rgb(255,0,0)" stroke-width="5" stroke="rgb(0,0,0)" />
	<path d="M6650,2256.76 6340,2077.76 6340,1801.36 6650,1927.23 6650,2256.76 z " fill-rule="evenodd" fill="rgb(255,0,0)" stroke-width="5" stroke="rgb(0,0,0)" />
	<path d="M3844,4936.24 3844,4581.24 4154,4760.24 4154,4952 3871.3,4952 3844,4936.24 z " fill-rule="evenodd" fill="rgb(255,0,0)" stroke-width="5" stroke="rgb(0,0,0)" />
	<path d="M4468,4936.24 4468,4581.24 4778,4760.24 4778,4952 4495.3,4952 4468,4936.24 z " fill-rule="evenodd" fill="rgb(255,0,0)" stroke-width="5" stroke="rgb(0,0,0)" />
	<path d="M100,6725.09 410,6904.09 410,6952 100,6952 100,6725.09 z " fill-rule="evenodd" fill="rgb(255,0,0)" stroke-width="5" stroke="rgb(0,0,0)" />
	<path d="M724,6725.09 1034,6904.09 1034,6952 724,6952 724,6725.09 z " fill-rule="evenodd" fill="rgb(255,0,0)" stroke-width="5" stroke="rgb(0,0,0)" />
	<path d="M1348,6725.09 1658,6904.09 1658,6952 1348,6952 1348,6725.09 z " fill-rule="evenodd" fill="rgb(255,0,0)" stroke-width="5" stroke="rgb(0,0,0)" />
	<path d="M1972,6725.09 2282,6904.09 2282,6952 1972,6952 1972,6725.09 z " fill-rule="evenodd" fill="rgb(255,0,0)" stroke-width="5" stroke="rgb(0,0,0)" />
	<path d="M2596,6725.09 2900,6900.63 2900,6952 2596,6952 2596,6725.09 z " fill-rule="evenodd" fill="rgb(255,0,0)" stroke-width="5" stroke="rgb(0,0,0)" />
	<path d="M7274,2256.76 6964,2077.76 6964,2054.73 7274,2180.6 7274,2256.76 z " fill-rule="evenodd" fill="rgb(255,0,0)" stroke-width="5" stroke="rgb(0,0,0)" />
	<path d="M3844,4938.55 3867.3,4952 3844,4952 3844,4938.55 z " fill-rule="evenodd" fill="rgb(255,0,0)" stroke-width="5" stroke="rgb(0,0,0)" />
	<path d="M4468,4938.55 4491.3,4952 4468,4952 4468,4938.55 z " fill-rule="evenodd" fill="rgb(255,0,0)" stroke-width="5" stroke="rgb(0,0,0)" />
	<path d="M7898,2614.07 7588,2435.07 7588,2308.09 7898,2433.96 7898,2614.07 z " fill-rule="evenodd" fill="rgb(255,0,0)" stroke-width="5" stroke="rgb(0,0,0)" />
	<path d="M5092,5295.86 5402,5474.86 5402,5552 5092,5552 5092,5295.86 z " fill-rule="evenodd" fill="rgb(255,0,0)" stroke-width="5" stroke="rgb(0,0,0)" />
	<path d="M5716,5295.86 6026,5474.86 6026,5552 5716,5552 5716,5295.86 z " fill-rule="evenodd" fill="rgb(255,0,0)" stroke-width="5" stroke="rgb(0,0,0)" />
	<path d="M6340,5295.86 6650,5474.86 6650,5552 6340,5552 6340,5295.86 z " fill-rule="evenodd" fill="rgb(255,0,0)" stroke-width="5" stroke="rgb(0,0,0)" />
	<path d="M6964,5295.86 7274,5474.86 7274,5552 6964,5552 6964,5295.86 z " fill-rule="evenodd" fill="rgb(255,0,0)" stroke-width="5" stroke="rgb(0,0,0)" />
	<path d="M7588,5295.86 7898,5474.86 7898,5552 7588,5552 7588,5295.86 z " fill-rule="evenodd" fill="rgb(255,0,0)" stroke-width="5" stroke="rgb(0,0,0)" />
	<path d="M8522,2971.38 8212,2792.38 8212,2561.46 8522,2687.33 8522,2971.38 z " fill-rule="evenodd" fill="rgb(255,0,0)" stroke-width="5" stroke="rgb(0,0,0)" />
	<path d="M8212,5295.86 8522,5474.86 8522,5552 8212,5552 8212,5295.86 z " fill-rule="evenodd" fill="rgb(255,0,0)" stroke-width="5" stroke="rgb(0,0,0)" />
	<path d="M722,2952 449.565,2952 722,2794.69 722,2952 z " fill-rule="evenodd" fill="rgb(255,0,0)" stroke-width="5" stroke="rgb(0,0,0)" />
	<path d="M412,3328.69 412,3152 718,3152 412,3328.69 z " fill-rule="evenodd" fill="rgb(255,0,0)" stroke-width="5" stroke="rgb(0,0,0)" />
	<path d="M722,2792.38 445.565,2952 412,2952 412,2616.38 722,2437.38 722,2792.38 z " fill-rule="evenodd" fill="rgb(255,0,0)" stroke-width="5" stroke="rgb(0,0,0)" />
	<path d="M1346,2792.38 1069.56,2952 1036,2952 1036,2616.38 1346,2437.38 1346,2792.38 z " fill-rule="evenodd" fill="rgb(255,0,0)" stroke-width="5" stroke="rgb(0,0,0)" />
	<path d="M1346,2952 1073.56,2952 1346,2794.69 1346,2952 z " fill-rule="evenodd" fill="rgb(255,0,0)" stroke-width="5" stroke="rgb(0,0,0)" />
	<path d="M1036,3328.69 1036,3152 1342,3152 1036,3328.69 z " fill-rule="evenodd" fill="rgb(255,0,0)" stroke-width="5" stroke="rgb(0,0,0)" />
	<path d="M1970,2792.38 1693.56,2952 1660,2952 1660,2616.38 1970,2437.38 1970,2792.38 z " fill-rule="evenodd" fill="rgb(255,0,0)" stroke-width="5" stroke="rgb(0,0,0)" />
	<path d="M1970,2952 1697.56,2952 1970,2794.69 1970,2952 z " fill-rule="evenodd" fill="rgb(255,0,0)" stroke-width="5" stroke="rgb(0,0,0)" />
	<path d="M1660,3328.69 1660,3152 1966,3152 1660,3328.69 z " fill-rule="evenodd" fill="rgb(255,0,0)" stroke-width="5" stroke="rgb(0,0,0)" />
	<path d="M722,1720.45 412,1899.45 412,1602 700,1602 700,1502 722,1502 722,1720.45 z " fill-rule="evenodd" fill="rgb(255,0,0)" stroke-width="5" stroke="rgb(0,0,0)" />
	<path d="M1346,1720.45 1036,1899.45 1036,1544.45 1109.52,1502 1346,1502 1346,1720.45 z " fill-rule="evenodd" fill="rgb(255,0,0)" stroke-width="5" stroke="rgb(0,0,0)" />
	<path d="M1970,1720.45 1660,1899.45 1660,1602 1970,1602 1970,1720.45 z " fill-rule="evenodd" fill="rgb(255,0,0)" stroke-width="5" stroke="rgb(0,0,0)" />
	<path d="M3218,1720.45 2908,1899.45 2908,1544.45 2950,1520.2 2950,1602 3147,1602 3218,1426.92 3218,1720.45 z " fill-rule="evenodd" fill="rgb(255,0,0)" stroke-width="5" stroke="rgb(0,0,0)" />
	<path d="M3110.13,1427.74 3080,1502 2981.52,1502 3110.13,1427.74 z " fill-rule="evenodd" fill="rgb(255,0,0)" stroke-width="5" stroke="rgb(0,0,0)" />
	<path d="M3218,2792.38 2941.56,2952 2908,2952 2908,2616.38 3218,2437.38 3218,2792.38 z " fill-rule="evenodd" fill="rgb(255,0,0)" stroke-width="5" stroke="rgb(0,0,0)" />
	<path d="M3218,2952 2945.56,2952 3218,2794.69 3218,2952 z " fill-rule="evenodd" fill="rgb(255,0,0)" stroke-width="5" stroke="rgb(0,0,0)" />
	<path d="M1036,1542.14 1036,1502 1105.52,1502 1036,1542.14 z " fill-rule="evenodd" fill="rgb(255,0,0)" stroke-width="5" stroke="rgb(0,0,0)" />
	<path d="M3218,1161.83 3111.35,1424.73 2977.52,1502 2950,1502 2950,1517.89 2908,1542.14 2908,1187.14 3218,1008.14 3218,1161.83 z " fill-rule="evenodd" fill="rgb(255,0,0)" stroke-width="5" stroke="rgb(0,0,0)" />
	<path d="M3842,2792.38 3565.56,2952 3532,2952 3532,2616.38 3842,2437.38 3842,2792.38 z " fill-rule="evenodd" fill="rgb(255,0,0)" stroke-width="5" stroke="rgb(0,0,0)" />
	<path d="M3842,2952 3569.56,2952 3842,2794.69 3842,2952 z " fill-rule="evenodd" fill="rgb(255,0,0)" stroke-width="5" stroke="rgb(0,0,0)" />
	<path d="M3842,3149.69 3700,3231.68 3700,3052 3842,3052 3842,3149.69 z " fill-rule="evenodd" fill="rgb(255,0,0)" stroke-width="5" stroke="rgb(0,0,0)" />
	<path d="M3842,3507 3700,3588.99 3700,3233.99 3842,3152 3842,3507 z " fill-rule="evenodd" fill="rgb(255,0,0)" stroke-width="5" stroke="rgb(0,0,0)" />
	<path d="M3842,1005.83 3532,1184.83 3532,829.834 3703.45,730.834 3842,787.089 3842,1005.83 z " fill-rule="evenodd" fill="rgb(255,0,0)" stroke-width="5" stroke="rgb(0,0,0)" />
	<path d="M4156,1184.83 4156,914.584 4430.8,1026.16 4156,1184.83 z " fill-rule="evenodd" fill="rgb(255,0,0)" stroke-width="5" stroke="rgb(0,0,0)" />
	<path d="M4466,1363.14 4156,1542.14 4156,1187.14 4433.15,1027.11 4466,1040.45 4466,1363.14 z " fill-rule="evenodd" fill="rgb(255,0,0)" stroke-width="5" stroke="rgb(0,0,0)" />
	<path d="M4466,2792.38 4189.56,2952 4156,2952 4156,2616.38 4466,2437.38 4466,2792.38 z " fill-rule="evenodd" fill="rgb(255,0,0)" stroke-width="5" stroke="rgb(0,0,0)" />
	<path d="M4466,3149.69 4156,3328.69 4156,3052 4200,3052 4200,2952 4193.56,2952 4466,2794.69 4466,3149.69 z " fill-rule="evenodd" fill="rgb(255,0,0)" stroke-width="5" stroke="rgb(0,0,0)" />
	<path d="M3842,3864.31 3700,3946.3 3700,3591.3 3842,3509.31 3842,3864.31 z " fill-rule="evenodd" fill="rgb(255,0,0)" stroke-width="5" stroke="rgb(0,0,0)" />
	<path d="M2908,6187.17 2908,6052 3100,6052 3100,6076.3 2908,6187.17 z " fill-rule="evenodd" fill="rgb(255,0,0)" stroke-width="5" stroke="rgb(0,0,0)" />
	<path d="M3218,648.524 2908,827.524 2908,472.524 2974.21,434.294 3218,533.175 3218,648.524 z " fill-rule="evenodd" fill="rgb(255,0,0)" stroke-width="5" stroke="rgb(0,0,0)" />
	<path d="M3532,827.524 3532,661.218 3701.1,729.88 3532,827.524 z " fill-rule="evenodd" fill="rgb(255,0,0)" stroke-width="5" stroke="rgb(0,0,0)" />
	<path d="M4780,1184.83 4780,1167.95 4797.17,1174.92 4780,1184.83 z " fill-rule="evenodd" fill="rgb(255,0,0)" stroke-width="5" stroke="rgb(0,0,0)" />
	<path d="M5090,1363.14 4780,1542.14 4780,1187.14 4799.52,1175.87 5090,1293.82 5090,1363.14 z " fill-rule="evenodd" fill="rgb(255,0,0)" stroke-width="5" stroke="rgb(0,0,0)" />
	<path d="M5090,3149.69 5050,3172.79 5050,2952 4900,2952 4900,3052 4950,3052 4950,3230.53 4780,3328.69 4780,2973.69 5090,2794.69 5090,3149.69 z " fill-rule="evenodd" fill="rgb(255,0,0)" stroke-width="5" stroke="rgb(0,0,0)" />
	<path d="M5090,3507 5050,3530.1 5050,3175.1 5090,3152 5090,3507 z " fill-rule="evenodd" fill="rgb(255,0,0)" stroke-width="5" stroke="rgb(0,0,0)" />
	<path d="M4780,3686 4780,3331 4950,3232.84 4950,3587.84 4780,3686 z " fill-rule="evenodd" fill="rgb(255,0,0)" stroke-width="5" stroke="rgb(0,0,0)" />
	<path d="M5090,3864.31 5050,3887.41 5050,3532.41 5090,3509.31 5090,3864.31 z " fill-rule="evenodd" fill="rgb(255,0,0)" stroke-width="5" stroke="rgb(0,0,0)" />
	<path d="M4780,4043.31 4780,3688.31 4950,3590.15 4950,3945.15 4780,4043.31 z " fill-rule="evenodd" fill="rgb(255,0,0)" stroke-width="5" stroke="rgb(0,0,0)" />
	<path d="M3842,4221.62 3700,4303.61 3700,3948.61 3842,3866.62 3842,4221.62 z " fill-rule="evenodd" fill="rgb(255,0,0)" stroke-width="5" stroke="rgb(0,0,0)" />
	<path d="M5090,4221.62 5050,4244.72 5050,3889.72 5090,3866.62 5090,4221.62 z " fill-rule="evenodd" fill="rgb(255,0,0)" stroke-width="5" stroke="rgb(0,0,0)" />
	<path d="M4780,4400.62 4780,4045.62 4950,3947.46 4950,4302.46 4780,4400.62 z " fill-rule="evenodd" fill="rgb(255,0,0)" stroke-width="5" stroke="rgb(0,0,0)" />
	<path d="M2908,6544.48 2908,6189.48 3100,6078.61 3100,6433.61 2908,6544.48 z " fill-rule="evenodd" fill="rgb(255,0,0)" stroke-width="5" stroke="rgb(0,0,0)" />
	<path d="M2594,291.215 2284,470.215 2284,154.35 2594,280.084 2594,291.215 z " fill-rule="evenodd" fill="rgb(255,0,0)" stroke-width="5" stroke="rgb(0,0,0)" />
	<path d="M2908,470.215 2908,407.441 2971.86,433.341 2908,470.215 z " fill-rule="evenodd" fill="rgb(255,0,0)" stroke-width="5" stroke="rgb(0,0,0)" />
	<path d="M5404,1542.14 5404,1421.31 5526.86,1471.2 5404,1542.14 z " fill-rule="evenodd" fill="rgb(255,0,0)" stroke-width="5" stroke="rgb(0,0,0)" />
	<path d="M5714,1720.45 5404,1899.45 5404,1544.45 5529.21,1472.15 5714,1547.18 5714,1720.45 z " fill-rule="evenodd" fill="rgb(255,0,0)" stroke-width="5" stroke="rgb(0,0,0)" />
	<path d="M3842,4578.93 3700,4660.92 3700,4305.92 3842,4223.93 3842,4578.93 z " fill-rule="evenodd" fill="rgb(255,0,0)" stroke-width="5" stroke="rgb(0,0,0)" />
	<path d="M5090,4578.93 5050,4602.03 5050,4247.03 5090,4223.93 5090,4578.93 z " fill-rule="evenodd" fill="rgb(255,0,0)" stroke-width="5" stroke="rgb(0,0,0)" />
	<path d="M4780,4757.93 4780,4402.93 4950,4304.77 4950,4659.77 4780,4757.93 z " fill-rule="evenodd" fill="rgb(255,0,0)" stroke-width="5" stroke="rgb(0,0,0)" />
	<path d="M2994.22,6852 2908,6852 2908,6546.79 3100,6435.92 3100,6790.92 2994.22,6852 z " fill-rule="evenodd" fill="rgb(255,0,0)" stroke-width="5" stroke="rgb(0,0,0)" />
	<path d="M6028,1899.45 6028,1674.68 6256.55,1767.48 6028,1899.45 z " fill-rule="evenodd" fill="rgb(255,0,0)" stroke-width="5" stroke="rgb(0,0,0)" />
	<path d="M6338,2077.76 6028,2256.76 6028,1901.76 6258.9,1768.43 6338,1800.55 6338,2077.76 z " fill-rule="evenodd" fill="rgb(255,0,0)" stroke-width="5" stroke="rgb(0,0,0)" />
	<path d="M3842,4936.24 3814.7,4952 3700,4952 3700,4663.23 3842,4581.24 3842,4936.24 z " fill-rule="evenodd" fill="rgb(255,0,0)" stroke-width="5" stroke="rgb(0,0,0)" />
	<path d="M4466,4936.24 4438.7,4952 4156,4952 4156,4760.24 4466,4581.24 4466,4936.24 z " fill-rule="evenodd" fill="rgb(255,0,0)" stroke-width="5" stroke="rgb(0,0,0)" />
	<path d="M5090,4936.24 5050,4959.33 5050,4604.33 5090,4581.24 5090,4936.24 z " fill-rule="evenodd" fill="rgb(255,0,0)" stroke-width="5" stroke="rgb(0,0,0)" />
	<path d="M4780,4760.24 4950,4662.08 4950,4952 4780,4952 4780,4760.24 z " fill-rule="evenodd" fill="rgb(255,0,0)" stroke-width="5" stroke="rgb(0,0,0)" />
	<path d="M722,6952 412,6952 412,6904.09 722,6725.09 722,6952 z " fill-rule="evenodd" fill="rgb(255,0,0)" stroke-width="5" stroke="rgb(0,0,0)" />
	<path d="M1346,6952 1036,6952 1036,6904.09 1346,6725.09 1346,6952 z " fill-rule="evenodd" fill="rgb(255,0,0)" stroke-width="5" stroke="rgb(0,0,0)" />
	<path d="M1970,6952 1660,6952 1660,6904.09 1970,6725.09 1970,6952 z " fill-rule="evenodd" fill="rgb(255,0,0)" stroke-width="5" stroke="rgb(0,0,0)" />
	<path d="M2594,6952 2284,6952 2284,6904.09 2594,6725.09 2594,6952 z " fill-rule="evenodd" fill="rgb(255,0,0)" stroke-width="5" stroke="rgb(0,0,0)" />
	<path d="M3100,6793.23 3100,6852 2998.22,6852 3100,6793.23 z " fill-rule="evenodd" fill="rgb(255,0,0)" stroke-width="5" stroke="rgb(0,0,0)" />
	<path d="M6962,2077.76 6652,2256.76 6652,1928.05 6962,2053.92 6962,2077.76 z " fill-rule="evenodd" fill="rgb(255,0,0)" stroke-width="5" stroke="rgb(0,0,0)" />
	<path d="M3842,4952 3818.7,4952 3842,4938.55 3842,4952 z " fill-rule="evenodd" fill="rgb(255,0,0)" stroke-width="5" stroke="rgb(0,0,0)" />
	<path d="M4466,4952 4442.7,4952 4466,4938.55 4466,4952 z " fill-rule="evenodd" fill="rgb(255,0,0)" stroke-width="5" stroke="rgb(0,0,0)" />
	<path d="M5090,5293.55 5050,5316.64 5050,4961.64 5090,4938.55 5090,5293.55 z " fill-rule="evenodd" fill="rgb(255,0,0)" stroke-width="5" stroke="rgb(0,0,0)" />
	<path d="M7276,2256.76 7276,2181.41 7352.62,2212.52 7276,2256.76 z " fill-rule="evenodd" fill="rgb(255,0,0)" stroke-width="5" stroke="rgb(0,0,0)" />
	<path d="M7586,2435.07 7276,2614.07 7276,2259.07 7354.97,2213.47 7586,2307.28 7586,2435.07 z " fill-rule="evenodd" fill="rgb(255,0,0)" stroke-width="5" stroke="rgb(0,0,0)" />
	<path d="M5090,5552 5050,5552 5050,5318.95 5090,5295.86 5090,5552 z " fill-rule="evenodd" fill="rgb(255,0,0)" stroke-width="5" stroke="rgb(0,0,0)" />
	<path d="M5714,5552 5404,5552 5404,5474.86 5714,5295.86 5714,5552 z " fill-rule="evenodd" fill="rgb(255,0,0)" stroke-width="5" stroke="rgb(0,0,0)" />
	<path d="M6338,5552 6028,5552 6028,5474.86 6338,5295.86 6338,5552 z " fill-rule="evenodd" fill="rgb(255,0,0)" stroke-width="5" stroke="rgb(0,0,0)" />
	<path d="M6962,5552 6652,5552 6652,5474.86 6962,5295.86 6962,5552 z " fill-rule="evenodd" fill="rgb(255,0,0)" stroke-width="5" stroke="rgb(0,0,0)" />
	<path d="M7586,5552 7276,5552 7276,5474.86 7586,5295.86 7586,5552 z " fill-rule="evenodd" fill="rgb(255,0,0)" stroke-width="5" stroke="rgb(0,0,0)" />
	<path d="M7900,2614.07 7900,2434.78 8082.31,2508.8 7900,2614.07 z " fill-rule="evenodd" fill="rgb(255,0,0)" stroke-width="5" stroke="rgb(0,0,0)" />
	<path d="M8210,2792.38 7900,2971.38 7900,2616.38 8084.66,2509.75 8210,2560.65 8210,2792.38 z " fill-rule="evenodd" fill="rgb(255,0,0)" stroke-width="5" stroke="rgb(0,0,0)" />
	<path d="M8210,5552 7900,5552 7900,5474.86 8210,5295.86 8210,5552 z " fill-rule="evenodd" fill="rgb(255,0,0)" stroke-width="5" stroke="rgb(0,0,0)" />
	<path d="M8524,2971.38 8524,2688.14 8600,2719 8600,2927.5 8524,2971.38 z " fill-rule="evenodd" fill="rgb(255,0,0)" stroke-width="5" stroke="rgb(0,0,0)" />
	<path d="M8524,3328.69 8524,2973.69 8600,2929.81 8600,3284.81 8524,3328.69 z " fill-rule="evenodd" fill="rgb(255,0,0)" stroke-width="5" stroke="rgb(0,0,0)" />
	<path d="M8524,3686 8524,3331 8600,3287.12 8600,3642.12 8524,3686 z " fill-rule="evenodd" fill="rgb(255,0,0)" stroke-width="5" stroke="rgb(0,0,0)" />
	<path d="M8524,4043.31 8524,3688.31 8600,3644.43 8600,3999.43 8524,4043.31 z " fill-rule="evenodd" fill="rgb(255,0,0)" stroke-width="5" stroke="rgb(0,0,0)" />
	<path d="M8524,4400.62 8524,4045.62 8600,4001.74 8600,4356.74 8524,4400.62 z " fill-rule="evenodd" fill="rgb(255,0,0)" stroke-width="5" stroke="rgb(0,0,0)" />
	<path d="M8524,4757.93 8524,4402.93 8600,4359.04 8600,4714.04 8524,4757.93 z " fill-rule="evenodd" fill="rgb(255,0,0)" stroke-width="5" stroke="rgb(0,0,0)" />
	<path d="M8524,5115.24 8524,4760.24 8600,4716.35 8600,5071.35 8524,5115.24 z " fill-rule="evenodd" fill="rgb(255,0,0)" stroke-width="5" stroke="rgb(0,0,0)" />
	<path d="M8524,5472.55 8524,5117.55 8600,5073.66 8600,5428.66 8524,5472.55 z " fill-rule="evenodd" fill="rgb(255,0,0)" stroke-width="5" stroke="rgb(0,0,0)" />
	<path d="M8524,5474.86 8600,5430.97 8600,5552 8524,5552 8524,5474.86 z " fill-rule="evenodd" fill="rgb(255,0,0)" stroke-width="5" stroke="rgb(0,0,0)" />
	<polyline points="95,3157 95,3512 95,3157 450,3157 95,3157 " fill="none" stroke-width="100" stroke="rgb(0,0,0)" />
	<circle cx="95" cy="3157" r="-5.91667" fill="rgb(0,0,0)" />
	<circle cx="95" cy="3512" r="-5.91667" fill="rgb(0,0,0)" />
	<circle cx="95" cy="3157" r="-5.91667" fill="rgb(0,0,0)" />
	<circle cx="450" cy="3157" r="-5.91667" fill="rgb(0,0,0)" />
	<circle cx="95" cy="3157" r="-5.91667" fill="rgb(0,0,0)" />
	<polyline points="95,3547.5 95,3157 -295.5,3157 " fill="none" stroke-width="0.5" stroke="rgb(128,0,128)" />
</svg>
