<?xml version="1.0" standalone="no" ?>
<!DOCTYPE svg PUBLIC "-//W3C//DTD SVG 1.1//EN" "http://www.w3.org/Graphics/SVG/1.1/DTD/svg11.dtd">
<svg width="8700px" height="7052px" xmlns="http://www.w3.org/2000/svg" version="1.1" >
	<path d="M100,3309.31 100,3664.31 410,3843.31 410,3488.31 100,3309.31 z " fill-rule="evenodd" fill="rgb(0,128,0)" stroke-width="5" stroke="rgb(0,0,0)" />
	<path d="M724,3309.31 724,3664.31 1034,3843.31 1034,3488.31 724,3309.31 z " fill-rule="evenodd" fill="rgb(0,128,0)" stroke-width="5" stroke="rgb(0,0,0)" />
	<path d="M100,2237.38 100,2592.38 410,2771.38 410,2416.38 100,2237.38 z " fill-rule="evenodd" fill="rgb(0,128,0)" stroke-width="5" stroke="rgb(0,0,0)" />
	<path d="M724,2237.38 724,2592.38 1034,2771.38 1034,2416.38 724,2237.38 z " fill-rule="evenodd" fill="rgb(0,128,0)" stroke-width="5" stroke="rgb(0,0,0)" />
	<path d="M1348,2237.38 1348,2592.38 1658,2771.38 1658,2416.38 1348,2237.38 z " fill-rule="evenodd" fill="rgb(0,128,0)" stroke-width="5" stroke="rgb(0,0,0)" />
	<path d="M1348,3309.31 1348,3664.31 1658,3843.31 1658,3488.31 1348,3309.31 z " fill-rule="evenodd" fill="rgb(0,128,0)" stroke-width="5" stroke="rgb(0,0,0)" />
	<path d="M100,3666.62 100,4021.62 410,4200.62 410,3845.62 100,3666.62 z " fill-rule="evenodd" fill="rgb(0,128,0)" stroke-width="5" stroke="rgb(0,0,0)" />
	<path d="M724,3666.62 724,4021.62 1034,4200.62 1034,3845.62 724,3666.62 z " fill-rule="evenodd" fill="rgb(0,128,0)" stroke-width="5" stroke="rgb(0,0,0)" />
	<path d="M1348,3666.62 1348,4021.62 1658,4200.62 1658,3845.62 1348,3666.62 z " fill-rule="evenodd" fill="rgb(0,128,0)" stroke-width="5" stroke="rgb(0,0,0)" />
	<path d="M100,1880.07 100,2235.07 410,2414.07 410,2059.07 100,1880.07 z " fill-rule="evenodd" fill="rgb(0,128,0)" stroke-width="5" stroke="rgb(0,0,0)" />
	<path d="M724,1880.07 724,2235.07 1034,2414.07 1034,2059.07 724,1880.07 z " fill-rule="evenodd" fill="rgb(0,128,0)" stroke-width="5" stroke="rgb(0,0,0)" />
	<path d="M1348,1880.07 1348,2235.07 1658,2414.07 1658,2059.07 1348,1880.07 z " fill-rule="evenodd" fill="rgb(0,128,0)" stroke-width="5" stroke="rgb(0,0,0)" />
	<path d="M1972,1880.07 1972,2235.07 2282,2414.07 2282,2059.07 1972,1880.07 z " fill-rule="evenodd" fill="rgb(0,128,0)" stroke-width="5" stroke="rgb(0,0,0)" />
	<path d="M1972,2237.38 1972,2592.38 2282,2771.38 2282,2416.38 1972,2237.38 z " fill-rule="evenodd" fill="rgb(0,128,0)" stroke-width="5" stroke="rgb(0,0,0)" />
	<path d="M1972,3309.31 1972,3664.31 2282,3843.31 2282,3488.31 1972,3309.31 z " fill-rule="evenodd" fill="rgb(0,128,0)" stroke-width="5" stroke="rgb(0,0,0)" />
	<path d="M1972,3666.62 1972,4021.62 2282,4200.62 2282,3845.62 1972,3666.62 z " fill-rule="evenodd" fill="rgb(0,128,0)" stroke-width="5" stroke="rgb(0,0,0)" />
	<path d="M100,4023.93 100,4378.93 410,4557.93 410,4202.93 100,4023.93 z " fill-rule="evenodd" fill="rgb(0,128,0)" stroke-width="5" stroke="rgb(0,0,0)" />
	<path d="M724,4023.93 724,4378.93 1034,4557.93 1034,4202.93 724,4023.93 z " fill-rule="evenodd" fill="rgb(0,128,0)" stroke-width="5" stroke="rgb(0,0,0)" />
	<path d="M1348,4023.93 1348,4378.93 1658,4557.93 1658,4202.93 1348,4023.93 z " fill-rule="evenodd" fill="rgb(0,128,0)" stroke-width="5" stroke="rgb(0,0,0)" />
	<path d="M1972,4023.93 1972,4378.93 2282,4557.93 2282,4202.93 1972,4023.93 z " fill-rule="evenodd" fill="rgb(0,128,0)" stroke-width="5" stroke="rgb(0,0,0)" />
	<path d="M724,1522.76 724,1877.76 1034,2056.76 1034,1701.76 724,1522.76 z " fill-rule="evenodd" fill="rgb(0,128,0)" stroke-width="5" stroke="rgb(0,0,0)" />
	<path d="M2596,1522.76 2596,1877.76 2906,2056.76 2906,1701.76 2596,1522.76 z " fill-rule="evenodd" fill="rgb(0,128,0)" stroke-width="5" stroke="rgb(0,0,0)" />
	<path d="M2596,1880.07 2596,2235.07 2906,2414.07 2906,2059.07 2596,1880.07 z " fill-rule="evenodd" fill="rgb(0,128,0)" stroke-width="5" stroke="rgb(0,0,0)" />
	<path d="M2596,2237.38 2596,2592.38 2906,2771.38 2906,2416.38 2596,2237.38 z " fill-rule="evenodd" fill="rgb(0,128,0)" stroke-width="5" stroke="rgb(0,0,0)" />
	<path d="M100,4381.24 100,4736.24 410,4915.24 410,4560.24 100,4381.24 z " fill-rule="evenodd" fill="rgb(0,128,0)" stroke-width="5" stroke="rgb(0,0,0)" />
	<path d="M724,4381.24 724,4736.24 1034,4915.24 1034,4560.24 724,4381.24 z " fill-rule="evenodd" fill="rgb(0,128,0)" stroke-width="5" stroke="rgb(0,0,0)" />
	<path d="M1348,4381.24 1348,4736.24 1658,4915.24 1658,4560.24 1348,4381.24 z " fill-rule="evenodd" fill="rgb(0,128,0)" stroke-width="5" stroke="rgb(0,0,0)" />
	<path d="M1972,4381.24 1972,4736.24 2282,4915.24 2282,4560.24 1972,4381.24 z " fill-rule="evenodd" fill="rgb(0,128,0)" stroke-width="5" stroke="rgb(0,0,0)" />
	<path d="M2596,1165.45 2596,1520.45 2906,1699.45 2906,1344.45 2596,1165.45 z " fill-rule="evenodd" fill="rgb(0,128,0)" stroke-width="5" stroke="rgb(0,0,0)" />
	<path d="M3220,1522.76 3220,1877.76 3530,2056.76 3530,1701.76 3220,1522.76 z " fill-rule="evenodd" fill="rgb(0,128,0)" stroke-width="5" stroke="rgb(0,0,0)" />
	<path d="M3220,1880.07 3220,2235.07 3530,2414.07 3530,2059.07 3220,1880.07 z " fill-rule="evenodd" fill="rgb(0,128,0)" stroke-width="5" stroke="rgb(0,0,0)" />
	<path d="M3220,2237.38 3220,2592.38 3530,2771.38 3530,2416.38 3220,2237.38 z " fill-rule="evenodd" fill="rgb(0,128,0)" stroke-width="5" stroke="rgb(0,0,0)" />
	<path d="M100,4738.55 100,5093.55 410,5272.55 410,4917.55 100,4738.55 z " fill-rule="evenodd" fill="rgb(0,128,0)" stroke-width="5" stroke="rgb(0,0,0)" />
	<path d="M724,4738.55 724,5093.55 1034,5272.55 1034,4917.55 724,4738.55 z " fill-rule="evenodd" fill="rgb(0,128,0)" stroke-width="5" stroke="rgb(0,0,0)" />
	<path d="M1348,4738.55 1348,5093.55 1658,5272.55 1658,4917.55 1348,4738.55 z " fill-rule="evenodd" fill="rgb(0,128,0)" stroke-width="5" stroke="rgb(0,0,0)" />
	<path d="M1972,4738.55 1972,5093.55 2282,5272.55 2282,4917.55 1972,4738.55 z " fill-rule="evenodd" fill="rgb(0,128,0)" stroke-width="5" stroke="rgb(0,0,0)" />
	<path d="M2596,808.143 2596,1163.14 2906,1342.14 2906,987.143 2596,808.143 z " fill-rule="evenodd" fill="rgb(0,128,0)" stroke-width="5" stroke="rgb(0,0,0)" />
	<path d="M3844,808.143 3844,1163.14 4154,1342.14 4154,987.143 3844,808.143 z " fill-rule="evenodd" fill="rgb(0,128,0)" stroke-width="5" stroke="rgb(0,0,0)" />
	<path d="M3844,1165.45 3844,1520.45 4154,1699.45 4154,1344.45 3844,1165.45 z " fill-rule="evenodd" fill="rgb(0,128,0)" stroke-width="5" stroke="rgb(0,0,0)" />
	<path d="M3844,1522.76 3844,1877.76 4154,2056.76 4154,1701.76 3844,1522.76 z " fill-rule="evenodd" fill="rgb(0,128,0)" stroke-width="5" stroke="rgb(0,0,0)" />
	<path d="M3844,1880.07 3844,2235.07 4154,2414.07 4154,2059.07 3844,1880.07 z " fill-rule="evenodd" fill="rgb(0,128,0)" stroke-width="5" stroke="rgb(0,0,0)" />
	<path d="M3844,2237.38 3844,2592.38 4154,2771.38 4154,2416.38 3844,2237.38 z " fill-rule="evenodd" fill="rgb(0,128,0)" stroke-width="5" stroke="rgb(0,0,0)" />
	<path d="M100,5095.86 100,5450.86 410,5629.86 410,5274.86 100,5095.86 z " fill-rule="evenodd" fill="rgb(0,128,0)" stroke-width="5" stroke="rgb(0,0,0)" />
	<path d="M724,5095.86 724,5450.86 1034,5629.86 1034,5274.86 724,5095.86 z " fill-rule="evenodd" fill="rgb(0,128,0)" stroke-width="5" stroke="rgb(0,0,0)" />
	<path d="M1348,5095.86 1348,5450.86 1658,5629.86 1658,5274.86 1348,5095.86 z " fill-rule="evenodd" fill="rgb(0,128,0)" stroke-width="5" stroke="rgb(0,0,0)" />
	<path d="M1972,5095.86 1972,5450.86 2282,5629.86 2282,5274.86 1972,5095.86 z " fill-rule="evenodd" fill="rgb(0,128,0)" stroke-width="5" stroke="rgb(0,0,0)" />
	<path d="M2596,450.834 2596,805.834 2906,984.834 2906,629.834 2596,450.834 z " fill-rule="evenodd" fill="rgb(0,128,0)" stroke-width="5" stroke="rgb(0,0,0)" />
	<path d="M4468,1165.45 4468,1520.45 4778,1699.45 4778,1344.45 4468,1165.45 z " fill-rule="evenodd" fill="rgb(0,128,0)" stroke-width="5" stroke="rgb(0,0,0)" />
	<path d="M4468,1522.76 4468,1877.76 4778,2056.76 4778,1701.76 4468,1522.76 z " fill-rule="evenodd" fill="rgb(0,128,0)" stroke-width="5" stroke="rgb(0,0,0)" />
	<path d="M4468,1880.07 4468,2235.07 4778,2414.07 4778,2059.07 4468,1880.07 z " fill-rule="evenodd" fill="rgb(0,128,0)" stroke-width="5" stroke="rgb(0,0,0)" />
	<path d="M4468,2237.38 4468,2592.38 4778,2771.38 4778,2416.38 4468,2237.38 z " fill-rule="evenodd" fill="rgb(0,128,0)" stroke-width="5" stroke="rgb(0,0,0)" />
	<path d="M4468,2594.69 4468,2949.69 4778,3128.69 4778,2773.69 4468,2594.69 z " fill-rule="evenodd" fill="rgb(0,128,0)" stroke-width="5" stroke="rgb(0,0,0)" />
	<path d="M4468,2952 4468,3307 4778,3486 4778,3131 4468,2952 z " fill-rule="evenodd" fill="rgb(0,128,0)" stroke-width="5" stroke="rgb(0,0,0)" />
	<path d="M3844,3309.31 3844,3664.31 4154,3843.31 4154,3488.31 3844,3309.31 z " fill-rule="evenodd" fill="rgb(0,128,0)" stroke-width="5" stroke="rgb(0,0,0)" />
	<path d="M4468,3309.31 4468,3664.31 4778,3843.31 4778,3488.31 4468,3309.31 z " fill-rule="evenodd" fill="rgb(0,128,0)" stroke-width="5" stroke="rgb(0,0,0)" />
	<path d="M100,5453.17 100,5808.17 410,5987.17 410,5632.17 100,5453.17 z " fill-rule="evenodd" fill="rgb(0,128,0)" stroke-width="5" stroke="rgb(0,0,0)" />
	<path d="M724,5453.17 724,5808.17 1034,5987.17 1034,5632.17 724,5453.17 z " fill-rule="evenodd" fill="rgb(0,128,0)" stroke-width="5" stroke="rgb(0,0,0)" />
	<path d="M1348,5453.17 1348,5808.17 1658,5987.17 1658,5632.17 1348,5453.17 z " fill-rule="evenodd" fill="rgb(0,128,0)" stroke-width="5" stroke="rgb(0,0,0)" />
	<path d="M1972,5453.17 1972,5808.17 2282,5987.17 2282,5632.17 1972,5453.17 z " fill-rule="evenodd" fill="rgb(0,128,0)" stroke-width="5" stroke="rgb(0,0,0)" />
	<path d="M5092,1522.76 5092,1877.76 5402,2056.76 5402,1701.76 5092,1522.76 z " fill-rule="evenodd" fill="rgb(0,128,0)" stroke-width="5" stroke="rgb(0,0,0)" />
	<path d="M5092,1880.07 5092,2235.07 5402,2414.07 5402,2059.07 5092,1880.07 z " fill-rule="evenodd" fill="rgb(0,128,0)" stroke-width="5" stroke="rgb(0,0,0)" />
	<path d="M5092,2237.38 5092,2592.38 5402,2771.38 5402,2416.38 5092,2237.38 z " fill-rule="evenodd" fill="rgb(0,128,0)" stroke-width="5" stroke="rgb(0,0,0)" />
	<path d="M5092,2594.69 5092,2949.69 5402,3128.69 5402,2773.69 5092,2594.69 z " fill-rule="evenodd" fill="rgb(0,128,0)" stroke-width="5" stroke="rgb(0,0,0)" />
	<path d="M5092,2952 5092,3307 5402,3486 5402,3131 5092,2952 z " fill-rule="evenodd" fill="rgb(0,128,0)" stroke-width="5" stroke="rgb(0,0,0)" />
	<path d="M5092,3309.31 5092,3664.31 5402,3843.31 5402,3488.31 5092,3309.31 z " fill-rule="evenodd" fill="rgb(0,128,0)" stroke-width="5" stroke="rgb(0,0,0)" />
	<path d="M3844,3666.62 3844,4021.62 4154,4200.62 4154,3845.62 3844,3666.62 z " fill-rule="evenodd" fill="rgb(0,128,0)" stroke-width="5" stroke="rgb(0,0,0)" />
	<path d="M4468,3666.62 4468,4021.62 4778,4200.62 4778,3845.62 4468,3666.62 z " fill-rule="evenodd" fill="rgb(0,128,0)" stroke-width="5" stroke="rgb(0,0,0)" />
	<path d="M5092,3666.62 5092,4021.62 5402,4200.62 5402,3845.62 5092,3666.62 z " fill-rule="evenodd" fill="rgb(0,128,0)" stroke-width="5" stroke="rgb(0,0,0)" />
	<path d="M100,5810.48 100,6165.48 410,6344.48 410,5989.48 100,5810.48 z " fill-rule="evenodd" fill="rgb(0,128,0)" stroke-width="5" stroke="rgb(0,0,0)" />
	<path d="M724,5810.48 724,6165.48 1034,6344.48 1034,5989.48 724,5810.48 z " fill-rule="evenodd" fill="rgb(0,128,0)" stroke-width="5" stroke="rgb(0,0,0)" />
	<path d="M1348,5810.48 1348,6165.48 1658,6344.48 1658,5989.48 1348,5810.48 z " fill-rule="evenodd" fill="rgb(0,128,0)" stroke-width="5" stroke="rgb(0,0,0)" />
	<path d="M1972,5810.48 1972,6165.48 2282,6344.48 2282,5989.48 1972,5810.48 z " fill-rule="evenodd" fill="rgb(0,128,0)" stroke-width="5" stroke="rgb(0,0,0)" />
	<path d="M5716,1880.07 5716,2235.07 6026,2414.07 6026,2059.07 5716,1880.07 z " fill-rule="evenodd" fill="rgb(0,128,0)" stroke-width="5" stroke="rgb(0,0,0)" />
	<path d="M5716,2237.38 5716,2592.38 6026,2771.38 6026,2416.38 5716,2237.38 z " fill-rule="evenodd" fill="rgb(0,128,0)" stroke-width="5" stroke="rgb(0,0,0)" />
	<path d="M5716,2594.69 5716,2949.69 6026,3128.69 6026,2773.69 5716,2594.69 z " fill-rule="evenodd" fill="rgb(0,128,0)" stroke-width="5" stroke="rgb(0,0,0)" />
	<path d="M5716,2952 5716,3307 6026,3486 6026,3131 5716,2952 z " fill-rule="evenodd" fill="rgb(0,128,0)" stroke-width="5" stroke="rgb(0,0,0)" />
	<path d="M5716,3309.31 5716,3664.31 6026,3843.31 6026,3488.31 5716,3309.31 z " fill-rule="evenodd" fill="rgb(0,128,0)" stroke-width="5" stroke="rgb(0,0,0)" />
	<path d="M5716,3666.62 5716,4021.62 6026,4200.62 6026,3845.62 5716,3666.62 z " fill-rule="evenodd" fill="rgb(0,128,0)" stroke-width="5" stroke="rgb(0,0,0)" />
	<path d="M3844,4023.93 3844,4378.93 4154,4557.93 4154,4202.93 3844,4023.93 z " fill-rule="evenodd" fill="rgb(0,128,0)" stroke-width="5" stroke="rgb(0,0,0)" />
	<path d="M4468,4023.93 4468,4378.93 4778,4557.93 4778,4202.93 4468,4023.93 z " fill-rule="evenodd" fill="rgb(0,128,0)" stroke-width="5" stroke="rgb(0,0,0)" />
	<path d="M5092,4023.93 5092,4378.93 5402,4557.93 5402,4202.93 5092,4023.93 z " fill-rule="evenodd" fill="rgb(0,128,0)" stroke-width="5" stroke="rgb(0,0,0)" />
	<path d="M5716,4023.93 5716,4378.93 6026,4557.93 6026,4202.93 5716,4023.93 z " fill-rule="evenodd" fill="rgb(0,128,0)" stroke-width="5" stroke="rgb(0,0,0)" />
	<path d="M100,6167.79 100,6522.79 410,6701.79 410,6346.79 100,6167.79 z " fill-rule="evenodd" fill="rgb(0,128,0)" stroke-width="5" stroke="rgb(0,0,0)" />
	<path d="M724,6167.79 724,6522.79 1034,6701.79 1034,6346.79 724,6167.79 z " fill-rule="evenodd" fill="rgb(0,128,0)" stroke-width="5" stroke="rgb(0,0,0)" />
	<path d="M1348,6167.79 1348,6522.79 1658,6701.79 1658,6346.79 1348,6167.79 z " fill-rule="evenodd" fill="rgb(0,128,0)" stroke-width="5" stroke="rgb(0,0,0)" />
	<path d="M1972,6167.79 1972,6522.79 2282,6701.79 2282,6346.79 1972,6167.79 z " fill-rule="evenodd" fill="rgb(0,128,0)" stroke-width="5" stroke="rgb(0,0,0)" />
	<path d="M2596,6167.79 2596,6522.79 2906,6701.79 2906,6346.79 2596,6167.79 z " fill-rule="evenodd" fill="rgb(0,128,0)" stroke-width="5" stroke="rgb(0,0,0)" />
	<path d="M6340,1880.07 6340,2235.07 6650,2414.07 6650,2059.07 6340,1880.07 z " fill-rule="evenodd" fill="rgb(0,128,0)" stroke-width="5" stroke="rgb(0,0,0)" />
	<path d="M6340,2237.38 6340,2592.38 6650,2771.38 6650,2416.38 6340,2237.38 z " fill-rule="evenodd" fill="rgb(0,128,0)" stroke-width="5" stroke="rgb(0,0,0)" />
	<path d="M6340,2594.69 6340,2949.69 6650,3128.69 6650,2773.69 6340,2594.69 z " fill-rule="evenodd" fill="rgb(0,128,0)" stroke-width="5" stroke="rgb(0,0,0)" />
	<path d="M6340,2952 6340,3307 6650,3486 6650,3131 6340,2952 z " fill-rule="evenodd" fill="rgb(0,128,0)" stroke-width="5" stroke="rgb(0,0,0)" />
	<path d="M6340,3309.31 6340,3664.31 6650,3843.31 6650,3488.31 6340,3309.31 z " fill-rule="evenodd" fill="rgb(0,128,0)" stroke-width="5" stroke="rgb(0,0,0)" />
	<path d="M6340,3666.62 6340,4021.62 6650,4200.62 6650,3845.62 6340,3666.62 z " fill-rule="evenodd" fill="rgb(0,128,0)" stroke-width="5" stroke="rgb(0,0,0)" />
	<path d="M6340,4023.93 6340,4378.93 6650,4557.93 6650,4202.93 6340,4023.93 z " fill-rule="evenodd" fill="rgb(0,128,0)" stroke-width="5" stroke="rgb(0,0,0)" />
	<path d="M3844,4381.24 3844,4736.24 4154,4915.24 4154,4560.24 3844,4381.24 z " fill-rule="evenodd" fill="rgb(0,128,0)" stroke-width="5" stroke="rgb(0,0,0)" />
	<path d="M4468,4381.24 4468,4736.24 4778,4915.24 4778,4560.24 4468,4381.24 z " fill-rule="evenodd" fill="rgb(0,128,0)" stroke-width="5" stroke="rgb(0,0,0)" />
	<path d="M5092,4381.24 5092,4736.24 5402,4915.24 5402,4560.24 5092,4381.24 z " fill-rule="evenodd" fill="rgb(0,128,0)" stroke-width="5" stroke="rgb(0,0,0)" />
	<path d="M5716,4381.24 5716,4736.24 6026,4915.24 6026,4560.24 5716,4381.24 z " fill-rule="evenodd" fill="rgb(0,128,0)" stroke-width="5" stroke="rgb(0,0,0)" />
	<path d="M6340,4381.24 6340,4736.24 6650,4915.24 6650,4560.24 6340,4381.24 z " fill-rule="evenodd" fill="rgb(0,128,0)" stroke-width="5" stroke="rgb(0,0,0)" />
	<path d="M6964,2237.38 6964,2592.38 7274,2771.38 7274,2416.38 6964,2237.38 z " fill-rule="evenodd" fill="rgb(0,128,0)" stroke-width="5" stroke="rgb(0,0,0)" />
	<path d="M6964,2594.69 6964,2949.69 7274,3128.69 7274,2773.69 6964,2594.69 z " fill-rule="evenodd" fill="rgb(0,128,0)" stroke-width="5" stroke="rgb(0,0,0)" />
	<path d="M6964,2952 6964,3307 7274,3486 7274,3131 6964,2952 z " fill-rule="evenodd" fill="rgb(0,128,0)" stroke-width="5" stroke="rgb(0,0,0)" />
	<path d="M6964,3309.31 6964,3664.31 7274,3843.31 7274,3488.31 6964,3309.31 z " fill-rule="evenodd" fill="rgb(0,128,0)" stroke-width="5" stroke="rgb(0,0,0)" />
	<path d="M6964,3666.62 6964,4021.62 7274,4200.62 7274,3845.62 6964,3666.62 z " fill-rule="evenodd" fill="rgb(0,128,0)" stroke-width="5" stroke="rgb(0,0,0)" />
	<path d="M6964,4023.93 6964,4378.93 7274,4557.93 7274,4202.93 6964,4023.93 z " fill-rule="evenodd" fill="rgb(0,128,0)" stroke-width="5" stroke="rgb(0,0,0)" />
	<path d="M6964,4381.24 6964,4736.24 7274,4915.24 7274,4560.24 6964,4381.24 z " fill-rule="evenodd" fill="rgb(0,128,0)" stroke-width="5" stroke="rgb(0,0,0)" />
	<path d="M5092,4738.55 5092,5093.55 5402,5272.55 5402,4917.55 5092,4738.55 z " fill-rule="evenodd" fill="rgb(0,128,0)" stroke-width="5" stroke="rgb(0,0,0)" />
	<path d="M5716,4738.55 5716,5093.55 6026,5272.55 6026,4917.55 5716,4738.55 z " fill-rule="evenodd" fill="rgb(0,128,0)" stroke-width="5" stroke="rgb(0,0,0)" />
	<path d="M6340,4738.55 6340,5093.55 6650,5272.55 6650,4917.55 6340,4738.55 z " fill-rule="evenodd" fill="rgb(0,128,0)" stroke-width="5" stroke="rgb(0,0,0)" />
	<path d="M6964,4738.55 6964,5093.55 7274,5272.55 7274,4917.55 6964,4738.55 z " fill-rule="evenodd" fill="rgb(0,128,0)" stroke-width="5" stroke="rgb(0,0,0)" />
	<path d="M7588,2594.69 7588,2949.69 7898,3128.69 7898,2773.69 7588,2594.69 z " fill-rule="evenodd" fill="rgb(0,128,0)" stroke-width="5" stroke="rgb(0,0,0)" />
	<path d="M7588,2952 7588,3307 7898,3486 7898,3131 7588,2952 z " fill-rule="evenodd" fill="rgb(0,128,0)" stroke-width="5" stroke="rgb(0,0,0)" />
	<path d="M7588,3309.31 7588,3664.31 7898,3843.31 7898,3488.31 7588,3309.31 z " fill-rule="evenodd" fill="rgb(0,128,0)" stroke-width="5" stroke="rgb(0,0,0)" />
	<path d="M7588,3666.62 7588,4021.62 7898,4200.62 7898,3845.62 7588,3666.62 z " fill-rule="evenodd" fill="rgb(0,128,0)" stroke-width="5" stroke="rgb(0,0,0)" />
	<path d="M7588,4023.93 7588,4378.93 7898,4557.93 7898,4202.93 7588,4023.93 z " fill-rule="evenodd" fill="rgb(0,128,0)" stroke-width="5" stroke="rgb(0,0,0)" />
	<path d="M7588,4381.24 7588,4736.24 7898,4915.24 7898,4560.24 7588,4381.24 z " fill-rule="evenodd" fill="rgb(0,128,0)" stroke-width="5" stroke="rgb(0,0,0)" />
	<path d="M7588,4738.55 7588,5093.55 7898,5272.55 7898,4917.55 7588,4738.55 z " fill-rule="evenodd" fill="rgb(0,128,0)" stroke-width="5" stroke="rgb(0,0,0)" />
	<path d="M8212,2594.69 8212,2949.69 8522,3128.69 8522,2773.69 8212,2594.69 z " fill-rule="evenodd" fill="rgb(0,128,0)" stroke-width="5" stroke="rgb(0,0,0)" />
	<path d="M8212,2952 8212,3307 8522,3486 8522,3131 8212,2952 z " fill-rule="evenodd" fill="rgb(0,128,0)" stroke-width="5" stroke="rgb(0,0,0)" />
	<path d="M8212,3309.31 8212,3664.31 8522,3843.31 8522,3488.31 8212,3309.31 z " fill-rule="evenodd" fill="rgb(0,128,0)" stroke-width="5" stroke="rgb(0,0,0)" />
	<path d="M8212,3666.62 8212,4021.62 8522,4200.62 8522,3845.62 8212,3666.62 z " fill-rule="evenodd" fill="rgb(0,128,0)" stroke-width="5" stroke="rgb(0,0,0)" />
	<path d="M8212,4023.93 8212,4378.93 8522,4557.93 8522,4202.93 8212,4023.93 z " fill-rule="evenodd" fill="rgb(0,128,0)" stroke-width="5" stroke="rgb(0,0,0)" />
	<path d="M8212,4381.24 8212,4736.24 8522,4915.24 8522,4560.24 8212,4381.24 z " fill-rule="evenodd" fill="rgb(0,128,0)" stroke-width="5" stroke="rgb(0,0,0)" />
	<path d="M8212,4738.55 8212,5093.55 8522,5272.55 8522,4917.55 8212,4738.55 z " fill-rule="evenodd" fill="rgb(0,128,0)" stroke-width="5" stroke="rgb(0,0,0)" />
	<path d="M722,3309.31 722,3664.31 412,3843.31 412,3488.31 722,3309.31 z " fill-rule="evenodd" fill="rgb(0,128,0)" stroke-width="5" stroke="rgb(0,0,0)" />
	<path d="M722,2237.38 722,2592.38 412,2771.38 412,2416.38 722,2237.38 z " fill-rule="evenodd" fill="rgb(0,128,0)" stroke-width="5" stroke="rgb(0,0,0)" />
	<path d="M1346,2237.38 1346,2592.38 1036,2771.38 1036,2416.38 1346,2237.38 z " fill-rule="evenodd" fill="rgb(0,128,0)" stroke-width="5" stroke="rgb(0,0,0)" />
	<path d="M1346,3309.31 1346,3664.31 1036,3843.31 1036,3488.31 1346,3309.31 z " fill-rule="evenodd" fill="rgb(0,128,0)" stroke-width="5" stroke="rgb(0,0,0)" />
	<path d="M722,3666.62 722,4021.62 412,4200.62 412,3845.62 722,3666.62 z " fill-rule="evenodd" fill="rgb(0,128,0)" stroke-width="5" stroke="rgb(0,0,0)" />
	<path d="M1346,3666.62 1346,4021.62 1036,4200.62 1036,3845.62 1346,3666.62 z " fill-rule="evenodd" fill="rgb(0,128,0)" stroke-width="5" stroke="rgb(0,0,0)" />
	<path d="M722,1880.07 722,2235.07 412,2414.07 412,2059.07 722,1880.07 z " fill-rule="evenodd" fill="rgb(0,128,0)" stroke-width="5" stroke="rgb(0,0,0)" />
	<path d="M1346,1880.07 1346,2235.07 1036,2414.07 1036,2059.07 1346,1880.07 z " fill-rule="evenodd" fill="rgb(0,128,0)" stroke-width="5" stroke="rgb(0,0,0)" />
	<path d="M1970,1880.07 1970,2235.07 1660,2414.07 1660,2059.07 1970,1880.07 z " fill-rule="evenodd" fill="rgb(0,128,0)" stroke-width="5" stroke="rgb(0,0,0)" />
	<path d="M1970,2237.38 1970,2592.38 1660,2771.38 1660,2416.38 1970,2237.38 z " fill-rule="evenodd" fill="rgb(0,128,0)" stroke-width="5" stroke="rgb(0,0,0)" />
	<path d="M1970,3309.31 1970,3664.31 1660,3843.31 1660,3488.31 1970,3309.31 z " fill-rule="evenodd" fill="rgb(0,128,0)" stroke-width="5" stroke="rgb(0,0,0)" />
	<path d="M1970,3666.62 1970,4021.62 1660,4200.62 1660,3845.62 1970,3666.62 z " fill-rule="evenodd" fill="rgb(0,128,0)" stroke-width="5" stroke="rgb(0,0,0)" />
	<path d="M722,4023.93 722,4378.93 412,4557.93 412,4202.93 722,4023.93 z " fill-rule="evenodd" fill="rgb(0,128,0)" stroke-width="5" stroke="rgb(0,0,0)" />
	<path d="M1346,4023.93 1346,4378.93 1036,4557.93 1036,4202.93 1346,4023.93 z " fill-rule="evenodd" fill="rgb(0,128,0)" stroke-width="5" stroke="rgb(0,0,0)" />
	<path d="M1970,4023.93 1970,4378.93 1660,4557.93 1660,4202.93 1970,4023.93 z " fill-rule="evenodd" fill="rgb(0,128,0)" stroke-width="5" stroke="rgb(0,0,0)" />
	<path d="M1346,1522.76 1346,1877.76 1036,2056.76 1036,1701.76 1346,1522.76 z " fill-rule="evenodd" fill="rgb(0,128,0)" stroke-width="5" stroke="rgb(0,0,0)" />
	<path d="M2594,1522.76 2594,1877.76 2284,2056.76 2284,1701.76 2594,1522.76 z " fill-rule="evenodd" fill="rgb(0,128,0)" stroke-width="5" stroke="rgb(0,0,0)" />
	<path d="M2594,1880.07 2594,2235.07 2284,2414.07 2284,2059.07 2594,1880.07 z " fill-rule="evenodd" fill="rgb(0,128,0)" stroke-width="5" stroke="rgb(0,0,0)" />
	<path d="M2594,2237.38 2594,2592.38 2284,2771.38 2284,2416.38 2594,2237.38 z " fill-rule="evenodd" fill="rgb(0,128,0)" stroke-width="5" stroke="rgb(0,0,0)" />
	<path d="M2594,2594.69 2594,2949.69 2284,3128.69 2284,2773.69 2594,2594.69 z " fill-rule="evenodd" fill="rgb(0,128,0)" stroke-width="5" stroke="rgb(0,0,0)" />
	<path d="M2594,2952 2594,3307 2284,3486 2284,3131 2594,2952 z " fill-rule="evenodd" fill="rgb(0,128,0)" stroke-width="5" stroke="rgb(0,0,0)" />
	<path d="M2594,3309.31 2594,3664.31 2284,3843.31 2284,3488.31 2594,3309.31 z " fill-rule="evenodd" fill="rgb(0,128,0)" stroke-width="5" stroke="rgb(0,0,0)" />
	<path d="M2594,3666.62 2594,4021.62 2284,4200.62 2284,3845.62 2594,3666.62 z " fill-rule="evenodd" fill="rgb(0,128,0)" stroke-width="5" stroke="rgb(0,0,0)" />
	<path d="M2594,4023.93 2594,4378.93 2284,4557.93 2284,4202.93 2594,4023.93 z " fill-rule="evenodd" fill="rgb(0,128,0)" stroke-width="5" stroke="rgb(0,0,0)" />
	<path d="M722,4381.24 722,4736.24 412,4915.24 412,4560.24 722,4381.24 z " fill-rule="evenodd" fill="rgb(0,128,0)" stroke-width="5" stroke="rgb(0,0,0)" />
	<path d="M1346,4381.24 1346,4736.24 1036,4915.24 1036,4560.24 1346,4381.24 z " fill-rule="evenodd" fill="rgb(0,128,0)" stroke-width="5" stroke="rgb(0,0,0)" />
	<path d="M1970,4381.24 1970,4736.24 1660,4915.24 1660,4560.24 1970,4381.24 z " fill-rule="evenodd" fill="rgb(0,128,0)" stroke-width="5" stroke="rgb(0,0,0)" />
	<path d="M2594,4381.24 2594,4736.24 2284,4915.24 2284,4560.24 2594,4381.24 z " fill-rule="evenodd" fill="rgb(0,128,0)" stroke-width="5" stroke="rgb(0,0,0)" />
	<path d="M2594,1165.45 2594,1520.45 2284,1699.45 2284,1344.45 2594,1165.45 z " fill-rule="evenodd" fill="rgb(0,128,0)" stroke-width="5" stroke="rgb(0,0,0)" />
	<path d="M3218,1880.07 3218,2235.07 2908,2414.07 2908,2059.07 3218,1880.07 z " fill-rule="evenodd" fill="rgb(0,128,0)" stroke-width="5" stroke="rgb(0,0,0)" />
	<path d="M3218,2237.38 3218,2592.38 2908,2771.38 2908,2416.38 3218,2237.38 z " fill-rule="evenodd" fill="rgb(0,128,0)" stroke-width="5" stroke="rgb(0,0,0)" />
	<path d="M722,4738.55 722,5093.55 412,5272.55 412,4917.55 722,4738.55 z " fill-rule="evenodd" fill="rgb(0,128,0)" stroke-width="5" stroke="rgb(0,0,0)" />
	<path d="M1346,4738.55 1346,5093.55 1036,5272.55 1036,4917.55 1346,4738.55 z " fill-rule="evenodd" fill="rgb(0,128,0)" stroke-width="5" stroke="rgb(0,0,0)" />
	<path d="M1970,4738.55 1970,5093.55 1660,5272.55 1660,4917.55 1970,4738.55 z " fill-rule="evenodd" fill="rgb(0,128,0)" stroke-width="5" stroke="rgb(0,0,0)" />
	<path d="M2594,4738.55 2594,5093.55 2284,5272.55 2284,4917.55 2594,4738.55 z " fill-rule="evenodd" fill="rgb(0,128,0)" stroke-width="5" stroke="rgb(0,0,0)" />
	<path d="M2594,808.143 2594,1163.14 2284,1342.14 2284,987.143 2594,808.143 z " fill-rule="evenodd" fill="rgb(0,128,0)" stroke-width="5" stroke="rgb(0,0,0)" />
	<path d="M3842,808.143 3842,1163.14 3532,1342.14 3532,987.143 3842,808.143 z " fill-rule="evenodd" fill="rgb(0,128,0)" stroke-width="5" stroke="rgb(0,0,0)" />
	<path d="M3842,1165.45 3842,1520.45 3532,1699.45 3532,1344.45 3842,1165.45 z " fill-rule="evenodd" fill="rgb(0,128,0)" stroke-width="5" stroke="rgb(0,0,0)" />
	<path d="M3842,1522.76 3842,1877.76 3532,2056.76 3532,1701.76 3842,1522.76 z " fill-rule="evenodd" fill="rgb(0,128,0)" stroke-width="5" stroke="rgb(0,0,0)" />
	<path d="M3842,1880.07 3842,2235.07 3532,2414.07 3532,2059.07 3842,1880.07 z " fill-rule="evenodd" fill="rgb(0,128,0)" stroke-width="5" stroke="rgb(0,0,0)" />
	<path d="M3842,2237.38 3842,2592.38 3532,2771.38 3532,2416.38 3842,2237.38 z " fill-rule="evenodd" fill="rgb(0,128,0)" stroke-width="5" stroke="rgb(0,0,0)" />
	<path d="M722,5095.86 722,5450.86 412,5629.86 412,5274.86 722,5095.86 z " fill-rule="evenodd" fill="rgb(0,128,0)" stroke-width="5" stroke="rgb(0,0,0)" />
	<path d="M1346,5095.86 1346,5450.86 1036,5629.86 1036,5274.86 1346,5095.86 z " fill-rule="evenodd" fill="rgb(0,128,0)" stroke-width="5" stroke="rgb(0,0,0)" />
	<path d="M1970,5095.86 1970,5450.86 1660,5629.86 1660,5274.86 1970,5095.86 z " fill-rule="evenodd" fill="rgb(0,128,0)" stroke-width="5" stroke="rgb(0,0,0)" />
	<path d="M2594,5095.86 2594,5450.86 2284,5629.86 2284,5274.86 2594,5095.86 z " fill-rule="evenodd" fill="rgb(0,128,0)" stroke-width="5" stroke="rgb(0,0,0)" />
	<path d="M2594,450.834 2594,805.834 2284,984.834 2284,629.834 2594,450.834 z " fill-rule="evenodd" fill="rgb(0,128,0)" stroke-width="5" stroke="rgb(0,0,0)" />
	<path d="M4466,1165.45 4466,1520.45 4156,1699.45 4156,1344.45 4466,1165.45 z " fill-rule="evenodd" fill="rgb(0,128,0)" stroke-width="5" stroke="rgb(0,0,0)" />
	<path d="M4466,1522.76 4466,1877.76 4156,2056.76 4156,1701.76 4466,1522.76 z " fill-rule="evenodd" fill="rgb(0,128,0)" stroke-width="5" stroke="rgb(0,0,0)" />
	<path d="M4466,1880.07 4466,2235.07 4156,2414.07 4156,2059.07 4466,1880.07 z " fill-rule="evenodd" fill="rgb(0,128,0)" stroke-width="5" stroke="rgb(0,0,0)" />
	<path d="M4466,2237.38 4466,2592.38 4156,2771.38 4156,2416.38 4466,2237.38 z " fill-rule="evenodd" fill="rgb(0,128,0)" stroke-width="5" stroke="rgb(0,0,0)" />
	<path d="M4466,2952 4466,3307 4156,3486 4156,3131 4466,2952 z " fill-rule="evenodd" fill="rgb(0,128,0)" stroke-width="5" stroke="rgb(0,0,0)" />
	<path d="M4466,3309.31 4466,3664.31 4156,3843.31 4156,3488.31 4466,3309.31 z " fill-rule="evenodd" fill="rgb(0,128,0)" stroke-width="5" stroke="rgb(0,0,0)" />
	<path d="M722,5453.17 722,5808.17 412,5987.17 412,5632.17 722,5453.17 z " fill-rule="evenodd" fill="rgb(0,128,0)" stroke-width="5" stroke="rgb(0,0,0)" />
	<path d="M1346,5453.17 1346,5808.17 1036,5987.17 1036,5632.17 1346,5453.17 z " fill-rule="evenodd" fill="rgb(0,128,0)" stroke-width="5" stroke="rgb(0,0,0)" />
	<path d="M1970,5453.17 1970,5808.17 1660,5987.17 1660,5632.17 1970,5453.17 z " fill-rule="evenodd" fill="rgb(0,128,0)" stroke-width="5" stroke="rgb(0,0,0)" />
	<path d="M2594,5453.17 2594,5808.17 2284,5987.17 2284,5632.17 2594,5453.17 z " fill-rule="evenodd" fill="rgb(0,128,0)" stroke-width="5" stroke="rgb(0,0,0)" />
	<path d="M5090,1522.76 5090,1877.76 4780,2056.76 4780,1701.76 5090,1522.76 z " fill-rule="evenodd" fill="rgb(0,128,0)" stroke-width="5" stroke="rgb(0,0,0)" />
	<path d="M5090,1880.07 5090,2235.07 4780,2414.07 4780,2059.07 5090,1880.07 z " fill-rule="evenodd" fill="rgb(0,128,0)" stroke-width="5" stroke="rgb(0,0,0)" />
	<path d="M5090,2237.38 5090,2592.38 4780,2771.38 4780,2416.38 5090,2237.38 z " fill-rule="evenodd" fill="rgb(0,128,0)" stroke-width="5" stroke="rgb(0,0,0)" />
	<path d="M4466,3666.62 4466,4021.62 4156,4200.62 4156,3845.62 4466,3666.62 z " fill-rule="evenodd" fill="rgb(0,128,0)" stroke-width="5" stroke="rgb(0,0,0)" />
	<path d="M722,5810.48 722,6165.48 412,6344.48 412,5989.48 722,5810.48 z " fill-rule="evenodd" fill="rgb(0,128,0)" stroke-width="5" stroke="rgb(0,0,0)" />
	<path d="M1346,5810.48 1346,6165.48 1036,6344.48 1036,5989.48 1346,5810.48 z " fill-rule="evenodd" fill="rgb(0,128,0)" stroke-width="5" stroke="rgb(0,0,0)" />
	<path d="M1970,5810.48 1970,6165.48 1660,6344.48 1660,5989.48 1970,5810.48 z " fill-rule="evenodd" fill="rgb(0,128,0)" stroke-width="5" stroke="rgb(0,0,0)" />
	<path d="M2594,5810.48 2594,6165.48 2284,6344.48 2284,5989.48 2594,5810.48 z " fill-rule="evenodd" fill="rgb(0,128,0)" stroke-width="5" stroke="rgb(0,0,0)" />
	<path d="M5714,1880.07 5714,2235.07 5404,2414.07 5404,2059.07 5714,1880.07 z " fill-rule="evenodd" fill="rgb(0,128,0)" stroke-width="5" stroke="rgb(0,0,0)" />
	<path d="M5714,2237.38 5714,2592.38 5404,2771.38 5404,2416.38 5714,2237.38 z " fill-rule="evenodd" fill="rgb(0,128,0)" stroke-width="5" stroke="rgb(0,0,0)" />
	<path d="M5714,2594.69 5714,2949.69 5404,3128.69 5404,2773.69 5714,2594.69 z " fill-rule="evenodd" fill="rgb(0,128,0)" stroke-width="5" stroke="rgb(0,0,0)" />
	<path d="M5714,2952 5714,3307 5404,3486 5404,3131 5714,2952 z " fill-rule="evenodd" fill="rgb(0,128,0)" stroke-width="5" stroke="rgb(0,0,0)" />
	<path d="M5714,3309.31 5714,3664.31 5404,3843.31 5404,3488.31 5714,3309.31 z " fill-rule="evenodd" fill="rgb(0,128,0)" stroke-width="5" stroke="rgb(0,0,0)" />
	<path d="M5714,3666.62 5714,4021.62 5404,4200.62 5404,3845.62 5714,3666.62 z " fill-rule="evenodd" fill="rgb(0,128,0)" stroke-width="5" stroke="rgb(0,0,0)" />
	<path d="M4466,4023.93 4466,4378.93 4156,4557.93 4156,4202.93 4466,4023.93 z " fill-rule="evenodd" fill="rgb(0,128,0)" stroke-width="5" stroke="rgb(0,0,0)" />
	<path d="M5714,4023.93 5714,4378.93 5404,4557.93 5404,4202.93 5714,4023.93 z " fill-rule="evenodd" fill="rgb(0,128,0)" stroke-width="5" stroke="rgb(0,0,0)" />
	<path d="M722,6167.79 722,6522.79 412,6701.79 412,6346.79 722,6167.79 z " fill-rule="evenodd" fill="rgb(0,128,0)" stroke-width="5" stroke="rgb(0,0,0)" />
	<path d="M1346,6167.79 1346,6522.79 1036,6701.79 1036,6346.79 1346,6167.79 z " fill-rule="evenodd" fill="rgb(0,128,0)" stroke-width="5" stroke="rgb(0,0,0)" />
	<path d="M1970,6167.79 1970,6522.79 1660,6701.79 1660,6346.79 1970,6167.79 z " fill-rule="evenodd" fill="rgb(0,128,0)" stroke-width="5" stroke="rgb(0,0,0)" />
	<path d="M2594,6167.79 2594,6522.79 2284,6701.79 2284,6346.79 2594,6167.79 z " fill-rule="evenodd" fill="rgb(0,128,0)" stroke-width="5" stroke="rgb(0,0,0)" />
	<path d="M6338,1880.07 6338,2235.07 6028,2414.07 6028,2059.07 6338,1880.07 z " fill-rule="evenodd" fill="rgb(0,128,0)" stroke-width="5" stroke="rgb(0,0,0)" />
	<path d="M6338,2237.38 6338,2592.38 6028,2771.38 6028,2416.38 6338,2237.38 z " fill-rule="evenodd" fill="rgb(0,128,0)" stroke-width="5" stroke="rgb(0,0,0)" />
	<path d="M6338,2594.69 6338,2949.69 6028,3128.69 6028,2773.69 6338,2594.69 z " fill-rule="evenodd" fill="rgb(0,128,0)" stroke-width="5" stroke="rgb(0,0,0)" />
	<path d="M6338,2952 6338,3307 6028,3486 6028,3131 6338,2952 z " fill-rule="evenodd" fill="rgb(0,128,0)" stroke-width="5" stroke="rgb(0,0,0)" />
	<path d="M6338,3309.31 6338,3664.31 6028,3843.31 6028,3488.31 6338,3309.31 z " fill-rule="evenodd" fill="rgb(0,128,0)" stroke-width="5" stroke="rgb(0,0,0)" />
	<path d="M6338,3666.62 6338,4021.62 6028,4200.62 6028,3845.62 6338,3666.62 z " fill-rule="evenodd" fill="rgb(0,128,0)" stroke-width="5" stroke="rgb(0,0,0)" />
	<path d="M6338,4023.93 6338,4378.93 6028,4557.93 6028,4202.93 6338,4023.93 z " fill-rule="evenodd" fill="rgb(0,128,0)" stroke-width="5" stroke="rgb(0,0,0)" />
	<path d="M4466,4381.24 4466,4736.24 4156,4915.24 4156,4560.24 4466,4381.24 z " fill-rule="evenodd" fill="rgb(0,128,0)" stroke-width="5" stroke="rgb(0,0,0)" />
	<path d="M5714,4381.24 5714,4736.24 5404,4915.24 5404,4560.24 5714,4381.24 z " fill-rule="evenodd" fill="rgb(0,128,0)" stroke-width="5" stroke="rgb(0,0,0)" />
	<path d="M6338,4381.24 6338,4736.24 6028,4915.24 6028,4560.24 6338,4381.24 z " fill-rule="evenodd" fill="rgb(0,128,0)" stroke-width="5" stroke="rgb(0,0,0)" />
	<path d="M6962,2237.38 6962,2592.38 6652,2771.38 6652,2416.38 6962,2237.38 z " fill-rule="evenodd" fill="rgb(0,128,0)" stroke-width="5" stroke="rgb(0,0,0)" />
	<path d="M6962,2594.69 6962,2949.69 6652,3128.69 6652,2773.69 6962,2594.69 z " fill-rule="evenodd" fill="rgb(0,128,0)" stroke-width="5" stroke="rgb(0,0,0)" />
	<path d="M6962,2952 6962,3307 6652,3486 6652,3131 6962,2952 z " fill-rule="evenodd" fill="rgb(0,128,0)" stroke-width="5" stroke="rgb(0,0,0)" />
	<path d="M6962,3309.31 6962,3664.31 6652,3843.31 6652,3488.31 6962,3309.31 z " fill-rule="evenodd" fill="rgb(0,128,0)" stroke-width="5" stroke="rgb(0,0,0)" />
	<path d="M6962,3666.62 6962,4021.62 6652,4200.62 6652,3845.62 6962,3666.62 z " fill-rule="evenodd" fill="rgb(0,128,0)" stroke-width="5" stroke="rgb(0,0,0)" />
	<path d="M6962,4023.93 6962,4378.93 6652,4557.93 6652,4202.93 6962,4023.93 z " fill-rule="evenodd" fill="rgb(0,128,0)" stroke-width="5" stroke="rgb(0,0,0)" />
	<path d="M6962,4381.24 6962,4736.24 6652,4915.24 6652,4560.24 6962,4381.24 z " fill-rule="evenodd" fill="rgb(0,128,0)" stroke-width="5" stroke="rgb(0,0,0)" />
	<path d="M5714,4738.55 5714,5093.55 5404,5272.55 5404,4917.55 5714,4738.55 z " fill-rule="evenodd" fill="rgb(0,128,0)" stroke-width="5" stroke="rgb(0,0,0)" />
	<path d="M6338,4738.55 6338,5093.55 6028,5272.55 6028,4917.55 6338,4738.55 z " fill-rule="evenodd" fill="rgb(0,128,0)" stroke-width="5" stroke="rgb(0,0,0)" />
	<path d="M6962,4738.55 6962,5093.55 6652,5272.55 6652,4917.55 6962,4738.55 z " fill-rule="evenodd" fill="rgb(0,128,0)" stroke-width="5" stroke="rgb(0,0,0)" />
	<path d="M7586,2594.69 7586,2949.69 7276,3128.69 7276,2773.69 7586,2594.69 z " fill-rule="evenodd" fill="rgb(0,128,0)" stroke-width="5" stroke="rgb(0,0,0)" />
	<path d="M7586,2952 7586,3307 7276,3486 7276,3131 7586,2952 z " fill-rule="evenodd" fill="rgb(0,128,0)" stroke-width="5" stroke="rgb(0,0,0)" />
	<path d="M7586,3309.31 7586,3664.31 7276,3843.31 7276,3488.31 7586,3309.31 z " fill-rule="evenodd" fill="rgb(0,128,0)" stroke-width="5" stroke="rgb(0,0,0)" />
	<path d="M7586,3666.62 7586,4021.62 7276,4200.62 7276,3845.62 7586,3666.62 z " fill-rule="evenodd" fill="rgb(0,128,0)" stroke-width="5" stroke="rgb(0,0,0)" />
	<path d="M7586,4023.93 7586,4378.93 7276,4557.93 7276,4202.93 7586,4023.93 z " fill-rule="evenodd" fill="rgb(0,128,0)" stroke-width="5" stroke="rgb(0,0,0)" />
	<path d="M7586,4381.24 7586,4736.24 7276,4915.24 7276,4560.24 7586,4381.24 z " fill-rule="evenodd" fill="rgb(0,128,0)" stroke-width="5" stroke="rgb(0,0,0)" />
	<path d="M7586,4738.55 7586,5093.55 7276,5272.55 7276,4917.55 7586,4738.55 z " fill-rule="evenodd" fill="rgb(0,128,0)" stroke-width="5" stroke="rgb(0,0,0)" />
	<path d="M8210,2594.69 8210,2949.69 7900,3128.69 7900,2773.69 8210,2594.69 z " fill-rule="evenodd" fill="rgb(0,128,0)" stroke-width="5" stroke="rgb(0,0,0)" />
	<path d="M8210,2952 8210,3307 7900,3486 7900,3131 8210,2952 z " fill-rule="evenodd" fill="rgb(0,128,0)" stroke-width="5" stroke="rgb(0,0,0)" />
	<path d="M8210,3309.31 8210,3664.31 7900,3843.31 7900,3488.31 8210,3309.31 z " fill-rule="evenodd" fill="rgb(0,128,0)" stroke-width="5" stroke="rgb(0,0,0)" />
	<path d="M8210,3666.62 8210,4021.62 7900,4200.62 7900,3845.62 8210,3666.62 z " fill-rule="evenodd" fill="rgb(0,128,0)" stroke-width="5" stroke="rgb(0,0,0)" />
	<path d="M8210,4023.93 8210,4378.93 7900,4557.93 7900,4202.93 8210,4023.93 z " fill-rule="evenodd" fill="rgb(0,128,0)" stroke-width="5" stroke="rgb(0,0,0)" />
	<path d="M8210,4381.24 8210,4736.24 7900,4915.24 7900,4560.24 8210,4381.24 z " fill-rule="evenodd" fill="rgb(0,128,0)" stroke-width="5" stroke="rgb(0,0,0)" />
	<path d="M8210,4738.55 8210,5093.55 7900,5272.55 7900,4917.55 8210,4738.55 z " fill-rule="evenodd" fill="rgb(0,128,0)" stroke-width="5" stroke="rgb(0,0,0)" />
	<path d="M100,2949.69 100,2594.69 410,2773.69 410,2952 104,2952 100,2949.69 z " fill-rule="evenodd" fill="rgb(255,0,0)" stroke-width="5" stroke="rgb(0,0,0)" />
	<path d="M724,2949.69 724,2594.69 1034,2773.69 1034,2952 728,2952 724,2949.69 z " fill-rule="evenodd" fill="rgb(255,0,0)" stroke-width="5" stroke="rgb(0,0,0)" />
	<path d="M410,3486 100,3307 100,3152 410,3152 410,3486 z " fill-rule="evenodd" fill="rgb(255,0,0)" stroke-width="5" stroke="rgb(0,0,0)" />
	<path d="M1034,3486 724,3307 724,3152 1034,3152 1034,3486 z " fill-rule="evenodd" fill="rgb(255,0,0)" stroke-width="5" stroke="rgb(0,0,0)" />
	<path d="M1348,2949.69 1348,2594.69 1658,2773.69 1658,2952 1352,2952 1348,2949.69 z " fill-rule="evenodd" fill="rgb(255,0,0)" stroke-width="5" stroke="rgb(0,0,0)" />
	<path d="M1658,3486 1348,3307 1348,3152 1658,3152 1658,3486 z " fill-rule="evenodd" fill="rgb(255,0,0)" stroke-width="5" stroke="rgb(0,0,0)" />
	<path d="M1972,2949.69 1972,2594.69 2282,2773.69 2282,3128.69 2050,2994.73 2050,2952 1976,2952 1972,2949.69 z " fill-rule="evenodd" fill="rgb(255,0,0)" stroke-width="5" stroke="rgb(0,0,0)" />
	<path d="M2282,3131 2282,3486 1972,3307 1972,3152 2050,3152 2050,2997.04 2282,3131 z " fill-rule="evenodd" fill="rgb(255,0,0)" stroke-width="5" stroke="rgb(0,0,0)" />
	<path d="M410,1701.76 410,2056.76 100,1877.76 100,1602 237.228,1602 410,1701.76 z " fill-rule="evenodd" fill="rgb(255,0,0)" stroke-width="5" stroke="rgb(0,0,0)" />
	<path d="M1658,1701.76 1658,2056.76 1348,1877.76 1348,1522.76 1400,1552.79 1400,1602 1485.23,1602 1658,1701.76 z " fill-rule="evenodd" fill="rgb(255,0,0)" stroke-width="5" stroke="rgb(0,0,0)" />
	<path d="M2282,1701.76 2282,2056.76 1972,1877.76 1972,1602 2109.23,1602 2282,1701.76 z " fill-rule="evenodd" fill="rgb(255,0,0)" stroke-width="5" stroke="rgb(0,0,0)" />
	<path d="M2596,2949.69 2596,2594.69 2906,2773.69 2906,2952 2850,2952 2850,3096.36 2596,2949.69 z " fill-rule="evenodd" fill="rgb(255,0,0)" stroke-width="5" stroke="rgb(0,0,0)" />
	<path d="M2596,3307 2596,2952 2850,3098.66 2850,3152 2900,3152 2900,3482.54 2596,3307 z " fill-rule="evenodd" fill="rgb(255,0,0)" stroke-width="5" stroke="rgb(0,0,0)" />
	<path d="M2596,3664.31 2596,3309.31 2900,3484.84 2900,3839.84 2596,3664.31 z " fill-rule="evenodd" fill="rgb(255,0,0)" stroke-width="5" stroke="rgb(0,0,0)" />
	<path d="M2596,4021.62 2596,3666.62 2900,3842.15 2900,4197.15 2596,4021.62 z " fill-rule="evenodd" fill="rgb(255,0,0)" stroke-width="5" stroke="rgb(0,0,0)" />
	<path d="M2596,4378.93 2596,4023.93 2900,4199.46 2900,4554.46 2596,4378.93 z " fill-rule="evenodd" fill="rgb(255,0,0)" stroke-width="5" stroke="rgb(0,0,0)" />
	<path d="M2596,4736.24 2596,4381.24 2900,4556.77 2900,4911.77 2596,4736.24 z " fill-rule="evenodd" fill="rgb(255,0,0)" stroke-width="5" stroke="rgb(0,0,0)" />
	<path d="M410,1699.45 241.227,1602 410,1602 410,1699.45 z " fill-rule="evenodd" fill="rgb(255,0,0)" stroke-width="5" stroke="rgb(0,0,0)" />
	<path d="M1034,1699.45 724,1520.45 724,1502 1034,1502 1034,1699.45 z " fill-rule="evenodd" fill="rgb(255,0,0)" stroke-width="5" stroke="rgb(0,0,0)" />
	<path d="M1348,1520.45 1348,1502 1400,1502 1400,1550.48 1348,1520.45 z " fill-rule="evenodd" fill="rgb(255,0,0)" stroke-width="5" stroke="rgb(0,0,0)" />
	<path d="M1658,1699.45 1489.23,1602 1658,1602 1658,1699.45 z " fill-rule="evenodd" fill="rgb(255,0,0)" stroke-width="5" stroke="rgb(0,0,0)" />
	<path d="M2282,1344.45 2282,1699.45 2113.23,1602 2150,1602 2150,1268.23 2282,1344.45 z " fill-rule="evenodd" fill="rgb(255,0,0)" stroke-width="5" stroke="rgb(0,0,0)" />
	<path d="M3530,1344.45 3530,1699.45 3220,1520.45 3220,1421.98 3304.29,1214.12 3530,1344.45 z " fill-rule="evenodd" fill="rgb(255,0,0)" stroke-width="5" stroke="rgb(0,0,0)" />
	<path d="M3220,2949.69 3220,2594.69 3530,2773.69 3530,2952 3224,2952 3220,2949.69 z " fill-rule="evenodd" fill="rgb(255,0,0)" stroke-width="5" stroke="rgb(0,0,0)" />
	<path d="M2596,5093.55 2596,4738.55 2900,4914.08 2900,5269.08 2596,5093.55 z " fill-rule="evenodd" fill="rgb(255,0,0)" stroke-width="5" stroke="rgb(0,0,0)" />
	<path d="M2282,987.143 2282,1342.14 2150,1265.92 2150,910.924 2282,987.143 z " fill-rule="evenodd" fill="rgb(255,0,0)" stroke-width="5" stroke="rgb(0,0,0)" />
	<path d="M3220,808.143 3334.63,874.334 3220,1156.9 3220,808.143 z " fill-rule="evenodd" fill="rgb(255,0,0)" stroke-width="5" stroke="rgb(0,0,0)" />
	<path d="M3530,987.143 3530,1342.14 3305.05,1212.25 3421.7,924.607 3530,987.143 z " fill-rule="evenodd" fill="rgb(255,0,0)" stroke-width="5" stroke="rgb(0,0,0)" />
	<path d="M3844,2949.69 3844,2594.69 4154,2773.69 4154,2952 3848,2952 3844,2949.69 z " fill-rule="evenodd" fill="rgb(255,0,0)" stroke-width="5" stroke="rgb(0,0,0)" />
	<path d="M4154,3128.69 4021.18,3052 4154,3052 4154,3128.69 z " fill-rule="evenodd" fill="rgb(255,0,0)" stroke-width="5" stroke="rgb(0,0,0)" />
	<path d="M4154,3131 4154,3486 3844,3307 3844,3052 4017.18,3052 4154,3131 z " fill-rule="evenodd" fill="rgb(255,0,0)" stroke-width="5" stroke="rgb(0,0,0)" />
	<path d="M2596,5450.86 2596,5095.86 2900,5271.39 2900,5626.39 2596,5450.86 z " fill-rule="evenodd" fill="rgb(255,0,0)" stroke-width="5" stroke="rgb(0,0,0)" />
	<path d="M2282,629.834 2282,984.834 2150,908.614 2150,553.614 2282,629.834 z " fill-rule="evenodd" fill="rgb(255,0,0)" stroke-width="5" stroke="rgb(0,0,0)" />
	<path d="M3220,805.834 3220,533.986 3437,622 3335.39,872.463 3220,805.834 z " fill-rule="evenodd" fill="rgb(255,0,0)" stroke-width="5" stroke="rgb(0,0,0)" />
	<path d="M3530,984.834 3422.46,922.735 3529,660 3530,660.406 3530,984.834 z " fill-rule="evenodd" fill="rgb(255,0,0)" stroke-width="5" stroke="rgb(0,0,0)" />
	<path d="M4154,984.834 3844,805.834 3844,787.901 4154,913.771 4154,984.834 z " fill-rule="evenodd" fill="rgb(255,0,0)" stroke-width="5" stroke="rgb(0,0,0)" />
	<path d="M4778,1342.14 4468,1163.14 4468,1041.27 4778,1167.14 4778,1342.14 z " fill-rule="evenodd" fill="rgb(255,0,0)" stroke-width="5" stroke="rgb(0,0,0)" />
	<path d="M2596,5808.17 2596,5453.17 2900,5628.7 2900,5983.7 2596,5808.17 z " fill-rule="evenodd" fill="rgb(255,0,0)" stroke-width="5" stroke="rgb(0,0,0)" />
	<path d="M2282,272.524 2282,627.524 2150,551.305 2150,196.305 2282,272.524 z " fill-rule="evenodd" fill="rgb(255,0,0)" stroke-width="5" stroke="rgb(0,0,0)" />
	<path d="M2906,627.524 2596,448.524 2596,280.895 2906,406.629 2906,627.524 z " fill-rule="evenodd" fill="rgb(255,0,0)" stroke-width="5" stroke="rgb(0,0,0)" />
	<path d="M5402,1699.45 5092,1520.45 5092,1294.63 5402,1420.5 5402,1699.45 z " fill-rule="evenodd" fill="rgb(255,0,0)" stroke-width="5" stroke="rgb(0,0,0)" />
	<path d="M2906,6344.48 2596,6165.48 2596,5810.48 2900,5986.01 2900,6052 2906,6052 2906,6344.48 z " fill-rule="evenodd" fill="rgb(255,0,0)" stroke-width="5" stroke="rgb(0,0,0)" />
	<path d="M2282,270.215 2150,193.995 2150,100 2282,153.538 2282,270.215 z " fill-rule="evenodd" fill="rgb(255,0,0)" stroke-width="5" stroke="rgb(0,0,0)" />
	<path d="M6026,1699.45 5876.72,1613.25 6026,1673.87 6026,1699.45 z " fill-rule="evenodd" fill="rgb(255,0,0)" stroke-width="5" stroke="rgb(0,0,0)" />
	<path d="M6026,1701.76 6026,2056.76 5716,1877.76 5716,1548 5863.24,1607.78 6026,1701.76 z " fill-rule="evenodd" fill="rgb(255,0,0)" stroke-width="5" stroke="rgb(0,0,0)" />
	<path d="M6650,2056.76 6340,1877.76 6340,1801.36 6650,1927.23 6650,2056.76 z " fill-rule="evenodd" fill="rgb(255,0,0)" stroke-width="5" stroke="rgb(0,0,0)" />
	<path d="M100,6880.09 100,6525.09 410,6704.09 410,6952 224.529,6952 100,6880.09 z " fill-rule="evenodd" fill="rgb(255,0,0)" stroke-width="5" stroke="rgb(0,0,0)" />
	<path d="M724,6880.09 724,6525.09 1034,6704.09 1034,6952 848.529,6952 724,6880.09 z " fill-rule="evenodd" fill="rgb(255,0,0)" stroke-width="5" stroke="rgb(0,0,0)" />
	<path d="M1348,6880.09 1348,6525.09 1658,6704.09 1658,6952 1472.53,6952 1348,6880.09 z " fill-rule="evenodd" fill="rgb(255,0,0)" stroke-width="5" stroke="rgb(0,0,0)" />
	<path d="M1972,6880.09 1972,6525.09 2282,6704.09 2282,6952 2096.53,6952 1972,6880.09 z " fill-rule="evenodd" fill="rgb(255,0,0)" stroke-width="5" stroke="rgb(0,0,0)" />
	<path d="M2596,6880.09 2596,6525.09 2906,6704.09 2906,6852 2900,6852 2900,6952 2720.53,6952 2596,6880.09 z " fill-rule="evenodd" fill="rgb(255,0,0)" stroke-width="5" stroke="rgb(0,0,0)" />
	<path d="M7274,2414.07 6964,2235.07 6964,2054.73 7274,2180.6 7274,2414.07 z " fill-rule="evenodd" fill="rgb(255,0,0)" stroke-width="5" stroke="rgb(0,0,0)" />
	<path d="M3844,4738.55 4154,4917.55 4154,4952 3844,4952 3844,4738.55 z " fill-rule="evenodd" fill="rgb(255,0,0)" stroke-width="5" stroke="rgb(0,0,0)" />
	<path d="M4468,4738.55 4778,4917.55 4778,4952 4468,4952 4468,4738.55 z " fill-rule="evenodd" fill="rgb(255,0,0)" stroke-width="5" stroke="rgb(0,0,0)" />
	<path d="M100,6882.4 220.529,6952 100,6952 100,6882.4 z " fill-rule="evenodd" fill="rgb(255,0,0)" stroke-width="5" stroke="rgb(0,0,0)" />
	<path d="M724,6882.4 844.529,6952 724,6952 724,6882.4 z " fill-rule="evenodd" fill="rgb(255,0,0)" stroke-width="5" stroke="rgb(0,0,0)" />
	<path d="M1348,6882.4 1468.53,6952 1348,6952 1348,6882.4 z " fill-rule="evenodd" fill="rgb(255,0,0)" stroke-width="5" stroke="rgb(0,0,0)" />
	<path d="M1972,6882.4 2092.53,6952 1972,6952 1972,6882.4 z " fill-rule="evenodd" fill="rgb(255,0,0)" stroke-width="5" stroke="rgb(0,0,0)" />
	<path d="M2596,6882.4 2716.53,6952 2596,6952 2596,6882.4 z " fill-rule="evenodd" fill="rgb(255,0,0)" stroke-width="5" stroke="rgb(0,0,0)" />
	<path d="M7898,2771.38 7588,2592.38 7588,2308.09 7898,2433.96 7898,2771.38 z " fill-rule="evenodd" fill="rgb(255,0,0)" stroke-width="5" stroke="rgb(0,0,0)" />
	<path d="M5092,5450.86 5092,5095.86 5402,5274.86 5402,5552 5267.16,5552 5092,5450.86 z " fill-rule="evenodd" fill="rgb(255,0,0)" stroke-width="5" stroke="rgb(0,0,0)" />
	<path d="M5716,5450.86 5716,5095.86 6026,5274.86 6026,5552 5891.16,5552 5716,5450.86 z " fill-rule="evenodd" fill="rgb(255,0,0)" stroke-width="5" stroke="rgb(0,0,0)" />
	<path d="M6340,5450.86 6340,5095.86 6650,5274.86 6650,5552 6515.16,5552 6340,5450.86 z " fill-rule="evenodd" fill="rgb(255,0,0)" stroke-width="5" stroke="rgb(0,0,0)" />
	<path d="M6964,5450.86 6964,5095.86 7274,5274.86 7274,5552 7139.16,5552 6964,5450.86 z " fill-rule="evenodd" fill="rgb(255,0,0)" stroke-width="5" stroke="rgb(0,0,0)" />
	<path d="M7588,5450.86 7588,5095.86 7898,5274.86 7898,5552 7763.16,5552 7588,5450.86 z " fill-rule="evenodd" fill="rgb(255,0,0)" stroke-width="5" stroke="rgb(0,0,0)" />
	<path d="M8522,2771.38 8212,2592.38 8212,2561.46 8522,2687.33 8522,2771.38 z " fill-rule="evenodd" fill="rgb(255,0,0)" stroke-width="5" stroke="rgb(0,0,0)" />
	<path d="M8212,5450.86 8212,5095.86 8522,5274.86 8522,5552 8387.16,5552 8212,5450.86 z " fill-rule="evenodd" fill="rgb(255,0,0)" stroke-width="5" stroke="rgb(0,0,0)" />
	<path d="M5092,5453.17 5263.16,5552 5092,5552 5092,5453.17 z " fill-rule="evenodd" fill="rgb(255,0,0)" stroke-width="5" stroke="rgb(0,0,0)" />
	<path d="M5716,5453.17 5887.16,5552 5716,5552 5716,5453.17 z " fill-rule="evenodd" fill="rgb(255,0,0)" stroke-width="5" stroke="rgb(0,0,0)" />
	<path d="M6340,5453.17 6511.16,5552 6340,5552 6340,5453.17 z " fill-rule="evenodd" fill="rgb(255,0,0)" stroke-width="5" stroke="rgb(0,0,0)" />
	<path d="M6964,5453.17 7135.16,5552 6964,5552 6964,5453.17 z " fill-rule="evenodd" fill="rgb(255,0,0)" stroke-width="5" stroke="rgb(0,0,0)" />
	<path d="M7588,5453.17 7759.16,5552 7588,5552 7588,5453.17 z " fill-rule="evenodd" fill="rgb(255,0,0)" stroke-width="5" stroke="rgb(0,0,0)" />
	<path d="M8212,5453.17 8383.16,5552 8212,5552 8212,5453.17 z " fill-rule="evenodd" fill="rgb(255,0,0)" stroke-width="5" stroke="rgb(0,0,0)" />
	<path d="M722,2949.69 718,2952 412,2952 412,2773.69 722,2594.69 722,2949.69 z " fill-rule="evenodd" fill="rgb(255,0,0)" stroke-width="5" stroke="rgb(0,0,0)" />
	<path d="M722,3307 412,3486 412,3152 722,3152 722,3307 z " fill-rule="evenodd" fill="rgb(255,0,0)" stroke-width="5" stroke="rgb(0,0,0)" />
	<path d="M1346,2949.69 1342,2952 1036,2952 1036,2773.69 1346,2594.69 1346,2949.69 z " fill-rule="evenodd" fill="rgb(255,0,0)" stroke-width="5" stroke="rgb(0,0,0)" />
	<path d="M1346,3307 1036,3486 1036,3152 1346,3152 1346,3307 z " fill-rule="evenodd" fill="rgb(255,0,0)" stroke-width="5" stroke="rgb(0,0,0)" />
	<path d="M1970,2949.69 1966,2952 1660,2952 1660,2773.69 1970,2594.69 1970,2949.69 z " fill-rule="evenodd" fill="rgb(255,0,0)" stroke-width="5" stroke="rgb(0,0,0)" />
	<path d="M1970,3307 1660,3486 1660,3152 1970,3152 1970,3307 z " fill-rule="evenodd" fill="rgb(255,0,0)" stroke-width="5" stroke="rgb(0,0,0)" />
	<path d="M722,1877.76 412,2056.76 412,1701.76 584.772,1602 700,1602 700,1535.47 722,1522.76 722,1877.76 z " fill-rule="evenodd" fill="rgb(255,0,0)" stroke-width="5" stroke="rgb(0,0,0)" />
	<path d="M1970,1877.76 1660,2056.76 1660,1701.76 1832.77,1602 1970,1602 1970,1877.76 z " fill-rule="evenodd" fill="rgb(255,0,0)" stroke-width="5" stroke="rgb(0,0,0)" />
	<path d="M722,1520.45 700,1533.16 700,1502 722,1502 722,1520.45 z " fill-rule="evenodd" fill="rgb(255,0,0)" stroke-width="5" stroke="rgb(0,0,0)" />
	<path d="M412,1699.45 412,1602 580.773,1602 412,1699.45 z " fill-rule="evenodd" fill="rgb(255,0,0)" stroke-width="5" stroke="rgb(0,0,0)" />
	<path d="M1346,1520.45 1036,1699.45 1036,1502 1346,1502 1346,1520.45 z " fill-rule="evenodd" fill="rgb(255,0,0)" stroke-width="5" stroke="rgb(0,0,0)" />
	<path d="M1660,1699.45 1660,1602 1828.77,1602 1660,1699.45 z " fill-rule="evenodd" fill="rgb(255,0,0)" stroke-width="5" stroke="rgb(0,0,0)" />
	<path d="M3218,1520.45 3168.47,1549.05 3218,1426.92 3218,1520.45 z " fill-rule="evenodd" fill="rgb(255,0,0)" stroke-width="5" stroke="rgb(0,0,0)" />
	<path d="M2908,1699.45 2908,1344.45 3216.08,1166.56 3080,1502 2950,1502 2950,1602 3076.77,1602 2908,1699.45 z " fill-rule="evenodd" fill="rgb(255,0,0)" stroke-width="5" stroke="rgb(0,0,0)" />
	<path d="M3218,1877.76 2908,2056.76 2908,1701.76 3080.77,1602 3147,1602 3167.25,1552.07 3218,1522.76 3218,1877.76 z " fill-rule="evenodd" fill="rgb(255,0,0)" stroke-width="5" stroke="rgb(0,0,0)" />
	<path d="M3218,2949.69 3214,2952 2908,2952 2908,2773.69 3218,2594.69 3218,2949.69 z " fill-rule="evenodd" fill="rgb(255,0,0)" stroke-width="5" stroke="rgb(0,0,0)" />
	<path d="M3218,1161.83 3217.31,1163.54 2908,1342.14 2908,987.143 3218,808.143 3218,1161.83 z " fill-rule="evenodd" fill="rgb(255,0,0)" stroke-width="5" stroke="rgb(0,0,0)" />
	<path d="M3842,2949.69 3838,2952 3532,2952 3532,2773.69 3842,2594.69 3842,2949.69 z " fill-rule="evenodd" fill="rgb(255,0,0)" stroke-width="5" stroke="rgb(0,0,0)" />
	<path d="M3842,3307 3700,3388.99 3700,3052 3842,3052 3842,3307 z " fill-rule="evenodd" fill="rgb(255,0,0)" stroke-width="5" stroke="rgb(0,0,0)" />
	<path d="M3218,805.834 2908,984.834 2908,629.834 3134.24,499.201 3218,533.175 3218,805.834 z " fill-rule="evenodd" fill="rgb(255,0,0)" stroke-width="5" stroke="rgb(0,0,0)" />
	<path d="M3842,805.834 3532,984.834 3532,661.218 3842,787.089 3842,805.834 z " fill-rule="evenodd" fill="rgb(255,0,0)" stroke-width="5" stroke="rgb(0,0,0)" />
	<path d="M4156,984.834 4156,914.584 4227.43,943.587 4156,984.834 z " fill-rule="evenodd" fill="rgb(255,0,0)" stroke-width="5" stroke="rgb(0,0,0)" />
	<path d="M4466,1163.14 4156,1342.14 4156,987.143 4229.78,944.541 4466,1040.45 4466,1163.14 z " fill-rule="evenodd" fill="rgb(255,0,0)" stroke-width="5" stroke="rgb(0,0,0)" />
	<path d="M4466,2949.69 4156,3128.69 4156,3052 4200,3052 4200,2952 4156,2952 4156,2773.69 4466,2594.69 4466,2949.69 z " fill-rule="evenodd" fill="rgb(255,0,0)" stroke-width="5" stroke="rgb(0,0,0)" />
	<path d="M3842,3664.31 3700,3746.3 3700,3391.3 3842,3309.31 3842,3664.31 z " fill-rule="evenodd" fill="rgb(255,0,0)" stroke-width="5" stroke="rgb(0,0,0)" />
	<path d="M2594,448.524 2284,627.524 2284,272.524 2404.22,203.109 2594,280.084 2594,448.524 z " fill-rule="evenodd" fill="rgb(255,0,0)" stroke-width="5" stroke="rgb(0,0,0)" />
	<path d="M2908,627.524 2908,407.441 3131.89,498.248 2908,627.524 z " fill-rule="evenodd" fill="rgb(255,0,0)" stroke-width="5" stroke="rgb(0,0,0)" />
	<path d="M4780,1342.14 4780,1167.95 4957.13,1239.87 4780,1342.14 z " fill-rule="evenodd" fill="rgb(255,0,0)" stroke-width="5" stroke="rgb(0,0,0)" />
	<path d="M5090,1520.45 4780,1699.45 4780,1344.45 4959.47,1240.82 5090,1293.82 5090,1520.45 z " fill-rule="evenodd" fill="rgb(255,0,0)" stroke-width="5" stroke="rgb(0,0,0)" />
	<path d="M5090,2949.69 5050,2972.79 5050,2952 4900,2952 4900,3052 4912.82,3052 4780,3128.69 4780,2773.69 5090,2594.69 5090,2949.69 z " fill-rule="evenodd" fill="rgb(255,0,0)" stroke-width="5" stroke="rgb(0,0,0)" />
	<path d="M5090,3307 5050,3330.1 5050,2975.1 5090,2952 5090,3307 z " fill-rule="evenodd" fill="rgb(255,0,0)" stroke-width="5" stroke="rgb(0,0,0)" />
	<path d="M4780,3486 4780,3131 4916.82,3052 4950,3052 4950,3387.84 4780,3486 z " fill-rule="evenodd" fill="rgb(255,0,0)" stroke-width="5" stroke="rgb(0,0,0)" />
	<path d="M5090,3664.31 5050,3687.41 5050,3332.41 5090,3309.31 5090,3664.31 z " fill-rule="evenodd" fill="rgb(255,0,0)" stroke-width="5" stroke="rgb(0,0,0)" />
	<path d="M4780,3843.31 4780,3488.31 4950,3390.15 4950,3745.15 4780,3843.31 z " fill-rule="evenodd" fill="rgb(255,0,0)" stroke-width="5" stroke="rgb(0,0,0)" />
	<path d="M3842,4021.62 3700,4103.61 3700,3748.61 3842,3666.62 3842,4021.62 z " fill-rule="evenodd" fill="rgb(255,0,0)" stroke-width="5" stroke="rgb(0,0,0)" />
	<path d="M5090,4021.62 5050,4044.72 5050,3689.72 5090,3666.62 5090,4021.62 z " fill-rule="evenodd" fill="rgb(255,0,0)" stroke-width="5" stroke="rgb(0,0,0)" />
	<path d="M4780,4200.62 4780,3845.62 4950,3747.46 4950,4102.46 4780,4200.62 z " fill-rule="evenodd" fill="rgb(255,0,0)" stroke-width="5" stroke="rgb(0,0,0)" />
	<path d="M2908,6344.48 2908,6052 3100,6052 3100,6233.61 2908,6344.48 z " fill-rule="evenodd" fill="rgb(255,0,0)" stroke-width="5" stroke="rgb(0,0,0)" />
	<path d="M2284,270.215 2284,154.35 2401.87,202.156 2284,270.215 z " fill-rule="evenodd" fill="rgb(255,0,0)" stroke-width="5" stroke="rgb(0,0,0)" />
	<path d="M5404,1699.45 5404,1421.31 5686.82,1536.15 5404,1699.45 z " fill-rule="evenodd" fill="rgb(255,0,0)" stroke-width="5" stroke="rgb(0,0,0)" />
	<path d="M5714,1877.76 5404,2056.76 5404,1701.76 5689.17,1537.1 5714,1547.18 5714,1877.76 z " fill-rule="evenodd" fill="rgb(255,0,0)" stroke-width="5" stroke="rgb(0,0,0)" />
	<path d="M3842,4378.93 3700,4460.92 3700,4105.92 3842,4023.93 3842,4378.93 z " fill-rule="evenodd" fill="rgb(255,0,0)" stroke-width="5" stroke="rgb(0,0,0)" />
	<path d="M5090,4378.93 5050,4402.03 5050,4047.03 5090,4023.93 5090,4378.93 z " fill-rule="evenodd" fill="rgb(255,0,0)" stroke-width="5" stroke="rgb(0,0,0)" />
	<path d="M4780,4557.93 4780,4202.93 4950,4104.77 4950,4459.77 4780,4557.93 z " fill-rule="evenodd" fill="rgb(255,0,0)" stroke-width="5" stroke="rgb(0,0,0)" />
	<path d="M2908,6701.79 2908,6346.79 3100,6235.92 3100,6590.92 2908,6701.79 z " fill-rule="evenodd" fill="rgb(255,0,0)" stroke-width="5" stroke="rgb(0,0,0)" />
	<path d="M6028,1699.45 6028,1674.68 6053.19,1684.91 6028,1699.45 z " fill-rule="evenodd" fill="rgb(255,0,0)" stroke-width="5" stroke="rgb(0,0,0)" />
	<path d="M6338,1877.76 6028,2056.76 6028,1701.76 6055.54,1685.86 6338,1800.55 6338,1877.76 z " fill-rule="evenodd" fill="rgb(255,0,0)" stroke-width="5" stroke="rgb(0,0,0)" />
	<path d="M3842,4736.24 3700,4818.23 3700,4463.23 3842,4381.24 3842,4736.24 z " fill-rule="evenodd" fill="rgb(255,0,0)" stroke-width="5" stroke="rgb(0,0,0)" />
	<path d="M5090,4736.24 5050,4759.33 5050,4404.33 5090,4381.24 5090,4736.24 z " fill-rule="evenodd" fill="rgb(255,0,0)" stroke-width="5" stroke="rgb(0,0,0)" />
	<path d="M4780,4915.24 4780,4560.24 4950,4462.08 4950,4817.08 4780,4915.24 z " fill-rule="evenodd" fill="rgb(255,0,0)" stroke-width="5" stroke="rgb(0,0,0)" />
	<path d="M722,6880.09 597.471,6952 412,6952 412,6704.09 722,6525.09 722,6880.09 z " fill-rule="evenodd" fill="rgb(255,0,0)" stroke-width="5" stroke="rgb(0,0,0)" />
	<path d="M1346,6880.09 1221.47,6952 1036,6952 1036,6704.09 1346,6525.09 1346,6880.09 z " fill-rule="evenodd" fill="rgb(255,0,0)" stroke-width="5" stroke="rgb(0,0,0)" />
	<path d="M1970,6880.09 1845.47,6952 1660,6952 1660,6704.09 1970,6525.09 1970,6880.09 z " fill-rule="evenodd" fill="rgb(255,0,0)" stroke-width="5" stroke="rgb(0,0,0)" />
	<path d="M2594,6880.09 2469.47,6952 2284,6952 2284,6704.09 2594,6525.09 2594,6880.09 z " fill-rule="evenodd" fill="rgb(255,0,0)" stroke-width="5" stroke="rgb(0,0,0)" />
	<path d="M2908,6704.09 3100,6593.23 3100,6852 2908,6852 2908,6704.09 z " fill-rule="evenodd" fill="rgb(255,0,0)" stroke-width="5" stroke="rgb(0,0,0)" />
	<path d="M6652,2056.76 6652,1928.05 6782.88,1981.19 6652,2056.76 z " fill-rule="evenodd" fill="rgb(255,0,0)" stroke-width="5" stroke="rgb(0,0,0)" />
	<path d="M6962,2235.07 6652,2414.07 6652,2059.07 6785.23,1982.14 6962,2053.92 6962,2235.07 z " fill-rule="evenodd" fill="rgb(255,0,0)" stroke-width="5" stroke="rgb(0,0,0)" />
	<path d="M3842,4952 3700,4952 3700,4820.54 3842,4738.55 3842,4952 z " fill-rule="evenodd" fill="rgb(255,0,0)" stroke-width="5" stroke="rgb(0,0,0)" />
	<path d="M4466,4952 4156,4952 4156,4917.55 4466,4738.55 4466,4952 z " fill-rule="evenodd" fill="rgb(255,0,0)" stroke-width="5" stroke="rgb(0,0,0)" />
	<path d="M5090,5093.55 5050,5116.64 5050,4761.64 5090,4738.55 5090,5093.55 z " fill-rule="evenodd" fill="rgb(255,0,0)" stroke-width="5" stroke="rgb(0,0,0)" />
	<path d="M4780,4917.55 4950,4819.39 4950,4952 4780,4952 4780,4917.55 z " fill-rule="evenodd" fill="rgb(255,0,0)" stroke-width="5" stroke="rgb(0,0,0)" />
	<path d="M722,6952 601.471,6952 722,6882.4 722,6952 z " fill-rule="evenodd" fill="rgb(255,0,0)" stroke-width="5" stroke="rgb(0,0,0)" />
	<path d="M1346,6952 1225.47,6952 1346,6882.4 1346,6952 z " fill-rule="evenodd" fill="rgb(255,0,0)" stroke-width="5" stroke="rgb(0,0,0)" />
	<path d="M1970,6952 1849.47,6952 1970,6882.4 1970,6952 z " fill-rule="evenodd" fill="rgb(255,0,0)" stroke-width="5" stroke="rgb(0,0,0)" />
	<path d="M2594,6952 2473.47,6952 2594,6882.4 2594,6952 z " fill-rule="evenodd" fill="rgb(255,0,0)" stroke-width="5" stroke="rgb(0,0,0)" />
	<path d="M7276,2414.07 7276,2181.41 7512.58,2277.47 7276,2414.07 z " fill-rule="evenodd" fill="rgb(255,0,0)" stroke-width="5" stroke="rgb(0,0,0)" />
	<path d="M7586,2592.38 7276,2771.38 7276,2416.38 7514.92,2278.42 7586,2307.28 7586,2592.38 z " fill-rule="evenodd" fill="rgb(255,0,0)" stroke-width="5" stroke="rgb(0,0,0)" />
	<path d="M5090,5450.86 5050,5473.95 5050,5118.95 5090,5095.86 5090,5450.86 z " fill-rule="evenodd" fill="rgb(255,0,0)" stroke-width="5" stroke="rgb(0,0,0)" />
	<path d="M5714,5450.86 5538.84,5552 5404,5552 5404,5274.86 5714,5095.86 5714,5450.86 z " fill-rule="evenodd" fill="rgb(255,0,0)" stroke-width="5" stroke="rgb(0,0,0)" />
	<path d="M6338,5450.86 6162.84,5552 6028,5552 6028,5274.86 6338,5095.86 6338,5450.86 z " fill-rule="evenodd" fill="rgb(255,0,0)" stroke-width="5" stroke="rgb(0,0,0)" />
	<path d="M6962,5450.86 6786.84,5552 6652,5552 6652,5274.86 6962,5095.86 6962,5450.86 z " fill-rule="evenodd" fill="rgb(255,0,0)" stroke-width="5" stroke="rgb(0,0,0)" />
	<path d="M7586,5450.86 7410.84,5552 7276,5552 7276,5274.86 7586,5095.86 7586,5450.86 z " fill-rule="evenodd" fill="rgb(255,0,0)" stroke-width="5" stroke="rgb(0,0,0)" />
	<path d="M8210,2592.38 7900,2771.38 7900,2434.78 8210,2560.65 8210,2592.38 z " fill-rule="evenodd" fill="rgb(255,0,0)" stroke-width="5" stroke="rgb(0,0,0)" />
	<path d="M8210,5450.86 8034.84,5552 7900,5552 7900,5274.86 8210,5095.86 8210,5450.86 z " fill-rule="evenodd" fill="rgb(255,0,0)" stroke-width="5" stroke="rgb(0,0,0)" />
	<path d="M5090,5552 5050,5552 5050,5476.26 5090,5453.17 5090,5552 z " fill-rule="evenodd" fill="rgb(255,0,0)" stroke-width="5" stroke="rgb(0,0,0)" />
	<path d="M5714,5552 5542.84,5552 5714,5453.17 5714,5552 z " fill-rule="evenodd" fill="rgb(255,0,0)" stroke-width="5" stroke="rgb(0,0,0)" />
	<path d="M6338,5552 6166.84,5552 6338,5453.17 6338,5552 z " fill-rule="evenodd" fill="rgb(255,0,0)" stroke-width="5" stroke="rgb(0,0,0)" />
	<path d="M6962,5552 6790.84,5552 6962,5453.17 6962,5552 z " fill-rule="evenodd" fill="rgb(255,0,0)" stroke-width="5" stroke="rgb(0,0,0)" />
	<path d="M7586,5552 7414.84,5552 7586,5453.17 7586,5552 z " fill-rule="evenodd" fill="rgb(255,0,0)" stroke-width="5" stroke="rgb(0,0,0)" />
	<path d="M8210,5552 8038.84,5552 8210,5453.17 8210,5552 z " fill-rule="evenodd" fill="rgb(255,0,0)" stroke-width="5" stroke="rgb(0,0,0)" />
	<path d="M8524,2771.38 8524,2688.14 8600,2719 8600,2727.5 8524,2771.38 z " fill-rule="evenodd" fill="rgb(255,0,0)" stroke-width="5" stroke="rgb(0,0,0)" />
	<path d="M8524,3128.69 8524,2773.69 8600,2729.81 8600,3084.81 8524,3128.69 z " fill-rule="evenodd" fill="rgb(255,0,0)" stroke-width="5" stroke="rgb(0,0,0)" />
	<path d="M8524,3486 8524,3131 8600,3087.12 8600,3442.12 8524,3486 z " fill-rule="evenodd" fill="rgb(255,0,0)" stroke-width="5" stroke="rgb(0,0,0)" />
	<path d="M8524,3843.31 8524,3488.31 8600,3444.43 8600,3799.43 8524,3843.31 z " fill-rule="evenodd" fill="rgb(255,0,0)" stroke-width="5" stroke="rgb(0,0,0)" />
	<path d="M8524,4200.62 8524,3845.62 8600,3801.74 8600,4156.74 8524,4200.62 z " fill-rule="evenodd" fill="rgb(255,0,0)" stroke-width="5" stroke="rgb(0,0,0)" />
	<path d="M8524,4557.93 8524,4202.93 8600,4159.04 8600,4514.04 8524,4557.93 z " fill-rule="evenodd" fill="rgb(255,0,0)" stroke-width="5" stroke="rgb(0,0,0)" />
	<path d="M8524,4915.24 8524,4560.24 8600,4516.35 8600,4871.35 8524,4915.24 z " fill-rule="evenodd" fill="rgb(255,0,0)" stroke-width="5" stroke="rgb(0,0,0)" />
	<path d="M8524,5272.55 8524,4917.55 8600,4873.66 8600,5228.66 8524,5272.55 z " fill-rule="evenodd" fill="rgb(255,0,0)" stroke-width="5" stroke="rgb(0,0,0)" />
	<path d="M8524,5274.86 8600,5230.97 8600,5552 8524,5552 8524,5274.86 z " fill-rule="evenodd" fill="rgb(255,0,0)" stroke-width="5" stroke="rgb(0,0,0)" />
	<polyline points="95,2957 95,3312 95,2957 450,2957 95,2957 " fill="none" stroke-width="100" stroke="rgb(0,0,0)" />
	<circle cx="95" cy="2957" r="-5.91667" fill="rgb(0,0,0)" />
	<circle cx="95" cy="3312" r="-5.91667" fill="rgb(0,0,0)" />
	<circle cx="95" cy="2957" r="-5.91667" fill="rgb(0,0,0)" />
	<circle cx="450" cy="2957" r="-5.91667" fill="rgb(0,0,0)" />
	<circle cx="95" cy="2957" r="-5.91667" fill="rgb(0,0,0)" />
	<polyline points="95,3347.5 95,2957 -295.5,2957 " fill="none" stroke-width="0.5" stroke="rgb(128,0,128)" />
</svg>
