<?xml version="1.0" standalone="no" ?>
<!DOCTYPE svg PUBLIC "-//W3C//DTD SVG 1.1//EN" "http://www.w3.org/Graphics/SVG/1.1/DTD/svg11.dtd">
<svg width="1435px" height="14081px" xmlns="http://www.w3.org/2000/svg" version="1.1" >
	<path d="M100,13981 455,13981 634,13671 279,13671 z " fill-rule="evenodd" fill="rgb(255,255,255)" stroke-width="10" stroke="rgb(0,0,0)" />
	<path d="M100,13640 455,13640 634,13330 279,13330 z " fill-rule="evenodd" fill="rgb(255,255,255)" stroke-width="10" stroke="rgb(0,0,0)" />
	<path d="M100,13299 455,13299 634,12989 279,12989 z " fill-rule="evenodd" fill="rgb(255,255,255)" stroke-width="10" stroke="rgb(0,0,0)" />
	<path d="M100,12958 455,12958 634,12648 279,12648 z " fill-rule="evenodd" fill="rgb(255,255,255)" stroke-width="10" stroke="rgb(0,0,0)" />
	<path d="M100,12617 455,12617 634,12307 279,12307 z " fill-rule="evenodd" fill="rgb(255,255,255)" stroke-width="10" stroke="rgb(0,0,0)" />
	<path d="M100,12276 455,12276 634,11966 279,11966 z " fill-rule="evenodd" fill="rgb(255,255,255)" stroke-width="10" stroke="rgb(0,0,0)" />
	<path d="M100,11935 455,11935 634,11625 279,11625 z " fill-rule="evenodd" fill="rgb(255,255,255)" stroke-width="10" stroke="rgb(0,0,0)" />
	<path d="M100,11594 455,11594 634,11284 279,11284 z " fill-rule="evenodd" fill="rgb(255,255,255)" stroke-width="10" stroke="rgb(0,0,0)" />
	<path d="M100,11253 455,11253 634,10943 279,10943 z " fill-rule="evenodd" fill="rgb(255,255,255)" stroke-width="10" stroke="rgb(0,0,0)" />
	<path d="M100,10912 455,10912 634,10602 279,10602 z " fill-rule="evenodd" fill="rgb(255,255,255)" stroke-width="10" stroke="rgb(0,0,0)" />
	<path d="M100,10571 455,10571 634,10261 279,10261 z " fill-rule="evenodd" fill="rgb(255,255,255)" stroke-width="10" stroke="rgb(0,0,0)" />
	<path d="M100,10230 455,10230 634,9920 279,9920 z " fill-rule="evenodd" fill="rgb(255,255,255)" stroke-width="10" stroke="rgb(0,0,0)" />
	<path d="M100,9889 455,9889 634,9579 279,9579 z " fill-rule="evenodd" fill="rgb(255,255,255)" stroke-width="10" stroke="rgb(0,0,0)" />
	<path d="M100,9548 455,9548 634,9238 279,9238 z " fill-rule="evenodd" fill="rgb(255,255,255)" stroke-width="10" stroke="rgb(0,0,0)" />
	<path d="M100,9207 455,9207 634,8897 279,8897 z " fill-rule="evenodd" fill="rgb(255,255,255)" stroke-width="10" stroke="rgb(0,0,0)" />
	<path d="M100,8866 455,8866 634,8556 279,8556 z " fill-rule="evenodd" fill="rgb(255,255,255)" stroke-width="10" stroke="rgb(0,0,0)" />
	<path d="M100,8525 455,8525 634,8215 279,8215 z " fill-rule="evenodd" fill="rgb(255,255,255)" stroke-width="10" stroke="rgb(0,0,0)" />
	<path d="M100,8184 455,8184 634,7874 279,7874 z " fill-rule="evenodd" fill="rgb(255,255,255)" stroke-width="10" stroke="rgb(0,0,0)" />
	<path d="M100,7843 455,7843 634,7533 279,7533 z " fill-rule="evenodd" fill="rgb(255,255,255)" stroke-width="10" stroke="rgb(0,0,0)" />
	<path d="M100,7502 455,7502 634,7192 279,7192 z " fill-rule="evenodd" fill="rgb(255,255,255)" stroke-width="10" stroke="rgb(0,0,0)" />
	<path d="M100,7161 455,7161 634,6851 279,6851 z " fill-rule="evenodd" fill="rgb(255,255,255)" stroke-width="10" stroke="rgb(0,0,0)" />
	<path d="M100,6820 455,6820 634,6510 279,6510 z " fill-rule="evenodd" fill="rgb(255,255,255)" stroke-width="10" stroke="rgb(0,0,0)" />
	<path d="M100,6479 455,6479 634,6169 279,6169 z " fill-rule="evenodd" fill="rgb(255,255,255)" stroke-width="10" stroke="rgb(0,0,0)" />
	<path d="M100,6138 455,6138 634,5828 279,5828 z " fill-rule="evenodd" fill="rgb(255,255,255)" stroke-width="10" stroke="rgb(0,0,0)" />
	<path d="M100,5797 455,5797 634,5487 279,5487 z " fill-rule="evenodd" fill="rgb(255,255,255)" stroke-width="10" stroke="rgb(0,0,0)" />
	<path d="M100,5456 455,5456 634,5146 279,5146 z " fill-rule="evenodd" fill="rgb(255,255,255)" stroke-width="10" stroke="rgb(0,0,0)" />
	<path d="M100,5115 455,5115 634,4805 279,4805 z " fill-rule="evenodd" fill="rgb(255,255,255)" stroke-width="10" stroke="rgb(0,0,0)" />
	<path d="M100,4774 455,4774 634,4464 279,4464 z " fill-rule="evenodd" fill="rgb(255,255,255)" stroke-width="10" stroke="rgb(0,0,0)" />
	<path d="M100,4433 455,4433 634,4123 279,4123 z " fill-rule="evenodd" fill="rgb(255,255,255)" stroke-width="10" stroke="rgb(0,0,0)" />
	<path d="M100,4092 455,4092 634,3782 279,3782 z " fill-rule="evenodd" fill="rgb(255,255,255)" stroke-width="10" stroke="rgb(0,0,0)" />
	<path d="M100,3751 455,3751 634,3441 279,3441 z " fill-rule="evenodd" fill="rgb(255,255,255)" stroke-width="10" stroke="rgb(0,0,0)" />
	<path d="M100,3410 455,3410 634,3100 279,3100 z " fill-rule="evenodd" fill="rgb(255,255,255)" stroke-width="10" stroke="rgb(0,0,0)" />
	<path d="M100,3069 455,3069 634,2759 279,2759 z " fill-rule="evenodd" fill="rgb(255,255,255)" stroke-width="10" stroke="rgb(0,0,0)" />
	<path d="M100,2728 455,2728 634,2418 279,2418 z " fill-rule="evenodd" fill="rgb(255,255,255)" stroke-width="10" stroke="rgb(0,0,0)" />
	<path d="M100,2387 455,2387 634,2077 279,2077 z " fill-rule="evenodd" fill="rgb(255,255,255)" stroke-width="10" stroke="rgb(0,0,0)" />
	<path d="M100,2046 455,2046 634,1736 279,1736 z " fill-rule="evenodd" fill="rgb(255,255,255)" stroke-width="10" stroke="rgb(0,0,0)" />
	<path d="M100,1705 455,1705 634,1395 279,1395 z " fill-rule="evenodd" fill="rgb(255,255,255)" stroke-width="10" stroke="rgb(0,0,0)" />
	<path d="M100,1364 455,1364 634,1054 279,1054 z " fill-rule="evenodd" fill="rgb(255,255,255)" stroke-width="10" stroke="rgb(0,0,0)" />
	<path d="M100,1023 455,1023 634,713 279,713 z " fill-rule="evenodd" fill="rgb(255,255,255)" stroke-width="10" stroke="rgb(0,0,0)" />
	<path d="M100,682 455,682 634,372 279,372 z " fill-rule="evenodd" fill="rgb(255,255,255)" stroke-width="10" stroke="rgb(0,0,0)" />
	<path d="M100,341 455,341 634,31 279,31 z " fill-rule="evenodd" fill="rgb(255,255,255)" stroke-width="10" stroke="rgb(0,0,0)" />
	<path d="M866.4,13981 1221.4,13981 1042.4,13671 687.4,13671 z " fill-rule="evenodd" fill="rgb(255,255,255)" stroke-width="10" stroke="rgb(0,0,0)" />
	<path d="M866.4,13640 1221.4,13640 1042.4,13330 687.4,13330 z " fill-rule="evenodd" fill="rgb(255,255,255)" stroke-width="10" stroke="rgb(0,0,0)" />
	<path d="M866.4,13299 1221.4,13299 1042.4,12989 687.4,12989 z " fill-rule="evenodd" fill="rgb(255,255,255)" stroke-width="10" stroke="rgb(0,0,0)" />
	<path d="M866.4,12958 1221.4,12958 1042.4,12648 687.4,12648 z " fill-rule="evenodd" fill="rgb(255,255,255)" stroke-width="10" stroke="rgb(0,0,0)" />
	<path d="M866.4,12617 1221.4,12617 1042.4,12307 687.4,12307 z " fill-rule="evenodd" fill="rgb(255,255,255)" stroke-width="10" stroke="rgb(0,0,0)" />
	<path d="M866.4,12276 1221.4,12276 1042.4,11966 687.4,11966 z " fill-rule="evenodd" fill="rgb(255,255,255)" stroke-width="10" stroke="rgb(0,0,0)" />
	<path d="M866.4,11935 1221.4,11935 1042.4,11625 687.4,11625 z " fill-rule="evenodd" fill="rgb(255,255,255)" stroke-width="10" stroke="rgb(0,0,0)" />
	<path d="M866.4,11594 1221.4,11594 1042.4,11284 687.4,11284 z " fill-rule="evenodd" fill="rgb(255,255,255)" stroke-width="10" stroke="rgb(0,0,0)" />
	<path d="M866.4,11253 1221.4,11253 1042.4,10943 687.4,10943 z " fill-rule="evenodd" fill="rgb(255,255,255)" stroke-width="10" stroke="rgb(0,0,0)" />
	<path d="M866.4,10912 1221.4,10912 1042.4,10602 687.4,10602 z " fill-rule="evenodd" fill="rgb(255,255,255)" stroke-width="10" stroke="rgb(0,0,0)" />
	<path d="M866.4,10571 1221.4,10571 1042.4,10261 687.4,10261 z " fill-rule="evenodd" fill="rgb(255,255,255)" stroke-width="10" stroke="rgb(0,0,0)" />
	<path d="M866.4,10230 1221.4,10230 1042.4,9920 687.4,9920 z " fill-rule="evenodd" fill="rgb(255,255,255)" stroke-width="10" stroke="rgb(0,0,0)" />
	<path d="M866.4,9889 1221.4,9889 1042.4,9579 687.4,9579 z " fill-rule="evenodd" fill="rgb(255,255,255)" stroke-width="10" stroke="rgb(0,0,0)" />
	<path d="M866.4,9548 1221.4,9548 1042.4,9238 687.4,9238 z " fill-rule="evenodd" fill="rgb(255,255,255)" stroke-width="10" stroke="rgb(0,0,0)" />
	<path d="M866.4,9207 1221.4,9207 1042.4,8897 687.4,8897 z " fill-rule="evenodd" fill="rgb(255,255,255)" stroke-width="10" stroke="rgb(0,0,0)" />
	<path d="M866.4,8866 1221.4,8866 1042.4,8556 687.4,8556 z " fill-rule="evenodd" fill="rgb(255,255,255)" stroke-width="10" stroke="rgb(0,0,0)" />
	<path d="M866.4,8525 1221.4,8525 1042.4,8215 687.4,8215 z " fill-rule="evenodd" fill="rgb(255,255,255)" stroke-width="10" stroke="rgb(0,0,0)" />
	<path d="M866.4,8184 1221.4,8184 1042.4,7874 687.4,7874 z " fill-rule="evenodd" fill="rgb(255,255,255)" stroke-width="10" stroke="rgb(0,0,0)" />
	<path d="M866.4,7843 1221.4,7843 1042.4,7533 687.4,7533 z " fill-rule="evenodd" fill="rgb(255,255,255)" stroke-width="10" stroke="rgb(0,0,0)" />
	<path d="M866.4,7502 1221.4,7502 1042.4,7192 687.4,7192 z " fill-rule="evenodd" fill="rgb(255,255,255)" stroke-width="10" stroke="rgb(0,0,0)" />
	<path d="M866.4,7161 1221.4,7161 1042.4,6851 687.4,6851 z " fill-rule="evenodd" fill="rgb(255,255,255)" stroke-width="10" stroke="rgb(0,0,0)" />
	<path d="M866.4,6820 1221.4,6820 1042.4,6510 687.4,6510 z " fill-rule="evenodd" fill="rgb(255,255,255)" stroke-width="10" stroke="rgb(0,0,0)" />
	<path d="M866.4,6479 1221.4,6479 1042.4,6169 687.4,6169 z " fill-rule="evenodd" fill="rgb(255,255,255)" stroke-width="10" stroke="rgb(0,0,0)" />
	<path d="M866.4,6138 1221.4,6138 1042.4,5828 687.4,5828 z " fill-rule="evenodd" fill="rgb(255,255,255)" stroke-width="10" stroke="rgb(0,0,0)" />
	<path d="M866.4,5797 1221.4,5797 1042.4,5487 687.4,5487 z " fill-rule="evenodd" fill="rgb(255,255,255)" stroke-width="10" stroke="rgb(0,0,0)" />
	<path d="M866.4,5456 1221.4,5456 1042.4,5146 687.4,5146 z " fill-rule="evenodd" fill="rgb(255,255,255)" stroke-width="10" stroke="rgb(0,0,0)" />
	<path d="M866.4,5115 1221.4,5115 1042.4,4805 687.4,4805 z " fill-rule="evenodd" fill="rgb(255,255,255)" stroke-width="10" stroke="rgb(0,0,0)" />
	<path d="M866.4,4774 1221.4,4774 1042.4,4464 687.4,4464 z " fill-rule="evenodd" fill="rgb(255,255,255)" stroke-width="10" stroke="rgb(0,0,0)" />
	<path d="M866.4,4433 1221.4,4433 1042.4,4123 687.4,4123 z " fill-rule="evenodd" fill="rgb(255,255,255)" stroke-width="10" stroke="rgb(0,0,0)" />
	<path d="M866.4,4092 1221.4,4092 1042.4,3782 687.4,3782 z " fill-rule="evenodd" fill="rgb(255,255,255)" stroke-width="10" stroke="rgb(0,0,0)" />
	<path d="M866.4,3751 1221.4,3751 1042.4,3441 687.4,3441 z " fill-rule="evenodd" fill="rgb(255,255,255)" stroke-width="10" stroke="rgb(0,0,0)" />
	<path d="M866.4,3410 1221.4,3410 1042.4,3100 687.4,3100 z " fill-rule="evenodd" fill="rgb(255,255,255)" stroke-width="10" stroke="rgb(0,0,0)" />
	<path d="M866.4,3069 1221.4,3069 1042.4,2759 687.4,2759 z " fill-rule="evenodd" fill="rgb(255,255,255)" stroke-width="10" stroke="rgb(0,0,0)" />
	<path d="M866.4,2728 1221.4,2728 1042.4,2418 687.4,2418 z " fill-rule="evenodd" fill="rgb(255,255,255)" stroke-width="10" stroke="rgb(0,0,0)" />
	<path d="M866.4,2387 1221.4,2387 1042.4,2077 687.4,2077 z " fill-rule="evenodd" fill="rgb(255,255,255)" stroke-width="10" stroke="rgb(0,0,0)" />
	<path d="M866.4,2046 1221.4,2046 1042.4,1736 687.4,1736 z " fill-rule="evenodd" fill="rgb(255,255,255)" stroke-width="10" stroke="rgb(0,0,0)" />
	<path d="M866.4,1705 1221.4,1705 1042.4,1395 687.4,1395 z " fill-rule="evenodd" fill="rgb(255,255,255)" stroke-width="10" stroke="rgb(0,0,0)" />
	<path d="M866.4,1364 1221.4,1364 1042.4,1054 687.4,1054 z " fill-rule="evenodd" fill="rgb(255,255,255)" stroke-width="10" stroke="rgb(0,0,0)" />
	<path d="M866.4,1023 1221.4,1023 1042.4,713 687.4,713 z " fill-rule="evenodd" fill="rgb(255,255,255)" stroke-width="10" stroke="rgb(0,0,0)" />
	<path d="M866.4,682 1221.4,682 1042.4,372 687.4,372 z " fill-rule="evenodd" fill="rgb(255,255,255)" stroke-width="10" stroke="rgb(0,0,0)" />
	<path d="M866.4,341 1221.4,341 1042.4,31 687.4,31 z " fill-rule="evenodd" fill="rgb(255,255,255)" stroke-width="10" stroke="rgb(0,0,0)" />
	<path d="M503.596,717 326.905,1023 326.905,717 503.596,717 z " fill-rule="evenodd" fill="rgb(255,0,0)" stroke-width="10" stroke="rgb(0,0,0)" />
	<path d="M257.309,68.5646 257.309,341 100,341 257.309,68.5646 z " fill-rule="evenodd" fill="rgb(255,0,0)" stroke-width="10" stroke="rgb(0,0,0)" />
	<path d="M105.928,13981 263.238,13708.6 263.238,13981 105.928,13981 z " fill-rule="evenodd" fill="rgb(255,0,0)" stroke-width="10" stroke="rgb(0,0,0)" />
	<path d="M453.381,376 276.691,682 276.691,376 453.381,376 z " fill-rule="evenodd" fill="rgb(255,0,0)" stroke-width="10" stroke="rgb(0,0,0)" />
	<path d="M455,9889 100,9889 279,9579 614.619,9579 614.619,9612.56 455,9889 z " fill-rule="evenodd" fill="rgb(255,0,0)" stroke-width="10" stroke="rgb(0,0,0)" />
	<path d="M455,13640 100,13640 279,13330 614.619,13330 614.619,13363.6 455,13640 z " fill-rule="evenodd" fill="rgb(255,0,0)" stroke-width="10" stroke="rgb(0,0,0)" />
	<path d="M455,11935 100,11935 279,11625 614.619,11625 614.619,11658.6 455,11935 z " fill-rule="evenodd" fill="rgb(255,0,0)" stroke-width="10" stroke="rgb(0,0,0)" />
	<path d="M105.928,13299 263.238,13026.6 263.238,13299 105.928,13299 z " fill-rule="evenodd" fill="rgb(255,0,0)" stroke-width="10" stroke="rgb(0,0,0)" />
	<path d="M100,682 276.691,376 276.691,682 100,682 z " fill-rule="evenodd" fill="rgb(255,0,0)" stroke-width="10" stroke="rgb(0,0,0)" />
	<path d="M100,5456 279,5146 634,5146 457.309,5452 457.309,5378 257.309,5378 257.309,5456 100,5456 z " fill-rule="evenodd" fill="rgb(255,0,0)" stroke-width="10" stroke="rgb(0,0,0)" />
	<path d="M455,5115 100,5115 279,4805 614.619,4805 614.619,4838.56 455,5115 z " fill-rule="evenodd" fill="rgb(255,0,0)" stroke-width="10" stroke="rgb(0,0,0)" />
	<path d="M455,11594 100,11594 257.309,11321.6 257.309,11340 457.309,11340 457.309,11290 630.535,11290 455,11594 z " fill-rule="evenodd" fill="rgb(255,0,0)" stroke-width="10" stroke="rgb(0,0,0)" />
	<path d="M455,4774 100,4774 275.535,4470 630.535,4470 455,4774 z " fill-rule="evenodd" fill="rgb(255,0,0)" stroke-width="10" stroke="rgb(0,0,0)" />
	<path d="M455,11253 100,11253 275.535,10949 630.535,10949 455,11253 z " fill-rule="evenodd" fill="rgb(255,0,0)" stroke-width="10" stroke="rgb(0,0,0)" />
	<path d="M455,4433 100,4433 275.535,4129 630.535,4129 455,4433 z " fill-rule="evenodd" fill="rgb(255,0,0)" stroke-width="10" stroke="rgb(0,0,0)" />
	<path d="M455,4092 100,4092 275.535,3788 630.535,3788 455,4092 z " fill-rule="evenodd" fill="rgb(255,0,0)" stroke-width="10" stroke="rgb(0,0,0)" />
	<path d="M455,3751 100,3751 275.535,3447 630.535,3447 455,3751 z " fill-rule="evenodd" fill="rgb(255,0,0)" stroke-width="10" stroke="rgb(0,0,0)" />
	<path d="M624.358,9238 445.358,9548 326.905,9548 326.905,9238 624.358,9238 z " fill-rule="evenodd" fill="rgb(255,0,0)" stroke-width="10" stroke="rgb(0,0,0)" />
	<path d="M279,8897 634,8897 455,9207 236.547,9207 236.547,8970.52 279,8897 z " fill-rule="evenodd" fill="rgb(255,0,0)" stroke-width="10" stroke="rgb(0,0,0)" />
	<path d="M586.772,8556 407.772,8866 189.32,8866 189.32,8814 289.32,8814 289.32,8556 586.772,8556 z " fill-rule="evenodd" fill="rgb(255,0,0)" stroke-width="10" stroke="rgb(0,0,0)" />
	<path d="M279,8215 634,8215 455,8525 336.547,8525 336.547,8347 202.781,8347 279,8215 z " fill-rule="evenodd" fill="rgb(255,0,0)" stroke-width="10" stroke="rgb(0,0,0)" />
	<path d="M279,3100 634,3100 455,3410 156.532,3410 110.726,3391.42 279,3100 z " fill-rule="evenodd" fill="rgb(255,0,0)" stroke-width="10" stroke="rgb(0,0,0)" />
	<path d="M455,10912 100,10912 279,10602 614.619,10602 614.619,10635.6 455,10912 z " fill-rule="evenodd" fill="rgb(255,0,0)" stroke-width="10" stroke="rgb(0,0,0)" />
	<path d="M276.691,682 434,409.565 434,682 276.691,682 z " fill-rule="evenodd" fill="rgb(255,0,0)" stroke-width="10" stroke="rgb(0,0,0)" />
	<path d="M455,3069 100,3069 275.535,2765 630.535,2765 455,3069 z " fill-rule="evenodd" fill="rgb(255,0,0)" stroke-width="10" stroke="rgb(0,0,0)" />
	<path d="M236.547,9137.48 196.404,9207 196.404,9137.48 236.547,9137.48 z " fill-rule="evenodd" fill="rgb(255,0,0)" stroke-width="10" stroke="rgb(0,0,0)" />
	<path d="M252.439,9966 607.439,9966 531.219,10098 176.219,10098 252.439,9966 z " fill-rule="evenodd" fill="rgb(255,0,0)" stroke-width="10" stroke="rgb(0,0,0)" />
	<path d="M306.193,12958 334.426,12909.1 454.952,12958 306.193,12958 z " fill-rule="evenodd" fill="rgb(255,0,0)" stroke-width="10" stroke="rgb(0,0,0)" />
	<path d="M267.836,12667.3 622.836,12667.3 455,12958 167.354,12841.4 267.836,12667.3 z " fill-rule="evenodd" fill="rgb(255,0,0)" stroke-width="10" stroke="rgb(0,0,0)" />
	<path d="M455,10571 100,10571 279,10261 614.619,10261 614.619,10294.6 455,10571 z " fill-rule="evenodd" fill="rgb(255,0,0)" stroke-width="10" stroke="rgb(0,0,0)" />
	<path d="M591.309,409.565 434,682 434,409.565 591.309,409.565 z " fill-rule="evenodd" fill="rgb(255,0,0)" stroke-width="10" stroke="rgb(0,0,0)" />
	<path d="M632.834,7874 453.834,8184 356.143,8184 356.143,7874 632.834,7874 z " fill-rule="evenodd" fill="rgb(255,0,0)" stroke-width="10" stroke="rgb(0,0,0)" />
	<path d="M455,2728 100,2728 275.535,2424 630.535,2424 455,2728 z " fill-rule="evenodd" fill="rgb(255,0,0)" stroke-width="10" stroke="rgb(0,0,0)" />
	<path d="M176.219,2255 531.219,2255 455,2387 100,2387 176.219,2255 z " fill-rule="evenodd" fill="rgb(255,0,0)" stroke-width="10" stroke="rgb(0,0,0)" />
	<path d="M455,12617 100,12617 196.047,12450.7 483.671,12567.3 455,12617 z " fill-rule="evenodd" fill="rgb(255,0,0)" stroke-width="10" stroke="rgb(0,0,0)" />
	<path d="M228.737,12394 583.737,12394 483.693,12567.3 196.047,12450.7 228.737,12394 z " fill-rule="evenodd" fill="rgb(255,0,0)" stroke-width="10" stroke="rgb(0,0,0)" />
	<path d="M550.062,1736 371.062,2046 153.129,2046 279,1736 550.062,1736 z " fill-rule="evenodd" fill="rgb(255,0,0)" stroke-width="10" stroke="rgb(0,0,0)" />
	<path d="M618.574,11966 558.951,12069.3 600.877,11966 618.574,11966 z " fill-rule="evenodd" fill="rgb(255,0,0)" stroke-width="10" stroke="rgb(0,0,0)" />
	<path d="M455,12276 100,12276 279,11966 600.877,11966 522.404,12159.3 455,12276 z " fill-rule="evenodd" fill="rgb(255,0,0)" stroke-width="10" stroke="rgb(0,0,0)" />
	<path d="M634,1395 455,1705 100,1705 275.535,1401 498.834,1401 498.834,1395 634,1395 z " fill-rule="evenodd" fill="rgb(255,0,0)" stroke-width="10" stroke="rgb(0,0,0)" />
	<path d="M176.219,10098 531.219,10098 455,10230 100,10230 176.219,10098 z " fill-rule="evenodd" fill="rgb(255,0,0)" stroke-width="10" stroke="rgb(0,0,0)" />
	<path d="M371.848,285.565 257.309,285.565 345.323,68.5646 468.333,118.467 371.848,285.565 z " fill-rule="evenodd" fill="rgb(255,0,0)" stroke-width="10" stroke="rgb(0,0,0)" />
	<path d="M168.272,8525 200.524,8469.14 335.796,8524 335.39,8525 168.272,8525 z " fill-rule="evenodd" fill="rgb(255,0,0)" stroke-width="10" stroke="rgb(0,0,0)" />
	<path d="M631.563,7533 452.563,7843 384.052,7843 509.922,7533 631.563,7533 z " fill-rule="evenodd" fill="rgb(255,0,0)" stroke-width="10" stroke="rgb(0,0,0)" />
	<path d="M569.115,2123 492.896,2255 198.9,2255 252.439,2123 569.115,2123 z " fill-rule="evenodd" fill="rgb(255,0,0)" stroke-width="10" stroke="rgb(0,0,0)" />
	<path d="M100,8866 279,8556 289.32,8556 163.585,8866 100,8866 z " fill-rule="evenodd" fill="rgb(255,0,0)" stroke-width="10" stroke="rgb(0,0,0)" />
	<path d="M631.563,7192 452.563,7502 280.108,7502 405.978,7192 631.563,7192 z " fill-rule="evenodd" fill="rgb(255,0,0)" stroke-width="10" stroke="rgb(0,0,0)" />
	<path d="M455,1364 100,1364 279,1054 584.215,1054 584.215,1060 630.535,1060 455,1364 z " fill-rule="evenodd" fill="rgb(255,0,0)" stroke-width="10" stroke="rgb(0,0,0)" />
	<path d="M631.563,6851 452.563,7161 176.164,7161 302.034,6851 631.563,6851 z " fill-rule="evenodd" fill="rgb(255,0,0)" stroke-width="10" stroke="rgb(0,0,0)" />
	<path d="M279,12989 634,12989 455,13299 263.238,13299 263.238,13016.3 279,12989 z " fill-rule="evenodd" fill="rgb(255,0,0)" stroke-width="10" stroke="rgb(0,0,0)" />
	<path d="M279,13671 634,13671 455,13981 263.238,13981 263.238,13698.3 279,13671 z " fill-rule="evenodd" fill="rgb(255,0,0)" stroke-width="10" stroke="rgb(0,0,0)" />
	<path d="M100,9548 279,9238 326.905,9238 326.905,9548 100,9548 z " fill-rule="evenodd" fill="rgb(255,0,0)" stroke-width="10" stroke="rgb(0,0,0)" />
	<path d="M100,6820 279,6510 326.905,6510 326.905,6820 100,6820 z " fill-rule="evenodd" fill="rgb(255,0,0)" stroke-width="10" stroke="rgb(0,0,0)" />
	<path d="M100,6479 279,6169 326.905,6169 326.905,6479 100,6479 z " fill-rule="evenodd" fill="rgb(255,0,0)" stroke-width="10" stroke="rgb(0,0,0)" />
	<path d="M553.811,6510 374.811,6820 326.905,6820 326.905,6510 553.811,6510 z " fill-rule="evenodd" fill="rgb(255,0,0)" stroke-width="10" stroke="rgb(0,0,0)" />
	<path d="M100,1023 275.535,719 326.905,719 326.905,1023 100,1023 z " fill-rule="evenodd" fill="rgb(255,0,0)" stroke-width="10" stroke="rgb(0,0,0)" />
	<path d="M100,7161 279,6851 302.034,6851 176.164,7161 100,7161 z " fill-rule="evenodd" fill="rgb(255,0,0)" stroke-width="10" stroke="rgb(0,0,0)" />
	<path d="M628.072,9579 614.619,9602.3 614.619,9579 628.072,9579 z " fill-rule="evenodd" fill="rgb(255,0,0)" stroke-width="10" stroke="rgb(0,0,0)" />
	<path d="M628.072,13330 614.619,13353.3 614.619,13330 628.072,13330 z " fill-rule="evenodd" fill="rgb(255,0,0)" stroke-width="10" stroke="rgb(0,0,0)" />
	<path d="M100,7502 279,7192 405.978,7192 280.108,7502 100,7502 z " fill-rule="evenodd" fill="rgb(255,0,0)" stroke-width="10" stroke="rgb(0,0,0)" />
	<path d="M100,8184 279,7874 356.143,7874 356.143,8184 100,8184 z " fill-rule="evenodd" fill="rgb(255,0,0)" stroke-width="10" stroke="rgb(0,0,0)" />
	<path d="M100,6138 279,5828 356.143,5828 356.143,6138 100,6138 z " fill-rule="evenodd" fill="rgb(255,0,0)" stroke-width="10" stroke="rgb(0,0,0)" />
	<path d="M100,5797 279,5487 356.143,5487 356.143,5797 100,5797 z " fill-rule="evenodd" fill="rgb(255,0,0)" stroke-width="10" stroke="rgb(0,0,0)" />
	<path d="M612.286,5828 433.286,6138 356.143,6138 356.143,5828 612.286,5828 z " fill-rule="evenodd" fill="rgb(255,0,0)" stroke-width="10" stroke="rgb(0,0,0)" />
	<path d="M612.286,5487 433.286,5797 356.143,5797 356.143,5487 612.286,5487 z " fill-rule="evenodd" fill="rgb(255,0,0)" stroke-width="10" stroke="rgb(0,0,0)" />
	<path d="M100,7843 279,7533 509.922,7533 384.052,7843 100,7843 z " fill-rule="evenodd" fill="rgb(255,0,0)" stroke-width="10" stroke="rgb(0,0,0)" />
	<path d="M583.048,6169 404.048,6479 326.905,6479 326.905,6169 583.048,6169 z " fill-rule="evenodd" fill="rgb(255,0,0)" stroke-width="10" stroke="rgb(0,0,0)" />
	<path d="M850.638,7543.27 850.638,7815.7 693.328,7543.27 850.638,7543.27 z " fill-rule="evenodd" fill="rgb(255,0,0)" stroke-width="10" stroke="rgb(0,0,0)" />
	<path d="M1043.09,1023 866.4,1023 866.4,717 1043.09,1023 z " fill-rule="evenodd" fill="rgb(255,0,0)" stroke-width="10" stroke="rgb(0,0,0)" />
	<path d="M1042.4,7192 1202.02,7468.44 1202.02,7502 866.4,7502 687.4,7192 1042.4,7192 z " fill-rule="evenodd" fill="rgb(255,0,0)" stroke-width="10" stroke="rgb(0,0,0)" />
	<path d="M1042.4,13671 1202.02,13947.4 1202.02,13981 866.4,13981 687.4,13671 1042.4,13671 z " fill-rule="evenodd" fill="rgb(255,0,0)" stroke-width="10" stroke="rgb(0,0,0)" />
	<path d="M866.4,409.565 866.4,682 709.09,409.565 866.4,409.565 z " fill-rule="evenodd" fill="rgb(255,0,0)" stroke-width="10" stroke="rgb(0,0,0)" />
	<path d="M1219.78,1023 1043.09,1023 1043.09,717 1219.78,1023 z " fill-rule="evenodd" fill="rgb(255,0,0)" stroke-width="10" stroke="rgb(0,0,0)" />
	<path d="M1042.4,10943 1202.02,11219.4 1202.02,11253 866.4,11253 687.4,10943 1042.4,10943 z " fill-rule="evenodd" fill="rgb(255,0,0)" stroke-width="10" stroke="rgb(0,0,0)" />
	<path d="M1023.71,409.565 1023.71,682 866.4,409.565 1023.71,409.565 z " fill-rule="evenodd" fill="rgb(255,0,0)" stroke-width="10" stroke="rgb(0,0,0)" />
	<path d="M866.4,717 1043.09,717 1043.09,1023 866.4,717 z " fill-rule="evenodd" fill="rgb(255,0,0)" stroke-width="10" stroke="rgb(0,0,0)" />
	<path d="M984.853,6851 1163.85,7161 866.4,7161 866.4,6873 766.4,6873 766.4,6851 984.853,6851 z " fill-rule="evenodd" fill="rgb(255,0,0)" stroke-width="10" stroke="rgb(0,0,0)" />
	<path d="M1042.4,13330 1221.4,13640 866.4,13640 823.947,13566.5 823.947,13330 1042.4,13330 z " fill-rule="evenodd" fill="rgb(255,0,0)" stroke-width="10" stroke="rgb(0,0,0)" />
	<path d="M1032.76,6510 1211.76,6820 914.305,6820 914.305,6510 1032.76,6510 z " fill-rule="evenodd" fill="rgb(255,0,0)" stroke-width="10" stroke="rgb(0,0,0)" />
	<path d="M1042.4,4464 1221.4,4774 866.4,4774 842.148,4732 923.947,4732 923.947,4535 748.864,4464 1042.4,4464 z " fill-rule="evenodd" fill="rgb(255,0,0)" stroke-width="10" stroke="rgb(0,0,0)" />
	<path d="M694.963,6851 769.221,6881.13 769.221,6979.6 694.963,6851 z " fill-rule="evenodd" fill="rgb(255,0,0)" stroke-width="10" stroke="rgb(0,0,0)" />
	<path d="M1042.4,4123 1202.02,4399.44 1202.02,4433 866.4,4433 687.4,4123 1042.4,4123 z " fill-rule="evenodd" fill="rgb(255,0,0)" stroke-width="10" stroke="rgb(0,0,0)" />
	<path d="M1023.71,682 1023.71,409.565 1181.02,682 1023.71,682 z " fill-rule="evenodd" fill="rgb(255,0,0)" stroke-width="10" stroke="rgb(0,0,0)" />
	<path d="M1167.87,9131 1127.73,9131 1127.73,9061.48 1167.87,9131 z " fill-rule="evenodd" fill="rgb(255,0,0)" stroke-width="10" stroke="rgb(0,0,0)" />
	<path d="M841.089,3782 1103.98,3888.65 1181.26,4022.48 1181.26,4050 1197.15,4050 1221.4,4092 866.4,4092 687.4,3782 841.089,3782 z " fill-rule="evenodd" fill="rgb(255,0,0)" stroke-width="10" stroke="rgb(0,0,0)" />
	<path d="M1042.4,3441 1202.02,3717.44 1202.02,3751 866.4,3751 687.4,3441 1042.4,3441 z " fill-rule="evenodd" fill="rgb(255,0,0)" stroke-width="10" stroke="rgb(0,0,0)" />
	<path d="M866.4,682 866.4,409.565 1023.71,682 866.4,682 z " fill-rule="evenodd" fill="rgb(255,0,0)" stroke-width="10" stroke="rgb(0,0,0)" />
	<path d="M1137.03,13157 1219.03,13299 1039.34,13299 1039.34,13157 1137.03,13157 z " fill-rule="evenodd" fill="rgb(255,0,0)" stroke-width="10" stroke="rgb(0,0,0)" />
	<path d="M1095.52,8307 1177.52,8449 822.516,8449 740.523,8307 1095.52,8307 z " fill-rule="evenodd" fill="rgb(255,0,0)" stroke-width="10" stroke="rgb(0,0,0)" />
	<path d="M1042.4,10602 1221.4,10912 866.4,10912 767.4,10740.5 823.655,10602 1042.4,10602 z " fill-rule="evenodd" fill="rgb(255,0,0)" stroke-width="10" stroke="rgb(0,0,0)" />
	<path d="M1205.97,12958 935.724,12958 1047.3,12683.2 1205.97,12958 z " fill-rule="evenodd" fill="rgb(255,0,0)" stroke-width="10" stroke="rgb(0,0,0)" />
	<path d="M1042.4,3100 1221.4,3410 866.4,3410 706.371,3132.85 719.711,3100 1042.4,3100 z " fill-rule="evenodd" fill="rgb(255,0,0)" stroke-width="10" stroke="rgb(0,0,0)" />
	<path d="M1042.4,2759 1202.02,3035.44 1202.02,3069 866.4,3069 687.4,2759 1042.4,2759 z " fill-rule="evenodd" fill="rgb(255,0,0)" stroke-width="10" stroke="rgb(0,0,0)" />
	<path d="M1042.4,10261 1221.4,10571 944.709,10571 944.709,10527 844.709,10527 844.709,10533.4 687.4,10261 1042.4,10261 z " fill-rule="evenodd" fill="rgb(255,0,0)" stroke-width="10" stroke="rgb(0,0,0)" />
	<path d="M1095.52,7966 1177.52,8108 822.516,8108 740.523,7966 1095.52,7966 z " fill-rule="evenodd" fill="rgb(255,0,0)" stroke-width="10" stroke="rgb(0,0,0)" />
	<path d="M688.781,13330 823.947,13330 823.947,13522 799.646,13522 688.781,13330 z " fill-rule="evenodd" fill="rgb(255,0,0)" stroke-width="10" stroke="rgb(0,0,0)" />
	<path d="M866.4,13299 687.4,12989 1042.4,12989 1080.63,13055.2 981.749,13299 866.4,13299 z " fill-rule="evenodd" fill="rgb(255,0,0)" stroke-width="10" stroke="rgb(0,0,0)" />
	<path d="M700.094,717 866.4,717 797.738,886.104 700.094,717 z " fill-rule="evenodd" fill="rgb(255,0,0)" stroke-width="10" stroke="rgb(0,0,0)" />
	<path d="M961.583,8939 944.698,8939 951.669,8921.83 961.583,8939 z " fill-rule="evenodd" fill="rgb(255,0,0)" stroke-width="10" stroke="rgb(0,0,0)" />
	<path d="M866.4,12958 687.4,12648 1042.4,12648 1053.67,12667.5 935.724,12958 866.4,12958 z " fill-rule="evenodd" fill="rgb(255,0,0)" stroke-width="10" stroke="rgb(0,0,0)" />
	<path d="M1042.4,2418 1065.5,2458 844.709,2458 844.709,2608 944.709,2608 944.709,2558 1123.24,2558 1221.4,2728 866.4,2728 687.4,2418 1042.4,2418 z " fill-rule="evenodd" fill="rgb(255,0,0)" stroke-width="10" stroke="rgb(0,0,0)" />
	<path d="M1100.14,10020 1123.24,10060 768.239,10060 745.142,10020 1100.14,10020 z " fill-rule="evenodd" fill="rgb(255,0,0)" stroke-width="10" stroke="rgb(0,0,0)" />
	<path d="M1221.4,2387 866.4,2387 768.239,2217 1123.24,2217 1221.4,2387 z " fill-rule="evenodd" fill="rgb(255,0,0)" stroke-width="10" stroke="rgb(0,0,0)" />
	<path d="M1077.05,9980 1100.14,10020 745.142,10020 722.045,9980 1077.05,9980 z " fill-rule="evenodd" fill="rgb(255,0,0)" stroke-width="10" stroke="rgb(0,0,0)" />
	<path d="M1221.4,10230 866.4,10230 768.239,10060 1123.24,10060 1221.4,10230 z " fill-rule="evenodd" fill="rgb(255,0,0)" stroke-width="10" stroke="rgb(0,0,0)" />
	<path d="M1139.41,1904 1221.4,2046 866.4,2046 784.406,1904 1139.41,1904 z " fill-rule="evenodd" fill="rgb(255,0,0)" stroke-width="10" stroke="rgb(0,0,0)" />
	<path d="M1053.95,9940 1077.05,9980 722.045,9980 698.948,9940 1053.95,9940 z " fill-rule="evenodd" fill="rgb(255,0,0)" stroke-width="10" stroke="rgb(0,0,0)" />
	<path d="M1221.4,1705 866.4,1705 768.239,1535 1123.24,1535 1221.4,1705 z " fill-rule="evenodd" fill="rgb(255,0,0)" stroke-width="10" stroke="rgb(0,0,0)" />
	<path d="M1221.4,9889 866.4,9889 755.535,9697 1110.54,9697 1221.4,9889 z " fill-rule="evenodd" fill="rgb(255,0,0)" stroke-width="10" stroke="rgb(0,0,0)" />
	<path d="M1027.25,6169 1206.25,6479 890.383,6479 1016.12,6169 1027.25,6169 z " fill-rule="evenodd" fill="rgb(255,0,0)" stroke-width="10" stroke="rgb(0,0,0)" />
	<path d="M1011.82,7966 949.048,7966 974.949,7902.14 1011.82,7966 z " fill-rule="evenodd" fill="rgb(255,0,0)" stroke-width="10" stroke="rgb(0,0,0)" />
	<path d="M1218.96,12617 1098.13,12617 1148.02,12494.1 1218.96,12617 z " fill-rule="evenodd" fill="rgb(255,0,0)" stroke-width="10" stroke="rgb(0,0,0)" />
	<path d="M1042.4,11966 1221.4,12276 866.4,12276 794.101,12150.8 869.132,11966 1042.4,11966 z " fill-rule="evenodd" fill="rgb(255,0,0)" stroke-width="10" stroke="rgb(0,0,0)" />
	<path d="M1139.41,1222 1221.4,1364 866.4,1364 784.406,1222 1139.41,1222 z " fill-rule="evenodd" fill="rgb(255,0,0)" stroke-width="10" stroke="rgb(0,0,0)" />
	<path d="M1087.44,9657 1110.54,9697 755.535,9697 732.439,9657 1087.44,9657 z " fill-rule="evenodd" fill="rgb(255,0,0)" stroke-width="10" stroke="rgb(0,0,0)" />
	<path d="M1221.4,9548 866.4,9548 768.239,9378 1123.24,9378 1221.4,9548 z " fill-rule="evenodd" fill="rgb(255,0,0)" stroke-width="10" stroke="rgb(0,0,0)" />
	<path d="M1127.73,9044.78 1127.73,9131 822.516,9131 711.652,8939 1066.65,8939 1127.73,9044.78 z " fill-rule="evenodd" fill="rgb(255,0,0)" stroke-width="10" stroke="rgb(0,0,0)" />
	<path d="M1218.96,11935 994.19,11935 1086.99,11706.4 1218.96,11935 z " fill-rule="evenodd" fill="rgb(255,0,0)" stroke-width="10" stroke="rgb(0,0,0)" />
	<path d="M1042.4,11284 1221.4,11594 866.4,11594 733.072,11363.1 765.188,11284 1042.4,11284 z " fill-rule="evenodd" fill="rgb(255,0,0)" stroke-width="10" stroke="rgb(0,0,0)" />
	<path d="M1095.52,8648 1111.28,8675.3 1111.28,8790 822.516,8790 740.523,8648 1095.52,8648 z " fill-rule="evenodd" fill="rgb(255,0,0)" stroke-width="10" stroke="rgb(0,0,0)" />
	<path d="M866.4,7843 850.638,7815.7 850.638,7533 1042.4,7533 1221.4,7843 866.4,7843 z " fill-rule="evenodd" fill="rgb(255,0,0)" stroke-width="10" stroke="rgb(0,0,0)" />
	<path d="M1064.34,9617 1087.44,9657 732.439,9657 709.342,9617 1064.34,9617 z " fill-rule="evenodd" fill="rgb(255,0,0)" stroke-width="10" stroke="rgb(0,0,0)" />
	<path d="M866.4,341 768.239,171 1058.16,171 1058.16,341 866.4,341 z " fill-rule="evenodd" fill="rgb(255,0,0)" stroke-width="10" stroke="rgb(0,0,0)" />
	<path d="M914.305,6510 914.305,6820 866.4,6820 687.4,6510 914.305,6510 z " fill-rule="evenodd" fill="rgb(255,0,0)" stroke-width="10" stroke="rgb(0,0,0)" />
	<path d="M914.305,5828 914.305,6138 866.4,6138 687.4,5828 914.305,5828 z " fill-rule="evenodd" fill="rgb(255,0,0)" stroke-width="10" stroke="rgb(0,0,0)" />
	<path d="M914.305,5487 914.305,5797 866.4,5797 687.4,5487 914.305,5487 z " fill-rule="evenodd" fill="rgb(255,0,0)" stroke-width="10" stroke="rgb(0,0,0)" />
	<path d="M914.305,5797 914.305,5487 962.211,5487 1141.21,5797 914.305,5797 z " fill-rule="evenodd" fill="rgb(255,0,0)" stroke-width="10" stroke="rgb(0,0,0)" />
	<path d="M1170.05,8790 1111.28,8790 1111.28,8688.22 1170.05,8790 z " fill-rule="evenodd" fill="rgb(255,0,0)" stroke-width="10" stroke="rgb(0,0,0)" />
	<path d="M866.4,6479 687.4,6169 1016.12,6169 890.246,6479 866.4,6479 z " fill-rule="evenodd" fill="rgb(255,0,0)" stroke-width="10" stroke="rgb(0,0,0)" />
	<path d="M1202.02,7502 1202.02,7478.7 1215.47,7502 1202.02,7502 z " fill-rule="evenodd" fill="rgb(255,0,0)" stroke-width="10" stroke="rgb(0,0,0)" />
	<path d="M1202.02,13981 1202.02,13957.7 1215.47,13981 1202.02,13981 z " fill-rule="evenodd" fill="rgb(255,0,0)" stroke-width="10" stroke="rgb(0,0,0)" />
	<path d="M1100.14,9338 1123.24,9378 768.239,9378 745.142,9338 1100.14,9338 z " fill-rule="evenodd" fill="rgb(255,0,0)" stroke-width="10" stroke="rgb(0,0,0)" />
	<path d="M689.837,11284 765.188,11284 734.078,11360.6 689.837,11284 z " fill-rule="evenodd" fill="rgb(255,0,0)" stroke-width="10" stroke="rgb(0,0,0)" />
	<path d="M866.4,11935 687.4,11625 1042.4,11625 1088,11704 994.19,11935 866.4,11935 z " fill-rule="evenodd" fill="rgb(255,0,0)" stroke-width="10" stroke="rgb(0,0,0)" />
	<path d="M944.698,8899 944.698,8939 711.652,8939 688.555,8899 944.698,8899 z " fill-rule="evenodd" fill="rgb(255,0,0)" stroke-width="10" stroke="rgb(0,0,0)" />
	<path d="M943.543,5146 943.543,5456 866.4,5456 687.4,5146 943.543,5146 z " fill-rule="evenodd" fill="rgb(255,0,0)" stroke-width="10" stroke="rgb(0,0,0)" />
	<path d="M943.543,5456 943.543,5146 1020.69,5146 1199.69,5456 943.543,5456 z " fill-rule="evenodd" fill="rgb(255,0,0)" stroke-width="10" stroke="rgb(0,0,0)" />
	<path d="M943.543,4805 943.543,5115 866.4,5115 687.4,4805 943.543,4805 z " fill-rule="evenodd" fill="rgb(255,0,0)" stroke-width="10" stroke="rgb(0,0,0)" />
	<path d="M943.543,5115 943.543,4805 1020.69,4805 1199.69,5115 943.543,5115 z " fill-rule="evenodd" fill="rgb(255,0,0)" stroke-width="10" stroke="rgb(0,0,0)" />
	<path d="M689.837,11966 869.132,11966 795.107,12148.3 689.837,11966 z " fill-rule="evenodd" fill="rgb(255,0,0)" stroke-width="10" stroke="rgb(0,0,0)" />
	<path d="M866.4,12617 687.4,12307 1042.4,12307 1149.03,12491.7 1098.13,12617 866.4,12617 z " fill-rule="evenodd" fill="rgb(255,0,0)" stroke-width="10" stroke="rgb(0,0,0)" />
	<path d="M914.305,6138 914.305,5828 991.448,5828 1170.45,6138 914.305,6138 z " fill-rule="evenodd" fill="rgb(255,0,0)" stroke-width="10" stroke="rgb(0,0,0)" />
	<path d="M696.639,7890 979.878,7890 949.02,7966 740.523,7966 696.639,7890 z " fill-rule="evenodd" fill="rgb(255,0,0)" stroke-width="10" stroke="rgb(0,0,0)" />
	<path d="M1100.14,9338 745.142,9338 701.258,9262 1056.26,9262 1100.14,9338 z " fill-rule="evenodd" fill="rgb(255,0,0)" stroke-width="10" stroke="rgb(0,0,0)" />
	<path d="M1095.52,8648 740.523,8648 696.639,8572 1051.64,8572 1095.52,8648 z " fill-rule="evenodd" fill="rgb(255,0,0)" stroke-width="10" stroke="rgb(0,0,0)" />
	<path d="M1221.4,9207 866.4,9207 822.516,9131 1177.52,9131 1221.4,9207 z " fill-rule="evenodd" fill="rgb(255,0,0)" stroke-width="10" stroke="rgb(0,0,0)" />
	<path d="M1095.52,8307 740.523,8307 696.639,8231 1051.64,8231 1095.52,8307 z " fill-rule="evenodd" fill="rgb(255,0,0)" stroke-width="10" stroke="rgb(0,0,0)" />
	<path d="M1221.4,8866 866.4,8866 822.516,8790 1177.52,8790 1221.4,8866 z " fill-rule="evenodd" fill="rgb(255,0,0)" stroke-width="10" stroke="rgb(0,0,0)" />
	<path d="M1221.4,8525 866.4,8525 822.516,8449 1177.52,8449 1221.4,8525 z " fill-rule="evenodd" fill="rgb(255,0,0)" stroke-width="10" stroke="rgb(0,0,0)" />
	<path d="M1221.4,8184 866.4,8184 822.516,8108 1177.52,8108 1221.4,8184 z " fill-rule="evenodd" fill="rgb(255,0,0)" stroke-width="10" stroke="rgb(0,0,0)" />
	<path d="M1135.31,265 1179.19,341 1058.16,341 1058.16,265 1135.31,265 z " fill-rule="evenodd" fill="rgb(255,0,0)" stroke-width="10" stroke="rgb(0,0,0)" />
</svg>
