<?xml version="1.0" standalone="no" ?>
<!DOCTYPE svg PUBLIC "-//W3C//DTD SVG 1.1//EN" "http://www.w3.org/Graphics/SVG/1.1/DTD/svg11.dtd">
<svg width="1435px" height="15786px" xmlns="http://www.w3.org/2000/svg" version="1.1" >
	<path d="M100,15686 455,15686 634,15376 279,15376 z " fill-rule="evenodd" fill="rgb(255,255,255)" stroke-width="10" stroke="rgb(0,0,0)" />
	<path d="M100,15345 455,15345 634,15035 279,15035 z " fill-rule="evenodd" fill="rgb(255,255,255)" stroke-width="10" stroke="rgb(0,0,0)" />
	<path d="M100,15004 455,15004 634,14694 279,14694 z " fill-rule="evenodd" fill="rgb(255,255,255)" stroke-width="10" stroke="rgb(0,0,0)" />
	<path d="M100,14663 455,14663 634,14353 279,14353 z " fill-rule="evenodd" fill="rgb(255,255,255)" stroke-width="10" stroke="rgb(0,0,0)" />
	<path d="M100,14322 455,14322 634,14012 279,14012 z " fill-rule="evenodd" fill="rgb(255,255,255)" stroke-width="10" stroke="rgb(0,0,0)" />
	<path d="M100,13981 455,13981 634,13671 279,13671 z " fill-rule="evenodd" fill="rgb(255,255,255)" stroke-width="10" stroke="rgb(0,0,0)" />
	<path d="M100,13640 455,13640 634,13330 279,13330 z " fill-rule="evenodd" fill="rgb(255,255,255)" stroke-width="10" stroke="rgb(0,0,0)" />
	<path d="M100,13299 455,13299 634,12989 279,12989 z " fill-rule="evenodd" fill="rgb(255,255,255)" stroke-width="10" stroke="rgb(0,0,0)" />
	<path d="M100,12958 455,12958 634,12648 279,12648 z " fill-rule="evenodd" fill="rgb(255,255,255)" stroke-width="10" stroke="rgb(0,0,0)" />
	<path d="M100,12617 455,12617 634,12307 279,12307 z " fill-rule="evenodd" fill="rgb(255,255,255)" stroke-width="10" stroke="rgb(0,0,0)" />
	<path d="M100,12276 455,12276 634,11966 279,11966 z " fill-rule="evenodd" fill="rgb(255,255,255)" stroke-width="10" stroke="rgb(0,0,0)" />
	<path d="M100,11935 455,11935 634,11625 279,11625 z " fill-rule="evenodd" fill="rgb(255,255,255)" stroke-width="10" stroke="rgb(0,0,0)" />
	<path d="M100,11594 455,11594 634,11284 279,11284 z " fill-rule="evenodd" fill="rgb(255,255,255)" stroke-width="10" stroke="rgb(0,0,0)" />
	<path d="M100,11253 455,11253 634,10943 279,10943 z " fill-rule="evenodd" fill="rgb(255,255,255)" stroke-width="10" stroke="rgb(0,0,0)" />
	<path d="M100,10912 455,10912 634,10602 279,10602 z " fill-rule="evenodd" fill="rgb(255,255,255)" stroke-width="10" stroke="rgb(0,0,0)" />
	<path d="M100,10571 455,10571 634,10261 279,10261 z " fill-rule="evenodd" fill="rgb(255,255,255)" stroke-width="10" stroke="rgb(0,0,0)" />
	<path d="M100,10230 455,10230 634,9920 279,9920 z " fill-rule="evenodd" fill="rgb(255,255,255)" stroke-width="10" stroke="rgb(0,0,0)" />
	<path d="M100,9889 455,9889 634,9579 279,9579 z " fill-rule="evenodd" fill="rgb(255,255,255)" stroke-width="10" stroke="rgb(0,0,0)" />
	<path d="M100,9548 455,9548 634,9238 279,9238 z " fill-rule="evenodd" fill="rgb(255,255,255)" stroke-width="10" stroke="rgb(0,0,0)" />
	<path d="M100,9207 455,9207 634,8897 279,8897 z " fill-rule="evenodd" fill="rgb(255,255,255)" stroke-width="10" stroke="rgb(0,0,0)" />
	<path d="M100,8866 455,8866 634,8556 279,8556 z " fill-rule="evenodd" fill="rgb(255,255,255)" stroke-width="10" stroke="rgb(0,0,0)" />
	<path d="M100,8525 455,8525 634,8215 279,8215 z " fill-rule="evenodd" fill="rgb(255,255,255)" stroke-width="10" stroke="rgb(0,0,0)" />
	<path d="M100,8184 455,8184 634,7874 279,7874 z " fill-rule="evenodd" fill="rgb(255,255,255)" stroke-width="10" stroke="rgb(0,0,0)" />
	<path d="M100,7843 455,7843 634,7533 279,7533 z " fill-rule="evenodd" fill="rgb(255,255,255)" stroke-width="10" stroke="rgb(0,0,0)" />
	<path d="M100,7502 455,7502 634,7192 279,7192 z " fill-rule="evenodd" fill="rgb(255,255,255)" stroke-width="10" stroke="rgb(0,0,0)" />
	<path d="M100,7161 455,7161 634,6851 279,6851 z " fill-rule="evenodd" fill="rgb(255,255,255)" stroke-width="10" stroke="rgb(0,0,0)" />
	<path d="M100,6820 455,6820 634,6510 279,6510 z " fill-rule="evenodd" fill="rgb(255,255,255)" stroke-width="10" stroke="rgb(0,0,0)" />
	<path d="M100,6479 455,6479 634,6169 279,6169 z " fill-rule="evenodd" fill="rgb(255,255,255)" stroke-width="10" stroke="rgb(0,0,0)" />
	<path d="M100,6138 455,6138 634,5828 279,5828 z " fill-rule="evenodd" fill="rgb(255,255,255)" stroke-width="10" stroke="rgb(0,0,0)" />
	<path d="M100,5797 455,5797 634,5487 279,5487 z " fill-rule="evenodd" fill="rgb(255,255,255)" stroke-width="10" stroke="rgb(0,0,0)" />
	<path d="M100,5456 455,5456 634,5146 279,5146 z " fill-rule="evenodd" fill="rgb(255,255,255)" stroke-width="10" stroke="rgb(0,0,0)" />
	<path d="M100,5115 455,5115 634,4805 279,4805 z " fill-rule="evenodd" fill="rgb(255,255,255)" stroke-width="10" stroke="rgb(0,0,0)" />
	<path d="M100,4774 455,4774 634,4464 279,4464 z " fill-rule="evenodd" fill="rgb(255,255,255)" stroke-width="10" stroke="rgb(0,0,0)" />
	<path d="M100,4433 455,4433 634,4123 279,4123 z " fill-rule="evenodd" fill="rgb(255,255,255)" stroke-width="10" stroke="rgb(0,0,0)" />
	<path d="M100,4092 455,4092 634,3782 279,3782 z " fill-rule="evenodd" fill="rgb(255,255,255)" stroke-width="10" stroke="rgb(0,0,0)" />
	<path d="M100,3751 455,3751 634,3441 279,3441 z " fill-rule="evenodd" fill="rgb(255,255,255)" stroke-width="10" stroke="rgb(0,0,0)" />
	<path d="M100,3410 455,3410 634,3100 279,3100 z " fill-rule="evenodd" fill="rgb(255,255,255)" stroke-width="10" stroke="rgb(0,0,0)" />
	<path d="M100,3069 455,3069 634,2759 279,2759 z " fill-rule="evenodd" fill="rgb(255,255,255)" stroke-width="10" stroke="rgb(0,0,0)" />
	<path d="M100,2728 455,2728 634,2418 279,2418 z " fill-rule="evenodd" fill="rgb(255,255,255)" stroke-width="10" stroke="rgb(0,0,0)" />
	<path d="M100,2387 455,2387 634,2077 279,2077 z " fill-rule="evenodd" fill="rgb(255,255,255)" stroke-width="10" stroke="rgb(0,0,0)" />
	<path d="M100,2046 455,2046 634,1736 279,1736 z " fill-rule="evenodd" fill="rgb(255,255,255)" stroke-width="10" stroke="rgb(0,0,0)" />
	<path d="M100,1705 455,1705 634,1395 279,1395 z " fill-rule="evenodd" fill="rgb(255,255,255)" stroke-width="10" stroke="rgb(0,0,0)" />
	<path d="M100,1364 455,1364 634,1054 279,1054 z " fill-rule="evenodd" fill="rgb(255,255,255)" stroke-width="10" stroke="rgb(0,0,0)" />
	<path d="M100,1023 455,1023 634,713 279,713 z " fill-rule="evenodd" fill="rgb(255,255,255)" stroke-width="10" stroke="rgb(0,0,0)" />
	<path d="M100,682 455,682 634,372 279,372 z " fill-rule="evenodd" fill="rgb(255,255,255)" stroke-width="10" stroke="rgb(0,0,0)" />
	<path d="M100,341 455,341 634,31 279,31 z " fill-rule="evenodd" fill="rgb(255,255,255)" stroke-width="10" stroke="rgb(0,0,0)" />
	<path d="M866.4,15686 1221.4,15686 1042.4,15376 687.4,15376 z " fill-rule="evenodd" fill="rgb(255,255,255)" stroke-width="10" stroke="rgb(0,0,0)" />
	<path d="M866.4,15345 1221.4,15345 1042.4,15035 687.4,15035 z " fill-rule="evenodd" fill="rgb(255,255,255)" stroke-width="10" stroke="rgb(0,0,0)" />
	<path d="M866.4,15004 1221.4,15004 1042.4,14694 687.4,14694 z " fill-rule="evenodd" fill="rgb(255,255,255)" stroke-width="10" stroke="rgb(0,0,0)" />
	<path d="M866.4,14663 1221.4,14663 1042.4,14353 687.4,14353 z " fill-rule="evenodd" fill="rgb(255,255,255)" stroke-width="10" stroke="rgb(0,0,0)" />
	<path d="M866.4,14322 1221.4,14322 1042.4,14012 687.4,14012 z " fill-rule="evenodd" fill="rgb(255,255,255)" stroke-width="10" stroke="rgb(0,0,0)" />
	<path d="M866.4,13981 1221.4,13981 1042.4,13671 687.4,13671 z " fill-rule="evenodd" fill="rgb(255,255,255)" stroke-width="10" stroke="rgb(0,0,0)" />
	<path d="M866.4,13640 1221.4,13640 1042.4,13330 687.4,13330 z " fill-rule="evenodd" fill="rgb(255,255,255)" stroke-width="10" stroke="rgb(0,0,0)" />
	<path d="M866.4,13299 1221.4,13299 1042.4,12989 687.4,12989 z " fill-rule="evenodd" fill="rgb(255,255,255)" stroke-width="10" stroke="rgb(0,0,0)" />
	<path d="M866.4,12958 1221.4,12958 1042.4,12648 687.4,12648 z " fill-rule="evenodd" fill="rgb(255,255,255)" stroke-width="10" stroke="rgb(0,0,0)" />
	<path d="M866.4,12617 1221.4,12617 1042.4,12307 687.4,12307 z " fill-rule="evenodd" fill="rgb(255,255,255)" stroke-width="10" stroke="rgb(0,0,0)" />
	<path d="M866.4,12276 1221.4,12276 1042.4,11966 687.4,11966 z " fill-rule="evenodd" fill="rgb(255,255,255)" stroke-width="10" stroke="rgb(0,0,0)" />
	<path d="M866.4,11935 1221.4,11935 1042.4,11625 687.4,11625 z " fill-rule="evenodd" fill="rgb(255,255,255)" stroke-width="10" stroke="rgb(0,0,0)" />
	<path d="M866.4,11594 1221.4,11594 1042.4,11284 687.4,11284 z " fill-rule="evenodd" fill="rgb(255,255,255)" stroke-width="10" stroke="rgb(0,0,0)" />
	<path d="M866.4,11253 1221.4,11253 1042.4,10943 687.4,10943 z " fill-rule="evenodd" fill="rgb(255,255,255)" stroke-width="10" stroke="rgb(0,0,0)" />
	<path d="M866.4,10912 1221.4,10912 1042.4,10602 687.4,10602 z " fill-rule="evenodd" fill="rgb(255,255,255)" stroke-width="10" stroke="rgb(0,0,0)" />
	<path d="M866.4,10571 1221.4,10571 1042.4,10261 687.4,10261 z " fill-rule="evenodd" fill="rgb(255,255,255)" stroke-width="10" stroke="rgb(0,0,0)" />
	<path d="M866.4,10230 1221.4,10230 1042.4,9920 687.4,9920 z " fill-rule="evenodd" fill="rgb(255,255,255)" stroke-width="10" stroke="rgb(0,0,0)" />
	<path d="M866.4,9889 1221.4,9889 1042.4,9579 687.4,9579 z " fill-rule="evenodd" fill="rgb(255,255,255)" stroke-width="10" stroke="rgb(0,0,0)" />
	<path d="M866.4,9548 1221.4,9548 1042.4,9238 687.4,9238 z " fill-rule="evenodd" fill="rgb(255,255,255)" stroke-width="10" stroke="rgb(0,0,0)" />
	<path d="M866.4,9207 1221.4,9207 1042.4,8897 687.4,8897 z " fill-rule="evenodd" fill="rgb(255,255,255)" stroke-width="10" stroke="rgb(0,0,0)" />
	<path d="M866.4,8866 1221.4,8866 1042.4,8556 687.4,8556 z " fill-rule="evenodd" fill="rgb(255,255,255)" stroke-width="10" stroke="rgb(0,0,0)" />
	<path d="M866.4,8525 1221.4,8525 1042.4,8215 687.4,8215 z " fill-rule="evenodd" fill="rgb(255,255,255)" stroke-width="10" stroke="rgb(0,0,0)" />
	<path d="M866.4,8184 1221.4,8184 1042.4,7874 687.4,7874 z " fill-rule="evenodd" fill="rgb(255,255,255)" stroke-width="10" stroke="rgb(0,0,0)" />
	<path d="M866.4,7843 1221.4,7843 1042.4,7533 687.4,7533 z " fill-rule="evenodd" fill="rgb(255,255,255)" stroke-width="10" stroke="rgb(0,0,0)" />
	<path d="M866.4,7502 1221.4,7502 1042.4,7192 687.4,7192 z " fill-rule="evenodd" fill="rgb(255,255,255)" stroke-width="10" stroke="rgb(0,0,0)" />
	<path d="M866.4,7161 1221.4,7161 1042.4,6851 687.4,6851 z " fill-rule="evenodd" fill="rgb(255,255,255)" stroke-width="10" stroke="rgb(0,0,0)" />
	<path d="M866.4,6820 1221.4,6820 1042.4,6510 687.4,6510 z " fill-rule="evenodd" fill="rgb(255,255,255)" stroke-width="10" stroke="rgb(0,0,0)" />
	<path d="M866.4,6479 1221.4,6479 1042.4,6169 687.4,6169 z " fill-rule="evenodd" fill="rgb(255,255,255)" stroke-width="10" stroke="rgb(0,0,0)" />
	<path d="M866.4,6138 1221.4,6138 1042.4,5828 687.4,5828 z " fill-rule="evenodd" fill="rgb(255,255,255)" stroke-width="10" stroke="rgb(0,0,0)" />
	<path d="M866.4,5797 1221.4,5797 1042.4,5487 687.4,5487 z " fill-rule="evenodd" fill="rgb(255,255,255)" stroke-width="10" stroke="rgb(0,0,0)" />
	<path d="M866.4,5456 1221.4,5456 1042.4,5146 687.4,5146 z " fill-rule="evenodd" fill="rgb(255,255,255)" stroke-width="10" stroke="rgb(0,0,0)" />
	<path d="M866.4,5115 1221.4,5115 1042.4,4805 687.4,4805 z " fill-rule="evenodd" fill="rgb(255,255,255)" stroke-width="10" stroke="rgb(0,0,0)" />
	<path d="M866.4,4774 1221.4,4774 1042.4,4464 687.4,4464 z " fill-rule="evenodd" fill="rgb(255,255,255)" stroke-width="10" stroke="rgb(0,0,0)" />
	<path d="M866.4,4433 1221.4,4433 1042.4,4123 687.4,4123 z " fill-rule="evenodd" fill="rgb(255,255,255)" stroke-width="10" stroke="rgb(0,0,0)" />
	<path d="M866.4,4092 1221.4,4092 1042.4,3782 687.4,3782 z " fill-rule="evenodd" fill="rgb(255,255,255)" stroke-width="10" stroke="rgb(0,0,0)" />
	<path d="M866.4,3751 1221.4,3751 1042.4,3441 687.4,3441 z " fill-rule="evenodd" fill="rgb(255,255,255)" stroke-width="10" stroke="rgb(0,0,0)" />
	<path d="M866.4,3410 1221.4,3410 1042.4,3100 687.4,3100 z " fill-rule="evenodd" fill="rgb(255,255,255)" stroke-width="10" stroke="rgb(0,0,0)" />
	<path d="M866.4,3069 1221.4,3069 1042.4,2759 687.4,2759 z " fill-rule="evenodd" fill="rgb(255,255,255)" stroke-width="10" stroke="rgb(0,0,0)" />
	<path d="M866.4,2728 1221.4,2728 1042.4,2418 687.4,2418 z " fill-rule="evenodd" fill="rgb(255,255,255)" stroke-width="10" stroke="rgb(0,0,0)" />
	<path d="M866.4,2387 1221.4,2387 1042.4,2077 687.4,2077 z " fill-rule="evenodd" fill="rgb(255,255,255)" stroke-width="10" stroke="rgb(0,0,0)" />
	<path d="M866.4,2046 1221.4,2046 1042.4,1736 687.4,1736 z " fill-rule="evenodd" fill="rgb(255,255,255)" stroke-width="10" stroke="rgb(0,0,0)" />
	<path d="M866.4,1705 1221.4,1705 1042.4,1395 687.4,1395 z " fill-rule="evenodd" fill="rgb(255,255,255)" stroke-width="10" stroke="rgb(0,0,0)" />
	<path d="M866.4,1364 1221.4,1364 1042.4,1054 687.4,1054 z " fill-rule="evenodd" fill="rgb(255,255,255)" stroke-width="10" stroke="rgb(0,0,0)" />
	<path d="M866.4,1023 1221.4,1023 1042.4,713 687.4,713 z " fill-rule="evenodd" fill="rgb(255,255,255)" stroke-width="10" stroke="rgb(0,0,0)" />
	<path d="M866.4,682 1221.4,682 1042.4,372 687.4,372 z " fill-rule="evenodd" fill="rgb(255,255,255)" stroke-width="10" stroke="rgb(0,0,0)" />
	<path d="M866.4,341 1221.4,341 1042.4,31 687.4,31 z " fill-rule="evenodd" fill="rgb(255,255,255)" stroke-width="10" stroke="rgb(0,0,0)" />
	<path d="M455,12617 100,12617 279,12307 457.309,12307 457.309,12613 455,12617 z " fill-rule="evenodd" fill="rgb(255,0,0)" stroke-width="10" stroke="rgb(0,0,0)" />
	<path d="M455,15686 100,15686 279,15376 457.309,15376 457.309,15682 455,15686 z " fill-rule="evenodd" fill="rgb(255,0,0)" stroke-width="10" stroke="rgb(0,0,0)" />
	<path d="M631.453,11966 452.453,12276 297.453,12276 297.453,11966 631.453,11966 z " fill-rule="evenodd" fill="rgb(255,0,0)" stroke-width="10" stroke="rgb(0,0,0)" />
	<path d="M613,11625 434,11935 279,11935 279,11625 613,11625 z " fill-rule="evenodd" fill="rgb(255,0,0)" stroke-width="10" stroke="rgb(0,0,0)" />
	<path d="M455,14663 100,14663 279,14353 457.309,14353 457.309,14659 455,14663 z " fill-rule="evenodd" fill="rgb(255,0,0)" stroke-width="10" stroke="rgb(0,0,0)" />
	<path d="M630.933,11284 451.933,11594 296.933,11594 296.933,11284 630.933,11284 z " fill-rule="evenodd" fill="rgb(255,0,0)" stroke-width="10" stroke="rgb(0,0,0)" />
	<path d="M455,5456 100,5456 279,5146 634,5146 500.039,5378 457.309,5378 457.309,5452 455,5456 z " fill-rule="evenodd" fill="rgb(255,0,0)" stroke-width="10" stroke="rgb(0,0,0)" />
	<path d="M279,10943 634,10943 455,11253 300,11253 300,11175 145.039,11175 279,10943 z " fill-rule="evenodd" fill="rgb(255,0,0)" stroke-width="10" stroke="rgb(0,0,0)" />
	<path d="M279,4805 634,4805 455,5115 179.238,5115 179.238,4977.77 279,4805 z " fill-rule="evenodd" fill="rgb(255,0,0)" stroke-width="10" stroke="rgb(0,0,0)" />
	<path d="M279,4464 634,4464 455,4774 100,4774 130.026,4722 179.238,4722 179.238,4636.77 279,4464 z " fill-rule="evenodd" fill="rgb(255,0,0)" stroke-width="10" stroke="rgb(0,0,0)" />
	<path d="M279,14012 634,14012 455,14322 179.238,14322 179.238,14184.8 279,14012 z " fill-rule="evenodd" fill="rgb(255,0,0)" stroke-width="10" stroke="rgb(0,0,0)" />
	<path d="M455,4433 100,4433 279,4123 457.309,4123 457.309,4179 601.665,4179 455,4433 z " fill-rule="evenodd" fill="rgb(255,0,0)" stroke-width="10" stroke="rgb(0,0,0)" />
	<path d="M455,4092 100,4092 246.665,3838 300,3838 300,3788 630.535,3788 455,4092 z " fill-rule="evenodd" fill="rgb(255,0,0)" stroke-width="10" stroke="rgb(0,0,0)" />
	<path d="M455,13981 100,13981 275.535,13677 630.535,13677 455,13981 z " fill-rule="evenodd" fill="rgb(255,0,0)" stroke-width="10" stroke="rgb(0,0,0)" />
	<path d="M455,3751 100,3751 275.535,3447 630.535,3447 455,3751 z " fill-rule="evenodd" fill="rgb(255,0,0)" stroke-width="10" stroke="rgb(0,0,0)" />
	<path d="M455,3410 100,3410 275.535,3106 630.535,3106 455,3410 z " fill-rule="evenodd" fill="rgb(255,0,0)" stroke-width="10" stroke="rgb(0,0,0)" />
	<path d="M455,3069 100,3069 275.535,2765 630.535,2765 455,3069 z " fill-rule="evenodd" fill="rgb(255,0,0)" stroke-width="10" stroke="rgb(0,0,0)" />
	<path d="M624.358,10602 526.905,10770.8 526.905,10602 624.358,10602 z " fill-rule="evenodd" fill="rgb(255,0,0)" stroke-width="10" stroke="rgb(0,0,0)" />
	<path d="M100,12276 279,11966 297.453,11966 297.453,12276 100,12276 z " fill-rule="evenodd" fill="rgb(255,0,0)" stroke-width="10" stroke="rgb(0,0,0)" />
	<path d="M166.667,11253 148.214,11253 148.214,11201 196.692,11201 166.667,11253 z " fill-rule="evenodd" fill="rgb(255,0,0)" stroke-width="10" stroke="rgb(0,0,0)" />
	<path d="M624.358,10261 526.905,10429.8 526.905,10261 624.358,10261 z " fill-rule="evenodd" fill="rgb(255,0,0)" stroke-width="10" stroke="rgb(0,0,0)" />
	<path d="M273.672,12657.2 628.672,12657.2 531.219,12826 531.219,12789.2 197.453,12789.2 273.672,12657.2 z " fill-rule="evenodd" fill="rgb(255,0,0)" stroke-width="10" stroke="rgb(0,0,0)" />
	<path d="M279,13330 634,13330 455,13640 356.532,13640 148.672,13555.7 279,13330 z " fill-rule="evenodd" fill="rgb(255,0,0)" stroke-width="10" stroke="rgb(0,0,0)" />
	<path d="M455,15345 100,15345 279,15035 457.309,15035 457.309,15341 455,15345 z " fill-rule="evenodd" fill="rgb(255,0,0)" stroke-width="10" stroke="rgb(0,0,0)" />
	<path d="M455,2728 100,2728 275.535,2424 630.535,2424 455,2728 z " fill-rule="evenodd" fill="rgb(255,0,0)" stroke-width="10" stroke="rgb(0,0,0)" />
	<path d="M176.219,2255 531.219,2255 455,2387 100,2387 176.219,2255 z " fill-rule="evenodd" fill="rgb(255,0,0)" stroke-width="10" stroke="rgb(0,0,0)" />
	<path d="M106.129,10230 172.32,10115.4 454.887,10230 106.129,10230 z " fill-rule="evenodd" fill="rgb(255,0,0)" stroke-width="10" stroke="rgb(0,0,0)" />
	<path d="M229.89,10005.1 584.89,10005.1 455,10230 167.354,10113.4 229.89,10005.1 z " fill-rule="evenodd" fill="rgb(255,0,0)" stroke-width="10" stroke="rgb(0,0,0)" />
	<path d="M455,13299 100,13299 279,12989 457.309,12989 457.309,13295 455,13299 z " fill-rule="evenodd" fill="rgb(255,0,0)" stroke-width="10" stroke="rgb(0,0,0)" />
	<path d="M632.834,9579 556.143,9711.82 556.143,9579 632.834,9579 z " fill-rule="evenodd" fill="rgb(255,0,0)" stroke-width="10" stroke="rgb(0,0,0)" />
	<path d="M279,9238 634,9238 455,9548 200,9548 200,9374.82 279,9238 z " fill-rule="evenodd" fill="rgb(255,0,0)" stroke-width="10" stroke="rgb(0,0,0)" />
	<path d="M455,2046 100,2046 275.535,1742 630.535,1742 455,2046 z " fill-rule="evenodd" fill="rgb(255,0,0)" stroke-width="10" stroke="rgb(0,0,0)" />
	<path d="M252.439,2123 607.439,2123 531.219,2255 176.219,2255 252.439,2123 z " fill-rule="evenodd" fill="rgb(255,0,0)" stroke-width="10" stroke="rgb(0,0,0)" />
	<path d="M409.134,341 137.286,341 225.3,124 475.763,225.608 409.134,341 z " fill-rule="evenodd" fill="rgb(255,0,0)" stroke-width="10" stroke="rgb(0,0,0)" />
	<path d="M550.273,123.056 488.174,230.601 225.439,124.056 225.845,123.056 550.273,123.056 z " fill-rule="evenodd" fill="rgb(255,0,0)" stroke-width="10" stroke="rgb(0,0,0)" />
	<path d="M100,11594 279,11284 296.933,11284 171.062,11594 100,11594 z " fill-rule="evenodd" fill="rgb(255,0,0)" stroke-width="10" stroke="rgb(0,0,0)" />
	<path d="M621.772,8897 442.772,9207 320.895,9207 446.766,8897 621.772,8897 z " fill-rule="evenodd" fill="rgb(255,0,0)" stroke-width="10" stroke="rgb(0,0,0)" />
	<path d="M455,1705 100,1705 275.535,1401 630.535,1401 455,1705 z " fill-rule="evenodd" fill="rgb(255,0,0)" stroke-width="10" stroke="rgb(0,0,0)" />
	<path d="M176.219,12826 531.219,12826 455,12958 100,12958 176.219,12826 z " fill-rule="evenodd" fill="rgb(255,0,0)" stroke-width="10" stroke="rgb(0,0,0)" />
	<path d="M100,9207 279,8897 446.629,8897 320.895,9207 100,9207 z " fill-rule="evenodd" fill="rgb(255,0,0)" stroke-width="10" stroke="rgb(0,0,0)" />
	<path d="M588.873,8556 409.873,8866 184.052,8866 309.922,8556 588.873,8556 z " fill-rule="evenodd" fill="rgb(255,0,0)" stroke-width="10" stroke="rgb(0,0,0)" />
	<path d="M634,1054 455,1364 100,1364 275.535,1060 341.524,1060 341.524,1054 634,1054 z " fill-rule="evenodd" fill="rgb(255,0,0)" stroke-width="10" stroke="rgb(0,0,0)" />
	<path d="M627.524,15035 551.305,15167 457.309,15167 510.848,15035 627.524,15035 z " fill-rule="evenodd" fill="rgb(255,0,0)" stroke-width="10" stroke="rgb(0,0,0)" />
	<path d="M213.744,8375.72 127.544,8525 188.159,8375.72 213.744,8375.72 z " fill-rule="evenodd" fill="rgb(255,0,0)" stroke-width="10" stroke="rgb(0,0,0)" />
	<path d="M279,713 634,713 455,1023 125.235,1023 185.02,875.759 279,713 z " fill-rule="evenodd" fill="rgb(255,0,0)" stroke-width="10" stroke="rgb(0,0,0)" />
	<path d="M588.873,7874 409.873,8184 333.473,8184 459.344,7874 588.873,7874 z " fill-rule="evenodd" fill="rgb(255,0,0)" stroke-width="10" stroke="rgb(0,0,0)" />
	<path d="M455,7843 100,7843 279,7533 526.905,7533 526.905,7718.47 455,7843 z " fill-rule="evenodd" fill="rgb(255,0,0)" stroke-width="10" stroke="rgb(0,0,0)" />
	<path d="M455,10912 100,10912 279,10602 526.905,10602 526.905,10787.5 455,10912 z " fill-rule="evenodd" fill="rgb(255,0,0)" stroke-width="10" stroke="rgb(0,0,0)" />
	<path d="M455,10571 100,10571 279,10261 526.905,10261 526.905,10446.5 455,10571 z " fill-rule="evenodd" fill="rgb(255,0,0)" stroke-width="10" stroke="rgb(0,0,0)" />
	<path d="M455,7502 100,7502 279,7192 526.905,7192 526.905,7377.47 455,7502 z " fill-rule="evenodd" fill="rgb(255,0,0)" stroke-width="10" stroke="rgb(0,0,0)" />
	<path d="M455,15004 100,15004 279,14694 426.905,14694 426.905,14700 526.905,14700 526.905,14879.5 455,15004 z " fill-rule="evenodd" fill="rgb(255,0,0)" stroke-width="10" stroke="rgb(0,0,0)" />
	<path d="M100,8184 279,7874 459.344,7874 333.473,8184 100,8184 z " fill-rule="evenodd" fill="rgb(255,0,0)" stroke-width="10" stroke="rgb(0,0,0)" />
	<path d="M100,7161 279,6851 313.453,6851 313.453,7161 100,7161 z " fill-rule="evenodd" fill="rgb(255,0,0)" stroke-width="10" stroke="rgb(0,0,0)" />
	<path d="M526.905,6851 347.905,7161 313.453,7161 313.453,6851 526.905,6851 z " fill-rule="evenodd" fill="rgb(255,0,0)" stroke-width="10" stroke="rgb(0,0,0)" />
	<path d="M108.261,6820 177.857,6699.47 177.857,6820 108.261,6820 z " fill-rule="evenodd" fill="rgb(255,0,0)" stroke-width="10" stroke="rgb(0,0,0)" />
	<path d="M108.261,6479 177.857,6358.47 177.857,6479 108.261,6479 z " fill-rule="evenodd" fill="rgb(255,0,0)" stroke-width="10" stroke="rgb(0,0,0)" />
	<path d="M596.501,14694 526.905,14814.5 526.905,14694 596.501,14694 z " fill-rule="evenodd" fill="rgb(255,0,0)" stroke-width="10" stroke="rgb(0,0,0)" />
	<path d="M108.261,6138 177.857,6017.47 177.857,6138 108.261,6138 z " fill-rule="evenodd" fill="rgb(255,0,0)" stroke-width="10" stroke="rgb(0,0,0)" />
	<path d="M108.261,5797 177.857,5676.47 177.857,5797 108.261,5797 z " fill-rule="evenodd" fill="rgb(255,0,0)" stroke-width="10" stroke="rgb(0,0,0)" />
	<path d="M616.417,8215 437.417,8525 153.129,8525 279,8215 616.417,8215 z " fill-rule="evenodd" fill="rgb(255,0,0)" stroke-width="10" stroke="rgb(0,0,0)" />
	<path d="M279,5828 634,5828 455,6138 177.857,6138 177.857,6003.16 279,5828 z " fill-rule="evenodd" fill="rgb(255,0,0)" stroke-width="10" stroke="rgb(0,0,0)" />
	<path d="M455,682 100,682 279,372 556.143,372 556.143,506.836 455,682 z " fill-rule="evenodd" fill="rgb(255,0,0)" stroke-width="10" stroke="rgb(0,0,0)" />
	<path d="M279,5487 634,5487 455,5797 177.857,5797 177.857,5662.16 279,5487 z " fill-rule="evenodd" fill="rgb(255,0,0)" stroke-width="10" stroke="rgb(0,0,0)" />
	<path d="M455,9889 100,9889 279,9579 556.143,9579 556.143,9713.84 455,9889 z " fill-rule="evenodd" fill="rgb(255,0,0)" stroke-width="10" stroke="rgb(0,0,0)" />
	<path d="M279,6510 634,6510 455,6820 177.857,6820 177.857,6685.16 279,6510 z " fill-rule="evenodd" fill="rgb(255,0,0)" stroke-width="10" stroke="rgb(0,0,0)" />
	<path d="M100,8866 279,8556 309.922,8556 184.052,8866 100,8866 z " fill-rule="evenodd" fill="rgb(255,0,0)" stroke-width="10" stroke="rgb(0,0,0)" />
	<path d="M279,6169 634,6169 455,6479 177.857,6479 177.857,6344.16 279,6169 z " fill-rule="evenodd" fill="rgb(255,0,0)" stroke-width="10" stroke="rgb(0,0,0)" />
	<path d="M101.166,9548 200,9376.84 200,9548 101.166,9548 z " fill-rule="evenodd" fill="rgb(255,0,0)" stroke-width="10" stroke="rgb(0,0,0)" />
	<path d="M180.166,11935 279,11763.8 279,11935 180.166,11935 z " fill-rule="evenodd" fill="rgb(255,0,0)" stroke-width="10" stroke="rgb(0,0,0)" />
	<path d="M556.143,12307 457.309,12478.2 457.309,12307 556.143,12307 z " fill-rule="evenodd" fill="rgb(255,0,0)" stroke-width="10" stroke="rgb(0,0,0)" />
	<path d="M556.143,15376 457.309,15547.2 457.309,15376 556.143,15376 z " fill-rule="evenodd" fill="rgb(255,0,0)" stroke-width="10" stroke="rgb(0,0,0)" />
	<path d="M625.739,7533 526.905,7704.16 526.905,7533 625.739,7533 z " fill-rule="evenodd" fill="rgb(255,0,0)" stroke-width="10" stroke="rgb(0,0,0)" />
	<path d="M625.739,7192 526.905,7363.16 526.905,7192 625.739,7192 z " fill-rule="evenodd" fill="rgb(255,0,0)" stroke-width="10" stroke="rgb(0,0,0)" />
	<path d="M1042.4,15376 1044.71,15380 1044.71,15686 866.4,15686 687.4,15376 1042.4,15376 z " fill-rule="evenodd" fill="rgb(255,0,0)" stroke-width="10" stroke="rgb(0,0,0)" />
	<path d="M1021.4,3782 1200.4,4092 866.4,4092 866.4,3782 1021.4,3782 z " fill-rule="evenodd" fill="rgb(255,0,0)" stroke-width="10" stroke="rgb(0,0,0)" />
	<path d="M1042.4,10261 1044.71,10265 1044.71,10571 866.4,10571 687.4,10261 1042.4,10261 z " fill-rule="evenodd" fill="rgb(255,0,0)" stroke-width="10" stroke="rgb(0,0,0)" />
	<path d="M1021.4,3441 1200.4,3751 866.4,3751 866.4,3441 1021.4,3441 z " fill-rule="evenodd" fill="rgb(255,0,0)" stroke-width="10" stroke="rgb(0,0,0)" />
	<path d="M1042.4,9920 1044.71,9924 1044.71,10230 866.4,10230 687.4,9920 1042.4,9920 z " fill-rule="evenodd" fill="rgb(255,0,0)" stroke-width="10" stroke="rgb(0,0,0)" />
	<path d="M1039.85,9579 1218.85,9889 884.853,9889 884.853,9579 1039.85,9579 z " fill-rule="evenodd" fill="rgb(255,0,0)" stroke-width="10" stroke="rgb(0,0,0)" />
	<path d="M1042.4,3100 1221.4,3410 866.4,3410 766.638,3237.23 766.638,3122 700.103,3122 687.4,3100 1042.4,3100 z " fill-rule="evenodd" fill="rgb(255,0,0)" stroke-width="10" stroke="rgb(0,0,0)" />
	<path d="M1042.4,2759 1221.4,3069 866.4,3069 766.638,2896.23 766.638,2759 1042.4,2759 z " fill-rule="evenodd" fill="rgb(255,0,0)" stroke-width="10" stroke="rgb(0,0,0)" />
	<path d="M728.601,9255.4 741.304,9277.4 710.148,9277.4 710.148,9255.4 728.601,9255.4 z " fill-rule="evenodd" fill="rgb(255,0,0)" stroke-width="10" stroke="rgb(0,0,0)" />
	<path d="M1145.46,341 1048.01,341 1048.01,172.227 1145.46,341 z " fill-rule="evenodd" fill="rgb(255,0,0)" stroke-width="10" stroke="rgb(0,0,0)" />
	<path d="M866.4,9889 687.4,9579 884.853,9579 884.853,9889 866.4,9889 z " fill-rule="evenodd" fill="rgb(255,0,0)" stroke-width="10" stroke="rgb(0,0,0)" />
	<path d="M1142.16,9207 1044.71,9207 1044.71,9038.23 1142.16,9207 z " fill-rule="evenodd" fill="rgb(255,0,0)" stroke-width="10" stroke="rgb(0,0,0)" />
	<path d="M1138.25,10521.5 1166.84,10571 1044.71,10521.5 1138.25,10521.5 z " fill-rule="evenodd" fill="rgb(255,0,0)" stroke-width="10" stroke="rgb(0,0,0)" />
	<path d="M1221.4,15345 866.4,15345 688.508,15036.9 1023.95,15173 1023.95,15303 1123.95,15303 1123.95,15176.2 1221.4,15345 z " fill-rule="evenodd" fill="rgb(255,0,0)" stroke-width="10" stroke="rgb(0,0,0)" />
	<path d="M1042.4,13330 1221.4,13640 866.4,13640 766.638,13467.2 766.638,13401 716.705,13380.8 687.4,13330 1042.4,13330 z " fill-rule="evenodd" fill="rgb(255,0,0)" stroke-width="10" stroke="rgb(0,0,0)" />
	<path d="M1042.4,8897 1044.71,8901 1044.71,9207 866.4,9207 687.4,8897 1042.4,8897 z " fill-rule="evenodd" fill="rgb(255,0,0)" stroke-width="10" stroke="rgb(0,0,0)" />
	<path d="M1041.09,2418 1042.8,2418.69 1221.4,2728 866.4,2728 687.4,2418 1041.09,2418 z " fill-rule="evenodd" fill="rgb(255,0,0)" stroke-width="10" stroke="rgb(0,0,0)" />
	<path d="M1042.4,14694 1044.71,14698 1044.71,15004 866.4,15004 687.4,14694 1042.4,14694 z " fill-rule="evenodd" fill="rgb(255,0,0)" stroke-width="10" stroke="rgb(0,0,0)" />
	<path d="M1121.4,540 1203.39,682 866.4,682 866.4,540 1121.4,540 z " fill-rule="evenodd" fill="rgb(255,0,0)" stroke-width="10" stroke="rgb(0,0,0)" />
	<path d="M1042.4,8556 1221.4,8866 866.4,8866 735.767,8639.76 769.741,8556 1042.4,8556 z " fill-rule="evenodd" fill="rgb(255,0,0)" stroke-width="10" stroke="rgb(0,0,0)" />
	<path d="M1011.02,8215 1190.02,8525 866.4,8525 992.271,8215 1011.02,8215 z " fill-rule="evenodd" fill="rgb(255,0,0)" stroke-width="10" stroke="rgb(0,0,0)" />
	<path d="M699.491,8556 769.741,8556 740.737,8627.43 699.491,8556 z " fill-rule="evenodd" fill="rgb(255,0,0)" stroke-width="10" stroke="rgb(0,0,0)" />
	<path d="M1042.4,14353 1221.4,14663 866.4,14663 823.798,14589.2 919.711,14353 1042.4,14353 z " fill-rule="evenodd" fill="rgb(255,0,0)" stroke-width="10" stroke="rgb(0,0,0)" />
	<path d="M1042.4,2077 1221.4,2387 1144.71,2387 1144.71,2343 1044.71,2343 1044.71,2387 866.4,2387 687.4,2077 1042.4,2077 z " fill-rule="evenodd" fill="rgb(255,0,0)" stroke-width="10" stroke="rgb(0,0,0)" />
	<path d="M1116.31,12776 1198.3,12918 843.303,12918 761.31,12776 1116.31,12776 z " fill-rule="evenodd" fill="rgb(255,0,0)" stroke-width="10" stroke="rgb(0,0,0)" />
	<path d="M1042.4,7874 1221.4,8184 866.4,8184 796.985,8063.78 873.96,7874 1042.4,7874 z " fill-rule="evenodd" fill="rgb(255,0,0)" stroke-width="10" stroke="rgb(0,0,0)" />
	<path d="M699.529,14353 919.612,14353 828.805,14576.9 699.529,14353 z " fill-rule="evenodd" fill="rgb(255,0,0)" stroke-width="10" stroke="rgb(0,0,0)" />
	<path d="M1218.9,15686 1044.71,15686 1116.63,15508.9 1218.9,15686 z " fill-rule="evenodd" fill="rgb(255,0,0)" stroke-width="10" stroke="rgb(0,0,0)" />
	<path d="M1042.4,7533 1221.4,7843 866.4,7843 762.769,7663.53 815.767,7533 1042.4,7533 z " fill-rule="evenodd" fill="rgb(255,0,0)" stroke-width="10" stroke="rgb(0,0,0)" />
	<path d="M1042.4,1736 1065.5,1776 1044.71,1776 1044.71,1926 1144.71,1926 1144.71,1913.18 1221.4,2046 866.4,2046 687.4,1736 1042.4,1736 z " fill-rule="evenodd" fill="rgb(255,0,0)" stroke-width="10" stroke="rgb(0,0,0)" />
	<path d="M1100.14,13089 1123.24,13129 768.239,13129 745.142,13089 1100.14,13089 z " fill-rule="evenodd" fill="rgb(255,0,0)" stroke-width="10" stroke="rgb(0,0,0)" />
	<path d="M1177.52,11518 822.516,11518 743.516,11381.2 743.516,11348 1079.35,11348 1177.52,11518 z " fill-rule="evenodd" fill="rgb(255,0,0)" stroke-width="10" stroke="rgb(0,0,0)" />
	<path d="M1077.05,13049 1100.14,13089 745.142,13089 722.045,13049 1077.05,13049 z " fill-rule="evenodd" fill="rgb(255,0,0)" stroke-width="10" stroke="rgb(0,0,0)" />
	<path d="M1221.4,13299 866.4,13299 768.239,13129 1123.24,13129 1221.4,13299 z " fill-rule="evenodd" fill="rgb(255,0,0)" stroke-width="10" stroke="rgb(0,0,0)" />
	<path d="M1095.52,11035 1177.52,11177 822.516,11177 740.523,11035 1095.52,11035 z " fill-rule="evenodd" fill="rgb(255,0,0)" stroke-width="10" stroke="rgb(0,0,0)" />
	<path d="M1053.95,13009 1077.05,13049 722.045,13049 698.948,13009 1053.95,13009 z " fill-rule="evenodd" fill="rgb(255,0,0)" stroke-width="10" stroke="rgb(0,0,0)" />
	<path d="M1177.52,10836 822.516,10836 724.355,10666 1079.35,10666 1177.52,10836 z " fill-rule="evenodd" fill="rgb(255,0,0)" stroke-width="10" stroke="rgb(0,0,0)" />
	<path d="M755.535,149 1048.01,149 1048.01,341 866.4,341 755.535,149 z " fill-rule="evenodd" fill="rgb(255,0,0)" stroke-width="10" stroke="rgb(0,0,0)" />
	<path d="M699.85,7533 815.715,7533 767.909,7650.87 699.85,7533 z " fill-rule="evenodd" fill="rgb(255,0,0)" stroke-width="10" stroke="rgb(0,0,0)" />
	<path d="M703.095,8242.18 981.234,8242.18 866.4,8525 703.095,8242.18 z " fill-rule="evenodd" fill="rgb(255,0,0)" stroke-width="10" stroke="rgb(0,0,0)" />
	<path d="M1042.4,1395 1221.4,1705 866.4,1705 701.739,1419.83 711.823,1395 1042.4,1395 z " fill-rule="evenodd" fill="rgb(255,0,0)" stroke-width="10" stroke="rgb(0,0,0)" />
	<path d="M1139.41,1222 1221.4,1364 866.4,1364 784.406,1222 1139.41,1222 z " fill-rule="evenodd" fill="rgb(255,0,0)" stroke-width="10" stroke="rgb(0,0,0)" />
	<path d="M1198.3,12918 1221.4,12958 866.4,12958 843.303,12918 1198.3,12918 z " fill-rule="evenodd" fill="rgb(255,0,0)" stroke-width="10" stroke="rgb(0,0,0)" />
	<path d="M1221.4,12617 866.4,12617 768.239,12447 1123.24,12447 1221.4,12617 z " fill-rule="evenodd" fill="rgb(255,0,0)" stroke-width="10" stroke="rgb(0,0,0)" />
	<path d="M1221.4,12276 866.4,12276 755.535,12084 1110.54,12084 1221.4,12276 z " fill-rule="evenodd" fill="rgb(255,0,0)" stroke-width="10" stroke="rgb(0,0,0)" />
	<path d="M1086.32,540 1061.55,540 1071.78,514.81 1086.32,540 z " fill-rule="evenodd" fill="rgb(255,0,0)" stroke-width="10" stroke="rgb(0,0,0)" />
	<path d="M1042.4,7192 1221.4,7502 866.4,7502 850.499,7474.46 965.188,7192 1042.4,7192 z " fill-rule="evenodd" fill="rgb(255,0,0)" stroke-width="10" stroke="rgb(0,0,0)" />
	<path d="M1057.41,1080 1139.41,1222 784.406,1222 702.413,1080 1057.41,1080 z " fill-rule="evenodd" fill="rgb(255,0,0)" stroke-width="10" stroke="rgb(0,0,0)" />
	<path d="M1100.14,12407 1123.24,12447 768.239,12447 745.142,12407 1100.14,12407 z " fill-rule="evenodd" fill="rgb(255,0,0)" stroke-width="10" stroke="rgb(0,0,0)" />
	<path d="M1221.4,11935 866.4,11935 768.239,11765 1123.24,11765 1221.4,11935 z " fill-rule="evenodd" fill="rgb(255,0,0)" stroke-width="10" stroke="rgb(0,0,0)" />
	<path d="M1042.4,6851 1114.31,6975.53 1114.31,7161 866.4,7161 687.4,6851 1042.4,6851 z " fill-rule="evenodd" fill="rgb(255,0,0)" stroke-width="10" stroke="rgb(0,0,0)" />
	<path d="M1042.4,6510 1114.31,6634.53 1114.31,6820 866.4,6820 687.4,6510 1042.4,6510 z " fill-rule="evenodd" fill="rgb(255,0,0)" stroke-width="10" stroke="rgb(0,0,0)" />
	<path d="M1042.4,6169 1114.31,6293.53 1114.31,6479 866.4,6479 687.4,6169 1042.4,6169 z " fill-rule="evenodd" fill="rgb(255,0,0)" stroke-width="10" stroke="rgb(0,0,0)" />
	<path d="M1042.4,14012 1114.31,14136.5 1114.31,14322 866.4,14322 687.4,14012 1042.4,14012 z " fill-rule="evenodd" fill="rgb(255,0,0)" stroke-width="10" stroke="rgb(0,0,0)" />
	<path d="M798.264,6020 687.4,5828 946.17,5828 946.17,6020 798.264,6020 z " fill-rule="evenodd" fill="rgb(255,0,0)" stroke-width="10" stroke="rgb(0,0,0)" />
	<path d="M745.243,7874 873.96,7874 820.817,8004.88 745.243,7874 z " fill-rule="evenodd" fill="rgb(255,0,0)" stroke-width="10" stroke="rgb(0,0,0)" />
	<path d="M1042.4,5487 1221.4,5797 866.4,5797 789.47,5663.77 861.244,5487 1042.4,5487 z " fill-rule="evenodd" fill="rgb(255,0,0)" stroke-width="10" stroke="rgb(0,0,0)" />
	<path d="M934.614,5146 934.614,5288 803.155,5288 721.161,5146 934.614,5146 z " fill-rule="evenodd" fill="rgb(255,0,0)" stroke-width="10" stroke="rgb(0,0,0)" />
	<path d="M946.17,6138 946.17,5828 980.622,5828 1159.62,6138 946.17,6138 z " fill-rule="evenodd" fill="rgb(255,0,0)" stroke-width="10" stroke="rgb(0,0,0)" />
	<path d="M1077.05,12367 1100.14,12407 745.142,12407 722.045,12367 1077.05,12367 z " fill-rule="evenodd" fill="rgb(255,0,0)" stroke-width="10" stroke="rgb(0,0,0)" />
	<path d="M1079.16,10060 1177.32,10230 1044.71,10230 1044.71,10060 1079.16,10060 z " fill-rule="evenodd" fill="rgb(255,0,0)" stroke-width="10" stroke="rgb(0,0,0)" />
	<path d="M765.257,13671 765.257,13791.5 695.661,13671 765.257,13671 z " fill-rule="evenodd" fill="rgb(255,0,0)" stroke-width="10" stroke="rgb(0,0,0)" />
	<path d="M765.257,4819.31 765.257,4939.84 695.661,4819.31 765.257,4819.31 z " fill-rule="evenodd" fill="rgb(255,0,0)" stroke-width="10" stroke="rgb(0,0,0)" />
	<path d="M765.257,4478.31 765.257,4598.84 695.661,4478.31 765.257,4478.31 z " fill-rule="evenodd" fill="rgb(255,0,0)" stroke-width="10" stroke="rgb(0,0,0)" />
	<path d="M765.257,4137.31 765.257,4257.84 695.661,4137.31 765.257,4137.31 z " fill-rule="evenodd" fill="rgb(255,0,0)" stroke-width="10" stroke="rgb(0,0,0)" />
	<path d="M732.527,7192 965.188,7192 869.13,7428.58 732.527,7192 z " fill-rule="evenodd" fill="rgb(255,0,0)" stroke-width="10" stroke="rgb(0,0,0)" />
	<path d="M1042.4,9238 1221.4,9548 866.4,9548 728.441,9309.08 757.3,9238 1042.4,9238 z " fill-rule="evenodd" fill="rgb(255,0,0)" stroke-width="10" stroke="rgb(0,0,0)" />
	<path d="M1053.95,12327 1077.05,12367 722.045,12367 698.948,12327 1053.95,12327 z " fill-rule="evenodd" fill="rgb(255,0,0)" stroke-width="10" stroke="rgb(0,0,0)" />
	<path d="M866.4,5115 765.257,4939.84 765.257,4805 1042.4,4805 1221.4,5115 866.4,5115 z " fill-rule="evenodd" fill="rgb(255,0,0)" stroke-width="10" stroke="rgb(0,0,0)" />
	<path d="M866.4,4774 765.257,4598.84 765.257,4464 1042.4,4464 1221.4,4774 866.4,4774 z " fill-rule="evenodd" fill="rgb(255,0,0)" stroke-width="10" stroke="rgb(0,0,0)" />
	<path d="M866.4,4433 765.257,4257.84 765.257,4123 1042.4,4123 1221.4,4433 866.4,4433 z " fill-rule="evenodd" fill="rgb(255,0,0)" stroke-width="10" stroke="rgb(0,0,0)" />
	<path d="M1042.4,713 1143.54,888.164 1143.54,1023 866.4,1023 687.4,713 1042.4,713 z " fill-rule="evenodd" fill="rgb(255,0,0)" stroke-width="10" stroke="rgb(0,0,0)" />
	<path d="M1024.01,5146 1203.01,5456 866.4,5456 992.271,5146 1024.01,5146 z " fill-rule="evenodd" fill="rgb(255,0,0)" stroke-width="10" stroke="rgb(0,0,0)" />
	<path d="M866.4,13981 765.257,13805.8 765.257,13671 1042.4,13671 1221.4,13981 866.4,13981 z " fill-rule="evenodd" fill="rgb(255,0,0)" stroke-width="10" stroke="rgb(0,0,0)" />
	<path d="M1143.54,14964 1143.54,15004 1067.81,15004 1044.71,14964 1143.54,14964 z " fill-rule="evenodd" fill="rgb(255,0,0)" stroke-width="10" stroke="rgb(0,0,0)" />
	<path d="M1114.31,7161 1114.31,6989.84 1213.14,7161 1114.31,7161 z " fill-rule="evenodd" fill="rgb(255,0,0)" stroke-width="10" stroke="rgb(0,0,0)" />
	<path d="M1114.31,14322 1114.31,14150.8 1213.14,14322 1114.31,14322 z " fill-rule="evenodd" fill="rgb(255,0,0)" stroke-width="10" stroke="rgb(0,0,0)" />
	<path d="M1114.31,6479 1114.31,6307.84 1213.14,6479 1114.31,6479 z " fill-rule="evenodd" fill="rgb(255,0,0)" stroke-width="10" stroke="rgb(0,0,0)" />
	<path d="M1114.31,6820 1114.31,6648.84 1213.14,6820 1114.31,6820 z " fill-rule="evenodd" fill="rgb(255,0,0)" stroke-width="10" stroke="rgb(0,0,0)" />
	<path d="M791.745,5487 791.745,5658.16 692.912,5487 791.745,5487 z " fill-rule="evenodd" fill="rgb(255,0,0)" stroke-width="10" stroke="rgb(0,0,0)" />
	<path d="M1009.3,15112.9 926.062,15112.9 956.92,15036.9 965.417,15036.9 1009.3,15112.9 z " fill-rule="evenodd" fill="rgb(255,0,0)" stroke-width="10" stroke="rgb(0,0,0)" />
	<path d="M1116.31,12776 761.31,12776 717.426,12700 1072.43,12700 1116.31,12776 z " fill-rule="evenodd" fill="rgb(255,0,0)" stroke-width="10" stroke="rgb(0,0,0)" />
	<path d="M1110.54,12084 755.535,12084 711.652,12008 1066.65,12008 1110.54,12084 z " fill-rule="evenodd" fill="rgb(255,0,0)" stroke-width="10" stroke="rgb(0,0,0)" />
	<path d="M1123.24,11765 768.239,11765 724.355,11689 1079.35,11689 1123.24,11765 z " fill-rule="evenodd" fill="rgb(255,0,0)" stroke-width="10" stroke="rgb(0,0,0)" />
	<path d="M1095.52,11035 740.523,11035 696.639,10959 1051.64,10959 1095.52,11035 z " fill-rule="evenodd" fill="rgb(255,0,0)" stroke-width="10" stroke="rgb(0,0,0)" />
	<path d="M1221.4,11594 866.4,11594 822.516,11518 1177.52,11518 1221.4,11594 z " fill-rule="evenodd" fill="rgb(255,0,0)" stroke-width="10" stroke="rgb(0,0,0)" />
	<path d="M1221.4,11253 866.4,11253 822.516,11177 1177.52,11177 1221.4,11253 z " fill-rule="evenodd" fill="rgb(255,0,0)" stroke-width="10" stroke="rgb(0,0,0)" />
	<path d="M1221.4,10912 866.4,10912 822.516,10836 1177.52,10836 1221.4,10912 z " fill-rule="evenodd" fill="rgb(255,0,0)" stroke-width="10" stroke="rgb(0,0,0)" />
	<path d="M784.406,540 740.523,464 1061.55,464 1061.55,540 784.406,540 z " fill-rule="evenodd" fill="rgb(255,0,0)" stroke-width="10" stroke="rgb(0,0,0)" />
</svg>
