<?xml version="1.0" standalone="no" ?>
<!DOCTYPE svg PUBLIC "-//W3C//DTD SVG 1.1//EN" "http://www.w3.org/Graphics/SVG/1.1/DTD/svg11.dtd">
<svg width="1435px" height="14763px" xmlns="http://www.w3.org/2000/svg" version="1.1" >
	<path d="M100,14663 455,14663 634,14353 279,14353 z " fill-rule="evenodd" fill="rgb(255,255,255)" stroke-width="10" stroke="rgb(0,0,0)" />
	<path d="M100,14322 455,14322 634,14012 279,14012 z " fill-rule="evenodd" fill="rgb(255,255,255)" stroke-width="10" stroke="rgb(0,0,0)" />
	<path d="M100,13981 455,13981 634,13671 279,13671 z " fill-rule="evenodd" fill="rgb(255,255,255)" stroke-width="10" stroke="rgb(0,0,0)" />
	<path d="M100,13640 455,13640 634,13330 279,13330 z " fill-rule="evenodd" fill="rgb(255,255,255)" stroke-width="10" stroke="rgb(0,0,0)" />
	<path d="M100,13299 455,13299 634,12989 279,12989 z " fill-rule="evenodd" fill="rgb(255,255,255)" stroke-width="10" stroke="rgb(0,0,0)" />
	<path d="M100,12958 455,12958 634,12648 279,12648 z " fill-rule="evenodd" fill="rgb(255,255,255)" stroke-width="10" stroke="rgb(0,0,0)" />
	<path d="M100,12617 455,12617 634,12307 279,12307 z " fill-rule="evenodd" fill="rgb(255,255,255)" stroke-width="10" stroke="rgb(0,0,0)" />
	<path d="M100,12276 455,12276 634,11966 279,11966 z " fill-rule="evenodd" fill="rgb(255,255,255)" stroke-width="10" stroke="rgb(0,0,0)" />
	<path d="M100,11935 455,11935 634,11625 279,11625 z " fill-rule="evenodd" fill="rgb(255,255,255)" stroke-width="10" stroke="rgb(0,0,0)" />
	<path d="M100,11594 455,11594 634,11284 279,11284 z " fill-rule="evenodd" fill="rgb(255,255,255)" stroke-width="10" stroke="rgb(0,0,0)" />
	<path d="M100,11253 455,11253 634,10943 279,10943 z " fill-rule="evenodd" fill="rgb(255,255,255)" stroke-width="10" stroke="rgb(0,0,0)" />
	<path d="M100,10912 455,10912 634,10602 279,10602 z " fill-rule="evenodd" fill="rgb(255,255,255)" stroke-width="10" stroke="rgb(0,0,0)" />
	<path d="M100,10571 455,10571 634,10261 279,10261 z " fill-rule="evenodd" fill="rgb(255,255,255)" stroke-width="10" stroke="rgb(0,0,0)" />
	<path d="M100,10230 455,10230 634,9920 279,9920 z " fill-rule="evenodd" fill="rgb(255,255,255)" stroke-width="10" stroke="rgb(0,0,0)" />
	<path d="M100,9889 455,9889 634,9579 279,9579 z " fill-rule="evenodd" fill="rgb(255,255,255)" stroke-width="10" stroke="rgb(0,0,0)" />
	<path d="M100,9548 455,9548 634,9238 279,9238 z " fill-rule="evenodd" fill="rgb(255,255,255)" stroke-width="10" stroke="rgb(0,0,0)" />
	<path d="M100,9207 455,9207 634,8897 279,8897 z " fill-rule="evenodd" fill="rgb(255,255,255)" stroke-width="10" stroke="rgb(0,0,0)" />
	<path d="M100,8866 455,8866 634,8556 279,8556 z " fill-rule="evenodd" fill="rgb(255,255,255)" stroke-width="10" stroke="rgb(0,0,0)" />
	<path d="M100,8525 455,8525 634,8215 279,8215 z " fill-rule="evenodd" fill="rgb(255,255,255)" stroke-width="10" stroke="rgb(0,0,0)" />
	<path d="M100,8184 455,8184 634,7874 279,7874 z " fill-rule="evenodd" fill="rgb(255,255,255)" stroke-width="10" stroke="rgb(0,0,0)" />
	<path d="M100,7843 455,7843 634,7533 279,7533 z " fill-rule="evenodd" fill="rgb(255,255,255)" stroke-width="10" stroke="rgb(0,0,0)" />
	<path d="M100,7502 455,7502 634,7192 279,7192 z " fill-rule="evenodd" fill="rgb(255,255,255)" stroke-width="10" stroke="rgb(0,0,0)" />
	<path d="M100,7161 455,7161 634,6851 279,6851 z " fill-rule="evenodd" fill="rgb(255,255,255)" stroke-width="10" stroke="rgb(0,0,0)" />
	<path d="M100,6820 455,6820 634,6510 279,6510 z " fill-rule="evenodd" fill="rgb(255,255,255)" stroke-width="10" stroke="rgb(0,0,0)" />
	<path d="M100,6479 455,6479 634,6169 279,6169 z " fill-rule="evenodd" fill="rgb(255,255,255)" stroke-width="10" stroke="rgb(0,0,0)" />
	<path d="M100,6138 455,6138 634,5828 279,5828 z " fill-rule="evenodd" fill="rgb(255,255,255)" stroke-width="10" stroke="rgb(0,0,0)" />
	<path d="M100,5797 455,5797 634,5487 279,5487 z " fill-rule="evenodd" fill="rgb(255,255,255)" stroke-width="10" stroke="rgb(0,0,0)" />
	<path d="M100,5456 455,5456 634,5146 279,5146 z " fill-rule="evenodd" fill="rgb(255,255,255)" stroke-width="10" stroke="rgb(0,0,0)" />
	<path d="M100,5115 455,5115 634,4805 279,4805 z " fill-rule="evenodd" fill="rgb(255,255,255)" stroke-width="10" stroke="rgb(0,0,0)" />
	<path d="M100,4774 455,4774 634,4464 279,4464 z " fill-rule="evenodd" fill="rgb(255,255,255)" stroke-width="10" stroke="rgb(0,0,0)" />
	<path d="M100,4433 455,4433 634,4123 279,4123 z " fill-rule="evenodd" fill="rgb(255,255,255)" stroke-width="10" stroke="rgb(0,0,0)" />
	<path d="M100,4092 455,4092 634,3782 279,3782 z " fill-rule="evenodd" fill="rgb(255,255,255)" stroke-width="10" stroke="rgb(0,0,0)" />
	<path d="M100,3751 455,3751 634,3441 279,3441 z " fill-rule="evenodd" fill="rgb(255,255,255)" stroke-width="10" stroke="rgb(0,0,0)" />
	<path d="M100,3410 455,3410 634,3100 279,3100 z " fill-rule="evenodd" fill="rgb(255,255,255)" stroke-width="10" stroke="rgb(0,0,0)" />
	<path d="M100,3069 455,3069 634,2759 279,2759 z " fill-rule="evenodd" fill="rgb(255,255,255)" stroke-width="10" stroke="rgb(0,0,0)" />
	<path d="M100,2728 455,2728 634,2418 279,2418 z " fill-rule="evenodd" fill="rgb(255,255,255)" stroke-width="10" stroke="rgb(0,0,0)" />
	<path d="M100,2387 455,2387 634,2077 279,2077 z " fill-rule="evenodd" fill="rgb(255,255,255)" stroke-width="10" stroke="rgb(0,0,0)" />
	<path d="M100,2046 455,2046 634,1736 279,1736 z " fill-rule="evenodd" fill="rgb(255,255,255)" stroke-width="10" stroke="rgb(0,0,0)" />
	<path d="M100,1705 455,1705 634,1395 279,1395 z " fill-rule="evenodd" fill="rgb(255,255,255)" stroke-width="10" stroke="rgb(0,0,0)" />
	<path d="M100,1364 455,1364 634,1054 279,1054 z " fill-rule="evenodd" fill="rgb(255,255,255)" stroke-width="10" stroke="rgb(0,0,0)" />
	<path d="M100,1023 455,1023 634,713 279,713 z " fill-rule="evenodd" fill="rgb(255,255,255)" stroke-width="10" stroke="rgb(0,0,0)" />
	<path d="M100,682 455,682 634,372 279,372 z " fill-rule="evenodd" fill="rgb(255,255,255)" stroke-width="10" stroke="rgb(0,0,0)" />
	<path d="M100,341 455,341 634,31 279,31 z " fill-rule="evenodd" fill="rgb(255,255,255)" stroke-width="10" stroke="rgb(0,0,0)" />
	<path d="M866.4,14663 1221.4,14663 1042.4,14353 687.4,14353 z " fill-rule="evenodd" fill="rgb(255,255,255)" stroke-width="10" stroke="rgb(0,0,0)" />
	<path d="M866.4,14322 1221.4,14322 1042.4,14012 687.4,14012 z " fill-rule="evenodd" fill="rgb(255,255,255)" stroke-width="10" stroke="rgb(0,0,0)" />
	<path d="M866.4,13981 1221.4,13981 1042.4,13671 687.4,13671 z " fill-rule="evenodd" fill="rgb(255,255,255)" stroke-width="10" stroke="rgb(0,0,0)" />
	<path d="M866.4,13640 1221.4,13640 1042.4,13330 687.4,13330 z " fill-rule="evenodd" fill="rgb(255,255,255)" stroke-width="10" stroke="rgb(0,0,0)" />
	<path d="M866.4,13299 1221.4,13299 1042.4,12989 687.4,12989 z " fill-rule="evenodd" fill="rgb(255,255,255)" stroke-width="10" stroke="rgb(0,0,0)" />
	<path d="M866.4,12958 1221.4,12958 1042.4,12648 687.4,12648 z " fill-rule="evenodd" fill="rgb(255,255,255)" stroke-width="10" stroke="rgb(0,0,0)" />
	<path d="M866.4,12617 1221.4,12617 1042.4,12307 687.4,12307 z " fill-rule="evenodd" fill="rgb(255,255,255)" stroke-width="10" stroke="rgb(0,0,0)" />
	<path d="M866.4,12276 1221.4,12276 1042.4,11966 687.4,11966 z " fill-rule="evenodd" fill="rgb(255,255,255)" stroke-width="10" stroke="rgb(0,0,0)" />
	<path d="M866.4,11935 1221.4,11935 1042.4,11625 687.4,11625 z " fill-rule="evenodd" fill="rgb(255,255,255)" stroke-width="10" stroke="rgb(0,0,0)" />
	<path d="M866.4,11594 1221.4,11594 1042.4,11284 687.4,11284 z " fill-rule="evenodd" fill="rgb(255,255,255)" stroke-width="10" stroke="rgb(0,0,0)" />
	<path d="M866.4,11253 1221.4,11253 1042.4,10943 687.4,10943 z " fill-rule="evenodd" fill="rgb(255,255,255)" stroke-width="10" stroke="rgb(0,0,0)" />
	<path d="M866.4,10912 1221.4,10912 1042.4,10602 687.4,10602 z " fill-rule="evenodd" fill="rgb(255,255,255)" stroke-width="10" stroke="rgb(0,0,0)" />
	<path d="M866.4,10571 1221.4,10571 1042.4,10261 687.4,10261 z " fill-rule="evenodd" fill="rgb(255,255,255)" stroke-width="10" stroke="rgb(0,0,0)" />
	<path d="M866.4,10230 1221.4,10230 1042.4,9920 687.4,9920 z " fill-rule="evenodd" fill="rgb(255,255,255)" stroke-width="10" stroke="rgb(0,0,0)" />
	<path d="M866.4,9889 1221.4,9889 1042.4,9579 687.4,9579 z " fill-rule="evenodd" fill="rgb(255,255,255)" stroke-width="10" stroke="rgb(0,0,0)" />
	<path d="M866.4,9548 1221.4,9548 1042.4,9238 687.4,9238 z " fill-rule="evenodd" fill="rgb(255,255,255)" stroke-width="10" stroke="rgb(0,0,0)" />
	<path d="M866.4,9207 1221.4,9207 1042.4,8897 687.4,8897 z " fill-rule="evenodd" fill="rgb(255,255,255)" stroke-width="10" stroke="rgb(0,0,0)" />
	<path d="M866.4,8866 1221.4,8866 1042.4,8556 687.4,8556 z " fill-rule="evenodd" fill="rgb(255,255,255)" stroke-width="10" stroke="rgb(0,0,0)" />
	<path d="M866.4,8525 1221.4,8525 1042.4,8215 687.4,8215 z " fill-rule="evenodd" fill="rgb(255,255,255)" stroke-width="10" stroke="rgb(0,0,0)" />
	<path d="M866.4,8184 1221.4,8184 1042.4,7874 687.4,7874 z " fill-rule="evenodd" fill="rgb(255,255,255)" stroke-width="10" stroke="rgb(0,0,0)" />
	<path d="M866.4,7843 1221.4,7843 1042.4,7533 687.4,7533 z " fill-rule="evenodd" fill="rgb(255,255,255)" stroke-width="10" stroke="rgb(0,0,0)" />
	<path d="M866.4,7502 1221.4,7502 1042.4,7192 687.4,7192 z " fill-rule="evenodd" fill="rgb(255,255,255)" stroke-width="10" stroke="rgb(0,0,0)" />
	<path d="M866.4,7161 1221.4,7161 1042.4,6851 687.4,6851 z " fill-rule="evenodd" fill="rgb(255,255,255)" stroke-width="10" stroke="rgb(0,0,0)" />
	<path d="M866.4,6820 1221.4,6820 1042.4,6510 687.4,6510 z " fill-rule="evenodd" fill="rgb(255,255,255)" stroke-width="10" stroke="rgb(0,0,0)" />
	<path d="M866.4,6479 1221.4,6479 1042.4,6169 687.4,6169 z " fill-rule="evenodd" fill="rgb(255,255,255)" stroke-width="10" stroke="rgb(0,0,0)" />
	<path d="M866.4,6138 1221.4,6138 1042.4,5828 687.4,5828 z " fill-rule="evenodd" fill="rgb(255,255,255)" stroke-width="10" stroke="rgb(0,0,0)" />
	<path d="M866.4,5797 1221.4,5797 1042.4,5487 687.4,5487 z " fill-rule="evenodd" fill="rgb(255,255,255)" stroke-width="10" stroke="rgb(0,0,0)" />
	<path d="M866.4,5456 1221.4,5456 1042.4,5146 687.4,5146 z " fill-rule="evenodd" fill="rgb(255,255,255)" stroke-width="10" stroke="rgb(0,0,0)" />
	<path d="M866.4,5115 1221.4,5115 1042.4,4805 687.4,4805 z " fill-rule="evenodd" fill="rgb(255,255,255)" stroke-width="10" stroke="rgb(0,0,0)" />
	<path d="M866.4,4774 1221.4,4774 1042.4,4464 687.4,4464 z " fill-rule="evenodd" fill="rgb(255,255,255)" stroke-width="10" stroke="rgb(0,0,0)" />
	<path d="M866.4,4433 1221.4,4433 1042.4,4123 687.4,4123 z " fill-rule="evenodd" fill="rgb(255,255,255)" stroke-width="10" stroke="rgb(0,0,0)" />
	<path d="M866.4,4092 1221.4,4092 1042.4,3782 687.4,3782 z " fill-rule="evenodd" fill="rgb(255,255,255)" stroke-width="10" stroke="rgb(0,0,0)" />
	<path d="M866.4,3751 1221.4,3751 1042.4,3441 687.4,3441 z " fill-rule="evenodd" fill="rgb(255,255,255)" stroke-width="10" stroke="rgb(0,0,0)" />
	<path d="M866.4,3410 1221.4,3410 1042.4,3100 687.4,3100 z " fill-rule="evenodd" fill="rgb(255,255,255)" stroke-width="10" stroke="rgb(0,0,0)" />
	<path d="M866.4,3069 1221.4,3069 1042.4,2759 687.4,2759 z " fill-rule="evenodd" fill="rgb(255,255,255)" stroke-width="10" stroke="rgb(0,0,0)" />
	<path d="M866.4,2728 1221.4,2728 1042.4,2418 687.4,2418 z " fill-rule="evenodd" fill="rgb(255,255,255)" stroke-width="10" stroke="rgb(0,0,0)" />
	<path d="M866.4,2387 1221.4,2387 1042.4,2077 687.4,2077 z " fill-rule="evenodd" fill="rgb(255,255,255)" stroke-width="10" stroke="rgb(0,0,0)" />
	<path d="M866.4,2046 1221.4,2046 1042.4,1736 687.4,1736 z " fill-rule="evenodd" fill="rgb(255,255,255)" stroke-width="10" stroke="rgb(0,0,0)" />
	<path d="M866.4,1705 1221.4,1705 1042.4,1395 687.4,1395 z " fill-rule="evenodd" fill="rgb(255,255,255)" stroke-width="10" stroke="rgb(0,0,0)" />
	<path d="M866.4,1364 1221.4,1364 1042.4,1054 687.4,1054 z " fill-rule="evenodd" fill="rgb(255,255,255)" stroke-width="10" stroke="rgb(0,0,0)" />
	<path d="M606.707,6514 430.016,6820 430.016,6514 606.707,6514 z " fill-rule="evenodd" fill="rgb(255,0,0)" stroke-width="10" stroke="rgb(0,0,0)" />
	<path d="M453.381,717 276.691,1023 276.691,717 453.381,717 z " fill-rule="evenodd" fill="rgb(255,0,0)" stroke-width="10" stroke="rgb(0,0,0)" />
	<path d="M100,1023 276.691,717 276.691,1023 100,1023 z " fill-rule="evenodd" fill="rgb(255,0,0)" stroke-width="10" stroke="rgb(0,0,0)" />
	<path d="M253.326,6820 430.016,6514 430.016,6820 253.326,6820 z " fill-rule="evenodd" fill="rgb(255,0,0)" stroke-width="10" stroke="rgb(0,0,0)" />
	<path d="M447.667,678 447.667,378 620.893,378 447.667,678 z " fill-rule="evenodd" fill="rgb(255,0,0)" stroke-width="10" stroke="rgb(0,0,0)" />
	<path d="M455,13981 100,13981 100,13981 275.535,13677 630.535,13677 455,13981 z " fill-rule="evenodd" fill="rgb(255,0,0)" stroke-width="10" stroke="rgb(0,0,0)" />
	<path d="M455,5797 100,5797 275.535,5493 630.535,5493 455,5797 z " fill-rule="evenodd" fill="rgb(255,0,0)" stroke-width="10" stroke="rgb(0,0,0)" />
	<path d="M455,5456 100,5456 275.535,5152 630.535,5152 455,5456 z " fill-rule="evenodd" fill="rgb(255,0,0)" stroke-width="10" stroke="rgb(0,0,0)" />
	<path d="M455,5115 100,5115 275.535,4811 630.535,4811 455,5115 z " fill-rule="evenodd" fill="rgb(255,0,0)" stroke-width="10" stroke="rgb(0,0,0)" />
	<path d="M455,4774 100,4774 275.535,4470 630.535,4470 455,4774 z " fill-rule="evenodd" fill="rgb(255,0,0)" stroke-width="10" stroke="rgb(0,0,0)" />
	<path d="M455,4433 100,4433 275.535,4129 630.535,4129 455,4433 z " fill-rule="evenodd" fill="rgb(255,0,0)" stroke-width="10" stroke="rgb(0,0,0)" />
	<path d="M455,13640 100,13640 275.535,13336 630.535,13336 455,13640 z " fill-rule="evenodd" fill="rgb(255,0,0)" stroke-width="10" stroke="rgb(0,0,0)" />
	<path d="M455,13299 100,13299 275.535,12995 630.535,12995 455,13299 z " fill-rule="evenodd" fill="rgb(255,0,0)" stroke-width="10" stroke="rgb(0,0,0)" />
	<path d="M455,12958 100,12958 275.535,12654 630.535,12654 455,12958 z " fill-rule="evenodd" fill="rgb(255,0,0)" stroke-width="10" stroke="rgb(0,0,0)" />
	<path d="M455,12617 100,12617 275.535,12313 630.535,12313 455,12617 z " fill-rule="evenodd" fill="rgb(255,0,0)" stroke-width="10" stroke="rgb(0,0,0)" />
	<path d="M547.046,5952.53 439.952,6138 439.952,5952.53 547.046,5952.53 z " fill-rule="evenodd" fill="rgb(255,0,0)" stroke-width="10" stroke="rgb(0,0,0)" />
	<path d="M100,12276 279,11966 634,11966 483.871,12226 326.905,12226 326.905,12276 100,12276 z " fill-rule="evenodd" fill="rgb(255,0,0)" stroke-width="10" stroke="rgb(0,0,0)" />
	<path d="M634,3782 455,4092 100,4092 279,3782 326.905,3782 326.905,3866 526.905,3866 526.905,3782 634,3782 z " fill-rule="evenodd" fill="rgb(255,0,0)" stroke-width="10" stroke="rgb(0,0,0)" />
	<path d="M100,10230 279,9920 326.905,9920 326.905,10230 100,10230 z " fill-rule="evenodd" fill="rgb(255,0,0)" stroke-width="10" stroke="rgb(0,0,0)" />
	<path d="M332.857,6138 439.952,5952.53 439.952,6138 332.857,6138 z " fill-rule="evenodd" fill="rgb(255,0,0)" stroke-width="10" stroke="rgb(0,0,0)" />
	<path d="M100,9889 279,9579 326.905,9579 326.905,9889 100,9889 z " fill-rule="evenodd" fill="rgb(255,0,0)" stroke-width="10" stroke="rgb(0,0,0)" />
	<path d="M490.88,837.529 383.785,1023 383.785,837.529 490.88,837.529 z " fill-rule="evenodd" fill="rgb(255,0,0)" stroke-width="10" stroke="rgb(0,0,0)" />
	<path d="M553.811,9920 378.275,10224 326.905,10224 326.905,9920 553.811,9920 z " fill-rule="evenodd" fill="rgb(255,0,0)" stroke-width="10" stroke="rgb(0,0,0)" />
	<path d="M525.784,9417.47 525.784,9238 629.414,9238 525.784,9417.47 z " fill-rule="evenodd" fill="rgb(255,0,0)" stroke-width="10" stroke="rgb(0,0,0)" />
	<path d="M100,9207 279,8897 426.905,8897 426.905,9207 100,9207 z " fill-rule="evenodd" fill="rgb(255,0,0)" stroke-width="10" stroke="rgb(0,0,0)" />
	<path d="M276.691,1023 383.785,837.529 383.785,1023 276.691,1023 z " fill-rule="evenodd" fill="rgb(255,0,0)" stroke-width="10" stroke="rgb(0,0,0)" />
	<path d="M279,3441 634,3441 455,3751 169.596,3751 169.596,3630.47 279,3441 z " fill-rule="evenodd" fill="rgb(255,0,0)" stroke-width="10" stroke="rgb(0,0,0)" />
	<path d="M279,8556 634,8556 455,8866 169.596,8866 169.596,8745.47 279,8556 z " fill-rule="evenodd" fill="rgb(255,0,0)" stroke-width="10" stroke="rgb(0,0,0)" />
	<path d="M279,3100 634,3100 455,3410 169.596,3410 169.596,3360 128.871,3360 279,3100 z " fill-rule="evenodd" fill="rgb(255,0,0)" stroke-width="10" stroke="rgb(0,0,0)" />
	<path d="M279,2759 634,2759 455,3069 169.596,3069 169.596,2948.47 279,2759 z " fill-rule="evenodd" fill="rgb(255,0,0)" stroke-width="10" stroke="rgb(0,0,0)" />
	<path d="M279,2418 634,2418 455,2728 169.596,2728 169.596,2607.47 279,2418 z " fill-rule="evenodd" fill="rgb(255,0,0)" stroke-width="10" stroke="rgb(0,0,0)" />
	<path d="M455,2387 169.596,2387 169.596,2266.47 275.535,2083 630.535,2083 455,2387 z " fill-rule="evenodd" fill="rgb(255,0,0)" stroke-width="10" stroke="rgb(0,0,0)" />
	<path d="M455,11935 100,11935 275.535,11631 630.535,11631 455,11935 z " fill-rule="evenodd" fill="rgb(255,0,0)" stroke-width="10" stroke="rgb(0,0,0)" />
	<path d="M455,11594 100,11594 275.535,11290 630.535,11290 455,11594 z " fill-rule="evenodd" fill="rgb(255,0,0)" stroke-width="10" stroke="rgb(0,0,0)" />
	<path d="M100,8525 279,8215 504.107,8215 378.236,8525 100,8525 z " fill-rule="evenodd" fill="rgb(255,0,0)" stroke-width="10" stroke="rgb(0,0,0)" />
	<path d="M455,2046 100,2046 279,1736 612.887,1736 629.994,1742.94 455,2046 z " fill-rule="evenodd" fill="rgb(255,0,0)" stroke-width="10" stroke="rgb(0,0,0)" />
	<path d="M455,9548 100,9548 279,9238 447.667,9238 447.667,9422 527.755,9422 455,9548 z " fill-rule="evenodd" fill="rgb(255,0,0)" stroke-width="10" stroke="rgb(0,0,0)" />
	<path d="M100,1705 279,1395 547.667,1395 547.667,1453 447.667,1453 447.667,1705 100,1705 z " fill-rule="evenodd" fill="rgb(255,0,0)" stroke-width="10" stroke="rgb(0,0,0)" />
	<path d="M455,8184 100,8184 279,7874 547.667,7874 547.667,8023.51 455,8184 z " fill-rule="evenodd" fill="rgb(255,0,0)" stroke-width="10" stroke="rgb(0,0,0)" />
	<path d="M100,682 275.535,378 447.667,378 447.667,682 100,682 z " fill-rule="evenodd" fill="rgb(255,0,0)" stroke-width="10" stroke="rgb(0,0,0)" />
	<path d="M626.476,7533 447.476,7843 305.928,7843 305.928,7533 626.476,7533 z " fill-rule="evenodd" fill="rgb(255,0,0)" stroke-width="10" stroke="rgb(0,0,0)" />
	<path d="M626.476,7192 447.476,7502 305.928,7502 305.928,7192 626.476,7192 z " fill-rule="evenodd" fill="rgb(255,0,0)" stroke-width="10" stroke="rgb(0,0,0)" />
	<path d="M455,11253 100,11253 279,10943 608.051,10943 546.573,11094.4 455,11253 z " fill-rule="evenodd" fill="rgb(255,0,0)" stroke-width="10" stroke="rgb(0,0,0)" />
	<path d="M631.46,7874 547.667,8019.11 606.589,7874 631.46,7874 z " fill-rule="evenodd" fill="rgb(255,0,0)" stroke-width="10" stroke="rgb(0,0,0)" />
	<path d="M100,7161 279,6851 400.163,6851 274.292,7161 100,7161 z " fill-rule="evenodd" fill="rgb(255,0,0)" stroke-width="10" stroke="rgb(0,0,0)" />
	<path d="M455,14663 100,14663 274.556,14360.7 562.202,14477.3 455,14663 z " fill-rule="evenodd" fill="rgb(255,0,0)" stroke-width="10" stroke="rgb(0,0,0)" />
	<path d="M342.098,118 320.589,155.251 228.765,118 342.098,118 z " fill-rule="evenodd" fill="rgb(255,0,0)" stroke-width="10" stroke="rgb(0,0,0)" />
	<path d="M455,10912 100,10912 172.755,10786 527.755,10786 455,10912 z " fill-rule="evenodd" fill="rgb(255,0,0)" stroke-width="10" stroke="rgb(0,0,0)" />
	<path d="M100,6820 190.358,6663.51 190.358,6820 100,6820 z " fill-rule="evenodd" fill="rgb(255,0,0)" stroke-width="10" stroke="rgb(0,0,0)" />
	<path d="M632.921,8215 453.921,8525 378.236,8525 504.107,8215 632.921,8215 z " fill-rule="evenodd" fill="rgb(255,0,0)" stroke-width="10" stroke="rgb(0,0,0)" />
	<path d="M100,6479 279,6169 296.218,6169 170.348,6479 100,6479 z " fill-rule="evenodd" fill="rgb(255,0,0)" stroke-width="10" stroke="rgb(0,0,0)" />
	<path d="M100,1364 279,1054 549.584,1054 423.713,1364 100,1364 z " fill-rule="evenodd" fill="rgb(255,0,0)" stroke-width="10" stroke="rgb(0,0,0)" />
	<path d="M455,14322 100,14322 206.764,14137.1 494.41,14253.7 455,14322 z " fill-rule="evenodd" fill="rgb(255,0,0)" stroke-width="10" stroke="rgb(0,0,0)" />
	<path d="M228.734,14099.1 583.734,14099.1 494.41,14253.7 206.786,14137.1 228.734,14099.1 z " fill-rule="evenodd" fill="rgb(255,0,0)" stroke-width="10" stroke="rgb(0,0,0)" />
	<path d="M527.755,10786 172.755,10786 245.51,10660 600.51,10660 527.755,10786 z " fill-rule="evenodd" fill="rgb(255,0,0)" stroke-width="10" stroke="rgb(0,0,0)" />
	<path d="M100,7502 279,7192 305.928,7192 305.928,7502 100,7502 z " fill-rule="evenodd" fill="rgb(255,0,0)" stroke-width="10" stroke="rgb(0,0,0)" />
	<path d="M532.834,9579 353.834,9889 326.905,9889 326.905,9579 532.834,9579 z " fill-rule="evenodd" fill="rgb(255,0,0)" stroke-width="10" stroke="rgb(0,0,0)" />
	<path d="M511.857,5828 332.857,6138 305.928,6138 305.928,5828 511.857,5828 z " fill-rule="evenodd" fill="rgb(255,0,0)" stroke-width="10" stroke="rgb(0,0,0)" />
	<path d="M100,6138 279,5828 305.928,5828 305.928,6138 100,6138 z " fill-rule="evenodd" fill="rgb(255,0,0)" stroke-width="10" stroke="rgb(0,0,0)" />
	<path d="M632.834,8897 453.834,9207 426.905,9207 426.905,8897 632.834,8897 z " fill-rule="evenodd" fill="rgb(255,0,0)" stroke-width="10" stroke="rgb(0,0,0)" />
	<path d="M632.921,6851 453.921,7161 274.292,7161 400.163,6851 632.921,6851 z " fill-rule="evenodd" fill="rgb(255,0,0)" stroke-width="10" stroke="rgb(0,0,0)" />
	<path d="M479.965,14360.7 440.993,14428.2 274.556,14360.7 479.965,14360.7 z " fill-rule="evenodd" fill="rgb(255,0,0)" stroke-width="10" stroke="rgb(0,0,0)" />
	<path d="M305.504,341 138.317,341 228.765,118 395.265,185.546 305.504,341 z " fill-rule="evenodd" fill="rgb(255,0,0)" stroke-width="10" stroke="rgb(0,0,0)" />
	<path d="M455,10571 100,10571 172.755,10445 527.755,10445 455,10571 z " fill-rule="evenodd" fill="rgb(255,0,0)" stroke-width="10" stroke="rgb(0,0,0)" />
	<path d="M100,7843 279,7533 305.928,7533 305.928,7843 100,7843 z " fill-rule="evenodd" fill="rgb(255,0,0)" stroke-width="10" stroke="rgb(0,0,0)" />
	<path d="M632.921,6169 453.921,6479 170.348,6479 296.218,6169 632.921,6169 z " fill-rule="evenodd" fill="rgb(255,0,0)" stroke-width="10" stroke="rgb(0,0,0)" />
	<path d="M432.326,6510 253.326,6820 190.358,6820 316.092,6510 432.326,6510 z " fill-rule="evenodd" fill="rgb(255,0,0)" stroke-width="10" stroke="rgb(0,0,0)" />
	<path d="M527.755,10445 172.755,10445 245.51,10319 593.184,10319 575.893,10361.6 527.755,10445 z " fill-rule="evenodd" fill="rgb(255,0,0)" stroke-width="10" stroke="rgb(0,0,0)" />
	<path d="M129.219,8866 169.596,8796.07 141.234,8866 129.219,8866 z " fill-rule="evenodd" fill="rgb(255,0,0)" stroke-width="10" stroke="rgb(0,0,0)" />
	<path d="M915.741,11663.8 903.722,11663.8 903.722,11643 915.741,11663.8 z " fill-rule="evenodd" fill="rgb(255,0,0)" stroke-width="10" stroke="rgb(0,0,0)" />
	<path d="M1091,8862 914.305,8862 914.305,8556 1091,8862 z " fill-rule="evenodd" fill="rgb(255,0,0)" stroke-width="10" stroke="rgb(0,0,0)" />
	<path d="M1107.07,14465 1221.4,14663 866.4,14663 852.071,14638.2 852.071,14465 1107.07,14465 z " fill-rule="evenodd" fill="rgb(255,0,0)" stroke-width="10" stroke="rgb(0,0,0)" />
	<path d="M1087.44,10680 1201.77,10878 846.768,10878 732.439,10680 1087.44,10680 z " fill-rule="evenodd" fill="rgb(255,0,0)" stroke-width="10" stroke="rgb(0,0,0)" />
	<path d="M1043.09,1705 866.4,1705 866.4,1399 1043.09,1705 z " fill-rule="evenodd" fill="rgb(255,0,0)" stroke-width="10" stroke="rgb(0,0,0)" />
	<path d="M890.104,8927 890.104,9125 819.052,9125 704.723,8927 890.104,8927 z " fill-rule="evenodd" fill="rgb(255,0,0)" stroke-width="10" stroke="rgb(0,0,0)" />
	<path d="M1211.76,8525 1035.07,8525 1035.07,8219 1211.76,8525 z " fill-rule="evenodd" fill="rgb(255,0,0)" stroke-width="10" stroke="rgb(0,0,0)" />
	<path d="M689.709,1399 866.4,1399 866.4,1705 689.709,1399 z " fill-rule="evenodd" fill="rgb(255,0,0)" stroke-width="10" stroke="rgb(0,0,0)" />
	<path d="M744.976,14452.7 852.071,14452.7 852.071,14638.2 744.976,14452.7 z " fill-rule="evenodd" fill="rgb(255,0,0)" stroke-width="10" stroke="rgb(0,0,0)" />
	<path d="M914.305,8556 914.305,8866 866.4,8866 687.4,8556 914.305,8556 z " fill-rule="evenodd" fill="rgb(255,0,0)" stroke-width="10" stroke="rgb(0,0,0)" />
	<path d="M1216.72,8184 1109.62,8184 1109.62,7998.53 1216.72,8184 z " fill-rule="evenodd" fill="rgb(255,0,0)" stroke-width="10" stroke="rgb(0,0,0)" />
	<path d="M914.305,7533 914.305,7843 866.4,7843 687.4,7533 914.305,7533 z " fill-rule="evenodd" fill="rgb(255,0,0)" stroke-width="10" stroke="rgb(0,0,0)" />
	<path d="M1206.35,5115 1099.26,5115 1099.26,4929.53 1206.35,5115 z " fill-rule="evenodd" fill="rgb(255,0,0)" stroke-width="10" stroke="rgb(0,0,0)" />
	<path d="M914.305,7843 914.305,7533 962.211,7533 1141.21,7843 914.305,7843 z " fill-rule="evenodd" fill="rgb(255,0,0)" stroke-width="10" stroke="rgb(0,0,0)" />
	<path d="M992.162,4929.53 1099.26,4929.53 1099.26,5115 992.162,4929.53 z " fill-rule="evenodd" fill="rgb(255,0,0)" stroke-width="10" stroke="rgb(0,0,0)" />
	<path d="M1221.4,12958 866.4,12958 787.871,12822 1142.87,12822 1221.4,12958 z " fill-rule="evenodd" fill="rgb(255,0,0)" stroke-width="10" stroke="rgb(0,0,0)" />
	<path d="M997.198,9125 890.104,9125 890.104,8939.53 997.198,9125 z " fill-rule="evenodd" fill="rgb(255,0,0)" stroke-width="10" stroke="rgb(0,0,0)" />
	<path d="M776.042,1207.51 697.513,1071.51 923.947,1071.51 923.947,1207.51 776.042,1207.51 z " fill-rule="evenodd" fill="rgb(255,0,0)" stroke-width="10" stroke="rgb(0,0,0)" />
	<path d="M1042.4,4123 1221.4,4433 866.4,4433 756.996,4243.53 756.996,4123 1042.4,4123 z " fill-rule="evenodd" fill="rgb(255,0,0)" stroke-width="10" stroke="rgb(0,0,0)" />
	<path d="M1042.4,3782 1221.4,4092 866.4,4092 756.996,3902.53 756.996,3782 1042.4,3782 z " fill-rule="evenodd" fill="rgb(255,0,0)" stroke-width="10" stroke="rgb(0,0,0)" />
	<path d="M1042.4,3441 1221.4,3751 866.4,3751 756.996,3561.53 756.996,3441 1042.4,3441 z " fill-rule="evenodd" fill="rgb(255,0,0)" stroke-width="10" stroke="rgb(0,0,0)" />
	<path d="M1042.4,3100 1221.4,3410 866.4,3410 756.996,3220.53 756.996,3100 1042.4,3100 z " fill-rule="evenodd" fill="rgb(255,0,0)" stroke-width="10" stroke="rgb(0,0,0)" />
	<path d="M1042.4,2759 1221.4,3069 866.4,3069 756.996,2879.53 756.996,2759 1042.4,2759 z " fill-rule="evenodd" fill="rgb(255,0,0)" stroke-width="10" stroke="rgb(0,0,0)" />
	<path d="M1142.87,12822 787.871,12822 709.342,12686 1064.34,12686 1142.87,12822 z " fill-rule="evenodd" fill="rgb(255,0,0)" stroke-width="10" stroke="rgb(0,0,0)" />
	<path d="M1014.31,14012 1014.31,14062 1071.27,14062 1221.4,14322 866.4,14322 687.4,14012 1014.31,14012 z " fill-rule="evenodd" fill="rgb(255,0,0)" stroke-width="10" stroke="rgb(0,0,0)" />
	<path d="M1042.4,7192 1221.4,7502 866.4,7502 716.271,7242 756.996,7242 756.996,7192 1042.4,7192 z " fill-rule="evenodd" fill="rgb(255,0,0)" stroke-width="10" stroke="rgb(0,0,0)" />
	<path d="M1072.43,9290 1174.05,9466 819.052,9466 717.426,9290 1072.43,9290 z " fill-rule="evenodd" fill="rgb(255,0,0)" stroke-width="10" stroke="rgb(0,0,0)" />
	<path d="M1099.98,14452.7 744.976,14452.7 725.344,14418.7 1080.34,14418.7 1099.98,14452.7 z " fill-rule="evenodd" fill="rgb(255,0,0)" stroke-width="10" stroke="rgb(0,0,0)" />
	<path d="M1221.4,12617 866.4,12617 787.871,12481 1142.87,12481 1221.4,12617 z " fill-rule="evenodd" fill="rgb(255,0,0)" stroke-width="10" stroke="rgb(0,0,0)" />
	<path d="M1119.77,12100 1221.4,12276 866.4,12276 764.774,12100 1119.77,12100 z " fill-rule="evenodd" fill="rgb(255,0,0)" stroke-width="10" stroke="rgb(0,0,0)" />
	<path d="M1080.34,14418.7 725.344,14418.7 705.712,14384.7 1060.71,14384.7 1080.34,14418.7 z " fill-rule="evenodd" fill="rgb(255,0,0)" stroke-width="10" stroke="rgb(0,0,0)" />
	<path d="M1119.77,11759 1221.4,11935 866.4,11935 764.774,11759 1119.77,11759 z " fill-rule="evenodd" fill="rgb(255,0,0)" stroke-width="10" stroke="rgb(0,0,0)" />
	<path d="M1064.34,12686 709.342,12686 689.71,12652 1044.71,12652 1064.34,12686 z " fill-rule="evenodd" fill="rgb(255,0,0)" stroke-width="10" stroke="rgb(0,0,0)" />
	<path d="M1042.4,11284 1221.4,11594 866.4,11594 846.768,11560 1114.31,11560 1114.31,11410 1014.31,11410 1014.31,11460 789.026,11460 687.4,11284 1042.4,11284 z " fill-rule="evenodd" fill="rgb(255,0,0)" stroke-width="10" stroke="rgb(0,0,0)" />
	<path d="M1119.77,11077 1221.4,11253 866.4,11253 764.774,11077 1119.77,11077 z " fill-rule="evenodd" fill="rgb(255,0,0)" stroke-width="10" stroke="rgb(0,0,0)" />
	<path d="M1221.4,10912 866.4,10912 846.768,10878 1201.77,10878 1221.4,10912 z " fill-rule="evenodd" fill="rgb(255,0,0)" stroke-width="10" stroke="rgb(0,0,0)" />
	<path d="M1221.4,10571 866.4,10571 787.871,10435 1142.87,10435 1221.4,10571 z " fill-rule="evenodd" fill="rgb(255,0,0)" stroke-width="10" stroke="rgb(0,0,0)" />
	<path d="M1042.4,6851 1145.61,7029.75 1092.32,7161 866.4,7161 687.4,6851 1042.4,6851 z " fill-rule="evenodd" fill="rgb(255,0,0)" stroke-width="10" stroke="rgb(0,0,0)" />
	<path d="M1042.4,2418 1070.12,2466 1035.07,2466 1035.07,2663 1195.36,2728 866.4,2728 687.4,2418 1042.4,2418 z " fill-rule="evenodd" fill="rgb(255,0,0)" stroke-width="10" stroke="rgb(0,0,0)" />
	<path d="M1047.47,14034.9 1034.26,14029.5 1034.26,14012 1047.47,14034.9 z " fill-rule="evenodd" fill="rgb(255,0,0)" stroke-width="10" stroke="rgb(0,0,0)" />
	<path d="M1035.07,8215 1035.07,8525 866.4,8525 687.4,8215 1035.07,8215 z " fill-rule="evenodd" fill="rgb(255,0,0)" stroke-width="10" stroke="rgb(0,0,0)" />
	<path d="M1042.4,6510 1135.07,6670.49 1135.07,6820 866.4,6820 687.4,6510 1042.4,6510 z " fill-rule="evenodd" fill="rgb(255,0,0)" stroke-width="10" stroke="rgb(0,0,0)" />
	<path d="M1035.07,2077 1035.07,2371 1135.07,2371 1135.07,2387 866.4,2387 687.4,2077 1035.07,2077 z " fill-rule="evenodd" fill="rgb(255,0,0)" stroke-width="10" stroke="rgb(0,0,0)" />
	<path d="M1097.44,6303 1199.07,6479 955.893,6479 955.893,6303 1097.44,6303 z " fill-rule="evenodd" fill="rgb(255,0,0)" stroke-width="10" stroke="rgb(0,0,0)" />
	<path d="M1142.87,12481 787.871,12481 768.239,12447 1123.24,12447 1142.87,12481 z " fill-rule="evenodd" fill="rgb(255,0,0)" stroke-width="10" stroke="rgb(0,0,0)" />
	<path d="M1034.88,5828 1213.88,6138 893.328,6138 893.328,5828 1034.88,5828 z " fill-rule="evenodd" fill="rgb(255,0,0)" stroke-width="10" stroke="rgb(0,0,0)" />
	<path d="M1186.95,1364 866.4,1364 866.4,1228 1108.42,1228 1186.95,1364 z " fill-rule="evenodd" fill="rgb(255,0,0)" stroke-width="10" stroke="rgb(0,0,0)" />
	<path d="M1042.4,13671 1206.64,13955.4 1196.26,13981 866.4,13981 687.4,13671 1042.4,13671 z " fill-rule="evenodd" fill="rgb(255,0,0)" stroke-width="10" stroke="rgb(0,0,0)" />
	<path d="M978.621,13330 864.082,13612.1 701.197,13330 978.621,13330 z " fill-rule="evenodd" fill="rgb(255,0,0)" stroke-width="10" stroke="rgb(0,0,0)" />
	<path d="M861.513,5488.1 789.889,5664.5 688.033,5488.1 861.513,5488.1 z " fill-rule="evenodd" fill="rgb(255,0,0)" stroke-width="10" stroke="rgb(0,0,0)" />
	<path d="M1042.4,12989 1084.58,13062.1 988.375,13299 866.4,13299 687.4,12989 1042.4,12989 z " fill-rule="evenodd" fill="rgb(255,0,0)" stroke-width="10" stroke="rgb(0,0,0)" />
	<path d="M1042.4,9920 1221.4,10230 1103.14,10230 793.981,10104.6 777.758,10076.5 777.758,9968 715.116,9968 687.4,9920 1042.4,9920 z " fill-rule="evenodd" fill="rgb(255,0,0)" stroke-width="10" stroke="rgb(0,0,0)" />
	<path d="M866.4,1207.51 866.4,1364 776.042,1207.51 866.4,1207.51 z " fill-rule="evenodd" fill="rgb(255,0,0)" stroke-width="10" stroke="rgb(0,0,0)" />
	<path d="M1119.77,12100 764.774,12100 745.142,12066 1100.14,12066 1119.77,12100 z " fill-rule="evenodd" fill="rgb(255,0,0)" stroke-width="10" stroke="rgb(0,0,0)" />
	<path d="M1042.4,5146 1057.88,5172.81 942.897,5456 866.4,5456 687.4,5146 1042.4,5146 z " fill-rule="evenodd" fill="rgb(255,0,0)" stroke-width="10" stroke="rgb(0,0,0)" />
	<path d="M747.003,7192 737.071,7216.46 722.945,7192 747.003,7192 z " fill-rule="evenodd" fill="rgb(255,0,0)" stroke-width="10" stroke="rgb(0,0,0)" />
	<path d="M773.817,10271 745.108,10341.7 704.282,10271 773.817,10271 z " fill-rule="evenodd" fill="rgb(255,0,0)" stroke-width="10" stroke="rgb(0,0,0)" />
	<path d="M1010.3,6169 884.43,6479 866.4,6479 687.4,6169 1010.3,6169 z " fill-rule="evenodd" fill="rgb(255,0,0)" stroke-width="10" stroke="rgb(0,0,0)" />
	<path d="M1042.4,9579 1172.31,9803.99 1137.8,9889 866.4,9889 687.4,9579 1042.4,9579 z " fill-rule="evenodd" fill="rgb(255,0,0)" stroke-width="10" stroke="rgb(0,0,0)" />
	<path d="M920.257,4805 1099.26,5115 893.328,5115 893.328,4805 920.257,4805 z " fill-rule="evenodd" fill="rgb(255,0,0)" stroke-width="10" stroke="rgb(0,0,0)" />
	<path d="M866.4,6138 687.4,5828 893.328,5828 893.328,6138 866.4,6138 z " fill-rule="evenodd" fill="rgb(255,0,0)" stroke-width="10" stroke="rgb(0,0,0)" />
	<path d="M866.4,5115 687.4,4805 893.328,4805 893.328,5115 866.4,5115 z " fill-rule="evenodd" fill="rgb(255,0,0)" stroke-width="10" stroke="rgb(0,0,0)" />
	<path d="M920.257,4464 1099.26,4774 893.328,4774 893.328,4464 920.257,4464 z " fill-rule="evenodd" fill="rgb(255,0,0)" stroke-width="10" stroke="rgb(0,0,0)" />
	<path d="M697.793,11643 903.722,11643 903.722,11677 717.426,11677 697.793,11643 z " fill-rule="evenodd" fill="rgb(255,0,0)" stroke-width="10" stroke="rgb(0,0,0)" />
	<path d="M866.4,5797 789.889,5664.5 861.959,5487 1042.4,5487 1221.4,5797 866.4,5797 z " fill-rule="evenodd" fill="rgb(255,0,0)" stroke-width="10" stroke="rgb(0,0,0)" />
	<path d="M1092.32,7161 1145.17,7030.84 1220.32,7161 1092.32,7161 z " fill-rule="evenodd" fill="rgb(255,0,0)" stroke-width="10" stroke="rgb(0,0,0)" />
	<path d="M951.513,5456 944.115,5453 1033.3,5233.36 1161.85,5456 951.513,5456 z " fill-rule="evenodd" fill="rgb(255,0,0)" stroke-width="10" stroke="rgb(0,0,0)" />
	<path d="M1042.4,7874 1111.56,7993.77 1034.4,8184 866.4,8184 687.4,7874 1042.4,7874 z " fill-rule="evenodd" fill="rgb(255,0,0)" stroke-width="10" stroke="rgb(0,0,0)" />
	<path d="M866.4,4774 687.4,4464 893.328,4464 893.328,4774 866.4,4774 z " fill-rule="evenodd" fill="rgb(255,0,0)" stroke-width="10" stroke="rgb(0,0,0)" />
	<path d="M1042.4,1736 1179.94,1974.2 1150.79,2046 866.4,2046 687.4,1736 1042.4,1736 z " fill-rule="evenodd" fill="rgb(255,0,0)" stroke-width="10" stroke="rgb(0,0,0)" />
	<path d="M988.375,13299 1084.14,13063.2 1220.32,13299 988.375,13299 z " fill-rule="evenodd" fill="rgb(255,0,0)" stroke-width="10" stroke="rgb(0,0,0)" />
	<path d="M923.947,1207.51 971.571,1090.1 1039.37,1207.51 923.947,1207.51 z " fill-rule="evenodd" fill="rgb(255,0,0)" stroke-width="10" stroke="rgb(0,0,0)" />
	<path d="M866.4,13640 858.462,13626.3 978.621,13330 1042.4,13330 1221.4,13640 866.4,13640 z " fill-rule="evenodd" fill="rgb(255,0,0)" stroke-width="10" stroke="rgb(0,0,0)" />
	<path d="M1162,6738 1209.34,6820 1135.07,6820 1135.07,6738 1162,6738 z " fill-rule="evenodd" fill="rgb(255,0,0)" stroke-width="10" stroke="rgb(0,0,0)" />
	<path d="M1072.43,11677 1119.77,11759 764.774,11759 717.426,11677 1072.43,11677 z " fill-rule="evenodd" fill="rgb(255,0,0)" stroke-width="10" stroke="rgb(0,0,0)" />
	<path d="M1052.79,11984 1100.14,12066 745.142,12066 697.793,11984 1052.79,11984 z " fill-rule="evenodd" fill="rgb(255,0,0)" stroke-width="10" stroke="rgb(0,0,0)" />
	<path d="M1095.52,10353 1142.87,10435 787.871,10435 740.523,10353 1095.52,10353 z " fill-rule="evenodd" fill="rgb(255,0,0)" stroke-width="10" stroke="rgb(0,0,0)" />
	<path d="M1075.89,12365 1123.24,12447 768.239,12447 720.89,12365 1075.89,12365 z " fill-rule="evenodd" fill="rgb(255,0,0)" stroke-width="10" stroke="rgb(0,0,0)" />
	<path d="M1174.05,9466 1221.4,9548 866.4,9548 819.052,9466 1174.05,9466 z " fill-rule="evenodd" fill="rgb(255,0,0)" stroke-width="10" stroke="rgb(0,0,0)" />
	<path d="M1174.05,9125 1221.4,9207 866.4,9207 819.052,9125 1174.05,9125 z " fill-rule="evenodd" fill="rgb(255,0,0)" stroke-width="10" stroke="rgb(0,0,0)" />
	<path d="M1072.43,10995 1119.77,11077 764.774,11077 717.426,10995 1072.43,10995 z " fill-rule="evenodd" fill="rgb(255,0,0)" stroke-width="10" stroke="rgb(0,0,0)" />
	<path d="M740.523,10353 773.817,10271 1029.06,10271 1076.41,10353 740.523,10353 z " fill-rule="evenodd" fill="rgb(255,0,0)" stroke-width="10" stroke="rgb(0,0,0)" />
	<path d="M1212.09,13969.6 1207.47,13981 1200.89,13969.6 1212.09,13969.6 z " fill-rule="evenodd" fill="rgb(255,0,0)" stroke-width="10" stroke="rgb(0,0,0)" />
</svg>
