<?xml version="1.0" standalone="no" ?>
<!DOCTYPE svg PUBLIC "-//W3C//DTD SVG 1.1//EN" "http://www.w3.org/Graphics/SVG/1.1/DTD/svg11.dtd">
<svg width="8700px" height="7052px" xmlns="http://www.w3.org/2000/svg" version="1.1" >
	<path d="M2900,6952 2900,6597 2590,6418 2590,6773 2900,6952 z " fill-rule="evenodd" fill="rgb(0,128,0)" stroke-width="5" stroke="rgb(0,0,0)" />
	<path d="M2276,6952 2276,6597 1966,6418 1966,6773 2276,6952 z " fill-rule="evenodd" fill="rgb(0,128,0)" stroke-width="5" stroke="rgb(0,0,0)" />
	<path d="M2900,6594.69 2900,6239.69 2590,6060.69 2590,6415.69 2900,6594.69 z " fill-rule="evenodd" fill="rgb(0,128,0)" stroke-width="5" stroke="rgb(0,0,0)" />
	<path d="M2276,6594.69 2276,6239.69 1966,6060.69 1966,6415.69 2276,6594.69 z " fill-rule="evenodd" fill="rgb(0,128,0)" stroke-width="5" stroke="rgb(0,0,0)" />
	<path d="M1652,6952 1652,6597 1342,6418 1342,6773 1652,6952 z " fill-rule="evenodd" fill="rgb(0,128,0)" stroke-width="5" stroke="rgb(0,0,0)" />
	<path d="M1652,6594.69 1652,6239.69 1342,6060.69 1342,6415.69 1652,6594.69 z " fill-rule="evenodd" fill="rgb(0,128,0)" stroke-width="5" stroke="rgb(0,0,0)" />
	<path d="M2900,6237.38 2900,5882.38 2590,5703.38 2590,6058.38 2900,6237.38 z " fill-rule="evenodd" fill="rgb(0,128,0)" stroke-width="5" stroke="rgb(0,0,0)" />
	<path d="M2276,6237.38 2276,5882.38 1966,5703.38 1966,6058.38 2276,6237.38 z " fill-rule="evenodd" fill="rgb(0,128,0)" stroke-width="5" stroke="rgb(0,0,0)" />
	<path d="M1652,6237.38 1652,5882.38 1342,5703.38 1342,6058.38 1652,6237.38 z " fill-rule="evenodd" fill="rgb(0,128,0)" stroke-width="5" stroke="rgb(0,0,0)" />
	<path d="M1028,6952 1028,6597 718,6418 718,6773 1028,6952 z " fill-rule="evenodd" fill="rgb(0,128,0)" stroke-width="5" stroke="rgb(0,0,0)" />
	<path d="M1028,6594.69 1028,6239.69 718,6060.69 718,6415.69 1028,6594.69 z " fill-rule="evenodd" fill="rgb(0,128,0)" stroke-width="5" stroke="rgb(0,0,0)" />
	<path d="M1028,6237.38 1028,5882.38 718,5703.38 718,6058.38 1028,6237.38 z " fill-rule="evenodd" fill="rgb(0,128,0)" stroke-width="5" stroke="rgb(0,0,0)" />
	<path d="M2900,5880.07 2900,5525.07 2590,5346.07 2590,5701.07 2900,5880.07 z " fill-rule="evenodd" fill="rgb(0,128,0)" stroke-width="5" stroke="rgb(0,0,0)" />
	<path d="M2276,5880.07 2276,5525.07 1966,5346.07 1966,5701.07 2276,5880.07 z " fill-rule="evenodd" fill="rgb(0,128,0)" stroke-width="5" stroke="rgb(0,0,0)" />
	<path d="M1652,5880.07 1652,5525.07 1342,5346.07 1342,5701.07 1652,5880.07 z " fill-rule="evenodd" fill="rgb(0,128,0)" stroke-width="5" stroke="rgb(0,0,0)" />
	<path d="M1028,5880.07 1028,5525.07 718,5346.07 718,5701.07 1028,5880.07 z " fill-rule="evenodd" fill="rgb(0,128,0)" stroke-width="5" stroke="rgb(0,0,0)" />
	<path d="M2900,5522.76 2900,5167.76 2590,4988.76 2590,5343.76 2900,5522.76 z " fill-rule="evenodd" fill="rgb(0,128,0)" stroke-width="5" stroke="rgb(0,0,0)" />
	<path d="M2276,5522.76 2276,5167.76 1966,4988.76 1966,5343.76 2276,5522.76 z " fill-rule="evenodd" fill="rgb(0,128,0)" stroke-width="5" stroke="rgb(0,0,0)" />
	<path d="M1652,5522.76 1652,5167.76 1342,4988.76 1342,5343.76 1652,5522.76 z " fill-rule="evenodd" fill="rgb(0,128,0)" stroke-width="5" stroke="rgb(0,0,0)" />
	<path d="M1028,5522.76 1028,5167.76 718,4988.76 718,5343.76 1028,5522.76 z " fill-rule="evenodd" fill="rgb(0,128,0)" stroke-width="5" stroke="rgb(0,0,0)" />
	<path d="M2900,5165.45 2900,4810.45 2590,4631.45 2590,4986.45 2900,5165.45 z " fill-rule="evenodd" fill="rgb(0,128,0)" stroke-width="5" stroke="rgb(0,0,0)" />
	<path d="M2276,5165.45 2276,4810.45 1966,4631.45 1966,4986.45 2276,5165.45 z " fill-rule="evenodd" fill="rgb(0,128,0)" stroke-width="5" stroke="rgb(0,0,0)" />
	<path d="M1652,5165.45 1652,4810.45 1342,4631.45 1342,4986.45 1652,5165.45 z " fill-rule="evenodd" fill="rgb(0,128,0)" stroke-width="5" stroke="rgb(0,0,0)" />
	<path d="M1028,5165.45 1028,4810.45 718,4631.45 718,4986.45 1028,5165.45 z " fill-rule="evenodd" fill="rgb(0,128,0)" stroke-width="5" stroke="rgb(0,0,0)" />
	<path d="M2900,4808.14 2900,4453.14 2590,4274.14 2590,4629.14 2900,4808.14 z " fill-rule="evenodd" fill="rgb(0,128,0)" stroke-width="5" stroke="rgb(0,0,0)" />
	<path d="M2276,4808.14 2276,4453.14 1966,4274.14 1966,4629.14 2276,4808.14 z " fill-rule="evenodd" fill="rgb(0,128,0)" stroke-width="5" stroke="rgb(0,0,0)" />
	<path d="M1652,4808.14 1652,4453.14 1342,4274.14 1342,4629.14 1652,4808.14 z " fill-rule="evenodd" fill="rgb(0,128,0)" stroke-width="5" stroke="rgb(0,0,0)" />
	<path d="M1028,4808.14 1028,4453.14 718,4274.14 718,4629.14 1028,4808.14 z " fill-rule="evenodd" fill="rgb(0,128,0)" stroke-width="5" stroke="rgb(0,0,0)" />
	<path d="M2900,4450.83 2900,4095.83 2590,3916.83 2590,4271.83 2900,4450.83 z " fill-rule="evenodd" fill="rgb(0,128,0)" stroke-width="5" stroke="rgb(0,0,0)" />
	<path d="M2276,4450.83 2276,4095.83 1966,3916.83 1966,4271.83 2276,4450.83 z " fill-rule="evenodd" fill="rgb(0,128,0)" stroke-width="5" stroke="rgb(0,0,0)" />
	<path d="M1652,4450.83 1652,4095.83 1342,3916.83 1342,4271.83 1652,4450.83 z " fill-rule="evenodd" fill="rgb(0,128,0)" stroke-width="5" stroke="rgb(0,0,0)" />
	<path d="M1028,4450.83 1028,4095.83 718,3916.83 718,4271.83 1028,4450.83 z " fill-rule="evenodd" fill="rgb(0,128,0)" stroke-width="5" stroke="rgb(0,0,0)" />
	<path d="M2900,4093.52 2900,3738.52 2590,3559.52 2590,3914.52 2900,4093.52 z " fill-rule="evenodd" fill="rgb(0,128,0)" stroke-width="5" stroke="rgb(0,0,0)" />
	<path d="M2276,4093.52 2276,3738.52 1966,3559.52 1966,3914.52 2276,4093.52 z " fill-rule="evenodd" fill="rgb(0,128,0)" stroke-width="5" stroke="rgb(0,0,0)" />
	<path d="M1652,4093.52 1652,3738.52 1342,3559.52 1342,3914.52 1652,4093.52 z " fill-rule="evenodd" fill="rgb(0,128,0)" stroke-width="5" stroke="rgb(0,0,0)" />
	<path d="M1028,4093.52 1028,3738.52 718,3559.52 718,3914.52 1028,4093.52 z " fill-rule="evenodd" fill="rgb(0,128,0)" stroke-width="5" stroke="rgb(0,0,0)" />
	<path d="M2900,3736.21 2900,3381.21 2590,3202.21 2590,3557.21 2900,3736.21 z " fill-rule="evenodd" fill="rgb(0,128,0)" stroke-width="5" stroke="rgb(0,0,0)" />
	<path d="M2276,3736.21 2276,3381.21 1966,3202.21 1966,3557.21 2276,3736.21 z " fill-rule="evenodd" fill="rgb(0,128,0)" stroke-width="5" stroke="rgb(0,0,0)" />
	<path d="M1652,3736.21 1652,3381.21 1342,3202.21 1342,3557.21 1652,3736.21 z " fill-rule="evenodd" fill="rgb(0,128,0)" stroke-width="5" stroke="rgb(0,0,0)" />
	<path d="M1028,3736.21 1028,3381.21 718,3202.21 718,3557.21 1028,3736.21 z " fill-rule="evenodd" fill="rgb(0,128,0)" stroke-width="5" stroke="rgb(0,0,0)" />
	<path d="M4148,3736.21 4148,3381.21 3838,3202.21 3838,3557.21 4148,3736.21 z " fill-rule="evenodd" fill="rgb(0,128,0)" stroke-width="5" stroke="rgb(0,0,0)" />
	<path d="M2276,3021.6 2276,2666.6 1966,2487.6 1966,2842.6 2276,3021.6 z " fill-rule="evenodd" fill="rgb(0,128,0)" stroke-width="5" stroke="rgb(0,0,0)" />
	<path d="M4772,4093.52 4772,3738.52 4462,3559.52 4462,3914.52 4772,4093.52 z " fill-rule="evenodd" fill="rgb(0,128,0)" stroke-width="5" stroke="rgb(0,0,0)" />
	<path d="M4148,4093.52 4148,3738.52 3838,3559.52 3838,3914.52 4148,4093.52 z " fill-rule="evenodd" fill="rgb(0,128,0)" stroke-width="5" stroke="rgb(0,0,0)" />
	<path d="M4772,3736.21 4772,3381.21 4462,3202.21 4462,3557.21 4772,3736.21 z " fill-rule="evenodd" fill="rgb(0,128,0)" stroke-width="5" stroke="rgb(0,0,0)" />
	<path d="M4772,3378.91 4772,3023.91 4462,2844.91 4462,3199.91 4772,3378.91 z " fill-rule="evenodd" fill="rgb(0,128,0)" stroke-width="5" stroke="rgb(0,0,0)" />
	<path d="M4772,3021.6 4772,2666.6 4462,2487.6 4462,2842.6 4772,3021.6 z " fill-rule="evenodd" fill="rgb(0,128,0)" stroke-width="5" stroke="rgb(0,0,0)" />
	<path d="M4772,2664.29 4772,2309.29 4462,2130.29 4462,2485.29 4772,2664.29 z " fill-rule="evenodd" fill="rgb(0,128,0)" stroke-width="5" stroke="rgb(0,0,0)" />
	<path d="M4148,2664.29 4148,2309.29 3838,2130.29 3838,2485.29 4148,2664.29 z " fill-rule="evenodd" fill="rgb(0,128,0)" stroke-width="5" stroke="rgb(0,0,0)" />
	<path d="M3524,2664.29 3524,2309.29 3214,2130.29 3214,2485.29 3524,2664.29 z " fill-rule="evenodd" fill="rgb(0,128,0)" stroke-width="5" stroke="rgb(0,0,0)" />
	<path d="M2900,2664.29 2900,2309.29 2590,2130.29 2590,2485.29 2900,2664.29 z " fill-rule="evenodd" fill="rgb(0,128,0)" stroke-width="5" stroke="rgb(0,0,0)" />
	<path d="M2276,2664.29 2276,2309.29 1966,2130.29 1966,2485.29 2276,2664.29 z " fill-rule="evenodd" fill="rgb(0,128,0)" stroke-width="5" stroke="rgb(0,0,0)" />
	<path d="M1652,2664.29 1652,2309.29 1342,2130.29 1342,2485.29 1652,2664.29 z " fill-rule="evenodd" fill="rgb(0,128,0)" stroke-width="5" stroke="rgb(0,0,0)" />
	<path d="M1028,2664.29 1028,2309.29 718,2130.29 718,2485.29 1028,2664.29 z " fill-rule="evenodd" fill="rgb(0,128,0)" stroke-width="5" stroke="rgb(0,0,0)" />
	<path d="M5396,4450.83 5396,4095.83 5086,3916.83 5086,4271.83 5396,4450.83 z " fill-rule="evenodd" fill="rgb(0,128,0)" stroke-width="5" stroke="rgb(0,0,0)" />
	<path d="M4772,4450.83 4772,4095.83 4462,3916.83 4462,4271.83 4772,4450.83 z " fill-rule="evenodd" fill="rgb(0,128,0)" stroke-width="5" stroke="rgb(0,0,0)" />
	<path d="M4148,4450.83 4148,4095.83 3838,3916.83 3838,4271.83 4148,4450.83 z " fill-rule="evenodd" fill="rgb(0,128,0)" stroke-width="5" stroke="rgb(0,0,0)" />
	<path d="M5396,4093.52 5396,3738.52 5086,3559.52 5086,3914.52 5396,4093.52 z " fill-rule="evenodd" fill="rgb(0,128,0)" stroke-width="5" stroke="rgb(0,0,0)" />
	<path d="M5396,3736.21 5396,3381.21 5086,3202.21 5086,3557.21 5396,3736.21 z " fill-rule="evenodd" fill="rgb(0,128,0)" stroke-width="5" stroke="rgb(0,0,0)" />
	<path d="M5396,3378.91 5396,3023.91 5086,2844.91 5086,3199.91 5396,3378.91 z " fill-rule="evenodd" fill="rgb(0,128,0)" stroke-width="5" stroke="rgb(0,0,0)" />
	<path d="M5396,3021.6 5396,2666.6 5086,2487.6 5086,2842.6 5396,3021.6 z " fill-rule="evenodd" fill="rgb(0,128,0)" stroke-width="5" stroke="rgb(0,0,0)" />
	<path d="M5396,2664.29 5396,2309.29 5086,2130.29 5086,2485.29 5396,2664.29 z " fill-rule="evenodd" fill="rgb(0,128,0)" stroke-width="5" stroke="rgb(0,0,0)" />
	<path d="M5396,2306.98 5396,1951.98 5086,1772.98 5086,2127.98 5396,2306.98 z " fill-rule="evenodd" fill="rgb(0,128,0)" stroke-width="5" stroke="rgb(0,0,0)" />
	<path d="M4772,2306.98 4772,1951.98 4462,1772.98 4462,2127.98 4772,2306.98 z " fill-rule="evenodd" fill="rgb(0,128,0)" stroke-width="5" stroke="rgb(0,0,0)" />
	<path d="M4148,2306.98 4148,1951.98 3838,1772.98 3838,2127.98 4148,2306.98 z " fill-rule="evenodd" fill="rgb(0,128,0)" stroke-width="5" stroke="rgb(0,0,0)" />
	<path d="M3524,2306.98 3524,1951.98 3214,1772.98 3214,2127.98 3524,2306.98 z " fill-rule="evenodd" fill="rgb(0,128,0)" stroke-width="5" stroke="rgb(0,0,0)" />
	<path d="M2900,2306.98 2900,1951.98 2590,1772.98 2590,2127.98 2900,2306.98 z " fill-rule="evenodd" fill="rgb(0,128,0)" stroke-width="5" stroke="rgb(0,0,0)" />
	<path d="M2276,2306.98 2276,1951.98 1966,1772.98 1966,2127.98 2276,2306.98 z " fill-rule="evenodd" fill="rgb(0,128,0)" stroke-width="5" stroke="rgb(0,0,0)" />
	<path d="M1652,2306.98 1652,1951.98 1342,1772.98 1342,2127.98 1652,2306.98 z " fill-rule="evenodd" fill="rgb(0,128,0)" stroke-width="5" stroke="rgb(0,0,0)" />
	<path d="M1028,2306.98 1028,1951.98 718,1772.98 718,2127.98 1028,2306.98 z " fill-rule="evenodd" fill="rgb(0,128,0)" stroke-width="5" stroke="rgb(0,0,0)" />
	<path d="M6020,4808.14 6020,4453.14 5710,4274.14 5710,4629.14 6020,4808.14 z " fill-rule="evenodd" fill="rgb(0,128,0)" stroke-width="5" stroke="rgb(0,0,0)" />
	<path d="M5396,4808.14 5396,4453.14 5086,4274.14 5086,4629.14 5396,4808.14 z " fill-rule="evenodd" fill="rgb(0,128,0)" stroke-width="5" stroke="rgb(0,0,0)" />
	<path d="M4772,4808.14 4772,4453.14 4462,4274.14 4462,4629.14 4772,4808.14 z " fill-rule="evenodd" fill="rgb(0,128,0)" stroke-width="5" stroke="rgb(0,0,0)" />
	<path d="M6020,4450.83 6020,4095.83 5710,3916.83 5710,4271.83 6020,4450.83 z " fill-rule="evenodd" fill="rgb(0,128,0)" stroke-width="5" stroke="rgb(0,0,0)" />
	<path d="M6020,4093.52 6020,3738.52 5710,3559.52 5710,3914.52 6020,4093.52 z " fill-rule="evenodd" fill="rgb(0,128,0)" stroke-width="5" stroke="rgb(0,0,0)" />
	<path d="M4148,4808.14 4148,4453.14 3838,4274.14 3838,4629.14 4148,4808.14 z " fill-rule="evenodd" fill="rgb(0,128,0)" stroke-width="5" stroke="rgb(0,0,0)" />
	<path d="M6020,3736.21 6020,3381.21 5710,3202.21 5710,3557.21 6020,3736.21 z " fill-rule="evenodd" fill="rgb(0,128,0)" stroke-width="5" stroke="rgb(0,0,0)" />
	<path d="M6020,3378.91 6020,3023.91 5710,2844.91 5710,3199.91 6020,3378.91 z " fill-rule="evenodd" fill="rgb(0,128,0)" stroke-width="5" stroke="rgb(0,0,0)" />
	<path d="M6020,3021.6 6020,2666.6 5710,2487.6 5710,2842.6 6020,3021.6 z " fill-rule="evenodd" fill="rgb(0,128,0)" stroke-width="5" stroke="rgb(0,0,0)" />
	<path d="M6020,2664.29 6020,2309.29 5710,2130.29 5710,2485.29 6020,2664.29 z " fill-rule="evenodd" fill="rgb(0,128,0)" stroke-width="5" stroke="rgb(0,0,0)" />
	<path d="M6020,2306.98 6020,1951.98 5710,1772.98 5710,2127.98 6020,2306.98 z " fill-rule="evenodd" fill="rgb(0,128,0)" stroke-width="5" stroke="rgb(0,0,0)" />
	<path d="M5396,1949.67 5396,1594.67 5086,1415.67 5086,1770.67 5396,1949.67 z " fill-rule="evenodd" fill="rgb(0,128,0)" stroke-width="5" stroke="rgb(0,0,0)" />
	<path d="M4772,1949.67 4772,1594.67 4462,1415.67 4462,1770.67 4772,1949.67 z " fill-rule="evenodd" fill="rgb(0,128,0)" stroke-width="5" stroke="rgb(0,0,0)" />
	<path d="M4148,1949.67 4148,1594.67 3838,1415.67 3838,1770.67 4148,1949.67 z " fill-rule="evenodd" fill="rgb(0,128,0)" stroke-width="5" stroke="rgb(0,0,0)" />
	<path d="M2900,1949.67 2900,1594.67 2590,1415.67 2590,1770.67 2900,1949.67 z " fill-rule="evenodd" fill="rgb(0,128,0)" stroke-width="5" stroke="rgb(0,0,0)" />
	<path d="M6644,5165.45 6644,4810.45 6334,4631.45 6334,4986.45 6644,5165.45 z " fill-rule="evenodd" fill="rgb(0,128,0)" stroke-width="5" stroke="rgb(0,0,0)" />
	<path d="M6020,5165.45 6020,4810.45 5710,4631.45 5710,4986.45 6020,5165.45 z " fill-rule="evenodd" fill="rgb(0,128,0)" stroke-width="5" stroke="rgb(0,0,0)" />
	<path d="M5396,5165.45 5396,4810.45 5086,4631.45 5086,4986.45 5396,5165.45 z " fill-rule="evenodd" fill="rgb(0,128,0)" stroke-width="5" stroke="rgb(0,0,0)" />
	<path d="M6644,4808.14 6644,4453.14 6334,4274.14 6334,4629.14 6644,4808.14 z " fill-rule="evenodd" fill="rgb(0,128,0)" stroke-width="5" stroke="rgb(0,0,0)" />
	<path d="M6644,4450.83 6644,4095.83 6334,3916.83 6334,4271.83 6644,4450.83 z " fill-rule="evenodd" fill="rgb(0,128,0)" stroke-width="5" stroke="rgb(0,0,0)" />
	<path d="M6644,4093.52 6644,3738.52 6334,3559.52 6334,3914.52 6644,4093.52 z " fill-rule="evenodd" fill="rgb(0,128,0)" stroke-width="5" stroke="rgb(0,0,0)" />
	<path d="M6644,3736.21 6644,3381.21 6334,3202.21 6334,3557.21 6644,3736.21 z " fill-rule="evenodd" fill="rgb(0,128,0)" stroke-width="5" stroke="rgb(0,0,0)" />
	<path d="M6644,3378.91 6644,3023.91 6334,2844.91 6334,3199.91 6644,3378.91 z " fill-rule="evenodd" fill="rgb(0,128,0)" stroke-width="5" stroke="rgb(0,0,0)" />
	<path d="M6644,3021.6 6644,2666.6 6334,2487.6 6334,2842.6 6644,3021.6 z " fill-rule="evenodd" fill="rgb(0,128,0)" stroke-width="5" stroke="rgb(0,0,0)" />
	<path d="M6644,2664.29 6644,2309.29 6334,2130.29 6334,2485.29 6644,2664.29 z " fill-rule="evenodd" fill="rgb(0,128,0)" stroke-width="5" stroke="rgb(0,0,0)" />
	<path d="M4772,1592.36 4772,1237.36 4462,1058.36 4462,1413.36 4772,1592.36 z " fill-rule="evenodd" fill="rgb(0,128,0)" stroke-width="5" stroke="rgb(0,0,0)" />
	<path d="M4148,1592.36 4148,1237.36 3838,1058.36 3838,1413.36 4148,1592.36 z " fill-rule="evenodd" fill="rgb(0,128,0)" stroke-width="5" stroke="rgb(0,0,0)" />
	<path d="M2900,1592.36 2900,1237.36 2590,1058.36 2590,1413.36 2900,1592.36 z " fill-rule="evenodd" fill="rgb(0,128,0)" stroke-width="5" stroke="rgb(0,0,0)" />
	<path d="M7268,5522.76 7268,5167.76 6958,4988.76 6958,5343.76 7268,5522.76 z " fill-rule="evenodd" fill="rgb(0,128,0)" stroke-width="5" stroke="rgb(0,0,0)" />
	<path d="M6644,5522.76 6644,5167.76 6334,4988.76 6334,5343.76 6644,5522.76 z " fill-rule="evenodd" fill="rgb(0,128,0)" stroke-width="5" stroke="rgb(0,0,0)" />
	<path d="M6020,5522.76 6020,5167.76 5710,4988.76 5710,5343.76 6020,5522.76 z " fill-rule="evenodd" fill="rgb(0,128,0)" stroke-width="5" stroke="rgb(0,0,0)" />
	<path d="M7268,5165.45 7268,4810.45 6958,4631.45 6958,4986.45 7268,5165.45 z " fill-rule="evenodd" fill="rgb(0,128,0)" stroke-width="5" stroke="rgb(0,0,0)" />
	<path d="M7268,4808.14 7268,4453.14 6958,4274.14 6958,4629.14 7268,4808.14 z " fill-rule="evenodd" fill="rgb(0,128,0)" stroke-width="5" stroke="rgb(0,0,0)" />
	<path d="M5396,5522.76 5396,5167.76 5086,4988.76 5086,5343.76 5396,5522.76 z " fill-rule="evenodd" fill="rgb(0,128,0)" stroke-width="5" stroke="rgb(0,0,0)" />
	<path d="M7268,4450.83 7268,4095.83 6958,3916.83 6958,4271.83 7268,4450.83 z " fill-rule="evenodd" fill="rgb(0,128,0)" stroke-width="5" stroke="rgb(0,0,0)" />
	<path d="M7268,4093.52 7268,3738.52 6958,3559.52 6958,3914.52 7268,4093.52 z " fill-rule="evenodd" fill="rgb(0,128,0)" stroke-width="5" stroke="rgb(0,0,0)" />
	<path d="M7268,3736.21 7268,3381.21 6958,3202.21 6958,3557.21 7268,3736.21 z " fill-rule="evenodd" fill="rgb(0,128,0)" stroke-width="5" stroke="rgb(0,0,0)" />
	<path d="M7268,3378.91 7268,3023.91 6958,2844.91 6958,3199.91 7268,3378.91 z " fill-rule="evenodd" fill="rgb(0,128,0)" stroke-width="5" stroke="rgb(0,0,0)" />
	<path d="M7268,3021.6 7268,2666.6 6958,2487.6 6958,2842.6 7268,3021.6 z " fill-rule="evenodd" fill="rgb(0,128,0)" stroke-width="5" stroke="rgb(0,0,0)" />
	<path d="M7268,2664.29 7268,2309.29 6958,2130.29 6958,2485.29 7268,2664.29 z " fill-rule="evenodd" fill="rgb(0,128,0)" stroke-width="5" stroke="rgb(0,0,0)" />
	<path d="M2900,1235.05 2900,880.048 2590,701.048 2590,1056.05 2900,1235.05 z " fill-rule="evenodd" fill="rgb(0,128,0)" stroke-width="5" stroke="rgb(0,0,0)" />
	<path d="M7892,5522.76 7892,5167.76 7582,4988.76 7582,5343.76 7892,5522.76 z " fill-rule="evenodd" fill="rgb(0,128,0)" stroke-width="5" stroke="rgb(0,0,0)" />
	<path d="M7892,5165.45 7892,4810.45 7582,4631.45 7582,4986.45 7892,5165.45 z " fill-rule="evenodd" fill="rgb(0,128,0)" stroke-width="5" stroke="rgb(0,0,0)" />
	<path d="M7892,4808.14 7892,4453.14 7582,4274.14 7582,4629.14 7892,4808.14 z " fill-rule="evenodd" fill="rgb(0,128,0)" stroke-width="5" stroke="rgb(0,0,0)" />
	<path d="M7892,4450.83 7892,4095.83 7582,3916.83 7582,4271.83 7892,4450.83 z " fill-rule="evenodd" fill="rgb(0,128,0)" stroke-width="5" stroke="rgb(0,0,0)" />
	<path d="M7892,4093.52 7892,3738.52 7582,3559.52 7582,3914.52 7892,4093.52 z " fill-rule="evenodd" fill="rgb(0,128,0)" stroke-width="5" stroke="rgb(0,0,0)" />
	<path d="M7892,3736.21 7892,3381.21 7582,3202.21 7582,3557.21 7892,3736.21 z " fill-rule="evenodd" fill="rgb(0,128,0)" stroke-width="5" stroke="rgb(0,0,0)" />
	<path d="M7892,3378.91 7892,3023.91 7582,2844.91 7582,3199.91 7892,3378.91 z " fill-rule="evenodd" fill="rgb(0,128,0)" stroke-width="5" stroke="rgb(0,0,0)" />
	<path d="M7892,3021.6 7892,2666.6 7582,2487.6 7582,2842.6 7892,3021.6 z " fill-rule="evenodd" fill="rgb(0,128,0)" stroke-width="5" stroke="rgb(0,0,0)" />
	<path d="M2900,877.739 2900,522.739 2590,343.739 2590,698.739 2900,877.739 z " fill-rule="evenodd" fill="rgb(0,128,0)" stroke-width="5" stroke="rgb(0,0,0)" />
	<path d="M8516,5522.76 8516,5167.76 8206,4988.76 8206,5343.76 8516,5522.76 z " fill-rule="evenodd" fill="rgb(0,128,0)" stroke-width="5" stroke="rgb(0,0,0)" />
	<path d="M8516,5165.45 8516,4810.45 8206,4631.45 8206,4986.45 8516,5165.45 z " fill-rule="evenodd" fill="rgb(0,128,0)" stroke-width="5" stroke="rgb(0,0,0)" />
	<path d="M8516,4808.14 8516,4453.14 8206,4274.14 8206,4629.14 8516,4808.14 z " fill-rule="evenodd" fill="rgb(0,128,0)" stroke-width="5" stroke="rgb(0,0,0)" />
	<path d="M8516,4450.83 8516,4095.83 8206,3916.83 8206,4271.83 8516,4450.83 z " fill-rule="evenodd" fill="rgb(0,128,0)" stroke-width="5" stroke="rgb(0,0,0)" />
	<path d="M8516,4093.52 8516,3738.52 8206,3559.52 8206,3914.52 8516,4093.52 z " fill-rule="evenodd" fill="rgb(0,128,0)" stroke-width="5" stroke="rgb(0,0,0)" />
	<path d="M8516,3736.21 8516,3381.21 8206,3202.21 8206,3557.21 8516,3736.21 z " fill-rule="evenodd" fill="rgb(0,128,0)" stroke-width="5" stroke="rgb(0,0,0)" />
	<path d="M8516,3378.91 8516,3023.91 8206,2844.91 8206,3199.91 8516,3378.91 z " fill-rule="evenodd" fill="rgb(0,128,0)" stroke-width="5" stroke="rgb(0,0,0)" />
	<path d="M2278,6952 2278,6597 2588,6418 2588,6773 2278,6952 z " fill-rule="evenodd" fill="rgb(0,128,0)" stroke-width="5" stroke="rgb(0,0,0)" />
	<path d="M2278,6594.69 2278,6239.69 2588,6060.69 2588,6415.69 2278,6594.69 z " fill-rule="evenodd" fill="rgb(0,128,0)" stroke-width="5" stroke="rgb(0,0,0)" />
	<path d="M1654,6952 1654,6597 1964,6418 1964,6773 1654,6952 z " fill-rule="evenodd" fill="rgb(0,128,0)" stroke-width="5" stroke="rgb(0,0,0)" />
	<path d="M1654,6594.69 1654,6239.69 1964,6060.69 1964,6415.69 1654,6594.69 z " fill-rule="evenodd" fill="rgb(0,128,0)" stroke-width="5" stroke="rgb(0,0,0)" />
	<path d="M2278,6237.38 2278,5882.38 2588,5703.38 2588,6058.38 2278,6237.38 z " fill-rule="evenodd" fill="rgb(0,128,0)" stroke-width="5" stroke="rgb(0,0,0)" />
	<path d="M1654,6237.38 1654,5882.38 1964,5703.38 1964,6058.38 1654,6237.38 z " fill-rule="evenodd" fill="rgb(0,128,0)" stroke-width="5" stroke="rgb(0,0,0)" />
	<path d="M1030,6952 1030,6597 1340,6418 1340,6773 1030,6952 z " fill-rule="evenodd" fill="rgb(0,128,0)" stroke-width="5" stroke="rgb(0,0,0)" />
	<path d="M1030,6594.69 1030,6239.69 1340,6060.69 1340,6415.69 1030,6594.69 z " fill-rule="evenodd" fill="rgb(0,128,0)" stroke-width="5" stroke="rgb(0,0,0)" />
	<path d="M1030,6237.38 1030,5882.38 1340,5703.38 1340,6058.38 1030,6237.38 z " fill-rule="evenodd" fill="rgb(0,128,0)" stroke-width="5" stroke="rgb(0,0,0)" />
	<path d="M2278,5880.07 2278,5525.07 2588,5346.07 2588,5701.07 2278,5880.07 z " fill-rule="evenodd" fill="rgb(0,128,0)" stroke-width="5" stroke="rgb(0,0,0)" />
	<path d="M1654,5880.07 1654,5525.07 1964,5346.07 1964,5701.07 1654,5880.07 z " fill-rule="evenodd" fill="rgb(0,128,0)" stroke-width="5" stroke="rgb(0,0,0)" />
	<path d="M1030,5880.07 1030,5525.07 1340,5346.07 1340,5701.07 1030,5880.07 z " fill-rule="evenodd" fill="rgb(0,128,0)" stroke-width="5" stroke="rgb(0,0,0)" />
	<path d="M406,6952 406,6597 716,6418 716,6773 406,6952 z " fill-rule="evenodd" fill="rgb(0,128,0)" stroke-width="5" stroke="rgb(0,0,0)" />
	<path d="M406,6594.69 406,6239.69 716,6060.69 716,6415.69 406,6594.69 z " fill-rule="evenodd" fill="rgb(0,128,0)" stroke-width="5" stroke="rgb(0,0,0)" />
	<path d="M406,6237.38 406,5882.38 716,5703.38 716,6058.38 406,6237.38 z " fill-rule="evenodd" fill="rgb(0,128,0)" stroke-width="5" stroke="rgb(0,0,0)" />
	<path d="M406,5880.07 406,5525.07 716,5346.07 716,5701.07 406,5880.07 z " fill-rule="evenodd" fill="rgb(0,128,0)" stroke-width="5" stroke="rgb(0,0,0)" />
	<path d="M2278,5522.76 2278,5167.76 2588,4988.76 2588,5343.76 2278,5522.76 z " fill-rule="evenodd" fill="rgb(0,128,0)" stroke-width="5" stroke="rgb(0,0,0)" />
	<path d="M1654,5522.76 1654,5167.76 1964,4988.76 1964,5343.76 1654,5522.76 z " fill-rule="evenodd" fill="rgb(0,128,0)" stroke-width="5" stroke="rgb(0,0,0)" />
	<path d="M1030,5522.76 1030,5167.76 1340,4988.76 1340,5343.76 1030,5522.76 z " fill-rule="evenodd" fill="rgb(0,128,0)" stroke-width="5" stroke="rgb(0,0,0)" />
	<path d="M406,5522.76 406,5167.76 716,4988.76 716,5343.76 406,5522.76 z " fill-rule="evenodd" fill="rgb(0,128,0)" stroke-width="5" stroke="rgb(0,0,0)" />
	<path d="M2278,5165.45 2278,4810.45 2588,4631.45 2588,4986.45 2278,5165.45 z " fill-rule="evenodd" fill="rgb(0,128,0)" stroke-width="5" stroke="rgb(0,0,0)" />
	<path d="M1654,5165.45 1654,4810.45 1964,4631.45 1964,4986.45 1654,5165.45 z " fill-rule="evenodd" fill="rgb(0,128,0)" stroke-width="5" stroke="rgb(0,0,0)" />
	<path d="M1030,5165.45 1030,4810.45 1340,4631.45 1340,4986.45 1030,5165.45 z " fill-rule="evenodd" fill="rgb(0,128,0)" stroke-width="5" stroke="rgb(0,0,0)" />
	<path d="M406,5165.45 406,4810.45 716,4631.45 716,4986.45 406,5165.45 z " fill-rule="evenodd" fill="rgb(0,128,0)" stroke-width="5" stroke="rgb(0,0,0)" />
	<path d="M2278,4808.14 2278,4453.14 2588,4274.14 2588,4629.14 2278,4808.14 z " fill-rule="evenodd" fill="rgb(0,128,0)" stroke-width="5" stroke="rgb(0,0,0)" />
	<path d="M1654,4808.14 1654,4453.14 1964,4274.14 1964,4629.14 1654,4808.14 z " fill-rule="evenodd" fill="rgb(0,128,0)" stroke-width="5" stroke="rgb(0,0,0)" />
	<path d="M1030,4808.14 1030,4453.14 1340,4274.14 1340,4629.14 1030,4808.14 z " fill-rule="evenodd" fill="rgb(0,128,0)" stroke-width="5" stroke="rgb(0,0,0)" />
	<path d="M406,4808.14 406,4453.14 716,4274.14 716,4629.14 406,4808.14 z " fill-rule="evenodd" fill="rgb(0,128,0)" stroke-width="5" stroke="rgb(0,0,0)" />
	<path d="M2278,4450.83 2278,4095.83 2588,3916.83 2588,4271.83 2278,4450.83 z " fill-rule="evenodd" fill="rgb(0,128,0)" stroke-width="5" stroke="rgb(0,0,0)" />
	<path d="M1654,4450.83 1654,4095.83 1964,3916.83 1964,4271.83 1654,4450.83 z " fill-rule="evenodd" fill="rgb(0,128,0)" stroke-width="5" stroke="rgb(0,0,0)" />
	<path d="M1030,4450.83 1030,4095.83 1340,3916.83 1340,4271.83 1030,4450.83 z " fill-rule="evenodd" fill="rgb(0,128,0)" stroke-width="5" stroke="rgb(0,0,0)" />
	<path d="M406,4450.83 406,4095.83 716,3916.83 716,4271.83 406,4450.83 z " fill-rule="evenodd" fill="rgb(0,128,0)" stroke-width="5" stroke="rgb(0,0,0)" />
	<path d="M2278,4093.52 2278,3738.52 2588,3559.52 2588,3914.52 2278,4093.52 z " fill-rule="evenodd" fill="rgb(0,128,0)" stroke-width="5" stroke="rgb(0,0,0)" />
	<path d="M1654,4093.52 1654,3738.52 1964,3559.52 1964,3914.52 1654,4093.52 z " fill-rule="evenodd" fill="rgb(0,128,0)" stroke-width="5" stroke="rgb(0,0,0)" />
	<path d="M1030,4093.52 1030,3738.52 1340,3559.52 1340,3914.52 1030,4093.52 z " fill-rule="evenodd" fill="rgb(0,128,0)" stroke-width="5" stroke="rgb(0,0,0)" />
	<path d="M406,4093.52 406,3738.52 716,3559.52 716,3914.52 406,4093.52 z " fill-rule="evenodd" fill="rgb(0,128,0)" stroke-width="5" stroke="rgb(0,0,0)" />
	<path d="M2278,3736.21 2278,3381.21 2588,3202.21 2588,3557.21 2278,3736.21 z " fill-rule="evenodd" fill="rgb(0,128,0)" stroke-width="5" stroke="rgb(0,0,0)" />
	<path d="M1654,3736.21 1654,3381.21 1964,3202.21 1964,3557.21 1654,3736.21 z " fill-rule="evenodd" fill="rgb(0,128,0)" stroke-width="5" stroke="rgb(0,0,0)" />
	<path d="M1030,3736.21 1030,3381.21 1340,3202.21 1340,3557.21 1030,3736.21 z " fill-rule="evenodd" fill="rgb(0,128,0)" stroke-width="5" stroke="rgb(0,0,0)" />
	<path d="M406,3736.21 406,3381.21 716,3202.21 716,3557.21 406,3736.21 z " fill-rule="evenodd" fill="rgb(0,128,0)" stroke-width="5" stroke="rgb(0,0,0)" />
	<path d="M2278,3378.91 2278,3023.91 2588,2844.91 2588,3199.91 2278,3378.91 z " fill-rule="evenodd" fill="rgb(0,128,0)" stroke-width="5" stroke="rgb(0,0,0)" />
	<path d="M2278,3021.6 2278,2666.6 2588,2487.6 2588,2842.6 2278,3021.6 z " fill-rule="evenodd" fill="rgb(0,128,0)" stroke-width="5" stroke="rgb(0,0,0)" />
	<path d="M4150,4093.52 4150,3738.52 4460,3559.52 4460,3914.52 4150,4093.52 z " fill-rule="evenodd" fill="rgb(0,128,0)" stroke-width="5" stroke="rgb(0,0,0)" />
	<path d="M4150,3736.21 4150,3381.21 4460,3202.21 4460,3557.21 4150,3736.21 z " fill-rule="evenodd" fill="rgb(0,128,0)" stroke-width="5" stroke="rgb(0,0,0)" />
	<path d="M4150,2664.29 4150,2309.29 4460,2130.29 4460,2485.29 4150,2664.29 z " fill-rule="evenodd" fill="rgb(0,128,0)" stroke-width="5" stroke="rgb(0,0,0)" />
	<path d="M3526,2664.29 3526,2309.29 3836,2130.29 3836,2485.29 3526,2664.29 z " fill-rule="evenodd" fill="rgb(0,128,0)" stroke-width="5" stroke="rgb(0,0,0)" />
	<path d="M2902,2664.29 2902,2309.29 3212,2130.29 3212,2485.29 2902,2664.29 z " fill-rule="evenodd" fill="rgb(0,128,0)" stroke-width="5" stroke="rgb(0,0,0)" />
	<path d="M2278,2664.29 2278,2309.29 2588,2130.29 2588,2485.29 2278,2664.29 z " fill-rule="evenodd" fill="rgb(0,128,0)" stroke-width="5" stroke="rgb(0,0,0)" />
	<path d="M1654,2664.29 1654,2309.29 1964,2130.29 1964,2485.29 1654,2664.29 z " fill-rule="evenodd" fill="rgb(0,128,0)" stroke-width="5" stroke="rgb(0,0,0)" />
	<path d="M1030,2664.29 1030,2309.29 1340,2130.29 1340,2485.29 1030,2664.29 z " fill-rule="evenodd" fill="rgb(0,128,0)" stroke-width="5" stroke="rgb(0,0,0)" />
	<path d="M406,2664.29 406,2309.29 716,2130.29 716,2485.29 406,2664.29 z " fill-rule="evenodd" fill="rgb(0,128,0)" stroke-width="5" stroke="rgb(0,0,0)" />
	<path d="M4150,4450.83 4150,4095.83 4460,3916.83 4460,4271.83 4150,4450.83 z " fill-rule="evenodd" fill="rgb(0,128,0)" stroke-width="5" stroke="rgb(0,0,0)" />
	<path d="M4774,3021.6 4774,2666.6 5084,2487.6 5084,2842.6 4774,3021.6 z " fill-rule="evenodd" fill="rgb(0,128,0)" stroke-width="5" stroke="rgb(0,0,0)" />
	<path d="M4774,2664.29 4774,2309.29 5084,2130.29 5084,2485.29 4774,2664.29 z " fill-rule="evenodd" fill="rgb(0,128,0)" stroke-width="5" stroke="rgb(0,0,0)" />
	<path d="M4774,2306.98 4774,1951.98 5084,1772.98 5084,2127.98 4774,2306.98 z " fill-rule="evenodd" fill="rgb(0,128,0)" stroke-width="5" stroke="rgb(0,0,0)" />
	<path d="M4150,2306.98 4150,1951.98 4460,1772.98 4460,2127.98 4150,2306.98 z " fill-rule="evenodd" fill="rgb(0,128,0)" stroke-width="5" stroke="rgb(0,0,0)" />
	<path d="M3526,2306.98 3526,1951.98 3836,1772.98 3836,2127.98 3526,2306.98 z " fill-rule="evenodd" fill="rgb(0,128,0)" stroke-width="5" stroke="rgb(0,0,0)" />
	<path d="M2902,2306.98 2902,1951.98 3212,1772.98 3212,2127.98 2902,2306.98 z " fill-rule="evenodd" fill="rgb(0,128,0)" stroke-width="5" stroke="rgb(0,0,0)" />
	<path d="M2278,2306.98 2278,1951.98 2588,1772.98 2588,2127.98 2278,2306.98 z " fill-rule="evenodd" fill="rgb(0,128,0)" stroke-width="5" stroke="rgb(0,0,0)" />
	<path d="M1654,2306.98 1654,1951.98 1964,1772.98 1964,2127.98 1654,2306.98 z " fill-rule="evenodd" fill="rgb(0,128,0)" stroke-width="5" stroke="rgb(0,0,0)" />
	<path d="M1030,2306.98 1030,1951.98 1340,1772.98 1340,2127.98 1030,2306.98 z " fill-rule="evenodd" fill="rgb(0,128,0)" stroke-width="5" stroke="rgb(0,0,0)" />
	<path d="M406,2306.98 406,1951.98 716,1772.98 716,2127.98 406,2306.98 z " fill-rule="evenodd" fill="rgb(0,128,0)" stroke-width="5" stroke="rgb(0,0,0)" />
	<path d="M5398,4808.14 5398,4453.14 5708,4274.14 5708,4629.14 5398,4808.14 z " fill-rule="evenodd" fill="rgb(0,128,0)" stroke-width="5" stroke="rgb(0,0,0)" />
	<path d="M4150,4808.14 4150,4453.14 4460,4274.14 4460,4629.14 4150,4808.14 z " fill-rule="evenodd" fill="rgb(0,128,0)" stroke-width="5" stroke="rgb(0,0,0)" />
	<path d="M5398,4450.83 5398,4095.83 5708,3916.83 5708,4271.83 5398,4450.83 z " fill-rule="evenodd" fill="rgb(0,128,0)" stroke-width="5" stroke="rgb(0,0,0)" />
	<path d="M5398,4093.52 5398,3738.52 5708,3559.52 5708,3914.52 5398,4093.52 z " fill-rule="evenodd" fill="rgb(0,128,0)" stroke-width="5" stroke="rgb(0,0,0)" />
	<path d="M5398,3736.21 5398,3381.21 5708,3202.21 5708,3557.21 5398,3736.21 z " fill-rule="evenodd" fill="rgb(0,128,0)" stroke-width="5" stroke="rgb(0,0,0)" />
	<path d="M5398,3378.91 5398,3023.91 5708,2844.91 5708,3199.91 5398,3378.91 z " fill-rule="evenodd" fill="rgb(0,128,0)" stroke-width="5" stroke="rgb(0,0,0)" />
	<path d="M5398,3021.6 5398,2666.6 5708,2487.6 5708,2842.6 5398,3021.6 z " fill-rule="evenodd" fill="rgb(0,128,0)" stroke-width="5" stroke="rgb(0,0,0)" />
	<path d="M5398,2664.29 5398,2309.29 5708,2130.29 5708,2485.29 5398,2664.29 z " fill-rule="evenodd" fill="rgb(0,128,0)" stroke-width="5" stroke="rgb(0,0,0)" />
	<path d="M5398,2306.98 5398,1951.98 5708,1772.98 5708,2127.98 5398,2306.98 z " fill-rule="evenodd" fill="rgb(0,128,0)" stroke-width="5" stroke="rgb(0,0,0)" />
	<path d="M4774,1949.67 4774,1594.67 5084,1415.67 5084,1770.67 4774,1949.67 z " fill-rule="evenodd" fill="rgb(0,128,0)" stroke-width="5" stroke="rgb(0,0,0)" />
	<path d="M4150,1949.67 4150,1594.67 4460,1415.67 4460,1770.67 4150,1949.67 z " fill-rule="evenodd" fill="rgb(0,128,0)" stroke-width="5" stroke="rgb(0,0,0)" />
	<path d="M3526,1949.67 3526,1594.67 3836,1415.67 3836,1770.67 3526,1949.67 z " fill-rule="evenodd" fill="rgb(0,128,0)" stroke-width="5" stroke="rgb(0,0,0)" />
	<path d="M2278,1949.67 2278,1594.67 2588,1415.67 2588,1770.67 2278,1949.67 z " fill-rule="evenodd" fill="rgb(0,128,0)" stroke-width="5" stroke="rgb(0,0,0)" />
	<path d="M6022,5165.45 6022,4810.45 6332,4631.45 6332,4986.45 6022,5165.45 z " fill-rule="evenodd" fill="rgb(0,128,0)" stroke-width="5" stroke="rgb(0,0,0)" />
	<path d="M5398,5165.45 5398,4810.45 5708,4631.45 5708,4986.45 5398,5165.45 z " fill-rule="evenodd" fill="rgb(0,128,0)" stroke-width="5" stroke="rgb(0,0,0)" />
	<path d="M6022,4808.14 6022,4453.14 6332,4274.14 6332,4629.14 6022,4808.14 z " fill-rule="evenodd" fill="rgb(0,128,0)" stroke-width="5" stroke="rgb(0,0,0)" />
	<path d="M6022,4450.83 6022,4095.83 6332,3916.83 6332,4271.83 6022,4450.83 z " fill-rule="evenodd" fill="rgb(0,128,0)" stroke-width="5" stroke="rgb(0,0,0)" />
	<path d="M6022,4093.52 6022,3738.52 6332,3559.52 6332,3914.52 6022,4093.52 z " fill-rule="evenodd" fill="rgb(0,128,0)" stroke-width="5" stroke="rgb(0,0,0)" />
	<path d="M6022,3736.21 6022,3381.21 6332,3202.21 6332,3557.21 6022,3736.21 z " fill-rule="evenodd" fill="rgb(0,128,0)" stroke-width="5" stroke="rgb(0,0,0)" />
	<path d="M6022,3378.91 6022,3023.91 6332,2844.91 6332,3199.91 6022,3378.91 z " fill-rule="evenodd" fill="rgb(0,128,0)" stroke-width="5" stroke="rgb(0,0,0)" />
	<path d="M6022,3021.6 6022,2666.6 6332,2487.6 6332,2842.6 6022,3021.6 z " fill-rule="evenodd" fill="rgb(0,128,0)" stroke-width="5" stroke="rgb(0,0,0)" />
	<path d="M6022,2664.29 6022,2309.29 6332,2130.29 6332,2485.29 6022,2664.29 z " fill-rule="evenodd" fill="rgb(0,128,0)" stroke-width="5" stroke="rgb(0,0,0)" />
	<path d="M4150,1592.36 4150,1237.36 4460,1058.36 4460,1413.36 4150,1592.36 z " fill-rule="evenodd" fill="rgb(0,128,0)" stroke-width="5" stroke="rgb(0,0,0)" />
	<path d="M3526,1592.36 3526,1237.36 3836,1058.36 3836,1413.36 3526,1592.36 z " fill-rule="evenodd" fill="rgb(0,128,0)" stroke-width="5" stroke="rgb(0,0,0)" />
	<path d="M2278,1592.36 2278,1237.36 2588,1058.36 2588,1413.36 2278,1592.36 z " fill-rule="evenodd" fill="rgb(0,128,0)" stroke-width="5" stroke="rgb(0,0,0)" />
	<path d="M6646,5522.76 6646,5167.76 6956,4988.76 6956,5343.76 6646,5522.76 z " fill-rule="evenodd" fill="rgb(0,128,0)" stroke-width="5" stroke="rgb(0,0,0)" />
	<path d="M6022,5522.76 6022,5167.76 6332,4988.76 6332,5343.76 6022,5522.76 z " fill-rule="evenodd" fill="rgb(0,128,0)" stroke-width="5" stroke="rgb(0,0,0)" />
	<path d="M5398,5522.76 5398,5167.76 5708,4988.76 5708,5343.76 5398,5522.76 z " fill-rule="evenodd" fill="rgb(0,128,0)" stroke-width="5" stroke="rgb(0,0,0)" />
	<path d="M6646,5165.45 6646,4810.45 6956,4631.45 6956,4986.45 6646,5165.45 z " fill-rule="evenodd" fill="rgb(0,128,0)" stroke-width="5" stroke="rgb(0,0,0)" />
	<path d="M6646,4808.14 6646,4453.14 6956,4274.14 6956,4629.14 6646,4808.14 z " fill-rule="evenodd" fill="rgb(0,128,0)" stroke-width="5" stroke="rgb(0,0,0)" />
	<path d="M6646,4450.83 6646,4095.83 6956,3916.83 6956,4271.83 6646,4450.83 z " fill-rule="evenodd" fill="rgb(0,128,0)" stroke-width="5" stroke="rgb(0,0,0)" />
	<path d="M6646,4093.52 6646,3738.52 6956,3559.52 6956,3914.52 6646,4093.52 z " fill-rule="evenodd" fill="rgb(0,128,0)" stroke-width="5" stroke="rgb(0,0,0)" />
	<path d="M6646,3736.21 6646,3381.21 6956,3202.21 6956,3557.21 6646,3736.21 z " fill-rule="evenodd" fill="rgb(0,128,0)" stroke-width="5" stroke="rgb(0,0,0)" />
	<path d="M6646,3378.91 6646,3023.91 6956,2844.91 6956,3199.91 6646,3378.91 z " fill-rule="evenodd" fill="rgb(0,128,0)" stroke-width="5" stroke="rgb(0,0,0)" />
	<path d="M6646,3021.6 6646,2666.6 6956,2487.6 6956,2842.6 6646,3021.6 z " fill-rule="evenodd" fill="rgb(0,128,0)" stroke-width="5" stroke="rgb(0,0,0)" />
	<path d="M6646,2664.29 6646,2309.29 6956,2130.29 6956,2485.29 6646,2664.29 z " fill-rule="evenodd" fill="rgb(0,128,0)" stroke-width="5" stroke="rgb(0,0,0)" />
	<path d="M2902,1235.05 2902,880.048 3212,701.048 3212,1056.05 2902,1235.05 z " fill-rule="evenodd" fill="rgb(0,128,0)" stroke-width="5" stroke="rgb(0,0,0)" />
	<path d="M2278,1235.05 2278,880.048 2588,701.048 2588,1056.05 2278,1235.05 z " fill-rule="evenodd" fill="rgb(0,128,0)" stroke-width="5" stroke="rgb(0,0,0)" />
	<path d="M7270,5522.76 7270,5167.76 7580,4988.76 7580,5343.76 7270,5522.76 z " fill-rule="evenodd" fill="rgb(0,128,0)" stroke-width="5" stroke="rgb(0,0,0)" />
	<path d="M7270,5165.45 7270,4810.45 7580,4631.45 7580,4986.45 7270,5165.45 z " fill-rule="evenodd" fill="rgb(0,128,0)" stroke-width="5" stroke="rgb(0,0,0)" />
	<path d="M7270,4808.14 7270,4453.14 7580,4274.14 7580,4629.14 7270,4808.14 z " fill-rule="evenodd" fill="rgb(0,128,0)" stroke-width="5" stroke="rgb(0,0,0)" />
	<path d="M7270,4450.83 7270,4095.83 7580,3916.83 7580,4271.83 7270,4450.83 z " fill-rule="evenodd" fill="rgb(0,128,0)" stroke-width="5" stroke="rgb(0,0,0)" />
	<path d="M7270,4093.52 7270,3738.52 7580,3559.52 7580,3914.52 7270,4093.52 z " fill-rule="evenodd" fill="rgb(0,128,0)" stroke-width="5" stroke="rgb(0,0,0)" />
	<path d="M7270,3736.21 7270,3381.21 7580,3202.21 7580,3557.21 7270,3736.21 z " fill-rule="evenodd" fill="rgb(0,128,0)" stroke-width="5" stroke="rgb(0,0,0)" />
	<path d="M7270,3378.91 7270,3023.91 7580,2844.91 7580,3199.91 7270,3378.91 z " fill-rule="evenodd" fill="rgb(0,128,0)" stroke-width="5" stroke="rgb(0,0,0)" />
	<path d="M7270,3021.6 7270,2666.6 7580,2487.6 7580,2842.6 7270,3021.6 z " fill-rule="evenodd" fill="rgb(0,128,0)" stroke-width="5" stroke="rgb(0,0,0)" />
	<path d="M2278,877.739 2278,522.739 2588,343.739 2588,698.739 2278,877.739 z " fill-rule="evenodd" fill="rgb(0,128,0)" stroke-width="5" stroke="rgb(0,0,0)" />
	<path d="M7894,5522.76 7894,5167.76 8204,4988.76 8204,5343.76 7894,5522.76 z " fill-rule="evenodd" fill="rgb(0,128,0)" stroke-width="5" stroke="rgb(0,0,0)" />
	<path d="M7894,5165.45 7894,4810.45 8204,4631.45 8204,4986.45 7894,5165.45 z " fill-rule="evenodd" fill="rgb(0,128,0)" stroke-width="5" stroke="rgb(0,0,0)" />
	<path d="M7894,4808.14 7894,4453.14 8204,4274.14 8204,4629.14 7894,4808.14 z " fill-rule="evenodd" fill="rgb(0,128,0)" stroke-width="5" stroke="rgb(0,0,0)" />
	<path d="M7894,4450.83 7894,4095.83 8204,3916.83 8204,4271.83 7894,4450.83 z " fill-rule="evenodd" fill="rgb(0,128,0)" stroke-width="5" stroke="rgb(0,0,0)" />
	<path d="M7894,4093.52 7894,3738.52 8204,3559.52 8204,3914.52 7894,4093.52 z " fill-rule="evenodd" fill="rgb(0,128,0)" stroke-width="5" stroke="rgb(0,0,0)" />
	<path d="M7894,3736.21 7894,3381.21 8204,3202.21 8204,3557.21 7894,3736.21 z " fill-rule="evenodd" fill="rgb(0,128,0)" stroke-width="5" stroke="rgb(0,0,0)" />
	<path d="M7894,3378.91 7894,3023.91 8204,2844.91 8204,3199.91 7894,3378.91 z " fill-rule="evenodd" fill="rgb(0,128,0)" stroke-width="5" stroke="rgb(0,0,0)" />
	<path d="M2590,6775.31 2896,6952 2590,6952 2590,6775.31 z " fill-rule="evenodd" fill="rgb(255,0,0)" stroke-width="5" stroke="rgb(0,0,0)" />
	<path d="M1966,6775.31 2272,6952 1966,6952 1966,6775.31 z " fill-rule="evenodd" fill="rgb(255,0,0)" stroke-width="5" stroke="rgb(0,0,0)" />
	<path d="M1342,6775.31 1648,6952 1342,6952 1342,6775.31 z " fill-rule="evenodd" fill="rgb(255,0,0)" stroke-width="5" stroke="rgb(0,0,0)" />
	<path d="M718,6775.31 1024,6952 718,6952 718,6775.31 z " fill-rule="evenodd" fill="rgb(255,0,0)" stroke-width="5" stroke="rgb(0,0,0)" />
	<path d="M400,6952 100,6952 100,6778.77 400,6952 z " fill-rule="evenodd" fill="rgb(255,0,0)" stroke-width="5" stroke="rgb(0,0,0)" />
	<path d="M404,6597 404,6952 404,6952 100,6776.46 100,6421.46 404,6597 z " fill-rule="evenodd" fill="rgb(255,0,0)" stroke-width="5" stroke="rgb(0,0,0)" />
	<path d="M404,6239.69 404,6594.69 100,6419.16 100,6064.16 404,6239.69 z " fill-rule="evenodd" fill="rgb(255,0,0)" stroke-width="5" stroke="rgb(0,0,0)" />
	<path d="M404,5882.38 404,6237.38 100,6061.85 100,5706.85 404,5882.38 z " fill-rule="evenodd" fill="rgb(255,0,0)" stroke-width="5" stroke="rgb(0,0,0)" />
	<path d="M404,5525.07 404,5880.07 100,5704.54 100,5349.54 404,5525.07 z " fill-rule="evenodd" fill="rgb(255,0,0)" stroke-width="5" stroke="rgb(0,0,0)" />
	<path d="M404,5167.76 404,5522.76 100,5347.23 100,4992.23 404,5167.76 z " fill-rule="evenodd" fill="rgb(255,0,0)" stroke-width="5" stroke="rgb(0,0,0)" />
	<path d="M404,4810.45 404,5165.45 100,4989.92 100,4634.92 404,4810.45 z " fill-rule="evenodd" fill="rgb(255,0,0)" stroke-width="5" stroke="rgb(0,0,0)" />
	<path d="M404,4453.14 404,4808.14 100,4632.61 100,4277.61 404,4453.14 z " fill-rule="evenodd" fill="rgb(255,0,0)" stroke-width="5" stroke="rgb(0,0,0)" />
	<path d="M404,4095.83 404,4450.83 100,4275.3 100,3920.3 404,4095.83 z " fill-rule="evenodd" fill="rgb(255,0,0)" stroke-width="5" stroke="rgb(0,0,0)" />
	<path d="M404,3738.52 404,4093.52 100,3917.99 100,3562.99 404,3738.52 z " fill-rule="evenodd" fill="rgb(255,0,0)" stroke-width="5" stroke="rgb(0,0,0)" />
	<path d="M404,3381.21 404,3736.21 100,3560.68 100,3205.68 404,3381.21 z " fill-rule="evenodd" fill="rgb(255,0,0)" stroke-width="5" stroke="rgb(0,0,0)" />
	<path d="M3214,2844.91 3399.47,2952 3214,2952 3214,2844.91 z " fill-rule="evenodd" fill="rgb(255,0,0)" stroke-width="5" stroke="rgb(0,0,0)" />
	<path d="M2900,3378.91 2590,3199.91 2590,2844.91 2850,2995.03 2850,3152 2900,3152 2900,3378.91 z " fill-rule="evenodd" fill="rgb(255,0,0)" stroke-width="5" stroke="rgb(0,0,0)" />
	<path d="M1966,2844.91 2276,3023.91 2276,3378.91 1966,3199.91 1966,3152 2050,3152 2050,2952 1966,2952 1966,2844.91 z " fill-rule="evenodd" fill="rgb(255,0,0)" stroke-width="5" stroke="rgb(0,0,0)" />
	<path d="M1652,3378.91 1342,3199.91 1342,3152 1652,3152 1652,3378.91 z " fill-rule="evenodd" fill="rgb(255,0,0)" stroke-width="5" stroke="rgb(0,0,0)" />
	<path d="M1342,2844.91 1527.47,2952 1342,2952 1342,2844.91 z " fill-rule="evenodd" fill="rgb(255,0,0)" stroke-width="5" stroke="rgb(0,0,0)" />
	<path d="M1028,3378.91 718,3199.91 718,3152 1028,3152 1028,3378.91 z " fill-rule="evenodd" fill="rgb(255,0,0)" stroke-width="5" stroke="rgb(0,0,0)" />
	<path d="M718,2844.91 903.471,2952 718,2952 718,2844.91 z " fill-rule="evenodd" fill="rgb(255,0,0)" stroke-width="5" stroke="rgb(0,0,0)" />
	<path d="M404,3378.91 100,3203.37 100,3152 404,3152 404,3378.91 z " fill-rule="evenodd" fill="rgb(255,0,0)" stroke-width="5" stroke="rgb(0,0,0)" />
	<path d="M279.471,2952 100,2952 100,2848.37 279.471,2952 z " fill-rule="evenodd" fill="rgb(255,0,0)" stroke-width="5" stroke="rgb(0,0,0)" />
	<path d="M4148,3378.91 3838,3199.91 3838,3052 4148,3052 4148,3378.91 z " fill-rule="evenodd" fill="rgb(255,0,0)" stroke-width="5" stroke="rgb(0,0,0)" />
	<path d="M3838,2844.91 4023.47,2952 3838,2952 3838,2844.91 z " fill-rule="evenodd" fill="rgb(255,0,0)" stroke-width="5" stroke="rgb(0,0,0)" />
	<path d="M3838,2842.6 3838,2487.6 4148,2666.6 4148,2952 4027.47,2952 3838,2842.6 z " fill-rule="evenodd" fill="rgb(255,0,0)" stroke-width="5" stroke="rgb(0,0,0)" />
	<path d="M3214,2842.6 3214,2487.6 3524,2666.6 3524,2952 3403.47,2952 3214,2842.6 z " fill-rule="evenodd" fill="rgb(255,0,0)" stroke-width="5" stroke="rgb(0,0,0)" />
	<path d="M2590,2842.6 2590,2487.6 2900,2666.6 2900,2952 2850,2952 2850,2992.72 2590,2842.6 z " fill-rule="evenodd" fill="rgb(255,0,0)" stroke-width="5" stroke="rgb(0,0,0)" />
	<path d="M1342,2842.6 1342,2487.6 1652,2666.6 1652,2952 1531.47,2952 1342,2842.6 z " fill-rule="evenodd" fill="rgb(255,0,0)" stroke-width="5" stroke="rgb(0,0,0)" />
	<path d="M718,2842.6 718,2487.6 1028,2666.6 1028,2952 907.471,2952 718,2842.6 z " fill-rule="evenodd" fill="rgb(255,0,0)" stroke-width="5" stroke="rgb(0,0,0)" />
	<path d="M404,2666.6 404,2952 283.471,2952 100,2846.06 100,2491.06 404,2666.6 z " fill-rule="evenodd" fill="rgb(255,0,0)" stroke-width="5" stroke="rgb(0,0,0)" />
	<path d="M404,2309.29 404,2664.29 100,2488.75 100,2133.75 404,2309.29 z " fill-rule="evenodd" fill="rgb(255,0,0)" stroke-width="5" stroke="rgb(0,0,0)" />
	<path d="M404,1951.98 404,2306.98 100,2131.44 100,1776.44 404,1951.98 z " fill-rule="evenodd" fill="rgb(255,0,0)" stroke-width="5" stroke="rgb(0,0,0)" />
	<path d="M6020,1949.67 5710,1770.67 5710,1545.56 6020,1671.43 6020,1949.67 z " fill-rule="evenodd" fill="rgb(255,0,0)" stroke-width="5" stroke="rgb(0,0,0)" />
	<path d="M3524,1594.67 3524,1949.67 3214,1770.67 3214,1436.78 3220.94,1419.67 3524,1594.67 z " fill-rule="evenodd" fill="rgb(255,0,0)" stroke-width="5" stroke="rgb(0,0,0)" />
	<path d="M2276,1594.67 2276,1949.67 1966,1770.67 1966,1602 2150,1602 2150,1521.91 2276,1594.67 z " fill-rule="evenodd" fill="rgb(255,0,0)" stroke-width="5" stroke="rgb(0,0,0)" />
	<path d="M1652,1949.67 1342,1770.67 1342,1502 1400,1502 1400,1602 1652,1602 1652,1949.67 z " fill-rule="evenodd" fill="rgb(255,0,0)" stroke-width="5" stroke="rgb(0,0,0)" />
	<path d="M1028,1594.67 1028,1949.67 718,1770.67 718,1502 867.515,1502 1028,1594.67 z " fill-rule="evenodd" fill="rgb(255,0,0)" stroke-width="5" stroke="rgb(0,0,0)" />
	<path d="M404,1949.67 100,1774.13 100,1602 404,1602 404,1949.67 z " fill-rule="evenodd" fill="rgb(255,0,0)" stroke-width="5" stroke="rgb(0,0,0)" />
	<path d="M4462,4631.45 4772,4810.45 4772,4952 4462,4952 4462,4631.45 z " fill-rule="evenodd" fill="rgb(255,0,0)" stroke-width="5" stroke="rgb(0,0,0)" />
	<path d="M3838,4631.45 4148,4810.45 4148,4952 3838,4952 3838,4631.45 z " fill-rule="evenodd" fill="rgb(255,0,0)" stroke-width="5" stroke="rgb(0,0,0)" />
	<path d="M6644,1951.98 6644,2306.98 6334,2127.98 6334,1798.93 6485.41,1860.4 6644,1951.98 z " fill-rule="evenodd" fill="rgb(255,0,0)" stroke-width="5" stroke="rgb(0,0,0)" />
	<path d="M6644,1949.67 6498.89,1865.88 6644,1924.8 6644,1949.67 z " fill-rule="evenodd" fill="rgb(255,0,0)" stroke-width="5" stroke="rgb(0,0,0)" />
	<path d="M5396,1592.36 5086,1413.36 5086,1292.2 5396,1418.07 5396,1592.36 z " fill-rule="evenodd" fill="rgb(255,0,0)" stroke-width="5" stroke="rgb(0,0,0)" />
	<path d="M3524,1237.36 3524,1592.36 3221.7,1417.8 3338.34,1130.16 3524,1237.36 z " fill-rule="evenodd" fill="rgb(255,0,0)" stroke-width="5" stroke="rgb(0,0,0)" />
	<path d="M3214,1058.36 3251.25,1079.87 3214,1171.69 3214,1058.36 z " fill-rule="evenodd" fill="rgb(255,0,0)" stroke-width="5" stroke="rgb(0,0,0)" />
	<path d="M2276,1237.36 2276,1592.36 2150,1519.6 2150,1164.6 2276,1237.36 z " fill-rule="evenodd" fill="rgb(255,0,0)" stroke-width="5" stroke="rgb(0,0,0)" />
	<path d="M1028,1592.36 871.514,1502 1028,1502 1028,1592.36 z " fill-rule="evenodd" fill="rgb(255,0,0)" stroke-width="5" stroke="rgb(0,0,0)" />
	<path d="M7268,2306.98 6958,2127.98 6958,2052.29 7268,2178.16 7268,2306.98 z " fill-rule="evenodd" fill="rgb(255,0,0)" stroke-width="5" stroke="rgb(0,0,0)" />
	<path d="M4772,1235.05 4462,1056.05 4462,1038.83 4772,1164.7 4772,1235.05 z " fill-rule="evenodd" fill="rgb(255,0,0)" stroke-width="5" stroke="rgb(0,0,0)" />
	<path d="M4148,1235.05 3838,1056.05 3838,785.465 4148,911.335 4148,1235.05 z " fill-rule="evenodd" fill="rgb(255,0,0)" stroke-width="5" stroke="rgb(0,0,0)" />
	<path d="M3524,880.048 3524,1235.05 3339.1,1128.28 3455.75,840.638 3524,880.048 z " fill-rule="evenodd" fill="rgb(255,0,0)" stroke-width="5" stroke="rgb(0,0,0)" />
	<path d="M3214,1056.05 3214,701.048 3368.69,790.372 3252.01,1078 3214,1056.05 z " fill-rule="evenodd" fill="rgb(255,0,0)" stroke-width="5" stroke="rgb(0,0,0)" />
	<path d="M2276,880.048 2276,1235.05 2150,1162.29 2150,807.294 2276,880.048 z " fill-rule="evenodd" fill="rgb(255,0,0)" stroke-width="5" stroke="rgb(0,0,0)" />
	<path d="M7582,5346.07 7892,5525.07 7892,5552 7582,5552 7582,5346.07 z " fill-rule="evenodd" fill="rgb(255,0,0)" stroke-width="5" stroke="rgb(0,0,0)" />
	<path d="M6958,5346.07 7268,5525.07 7268,5552 6958,5552 6958,5346.07 z " fill-rule="evenodd" fill="rgb(255,0,0)" stroke-width="5" stroke="rgb(0,0,0)" />
	<path d="M6334,5346.07 6644,5525.07 6644,5552 6334,5552 6334,5346.07 z " fill-rule="evenodd" fill="rgb(255,0,0)" stroke-width="5" stroke="rgb(0,0,0)" />
	<path d="M5710,5346.07 6020,5525.07 6020,5552 5710,5552 5710,5346.07 z " fill-rule="evenodd" fill="rgb(255,0,0)" stroke-width="5" stroke="rgb(0,0,0)" />
	<path d="M5086,5346.07 5396,5525.07 5396,5552 5086,5552 5086,5346.07 z " fill-rule="evenodd" fill="rgb(255,0,0)" stroke-width="5" stroke="rgb(0,0,0)" />
	<path d="M7892,2664.29 7582,2485.29 7582,2305.66 7892,2431.53 7892,2664.29 z " fill-rule="evenodd" fill="rgb(255,0,0)" stroke-width="5" stroke="rgb(0,0,0)" />
	<path d="M3524,877.739 3456.51,838.767 3524,672.33 3524,877.739 z " fill-rule="evenodd" fill="rgb(255,0,0)" stroke-width="5" stroke="rgb(0,0,0)" />
	<path d="M3214,698.739 3214,531.552 3437,622 3369.45,788.501 3214,698.739 z " fill-rule="evenodd" fill="rgb(255,0,0)" stroke-width="5" stroke="rgb(0,0,0)" />
	<path d="M2276,522.739 2276,877.739 2150,804.984 2150,449.984 2276,522.739 z " fill-rule="evenodd" fill="rgb(255,0,0)" stroke-width="5" stroke="rgb(0,0,0)" />
	<path d="M8206,5346.07 8516,5525.07 8516,5552 8206,5552 8206,5346.07 z " fill-rule="evenodd" fill="rgb(255,0,0)" stroke-width="5" stroke="rgb(0,0,0)" />
	<path d="M8516,3021.6 8206,2842.6 8206,2559.02 8516,2684.89 8516,3021.6 z " fill-rule="evenodd" fill="rgb(255,0,0)" stroke-width="5" stroke="rgb(0,0,0)" />
	<path d="M2900,520.43 2590,341.43 2590,278.462 2900,404.196 2900,520.43 z " fill-rule="evenodd" fill="rgb(255,0,0)" stroke-width="5" stroke="rgb(0,0,0)" />
	<path d="M2276,165.43 2276,520.43 2150,447.675 2150,100 2192.63,117.291 2276,165.43 z " fill-rule="evenodd" fill="rgb(255,0,0)" stroke-width="5" stroke="rgb(0,0,0)" />
	<path d="M2276,163.12 2206.07,122.743 2276,151.105 2276,163.12 z " fill-rule="evenodd" fill="rgb(255,0,0)" stroke-width="5" stroke="rgb(0,0,0)" />
	<path d="M3100,6839.98 3100,6852 3079.18,6852 3100,6839.98 z " fill-rule="evenodd" fill="rgb(255,0,0)" stroke-width="5" stroke="rgb(0,0,0)" />
	<path d="M2588,6775.31 2588,6952 2282,6952 2588,6775.31 z " fill-rule="evenodd" fill="rgb(255,0,0)" stroke-width="5" stroke="rgb(0,0,0)" />
	<path d="M2902,6597 3100,6482.67 3100,6837.67 3075.18,6852 2902,6852 2902,6597 z " fill-rule="evenodd" fill="rgb(255,0,0)" stroke-width="5" stroke="rgb(0,0,0)" />
	<path d="M2902,6239.69 3100,6125.36 3100,6480.36 2902,6594.69 2902,6239.69 z " fill-rule="evenodd" fill="rgb(255,0,0)" stroke-width="5" stroke="rgb(0,0,0)" />
	<path d="M1964,6775.31 1964,6952 1658,6952 1964,6775.31 z " fill-rule="evenodd" fill="rgb(255,0,0)" stroke-width="5" stroke="rgb(0,0,0)" />
	<path d="M2902,6052 3100,6052 3100,6123.05 2902,6237.38 2902,6052 z " fill-rule="evenodd" fill="rgb(255,0,0)" stroke-width="5" stroke="rgb(0,0,0)" />
	<path d="M1340,6775.31 1340,6952 1034,6952 1340,6775.31 z " fill-rule="evenodd" fill="rgb(255,0,0)" stroke-width="5" stroke="rgb(0,0,0)" />
	<path d="M716,6775.31 716,6952 410,6952 716,6775.31 z " fill-rule="evenodd" fill="rgb(255,0,0)" stroke-width="5" stroke="rgb(0,0,0)" />
	<path d="M3212,2844.91 3212,2952 3026.53,2952 3212,2844.91 z " fill-rule="evenodd" fill="rgb(255,0,0)" stroke-width="5" stroke="rgb(0,0,0)" />
	<path d="M1654,3152 1964,3152 1964,3199.91 1654,3378.91 1654,3152 z " fill-rule="evenodd" fill="rgb(255,0,0)" stroke-width="5" stroke="rgb(0,0,0)" />
	<path d="M1964,2844.91 1964,2952 1778.53,2952 1964,2844.91 z " fill-rule="evenodd" fill="rgb(255,0,0)" stroke-width="5" stroke="rgb(0,0,0)" />
	<path d="M1030,3152 1340,3152 1340,3199.91 1030,3378.91 1030,3152 z " fill-rule="evenodd" fill="rgb(255,0,0)" stroke-width="5" stroke="rgb(0,0,0)" />
	<path d="M1340,2844.91 1340,2952 1154.53,2952 1340,2844.91 z " fill-rule="evenodd" fill="rgb(255,0,0)" stroke-width="5" stroke="rgb(0,0,0)" />
	<path d="M406,3152 716,3152 716,3199.91 406,3378.91 406,3152 z " fill-rule="evenodd" fill="rgb(255,0,0)" stroke-width="5" stroke="rgb(0,0,0)" />
	<path d="M716,2844.91 716,2952 530.529,2952 716,2844.91 z " fill-rule="evenodd" fill="rgb(255,0,0)" stroke-width="5" stroke="rgb(0,0,0)" />
	<path d="M3836,3202.21 3836,3557.21 3700,3635.74 3700,3280.74 3836,3202.21 z " fill-rule="evenodd" fill="rgb(255,0,0)" stroke-width="5" stroke="rgb(0,0,0)" />
	<path d="M3836,2844.91 3836,2952 3650.53,2952 3836,2844.91 z " fill-rule="evenodd" fill="rgb(255,0,0)" stroke-width="5" stroke="rgb(0,0,0)" />
	<path d="M3836,3199.91 3700,3278.43 3700,3052 3836,3052 3836,3199.91 z " fill-rule="evenodd" fill="rgb(255,0,0)" stroke-width="5" stroke="rgb(0,0,0)" />
	<path d="M3526,2666.6 3836,2487.6 3836,2842.6 3646.53,2952 3526,2952 3526,2666.6 z " fill-rule="evenodd" fill="rgb(255,0,0)" stroke-width="5" stroke="rgb(0,0,0)" />
	<path d="M2902,2666.6 3212,2487.6 3212,2842.6 3022.53,2952 2902,2952 2902,2666.6 z " fill-rule="evenodd" fill="rgb(255,0,0)" stroke-width="5" stroke="rgb(0,0,0)" />
	<path d="M1654,2666.6 1964,2487.6 1964,2842.6 1774.53,2952 1654,2952 1654,2666.6 z " fill-rule="evenodd" fill="rgb(255,0,0)" stroke-width="5" stroke="rgb(0,0,0)" />
	<path d="M1030,2666.6 1340,2487.6 1340,2842.6 1150.53,2952 1030,2952 1030,2666.6 z " fill-rule="evenodd" fill="rgb(255,0,0)" stroke-width="5" stroke="rgb(0,0,0)" />
	<path d="M406,2666.6 716,2487.6 716,2842.6 526.529,2952 406,2952 406,2666.6 z " fill-rule="evenodd" fill="rgb(255,0,0)" stroke-width="5" stroke="rgb(0,0,0)" />
	<path d="M3836,3559.52 3836,3914.52 3700,3993.05 3700,3638.05 3836,3559.52 z " fill-rule="evenodd" fill="rgb(255,0,0)" stroke-width="5" stroke="rgb(0,0,0)" />
	<path d="M4150,3052 4200,3052 4200,2995.03 4460,2844.91 4460,3199.91 4150,3378.91 4150,3052 z " fill-rule="evenodd" fill="rgb(255,0,0)" stroke-width="5" stroke="rgb(0,0,0)" />
	<path d="M4150,2666.6 4460,2487.6 4460,2842.6 4200,2992.72 4200,2952 4150,2952 4150,2666.6 z " fill-rule="evenodd" fill="rgb(255,0,0)" stroke-width="5" stroke="rgb(0,0,0)" />
	<path d="M4774,4095.83 4950,3994.21 4950,4349.21 4774,4450.83 4774,4095.83 z " fill-rule="evenodd" fill="rgb(255,0,0)" stroke-width="5" stroke="rgb(0,0,0)" />
	<path d="M5084,3916.83 5084,4271.83 5050,4291.47 5050,3936.47 5084,3916.83 z " fill-rule="evenodd" fill="rgb(255,0,0)" stroke-width="5" stroke="rgb(0,0,0)" />
	<path d="M3836,3916.83 3836,4271.83 3700,4350.36 3700,3995.36 3836,3916.83 z " fill-rule="evenodd" fill="rgb(255,0,0)" stroke-width="5" stroke="rgb(0,0,0)" />
	<path d="M4774,3738.52 4950,3636.9 4950,3991.9 4774,4093.52 4774,3738.52 z " fill-rule="evenodd" fill="rgb(255,0,0)" stroke-width="5" stroke="rgb(0,0,0)" />
	<path d="M5084,3559.52 5084,3914.52 5050,3934.16 5050,3579.16 5084,3559.52 z " fill-rule="evenodd" fill="rgb(255,0,0)" stroke-width="5" stroke="rgb(0,0,0)" />
	<path d="M4774,3381.21 4950,3279.59 4950,3634.59 4774,3736.21 4774,3381.21 z " fill-rule="evenodd" fill="rgb(255,0,0)" stroke-width="5" stroke="rgb(0,0,0)" />
	<path d="M5084,3202.21 5084,3557.21 5050,3576.85 5050,3221.85 5084,3202.21 z " fill-rule="evenodd" fill="rgb(255,0,0)" stroke-width="5" stroke="rgb(0,0,0)" />
	<path d="M4774,3023.91 5084,2844.91 5084,3199.91 5050,3219.54 5050,2952 4900,2952 4900,3052 4950,3052 4950,3277.28 4774,3378.91 4774,3023.91 z " fill-rule="evenodd" fill="rgb(255,0,0)" stroke-width="5" stroke="rgb(0,0,0)" />
	<path d="M4774,4453.14 4950,4351.52 4950,4706.52 4774,4808.14 4774,4453.14 z " fill-rule="evenodd" fill="rgb(255,0,0)" stroke-width="5" stroke="rgb(0,0,0)" />
	<path d="M5084,4274.14 5084,4629.14 5050,4648.78 5050,4293.78 5084,4274.14 z " fill-rule="evenodd" fill="rgb(255,0,0)" stroke-width="5" stroke="rgb(0,0,0)" />
	<path d="M3836,4274.14 3836,4629.14 3700,4707.67 3700,4352.67 3836,4274.14 z " fill-rule="evenodd" fill="rgb(255,0,0)" stroke-width="5" stroke="rgb(0,0,0)" />
	<path d="M5398,1594.67 5576.75,1491.46 5708,1544.75 5708,1770.67 5398,1949.67 5398,1594.67 z " fill-rule="evenodd" fill="rgb(255,0,0)" stroke-width="5" stroke="rgb(0,0,0)" />
	<path d="M2902,1594.67 2950,1566.95 2950,1602 3147,1602 3212,1441.71 3212,1770.67 2902,1949.67 2902,1594.67 z " fill-rule="evenodd" fill="rgb(255,0,0)" stroke-width="5" stroke="rgb(0,0,0)" />
	<path d="M3085.36,1488.79 3080,1502 3062.49,1502 3085.36,1488.79 z " fill-rule="evenodd" fill="rgb(255,0,0)" stroke-width="5" stroke="rgb(0,0,0)" />
	<path d="M1654,1602 1964,1602 1964,1770.67 1654,1949.67 1654,1602 z " fill-rule="evenodd" fill="rgb(255,0,0)" stroke-width="5" stroke="rgb(0,0,0)" />
	<path d="M1030,1594.67 1190.49,1502 1340,1502 1340,1770.67 1030,1949.67 1030,1594.67 z " fill-rule="evenodd" fill="rgb(255,0,0)" stroke-width="5" stroke="rgb(0,0,0)" />
	<path d="M406,1602 700,1602 700,1502 716,1502 716,1770.67 406,1949.67 406,1602 z " fill-rule="evenodd" fill="rgb(255,0,0)" stroke-width="5" stroke="rgb(0,0,0)" />
	<path d="M4774,4810.45 4950,4708.83 4950,4952 4774,4952 4774,4810.45 z " fill-rule="evenodd" fill="rgb(255,0,0)" stroke-width="5" stroke="rgb(0,0,0)" />
	<path d="M5084,4631.45 5084,4986.45 5050,5006.08 5050,4651.08 5084,4631.45 z " fill-rule="evenodd" fill="rgb(255,0,0)" stroke-width="5" stroke="rgb(0,0,0)" />
	<path d="M4150,4810.45 4460,4631.45 4460,4952 4150,4952 4150,4810.45 z " fill-rule="evenodd" fill="rgb(255,0,0)" stroke-width="5" stroke="rgb(0,0,0)" />
	<path d="M3836,4631.45 3836,4952 3700,4952 3700,4709.98 3836,4631.45 z " fill-rule="evenodd" fill="rgb(255,0,0)" stroke-width="5" stroke="rgb(0,0,0)" />
	<path d="M6022,1951.98 6306.44,1787.74 6332,1798.11 6332,2127.98 6022,2306.98 6022,1951.98 z " fill-rule="evenodd" fill="rgb(255,0,0)" stroke-width="5" stroke="rgb(0,0,0)" />
	<path d="M6022,1672.24 6304.09,1786.78 6022,1949.67 6022,1672.24 z " fill-rule="evenodd" fill="rgb(255,0,0)" stroke-width="5" stroke="rgb(0,0,0)" />
	<path d="M5398,1418.88 5574.4,1490.5 5398,1592.36 5398,1418.88 z " fill-rule="evenodd" fill="rgb(255,0,0)" stroke-width="5" stroke="rgb(0,0,0)" />
	<path d="M4774,1237.36 4847.05,1195.18 5084,1291.38 5084,1413.36 4774,1592.36 4774,1237.36 z " fill-rule="evenodd" fill="rgb(255,0,0)" stroke-width="5" stroke="rgb(0,0,0)" />
	<path d="M2902,1237.36 3212,1058.36 3212,1176.62 3086.58,1485.78 3058.49,1502 2950,1502 2950,1564.64 2902,1592.36 2902,1237.36 z " fill-rule="evenodd" fill="rgb(255,0,0)" stroke-width="5" stroke="rgb(0,0,0)" />
	<path d="M1030,1502 1186.49,1502 1030,1592.36 1030,1502 z " fill-rule="evenodd" fill="rgb(255,0,0)" stroke-width="5" stroke="rgb(0,0,0)" />
	<path d="M5084,4988.76 5084,5343.76 5050,5363.39 5050,5008.39 5084,4988.76 z " fill-rule="evenodd" fill="rgb(255,0,0)" stroke-width="5" stroke="rgb(0,0,0)" />
	<path d="M6646,1951.98 6672.81,1936.5 6956,2051.48 6956,2127.98 6646,2306.98 6646,1951.98 z " fill-rule="evenodd" fill="rgb(255,0,0)" stroke-width="5" stroke="rgb(0,0,0)" />
	<path d="M6646,1925.61 6670.46,1935.54 6646,1949.67 6646,1925.61 z " fill-rule="evenodd" fill="rgb(255,0,0)" stroke-width="5" stroke="rgb(0,0,0)" />
	<path d="M4774,1165.51 4844.71,1194.22 4774,1235.05 4774,1165.51 z " fill-rule="evenodd" fill="rgb(255,0,0)" stroke-width="5" stroke="rgb(0,0,0)" />
	<path d="M4150,912.147 4460,1038.02 4460,1056.05 4150,1235.05 4150,912.147 z " fill-rule="evenodd" fill="rgb(255,0,0)" stroke-width="5" stroke="rgb(0,0,0)" />
	<path d="M3526,880.048 3750.99,750.135 3836,784.653 3836,1056.05 3526,1235.05 3526,880.048 z " fill-rule="evenodd" fill="rgb(255,0,0)" stroke-width="5" stroke="rgb(0,0,0)" />
	<path d="M7270,5525.07 7580,5346.07 7580,5552 7270,5552 7270,5525.07 z " fill-rule="evenodd" fill="rgb(255,0,0)" stroke-width="5" stroke="rgb(0,0,0)" />
	<path d="M6646,5525.07 6956,5346.07 6956,5552 6646,5552 6646,5525.07 z " fill-rule="evenodd" fill="rgb(255,0,0)" stroke-width="5" stroke="rgb(0,0,0)" />
	<path d="M6022,5525.07 6332,5346.07 6332,5552 6022,5552 6022,5525.07 z " fill-rule="evenodd" fill="rgb(255,0,0)" stroke-width="5" stroke="rgb(0,0,0)" />
	<path d="M5398,5525.07 5708,5346.07 5708,5552 5398,5552 5398,5525.07 z " fill-rule="evenodd" fill="rgb(255,0,0)" stroke-width="5" stroke="rgb(0,0,0)" />
	<path d="M5084,5346.07 5084,5552 5050,5552 5050,5365.7 5084,5346.07 z " fill-rule="evenodd" fill="rgb(255,0,0)" stroke-width="5" stroke="rgb(0,0,0)" />
	<path d="M7270,2309.29 7402.5,2232.78 7580,2304.85 7580,2485.29 7270,2664.29 7270,2309.29 z " fill-rule="evenodd" fill="rgb(255,0,0)" stroke-width="5" stroke="rgb(0,0,0)" />
	<path d="M7270,2178.97 7400.16,2231.82 7270,2306.98 7270,2178.97 z " fill-rule="evenodd" fill="rgb(255,0,0)" stroke-width="5" stroke="rgb(0,0,0)" />
	<path d="M3526,667.398 3529,660 3748.64,749.182 3526,877.739 3526,667.398 z " fill-rule="evenodd" fill="rgb(255,0,0)" stroke-width="5" stroke="rgb(0,0,0)" />
	<path d="M2902,522.739 3021.77,453.584 3212,530.741 3212,698.739 2902,877.739 2902,522.739 z " fill-rule="evenodd" fill="rgb(255,0,0)" stroke-width="5" stroke="rgb(0,0,0)" />
	<path d="M7894,5525.07 8204,5346.07 8204,5552 7894,5552 7894,5525.07 z " fill-rule="evenodd" fill="rgb(255,0,0)" stroke-width="5" stroke="rgb(0,0,0)" />
	<path d="M7894,2666.6 8132.2,2529.06 8204,2558.21 8204,2842.6 7894,3021.6 7894,2666.6 z " fill-rule="evenodd" fill="rgb(255,0,0)" stroke-width="5" stroke="rgb(0,0,0)" />
	<path d="M7894,2432.34 8129.85,2528.1 7894,2664.29 7894,2432.34 z " fill-rule="evenodd" fill="rgb(255,0,0)" stroke-width="5" stroke="rgb(0,0,0)" />
	<path d="M2902,405.007 3019.42,452.631 2902,520.43 2902,405.007 z " fill-rule="evenodd" fill="rgb(255,0,0)" stroke-width="5" stroke="rgb(0,0,0)" />
	<path d="M2278,165.43 2291.75,157.492 2588,277.65 2588,341.43 2278,520.43 2278,165.43 z " fill-rule="evenodd" fill="rgb(255,0,0)" stroke-width="5" stroke="rgb(0,0,0)" />
	<path d="M8518,5525.07 8600,5477.72 8600,5552 8518,5552 8518,5525.07 z " fill-rule="evenodd" fill="rgb(255,0,0)" stroke-width="5" stroke="rgb(0,0,0)" />
	<path d="M8518,5167.76 8600,5120.41 8600,5475.41 8518,5522.76 8518,5167.76 z " fill-rule="evenodd" fill="rgb(255,0,0)" stroke-width="5" stroke="rgb(0,0,0)" />
	<path d="M8518,4810.45 8600,4763.1 8600,5118.1 8518,5165.45 8518,4810.45 z " fill-rule="evenodd" fill="rgb(255,0,0)" stroke-width="5" stroke="rgb(0,0,0)" />
	<path d="M8518,4453.14 8600,4405.79 8600,4760.79 8518,4808.14 8518,4453.14 z " fill-rule="evenodd" fill="rgb(255,0,0)" stroke-width="5" stroke="rgb(0,0,0)" />
	<path d="M8518,4095.83 8600,4048.49 8600,4403.49 8518,4450.83 8518,4095.83 z " fill-rule="evenodd" fill="rgb(255,0,0)" stroke-width="5" stroke="rgb(0,0,0)" />
	<path d="M8518,3738.52 8600,3691.18 8600,4046.18 8518,4093.52 8518,3738.52 z " fill-rule="evenodd" fill="rgb(255,0,0)" stroke-width="5" stroke="rgb(0,0,0)" />
	<path d="M8518,3381.21 8600,3333.87 8600,3688.87 8518,3736.21 8518,3381.21 z " fill-rule="evenodd" fill="rgb(255,0,0)" stroke-width="5" stroke="rgb(0,0,0)" />
	<path d="M8518,3023.91 8600,2976.56 8600,3331.56 8518,3378.91 8518,3023.91 z " fill-rule="evenodd" fill="rgb(255,0,0)" stroke-width="5" stroke="rgb(0,0,0)" />
	<path d="M8518,2685.71 8600,2719 8600,2974.25 8518,3021.6 8518,2685.71 z " fill-rule="evenodd" fill="rgb(255,0,0)" stroke-width="5" stroke="rgb(0,0,0)" />
	<path d="M2278,151.916 2289.4,156.539 2278,163.12 2278,151.916 z " fill-rule="evenodd" fill="rgb(255,0,0)" stroke-width="5" stroke="rgb(0,0,0)" />
	<polyline points="2895,6957 2895,6602 2895,6957 2540,6957 2895,6957 " fill="none" stroke-width="100" stroke="rgb(0,0,0)" />
	<circle cx="2895" cy="6957" r="-5.91667" fill="rgb(0,0,0)" />
	<circle cx="2895" cy="6602" r="-5.91667" fill="rgb(0,0,0)" />
	<circle cx="2895" cy="6957" r="-5.91667" fill="rgb(0,0,0)" />
	<circle cx="2540" cy="6957" r="-5.91667" fill="rgb(0,0,0)" />
	<circle cx="2895" cy="6957" r="-5.91667" fill="rgb(0,0,0)" />
	<polyline points="2895,7347.5 2895,6957 2504.5,6957 " fill="none" stroke-width="0.5" stroke="rgb(128,0,128)" />
</svg>
