<?xml version="1.0" standalone="no" ?>
<!DOCTYPE svg PUBLIC "-//W3C//DTD SVG 1.1//EN" "http://www.w3.org/Graphics/SVG/1.1/DTD/svg11.dtd">
<svg width="1435px" height="15786px" xmlns="http://www.w3.org/2000/svg" version="1.1" >
	<path d="M100,15686 455,15686 634,15376 279,15376 z " fill-rule="evenodd" fill="rgb(255,255,255)" stroke-width="10" stroke="rgb(0,0,0)" />
	<path d="M100,15345 455,15345 634,15035 279,15035 z " fill-rule="evenodd" fill="rgb(255,255,255)" stroke-width="10" stroke="rgb(0,0,0)" />
	<path d="M100,15004 455,15004 634,14694 279,14694 z " fill-rule="evenodd" fill="rgb(255,255,255)" stroke-width="10" stroke="rgb(0,0,0)" />
	<path d="M100,14663 455,14663 634,14353 279,14353 z " fill-rule="evenodd" fill="rgb(255,255,255)" stroke-width="10" stroke="rgb(0,0,0)" />
	<path d="M100,14322 455,14322 634,14012 279,14012 z " fill-rule="evenodd" fill="rgb(255,255,255)" stroke-width="10" stroke="rgb(0,0,0)" />
	<path d="M100,13981 455,13981 634,13671 279,13671 z " fill-rule="evenodd" fill="rgb(255,255,255)" stroke-width="10" stroke="rgb(0,0,0)" />
	<path d="M100,13640 455,13640 634,13330 279,13330 z " fill-rule="evenodd" fill="rgb(255,255,255)" stroke-width="10" stroke="rgb(0,0,0)" />
	<path d="M100,13299 455,13299 634,12989 279,12989 z " fill-rule="evenodd" fill="rgb(255,255,255)" stroke-width="10" stroke="rgb(0,0,0)" />
	<path d="M100,12958 455,12958 634,12648 279,12648 z " fill-rule="evenodd" fill="rgb(255,255,255)" stroke-width="10" stroke="rgb(0,0,0)" />
	<path d="M100,12617 455,12617 634,12307 279,12307 z " fill-rule="evenodd" fill="rgb(255,255,255)" stroke-width="10" stroke="rgb(0,0,0)" />
	<path d="M100,12276 455,12276 634,11966 279,11966 z " fill-rule="evenodd" fill="rgb(255,255,255)" stroke-width="10" stroke="rgb(0,0,0)" />
	<path d="M100,11935 455,11935 634,11625 279,11625 z " fill-rule="evenodd" fill="rgb(255,255,255)" stroke-width="10" stroke="rgb(0,0,0)" />
	<path d="M100,11594 455,11594 634,11284 279,11284 z " fill-rule="evenodd" fill="rgb(255,255,255)" stroke-width="10" stroke="rgb(0,0,0)" />
	<path d="M100,11253 455,11253 634,10943 279,10943 z " fill-rule="evenodd" fill="rgb(255,255,255)" stroke-width="10" stroke="rgb(0,0,0)" />
	<path d="M100,10912 455,10912 634,10602 279,10602 z " fill-rule="evenodd" fill="rgb(255,255,255)" stroke-width="10" stroke="rgb(0,0,0)" />
	<path d="M100,10571 455,10571 634,10261 279,10261 z " fill-rule="evenodd" fill="rgb(255,255,255)" stroke-width="10" stroke="rgb(0,0,0)" />
	<path d="M100,10230 455,10230 634,9920 279,9920 z " fill-rule="evenodd" fill="rgb(255,255,255)" stroke-width="10" stroke="rgb(0,0,0)" />
	<path d="M100,9889 455,9889 634,9579 279,9579 z " fill-rule="evenodd" fill="rgb(255,255,255)" stroke-width="10" stroke="rgb(0,0,0)" />
	<path d="M100,9548 455,9548 634,9238 279,9238 z " fill-rule="evenodd" fill="rgb(255,255,255)" stroke-width="10" stroke="rgb(0,0,0)" />
	<path d="M100,9207 455,9207 634,8897 279,8897 z " fill-rule="evenodd" fill="rgb(255,255,255)" stroke-width="10" stroke="rgb(0,0,0)" />
	<path d="M100,8866 455,8866 634,8556 279,8556 z " fill-rule="evenodd" fill="rgb(255,255,255)" stroke-width="10" stroke="rgb(0,0,0)" />
	<path d="M100,8525 455,8525 634,8215 279,8215 z " fill-rule="evenodd" fill="rgb(255,255,255)" stroke-width="10" stroke="rgb(0,0,0)" />
	<path d="M100,8184 455,8184 634,7874 279,7874 z " fill-rule="evenodd" fill="rgb(255,255,255)" stroke-width="10" stroke="rgb(0,0,0)" />
	<path d="M100,7843 455,7843 634,7533 279,7533 z " fill-rule="evenodd" fill="rgb(255,255,255)" stroke-width="10" stroke="rgb(0,0,0)" />
	<path d="M100,7502 455,7502 634,7192 279,7192 z " fill-rule="evenodd" fill="rgb(255,255,255)" stroke-width="10" stroke="rgb(0,0,0)" />
	<path d="M100,7161 455,7161 634,6851 279,6851 z " fill-rule="evenodd" fill="rgb(255,255,255)" stroke-width="10" stroke="rgb(0,0,0)" />
	<path d="M100,6820 455,6820 634,6510 279,6510 z " fill-rule="evenodd" fill="rgb(255,255,255)" stroke-width="10" stroke="rgb(0,0,0)" />
	<path d="M100,6479 455,6479 634,6169 279,6169 z " fill-rule="evenodd" fill="rgb(255,255,255)" stroke-width="10" stroke="rgb(0,0,0)" />
	<path d="M100,6138 455,6138 634,5828 279,5828 z " fill-rule="evenodd" fill="rgb(255,255,255)" stroke-width="10" stroke="rgb(0,0,0)" />
	<path d="M100,5797 455,5797 634,5487 279,5487 z " fill-rule="evenodd" fill="rgb(255,255,255)" stroke-width="10" stroke="rgb(0,0,0)" />
	<path d="M100,5456 455,5456 634,5146 279,5146 z " fill-rule="evenodd" fill="rgb(255,255,255)" stroke-width="10" stroke="rgb(0,0,0)" />
	<path d="M100,5115 455,5115 634,4805 279,4805 z " fill-rule="evenodd" fill="rgb(255,255,255)" stroke-width="10" stroke="rgb(0,0,0)" />
	<path d="M100,4774 455,4774 634,4464 279,4464 z " fill-rule="evenodd" fill="rgb(255,255,255)" stroke-width="10" stroke="rgb(0,0,0)" />
	<path d="M100,4433 455,4433 634,4123 279,4123 z " fill-rule="evenodd" fill="rgb(255,255,255)" stroke-width="10" stroke="rgb(0,0,0)" />
	<path d="M100,4092 455,4092 634,3782 279,3782 z " fill-rule="evenodd" fill="rgb(255,255,255)" stroke-width="10" stroke="rgb(0,0,0)" />
	<path d="M100,3751 455,3751 634,3441 279,3441 z " fill-rule="evenodd" fill="rgb(255,255,255)" stroke-width="10" stroke="rgb(0,0,0)" />
	<path d="M100,3410 455,3410 634,3100 279,3100 z " fill-rule="evenodd" fill="rgb(255,255,255)" stroke-width="10" stroke="rgb(0,0,0)" />
	<path d="M100,3069 455,3069 634,2759 279,2759 z " fill-rule="evenodd" fill="rgb(255,255,255)" stroke-width="10" stroke="rgb(0,0,0)" />
	<path d="M866.4,15686 1221.4,15686 1042.4,15376 687.4,15376 z " fill-rule="evenodd" fill="rgb(255,255,255)" stroke-width="10" stroke="rgb(0,0,0)" />
	<path d="M866.4,15345 1221.4,15345 1042.4,15035 687.4,15035 z " fill-rule="evenodd" fill="rgb(255,255,255)" stroke-width="10" stroke="rgb(0,0,0)" />
	<path d="M866.4,15004 1221.4,15004 1042.4,14694 687.4,14694 z " fill-rule="evenodd" fill="rgb(255,255,255)" stroke-width="10" stroke="rgb(0,0,0)" />
	<path d="M866.4,14663 1221.4,14663 1042.4,14353 687.4,14353 z " fill-rule="evenodd" fill="rgb(255,255,255)" stroke-width="10" stroke="rgb(0,0,0)" />
	<path d="M866.4,14322 1221.4,14322 1042.4,14012 687.4,14012 z " fill-rule="evenodd" fill="rgb(255,255,255)" stroke-width="10" stroke="rgb(0,0,0)" />
	<path d="M866.4,13981 1221.4,13981 1042.4,13671 687.4,13671 z " fill-rule="evenodd" fill="rgb(255,255,255)" stroke-width="10" stroke="rgb(0,0,0)" />
	<path d="M866.4,13640 1221.4,13640 1042.4,13330 687.4,13330 z " fill-rule="evenodd" fill="rgb(255,255,255)" stroke-width="10" stroke="rgb(0,0,0)" />
	<path d="M866.4,13299 1221.4,13299 1042.4,12989 687.4,12989 z " fill-rule="evenodd" fill="rgb(255,255,255)" stroke-width="10" stroke="rgb(0,0,0)" />
	<path d="M866.4,12958 1221.4,12958 1042.4,12648 687.4,12648 z " fill-rule="evenodd" fill="rgb(255,255,255)" stroke-width="10" stroke="rgb(0,0,0)" />
	<path d="M866.4,12617 1221.4,12617 1042.4,12307 687.4,12307 z " fill-rule="evenodd" fill="rgb(255,255,255)" stroke-width="10" stroke="rgb(0,0,0)" />
	<path d="M866.4,12276 1221.4,12276 1042.4,11966 687.4,11966 z " fill-rule="evenodd" fill="rgb(255,255,255)" stroke-width="10" stroke="rgb(0,0,0)" />
	<path d="M866.4,11935 1221.4,11935 1042.4,11625 687.4,11625 z " fill-rule="evenodd" fill="rgb(255,255,255)" stroke-width="10" stroke="rgb(0,0,0)" />
	<path d="M866.4,11594 1221.4,11594 1042.4,11284 687.4,11284 z " fill-rule="evenodd" fill="rgb(255,255,255)" stroke-width="10" stroke="rgb(0,0,0)" />
	<path d="M866.4,11253 1221.4,11253 1042.4,10943 687.4,10943 z " fill-rule="evenodd" fill="rgb(255,255,255)" stroke-width="10" stroke="rgb(0,0,0)" />
	<path d="M866.4,10912 1221.4,10912 1042.4,10602 687.4,10602 z " fill-rule="evenodd" fill="rgb(255,255,255)" stroke-width="10" stroke="rgb(0,0,0)" />
	<path d="M866.4,10571 1221.4,10571 1042.4,10261 687.4,10261 z " fill-rule="evenodd" fill="rgb(255,255,255)" stroke-width="10" stroke="rgb(0,0,0)" />
	<path d="M866.4,10230 1221.4,10230 1042.4,9920 687.4,9920 z " fill-rule="evenodd" fill="rgb(255,255,255)" stroke-width="10" stroke="rgb(0,0,0)" />
	<path d="M866.4,9889 1221.4,9889 1042.4,9579 687.4,9579 z " fill-rule="evenodd" fill="rgb(255,255,255)" stroke-width="10" stroke="rgb(0,0,0)" />
	<path d="M866.4,9548 1221.4,9548 1042.4,9238 687.4,9238 z " fill-rule="evenodd" fill="rgb(255,255,255)" stroke-width="10" stroke="rgb(0,0,0)" />
	<path d="M866.4,9207 1221.4,9207 1042.4,8897 687.4,8897 z " fill-rule="evenodd" fill="rgb(255,255,255)" stroke-width="10" stroke="rgb(0,0,0)" />
	<path d="M866.4,8866 1221.4,8866 1042.4,8556 687.4,8556 z " fill-rule="evenodd" fill="rgb(255,255,255)" stroke-width="10" stroke="rgb(0,0,0)" />
	<path d="M866.4,8525 1221.4,8525 1042.4,8215 687.4,8215 z " fill-rule="evenodd" fill="rgb(255,255,255)" stroke-width="10" stroke="rgb(0,0,0)" />
	<path d="M866.4,8184 1221.4,8184 1042.4,7874 687.4,7874 z " fill-rule="evenodd" fill="rgb(255,255,255)" stroke-width="10" stroke="rgb(0,0,0)" />
	<path d="M866.4,7843 1221.4,7843 1042.4,7533 687.4,7533 z " fill-rule="evenodd" fill="rgb(255,255,255)" stroke-width="10" stroke="rgb(0,0,0)" />
	<path d="M866.4,7502 1221.4,7502 1042.4,7192 687.4,7192 z " fill-rule="evenodd" fill="rgb(255,255,255)" stroke-width="10" stroke="rgb(0,0,0)" />
	<path d="M866.4,7161 1221.4,7161 1042.4,6851 687.4,6851 z " fill-rule="evenodd" fill="rgb(255,255,255)" stroke-width="10" stroke="rgb(0,0,0)" />
	<path d="M866.4,6820 1221.4,6820 1042.4,6510 687.4,6510 z " fill-rule="evenodd" fill="rgb(255,255,255)" stroke-width="10" stroke="rgb(0,0,0)" />
	<path d="M866.4,6479 1221.4,6479 1042.4,6169 687.4,6169 z " fill-rule="evenodd" fill="rgb(255,255,255)" stroke-width="10" stroke="rgb(0,0,0)" />
	<path d="M866.4,6138 1221.4,6138 1042.4,5828 687.4,5828 z " fill-rule="evenodd" fill="rgb(255,255,255)" stroke-width="10" stroke="rgb(0,0,0)" />
	<path d="M866.4,5797 1221.4,5797 1042.4,5487 687.4,5487 z " fill-rule="evenodd" fill="rgb(255,255,255)" stroke-width="10" stroke="rgb(0,0,0)" />
	<path d="M866.4,5456 1221.4,5456 1042.4,5146 687.4,5146 z " fill-rule="evenodd" fill="rgb(255,255,255)" stroke-width="10" stroke="rgb(0,0,0)" />
	<path d="M866.4,5115 1221.4,5115 1042.4,4805 687.4,4805 z " fill-rule="evenodd" fill="rgb(255,255,255)" stroke-width="10" stroke="rgb(0,0,0)" />
	<path d="M866.4,4774 1221.4,4774 1042.4,4464 687.4,4464 z " fill-rule="evenodd" fill="rgb(255,255,255)" stroke-width="10" stroke="rgb(0,0,0)" />
	<path d="M866.4,4433 1221.4,4433 1042.4,4123 687.4,4123 z " fill-rule="evenodd" fill="rgb(255,255,255)" stroke-width="10" stroke="rgb(0,0,0)" />
	<path d="M866.4,4092 1221.4,4092 1042.4,3782 687.4,3782 z " fill-rule="evenodd" fill="rgb(255,255,255)" stroke-width="10" stroke="rgb(0,0,0)" />
	<path d="M866.4,3751 1221.4,3751 1042.4,3441 687.4,3441 z " fill-rule="evenodd" fill="rgb(255,255,255)" stroke-width="10" stroke="rgb(0,0,0)" />
	<path d="M866.4,3410 1221.4,3410 1042.4,3100 687.4,3100 z " fill-rule="evenodd" fill="rgb(255,255,255)" stroke-width="10" stroke="rgb(0,0,0)" />
	<path d="M866.4,3069 1221.4,3069 1042.4,2759 687.4,2759 z " fill-rule="evenodd" fill="rgb(255,255,255)" stroke-width="10" stroke="rgb(0,0,0)" />
	<path d="M866.4,2728 1221.4,2728 1042.4,2418 687.4,2418 z " fill-rule="evenodd" fill="rgb(255,255,255)" stroke-width="10" stroke="rgb(0,0,0)" />
	<path d="M866.4,2387 1221.4,2387 1042.4,2077 687.4,2077 z " fill-rule="evenodd" fill="rgb(255,255,255)" stroke-width="10" stroke="rgb(0,0,0)" />
	<path d="M866.4,2046 1221.4,2046 1042.4,1736 687.4,1736 z " fill-rule="evenodd" fill="rgb(255,255,255)" stroke-width="10" stroke="rgb(0,0,0)" />
	<path d="M866.4,1705 1221.4,1705 1042.4,1395 687.4,1395 z " fill-rule="evenodd" fill="rgb(255,255,255)" stroke-width="10" stroke="rgb(0,0,0)" />
	<path d="M866.4,1364 1221.4,1364 1042.4,1054 687.4,1054 z " fill-rule="evenodd" fill="rgb(255,255,255)" stroke-width="10" stroke="rgb(0,0,0)" />
	<path d="M866.4,1023 1221.4,1023 1042.4,713 687.4,713 z " fill-rule="evenodd" fill="rgb(255,255,255)" stroke-width="10" stroke="rgb(0,0,0)" />
	<path d="M866.4,682 1221.4,682 1042.4,372 687.4,372 z " fill-rule="evenodd" fill="rgb(255,255,255)" stroke-width="10" stroke="rgb(0,0,0)" />
	<path d="M866.4,341 1221.4,341 1042.4,31 687.4,31 z " fill-rule="evenodd" fill="rgb(255,255,255)" stroke-width="10" stroke="rgb(0,0,0)" />
	<path d="M429.238,3410 429.238,3214 542.412,3214 429.238,3410 z " fill-rule="evenodd" fill="rgb(255,0,0)" stroke-width="10" stroke="rgb(0,0,0)" />
	<path d="M455,8184 100,8184 215.484,7984 570.484,7984 455,8184 z " fill-rule="evenodd" fill="rgb(255,0,0)" stroke-width="10" stroke="rgb(0,0,0)" />
	<path d="M455,7843 100,7843 215.484,7643 542.691,7643 542.691,7691.13 455,7843 z " fill-rule="evenodd" fill="rgb(255,0,0)" stroke-width="10" stroke="rgb(0,0,0)" />
	<path d="M100,12276 279,11966 285.381,11966 285.381,12276 100,12276 z " fill-rule="evenodd" fill="rgb(255,0,0)" stroke-width="10" stroke="rgb(0,0,0)" />
	<path d="M100,11935 279,11625 285.381,11625 285.381,11935 100,11935 z " fill-rule="evenodd" fill="rgb(255,0,0)" stroke-width="10" stroke="rgb(0,0,0)" />
	<path d="M109.642,15686 195.023,15538.1 195.023,15686 109.642,15686 z " fill-rule="evenodd" fill="rgb(255,0,0)" stroke-width="10" stroke="rgb(0,0,0)" />
	<path d="M100,11594 279,11284 285.381,11284 285.381,11594 100,11594 z " fill-rule="evenodd" fill="rgb(255,0,0)" stroke-width="10" stroke="rgb(0,0,0)" />
	<path d="M100,11253 279,10943 285.381,10943 285.381,11253 100,11253 z " fill-rule="evenodd" fill="rgb(255,0,0)" stroke-width="10" stroke="rgb(0,0,0)" />
	<path d="M334.22,9207 450.005,9006.48 450.005,9207 334.22,9207 z " fill-rule="evenodd" fill="rgb(255,0,0)" stroke-width="10" stroke="rgb(0,0,0)" />
	<path d="M532.834,10602 353.834,10912 314.619,10912 314.619,10602 532.834,10602 z " fill-rule="evenodd" fill="rgb(255,0,0)" stroke-width="10" stroke="rgb(0,0,0)" />
	<path d="M565.791,9006.48 450.005,9207 450.005,9006.48 565.791,9006.48 z " fill-rule="evenodd" fill="rgb(255,0,0)" stroke-width="10" stroke="rgb(0,0,0)" />
	<path d="M503.596,11284 324.596,11594 285.381,11594 285.381,11284 503.596,11284 z " fill-rule="evenodd" fill="rgb(255,0,0)" stroke-width="10" stroke="rgb(0,0,0)" />
	<path d="M155.131,15249.5 270.916,15049 270.916,15249.5 155.131,15249.5 z " fill-rule="evenodd" fill="rgb(255,0,0)" stroke-width="10" stroke="rgb(0,0,0)" />
	<path d="M503.596,10943 324.596,11253 285.381,11253 285.381,10943 503.596,10943 z " fill-rule="evenodd" fill="rgb(255,0,0)" stroke-width="10" stroke="rgb(0,0,0)" />
	<path d="M334.9,4092 450.685,3891.48 450.685,4092 334.9,4092 z " fill-rule="evenodd" fill="rgb(255,0,0)" stroke-width="10" stroke="rgb(0,0,0)" />
	<path d="M455,14322 100,14322 279,14012 573.095,14012 573.095,14117.5 455,14322 z " fill-rule="evenodd" fill="rgb(255,0,0)" stroke-width="10" stroke="rgb(0,0,0)" />
	<path d="M455,7502 100,7502 279,7192 573.095,7192 573.095,7297.48 455,7502 z " fill-rule="evenodd" fill="rgb(255,0,0)" stroke-width="10" stroke="rgb(0,0,0)" />
	<path d="M455,10571 100,10571 279,10261 573.095,10261 573.095,10366.5 455,10571 z " fill-rule="evenodd" fill="rgb(255,0,0)" stroke-width="10" stroke="rgb(0,0,0)" />
	<path d="M455,7161 100,7161 279,6851 573.095,6851 573.095,6956.48 455,7161 z " fill-rule="evenodd" fill="rgb(255,0,0)" stroke-width="10" stroke="rgb(0,0,0)" />
	<path d="M455,6820 100,6820 279,6510 573.095,6510 573.095,6615.48 455,6820 z " fill-rule="evenodd" fill="rgb(255,0,0)" stroke-width="10" stroke="rgb(0,0,0)" />
	<path d="M566.47,3891.48 450.685,4092 450.685,3891.48 566.47,3891.48 z " fill-rule="evenodd" fill="rgb(255,0,0)" stroke-width="10" stroke="rgb(0,0,0)" />
	<path d="M495.589,2935 418.215,3069 177.374,3069 177.374,2935 495.589,2935 z " fill-rule="evenodd" fill="rgb(255,0,0)" stroke-width="10" stroke="rgb(0,0,0)" />
	<path d="M254.748,13713 609.748,13713 532.374,13847 177.374,13847 254.748,13713 z " fill-rule="evenodd" fill="rgb(255,0,0)" stroke-width="10" stroke="rgb(0,0,0)" />
	<path d="M100,6479 279,6169 634,6169 455,6479 315.785,6479 315.785,6427 215.785,6427 215.785,6479 100,6479 z " fill-rule="evenodd" fill="rgb(255,0,0)" stroke-width="10" stroke="rgb(0,0,0)" />
	<path d="M177.374,13847 532.374,13847 455,13981 100,13981 177.374,13847 z " fill-rule="evenodd" fill="rgb(255,0,0)" stroke-width="10" stroke="rgb(0,0,0)" />
	<path d="M455,13640 100,13640 279,13330 634,13330 615.523,13362 573.095,13362 573.095,13435.5 455,13640 z " fill-rule="evenodd" fill="rgb(255,0,0)" stroke-width="10" stroke="rgb(0,0,0)" />
	<path d="M455,15004 100,15004 215.785,14803.5 215.785,14876 315.785,14876 315.785,14826 557.781,14826 455,15004 z " fill-rule="evenodd" fill="rgb(255,0,0)" stroke-width="10" stroke="rgb(0,0,0)" />
	<path d="M234.263,14771.5 589.263,14771.5 570.785,14803.5 215.785,14803.5 234.263,14771.5 z " fill-rule="evenodd" fill="rgb(255,0,0)" stroke-width="10" stroke="rgb(0,0,0)" />
	<path d="M455,13299 100,13299 202.781,13121 557.781,13121 455,13299 z " fill-rule="evenodd" fill="rgb(255,0,0)" stroke-width="10" stroke="rgb(0,0,0)" />
	<path d="M252.74,14739.5 607.74,14739.5 589.263,14771.5 234.263,14771.5 252.74,14739.5 z " fill-rule="evenodd" fill="rgb(255,0,0)" stroke-width="10" stroke="rgb(0,0,0)" />
	<path d="M455,6138 100,6138 202.781,5960 557.781,5960 455,6138 z " fill-rule="evenodd" fill="rgb(255,0,0)" stroke-width="10" stroke="rgb(0,0,0)" />
	<path d="M271.217,14707.5 626.217,14707.5 607.74,14739.5 252.74,14739.5 271.217,14707.5 z " fill-rule="evenodd" fill="rgb(255,0,0)" stroke-width="10" stroke="rgb(0,0,0)" />
	<path d="M177.374,12824 532.374,12824 455,12958 100,12958 177.374,12824 z " fill-rule="evenodd" fill="rgb(255,0,0)" stroke-width="10" stroke="rgb(0,0,0)" />
	<path d="M455,5797 100,5797 202.781,5619 557.781,5619 455,5797 z " fill-rule="evenodd" fill="rgb(255,0,0)" stroke-width="10" stroke="rgb(0,0,0)" />
	<path d="M273.226,13681 628.226,13681 609.748,13713 254.748,13713 273.226,13681 z " fill-rule="evenodd" fill="rgb(255,0,0)" stroke-width="10" stroke="rgb(0,0,0)" />
	<path d="M279,15035 634,15035 455,15345 295.023,15345 295.023,15049 270.916,15049 279,15035 z " fill-rule="evenodd" fill="rgb(255,0,0)" stroke-width="10" stroke="rgb(0,0,0)" />
	<path d="M279,15376 634,15376 455,15686 195.023,15686 195.023,15521.4 279,15376 z " fill-rule="evenodd" fill="rgb(255,0,0)" stroke-width="10" stroke="rgb(0,0,0)" />
	<path d="M624.358,11625 445.358,11935 285.381,11935 285.381,11625 624.358,11625 z " fill-rule="evenodd" fill="rgb(255,0,0)" stroke-width="10" stroke="rgb(0,0,0)" />
	<path d="M279,5146 634,5146 455,5456 100,5456 195.023,5291.43 195.023,5406 295.023,5406 295.023,5209 252.564,5191.78 279,5146 z " fill-rule="evenodd" fill="rgb(255,0,0)" stroke-width="10" stroke="rgb(0,0,0)" />
	<path d="M279,12307 634,12307 455,12617 111.089,12617 137.361,12552.3 279,12307 z " fill-rule="evenodd" fill="rgb(255,0,0)" stroke-width="10" stroke="rgb(0,0,0)" />
	<path d="M254.748,12690 609.748,12690 532.374,12824 177.374,12824 254.748,12690 z " fill-rule="evenodd" fill="rgb(255,0,0)" stroke-width="10" stroke="rgb(0,0,0)" />
	<path d="M455,5115 100,5115 202.781,4937 557.781,4937 455,5115 z " fill-rule="evenodd" fill="rgb(255,0,0)" stroke-width="10" stroke="rgb(0,0,0)" />
	<path d="M221.258,13089 576.258,13089 557.781,13121 202.781,13121 221.258,13089 z " fill-rule="evenodd" fill="rgb(255,0,0)" stroke-width="10" stroke="rgb(0,0,0)" />
	<path d="M510.043,14803.5 501.959,14817.5 428.375,14817.5 428.375,14803.5 510.043,14803.5 z " fill-rule="evenodd" fill="rgb(255,0,0)" stroke-width="10" stroke="rgb(0,0,0)" />
	<path d="M486.654,2793.56 404.986,2935 404.986,2793.56 486.654,2793.56 z " fill-rule="evenodd" fill="rgb(255,0,0)" stroke-width="10" stroke="rgb(0,0,0)" />
	<path d="M455,14663 100,14663 270.058,14368.5 552.333,14483 552.333,14494.4 455,14663 z " fill-rule="evenodd" fill="rgb(255,0,0)" stroke-width="10" stroke="rgb(0,0,0)" />
	<path d="M407.081,14368.5 381.084,14413.5 270.058,14368.5 407.081,14368.5 z " fill-rule="evenodd" fill="rgb(255,0,0)" stroke-width="10" stroke="rgb(0,0,0)" />
	<path d="M604.175,9920 425.175,10230 185.208,10230 311.079,9920 604.175,9920 z " fill-rule="evenodd" fill="rgb(255,0,0)" stroke-width="10" stroke="rgb(0,0,0)" />
	<path d="M604.685,9579 470.827,9810.82 564.955,9579 604.685,9579 z " fill-rule="evenodd" fill="rgb(255,0,0)" stroke-width="10" stroke="rgb(0,0,0)" />
	<path d="M617.164,9238 438.164,9548 347.619,9548 473.489,9238 617.164,9238 z " fill-rule="evenodd" fill="rgb(255,0,0)" stroke-width="10" stroke="rgb(0,0,0)" />
	<path d="M254.748,2801 404.986,2801 404.986,2935 177.374,2935 254.748,2801 z " fill-rule="evenodd" fill="rgb(255,0,0)" stroke-width="10" stroke="rgb(0,0,0)" />
	<path d="M614.619,11966 435.619,12276 285.381,12276 285.381,11966 614.619,11966 z " fill-rule="evenodd" fill="rgb(255,0,0)" stroke-width="10" stroke="rgb(0,0,0)" />
	<path d="M100,3410 202.781,3232 429.238,3232 429.238,3410 100,3410 z " fill-rule="evenodd" fill="rgb(255,0,0)" stroke-width="10" stroke="rgb(0,0,0)" />
	<path d="M239.735,13057 594.735,13057 576.258,13089 221.258,13089 239.735,13057 z " fill-rule="evenodd" fill="rgb(255,0,0)" stroke-width="10" stroke="rgb(0,0,0)" />
	<path d="M455,4774 100,4774 279,4464 589.194,4464 625.496,4478.73 455,4774 z " fill-rule="evenodd" fill="rgb(255,0,0)" stroke-width="10" stroke="rgb(0,0,0)" />
	<path d="M513.22,8897 334.22,9207 198.197,9207 324.068,8897 513.22,8897 z " fill-rule="evenodd" fill="rgb(255,0,0)" stroke-width="10" stroke="rgb(0,0,0)" />
	<path d="M100,9548 279,9238 473.489,9238 347.619,9548 100,9548 z " fill-rule="evenodd" fill="rgb(255,0,0)" stroke-width="10" stroke="rgb(0,0,0)" />
	<path d="M258.213,13025 613.213,13025 594.735,13057 239.735,13057 258.213,13025 z " fill-rule="evenodd" fill="rgb(255,0,0)" stroke-width="10" stroke="rgb(0,0,0)" />
	<path d="M100,9889 279,9579 564.853,9579 439.118,9889 100,9889 z " fill-rule="evenodd" fill="rgb(255,0,0)" stroke-width="10" stroke="rgb(0,0,0)" />
	<path d="M100,10230 279,9920 296.719,9920 309.048,9925 185.208,10230 100,10230 z " fill-rule="evenodd" fill="rgb(255,0,0)" stroke-width="10" stroke="rgb(0,0,0)" />
	<path d="M630.563,4123 451.563,4433 153.129,4433 279,4123 630.563,4123 z " fill-rule="evenodd" fill="rgb(255,0,0)" stroke-width="10" stroke="rgb(0,0,0)" />
	<path d="M608.714,10293 573.095,10293 573.095,10261 627.191,10261 608.714,10293 z " fill-rule="evenodd" fill="rgb(255,0,0)" stroke-width="10" stroke="rgb(0,0,0)" />
	<path d="M100,8866 279,8556 314.619,8556 314.619,8866 100,8866 z " fill-rule="evenodd" fill="rgb(255,0,0)" stroke-width="10" stroke="rgb(0,0,0)" />
	<path d="M100,8525 279,8215 314.619,8215 314.619,8525 100,8525 z " fill-rule="evenodd" fill="rgb(255,0,0)" stroke-width="10" stroke="rgb(0,0,0)" />
	<path d="M529.238,8215 350.238,8525 314.619,8525 314.619,8215 529.238,8215 z " fill-rule="evenodd" fill="rgb(255,0,0)" stroke-width="10" stroke="rgb(0,0,0)" />
	<path d="M100,10912 279,10602 314.619,10602 314.619,10912 100,10912 z " fill-rule="evenodd" fill="rgb(255,0,0)" stroke-width="10" stroke="rgb(0,0,0)" />
	<path d="M513.9,3782 334.9,4092 153.266,4092 279,3782 513.9,3782 z " fill-rule="evenodd" fill="rgb(255,0,0)" stroke-width="10" stroke="rgb(0,0,0)" />
	<path d="M100,9207 279,8897 324.068,8897 198.197,9207 100,9207 z " fill-rule="evenodd" fill="rgb(255,0,0)" stroke-width="10" stroke="rgb(0,0,0)" />
	<path d="M529.238,8556 350.238,8866 314.619,8866 314.619,8556 529.238,8556 z " fill-rule="evenodd" fill="rgb(255,0,0)" stroke-width="10" stroke="rgb(0,0,0)" />
	<path d="M378.892,7643 229.88,7643 263.987,7559 427.396,7559 378.892,7643 z " fill-rule="evenodd" fill="rgb(255,0,0)" stroke-width="10" stroke="rgb(0,0,0)" />
	<path d="M570.484,7984 215.484,7984 263.987,7900 618.987,7900 570.484,7984 z " fill-rule="evenodd" fill="rgb(255,0,0)" stroke-width="10" stroke="rgb(0,0,0)" />
	<path d="M557.781,5960 202.781,5960 251.284,5876 606.284,5876 557.781,5960 z " fill-rule="evenodd" fill="rgb(255,0,0)" stroke-width="10" stroke="rgb(0,0,0)" />
	<path d="M557.781,5619 202.781,5619 251.284,5535 606.284,5535 557.781,5619 z " fill-rule="evenodd" fill="rgb(255,0,0)" stroke-width="10" stroke="rgb(0,0,0)" />
	<path d="M557.781,4937 202.781,4937 251.284,4853 606.284,4853 557.781,4937 z " fill-rule="evenodd" fill="rgb(255,0,0)" stroke-width="10" stroke="rgb(0,0,0)" />
	<path d="M455,3751 100,3751 148.503,3667 503.503,3667 455,3751 z " fill-rule="evenodd" fill="rgb(255,0,0)" stroke-width="10" stroke="rgb(0,0,0)" />
	<path d="M503.503,3667 148.503,3667 197.006,3583 552.006,3583 503.503,3667 z " fill-rule="evenodd" fill="rgb(255,0,0)" stroke-width="10" stroke="rgb(0,0,0)" />
	<path d="M552.006,3583 197.006,3583 245.51,3499 600.51,3499 552.006,3583 z " fill-rule="evenodd" fill="rgb(255,0,0)" stroke-width="10" stroke="rgb(0,0,0)" />
	<path d="M213.174,3214 261.678,3130 427.793,3130 427.793,3214 213.174,3214 z " fill-rule="evenodd" fill="rgb(255,0,0)" stroke-width="10" stroke="rgb(0,0,0)" />
	<path d="M872.781,7874 872.781,8184 866.4,8184 687.4,7874 872.781,7874 z " fill-rule="evenodd" fill="rgb(255,0,0)" stroke-width="10" stroke="rgb(0,0,0)" />
	<path d="M872.781,7533 872.781,7843 866.4,7843 687.4,7533 872.781,7533 z " fill-rule="evenodd" fill="rgb(255,0,0)" stroke-width="10" stroke="rgb(0,0,0)" />
	<path d="M872.781,7192 872.781,7502 866.4,7502 687.4,7192 872.781,7192 z " fill-rule="evenodd" fill="rgb(255,0,0)" stroke-width="10" stroke="rgb(0,0,0)" />
	<path d="M872.781,6851 872.781,7161 866.4,7161 687.4,6851 872.781,6851 z " fill-rule="evenodd" fill="rgb(255,0,0)" stroke-width="10" stroke="rgb(0,0,0)" />
	<path d="M1047.02,11974 1221.4,12276 866.4,12276 692.019,11974 1047.02,11974 z " fill-rule="evenodd" fill="rgb(255,0,0)" stroke-width="10" stroke="rgb(0,0,0)" />
	<path d="M1047.02,4472 1221.4,4774 866.4,4774 692.019,4472 1047.02,4472 z " fill-rule="evenodd" fill="rgb(255,0,0)" stroke-width="10" stroke="rgb(0,0,0)" />
	<path d="M1047.02,4131 1221.4,4433 866.4,4433 692.019,4131 1047.02,4131 z " fill-rule="evenodd" fill="rgb(255,0,0)" stroke-width="10" stroke="rgb(0,0,0)" />
	<path d="M1047.02,3790 1221.4,4092 866.4,4092 692.019,3790 1047.02,3790 z " fill-rule="evenodd" fill="rgb(255,0,0)" stroke-width="10" stroke="rgb(0,0,0)" />
	<path d="M1047.02,3449 1221.4,3751 866.4,3751 692.019,3449 1047.02,3449 z " fill-rule="evenodd" fill="rgb(255,0,0)" stroke-width="10" stroke="rgb(0,0,0)" />
	<path d="M1047.02,3108 1221.4,3410 866.4,3410 692.019,3108 1047.02,3108 z " fill-rule="evenodd" fill="rgb(255,0,0)" stroke-width="10" stroke="rgb(0,0,0)" />
	<path d="M877.4,380 877.4,682 866.4,682 692.019,380 877.4,380 z " fill-rule="evenodd" fill="rgb(255,0,0)" stroke-width="10" stroke="rgb(0,0,0)" />
	<path d="M1047.02,11633 1221.4,11935 866.4,11935 692.019,11633 1047.02,11633 z " fill-rule="evenodd" fill="rgb(255,0,0)" stroke-width="10" stroke="rgb(0,0,0)" />
	<path d="M1047.02,11292 1221.4,11594 866.4,11594 692.019,11292 1047.02,11292 z " fill-rule="evenodd" fill="rgb(255,0,0)" stroke-width="10" stroke="rgb(0,0,0)" />
	<path d="M1047.02,10951 1221.4,11253 866.4,11253 692.019,10951 1047.02,10951 z " fill-rule="evenodd" fill="rgb(255,0,0)" stroke-width="10" stroke="rgb(0,0,0)" />
	<path d="M1047.02,10610 1221.4,10912 866.4,10912 692.019,10610 1047.02,10610 z " fill-rule="evenodd" fill="rgb(255,0,0)" stroke-width="10" stroke="rgb(0,0,0)" />
	<path d="M1086.38,7983.48 1086.38,8184 970.591,7983.48 1086.38,7983.48 z " fill-rule="evenodd" fill="rgb(255,0,0)" stroke-width="10" stroke="rgb(0,0,0)" />
	<path d="M911.996,7882 1086.38,8184 872.781,8184 872.781,7882 911.996,7882 z " fill-rule="evenodd" fill="rgb(255,0,0)" stroke-width="10" stroke="rgb(0,0,0)" />
	<path d="M811.157,15376 811.157,15576.5 695.372,15376 811.157,15376 z " fill-rule="evenodd" fill="rgb(255,0,0)" stroke-width="10" stroke="rgb(0,0,0)" />
	<path d="M941.234,6510 1120.23,6820 902.019,6820 902.019,6510 941.234,6510 z " fill-rule="evenodd" fill="rgb(255,0,0)" stroke-width="10" stroke="rgb(0,0,0)" />
	<path d="M824.146,15035 824.146,15235.5 708.361,15035 824.146,15035 z " fill-rule="evenodd" fill="rgb(255,0,0)" stroke-width="10" stroke="rgb(0,0,0)" />
	<path d="M941.234,6169 1120.23,6479 902.019,6479 902.019,6169 941.234,6169 z " fill-rule="evenodd" fill="rgb(255,0,0)" stroke-width="10" stroke="rgb(0,0,0)" />
	<path d="M1042.4,10261 1221.4,10571 1003.19,10571 1003.19,10485 816.742,10485 687.4,10261 1042.4,10261 z " fill-rule="evenodd" fill="rgb(255,0,0)" stroke-width="10" stroke="rgb(0,0,0)" />
	<path d="M803.185,2759 803.185,2807 1003.19,2807 1003.19,2759 1042.4,2759 1221.4,3069 866.4,3069 687.4,2759 803.185,2759 z " fill-rule="evenodd" fill="rgb(255,0,0)" stroke-width="10" stroke="rgb(0,0,0)" />
	<path d="M1087.4,7301.48 1087.4,7502 971.615,7301.48 1087.4,7301.48 z " fill-rule="evenodd" fill="rgb(255,0,0)" stroke-width="10" stroke="rgb(0,0,0)" />
	<path d="M1047.02,9928 1165.11,10132.5 1165.11,10230 866.4,10230 692.019,9928 1047.02,9928 z " fill-rule="evenodd" fill="rgb(255,0,0)" stroke-width="10" stroke="rgb(0,0,0)" />
	<path d="M1042.4,9579 1160.49,9783.52 1160.49,9889 866.4,9889 687.4,9579 1042.4,9579 z " fill-rule="evenodd" fill="rgb(255,0,0)" stroke-width="10" stroke="rgb(0,0,0)" />
	<path d="M1042.4,2418 1160.49,2622.52 1160.49,2728 866.4,2728 687.4,2418 1042.4,2418 z " fill-rule="evenodd" fill="rgb(255,0,0)" stroke-width="10" stroke="rgb(0,0,0)" />
	<path d="M1042.4,2077 1171.74,2301 1160.49,2301 1160.49,2387 866.4,2387 687.4,2077 1042.4,2077 z " fill-rule="evenodd" fill="rgb(255,0,0)" stroke-width="10" stroke="rgb(0,0,0)" />
	<path d="M1042.4,1736 1160.49,1940.52 1160.49,2046 866.4,2046 687.4,1736 1042.4,1736 z " fill-rule="evenodd" fill="rgb(255,0,0)" stroke-width="10" stroke="rgb(0,0,0)" />
	<path d="M1042.4,1395 1160.49,1599.52 1160.49,1705 866.4,1705 687.4,1395 1042.4,1395 z " fill-rule="evenodd" fill="rgb(255,0,0)" stroke-width="10" stroke="rgb(0,0,0)" />
	<path d="M1087.4,7502 1087.4,7301.48 1203.19,7502 1087.4,7502 z " fill-rule="evenodd" fill="rgb(255,0,0)" stroke-width="10" stroke="rgb(0,0,0)" />
	<path d="M1041.23,5828 1220.23,6138 902.019,6138 902.019,5828 1041.23,5828 z " fill-rule="evenodd" fill="rgb(255,0,0)" stroke-width="10" stroke="rgb(0,0,0)" />
	<path d="M1047.02,9246 1221.4,9548 866.4,9548 692.019,9246 1047.02,9246 z " fill-rule="evenodd" fill="rgb(255,0,0)" stroke-width="10" stroke="rgb(0,0,0)" />
	<path d="M1047.02,8905 1221.4,9207 866.4,9207 692.019,8905 1047.02,8905 z " fill-rule="evenodd" fill="rgb(255,0,0)" stroke-width="10" stroke="rgb(0,0,0)" />
	<path d="M1037.38,380 1211.76,682 877.4,682 877.4,380 1037.38,380 z " fill-rule="evenodd" fill="rgb(255,0,0)" stroke-width="10" stroke="rgb(0,0,0)" />
	<path d="M1042.4,14694 1221.4,15004 866.4,15004 782.423,14858.6 782.423,14694 1042.4,14694 z " fill-rule="evenodd" fill="rgb(255,0,0)" stroke-width="10" stroke="rgb(0,0,0)" />
	<path d="M1042.4,14353 1221.4,14663 866.4,14663 831.755,14603 882.423,14603 882.423,14353 1042.4,14353 z " fill-rule="evenodd" fill="rgb(255,0,0)" stroke-width="10" stroke="rgb(0,0,0)" />
	<path d="M1042.4,14012 1221.4,14322 882.423,14322 882.423,14136 759,14136 687.4,14012 1042.4,14012 z " fill-rule="evenodd" fill="rgb(255,0,0)" stroke-width="10" stroke="rgb(0,0,0)" />
	<path d="M1042.4,1054 1221.4,1364 866.4,1364 693.434,1064.45 697.677,1054 1042.4,1054 z " fill-rule="evenodd" fill="rgb(255,0,0)" stroke-width="10" stroke="rgb(0,0,0)" />
	<path d="M1042.4,13671 1221.4,13981 866.4,13981 842.193,13939.1 951.042,13671 1042.4,13671 z " fill-rule="evenodd" fill="rgb(255,0,0)" stroke-width="10" stroke="rgb(0,0,0)" />
	<path d="M700.756,14694 782.423,14694 782.423,14835.4 700.756,14694 z " fill-rule="evenodd" fill="rgb(255,0,0)" stroke-width="10" stroke="rgb(0,0,0)" />
	<path d="M966.132,5797 884.464,5797 884.464,5737 931.486,5737 966.132,5797 z " fill-rule="evenodd" fill="rgb(255,0,0)" stroke-width="10" stroke="rgb(0,0,0)" />
	<path d="M1149.8,8742 1221.4,8866 866.4,8866 794.8,8742 1149.8,8742 z " fill-rule="evenodd" fill="rgb(255,0,0)" stroke-width="10" stroke="rgb(0,0,0)" />
	<path d="M1042.4,5487 1221.4,5797 1079.44,5797 801.262,5684.19 687.4,5487 1042.4,5487 z " fill-rule="evenodd" fill="rgb(255,0,0)" stroke-width="10" stroke="rgb(0,0,0)" />
	<path d="M1042.4,13330 1221.4,13640 866.4,13640 754.463,13446.1 801.621,13330 1042.4,13330 z " fill-rule="evenodd" fill="rgb(255,0,0)" stroke-width="10" stroke="rgb(0,0,0)" />
	<path d="M1204.56,5456 912.28,5456 1032.95,5158.8 1204.56,5456 z " fill-rule="evenodd" fill="rgb(255,0,0)" stroke-width="10" stroke="rgb(0,0,0)" />
	<path d="M1204.56,13299 1165.65,13299 1181.71,13259.4 1204.56,13299 z " fill-rule="evenodd" fill="rgb(255,0,0)" stroke-width="10" stroke="rgb(0,0,0)" />
	<path d="M1204.56,12958 1061.7,12958 1120.68,12812.7 1204.56,12958 z " fill-rule="evenodd" fill="rgb(255,0,0)" stroke-width="10" stroke="rgb(0,0,0)" />
	<path d="M866.4,12958 687.4,12648 1042.4,12648 1127.64,12795.6 1061.7,12958 866.4,12958 z " fill-rule="evenodd" fill="rgb(255,0,0)" stroke-width="10" stroke="rgb(0,0,0)" />
	<path d="M872.781,7161 872.781,6851 1023.02,6851 1202.02,7161 872.781,7161 z " fill-rule="evenodd" fill="rgb(255,0,0)" stroke-width="10" stroke="rgb(0,0,0)" />
	<path d="M872.781,7843 872.781,7533 1023.02,7533 1202.02,7843 872.781,7843 z " fill-rule="evenodd" fill="rgb(255,0,0)" stroke-width="10" stroke="rgb(0,0,0)" />
	<path d="M1078.2,8618 1149.8,8742 794.8,8742 723.2,8618 1078.2,8618 z " fill-rule="evenodd" fill="rgb(255,0,0)" stroke-width="10" stroke="rgb(0,0,0)" />
	<path d="M1108.24,12421 1221.4,12617 757.86,12429 753.244,12421 1108.24,12421 z " fill-rule="evenodd" fill="rgb(255,0,0)" stroke-width="10" stroke="rgb(0,0,0)" />
	<path d="M915.977,12617 822.595,12455.3 1221.24,12617 915.977,12617 z " fill-rule="evenodd" fill="rgb(255,0,0)" stroke-width="10" stroke="rgb(0,0,0)" />
	<path d="M1042.4,15035 1221.4,15345 866.4,15345 815.492,15256.8 905.565,15035 1042.4,15035 z " fill-rule="evenodd" fill="rgb(255,0,0)" stroke-width="10" stroke="rgb(0,0,0)" />
	<path d="M694.083,14353 882.423,14353 804.664,14544.5 694.083,14353 z " fill-rule="evenodd" fill="rgb(255,0,0)" stroke-width="10" stroke="rgb(0,0,0)" />
	<path d="M704.236,13671 951.042,13671 849.144,13922 704.236,13671 z " fill-rule="evenodd" fill="rgb(255,0,0)" stroke-width="10" stroke="rgb(0,0,0)" />
	<path d="M866.4,13299 687.4,12989 1042.4,12989 1188.66,13242.3 1165.65,13299 866.4,13299 z " fill-rule="evenodd" fill="rgb(255,0,0)" stroke-width="10" stroke="rgb(0,0,0)" />
	<path d="M1149.8,8401 1221.4,8525 866.4,8525 794.8,8401 1149.8,8401 z " fill-rule="evenodd" fill="rgb(255,0,0)" stroke-width="10" stroke="rgb(0,0,0)" />
	<path d="M1042.4,713 1221.4,1023 866.4,1023 727.54,782.517 755.736,713 1042.4,713 z " fill-rule="evenodd" fill="rgb(255,0,0)" stroke-width="10" stroke="rgb(0,0,0)" />
	<path d="M877.93,14315.2 881.84,14322 865.144,14315.2 877.93,14315.2 z " fill-rule="evenodd" fill="rgb(255,0,0)" stroke-width="10" stroke="rgb(0,0,0)" />
	<path d="M1204.71,341 866.4,341 957.659,116 1110.62,178.053 1204.71,341 z " fill-rule="evenodd" fill="rgb(255,0,0)" stroke-width="10" stroke="rgb(0,0,0)" />
	<path d="M717.225,13330 801.621,13330 766.777,13415.8 717.225,13330 z " fill-rule="evenodd" fill="rgb(255,0,0)" stroke-width="10" stroke="rgb(0,0,0)" />
	<path d="M866.4,5456 687.4,5146 1038.15,5146 912.28,5456 866.4,5456 z " fill-rule="evenodd" fill="rgb(255,0,0)" stroke-width="10" stroke="rgb(0,0,0)" />
	<path d="M902.019,5828 902.019,6138 866.4,6138 687.4,5828 902.019,5828 z " fill-rule="evenodd" fill="rgb(255,0,0)" stroke-width="10" stroke="rgb(0,0,0)" />
	<path d="M902.019,4805 902.019,5115 866.4,5115 687.4,4805 902.019,4805 z " fill-rule="evenodd" fill="rgb(255,0,0)" stroke-width="10" stroke="rgb(0,0,0)" />
	<path d="M902.019,6510 902.019,6820 866.4,6820 687.4,6510 902.019,6510 z " fill-rule="evenodd" fill="rgb(255,0,0)" stroke-width="10" stroke="rgb(0,0,0)" />
	<path d="M902.019,6169 902.019,6479 866.4,6479 687.4,6169 902.019,6169 z " fill-rule="evenodd" fill="rgb(255,0,0)" stroke-width="10" stroke="rgb(0,0,0)" />
	<path d="M902.019,5115 902.019,4805 937.638,4805 1116.64,5115 902.019,5115 z " fill-rule="evenodd" fill="rgb(255,0,0)" stroke-width="10" stroke="rgb(0,0,0)" />
	<path d="M1027.54,8277 1099.14,8401 794.8,8401 845.094,8277 1027.54,8277 z " fill-rule="evenodd" fill="rgb(255,0,0)" stroke-width="10" stroke="rgb(0,0,0)" />
	<path d="M728.897,102.866 962.986,102.866 866.4,341 728.897,102.866 z " fill-rule="evenodd" fill="rgb(255,0,0)" stroke-width="10" stroke="rgb(0,0,0)" />
	<path d="M747.708,8277 845.094,8277 804.887,8376.02 747.708,8277 z " fill-rule="evenodd" fill="rgb(255,0,0)" stroke-width="10" stroke="rgb(0,0,0)" />
	<path d="M1042.4,15376 1221.4,15686 866.4,15686 807.866,15584.6 892.576,15376 1042.4,15376 z " fill-rule="evenodd" fill="rgb(255,0,0)" stroke-width="10" stroke="rgb(0,0,0)" />
	<path d="M872.781,7502 872.781,7192 908.4,7192 1087.4,7502 872.781,7502 z " fill-rule="evenodd" fill="rgb(255,0,0)" stroke-width="10" stroke="rgb(0,0,0)" />
</svg>
