<?xml version="1.0" standalone="no" ?>
<!DOCTYPE svg PUBLIC "-//W3C//DTD SVG 1.1//EN" "http://www.w3.org/Graphics/SVG/1.1/DTD/svg11.dtd">
<svg width="8700px" height="7052px" xmlns="http://www.w3.org/2000/svg" version="1.1" >
	<path d="M2276,5694.69 2276,6049.69 2586,6228.69 2586,5873.69 2276,5694.69 z " fill-rule="evenodd" fill="rgb(0,128,0)" stroke-width="5" stroke="rgb(0,0,0)" />
	<path d="M2276,6052 2276,6407 2586,6586 2586,6231 2276,6052 z " fill-rule="evenodd" fill="rgb(0,128,0)" stroke-width="5" stroke="rgb(0,0,0)" />
	<path d="M2276,6409.31 2276,6764.31 2586,6943.31 2586,6588.31 2276,6409.31 z " fill-rule="evenodd" fill="rgb(0,128,0)" stroke-width="5" stroke="rgb(0,0,0)" />
	<path d="M1652,5337.38 1652,5692.38 1962,5871.38 1962,5516.38 1652,5337.38 z " fill-rule="evenodd" fill="rgb(0,128,0)" stroke-width="5" stroke="rgb(0,0,0)" />
	<path d="M2276,5337.38 2276,5692.38 2586,5871.38 2586,5516.38 2276,5337.38 z " fill-rule="evenodd" fill="rgb(0,128,0)" stroke-width="5" stroke="rgb(0,0,0)" />
	<path d="M1652,5694.69 1652,6049.69 1962,6228.69 1962,5873.69 1652,5694.69 z " fill-rule="evenodd" fill="rgb(0,128,0)" stroke-width="5" stroke="rgb(0,0,0)" />
	<path d="M1652,6052 1652,6407 1962,6586 1962,6231 1652,6052 z " fill-rule="evenodd" fill="rgb(0,128,0)" stroke-width="5" stroke="rgb(0,0,0)" />
	<path d="M1652,6409.31 1652,6764.31 1962,6943.31 1962,6588.31 1652,6409.31 z " fill-rule="evenodd" fill="rgb(0,128,0)" stroke-width="5" stroke="rgb(0,0,0)" />
	<path d="M1028,4980.07 1028,5335.07 1338,5514.07 1338,5159.07 1028,4980.07 z " fill-rule="evenodd" fill="rgb(0,128,0)" stroke-width="5" stroke="rgb(0,0,0)" />
	<path d="M1652,4980.07 1652,5335.07 1962,5514.07 1962,5159.07 1652,4980.07 z " fill-rule="evenodd" fill="rgb(0,128,0)" stroke-width="5" stroke="rgb(0,0,0)" />
	<path d="M2276,4980.07 2276,5335.07 2586,5514.07 2586,5159.07 2276,4980.07 z " fill-rule="evenodd" fill="rgb(0,128,0)" stroke-width="5" stroke="rgb(0,0,0)" />
	<path d="M1028,5337.38 1028,5692.38 1338,5871.38 1338,5516.38 1028,5337.38 z " fill-rule="evenodd" fill="rgb(0,128,0)" stroke-width="5" stroke="rgb(0,0,0)" />
	<path d="M1028,5694.69 1028,6049.69 1338,6228.69 1338,5873.69 1028,5694.69 z " fill-rule="evenodd" fill="rgb(0,128,0)" stroke-width="5" stroke="rgb(0,0,0)" />
	<path d="M1028,6052 1028,6407 1338,6586 1338,6231 1028,6052 z " fill-rule="evenodd" fill="rgb(0,128,0)" stroke-width="5" stroke="rgb(0,0,0)" />
	<path d="M1028,6409.31 1028,6764.31 1338,6943.31 1338,6588.31 1028,6409.31 z " fill-rule="evenodd" fill="rgb(0,128,0)" stroke-width="5" stroke="rgb(0,0,0)" />
	<path d="M404,4622.76 404,4977.76 714,5156.76 714,4801.76 404,4622.76 z " fill-rule="evenodd" fill="rgb(0,128,0)" stroke-width="5" stroke="rgb(0,0,0)" />
	<path d="M1028,4622.76 1028,4977.76 1338,5156.76 1338,4801.76 1028,4622.76 z " fill-rule="evenodd" fill="rgb(0,128,0)" stroke-width="5" stroke="rgb(0,0,0)" />
	<path d="M1652,4622.76 1652,4977.76 1962,5156.76 1962,4801.76 1652,4622.76 z " fill-rule="evenodd" fill="rgb(0,128,0)" stroke-width="5" stroke="rgb(0,0,0)" />
	<path d="M404,4980.07 404,5335.07 714,5514.07 714,5159.07 404,4980.07 z " fill-rule="evenodd" fill="rgb(0,128,0)" stroke-width="5" stroke="rgb(0,0,0)" />
	<path d="M404,5337.38 404,5692.38 714,5871.38 714,5516.38 404,5337.38 z " fill-rule="evenodd" fill="rgb(0,128,0)" stroke-width="5" stroke="rgb(0,0,0)" />
	<path d="M2276,4622.76 2276,4977.76 2586,5156.76 2586,4801.76 2276,4622.76 z " fill-rule="evenodd" fill="rgb(0,128,0)" stroke-width="5" stroke="rgb(0,0,0)" />
	<path d="M404,5694.69 404,6049.69 714,6228.69 714,5873.69 404,5694.69 z " fill-rule="evenodd" fill="rgb(0,128,0)" stroke-width="5" stroke="rgb(0,0,0)" />
	<path d="M404,6052 404,6407 714,6586 714,6231 404,6052 z " fill-rule="evenodd" fill="rgb(0,128,0)" stroke-width="5" stroke="rgb(0,0,0)" />
	<path d="M404,6409.31 404,6764.31 714,6943.31 714,6588.31 404,6409.31 z " fill-rule="evenodd" fill="rgb(0,128,0)" stroke-width="5" stroke="rgb(0,0,0)" />
	<path d="M404,4265.45 404,4620.45 714,4799.45 714,4444.45 404,4265.45 z " fill-rule="evenodd" fill="rgb(0,128,0)" stroke-width="5" stroke="rgb(0,0,0)" />
	<path d="M1028,4265.45 1028,4620.45 1338,4799.45 1338,4444.45 1028,4265.45 z " fill-rule="evenodd" fill="rgb(0,128,0)" stroke-width="5" stroke="rgb(0,0,0)" />
	<path d="M1652,4265.45 1652,4620.45 1962,4799.45 1962,4444.45 1652,4265.45 z " fill-rule="evenodd" fill="rgb(0,128,0)" stroke-width="5" stroke="rgb(0,0,0)" />
	<path d="M2276,4265.45 2276,4620.45 2586,4799.45 2586,4444.45 2276,4265.45 z " fill-rule="evenodd" fill="rgb(0,128,0)" stroke-width="5" stroke="rgb(0,0,0)" />
	<path d="M404,3908.14 404,4263.14 714,4442.14 714,4087.14 404,3908.14 z " fill-rule="evenodd" fill="rgb(0,128,0)" stroke-width="5" stroke="rgb(0,0,0)" />
	<path d="M1028,3908.14 1028,4263.14 1338,4442.14 1338,4087.14 1028,3908.14 z " fill-rule="evenodd" fill="rgb(0,128,0)" stroke-width="5" stroke="rgb(0,0,0)" />
	<path d="M1652,3908.14 1652,4263.14 1962,4442.14 1962,4087.14 1652,3908.14 z " fill-rule="evenodd" fill="rgb(0,128,0)" stroke-width="5" stroke="rgb(0,0,0)" />
	<path d="M2276,3908.14 2276,4263.14 2586,4442.14 2586,4087.14 2276,3908.14 z " fill-rule="evenodd" fill="rgb(0,128,0)" stroke-width="5" stroke="rgb(0,0,0)" />
	<path d="M404,3550.83 404,3905.83 714,4084.83 714,3729.83 404,3550.83 z " fill-rule="evenodd" fill="rgb(0,128,0)" stroke-width="5" stroke="rgb(0,0,0)" />
	<path d="M1028,3550.83 1028,3905.83 1338,4084.83 1338,3729.83 1028,3550.83 z " fill-rule="evenodd" fill="rgb(0,128,0)" stroke-width="5" stroke="rgb(0,0,0)" />
	<path d="M1652,3550.83 1652,3905.83 1962,4084.83 1962,3729.83 1652,3550.83 z " fill-rule="evenodd" fill="rgb(0,128,0)" stroke-width="5" stroke="rgb(0,0,0)" />
	<path d="M2276,3550.83 2276,3905.83 2586,4084.83 2586,3729.83 2276,3550.83 z " fill-rule="evenodd" fill="rgb(0,128,0)" stroke-width="5" stroke="rgb(0,0,0)" />
	<path d="M404,3193.52 404,3548.52 714,3727.52 714,3372.52 404,3193.52 z " fill-rule="evenodd" fill="rgb(0,128,0)" stroke-width="5" stroke="rgb(0,0,0)" />
	<path d="M1028,3193.52 1028,3548.52 1338,3727.52 1338,3372.52 1028,3193.52 z " fill-rule="evenodd" fill="rgb(0,128,0)" stroke-width="5" stroke="rgb(0,0,0)" />
	<path d="M1652,3193.52 1652,3548.52 1962,3727.52 1962,3372.52 1652,3193.52 z " fill-rule="evenodd" fill="rgb(0,128,0)" stroke-width="5" stroke="rgb(0,0,0)" />
	<path d="M2276,3193.52 2276,3548.52 2586,3727.52 2586,3372.52 2276,3193.52 z " fill-rule="evenodd" fill="rgb(0,128,0)" stroke-width="5" stroke="rgb(0,0,0)" />
	<path d="M2276,2836.21 2276,3191.21 2586,3370.21 2586,3015.21 2276,2836.21 z " fill-rule="evenodd" fill="rgb(0,128,0)" stroke-width="5" stroke="rgb(0,0,0)" />
	<path d="M2276,2478.91 2276,2833.91 2586,3012.91 2586,2657.91 2276,2478.91 z " fill-rule="evenodd" fill="rgb(0,128,0)" stroke-width="5" stroke="rgb(0,0,0)" />
	<path d="M404,2121.6 404,2476.6 714,2655.6 714,2300.6 404,2121.6 z " fill-rule="evenodd" fill="rgb(0,128,0)" stroke-width="5" stroke="rgb(0,0,0)" />
	<path d="M1028,2121.6 1028,2476.6 1338,2655.6 1338,2300.6 1028,2121.6 z " fill-rule="evenodd" fill="rgb(0,128,0)" stroke-width="5" stroke="rgb(0,0,0)" />
	<path d="M1652,2121.6 1652,2476.6 1962,2655.6 1962,2300.6 1652,2121.6 z " fill-rule="evenodd" fill="rgb(0,128,0)" stroke-width="5" stroke="rgb(0,0,0)" />
	<path d="M2276,2121.6 2276,2476.6 2586,2655.6 2586,2300.6 2276,2121.6 z " fill-rule="evenodd" fill="rgb(0,128,0)" stroke-width="5" stroke="rgb(0,0,0)" />
	<path d="M2900,2121.6 2900,2476.6 3210,2655.6 3210,2300.6 2900,2121.6 z " fill-rule="evenodd" fill="rgb(0,128,0)" stroke-width="5" stroke="rgb(0,0,0)" />
	<path d="M3524,2121.6 3524,2476.6 3834,2655.6 3834,2300.6 3524,2121.6 z " fill-rule="evenodd" fill="rgb(0,128,0)" stroke-width="5" stroke="rgb(0,0,0)" />
	<path d="M4148,2121.6 4148,2476.6 4458,2655.6 4458,2300.6 4148,2121.6 z " fill-rule="evenodd" fill="rgb(0,128,0)" stroke-width="5" stroke="rgb(0,0,0)" />
	<path d="M4148,2478.91 4148,2833.91 4458,3012.91 4458,2657.91 4148,2478.91 z " fill-rule="evenodd" fill="rgb(0,128,0)" stroke-width="5" stroke="rgb(0,0,0)" />
	<path d="M4148,3193.52 4148,3548.52 4458,3727.52 4458,3372.52 4148,3193.52 z " fill-rule="evenodd" fill="rgb(0,128,0)" stroke-width="5" stroke="rgb(0,0,0)" />
	<path d="M4148,3550.83 4148,3905.83 4458,4084.83 4458,3729.83 4148,3550.83 z " fill-rule="evenodd" fill="rgb(0,128,0)" stroke-width="5" stroke="rgb(0,0,0)" />
	<path d="M404,1764.29 404,2119.29 714,2298.29 714,1943.29 404,1764.29 z " fill-rule="evenodd" fill="rgb(0,128,0)" stroke-width="5" stroke="rgb(0,0,0)" />
	<path d="M1028,1764.29 1028,2119.29 1338,2298.29 1338,1943.29 1028,1764.29 z " fill-rule="evenodd" fill="rgb(0,128,0)" stroke-width="5" stroke="rgb(0,0,0)" />
	<path d="M1652,1764.29 1652,2119.29 1962,2298.29 1962,1943.29 1652,1764.29 z " fill-rule="evenodd" fill="rgb(0,128,0)" stroke-width="5" stroke="rgb(0,0,0)" />
	<path d="M2276,1764.29 2276,2119.29 2586,2298.29 2586,1943.29 2276,1764.29 z " fill-rule="evenodd" fill="rgb(0,128,0)" stroke-width="5" stroke="rgb(0,0,0)" />
	<path d="M2900,1764.29 2900,2119.29 3210,2298.29 3210,1943.29 2900,1764.29 z " fill-rule="evenodd" fill="rgb(0,128,0)" stroke-width="5" stroke="rgb(0,0,0)" />
	<path d="M3524,1764.29 3524,2119.29 3834,2298.29 3834,1943.29 3524,1764.29 z " fill-rule="evenodd" fill="rgb(0,128,0)" stroke-width="5" stroke="rgb(0,0,0)" />
	<path d="M4148,1764.29 4148,2119.29 4458,2298.29 4458,1943.29 4148,1764.29 z " fill-rule="evenodd" fill="rgb(0,128,0)" stroke-width="5" stroke="rgb(0,0,0)" />
	<path d="M4772,1764.29 4772,2119.29 5082,2298.29 5082,1943.29 4772,1764.29 z " fill-rule="evenodd" fill="rgb(0,128,0)" stroke-width="5" stroke="rgb(0,0,0)" />
	<path d="M4772,2121.6 4772,2476.6 5082,2655.6 5082,2300.6 4772,2121.6 z " fill-rule="evenodd" fill="rgb(0,128,0)" stroke-width="5" stroke="rgb(0,0,0)" />
	<path d="M4148,3908.14 4148,4263.14 4458,4442.14 4458,4087.14 4148,3908.14 z " fill-rule="evenodd" fill="rgb(0,128,0)" stroke-width="5" stroke="rgb(0,0,0)" />
	<path d="M2276,1406.98 2276,1761.98 2586,1940.98 2586,1585.98 2276,1406.98 z " fill-rule="evenodd" fill="rgb(0,128,0)" stroke-width="5" stroke="rgb(0,0,0)" />
	<path d="M3524,1406.98 3524,1761.98 3834,1940.98 3834,1585.98 3524,1406.98 z " fill-rule="evenodd" fill="rgb(0,128,0)" stroke-width="5" stroke="rgb(0,0,0)" />
	<path d="M4148,1406.98 4148,1761.98 4458,1940.98 4458,1585.98 4148,1406.98 z " fill-rule="evenodd" fill="rgb(0,128,0)" stroke-width="5" stroke="rgb(0,0,0)" />
	<path d="M4772,1406.98 4772,1761.98 5082,1940.98 5082,1585.98 4772,1406.98 z " fill-rule="evenodd" fill="rgb(0,128,0)" stroke-width="5" stroke="rgb(0,0,0)" />
	<path d="M5396,1764.29 5396,2119.29 5706,2298.29 5706,1943.29 5396,1764.29 z " fill-rule="evenodd" fill="rgb(0,128,0)" stroke-width="5" stroke="rgb(0,0,0)" />
	<path d="M5396,2121.6 5396,2476.6 5706,2655.6 5706,2300.6 5396,2121.6 z " fill-rule="evenodd" fill="rgb(0,128,0)" stroke-width="5" stroke="rgb(0,0,0)" />
	<path d="M5396,2478.91 5396,2833.91 5706,3012.91 5706,2657.91 5396,2478.91 z " fill-rule="evenodd" fill="rgb(0,128,0)" stroke-width="5" stroke="rgb(0,0,0)" />
	<path d="M5396,2836.21 5396,3191.21 5706,3370.21 5706,3015.21 5396,2836.21 z " fill-rule="evenodd" fill="rgb(0,128,0)" stroke-width="5" stroke="rgb(0,0,0)" />
	<path d="M5396,3193.52 5396,3548.52 5706,3727.52 5706,3372.52 5396,3193.52 z " fill-rule="evenodd" fill="rgb(0,128,0)" stroke-width="5" stroke="rgb(0,0,0)" />
	<path d="M5396,3550.83 5396,3905.83 5706,4084.83 5706,3729.83 5396,3550.83 z " fill-rule="evenodd" fill="rgb(0,128,0)" stroke-width="5" stroke="rgb(0,0,0)" />
	<path d="M5396,3908.14 5396,4263.14 5706,4442.14 5706,4087.14 5396,3908.14 z " fill-rule="evenodd" fill="rgb(0,128,0)" stroke-width="5" stroke="rgb(0,0,0)" />
	<path d="M4148,4265.45 4148,4620.45 4458,4799.45 4458,4444.45 4148,4265.45 z " fill-rule="evenodd" fill="rgb(0,128,0)" stroke-width="5" stroke="rgb(0,0,0)" />
	<path d="M5396,4265.45 5396,4620.45 5706,4799.45 5706,4444.45 5396,4265.45 z " fill-rule="evenodd" fill="rgb(0,128,0)" stroke-width="5" stroke="rgb(0,0,0)" />
	<path d="M2276,1049.67 2276,1404.67 2586,1583.67 2586,1228.67 2276,1049.67 z " fill-rule="evenodd" fill="rgb(0,128,0)" stroke-width="5" stroke="rgb(0,0,0)" />
	<path d="M3524,1049.67 3524,1404.67 3834,1583.67 3834,1228.67 3524,1049.67 z " fill-rule="evenodd" fill="rgb(0,128,0)" stroke-width="5" stroke="rgb(0,0,0)" />
	<path d="M4148,1049.67 4148,1404.67 4458,1583.67 4458,1228.67 4148,1049.67 z " fill-rule="evenodd" fill="rgb(0,128,0)" stroke-width="5" stroke="rgb(0,0,0)" />
	<path d="M6020,1764.29 6020,2119.29 6330,2298.29 6330,1943.29 6020,1764.29 z " fill-rule="evenodd" fill="rgb(0,128,0)" stroke-width="5" stroke="rgb(0,0,0)" />
	<path d="M6020,2121.6 6020,2476.6 6330,2655.6 6330,2300.6 6020,2121.6 z " fill-rule="evenodd" fill="rgb(0,128,0)" stroke-width="5" stroke="rgb(0,0,0)" />
	<path d="M6020,2478.91 6020,2833.91 6330,3012.91 6330,2657.91 6020,2478.91 z " fill-rule="evenodd" fill="rgb(0,128,0)" stroke-width="5" stroke="rgb(0,0,0)" />
	<path d="M6020,2836.21 6020,3191.21 6330,3370.21 6330,3015.21 6020,2836.21 z " fill-rule="evenodd" fill="rgb(0,128,0)" stroke-width="5" stroke="rgb(0,0,0)" />
	<path d="M6020,3193.52 6020,3548.52 6330,3727.52 6330,3372.52 6020,3193.52 z " fill-rule="evenodd" fill="rgb(0,128,0)" stroke-width="5" stroke="rgb(0,0,0)" />
	<path d="M6020,3550.83 6020,3905.83 6330,4084.83 6330,3729.83 6020,3550.83 z " fill-rule="evenodd" fill="rgb(0,128,0)" stroke-width="5" stroke="rgb(0,0,0)" />
	<path d="M6020,3908.14 6020,4263.14 6330,4442.14 6330,4087.14 6020,3908.14 z " fill-rule="evenodd" fill="rgb(0,128,0)" stroke-width="5" stroke="rgb(0,0,0)" />
	<path d="M6020,4265.45 6020,4620.45 6330,4799.45 6330,4444.45 6020,4265.45 z " fill-rule="evenodd" fill="rgb(0,128,0)" stroke-width="5" stroke="rgb(0,0,0)" />
	<path d="M5396,4622.76 5396,4977.76 5706,5156.76 5706,4801.76 5396,4622.76 z " fill-rule="evenodd" fill="rgb(0,128,0)" stroke-width="5" stroke="rgb(0,0,0)" />
	<path d="M6020,4622.76 6020,4977.76 6330,5156.76 6330,4801.76 6020,4622.76 z " fill-rule="evenodd" fill="rgb(0,128,0)" stroke-width="5" stroke="rgb(0,0,0)" />
	<path d="M2276,692.358 2276,1047.36 2586,1226.36 2586,871.358 2276,692.358 z " fill-rule="evenodd" fill="rgb(0,128,0)" stroke-width="5" stroke="rgb(0,0,0)" />
	<path d="M3524,692.358 3524,1047.36 3834,1226.36 3834,871.358 3524,692.358 z " fill-rule="evenodd" fill="rgb(0,128,0)" stroke-width="5" stroke="rgb(0,0,0)" />
	<path d="M6644,2121.6 6644,2476.6 6954,2655.6 6954,2300.6 6644,2121.6 z " fill-rule="evenodd" fill="rgb(0,128,0)" stroke-width="5" stroke="rgb(0,0,0)" />
	<path d="M6644,2478.91 6644,2833.91 6954,3012.91 6954,2657.91 6644,2478.91 z " fill-rule="evenodd" fill="rgb(0,128,0)" stroke-width="5" stroke="rgb(0,0,0)" />
	<path d="M6644,2836.21 6644,3191.21 6954,3370.21 6954,3015.21 6644,2836.21 z " fill-rule="evenodd" fill="rgb(0,128,0)" stroke-width="5" stroke="rgb(0,0,0)" />
	<path d="M6644,3193.52 6644,3548.52 6954,3727.52 6954,3372.52 6644,3193.52 z " fill-rule="evenodd" fill="rgb(0,128,0)" stroke-width="5" stroke="rgb(0,0,0)" />
	<path d="M6644,3550.83 6644,3905.83 6954,4084.83 6954,3729.83 6644,3550.83 z " fill-rule="evenodd" fill="rgb(0,128,0)" stroke-width="5" stroke="rgb(0,0,0)" />
	<path d="M6644,3908.14 6644,4263.14 6954,4442.14 6954,4087.14 6644,3908.14 z " fill-rule="evenodd" fill="rgb(0,128,0)" stroke-width="5" stroke="rgb(0,0,0)" />
	<path d="M6644,4265.45 6644,4620.45 6954,4799.45 6954,4444.45 6644,4265.45 z " fill-rule="evenodd" fill="rgb(0,128,0)" stroke-width="5" stroke="rgb(0,0,0)" />
	<path d="M6644,4622.76 6644,4977.76 6954,5156.76 6954,4801.76 6644,4622.76 z " fill-rule="evenodd" fill="rgb(0,128,0)" stroke-width="5" stroke="rgb(0,0,0)" />
	<path d="M5396,4980.07 5396,5335.07 5706,5514.07 5706,5159.07 5396,4980.07 z " fill-rule="evenodd" fill="rgb(0,128,0)" stroke-width="5" stroke="rgb(0,0,0)" />
	<path d="M6020,4980.07 6020,5335.07 6330,5514.07 6330,5159.07 6020,4980.07 z " fill-rule="evenodd" fill="rgb(0,128,0)" stroke-width="5" stroke="rgb(0,0,0)" />
	<path d="M6644,4980.07 6644,5335.07 6954,5514.07 6954,5159.07 6644,4980.07 z " fill-rule="evenodd" fill="rgb(0,128,0)" stroke-width="5" stroke="rgb(0,0,0)" />
	<path d="M2276,335.048 2276,690.048 2586,869.048 2586,514.048 2276,335.048 z " fill-rule="evenodd" fill="rgb(0,128,0)" stroke-width="5" stroke="rgb(0,0,0)" />
	<path d="M7268,2478.91 7268,2833.91 7578,3012.91 7578,2657.91 7268,2478.91 z " fill-rule="evenodd" fill="rgb(0,128,0)" stroke-width="5" stroke="rgb(0,0,0)" />
	<path d="M7268,2836.21 7268,3191.21 7578,3370.21 7578,3015.21 7268,2836.21 z " fill-rule="evenodd" fill="rgb(0,128,0)" stroke-width="5" stroke="rgb(0,0,0)" />
	<path d="M7268,3193.52 7268,3548.52 7578,3727.52 7578,3372.52 7268,3193.52 z " fill-rule="evenodd" fill="rgb(0,128,0)" stroke-width="5" stroke="rgb(0,0,0)" />
	<path d="M7268,3550.83 7268,3905.83 7578,4084.83 7578,3729.83 7268,3550.83 z " fill-rule="evenodd" fill="rgb(0,128,0)" stroke-width="5" stroke="rgb(0,0,0)" />
	<path d="M7268,3908.14 7268,4263.14 7578,4442.14 7578,4087.14 7268,3908.14 z " fill-rule="evenodd" fill="rgb(0,128,0)" stroke-width="5" stroke="rgb(0,0,0)" />
	<path d="M7268,4265.45 7268,4620.45 7578,4799.45 7578,4444.45 7268,4265.45 z " fill-rule="evenodd" fill="rgb(0,128,0)" stroke-width="5" stroke="rgb(0,0,0)" />
	<path d="M7268,4622.76 7268,4977.76 7578,5156.76 7578,4801.76 7268,4622.76 z " fill-rule="evenodd" fill="rgb(0,128,0)" stroke-width="5" stroke="rgb(0,0,0)" />
	<path d="M7268,4980.07 7268,5335.07 7578,5514.07 7578,5159.07 7268,4980.07 z " fill-rule="evenodd" fill="rgb(0,128,0)" stroke-width="5" stroke="rgb(0,0,0)" />
	<path d="M7892,2478.91 7892,2833.91 8202,3012.91 8202,2657.91 7892,2478.91 z " fill-rule="evenodd" fill="rgb(0,128,0)" stroke-width="5" stroke="rgb(0,0,0)" />
	<path d="M7892,2836.21 7892,3191.21 8202,3370.21 8202,3015.21 7892,2836.21 z " fill-rule="evenodd" fill="rgb(0,128,0)" stroke-width="5" stroke="rgb(0,0,0)" />
	<path d="M7892,3193.52 7892,3548.52 8202,3727.52 8202,3372.52 7892,3193.52 z " fill-rule="evenodd" fill="rgb(0,128,0)" stroke-width="5" stroke="rgb(0,0,0)" />
	<path d="M7892,3550.83 7892,3905.83 8202,4084.83 8202,3729.83 7892,3550.83 z " fill-rule="evenodd" fill="rgb(0,128,0)" stroke-width="5" stroke="rgb(0,0,0)" />
	<path d="M7892,3908.14 7892,4263.14 8202,4442.14 8202,4087.14 7892,3908.14 z " fill-rule="evenodd" fill="rgb(0,128,0)" stroke-width="5" stroke="rgb(0,0,0)" />
	<path d="M7892,4265.45 7892,4620.45 8202,4799.45 8202,4444.45 7892,4265.45 z " fill-rule="evenodd" fill="rgb(0,128,0)" stroke-width="5" stroke="rgb(0,0,0)" />
	<path d="M7892,4622.76 7892,4977.76 8202,5156.76 8202,4801.76 7892,4622.76 z " fill-rule="evenodd" fill="rgb(0,128,0)" stroke-width="5" stroke="rgb(0,0,0)" />
	<path d="M7892,4980.07 7892,5335.07 8202,5514.07 8202,5159.07 7892,4980.07 z " fill-rule="evenodd" fill="rgb(0,128,0)" stroke-width="5" stroke="rgb(0,0,0)" />
	<path d="M2274,5694.69 2274,6049.69 1964,6228.69 1964,5873.69 2274,5694.69 z " fill-rule="evenodd" fill="rgb(0,128,0)" stroke-width="5" stroke="rgb(0,0,0)" />
	<path d="M2898,5694.69 2898,6049.69 2588,6228.69 2588,5873.69 2898,5694.69 z " fill-rule="evenodd" fill="rgb(0,128,0)" stroke-width="5" stroke="rgb(0,0,0)" />
	<path d="M2274,6052 2274,6407 1964,6586 1964,6231 2274,6052 z " fill-rule="evenodd" fill="rgb(0,128,0)" stroke-width="5" stroke="rgb(0,0,0)" />
	<path d="M2898,6052 2898,6407 2588,6586 2588,6231 2898,6052 z " fill-rule="evenodd" fill="rgb(0,128,0)" stroke-width="5" stroke="rgb(0,0,0)" />
	<path d="M2274,6409.31 2274,6764.31 1964,6943.31 1964,6588.31 2274,6409.31 z " fill-rule="evenodd" fill="rgb(0,128,0)" stroke-width="5" stroke="rgb(0,0,0)" />
	<path d="M2898,6409.31 2898,6764.31 2588,6943.31 2588,6588.31 2898,6409.31 z " fill-rule="evenodd" fill="rgb(0,128,0)" stroke-width="5" stroke="rgb(0,0,0)" />
	<path d="M1650,5337.38 1650,5692.38 1340,5871.38 1340,5516.38 1650,5337.38 z " fill-rule="evenodd" fill="rgb(0,128,0)" stroke-width="5" stroke="rgb(0,0,0)" />
	<path d="M2274,5337.38 2274,5692.38 1964,5871.38 1964,5516.38 2274,5337.38 z " fill-rule="evenodd" fill="rgb(0,128,0)" stroke-width="5" stroke="rgb(0,0,0)" />
	<path d="M2898,5337.38 2898,5692.38 2588,5871.38 2588,5516.38 2898,5337.38 z " fill-rule="evenodd" fill="rgb(0,128,0)" stroke-width="5" stroke="rgb(0,0,0)" />
	<path d="M1650,5694.69 1650,6049.69 1340,6228.69 1340,5873.69 1650,5694.69 z " fill-rule="evenodd" fill="rgb(0,128,0)" stroke-width="5" stroke="rgb(0,0,0)" />
	<path d="M1650,6052 1650,6407 1340,6586 1340,6231 1650,6052 z " fill-rule="evenodd" fill="rgb(0,128,0)" stroke-width="5" stroke="rgb(0,0,0)" />
	<path d="M1650,6409.31 1650,6764.31 1340,6943.31 1340,6588.31 1650,6409.31 z " fill-rule="evenodd" fill="rgb(0,128,0)" stroke-width="5" stroke="rgb(0,0,0)" />
	<path d="M1026,4980.07 1026,5335.07 716,5514.07 716,5159.07 1026,4980.07 z " fill-rule="evenodd" fill="rgb(0,128,0)" stroke-width="5" stroke="rgb(0,0,0)" />
	<path d="M1650,4980.07 1650,5335.07 1340,5514.07 1340,5159.07 1650,4980.07 z " fill-rule="evenodd" fill="rgb(0,128,0)" stroke-width="5" stroke="rgb(0,0,0)" />
	<path d="M2274,4980.07 2274,5335.07 1964,5514.07 1964,5159.07 2274,4980.07 z " fill-rule="evenodd" fill="rgb(0,128,0)" stroke-width="5" stroke="rgb(0,0,0)" />
	<path d="M1026,5337.38 1026,5692.38 716,5871.38 716,5516.38 1026,5337.38 z " fill-rule="evenodd" fill="rgb(0,128,0)" stroke-width="5" stroke="rgb(0,0,0)" />
	<path d="M1026,5694.69 1026,6049.69 716,6228.69 716,5873.69 1026,5694.69 z " fill-rule="evenodd" fill="rgb(0,128,0)" stroke-width="5" stroke="rgb(0,0,0)" />
	<path d="M2898,4980.07 2898,5335.07 2588,5514.07 2588,5159.07 2898,4980.07 z " fill-rule="evenodd" fill="rgb(0,128,0)" stroke-width="5" stroke="rgb(0,0,0)" />
	<path d="M1026,6052 1026,6407 716,6586 716,6231 1026,6052 z " fill-rule="evenodd" fill="rgb(0,128,0)" stroke-width="5" stroke="rgb(0,0,0)" />
	<path d="M1026,6409.31 1026,6764.31 716,6943.31 716,6588.31 1026,6409.31 z " fill-rule="evenodd" fill="rgb(0,128,0)" stroke-width="5" stroke="rgb(0,0,0)" />
	<path d="M1026,4622.76 1026,4977.76 716,5156.76 716,4801.76 1026,4622.76 z " fill-rule="evenodd" fill="rgb(0,128,0)" stroke-width="5" stroke="rgb(0,0,0)" />
	<path d="M1650,4622.76 1650,4977.76 1340,5156.76 1340,4801.76 1650,4622.76 z " fill-rule="evenodd" fill="rgb(0,128,0)" stroke-width="5" stroke="rgb(0,0,0)" />
	<path d="M2274,4622.76 2274,4977.76 1964,5156.76 1964,4801.76 2274,4622.76 z " fill-rule="evenodd" fill="rgb(0,128,0)" stroke-width="5" stroke="rgb(0,0,0)" />
	<path d="M2898,4622.76 2898,4977.76 2588,5156.76 2588,4801.76 2898,4622.76 z " fill-rule="evenodd" fill="rgb(0,128,0)" stroke-width="5" stroke="rgb(0,0,0)" />
	<path d="M1026,4265.45 1026,4620.45 716,4799.45 716,4444.45 1026,4265.45 z " fill-rule="evenodd" fill="rgb(0,128,0)" stroke-width="5" stroke="rgb(0,0,0)" />
	<path d="M1650,4265.45 1650,4620.45 1340,4799.45 1340,4444.45 1650,4265.45 z " fill-rule="evenodd" fill="rgb(0,128,0)" stroke-width="5" stroke="rgb(0,0,0)" />
	<path d="M2274,4265.45 2274,4620.45 1964,4799.45 1964,4444.45 2274,4265.45 z " fill-rule="evenodd" fill="rgb(0,128,0)" stroke-width="5" stroke="rgb(0,0,0)" />
	<path d="M2898,4265.45 2898,4620.45 2588,4799.45 2588,4444.45 2898,4265.45 z " fill-rule="evenodd" fill="rgb(0,128,0)" stroke-width="5" stroke="rgb(0,0,0)" />
	<path d="M1026,3908.14 1026,4263.14 716,4442.14 716,4087.14 1026,3908.14 z " fill-rule="evenodd" fill="rgb(0,128,0)" stroke-width="5" stroke="rgb(0,0,0)" />
	<path d="M1650,3908.14 1650,4263.14 1340,4442.14 1340,4087.14 1650,3908.14 z " fill-rule="evenodd" fill="rgb(0,128,0)" stroke-width="5" stroke="rgb(0,0,0)" />
	<path d="M2274,3908.14 2274,4263.14 1964,4442.14 1964,4087.14 2274,3908.14 z " fill-rule="evenodd" fill="rgb(0,128,0)" stroke-width="5" stroke="rgb(0,0,0)" />
	<path d="M2898,3908.14 2898,4263.14 2588,4442.14 2588,4087.14 2898,3908.14 z " fill-rule="evenodd" fill="rgb(0,128,0)" stroke-width="5" stroke="rgb(0,0,0)" />
	<path d="M1026,3550.83 1026,3905.83 716,4084.83 716,3729.83 1026,3550.83 z " fill-rule="evenodd" fill="rgb(0,128,0)" stroke-width="5" stroke="rgb(0,0,0)" />
	<path d="M1650,3550.83 1650,3905.83 1340,4084.83 1340,3729.83 1650,3550.83 z " fill-rule="evenodd" fill="rgb(0,128,0)" stroke-width="5" stroke="rgb(0,0,0)" />
	<path d="M2274,3550.83 2274,3905.83 1964,4084.83 1964,3729.83 2274,3550.83 z " fill-rule="evenodd" fill="rgb(0,128,0)" stroke-width="5" stroke="rgb(0,0,0)" />
	<path d="M2898,3550.83 2898,3905.83 2588,4084.83 2588,3729.83 2898,3550.83 z " fill-rule="evenodd" fill="rgb(0,128,0)" stroke-width="5" stroke="rgb(0,0,0)" />
	<path d="M1026,3193.52 1026,3548.52 716,3727.52 716,3372.52 1026,3193.52 z " fill-rule="evenodd" fill="rgb(0,128,0)" stroke-width="5" stroke="rgb(0,0,0)" />
	<path d="M1650,3193.52 1650,3548.52 1340,3727.52 1340,3372.52 1650,3193.52 z " fill-rule="evenodd" fill="rgb(0,128,0)" stroke-width="5" stroke="rgb(0,0,0)" />
	<path d="M2274,3193.52 2274,3548.52 1964,3727.52 1964,3372.52 2274,3193.52 z " fill-rule="evenodd" fill="rgb(0,128,0)" stroke-width="5" stroke="rgb(0,0,0)" />
	<path d="M2898,3193.52 2898,3548.52 2588,3727.52 2588,3372.52 2898,3193.52 z " fill-rule="evenodd" fill="rgb(0,128,0)" stroke-width="5" stroke="rgb(0,0,0)" />
	<path d="M2898,2478.91 2898,2833.91 2588,3012.91 2588,2657.91 2898,2478.91 z " fill-rule="evenodd" fill="rgb(0,128,0)" stroke-width="5" stroke="rgb(0,0,0)" />
	<path d="M4146,3193.52 4146,3548.52 3836,3727.52 3836,3372.52 4146,3193.52 z " fill-rule="evenodd" fill="rgb(0,128,0)" stroke-width="5" stroke="rgb(0,0,0)" />
	<path d="M1026,2121.6 1026,2476.6 716,2655.6 716,2300.6 1026,2121.6 z " fill-rule="evenodd" fill="rgb(0,128,0)" stroke-width="5" stroke="rgb(0,0,0)" />
	<path d="M1650,2121.6 1650,2476.6 1340,2655.6 1340,2300.6 1650,2121.6 z " fill-rule="evenodd" fill="rgb(0,128,0)" stroke-width="5" stroke="rgb(0,0,0)" />
	<path d="M2274,2121.6 2274,2476.6 1964,2655.6 1964,2300.6 2274,2121.6 z " fill-rule="evenodd" fill="rgb(0,128,0)" stroke-width="5" stroke="rgb(0,0,0)" />
	<path d="M2898,2121.6 2898,2476.6 2588,2655.6 2588,2300.6 2898,2121.6 z " fill-rule="evenodd" fill="rgb(0,128,0)" stroke-width="5" stroke="rgb(0,0,0)" />
	<path d="M3522,2121.6 3522,2476.6 3212,2655.6 3212,2300.6 3522,2121.6 z " fill-rule="evenodd" fill="rgb(0,128,0)" stroke-width="5" stroke="rgb(0,0,0)" />
	<path d="M4146,2121.6 4146,2476.6 3836,2655.6 3836,2300.6 4146,2121.6 z " fill-rule="evenodd" fill="rgb(0,128,0)" stroke-width="5" stroke="rgb(0,0,0)" />
	<path d="M4770,2121.6 4770,2476.6 4460,2655.6 4460,2300.6 4770,2121.6 z " fill-rule="evenodd" fill="rgb(0,128,0)" stroke-width="5" stroke="rgb(0,0,0)" />
	<path d="M4770,2478.91 4770,2833.91 4460,3012.91 4460,2657.91 4770,2478.91 z " fill-rule="evenodd" fill="rgb(0,128,0)" stroke-width="5" stroke="rgb(0,0,0)" />
	<path d="M4770,2836.21 4770,3191.21 4460,3370.21 4460,3015.21 4770,2836.21 z " fill-rule="evenodd" fill="rgb(0,128,0)" stroke-width="5" stroke="rgb(0,0,0)" />
	<path d="M4770,3193.52 4770,3548.52 4460,3727.52 4460,3372.52 4770,3193.52 z " fill-rule="evenodd" fill="rgb(0,128,0)" stroke-width="5" stroke="rgb(0,0,0)" />
	<path d="M4146,3550.83 4146,3905.83 3836,4084.83 3836,3729.83 4146,3550.83 z " fill-rule="evenodd" fill="rgb(0,128,0)" stroke-width="5" stroke="rgb(0,0,0)" />
	<path d="M4770,3550.83 4770,3905.83 4460,4084.83 4460,3729.83 4770,3550.83 z " fill-rule="evenodd" fill="rgb(0,128,0)" stroke-width="5" stroke="rgb(0,0,0)" />
	<path d="M1026,1764.29 1026,2119.29 716,2298.29 716,1943.29 1026,1764.29 z " fill-rule="evenodd" fill="rgb(0,128,0)" stroke-width="5" stroke="rgb(0,0,0)" />
	<path d="M1650,1764.29 1650,2119.29 1340,2298.29 1340,1943.29 1650,1764.29 z " fill-rule="evenodd" fill="rgb(0,128,0)" stroke-width="5" stroke="rgb(0,0,0)" />
	<path d="M2274,1764.29 2274,2119.29 1964,2298.29 1964,1943.29 2274,1764.29 z " fill-rule="evenodd" fill="rgb(0,128,0)" stroke-width="5" stroke="rgb(0,0,0)" />
	<path d="M2898,1764.29 2898,2119.29 2588,2298.29 2588,1943.29 2898,1764.29 z " fill-rule="evenodd" fill="rgb(0,128,0)" stroke-width="5" stroke="rgb(0,0,0)" />
	<path d="M3522,1764.29 3522,2119.29 3212,2298.29 3212,1943.29 3522,1764.29 z " fill-rule="evenodd" fill="rgb(0,128,0)" stroke-width="5" stroke="rgb(0,0,0)" />
	<path d="M4146,1764.29 4146,2119.29 3836,2298.29 3836,1943.29 4146,1764.29 z " fill-rule="evenodd" fill="rgb(0,128,0)" stroke-width="5" stroke="rgb(0,0,0)" />
	<path d="M4770,1764.29 4770,2119.29 4460,2298.29 4460,1943.29 4770,1764.29 z " fill-rule="evenodd" fill="rgb(0,128,0)" stroke-width="5" stroke="rgb(0,0,0)" />
	<path d="M5394,1764.29 5394,2119.29 5084,2298.29 5084,1943.29 5394,1764.29 z " fill-rule="evenodd" fill="rgb(0,128,0)" stroke-width="5" stroke="rgb(0,0,0)" />
	<path d="M5394,2121.6 5394,2476.6 5084,2655.6 5084,2300.6 5394,2121.6 z " fill-rule="evenodd" fill="rgb(0,128,0)" stroke-width="5" stroke="rgb(0,0,0)" />
	<path d="M5394,2478.91 5394,2833.91 5084,3012.91 5084,2657.91 5394,2478.91 z " fill-rule="evenodd" fill="rgb(0,128,0)" stroke-width="5" stroke="rgb(0,0,0)" />
	<path d="M5394,2836.21 5394,3191.21 5084,3370.21 5084,3015.21 5394,2836.21 z " fill-rule="evenodd" fill="rgb(0,128,0)" stroke-width="5" stroke="rgb(0,0,0)" />
	<path d="M5394,3193.52 5394,3548.52 5084,3727.52 5084,3372.52 5394,3193.52 z " fill-rule="evenodd" fill="rgb(0,128,0)" stroke-width="5" stroke="rgb(0,0,0)" />
	<path d="M5394,3550.83 5394,3905.83 5084,4084.83 5084,3729.83 5394,3550.83 z " fill-rule="evenodd" fill="rgb(0,128,0)" stroke-width="5" stroke="rgb(0,0,0)" />
	<path d="M4146,3908.14 4146,4263.14 3836,4442.14 3836,4087.14 4146,3908.14 z " fill-rule="evenodd" fill="rgb(0,128,0)" stroke-width="5" stroke="rgb(0,0,0)" />
	<path d="M4770,3908.14 4770,4263.14 4460,4442.14 4460,4087.14 4770,3908.14 z " fill-rule="evenodd" fill="rgb(0,128,0)" stroke-width="5" stroke="rgb(0,0,0)" />
	<path d="M5394,3908.14 5394,4263.14 5084,4442.14 5084,4087.14 5394,3908.14 z " fill-rule="evenodd" fill="rgb(0,128,0)" stroke-width="5" stroke="rgb(0,0,0)" />
	<path d="M2898,1406.98 2898,1761.98 2588,1940.98 2588,1585.98 2898,1406.98 z " fill-rule="evenodd" fill="rgb(0,128,0)" stroke-width="5" stroke="rgb(0,0,0)" />
	<path d="M3522,1406.98 3522,1761.98 3212,1940.98 3212,1585.98 3522,1406.98 z " fill-rule="evenodd" fill="rgb(0,128,0)" stroke-width="5" stroke="rgb(0,0,0)" />
	<path d="M4146,1406.98 4146,1761.98 3836,1940.98 3836,1585.98 4146,1406.98 z " fill-rule="evenodd" fill="rgb(0,128,0)" stroke-width="5" stroke="rgb(0,0,0)" />
	<path d="M4770,1406.98 4770,1761.98 4460,1940.98 4460,1585.98 4770,1406.98 z " fill-rule="evenodd" fill="rgb(0,128,0)" stroke-width="5" stroke="rgb(0,0,0)" />
	<path d="M6018,1764.29 6018,2119.29 5708,2298.29 5708,1943.29 6018,1764.29 z " fill-rule="evenodd" fill="rgb(0,128,0)" stroke-width="5" stroke="rgb(0,0,0)" />
	<path d="M6018,2121.6 6018,2476.6 5708,2655.6 5708,2300.6 6018,2121.6 z " fill-rule="evenodd" fill="rgb(0,128,0)" stroke-width="5" stroke="rgb(0,0,0)" />
	<path d="M6018,2478.91 6018,2833.91 5708,3012.91 5708,2657.91 6018,2478.91 z " fill-rule="evenodd" fill="rgb(0,128,0)" stroke-width="5" stroke="rgb(0,0,0)" />
	<path d="M6018,2836.21 6018,3191.21 5708,3370.21 5708,3015.21 6018,2836.21 z " fill-rule="evenodd" fill="rgb(0,128,0)" stroke-width="5" stroke="rgb(0,0,0)" />
	<path d="M6018,3193.52 6018,3548.52 5708,3727.52 5708,3372.52 6018,3193.52 z " fill-rule="evenodd" fill="rgb(0,128,0)" stroke-width="5" stroke="rgb(0,0,0)" />
	<path d="M6018,3550.83 6018,3905.83 5708,4084.83 5708,3729.83 6018,3550.83 z " fill-rule="evenodd" fill="rgb(0,128,0)" stroke-width="5" stroke="rgb(0,0,0)" />
	<path d="M6018,3908.14 6018,4263.14 5708,4442.14 5708,4087.14 6018,3908.14 z " fill-rule="evenodd" fill="rgb(0,128,0)" stroke-width="5" stroke="rgb(0,0,0)" />
	<path d="M4146,4265.45 4146,4620.45 3836,4799.45 3836,4444.45 4146,4265.45 z " fill-rule="evenodd" fill="rgb(0,128,0)" stroke-width="5" stroke="rgb(0,0,0)" />
	<path d="M4770,4265.45 4770,4620.45 4460,4799.45 4460,4444.45 4770,4265.45 z " fill-rule="evenodd" fill="rgb(0,128,0)" stroke-width="5" stroke="rgb(0,0,0)" />
	<path d="M5394,4265.45 5394,4620.45 5084,4799.45 5084,4444.45 5394,4265.45 z " fill-rule="evenodd" fill="rgb(0,128,0)" stroke-width="5" stroke="rgb(0,0,0)" />
	<path d="M6018,4265.45 6018,4620.45 5708,4799.45 5708,4444.45 6018,4265.45 z " fill-rule="evenodd" fill="rgb(0,128,0)" stroke-width="5" stroke="rgb(0,0,0)" />
	<path d="M2898,1049.67 2898,1404.67 2588,1583.67 2588,1228.67 2898,1049.67 z " fill-rule="evenodd" fill="rgb(0,128,0)" stroke-width="5" stroke="rgb(0,0,0)" />
	<path d="M4146,1049.67 4146,1404.67 3836,1583.67 3836,1228.67 4146,1049.67 z " fill-rule="evenodd" fill="rgb(0,128,0)" stroke-width="5" stroke="rgb(0,0,0)" />
	<path d="M6642,2121.6 6642,2476.6 6332,2655.6 6332,2300.6 6642,2121.6 z " fill-rule="evenodd" fill="rgb(0,128,0)" stroke-width="5" stroke="rgb(0,0,0)" />
	<path d="M6642,2478.91 6642,2833.91 6332,3012.91 6332,2657.91 6642,2478.91 z " fill-rule="evenodd" fill="rgb(0,128,0)" stroke-width="5" stroke="rgb(0,0,0)" />
	<path d="M6642,2836.21 6642,3191.21 6332,3370.21 6332,3015.21 6642,2836.21 z " fill-rule="evenodd" fill="rgb(0,128,0)" stroke-width="5" stroke="rgb(0,0,0)" />
	<path d="M6642,3193.52 6642,3548.52 6332,3727.52 6332,3372.52 6642,3193.52 z " fill-rule="evenodd" fill="rgb(0,128,0)" stroke-width="5" stroke="rgb(0,0,0)" />
	<path d="M6642,3550.83 6642,3905.83 6332,4084.83 6332,3729.83 6642,3550.83 z " fill-rule="evenodd" fill="rgb(0,128,0)" stroke-width="5" stroke="rgb(0,0,0)" />
	<path d="M6642,3908.14 6642,4263.14 6332,4442.14 6332,4087.14 6642,3908.14 z " fill-rule="evenodd" fill="rgb(0,128,0)" stroke-width="5" stroke="rgb(0,0,0)" />
	<path d="M6642,4265.45 6642,4620.45 6332,4799.45 6332,4444.45 6642,4265.45 z " fill-rule="evenodd" fill="rgb(0,128,0)" stroke-width="5" stroke="rgb(0,0,0)" />
	<path d="M5394,4622.76 5394,4977.76 5084,5156.76 5084,4801.76 5394,4622.76 z " fill-rule="evenodd" fill="rgb(0,128,0)" stroke-width="5" stroke="rgb(0,0,0)" />
	<path d="M6018,4622.76 6018,4977.76 5708,5156.76 5708,4801.76 6018,4622.76 z " fill-rule="evenodd" fill="rgb(0,128,0)" stroke-width="5" stroke="rgb(0,0,0)" />
	<path d="M6642,4622.76 6642,4977.76 6332,5156.76 6332,4801.76 6642,4622.76 z " fill-rule="evenodd" fill="rgb(0,128,0)" stroke-width="5" stroke="rgb(0,0,0)" />
	<path d="M2898,692.358 2898,1047.36 2588,1226.36 2588,871.358 2898,692.358 z " fill-rule="evenodd" fill="rgb(0,128,0)" stroke-width="5" stroke="rgb(0,0,0)" />
	<path d="M7266,2478.91 7266,2833.91 6956,3012.91 6956,2657.91 7266,2478.91 z " fill-rule="evenodd" fill="rgb(0,128,0)" stroke-width="5" stroke="rgb(0,0,0)" />
	<path d="M7266,2836.21 7266,3191.21 6956,3370.21 6956,3015.21 7266,2836.21 z " fill-rule="evenodd" fill="rgb(0,128,0)" stroke-width="5" stroke="rgb(0,0,0)" />
	<path d="M7266,3193.52 7266,3548.52 6956,3727.52 6956,3372.52 7266,3193.52 z " fill-rule="evenodd" fill="rgb(0,128,0)" stroke-width="5" stroke="rgb(0,0,0)" />
	<path d="M7266,3550.83 7266,3905.83 6956,4084.83 6956,3729.83 7266,3550.83 z " fill-rule="evenodd" fill="rgb(0,128,0)" stroke-width="5" stroke="rgb(0,0,0)" />
	<path d="M7266,3908.14 7266,4263.14 6956,4442.14 6956,4087.14 7266,3908.14 z " fill-rule="evenodd" fill="rgb(0,128,0)" stroke-width="5" stroke="rgb(0,0,0)" />
	<path d="M7266,4265.45 7266,4620.45 6956,4799.45 6956,4444.45 7266,4265.45 z " fill-rule="evenodd" fill="rgb(0,128,0)" stroke-width="5" stroke="rgb(0,0,0)" />
	<path d="M7266,4622.76 7266,4977.76 6956,5156.76 6956,4801.76 7266,4622.76 z " fill-rule="evenodd" fill="rgb(0,128,0)" stroke-width="5" stroke="rgb(0,0,0)" />
	<path d="M5394,4980.07 5394,5335.07 5084,5514.07 5084,5159.07 5394,4980.07 z " fill-rule="evenodd" fill="rgb(0,128,0)" stroke-width="5" stroke="rgb(0,0,0)" />
	<path d="M6018,4980.07 6018,5335.07 5708,5514.07 5708,5159.07 6018,4980.07 z " fill-rule="evenodd" fill="rgb(0,128,0)" stroke-width="5" stroke="rgb(0,0,0)" />
	<path d="M6642,4980.07 6642,5335.07 6332,5514.07 6332,5159.07 6642,4980.07 z " fill-rule="evenodd" fill="rgb(0,128,0)" stroke-width="5" stroke="rgb(0,0,0)" />
	<path d="M7266,4980.07 7266,5335.07 6956,5514.07 6956,5159.07 7266,4980.07 z " fill-rule="evenodd" fill="rgb(0,128,0)" stroke-width="5" stroke="rgb(0,0,0)" />
	<path d="M7890,2478.91 7890,2833.91 7580,3012.91 7580,2657.91 7890,2478.91 z " fill-rule="evenodd" fill="rgb(0,128,0)" stroke-width="5" stroke="rgb(0,0,0)" />
	<path d="M7890,2836.21 7890,3191.21 7580,3370.21 7580,3015.21 7890,2836.21 z " fill-rule="evenodd" fill="rgb(0,128,0)" stroke-width="5" stroke="rgb(0,0,0)" />
	<path d="M7890,3193.52 7890,3548.52 7580,3727.52 7580,3372.52 7890,3193.52 z " fill-rule="evenodd" fill="rgb(0,128,0)" stroke-width="5" stroke="rgb(0,0,0)" />
	<path d="M7890,3550.83 7890,3905.83 7580,4084.83 7580,3729.83 7890,3550.83 z " fill-rule="evenodd" fill="rgb(0,128,0)" stroke-width="5" stroke="rgb(0,0,0)" />
	<path d="M7890,3908.14 7890,4263.14 7580,4442.14 7580,4087.14 7890,3908.14 z " fill-rule="evenodd" fill="rgb(0,128,0)" stroke-width="5" stroke="rgb(0,0,0)" />
	<path d="M7890,4265.45 7890,4620.45 7580,4799.45 7580,4444.45 7890,4265.45 z " fill-rule="evenodd" fill="rgb(0,128,0)" stroke-width="5" stroke="rgb(0,0,0)" />
	<path d="M7890,4622.76 7890,4977.76 7580,5156.76 7580,4801.76 7890,4622.76 z " fill-rule="evenodd" fill="rgb(0,128,0)" stroke-width="5" stroke="rgb(0,0,0)" />
	<path d="M7890,4980.07 7890,5335.07 7580,5514.07 7580,5159.07 7890,4980.07 z " fill-rule="evenodd" fill="rgb(0,128,0)" stroke-width="5" stroke="rgb(0,0,0)" />
	<path d="M8514,2836.21 8514,3191.21 8204,3370.21 8204,3015.21 8514,2836.21 z " fill-rule="evenodd" fill="rgb(0,128,0)" stroke-width="5" stroke="rgb(0,0,0)" />
	<path d="M8514,3193.52 8514,3548.52 8204,3727.52 8204,3372.52 8514,3193.52 z " fill-rule="evenodd" fill="rgb(0,128,0)" stroke-width="5" stroke="rgb(0,0,0)" />
	<path d="M8514,3550.83 8514,3905.83 8204,4084.83 8204,3729.83 8514,3550.83 z " fill-rule="evenodd" fill="rgb(0,128,0)" stroke-width="5" stroke="rgb(0,0,0)" />
	<path d="M8514,3908.14 8514,4263.14 8204,4442.14 8204,4087.14 8514,3908.14 z " fill-rule="evenodd" fill="rgb(0,128,0)" stroke-width="5" stroke="rgb(0,0,0)" />
	<path d="M8514,4265.45 8514,4620.45 8204,4799.45 8204,4444.45 8514,4265.45 z " fill-rule="evenodd" fill="rgb(0,128,0)" stroke-width="5" stroke="rgb(0,0,0)" />
	<path d="M8514,4622.76 8514,4977.76 8204,5156.76 8204,4801.76 8514,4622.76 z " fill-rule="evenodd" fill="rgb(0,128,0)" stroke-width="5" stroke="rgb(0,0,0)" />
	<path d="M8514,4980.07 8514,5335.07 8204,5514.07 8204,5159.07 8514,4980.07 z " fill-rule="evenodd" fill="rgb(0,128,0)" stroke-width="5" stroke="rgb(0,0,0)" />
	<path d="M2904,6052 3100,6052 3100,6165.17 2904,6052 z " fill-rule="evenodd" fill="rgb(255,0,0)" stroke-width="5" stroke="rgb(0,0,0)" />
	<path d="M2900,6407 2900,6052 3100,6167.48 3100,6522.48 2900,6407 z " fill-rule="evenodd" fill="rgb(255,0,0)" stroke-width="5" stroke="rgb(0,0,0)" />
	<path d="M2900,6764.31 2900,6409.31 3100,6524.79 3100,6852 3051.87,6852 2900,6764.31 z " fill-rule="evenodd" fill="rgb(255,0,0)" stroke-width="5" stroke="rgb(0,0,0)" />
	<path d="M1652,6766.62 1962,6945.62 1962,6952 1652,6952 1652,6766.62 z " fill-rule="evenodd" fill="rgb(255,0,0)" stroke-width="5" stroke="rgb(0,0,0)" />
	<path d="M2276,6766.62 2586,6945.62 2586,6952 2276,6952 2276,6766.62 z " fill-rule="evenodd" fill="rgb(255,0,0)" stroke-width="5" stroke="rgb(0,0,0)" />
	<path d="M2900,6766.62 3047.87,6852 2900,6852 2900,6766.62 z " fill-rule="evenodd" fill="rgb(255,0,0)" stroke-width="5" stroke="rgb(0,0,0)" />
	<path d="M1028,6766.62 1338,6945.62 1338,6952 1028,6952 1028,6766.62 z " fill-rule="evenodd" fill="rgb(255,0,0)" stroke-width="5" stroke="rgb(0,0,0)" />
	<path d="M404,6766.62 714,6945.62 714,6952 404,6952 404,6766.62 z " fill-rule="evenodd" fill="rgb(255,0,0)" stroke-width="5" stroke="rgb(0,0,0)" />
	<path d="M404,2836.21 604.522,2952 404,2952 404,2836.21 z " fill-rule="evenodd" fill="rgb(255,0,0)" stroke-width="5" stroke="rgb(0,0,0)" />
	<path d="M714,3370.21 404,3191.21 404,3152 714,3152 714,3370.21 z " fill-rule="evenodd" fill="rgb(255,0,0)" stroke-width="5" stroke="rgb(0,0,0)" />
	<path d="M1028,2836.21 1228.52,2952 1028,2952 1028,2836.21 z " fill-rule="evenodd" fill="rgb(255,0,0)" stroke-width="5" stroke="rgb(0,0,0)" />
	<path d="M1338,3370.21 1028,3191.21 1028,3152 1338,3152 1338,3370.21 z " fill-rule="evenodd" fill="rgb(255,0,0)" stroke-width="5" stroke="rgb(0,0,0)" />
	<path d="M1652,2836.21 1852.52,2952 1652,2952 1652,2836.21 z " fill-rule="evenodd" fill="rgb(255,0,0)" stroke-width="5" stroke="rgb(0,0,0)" />
	<path d="M1962,3370.21 1652,3191.21 1652,3152 1962,3152 1962,3370.21 z " fill-rule="evenodd" fill="rgb(255,0,0)" stroke-width="5" stroke="rgb(0,0,0)" />
	<path d="M2900,2836.21 3100.52,2952 2900,2952 2900,2836.21 z " fill-rule="evenodd" fill="rgb(255,0,0)" stroke-width="5" stroke="rgb(0,0,0)" />
	<path d="M404,2833.91 404,2478.91 714,2657.91 714,2952 608.522,2952 404,2833.91 z " fill-rule="evenodd" fill="rgb(255,0,0)" stroke-width="5" stroke="rgb(0,0,0)" />
	<path d="M1028,2833.91 1028,2478.91 1338,2657.91 1338,2952 1232.52,2952 1028,2833.91 z " fill-rule="evenodd" fill="rgb(255,0,0)" stroke-width="5" stroke="rgb(0,0,0)" />
	<path d="M1652,2833.91 1652,2478.91 1962,2657.91 1962,2952 1856.52,2952 1652,2833.91 z " fill-rule="evenodd" fill="rgb(255,0,0)" stroke-width="5" stroke="rgb(0,0,0)" />
	<path d="M2900,2833.91 2900,2478.91 3210,2657.91 3210,2952 3104.52,2952 2900,2833.91 z " fill-rule="evenodd" fill="rgb(255,0,0)" stroke-width="5" stroke="rgb(0,0,0)" />
	<path d="M3524,2833.91 3524,2478.91 3834,2657.91 3834,2952 3728.52,2952 3524,2833.91 z " fill-rule="evenodd" fill="rgb(255,0,0)" stroke-width="5" stroke="rgb(0,0,0)" />
	<path d="M3524,2836.21 3724.52,2952 3524,2952 3524,2836.21 z " fill-rule="evenodd" fill="rgb(255,0,0)" stroke-width="5" stroke="rgb(0,0,0)" />
	<path d="M3834,3370.21 3700,3292.84 3700,3052 3834,3052 3834,3370.21 z " fill-rule="evenodd" fill="rgb(255,0,0)" stroke-width="5" stroke="rgb(0,0,0)" />
	<path d="M3834,3372.52 3834,3727.52 3700,3650.15 3700,3295.15 3834,3372.52 z " fill-rule="evenodd" fill="rgb(255,0,0)" stroke-width="5" stroke="rgb(0,0,0)" />
	<path d="M4148,2836.21 4458,3015.21 4458,3370.21 4148,3191.21 4148,3052 4200,3052 4200,2952 4148,2952 4148,2836.21 z " fill-rule="evenodd" fill="rgb(255,0,0)" stroke-width="5" stroke="rgb(0,0,0)" />
	<path d="M3834,3729.83 3834,4084.83 3700,4007.46 3700,3652.46 3834,3729.83 z " fill-rule="evenodd" fill="rgb(255,0,0)" stroke-width="5" stroke="rgb(0,0,0)" />
	<path d="M4772,2833.91 4772,2478.91 5082,2657.91 5082,3012.91 5050,2994.43 5050,2952 4976.52,2952 4772,2833.91 z " fill-rule="evenodd" fill="rgb(255,0,0)" stroke-width="5" stroke="rgb(0,0,0)" />
	<path d="M4772,3191.21 4772,2836.21 4972.52,2952 4900,2952 4900,3052 4950,3052 4950,3294 4772,3191.21 z " fill-rule="evenodd" fill="rgb(255,0,0)" stroke-width="5" stroke="rgb(0,0,0)" />
	<path d="M5082,3015.21 5082,3370.21 5050,3351.74 5050,2996.74 5082,3015.21 z " fill-rule="evenodd" fill="rgb(255,0,0)" stroke-width="5" stroke="rgb(0,0,0)" />
	<path d="M4772,3548.52 4772,3193.52 4950,3296.3 4950,3651.3 4772,3548.52 z " fill-rule="evenodd" fill="rgb(255,0,0)" stroke-width="5" stroke="rgb(0,0,0)" />
	<path d="M5082,3372.52 5082,3727.52 5050,3709.05 5050,3354.05 5082,3372.52 z " fill-rule="evenodd" fill="rgb(255,0,0)" stroke-width="5" stroke="rgb(0,0,0)" />
	<path d="M4772,3905.83 4772,3550.83 4950,3653.61 4950,4008.61 4772,3905.83 z " fill-rule="evenodd" fill="rgb(255,0,0)" stroke-width="5" stroke="rgb(0,0,0)" />
	<path d="M5082,3729.83 5082,4084.83 5050,4066.36 5050,3711.36 5082,3729.83 z " fill-rule="evenodd" fill="rgb(255,0,0)" stroke-width="5" stroke="rgb(0,0,0)" />
	<path d="M3834,4087.14 3834,4442.14 3700,4364.77 3700,4009.77 3834,4087.14 z " fill-rule="evenodd" fill="rgb(255,0,0)" stroke-width="5" stroke="rgb(0,0,0)" />
	<path d="M4772,4263.14 4772,3908.14 4950,4010.92 4950,4365.92 4772,4263.14 z " fill-rule="evenodd" fill="rgb(255,0,0)" stroke-width="5" stroke="rgb(0,0,0)" />
	<path d="M5082,4087.14 5082,4442.14 5050,4423.67 5050,4068.67 5082,4087.14 z " fill-rule="evenodd" fill="rgb(255,0,0)" stroke-width="5" stroke="rgb(0,0,0)" />
	<path d="M714,1585.98 714,1940.98 404,1761.98 404,1602 700,1602 700,1577.89 714,1585.98 z " fill-rule="evenodd" fill="rgb(255,0,0)" stroke-width="5" stroke="rgb(0,0,0)" />
	<path d="M1338,1585.98 1338,1940.98 1028,1761.98 1028,1502 1192.57,1502 1338,1585.98 z " fill-rule="evenodd" fill="rgb(255,0,0)" stroke-width="5" stroke="rgb(0,0,0)" />
	<path d="M1962,1940.98 1652,1761.98 1652,1602 1962,1602 1962,1940.98 z " fill-rule="evenodd" fill="rgb(255,0,0)" stroke-width="5" stroke="rgb(0,0,0)" />
	<path d="M3210,1585.98 3210,1940.98 2900,1761.98 2900,1406.98 3064.57,1502 2950,1502 2950,1602 3147,1602 3164.22,1559.54 3210,1585.98 z " fill-rule="evenodd" fill="rgb(255,0,0)" stroke-width="5" stroke="rgb(0,0,0)" />
	<path d="M5706,1585.98 5706,1940.98 5396,1761.98 5396,1418.07 5460.7,1444.34 5706,1585.98 z " fill-rule="evenodd" fill="rgb(255,0,0)" stroke-width="5" stroke="rgb(0,0,0)" />
	<path d="M3834,4444.45 3834,4799.45 3700,4722.08 3700,4367.08 3834,4444.45 z " fill-rule="evenodd" fill="rgb(255,0,0)" stroke-width="5" stroke="rgb(0,0,0)" />
	<path d="M4772,4620.45 4772,4265.45 4950,4368.23 4950,4723.23 4772,4620.45 z " fill-rule="evenodd" fill="rgb(255,0,0)" stroke-width="5" stroke="rgb(0,0,0)" />
	<path d="M5082,4444.45 5082,4799.45 5050,4780.98 5050,4425.98 5082,4444.45 z " fill-rule="evenodd" fill="rgb(255,0,0)" stroke-width="5" stroke="rgb(0,0,0)" />
	<path d="M714,1583.67 700,1575.58 700,1502 714,1502 714,1583.67 z " fill-rule="evenodd" fill="rgb(255,0,0)" stroke-width="5" stroke="rgb(0,0,0)" />
	<path d="M1338,1583.67 1196.56,1502 1338,1502 1338,1583.67 z " fill-rule="evenodd" fill="rgb(255,0,0)" stroke-width="5" stroke="rgb(0,0,0)" />
	<path d="M2900,1404.67 2900,1049.67 3194.51,1219.73 3080,1502 3068.56,1502 2900,1404.67 z " fill-rule="evenodd" fill="rgb(255,0,0)" stroke-width="5" stroke="rgb(0,0,0)" />
	<path d="M3210,1583.67 3164.98,1557.67 3210,1446.64 3210,1583.67 z " fill-rule="evenodd" fill="rgb(255,0,0)" stroke-width="5" stroke="rgb(0,0,0)" />
	<path d="M5082,1583.67 4772,1404.67 4772,1164.7 5082,1290.57 5082,1583.67 z " fill-rule="evenodd" fill="rgb(255,0,0)" stroke-width="5" stroke="rgb(0,0,0)" />
	<path d="M5706,1583.67 5474.18,1449.81 5706,1543.94 5706,1583.67 z " fill-rule="evenodd" fill="rgb(255,0,0)" stroke-width="5" stroke="rgb(0,0,0)" />
	<path d="M6330,1940.98 6020,1761.98 6020,1671.43 6330,1797.3 6330,1940.98 z " fill-rule="evenodd" fill="rgb(255,0,0)" stroke-width="5" stroke="rgb(0,0,0)" />
	<path d="M3834,4801.76 3834,4952 3700,4952 3700,4724.39 3834,4801.76 z " fill-rule="evenodd" fill="rgb(255,0,0)" stroke-width="5" stroke="rgb(0,0,0)" />
	<path d="M4148,4622.76 4458,4801.76 4458,4952 4148,4952 4148,4622.76 z " fill-rule="evenodd" fill="rgb(255,0,0)" stroke-width="5" stroke="rgb(0,0,0)" />
	<path d="M4772,4622.76 4950,4725.54 4950,4952 4772,4952 4772,4622.76 z " fill-rule="evenodd" fill="rgb(255,0,0)" stroke-width="5" stroke="rgb(0,0,0)" />
	<path d="M5082,4801.76 5082,5156.76 5050,5138.28 5050,4783.28 5082,4801.76 z " fill-rule="evenodd" fill="rgb(255,0,0)" stroke-width="5" stroke="rgb(0,0,0)" />
	<path d="M2900,1047.36 2900,692.358 3210,871.358 3210,1181.55 3195.27,1217.85 2900,1047.36 z " fill-rule="evenodd" fill="rgb(255,0,0)" stroke-width="5" stroke="rgb(0,0,0)" />
	<path d="M4458,1226.36 4148,1047.36 4148,911.335 4458,1037.21 4458,1226.36 z " fill-rule="evenodd" fill="rgb(255,0,0)" stroke-width="5" stroke="rgb(0,0,0)" />
	<path d="M6954,2298.29 6644,2119.29 6644,1924.8 6954,2050.67 6954,2298.29 z " fill-rule="evenodd" fill="rgb(255,0,0)" stroke-width="5" stroke="rgb(0,0,0)" />
	<path d="M5082,5159.07 5082,5514.07 5050,5495.59 5050,5140.59 5082,5159.07 z " fill-rule="evenodd" fill="rgb(255,0,0)" stroke-width="5" stroke="rgb(0,0,0)" />
	<path d="M3210,869.048 2900,690.048 2900,404.196 3210,529.93 3210,869.048 z " fill-rule="evenodd" fill="rgb(255,0,0)" stroke-width="5" stroke="rgb(0,0,0)" />
	<path d="M3834,869.048 3524,690.048 3524,672.33 3529,660 3834,783.84 3834,869.048 z " fill-rule="evenodd" fill="rgb(255,0,0)" stroke-width="5" stroke="rgb(0,0,0)" />
	<path d="M7578,2655.6 7268,2476.6 7268,2178.16 7578,2304.03 7578,2655.6 z " fill-rule="evenodd" fill="rgb(255,0,0)" stroke-width="5" stroke="rgb(0,0,0)" />
	<path d="M5082,5516.38 5082,5552 5050,5552 5050,5497.9 5082,5516.38 z " fill-rule="evenodd" fill="rgb(255,0,0)" stroke-width="5" stroke="rgb(0,0,0)" />
	<path d="M5396,5337.38 5706,5516.38 5706,5552 5396,5552 5396,5337.38 z " fill-rule="evenodd" fill="rgb(255,0,0)" stroke-width="5" stroke="rgb(0,0,0)" />
	<path d="M6020,5337.38 6330,5516.38 6330,5552 6020,5552 6020,5337.38 z " fill-rule="evenodd" fill="rgb(255,0,0)" stroke-width="5" stroke="rgb(0,0,0)" />
	<path d="M6644,5337.38 6954,5516.38 6954,5552 6644,5552 6644,5337.38 z " fill-rule="evenodd" fill="rgb(255,0,0)" stroke-width="5" stroke="rgb(0,0,0)" />
	<path d="M7268,5337.38 7578,5516.38 7578,5552 7268,5552 7268,5337.38 z " fill-rule="evenodd" fill="rgb(255,0,0)" stroke-width="5" stroke="rgb(0,0,0)" />
	<path d="M2586,511.739 2276,332.739 2276,151.105 2586,276.839 2586,511.739 z " fill-rule="evenodd" fill="rgb(255,0,0)" stroke-width="5" stroke="rgb(0,0,0)" />
	<path d="M8202,2655.6 7892,2476.6 7892,2431.53 8202,2557.4 8202,2655.6 z " fill-rule="evenodd" fill="rgb(255,0,0)" stroke-width="5" stroke="rgb(0,0,0)" />
	<path d="M7892,5337.38 8202,5516.38 8202,5552 7892,5552 7892,5337.38 z " fill-rule="evenodd" fill="rgb(255,0,0)" stroke-width="5" stroke="rgb(0,0,0)" />
	<path d="M8516,2833.91 8516,2684.89 8600,2719 8600,2882.41 8516,2833.91 z " fill-rule="evenodd" fill="rgb(255,0,0)" stroke-width="5" stroke="rgb(0,0,0)" />
	<path d="M8516,3191.21 8516,2836.21 8600,2884.72 8600,3239.72 8516,3191.21 z " fill-rule="evenodd" fill="rgb(255,0,0)" stroke-width="5" stroke="rgb(0,0,0)" />
	<path d="M8516,3548.52 8516,3193.52 8600,3242.03 8600,3597.03 8516,3548.52 z " fill-rule="evenodd" fill="rgb(255,0,0)" stroke-width="5" stroke="rgb(0,0,0)" />
	<path d="M8516,3905.83 8516,3550.83 8600,3599.34 8600,3954.34 8516,3905.83 z " fill-rule="evenodd" fill="rgb(255,0,0)" stroke-width="5" stroke="rgb(0,0,0)" />
	<path d="M8516,4263.14 8516,3908.14 8600,3956.65 8600,4311.65 8516,4263.14 z " fill-rule="evenodd" fill="rgb(255,0,0)" stroke-width="5" stroke="rgb(0,0,0)" />
	<path d="M8516,4620.45 8516,4265.45 8600,4313.96 8600,4668.96 8516,4620.45 z " fill-rule="evenodd" fill="rgb(255,0,0)" stroke-width="5" stroke="rgb(0,0,0)" />
	<path d="M8516,4977.76 8516,4622.76 8600,4671.27 8600,5026.27 8516,4977.76 z " fill-rule="evenodd" fill="rgb(255,0,0)" stroke-width="5" stroke="rgb(0,0,0)" />
	<path d="M8516,5335.07 8516,4980.07 8600,5028.57 8600,5383.57 8516,5335.07 z " fill-rule="evenodd" fill="rgb(255,0,0)" stroke-width="5" stroke="rgb(0,0,0)" />
	<path d="M8516,5337.38 8600,5385.88 8600,5552 8516,5552 8516,5337.38 z " fill-rule="evenodd" fill="rgb(255,0,0)" stroke-width="5" stroke="rgb(0,0,0)" />
	<path d="M1650,6952 1340,6952 1340,6945.62 1650,6766.62 1650,6952 z " fill-rule="evenodd" fill="rgb(255,0,0)" stroke-width="5" stroke="rgb(0,0,0)" />
	<path d="M2274,6952 1964,6952 1964,6945.62 2274,6766.62 2274,6952 z " fill-rule="evenodd" fill="rgb(255,0,0)" stroke-width="5" stroke="rgb(0,0,0)" />
	<path d="M2898,6952 2588,6952 2588,6945.62 2898,6766.62 2898,6952 z " fill-rule="evenodd" fill="rgb(255,0,0)" stroke-width="5" stroke="rgb(0,0,0)" />
	<path d="M1026,6952 716,6952 716,6945.62 1026,6766.62 1026,6952 z " fill-rule="evenodd" fill="rgb(255,0,0)" stroke-width="5" stroke="rgb(0,0,0)" />
	<path d="M402,4977.76 100,5152.14 100,4797.14 402,4622.76 402,4977.76 z " fill-rule="evenodd" fill="rgb(255,0,0)" stroke-width="5" stroke="rgb(0,0,0)" />
	<path d="M402,5335.07 100,5509.45 100,5154.45 402,4980.07 402,5335.07 z " fill-rule="evenodd" fill="rgb(255,0,0)" stroke-width="5" stroke="rgb(0,0,0)" />
	<path d="M402,5692.38 100,5866.76 100,5511.76 402,5337.38 402,5692.38 z " fill-rule="evenodd" fill="rgb(255,0,0)" stroke-width="5" stroke="rgb(0,0,0)" />
	<path d="M402,6049.69 100,6224.07 100,5869.07 402,5694.69 402,6049.69 z " fill-rule="evenodd" fill="rgb(255,0,0)" stroke-width="5" stroke="rgb(0,0,0)" />
	<path d="M402,6407 100,6581.38 100,6226.38 402,6052 402,6407 z " fill-rule="evenodd" fill="rgb(255,0,0)" stroke-width="5" stroke="rgb(0,0,0)" />
	<path d="M402,6764.31 100,6938.69 100,6583.69 402,6409.31 402,6764.31 z " fill-rule="evenodd" fill="rgb(255,0,0)" stroke-width="5" stroke="rgb(0,0,0)" />
	<path d="M402,6952 100,6952 100,6941 402,6766.62 402,6952 z " fill-rule="evenodd" fill="rgb(255,0,0)" stroke-width="5" stroke="rgb(0,0,0)" />
	<path d="M402,4620.45 100,4794.83 100,4439.83 402,4265.45 402,4620.45 z " fill-rule="evenodd" fill="rgb(255,0,0)" stroke-width="5" stroke="rgb(0,0,0)" />
	<path d="M402,4263.14 100,4437.52 100,4082.52 402,3908.14 402,4263.14 z " fill-rule="evenodd" fill="rgb(255,0,0)" stroke-width="5" stroke="rgb(0,0,0)" />
	<path d="M402,3905.83 100,4080.21 100,3725.21 402,3550.83 402,3905.83 z " fill-rule="evenodd" fill="rgb(255,0,0)" stroke-width="5" stroke="rgb(0,0,0)" />
	<path d="M402,3548.52 100,3722.9 100,3367.9 402,3193.52 402,3548.52 z " fill-rule="evenodd" fill="rgb(255,0,0)" stroke-width="5" stroke="rgb(0,0,0)" />
	<path d="M402,2952 201.478,2952 402,2836.21 402,2952 z " fill-rule="evenodd" fill="rgb(255,0,0)" stroke-width="5" stroke="rgb(0,0,0)" />
	<path d="M402,3191.21 100,3365.6 100,3152 402,3152 402,3191.21 z " fill-rule="evenodd" fill="rgb(255,0,0)" stroke-width="5" stroke="rgb(0,0,0)" />
	<path d="M1026,2952 825.478,2952 1026,2836.21 1026,2952 z " fill-rule="evenodd" fill="rgb(255,0,0)" stroke-width="5" stroke="rgb(0,0,0)" />
	<path d="M1026,3191.21 716,3370.21 716,3152 1026,3152 1026,3191.21 z " fill-rule="evenodd" fill="rgb(255,0,0)" stroke-width="5" stroke="rgb(0,0,0)" />
	<path d="M1650,2952 1449.48,2952 1650,2836.21 1650,2952 z " fill-rule="evenodd" fill="rgb(255,0,0)" stroke-width="5" stroke="rgb(0,0,0)" />
	<path d="M1650,3191.21 1340,3370.21 1340,3152 1650,3152 1650,3191.21 z " fill-rule="evenodd" fill="rgb(255,0,0)" stroke-width="5" stroke="rgb(0,0,0)" />
	<path d="M2274,3191.21 1964,3370.21 1964,3152 2050,3152 2050,2965.56 2274,2836.21 2274,3191.21 z " fill-rule="evenodd" fill="rgb(255,0,0)" stroke-width="5" stroke="rgb(0,0,0)" />
	<path d="M2898,2952 2850,2952 2850,3152 2898,3152 2898,3191.21 2588,3370.21 2588,3015.21 2898,2836.21 2898,2952 z " fill-rule="evenodd" fill="rgb(255,0,0)" stroke-width="5" stroke="rgb(0,0,0)" />
	<path d="M3522,2952 3321.48,2952 3522,2836.21 3522,2952 z " fill-rule="evenodd" fill="rgb(255,0,0)" stroke-width="5" stroke="rgb(0,0,0)" />
	<path d="M402,2833.91 197.478,2952 100,2952 100,2653.29 402,2478.91 402,2833.91 z " fill-rule="evenodd" fill="rgb(255,0,0)" stroke-width="5" stroke="rgb(0,0,0)" />
	<path d="M1026,2833.91 821.478,2952 716,2952 716,2657.91 1026,2478.91 1026,2833.91 z " fill-rule="evenodd" fill="rgb(255,0,0)" stroke-width="5" stroke="rgb(0,0,0)" />
	<path d="M1650,2833.91 1445.48,2952 1340,2952 1340,2657.91 1650,2478.91 1650,2833.91 z " fill-rule="evenodd" fill="rgb(255,0,0)" stroke-width="5" stroke="rgb(0,0,0)" />
	<path d="M2274,2833.91 2050,2963.25 2050,2952 1964,2952 1964,2657.91 2274,2478.91 2274,2833.91 z " fill-rule="evenodd" fill="rgb(255,0,0)" stroke-width="5" stroke="rgb(0,0,0)" />
	<path d="M3522,2833.91 3317.48,2952 3212,2952 3212,2657.91 3522,2478.91 3522,2833.91 z " fill-rule="evenodd" fill="rgb(255,0,0)" stroke-width="5" stroke="rgb(0,0,0)" />
	<path d="M4146,2833.91 3941.48,2952 3836,2952 3836,2657.91 4146,2478.91 4146,2833.91 z " fill-rule="evenodd" fill="rgb(255,0,0)" stroke-width="5" stroke="rgb(0,0,0)" />
	<path d="M4146,2952 3945.48,2952 4146,2836.21 4146,2952 z " fill-rule="evenodd" fill="rgb(255,0,0)" stroke-width="5" stroke="rgb(0,0,0)" />
	<path d="M4146,3191.21 3836,3370.21 3836,3052 4146,3052 4146,3191.21 z " fill-rule="evenodd" fill="rgb(255,0,0)" stroke-width="5" stroke="rgb(0,0,0)" />
	<path d="M402,2476.6 100,2650.98 100,2295.98 402,2121.6 402,2476.6 z " fill-rule="evenodd" fill="rgb(255,0,0)" stroke-width="5" stroke="rgb(0,0,0)" />
	<path d="M402,2119.29 100,2293.67 100,1938.67 402,1764.29 402,2119.29 z " fill-rule="evenodd" fill="rgb(255,0,0)" stroke-width="5" stroke="rgb(0,0,0)" />
	<path d="M402,1761.98 100,1936.36 100,1602 402,1602 402,1761.98 z " fill-rule="evenodd" fill="rgb(255,0,0)" stroke-width="5" stroke="rgb(0,0,0)" />
	<path d="M1026,1761.98 716,1940.98 716,1585.98 861.435,1502 1026,1502 1026,1761.98 z " fill-rule="evenodd" fill="rgb(255,0,0)" stroke-width="5" stroke="rgb(0,0,0)" />
	<path d="M1650,1761.98 1340,1940.98 1340,1585.98 1400,1551.33 1400,1602 1650,1602 1650,1761.98 z " fill-rule="evenodd" fill="rgb(255,0,0)" stroke-width="5" stroke="rgb(0,0,0)" />
	<path d="M2274,1761.98 1964,1940.98 1964,1602 2150,1602 2150,1478.58 2274,1406.98 2274,1761.98 z " fill-rule="evenodd" fill="rgb(255,0,0)" stroke-width="5" stroke="rgb(0,0,0)" />
	<path d="M5394,1761.98 5084,1940.98 5084,1585.98 5383.55,1413.01 5394,1417.25 5394,1761.98 z " fill-rule="evenodd" fill="rgb(255,0,0)" stroke-width="5" stroke="rgb(0,0,0)" />
	<path d="M6018,1761.98 5708,1940.98 5708,1585.98 5749.92,1561.77 6018,1670.62 6018,1761.98 z " fill-rule="evenodd" fill="rgb(255,0,0)" stroke-width="5" stroke="rgb(0,0,0)" />
	<path d="M716,1583.67 716,1502 857.435,1502 716,1583.67 z " fill-rule="evenodd" fill="rgb(255,0,0)" stroke-width="5" stroke="rgb(0,0,0)" />
	<path d="M1340,1583.67 1340,1502 1400,1502 1400,1549.02 1340,1583.67 z " fill-rule="evenodd" fill="rgb(255,0,0)" stroke-width="5" stroke="rgb(0,0,0)" />
	<path d="M2274,1404.67 2150,1476.27 2150,1121.27 2274,1049.67 2274,1404.67 z " fill-rule="evenodd" fill="rgb(255,0,0)" stroke-width="5" stroke="rgb(0,0,0)" />
	<path d="M3522,1404.67 3212,1583.67 3212,1441.71 3324.81,1163.53 3522,1049.67 3522,1404.67 z " fill-rule="evenodd" fill="rgb(255,0,0)" stroke-width="5" stroke="rgb(0,0,0)" />
	<path d="M4770,1404.67 4460,1583.67 4460,1228.67 4653.86,1116.73 4770,1163.89 4770,1404.67 z " fill-rule="evenodd" fill="rgb(255,0,0)" stroke-width="5" stroke="rgb(0,0,0)" />
	<path d="M5084,1583.67 5084,1291.38 5381.2,1412.06 5084,1583.67 z " fill-rule="evenodd" fill="rgb(255,0,0)" stroke-width="5" stroke="rgb(0,0,0)" />
	<path d="M5708,1583.67 5708,1544.75 5747.57,1560.82 5708,1583.67 z " fill-rule="evenodd" fill="rgb(255,0,0)" stroke-width="5" stroke="rgb(0,0,0)" />
	<path d="M6332,1940.98 6332,1798.11 6477.27,1857.1 6332,1940.98 z " fill-rule="evenodd" fill="rgb(255,0,0)" stroke-width="5" stroke="rgb(0,0,0)" />
	<path d="M6642,2119.29 6332,2298.29 6332,1943.29 6479.61,1858.05 6642,1923.98 6642,2119.29 z " fill-rule="evenodd" fill="rgb(255,0,0)" stroke-width="5" stroke="rgb(0,0,0)" />
	<path d="M4146,4952 3836,4952 3836,4801.76 4146,4622.76 4146,4952 z " fill-rule="evenodd" fill="rgb(255,0,0)" stroke-width="5" stroke="rgb(0,0,0)" />
	<path d="M4770,4952 4460,4952 4460,4801.76 4770,4622.76 4770,4952 z " fill-rule="evenodd" fill="rgb(255,0,0)" stroke-width="5" stroke="rgb(0,0,0)" />
	<path d="M2274,1047.36 2150,1118.96 2150,763.958 2274,692.358 2274,1047.36 z " fill-rule="evenodd" fill="rgb(255,0,0)" stroke-width="5" stroke="rgb(0,0,0)" />
	<path d="M3522,1047.36 3326.03,1160.51 3514.01,696.974 3522,692.358 3522,1047.36 z " fill-rule="evenodd" fill="rgb(255,0,0)" stroke-width="5" stroke="rgb(0,0,0)" />
	<path d="M3212,871.358 3373.72,777.976 3212,1176.62 3212,871.358 z " fill-rule="evenodd" fill="rgb(255,0,0)" stroke-width="5" stroke="rgb(0,0,0)" />
	<path d="M4146,1047.36 3836,1226.36 3836,871.358 3924.16,820.45 4146,910.523 4146,1047.36 z " fill-rule="evenodd" fill="rgb(255,0,0)" stroke-width="5" stroke="rgb(0,0,0)" />
	<path d="M4460,1226.36 4460,1038.02 4651.51,1115.78 4460,1226.36 z " fill-rule="evenodd" fill="rgb(255,0,0)" stroke-width="5" stroke="rgb(0,0,0)" />
	<path d="M6956,2298.29 6956,2051.48 7206.96,2153.38 6956,2298.29 z " fill-rule="evenodd" fill="rgb(255,0,0)" stroke-width="5" stroke="rgb(0,0,0)" />
	<path d="M7266,2476.6 6956,2655.6 6956,2300.6 7209.31,2154.33 7266,2177.35 7266,2476.6 z " fill-rule="evenodd" fill="rgb(255,0,0)" stroke-width="5" stroke="rgb(0,0,0)" />
	<path d="M2274,690.048 2150,761.648 2150,406.648 2274,335.048 2274,690.048 z " fill-rule="evenodd" fill="rgb(255,0,0)" stroke-width="5" stroke="rgb(0,0,0)" />
	<path d="M2898,690.048 2588,869.048 2588,514.048 2828.48,375.189 2898,403.385 2898,690.048 z " fill-rule="evenodd" fill="rgb(255,0,0)" stroke-width="5" stroke="rgb(0,0,0)" />
	<path d="M3522,690.048 3515.23,693.958 3522,677.262 3522,690.048 z " fill-rule="evenodd" fill="rgb(255,0,0)" stroke-width="5" stroke="rgb(0,0,0)" />
	<path d="M3212,869.048 3212,530.741 3437,622 3374.95,774.96 3212,869.048 z " fill-rule="evenodd" fill="rgb(255,0,0)" stroke-width="5" stroke="rgb(0,0,0)" />
	<path d="M3836,869.048 3836,784.653 3921.82,819.497 3836,869.048 z " fill-rule="evenodd" fill="rgb(255,0,0)" stroke-width="5" stroke="rgb(0,0,0)" />
	<path d="M7890,2476.6 7580,2655.6 7580,2304.85 7890,2430.72 7890,2476.6 z " fill-rule="evenodd" fill="rgb(255,0,0)" stroke-width="5" stroke="rgb(0,0,0)" />
	<path d="M5394,5552 5084,5552 5084,5516.38 5394,5337.38 5394,5552 z " fill-rule="evenodd" fill="rgb(255,0,0)" stroke-width="5" stroke="rgb(0,0,0)" />
	<path d="M6018,5552 5708,5552 5708,5516.38 6018,5337.38 6018,5552 z " fill-rule="evenodd" fill="rgb(255,0,0)" stroke-width="5" stroke="rgb(0,0,0)" />
	<path d="M6642,5552 6332,5552 6332,5516.38 6642,5337.38 6642,5552 z " fill-rule="evenodd" fill="rgb(255,0,0)" stroke-width="5" stroke="rgb(0,0,0)" />
	<path d="M7266,5552 6956,5552 6956,5516.38 7266,5337.38 7266,5552 z " fill-rule="evenodd" fill="rgb(255,0,0)" stroke-width="5" stroke="rgb(0,0,0)" />
	<path d="M7890,5552 7580,5552 7580,5516.38 7890,5337.38 7890,5552 z " fill-rule="evenodd" fill="rgb(255,0,0)" stroke-width="5" stroke="rgb(0,0,0)" />
	<path d="M2274,332.739 2150,404.339 2150,100 2274,150.294 2274,332.739 z " fill-rule="evenodd" fill="rgb(255,0,0)" stroke-width="5" stroke="rgb(0,0,0)" />
	<path d="M2588,511.739 2588,277.65 2826.13,374.236 2588,511.739 z " fill-rule="evenodd" fill="rgb(255,0,0)" stroke-width="5" stroke="rgb(0,0,0)" />
	<path d="M8204,2655.6 8204,2558.21 8303.02,2598.42 8204,2655.6 z " fill-rule="evenodd" fill="rgb(255,0,0)" stroke-width="5" stroke="rgb(0,0,0)" />
	<path d="M8514,2833.91 8204,3012.91 8204,2657.91 8305.37,2599.37 8514,2684.08 8514,2833.91 z " fill-rule="evenodd" fill="rgb(255,0,0)" stroke-width="5" stroke="rgb(0,0,0)" />
	<path d="M8514,5552 8204,5552 8204,5516.38 8514,5337.38 8514,5552 z " fill-rule="evenodd" fill="rgb(255,0,0)" stroke-width="5" stroke="rgb(0,0,0)" />
	<polyline points="2895,6057 2895,6412 2895,6057 3250,6057 2895,6057 " fill="none" stroke-width="100" stroke="rgb(0,0,0)" />
	<circle cx="2895" cy="6057" r="-5.91667" fill="rgb(0,0,0)" />
	<circle cx="2895" cy="6412" r="-5.91667" fill="rgb(0,0,0)" />
	<circle cx="2895" cy="6057" r="-5.91667" fill="rgb(0,0,0)" />
	<circle cx="3250" cy="6057" r="-5.91667" fill="rgb(0,0,0)" />
	<circle cx="2895" cy="6057" r="-5.91667" fill="rgb(0,0,0)" />
	<polyline points="2895,6447.5 2895,6057 2504.5,6057 " fill="none" stroke-width="0.5" stroke="rgb(128,0,128)" />
</svg>
