<?xml version="1.0" standalone="no" ?>
<!DOCTYPE svg PUBLIC "-//W3C//DTD SVG 1.1//EN" "http://www.w3.org/Graphics/SVG/1.1/DTD/svg11.dtd">
<svg width="8700px" height="7052px" xmlns="http://www.w3.org/2000/svg" version="1.1" >
	<path d="M3529,660 3529,1015 3839,1194 3839,839 3529,660 z " fill-rule="evenodd" fill="rgb(0,128,0)" stroke-width="5" stroke="rgb(0,0,0)" />
	<path d="M3529,1017.31 3529,1372.31 3839,1551.31 3839,1196.31 3529,1017.31 z " fill-rule="evenodd" fill="rgb(0,128,0)" stroke-width="5" stroke="rgb(0,0,0)" />
	<path d="M4153,1017.31 4153,1372.31 4463,1551.31 4463,1196.31 4153,1017.31 z " fill-rule="evenodd" fill="rgb(0,128,0)" stroke-width="5" stroke="rgb(0,0,0)" />
	<path d="M2281,302.691 2281,657.691 2591,836.691 2591,481.691 2281,302.691 z " fill-rule="evenodd" fill="rgb(0,128,0)" stroke-width="5" stroke="rgb(0,0,0)" />
	<path d="M2281,660 2281,1015 2591,1194 2591,839 2281,660 z " fill-rule="evenodd" fill="rgb(0,128,0)" stroke-width="5" stroke="rgb(0,0,0)" />
	<path d="M2281,1017.31 2281,1372.31 2591,1551.31 2591,1196.31 2281,1017.31 z " fill-rule="evenodd" fill="rgb(0,128,0)" stroke-width="5" stroke="rgb(0,0,0)" />
	<path d="M2281,1374.62 2281,1729.62 2591,1908.62 2591,1553.62 2281,1374.62 z " fill-rule="evenodd" fill="rgb(0,128,0)" stroke-width="5" stroke="rgb(0,0,0)" />
	<path d="M3529,1374.62 3529,1729.62 3839,1908.62 3839,1553.62 3529,1374.62 z " fill-rule="evenodd" fill="rgb(0,128,0)" stroke-width="5" stroke="rgb(0,0,0)" />
	<path d="M4153,1374.62 4153,1729.62 4463,1908.62 4463,1553.62 4153,1374.62 z " fill-rule="evenodd" fill="rgb(0,128,0)" stroke-width="5" stroke="rgb(0,0,0)" />
	<path d="M4777,1374.62 4777,1729.62 5087,1908.62 5087,1553.62 4777,1374.62 z " fill-rule="evenodd" fill="rgb(0,128,0)" stroke-width="5" stroke="rgb(0,0,0)" />
	<path d="M1657,1731.93 1657,2086.93 1967,2265.93 1967,1910.93 1657,1731.93 z " fill-rule="evenodd" fill="rgb(0,128,0)" stroke-width="5" stroke="rgb(0,0,0)" />
	<path d="M2281,1731.93 2281,2086.93 2591,2265.93 2591,1910.93 2281,1731.93 z " fill-rule="evenodd" fill="rgb(0,128,0)" stroke-width="5" stroke="rgb(0,0,0)" />
	<path d="M2905,1731.93 2905,2086.93 3215,2265.93 3215,1910.93 2905,1731.93 z " fill-rule="evenodd" fill="rgb(0,128,0)" stroke-width="5" stroke="rgb(0,0,0)" />
	<path d="M3529,1731.93 3529,2086.93 3839,2265.93 3839,1910.93 3529,1731.93 z " fill-rule="evenodd" fill="rgb(0,128,0)" stroke-width="5" stroke="rgb(0,0,0)" />
	<path d="M4153,1731.93 4153,2086.93 4463,2265.93 4463,1910.93 4153,1731.93 z " fill-rule="evenodd" fill="rgb(0,128,0)" stroke-width="5" stroke="rgb(0,0,0)" />
	<path d="M4777,1731.93 4777,2086.93 5087,2265.93 5087,1910.93 4777,1731.93 z " fill-rule="evenodd" fill="rgb(0,128,0)" stroke-width="5" stroke="rgb(0,0,0)" />
	<path d="M5401,1731.93 5401,2086.93 5711,2265.93 5711,1910.93 5401,1731.93 z " fill-rule="evenodd" fill="rgb(0,128,0)" stroke-width="5" stroke="rgb(0,0,0)" />
	<path d="M1033,1731.93 1033,2086.93 1343,2265.93 1343,1910.93 1033,1731.93 z " fill-rule="evenodd" fill="rgb(0,128,0)" stroke-width="5" stroke="rgb(0,0,0)" />
	<path d="M6025,1731.93 6025,2086.93 6335,2265.93 6335,1910.93 6025,1731.93 z " fill-rule="evenodd" fill="rgb(0,128,0)" stroke-width="5" stroke="rgb(0,0,0)" />
	<path d="M1033,2089.24 1033,2444.24 1343,2623.24 1343,2268.24 1033,2089.24 z " fill-rule="evenodd" fill="rgb(0,128,0)" stroke-width="5" stroke="rgb(0,0,0)" />
	<path d="M1657,2089.24 1657,2444.24 1967,2623.24 1967,2268.24 1657,2089.24 z " fill-rule="evenodd" fill="rgb(0,128,0)" stroke-width="5" stroke="rgb(0,0,0)" />
	<path d="M2281,2089.24 2281,2444.24 2591,2623.24 2591,2268.24 2281,2089.24 z " fill-rule="evenodd" fill="rgb(0,128,0)" stroke-width="5" stroke="rgb(0,0,0)" />
	<path d="M2905,2089.24 2905,2444.24 3215,2623.24 3215,2268.24 2905,2089.24 z " fill-rule="evenodd" fill="rgb(0,128,0)" stroke-width="5" stroke="rgb(0,0,0)" />
	<path d="M3529,2089.24 3529,2444.24 3839,2623.24 3839,2268.24 3529,2089.24 z " fill-rule="evenodd" fill="rgb(0,128,0)" stroke-width="5" stroke="rgb(0,0,0)" />
	<path d="M4153,2089.24 4153,2444.24 4463,2623.24 4463,2268.24 4153,2089.24 z " fill-rule="evenodd" fill="rgb(0,128,0)" stroke-width="5" stroke="rgb(0,0,0)" />
	<path d="M4777,2089.24 4777,2444.24 5087,2623.24 5087,2268.24 4777,2089.24 z " fill-rule="evenodd" fill="rgb(0,128,0)" stroke-width="5" stroke="rgb(0,0,0)" />
	<path d="M5401,2089.24 5401,2444.24 5711,2623.24 5711,2268.24 5401,2089.24 z " fill-rule="evenodd" fill="rgb(0,128,0)" stroke-width="5" stroke="rgb(0,0,0)" />
	<path d="M6025,2089.24 6025,2444.24 6335,2623.24 6335,2268.24 6025,2089.24 z " fill-rule="evenodd" fill="rgb(0,128,0)" stroke-width="5" stroke="rgb(0,0,0)" />
	<path d="M409,1731.93 409,2086.93 719,2265.93 719,1910.93 409,1731.93 z " fill-rule="evenodd" fill="rgb(0,128,0)" stroke-width="5" stroke="rgb(0,0,0)" />
	<path d="M409,2089.24 409,2444.24 719,2623.24 719,2268.24 409,2089.24 z " fill-rule="evenodd" fill="rgb(0,128,0)" stroke-width="5" stroke="rgb(0,0,0)" />
	<path d="M6649,2089.24 6649,2444.24 6959,2623.24 6959,2268.24 6649,2089.24 z " fill-rule="evenodd" fill="rgb(0,128,0)" stroke-width="5" stroke="rgb(0,0,0)" />
	<path d="M2281,2446.55 2281,2801.55 2591,2980.55 2591,2625.55 2281,2446.55 z " fill-rule="evenodd" fill="rgb(0,128,0)" stroke-width="5" stroke="rgb(0,0,0)" />
	<path d="M4153,2446.55 4153,2801.55 4463,2980.55 4463,2625.55 4153,2446.55 z " fill-rule="evenodd" fill="rgb(0,128,0)" stroke-width="5" stroke="rgb(0,0,0)" />
	<path d="M5401,2446.55 5401,2801.55 5711,2980.55 5711,2625.55 5401,2446.55 z " fill-rule="evenodd" fill="rgb(0,128,0)" stroke-width="5" stroke="rgb(0,0,0)" />
	<path d="M6025,2446.55 6025,2801.55 6335,2980.55 6335,2625.55 6025,2446.55 z " fill-rule="evenodd" fill="rgb(0,128,0)" stroke-width="5" stroke="rgb(0,0,0)" />
	<path d="M6649,2446.55 6649,2801.55 6959,2980.55 6959,2625.55 6649,2446.55 z " fill-rule="evenodd" fill="rgb(0,128,0)" stroke-width="5" stroke="rgb(0,0,0)" />
	<path d="M7273,2446.55 7273,2801.55 7583,2980.55 7583,2625.55 7273,2446.55 z " fill-rule="evenodd" fill="rgb(0,128,0)" stroke-width="5" stroke="rgb(0,0,0)" />
	<path d="M2281,2803.86 2281,3158.86 2591,3337.86 2591,2982.86 2281,2803.86 z " fill-rule="evenodd" fill="rgb(0,128,0)" stroke-width="5" stroke="rgb(0,0,0)" />
	<path d="M5401,2803.86 5401,3158.86 5711,3337.86 5711,2982.86 5401,2803.86 z " fill-rule="evenodd" fill="rgb(0,128,0)" stroke-width="5" stroke="rgb(0,0,0)" />
	<path d="M6025,2803.86 6025,3158.86 6335,3337.86 6335,2982.86 6025,2803.86 z " fill-rule="evenodd" fill="rgb(0,128,0)" stroke-width="5" stroke="rgb(0,0,0)" />
	<path d="M6649,2803.86 6649,3158.86 6959,3337.86 6959,2982.86 6649,2803.86 z " fill-rule="evenodd" fill="rgb(0,128,0)" stroke-width="5" stroke="rgb(0,0,0)" />
	<path d="M7273,2803.86 7273,3158.86 7583,3337.86 7583,2982.86 7273,2803.86 z " fill-rule="evenodd" fill="rgb(0,128,0)" stroke-width="5" stroke="rgb(0,0,0)" />
	<path d="M7897,2446.55 7897,2801.55 8207,2980.55 8207,2625.55 7897,2446.55 z " fill-rule="evenodd" fill="rgb(0,128,0)" stroke-width="5" stroke="rgb(0,0,0)" />
	<path d="M7897,2803.86 7897,3158.86 8207,3337.86 8207,2982.86 7897,2803.86 z " fill-rule="evenodd" fill="rgb(0,128,0)" stroke-width="5" stroke="rgb(0,0,0)" />
	<path d="M409,3161.17 409,3516.17 719,3695.17 719,3340.17 409,3161.17 z " fill-rule="evenodd" fill="rgb(0,128,0)" stroke-width="5" stroke="rgb(0,0,0)" />
	<path d="M1033,3161.17 1033,3516.17 1343,3695.17 1343,3340.17 1033,3161.17 z " fill-rule="evenodd" fill="rgb(0,128,0)" stroke-width="5" stroke="rgb(0,0,0)" />
	<path d="M1657,3161.17 1657,3516.17 1967,3695.17 1967,3340.17 1657,3161.17 z " fill-rule="evenodd" fill="rgb(0,128,0)" stroke-width="5" stroke="rgb(0,0,0)" />
	<path d="M2281,3161.17 2281,3516.17 2591,3695.17 2591,3340.17 2281,3161.17 z " fill-rule="evenodd" fill="rgb(0,128,0)" stroke-width="5" stroke="rgb(0,0,0)" />
	<path d="M4153,3161.17 4153,3516.17 4463,3695.17 4463,3340.17 4153,3161.17 z " fill-rule="evenodd" fill="rgb(0,128,0)" stroke-width="5" stroke="rgb(0,0,0)" />
	<path d="M5401,3161.17 5401,3516.17 5711,3695.17 5711,3340.17 5401,3161.17 z " fill-rule="evenodd" fill="rgb(0,128,0)" stroke-width="5" stroke="rgb(0,0,0)" />
	<path d="M6025,3161.17 6025,3516.17 6335,3695.17 6335,3340.17 6025,3161.17 z " fill-rule="evenodd" fill="rgb(0,128,0)" stroke-width="5" stroke="rgb(0,0,0)" />
	<path d="M6649,3161.17 6649,3516.17 6959,3695.17 6959,3340.17 6649,3161.17 z " fill-rule="evenodd" fill="rgb(0,128,0)" stroke-width="5" stroke="rgb(0,0,0)" />
	<path d="M7273,3161.17 7273,3516.17 7583,3695.17 7583,3340.17 7273,3161.17 z " fill-rule="evenodd" fill="rgb(0,128,0)" stroke-width="5" stroke="rgb(0,0,0)" />
	<path d="M7897,3161.17 7897,3516.17 8207,3695.17 8207,3340.17 7897,3161.17 z " fill-rule="evenodd" fill="rgb(0,128,0)" stroke-width="5" stroke="rgb(0,0,0)" />
	<path d="M409,3518.48 409,3873.48 719,4052.48 719,3697.48 409,3518.48 z " fill-rule="evenodd" fill="rgb(0,128,0)" stroke-width="5" stroke="rgb(0,0,0)" />
	<path d="M1033,3518.48 1033,3873.48 1343,4052.48 1343,3697.48 1033,3518.48 z " fill-rule="evenodd" fill="rgb(0,128,0)" stroke-width="5" stroke="rgb(0,0,0)" />
	<path d="M1657,3518.48 1657,3873.48 1967,4052.48 1967,3697.48 1657,3518.48 z " fill-rule="evenodd" fill="rgb(0,128,0)" stroke-width="5" stroke="rgb(0,0,0)" />
	<path d="M2281,3518.48 2281,3873.48 2591,4052.48 2591,3697.48 2281,3518.48 z " fill-rule="evenodd" fill="rgb(0,128,0)" stroke-width="5" stroke="rgb(0,0,0)" />
	<path d="M4153,3518.48 4153,3873.48 4463,4052.48 4463,3697.48 4153,3518.48 z " fill-rule="evenodd" fill="rgb(0,128,0)" stroke-width="5" stroke="rgb(0,0,0)" />
	<path d="M5401,3518.48 5401,3873.48 5711,4052.48 5711,3697.48 5401,3518.48 z " fill-rule="evenodd" fill="rgb(0,128,0)" stroke-width="5" stroke="rgb(0,0,0)" />
	<path d="M6025,3518.48 6025,3873.48 6335,4052.48 6335,3697.48 6025,3518.48 z " fill-rule="evenodd" fill="rgb(0,128,0)" stroke-width="5" stroke="rgb(0,0,0)" />
	<path d="M6649,3518.48 6649,3873.48 6959,4052.48 6959,3697.48 6649,3518.48 z " fill-rule="evenodd" fill="rgb(0,128,0)" stroke-width="5" stroke="rgb(0,0,0)" />
	<path d="M7273,3518.48 7273,3873.48 7583,4052.48 7583,3697.48 7273,3518.48 z " fill-rule="evenodd" fill="rgb(0,128,0)" stroke-width="5" stroke="rgb(0,0,0)" />
	<path d="M7897,3518.48 7897,3873.48 8207,4052.48 8207,3697.48 7897,3518.48 z " fill-rule="evenodd" fill="rgb(0,128,0)" stroke-width="5" stroke="rgb(0,0,0)" />
	<path d="M409,3875.79 409,4230.79 719,4409.79 719,4054.79 409,3875.79 z " fill-rule="evenodd" fill="rgb(0,128,0)" stroke-width="5" stroke="rgb(0,0,0)" />
	<path d="M1033,3875.79 1033,4230.79 1343,4409.79 1343,4054.79 1033,3875.79 z " fill-rule="evenodd" fill="rgb(0,128,0)" stroke-width="5" stroke="rgb(0,0,0)" />
	<path d="M1657,3875.79 1657,4230.79 1967,4409.79 1967,4054.79 1657,3875.79 z " fill-rule="evenodd" fill="rgb(0,128,0)" stroke-width="5" stroke="rgb(0,0,0)" />
	<path d="M2281,3875.79 2281,4230.79 2591,4409.79 2591,4054.79 2281,3875.79 z " fill-rule="evenodd" fill="rgb(0,128,0)" stroke-width="5" stroke="rgb(0,0,0)" />
	<path d="M4153,3875.79 4153,4230.79 4463,4409.79 4463,4054.79 4153,3875.79 z " fill-rule="evenodd" fill="rgb(0,128,0)" stroke-width="5" stroke="rgb(0,0,0)" />
	<path d="M5401,3875.79 5401,4230.79 5711,4409.79 5711,4054.79 5401,3875.79 z " fill-rule="evenodd" fill="rgb(0,128,0)" stroke-width="5" stroke="rgb(0,0,0)" />
	<path d="M6025,3875.79 6025,4230.79 6335,4409.79 6335,4054.79 6025,3875.79 z " fill-rule="evenodd" fill="rgb(0,128,0)" stroke-width="5" stroke="rgb(0,0,0)" />
	<path d="M6649,3875.79 6649,4230.79 6959,4409.79 6959,4054.79 6649,3875.79 z " fill-rule="evenodd" fill="rgb(0,128,0)" stroke-width="5" stroke="rgb(0,0,0)" />
	<path d="M7273,3875.79 7273,4230.79 7583,4409.79 7583,4054.79 7273,3875.79 z " fill-rule="evenodd" fill="rgb(0,128,0)" stroke-width="5" stroke="rgb(0,0,0)" />
	<path d="M7897,3875.79 7897,4230.79 8207,4409.79 8207,4054.79 7897,3875.79 z " fill-rule="evenodd" fill="rgb(0,128,0)" stroke-width="5" stroke="rgb(0,0,0)" />
	<path d="M409,4233.09 409,4588.09 719,4767.09 719,4412.09 409,4233.09 z " fill-rule="evenodd" fill="rgb(0,128,0)" stroke-width="5" stroke="rgb(0,0,0)" />
	<path d="M1033,4233.09 1033,4588.09 1343,4767.09 1343,4412.09 1033,4233.09 z " fill-rule="evenodd" fill="rgb(0,128,0)" stroke-width="5" stroke="rgb(0,0,0)" />
	<path d="M1657,4233.09 1657,4588.09 1967,4767.09 1967,4412.09 1657,4233.09 z " fill-rule="evenodd" fill="rgb(0,128,0)" stroke-width="5" stroke="rgb(0,0,0)" />
	<path d="M2281,4233.09 2281,4588.09 2591,4767.09 2591,4412.09 2281,4233.09 z " fill-rule="evenodd" fill="rgb(0,128,0)" stroke-width="5" stroke="rgb(0,0,0)" />
	<path d="M4153,4233.09 4153,4588.09 4463,4767.09 4463,4412.09 4153,4233.09 z " fill-rule="evenodd" fill="rgb(0,128,0)" stroke-width="5" stroke="rgb(0,0,0)" />
	<path d="M5401,4233.09 5401,4588.09 5711,4767.09 5711,4412.09 5401,4233.09 z " fill-rule="evenodd" fill="rgb(0,128,0)" stroke-width="5" stroke="rgb(0,0,0)" />
	<path d="M6025,4233.09 6025,4588.09 6335,4767.09 6335,4412.09 6025,4233.09 z " fill-rule="evenodd" fill="rgb(0,128,0)" stroke-width="5" stroke="rgb(0,0,0)" />
	<path d="M6649,4233.09 6649,4588.09 6959,4767.09 6959,4412.09 6649,4233.09 z " fill-rule="evenodd" fill="rgb(0,128,0)" stroke-width="5" stroke="rgb(0,0,0)" />
	<path d="M7273,4233.09 7273,4588.09 7583,4767.09 7583,4412.09 7273,4233.09 z " fill-rule="evenodd" fill="rgb(0,128,0)" stroke-width="5" stroke="rgb(0,0,0)" />
	<path d="M7897,4233.09 7897,4588.09 8207,4767.09 8207,4412.09 7897,4233.09 z " fill-rule="evenodd" fill="rgb(0,128,0)" stroke-width="5" stroke="rgb(0,0,0)" />
	<path d="M409,4590.4 409,4945.4 719,5124.4 719,4769.4 409,4590.4 z " fill-rule="evenodd" fill="rgb(0,128,0)" stroke-width="5" stroke="rgb(0,0,0)" />
	<path d="M1033,4590.4 1033,4945.4 1343,5124.4 1343,4769.4 1033,4590.4 z " fill-rule="evenodd" fill="rgb(0,128,0)" stroke-width="5" stroke="rgb(0,0,0)" />
	<path d="M1657,4590.4 1657,4945.4 1967,5124.4 1967,4769.4 1657,4590.4 z " fill-rule="evenodd" fill="rgb(0,128,0)" stroke-width="5" stroke="rgb(0,0,0)" />
	<path d="M2281,4590.4 2281,4945.4 2591,5124.4 2591,4769.4 2281,4590.4 z " fill-rule="evenodd" fill="rgb(0,128,0)" stroke-width="5" stroke="rgb(0,0,0)" />
	<path d="M5401,4590.4 5401,4945.4 5711,5124.4 5711,4769.4 5401,4590.4 z " fill-rule="evenodd" fill="rgb(0,128,0)" stroke-width="5" stroke="rgb(0,0,0)" />
	<path d="M6025,4590.4 6025,4945.4 6335,5124.4 6335,4769.4 6025,4590.4 z " fill-rule="evenodd" fill="rgb(0,128,0)" stroke-width="5" stroke="rgb(0,0,0)" />
	<path d="M6649,4590.4 6649,4945.4 6959,5124.4 6959,4769.4 6649,4590.4 z " fill-rule="evenodd" fill="rgb(0,128,0)" stroke-width="5" stroke="rgb(0,0,0)" />
	<path d="M7273,4590.4 7273,4945.4 7583,5124.4 7583,4769.4 7273,4590.4 z " fill-rule="evenodd" fill="rgb(0,128,0)" stroke-width="5" stroke="rgb(0,0,0)" />
	<path d="M7897,4590.4 7897,4945.4 8207,5124.4 8207,4769.4 7897,4590.4 z " fill-rule="evenodd" fill="rgb(0,128,0)" stroke-width="5" stroke="rgb(0,0,0)" />
	<path d="M409,4947.71 409,5302.71 719,5481.71 719,5126.71 409,4947.71 z " fill-rule="evenodd" fill="rgb(0,128,0)" stroke-width="5" stroke="rgb(0,0,0)" />
	<path d="M1033,4947.71 1033,5302.71 1343,5481.71 1343,5126.71 1033,4947.71 z " fill-rule="evenodd" fill="rgb(0,128,0)" stroke-width="5" stroke="rgb(0,0,0)" />
	<path d="M1657,4947.71 1657,5302.71 1967,5481.71 1967,5126.71 1657,4947.71 z " fill-rule="evenodd" fill="rgb(0,128,0)" stroke-width="5" stroke="rgb(0,0,0)" />
	<path d="M2281,4947.71 2281,5302.71 2591,5481.71 2591,5126.71 2281,4947.71 z " fill-rule="evenodd" fill="rgb(0,128,0)" stroke-width="5" stroke="rgb(0,0,0)" />
	<path d="M5401,4947.71 5401,5302.71 5711,5481.71 5711,5126.71 5401,4947.71 z " fill-rule="evenodd" fill="rgb(0,128,0)" stroke-width="5" stroke="rgb(0,0,0)" />
	<path d="M6025,4947.71 6025,5302.71 6335,5481.71 6335,5126.71 6025,4947.71 z " fill-rule="evenodd" fill="rgb(0,128,0)" stroke-width="5" stroke="rgb(0,0,0)" />
	<path d="M6649,4947.71 6649,5302.71 6959,5481.71 6959,5126.71 6649,4947.71 z " fill-rule="evenodd" fill="rgb(0,128,0)" stroke-width="5" stroke="rgb(0,0,0)" />
	<path d="M7273,4947.71 7273,5302.71 7583,5481.71 7583,5126.71 7273,4947.71 z " fill-rule="evenodd" fill="rgb(0,128,0)" stroke-width="5" stroke="rgb(0,0,0)" />
	<path d="M7897,4947.71 7897,5302.71 8207,5481.71 8207,5126.71 7897,4947.71 z " fill-rule="evenodd" fill="rgb(0,128,0)" stroke-width="5" stroke="rgb(0,0,0)" />
	<path d="M409,5305.02 409,5660.02 719,5839.02 719,5484.02 409,5305.02 z " fill-rule="evenodd" fill="rgb(0,128,0)" stroke-width="5" stroke="rgb(0,0,0)" />
	<path d="M1033,5305.02 1033,5660.02 1343,5839.02 1343,5484.02 1033,5305.02 z " fill-rule="evenodd" fill="rgb(0,128,0)" stroke-width="5" stroke="rgb(0,0,0)" />
	<path d="M1657,5305.02 1657,5660.02 1967,5839.02 1967,5484.02 1657,5305.02 z " fill-rule="evenodd" fill="rgb(0,128,0)" stroke-width="5" stroke="rgb(0,0,0)" />
	<path d="M2281,5305.02 2281,5660.02 2591,5839.02 2591,5484.02 2281,5305.02 z " fill-rule="evenodd" fill="rgb(0,128,0)" stroke-width="5" stroke="rgb(0,0,0)" />
	<path d="M409,5662.33 409,6017.33 719,6196.33 719,5841.33 409,5662.33 z " fill-rule="evenodd" fill="rgb(0,128,0)" stroke-width="5" stroke="rgb(0,0,0)" />
	<path d="M1033,5662.33 1033,6017.33 1343,6196.33 1343,5841.33 1033,5662.33 z " fill-rule="evenodd" fill="rgb(0,128,0)" stroke-width="5" stroke="rgb(0,0,0)" />
	<path d="M1657,5662.33 1657,6017.33 1967,6196.33 1967,5841.33 1657,5662.33 z " fill-rule="evenodd" fill="rgb(0,128,0)" stroke-width="5" stroke="rgb(0,0,0)" />
	<path d="M2281,5662.33 2281,6017.33 2591,6196.33 2591,5841.33 2281,5662.33 z " fill-rule="evenodd" fill="rgb(0,128,0)" stroke-width="5" stroke="rgb(0,0,0)" />
	<path d="M409,6019.64 409,6374.64 719,6553.64 719,6198.64 409,6019.64 z " fill-rule="evenodd" fill="rgb(0,128,0)" stroke-width="5" stroke="rgb(0,0,0)" />
	<path d="M1033,6019.64 1033,6374.64 1343,6553.64 1343,6198.64 1033,6019.64 z " fill-rule="evenodd" fill="rgb(0,128,0)" stroke-width="5" stroke="rgb(0,0,0)" />
	<path d="M1657,6019.64 1657,6374.64 1967,6553.64 1967,6198.64 1657,6019.64 z " fill-rule="evenodd" fill="rgb(0,128,0)" stroke-width="5" stroke="rgb(0,0,0)" />
	<path d="M2281,6019.64 2281,6374.64 2591,6553.64 2591,6198.64 2281,6019.64 z " fill-rule="evenodd" fill="rgb(0,128,0)" stroke-width="5" stroke="rgb(0,0,0)" />
	<path d="M409,6376.95 409,6731.95 719,6910.95 719,6555.95 409,6376.95 z " fill-rule="evenodd" fill="rgb(0,128,0)" stroke-width="5" stroke="rgb(0,0,0)" />
	<path d="M1033,6376.95 1033,6731.95 1343,6910.95 1343,6555.95 1033,6376.95 z " fill-rule="evenodd" fill="rgb(0,128,0)" stroke-width="5" stroke="rgb(0,0,0)" />
	<path d="M1657,6376.95 1657,6731.95 1967,6910.95 1967,6555.95 1657,6376.95 z " fill-rule="evenodd" fill="rgb(0,128,0)" stroke-width="5" stroke="rgb(0,0,0)" />
	<path d="M2281,6376.95 2281,6731.95 2591,6910.95 2591,6555.95 2281,6376.95 z " fill-rule="evenodd" fill="rgb(0,128,0)" stroke-width="5" stroke="rgb(0,0,0)" />
	<path d="M2903,660 2903,1015 2593,1194 2593,839 2903,660 z " fill-rule="evenodd" fill="rgb(0,128,0)" stroke-width="5" stroke="rgb(0,0,0)" />
	<path d="M2903,1017.31 2903,1372.31 2593,1551.31 2593,1196.31 2903,1017.31 z " fill-rule="evenodd" fill="rgb(0,128,0)" stroke-width="5" stroke="rgb(0,0,0)" />
	<path d="M4151,1017.31 4151,1372.31 3841,1551.31 3841,1196.31 4151,1017.31 z " fill-rule="evenodd" fill="rgb(0,128,0)" stroke-width="5" stroke="rgb(0,0,0)" />
	<path d="M2903,1374.62 2903,1729.62 2593,1908.62 2593,1553.62 2903,1374.62 z " fill-rule="evenodd" fill="rgb(0,128,0)" stroke-width="5" stroke="rgb(0,0,0)" />
	<path d="M3527,1374.62 3527,1729.62 3217,1908.62 3217,1553.62 3527,1374.62 z " fill-rule="evenodd" fill="rgb(0,128,0)" stroke-width="5" stroke="rgb(0,0,0)" />
	<path d="M4151,1374.62 4151,1729.62 3841,1908.62 3841,1553.62 4151,1374.62 z " fill-rule="evenodd" fill="rgb(0,128,0)" stroke-width="5" stroke="rgb(0,0,0)" />
	<path d="M4775,1374.62 4775,1729.62 4465,1908.62 4465,1553.62 4775,1374.62 z " fill-rule="evenodd" fill="rgb(0,128,0)" stroke-width="5" stroke="rgb(0,0,0)" />
	<path d="M1655,1731.93 1655,2086.93 1345,2265.93 1345,1910.93 1655,1731.93 z " fill-rule="evenodd" fill="rgb(0,128,0)" stroke-width="5" stroke="rgb(0,0,0)" />
	<path d="M2279,1731.93 2279,2086.93 1969,2265.93 1969,1910.93 2279,1731.93 z " fill-rule="evenodd" fill="rgb(0,128,0)" stroke-width="5" stroke="rgb(0,0,0)" />
	<path d="M2903,1731.93 2903,2086.93 2593,2265.93 2593,1910.93 2903,1731.93 z " fill-rule="evenodd" fill="rgb(0,128,0)" stroke-width="5" stroke="rgb(0,0,0)" />
	<path d="M3527,1731.93 3527,2086.93 3217,2265.93 3217,1910.93 3527,1731.93 z " fill-rule="evenodd" fill="rgb(0,128,0)" stroke-width="5" stroke="rgb(0,0,0)" />
	<path d="M4151,1731.93 4151,2086.93 3841,2265.93 3841,1910.93 4151,1731.93 z " fill-rule="evenodd" fill="rgb(0,128,0)" stroke-width="5" stroke="rgb(0,0,0)" />
	<path d="M4775,1731.93 4775,2086.93 4465,2265.93 4465,1910.93 4775,1731.93 z " fill-rule="evenodd" fill="rgb(0,128,0)" stroke-width="5" stroke="rgb(0,0,0)" />
	<path d="M5399,1731.93 5399,2086.93 5089,2265.93 5089,1910.93 5399,1731.93 z " fill-rule="evenodd" fill="rgb(0,128,0)" stroke-width="5" stroke="rgb(0,0,0)" />
	<path d="M1031,1731.93 1031,2086.93 721,2265.93 721,1910.93 1031,1731.93 z " fill-rule="evenodd" fill="rgb(0,128,0)" stroke-width="5" stroke="rgb(0,0,0)" />
	<path d="M6023,1731.93 6023,2086.93 5713,2265.93 5713,1910.93 6023,1731.93 z " fill-rule="evenodd" fill="rgb(0,128,0)" stroke-width="5" stroke="rgb(0,0,0)" />
	<path d="M1031,2089.24 1031,2444.24 721,2623.24 721,2268.24 1031,2089.24 z " fill-rule="evenodd" fill="rgb(0,128,0)" stroke-width="5" stroke="rgb(0,0,0)" />
	<path d="M1655,2089.24 1655,2444.24 1345,2623.24 1345,2268.24 1655,2089.24 z " fill-rule="evenodd" fill="rgb(0,128,0)" stroke-width="5" stroke="rgb(0,0,0)" />
	<path d="M2279,2089.24 2279,2444.24 1969,2623.24 1969,2268.24 2279,2089.24 z " fill-rule="evenodd" fill="rgb(0,128,0)" stroke-width="5" stroke="rgb(0,0,0)" />
	<path d="M2903,2089.24 2903,2444.24 2593,2623.24 2593,2268.24 2903,2089.24 z " fill-rule="evenodd" fill="rgb(0,128,0)" stroke-width="5" stroke="rgb(0,0,0)" />
	<path d="M3527,2089.24 3527,2444.24 3217,2623.24 3217,2268.24 3527,2089.24 z " fill-rule="evenodd" fill="rgb(0,128,0)" stroke-width="5" stroke="rgb(0,0,0)" />
	<path d="M4151,2089.24 4151,2444.24 3841,2623.24 3841,2268.24 4151,2089.24 z " fill-rule="evenodd" fill="rgb(0,128,0)" stroke-width="5" stroke="rgb(0,0,0)" />
	<path d="M4775,2089.24 4775,2444.24 4465,2623.24 4465,2268.24 4775,2089.24 z " fill-rule="evenodd" fill="rgb(0,128,0)" stroke-width="5" stroke="rgb(0,0,0)" />
	<path d="M5399,2089.24 5399,2444.24 5089,2623.24 5089,2268.24 5399,2089.24 z " fill-rule="evenodd" fill="rgb(0,128,0)" stroke-width="5" stroke="rgb(0,0,0)" />
	<path d="M6023,2089.24 6023,2444.24 5713,2623.24 5713,2268.24 6023,2089.24 z " fill-rule="evenodd" fill="rgb(0,128,0)" stroke-width="5" stroke="rgb(0,0,0)" />
	<path d="M6647,2089.24 6647,2444.24 6337,2623.24 6337,2268.24 6647,2089.24 z " fill-rule="evenodd" fill="rgb(0,128,0)" stroke-width="5" stroke="rgb(0,0,0)" />
	<path d="M2903,2446.55 2903,2801.55 2593,2980.55 2593,2625.55 2903,2446.55 z " fill-rule="evenodd" fill="rgb(0,128,0)" stroke-width="5" stroke="rgb(0,0,0)" />
	<path d="M4775,2446.55 4775,2801.55 4465,2980.55 4465,2625.55 4775,2446.55 z " fill-rule="evenodd" fill="rgb(0,128,0)" stroke-width="5" stroke="rgb(0,0,0)" />
	<path d="M5399,2446.55 5399,2801.55 5089,2980.55 5089,2625.55 5399,2446.55 z " fill-rule="evenodd" fill="rgb(0,128,0)" stroke-width="5" stroke="rgb(0,0,0)" />
	<path d="M6023,2446.55 6023,2801.55 5713,2980.55 5713,2625.55 6023,2446.55 z " fill-rule="evenodd" fill="rgb(0,128,0)" stroke-width="5" stroke="rgb(0,0,0)" />
	<path d="M6647,2446.55 6647,2801.55 6337,2980.55 6337,2625.55 6647,2446.55 z " fill-rule="evenodd" fill="rgb(0,128,0)" stroke-width="5" stroke="rgb(0,0,0)" />
	<path d="M7271,2446.55 7271,2801.55 6961,2980.55 6961,2625.55 7271,2446.55 z " fill-rule="evenodd" fill="rgb(0,128,0)" stroke-width="5" stroke="rgb(0,0,0)" />
	<path d="M4775,2803.86 4775,3158.86 4465,3337.86 4465,2982.86 4775,2803.86 z " fill-rule="evenodd" fill="rgb(0,128,0)" stroke-width="5" stroke="rgb(0,0,0)" />
	<path d="M5399,2803.86 5399,3158.86 5089,3337.86 5089,2982.86 5399,2803.86 z " fill-rule="evenodd" fill="rgb(0,128,0)" stroke-width="5" stroke="rgb(0,0,0)" />
	<path d="M6023,2803.86 6023,3158.86 5713,3337.86 5713,2982.86 6023,2803.86 z " fill-rule="evenodd" fill="rgb(0,128,0)" stroke-width="5" stroke="rgb(0,0,0)" />
	<path d="M6647,2803.86 6647,3158.86 6337,3337.86 6337,2982.86 6647,2803.86 z " fill-rule="evenodd" fill="rgb(0,128,0)" stroke-width="5" stroke="rgb(0,0,0)" />
	<path d="M7271,2803.86 7271,3158.86 6961,3337.86 6961,2982.86 7271,2803.86 z " fill-rule="evenodd" fill="rgb(0,128,0)" stroke-width="5" stroke="rgb(0,0,0)" />
	<path d="M7895,2446.55 7895,2801.55 7585,2980.55 7585,2625.55 7895,2446.55 z " fill-rule="evenodd" fill="rgb(0,128,0)" stroke-width="5" stroke="rgb(0,0,0)" />
	<path d="M7895,2803.86 7895,3158.86 7585,3337.86 7585,2982.86 7895,2803.86 z " fill-rule="evenodd" fill="rgb(0,128,0)" stroke-width="5" stroke="rgb(0,0,0)" />
	<path d="M1031,3161.17 1031,3516.17 721,3695.17 721,3340.17 1031,3161.17 z " fill-rule="evenodd" fill="rgb(0,128,0)" stroke-width="5" stroke="rgb(0,0,0)" />
	<path d="M1655,3161.17 1655,3516.17 1345,3695.17 1345,3340.17 1655,3161.17 z " fill-rule="evenodd" fill="rgb(0,128,0)" stroke-width="5" stroke="rgb(0,0,0)" />
	<path d="M2279,3161.17 2279,3516.17 1969,3695.17 1969,3340.17 2279,3161.17 z " fill-rule="evenodd" fill="rgb(0,128,0)" stroke-width="5" stroke="rgb(0,0,0)" />
	<path d="M4151,3161.17 4151,3516.17 3841,3695.17 3841,3340.17 4151,3161.17 z " fill-rule="evenodd" fill="rgb(0,128,0)" stroke-width="5" stroke="rgb(0,0,0)" />
	<path d="M4775,3161.17 4775,3516.17 4465,3695.17 4465,3340.17 4775,3161.17 z " fill-rule="evenodd" fill="rgb(0,128,0)" stroke-width="5" stroke="rgb(0,0,0)" />
	<path d="M5399,3161.17 5399,3516.17 5089,3695.17 5089,3340.17 5399,3161.17 z " fill-rule="evenodd" fill="rgb(0,128,0)" stroke-width="5" stroke="rgb(0,0,0)" />
	<path d="M6023,3161.17 6023,3516.17 5713,3695.17 5713,3340.17 6023,3161.17 z " fill-rule="evenodd" fill="rgb(0,128,0)" stroke-width="5" stroke="rgb(0,0,0)" />
	<path d="M6647,3161.17 6647,3516.17 6337,3695.17 6337,3340.17 6647,3161.17 z " fill-rule="evenodd" fill="rgb(0,128,0)" stroke-width="5" stroke="rgb(0,0,0)" />
	<path d="M7271,3161.17 7271,3516.17 6961,3695.17 6961,3340.17 7271,3161.17 z " fill-rule="evenodd" fill="rgb(0,128,0)" stroke-width="5" stroke="rgb(0,0,0)" />
	<path d="M7895,3161.17 7895,3516.17 7585,3695.17 7585,3340.17 7895,3161.17 z " fill-rule="evenodd" fill="rgb(0,128,0)" stroke-width="5" stroke="rgb(0,0,0)" />
	<path d="M8519,2803.86 8519,3158.86 8209,3337.86 8209,2982.86 8519,2803.86 z " fill-rule="evenodd" fill="rgb(0,128,0)" stroke-width="5" stroke="rgb(0,0,0)" />
	<path d="M8519,3161.17 8519,3516.17 8209,3695.17 8209,3340.17 8519,3161.17 z " fill-rule="evenodd" fill="rgb(0,128,0)" stroke-width="5" stroke="rgb(0,0,0)" />
	<path d="M1031,3518.48 1031,3873.48 721,4052.48 721,3697.48 1031,3518.48 z " fill-rule="evenodd" fill="rgb(0,128,0)" stroke-width="5" stroke="rgb(0,0,0)" />
	<path d="M1655,3518.48 1655,3873.48 1345,4052.48 1345,3697.48 1655,3518.48 z " fill-rule="evenodd" fill="rgb(0,128,0)" stroke-width="5" stroke="rgb(0,0,0)" />
	<path d="M2279,3518.48 2279,3873.48 1969,4052.48 1969,3697.48 2279,3518.48 z " fill-rule="evenodd" fill="rgb(0,128,0)" stroke-width="5" stroke="rgb(0,0,0)" />
	<path d="M4151,3518.48 4151,3873.48 3841,4052.48 3841,3697.48 4151,3518.48 z " fill-rule="evenodd" fill="rgb(0,128,0)" stroke-width="5" stroke="rgb(0,0,0)" />
	<path d="M4775,3518.48 4775,3873.48 4465,4052.48 4465,3697.48 4775,3518.48 z " fill-rule="evenodd" fill="rgb(0,128,0)" stroke-width="5" stroke="rgb(0,0,0)" />
	<path d="M5399,3518.48 5399,3873.48 5089,4052.48 5089,3697.48 5399,3518.48 z " fill-rule="evenodd" fill="rgb(0,128,0)" stroke-width="5" stroke="rgb(0,0,0)" />
	<path d="M6023,3518.48 6023,3873.48 5713,4052.48 5713,3697.48 6023,3518.48 z " fill-rule="evenodd" fill="rgb(0,128,0)" stroke-width="5" stroke="rgb(0,0,0)" />
	<path d="M6647,3518.48 6647,3873.48 6337,4052.48 6337,3697.48 6647,3518.48 z " fill-rule="evenodd" fill="rgb(0,128,0)" stroke-width="5" stroke="rgb(0,0,0)" />
	<path d="M7271,3518.48 7271,3873.48 6961,4052.48 6961,3697.48 7271,3518.48 z " fill-rule="evenodd" fill="rgb(0,128,0)" stroke-width="5" stroke="rgb(0,0,0)" />
	<path d="M7895,3518.48 7895,3873.48 7585,4052.48 7585,3697.48 7895,3518.48 z " fill-rule="evenodd" fill="rgb(0,128,0)" stroke-width="5" stroke="rgb(0,0,0)" />
	<path d="M8519,3518.48 8519,3873.48 8209,4052.48 8209,3697.48 8519,3518.48 z " fill-rule="evenodd" fill="rgb(0,128,0)" stroke-width="5" stroke="rgb(0,0,0)" />
	<path d="M1031,3875.79 1031,4230.79 721,4409.79 721,4054.79 1031,3875.79 z " fill-rule="evenodd" fill="rgb(0,128,0)" stroke-width="5" stroke="rgb(0,0,0)" />
	<path d="M1655,3875.79 1655,4230.79 1345,4409.79 1345,4054.79 1655,3875.79 z " fill-rule="evenodd" fill="rgb(0,128,0)" stroke-width="5" stroke="rgb(0,0,0)" />
	<path d="M2279,3875.79 2279,4230.79 1969,4409.79 1969,4054.79 2279,3875.79 z " fill-rule="evenodd" fill="rgb(0,128,0)" stroke-width="5" stroke="rgb(0,0,0)" />
	<path d="M4151,3875.79 4151,4230.79 3841,4409.79 3841,4054.79 4151,3875.79 z " fill-rule="evenodd" fill="rgb(0,128,0)" stroke-width="5" stroke="rgb(0,0,0)" />
	<path d="M4775,3875.79 4775,4230.79 4465,4409.79 4465,4054.79 4775,3875.79 z " fill-rule="evenodd" fill="rgb(0,128,0)" stroke-width="5" stroke="rgb(0,0,0)" />
	<path d="M5399,3875.79 5399,4230.79 5089,4409.79 5089,4054.79 5399,3875.79 z " fill-rule="evenodd" fill="rgb(0,128,0)" stroke-width="5" stroke="rgb(0,0,0)" />
	<path d="M6023,3875.79 6023,4230.79 5713,4409.79 5713,4054.79 6023,3875.79 z " fill-rule="evenodd" fill="rgb(0,128,0)" stroke-width="5" stroke="rgb(0,0,0)" />
	<path d="M6647,3875.79 6647,4230.79 6337,4409.79 6337,4054.79 6647,3875.79 z " fill-rule="evenodd" fill="rgb(0,128,0)" stroke-width="5" stroke="rgb(0,0,0)" />
	<path d="M7271,3875.79 7271,4230.79 6961,4409.79 6961,4054.79 7271,3875.79 z " fill-rule="evenodd" fill="rgb(0,128,0)" stroke-width="5" stroke="rgb(0,0,0)" />
	<path d="M7895,3875.79 7895,4230.79 7585,4409.79 7585,4054.79 7895,3875.79 z " fill-rule="evenodd" fill="rgb(0,128,0)" stroke-width="5" stroke="rgb(0,0,0)" />
	<path d="M8519,3875.79 8519,4230.79 8209,4409.79 8209,4054.79 8519,3875.79 z " fill-rule="evenodd" fill="rgb(0,128,0)" stroke-width="5" stroke="rgb(0,0,0)" />
	<path d="M1031,4233.09 1031,4588.09 721,4767.09 721,4412.09 1031,4233.09 z " fill-rule="evenodd" fill="rgb(0,128,0)" stroke-width="5" stroke="rgb(0,0,0)" />
	<path d="M1655,4233.09 1655,4588.09 1345,4767.09 1345,4412.09 1655,4233.09 z " fill-rule="evenodd" fill="rgb(0,128,0)" stroke-width="5" stroke="rgb(0,0,0)" />
	<path d="M2279,4233.09 2279,4588.09 1969,4767.09 1969,4412.09 2279,4233.09 z " fill-rule="evenodd" fill="rgb(0,128,0)" stroke-width="5" stroke="rgb(0,0,0)" />
	<path d="M4151,4233.09 4151,4588.09 3841,4767.09 3841,4412.09 4151,4233.09 z " fill-rule="evenodd" fill="rgb(0,128,0)" stroke-width="5" stroke="rgb(0,0,0)" />
	<path d="M4775,4233.09 4775,4588.09 4465,4767.09 4465,4412.09 4775,4233.09 z " fill-rule="evenodd" fill="rgb(0,128,0)" stroke-width="5" stroke="rgb(0,0,0)" />
	<path d="M5399,4233.09 5399,4588.09 5089,4767.09 5089,4412.09 5399,4233.09 z " fill-rule="evenodd" fill="rgb(0,128,0)" stroke-width="5" stroke="rgb(0,0,0)" />
	<path d="M6023,4233.09 6023,4588.09 5713,4767.09 5713,4412.09 6023,4233.09 z " fill-rule="evenodd" fill="rgb(0,128,0)" stroke-width="5" stroke="rgb(0,0,0)" />
	<path d="M6647,4233.09 6647,4588.09 6337,4767.09 6337,4412.09 6647,4233.09 z " fill-rule="evenodd" fill="rgb(0,128,0)" stroke-width="5" stroke="rgb(0,0,0)" />
	<path d="M7271,4233.09 7271,4588.09 6961,4767.09 6961,4412.09 7271,4233.09 z " fill-rule="evenodd" fill="rgb(0,128,0)" stroke-width="5" stroke="rgb(0,0,0)" />
	<path d="M7895,4233.09 7895,4588.09 7585,4767.09 7585,4412.09 7895,4233.09 z " fill-rule="evenodd" fill="rgb(0,128,0)" stroke-width="5" stroke="rgb(0,0,0)" />
	<path d="M8519,4233.09 8519,4588.09 8209,4767.09 8209,4412.09 8519,4233.09 z " fill-rule="evenodd" fill="rgb(0,128,0)" stroke-width="5" stroke="rgb(0,0,0)" />
	<path d="M1031,4590.4 1031,4945.4 721,5124.4 721,4769.4 1031,4590.4 z " fill-rule="evenodd" fill="rgb(0,128,0)" stroke-width="5" stroke="rgb(0,0,0)" />
	<path d="M1655,4590.4 1655,4945.4 1345,5124.4 1345,4769.4 1655,4590.4 z " fill-rule="evenodd" fill="rgb(0,128,0)" stroke-width="5" stroke="rgb(0,0,0)" />
	<path d="M2279,4590.4 2279,4945.4 1969,5124.4 1969,4769.4 2279,4590.4 z " fill-rule="evenodd" fill="rgb(0,128,0)" stroke-width="5" stroke="rgb(0,0,0)" />
	<path d="M5399,4590.4 5399,4945.4 5089,5124.4 5089,4769.4 5399,4590.4 z " fill-rule="evenodd" fill="rgb(0,128,0)" stroke-width="5" stroke="rgb(0,0,0)" />
	<path d="M6023,4590.4 6023,4945.4 5713,5124.4 5713,4769.4 6023,4590.4 z " fill-rule="evenodd" fill="rgb(0,128,0)" stroke-width="5" stroke="rgb(0,0,0)" />
	<path d="M6647,4590.4 6647,4945.4 6337,5124.4 6337,4769.4 6647,4590.4 z " fill-rule="evenodd" fill="rgb(0,128,0)" stroke-width="5" stroke="rgb(0,0,0)" />
	<path d="M7271,4590.4 7271,4945.4 6961,5124.4 6961,4769.4 7271,4590.4 z " fill-rule="evenodd" fill="rgb(0,128,0)" stroke-width="5" stroke="rgb(0,0,0)" />
	<path d="M7895,4590.4 7895,4945.4 7585,5124.4 7585,4769.4 7895,4590.4 z " fill-rule="evenodd" fill="rgb(0,128,0)" stroke-width="5" stroke="rgb(0,0,0)" />
	<path d="M8519,4590.4 8519,4945.4 8209,5124.4 8209,4769.4 8519,4590.4 z " fill-rule="evenodd" fill="rgb(0,128,0)" stroke-width="5" stroke="rgb(0,0,0)" />
	<path d="M1031,4947.71 1031,5302.71 721,5481.71 721,5126.71 1031,4947.71 z " fill-rule="evenodd" fill="rgb(0,128,0)" stroke-width="5" stroke="rgb(0,0,0)" />
	<path d="M1655,4947.71 1655,5302.71 1345,5481.71 1345,5126.71 1655,4947.71 z " fill-rule="evenodd" fill="rgb(0,128,0)" stroke-width="5" stroke="rgb(0,0,0)" />
	<path d="M2279,4947.71 2279,5302.71 1969,5481.71 1969,5126.71 2279,4947.71 z " fill-rule="evenodd" fill="rgb(0,128,0)" stroke-width="5" stroke="rgb(0,0,0)" />
	<path d="M5399,4947.71 5399,5302.71 5089,5481.71 5089,5126.71 5399,4947.71 z " fill-rule="evenodd" fill="rgb(0,128,0)" stroke-width="5" stroke="rgb(0,0,0)" />
	<path d="M6023,4947.71 6023,5302.71 5713,5481.71 5713,5126.71 6023,4947.71 z " fill-rule="evenodd" fill="rgb(0,128,0)" stroke-width="5" stroke="rgb(0,0,0)" />
	<path d="M6647,4947.71 6647,5302.71 6337,5481.71 6337,5126.71 6647,4947.71 z " fill-rule="evenodd" fill="rgb(0,128,0)" stroke-width="5" stroke="rgb(0,0,0)" />
	<path d="M7271,4947.71 7271,5302.71 6961,5481.71 6961,5126.71 7271,4947.71 z " fill-rule="evenodd" fill="rgb(0,128,0)" stroke-width="5" stroke="rgb(0,0,0)" />
	<path d="M7895,4947.71 7895,5302.71 7585,5481.71 7585,5126.71 7895,4947.71 z " fill-rule="evenodd" fill="rgb(0,128,0)" stroke-width="5" stroke="rgb(0,0,0)" />
	<path d="M8519,4947.71 8519,5302.71 8209,5481.71 8209,5126.71 8519,4947.71 z " fill-rule="evenodd" fill="rgb(0,128,0)" stroke-width="5" stroke="rgb(0,0,0)" />
	<path d="M1031,5305.02 1031,5660.02 721,5839.02 721,5484.02 1031,5305.02 z " fill-rule="evenodd" fill="rgb(0,128,0)" stroke-width="5" stroke="rgb(0,0,0)" />
	<path d="M1655,5305.02 1655,5660.02 1345,5839.02 1345,5484.02 1655,5305.02 z " fill-rule="evenodd" fill="rgb(0,128,0)" stroke-width="5" stroke="rgb(0,0,0)" />
	<path d="M2279,5305.02 2279,5660.02 1969,5839.02 1969,5484.02 2279,5305.02 z " fill-rule="evenodd" fill="rgb(0,128,0)" stroke-width="5" stroke="rgb(0,0,0)" />
	<path d="M1031,5662.33 1031,6017.33 721,6196.33 721,5841.33 1031,5662.33 z " fill-rule="evenodd" fill="rgb(0,128,0)" stroke-width="5" stroke="rgb(0,0,0)" />
	<path d="M1655,5662.33 1655,6017.33 1345,6196.33 1345,5841.33 1655,5662.33 z " fill-rule="evenodd" fill="rgb(0,128,0)" stroke-width="5" stroke="rgb(0,0,0)" />
	<path d="M2279,5662.33 2279,6017.33 1969,6196.33 1969,5841.33 2279,5662.33 z " fill-rule="evenodd" fill="rgb(0,128,0)" stroke-width="5" stroke="rgb(0,0,0)" />
	<path d="M1031,6019.64 1031,6374.64 721,6553.64 721,6198.64 1031,6019.64 z " fill-rule="evenodd" fill="rgb(0,128,0)" stroke-width="5" stroke="rgb(0,0,0)" />
	<path d="M1655,6019.64 1655,6374.64 1345,6553.64 1345,6198.64 1655,6019.64 z " fill-rule="evenodd" fill="rgb(0,128,0)" stroke-width="5" stroke="rgb(0,0,0)" />
	<path d="M2279,6019.64 2279,6374.64 1969,6553.64 1969,6198.64 2279,6019.64 z " fill-rule="evenodd" fill="rgb(0,128,0)" stroke-width="5" stroke="rgb(0,0,0)" />
	<path d="M1031,6376.95 1031,6731.95 721,6910.95 721,6555.95 1031,6376.95 z " fill-rule="evenodd" fill="rgb(0,128,0)" stroke-width="5" stroke="rgb(0,0,0)" />
	<path d="M1655,6376.95 1655,6731.95 1345,6910.95 1345,6555.95 1655,6376.95 z " fill-rule="evenodd" fill="rgb(0,128,0)" stroke-width="5" stroke="rgb(0,0,0)" />
	<path d="M2279,6376.95 2279,6731.95 1969,6910.95 1969,6555.95 2279,6376.95 z " fill-rule="evenodd" fill="rgb(0,128,0)" stroke-width="5" stroke="rgb(0,0,0)" />
	<path d="M2903,6376.95 2903,6731.95 2593,6910.95 2593,6555.95 2903,6376.95 z " fill-rule="evenodd" fill="rgb(0,128,0)" stroke-width="5" stroke="rgb(0,0,0)" />
	<path d="M3215,836.691 2905,657.691 2905,406.224 3215,531.958 3215,836.691 z " fill-rule="evenodd" fill="rgb(255,0,0)" stroke-width="5" stroke="rgb(0,0,0)" />
	<path d="M3839,836.691 3542.48,665.471 3839,785.871 3839,836.691 z " fill-rule="evenodd" fill="rgb(255,0,0)" stroke-width="5" stroke="rgb(0,0,0)" />
	<path d="M2905,1015 2905,660 3215,839 3215,1169.23 3206.86,1189.3 2905,1015 z " fill-rule="evenodd" fill="rgb(255,0,0)" stroke-width="5" stroke="rgb(0,0,0)" />
	<path d="M4463,1194 4153,1015 4153,913.365 4463,1039.24 4463,1194 z " fill-rule="evenodd" fill="rgb(255,0,0)" stroke-width="5" stroke="rgb(0,0,0)" />
	<path d="M2905,1372.31 2905,1017.31 3206.1,1191.17 3089.41,1478.79 2905,1372.31 z " fill-rule="evenodd" fill="rgb(255,0,0)" stroke-width="5" stroke="rgb(0,0,0)" />
	<path d="M3215,1551.31 3176.56,1529.11 3215,1434.31 3215,1551.31 z " fill-rule="evenodd" fill="rgb(255,0,0)" stroke-width="5" stroke="rgb(0,0,0)" />
	<path d="M2591,479.381 2281,300.381 2281,153.133 2591,278.867 2591,479.381 z " fill-rule="evenodd" fill="rgb(255,0,0)" stroke-width="5" stroke="rgb(0,0,0)" />
	<path d="M5087,1551.31 4777,1372.31 4777,1166.73 5087,1292.6 5087,1551.31 z " fill-rule="evenodd" fill="rgb(255,0,0)" stroke-width="5" stroke="rgb(0,0,0)" />
	<path d="M3215,1553.62 3215,1908.62 2905,1729.62 2905,1374.62 3088.66,1480.67 3080,1502 2950,1502 2950,1602 3147,1602 3175.8,1530.98 3215,1553.62 z " fill-rule="evenodd" fill="rgb(255,0,0)" stroke-width="5" stroke="rgb(0,0,0)" />
	<path d="M1967,1908.62 1657,1729.62 1657,1602 1967,1602 1967,1908.62 z " fill-rule="evenodd" fill="rgb(255,0,0)" stroke-width="5" stroke="rgb(0,0,0)" />
	<path d="M5711,1551.31 5679.83,1533.31 5711,1545.97 5711,1551.31 z " fill-rule="evenodd" fill="rgb(255,0,0)" stroke-width="5" stroke="rgb(0,0,0)" />
	<path d="M5711,1553.62 5711,1908.62 5401,1729.62 5401,1420.1 5666.35,1527.84 5711,1553.62 z " fill-rule="evenodd" fill="rgb(255,0,0)" stroke-width="5" stroke="rgb(0,0,0)" />
	<path d="M1343,1551.31 1257.6,1502 1343,1502 1343,1551.31 z " fill-rule="evenodd" fill="rgb(255,0,0)" stroke-width="5" stroke="rgb(0,0,0)" />
	<path d="M1343,1553.62 1343,1908.62 1033,1729.62 1033,1502 1253.6,1502 1343,1553.62 z " fill-rule="evenodd" fill="rgb(255,0,0)" stroke-width="5" stroke="rgb(0,0,0)" />
	<path d="M6335,1908.62 6025,1729.62 6025,1673.46 6335,1799.33 6335,1908.62 z " fill-rule="evenodd" fill="rgb(255,0,0)" stroke-width="5" stroke="rgb(0,0,0)" />
	<path d="M719,1551.31 700,1540.34 700,1502 719,1502 719,1551.31 z " fill-rule="evenodd" fill="rgb(255,0,0)" stroke-width="5" stroke="rgb(0,0,0)" />
	<path d="M719,1553.62 719,1908.62 409,1729.62 409,1602 700,1602 700,1542.65 719,1553.62 z " fill-rule="evenodd" fill="rgb(255,0,0)" stroke-width="5" stroke="rgb(0,0,0)" />
	<path d="M6959,2265.93 6649,2086.93 6649,1926.83 6959,2052.7 6959,2265.93 z " fill-rule="evenodd" fill="rgb(255,0,0)" stroke-width="5" stroke="rgb(0,0,0)" />
	<path d="M409,2801.55 409,2446.55 719,2625.55 719,2952 669.56,2952 409,2801.55 z " fill-rule="evenodd" fill="rgb(255,0,0)" stroke-width="5" stroke="rgb(0,0,0)" />
	<path d="M1033,2801.55 1033,2446.55 1343,2625.55 1343,2952 1293.56,2952 1033,2801.55 z " fill-rule="evenodd" fill="rgb(255,0,0)" stroke-width="5" stroke="rgb(0,0,0)" />
	<path d="M1657,2801.55 1657,2446.55 1967,2625.55 1967,2952 1917.56,2952 1657,2801.55 z " fill-rule="evenodd" fill="rgb(255,0,0)" stroke-width="5" stroke="rgb(0,0,0)" />
	<path d="M2905,2801.55 2905,2446.55 3215,2625.55 3215,2952 3165.56,2952 2905,2801.55 z " fill-rule="evenodd" fill="rgb(255,0,0)" stroke-width="5" stroke="rgb(0,0,0)" />
	<path d="M3529,2801.55 3529,2446.55 3839,2625.55 3839,2952 3789.56,2952 3529,2801.55 z " fill-rule="evenodd" fill="rgb(255,0,0)" stroke-width="5" stroke="rgb(0,0,0)" />
	<path d="M4777,2801.55 4777,2446.55 5087,2625.55 5087,2980.55 5050,2959.18 5050,2952 5037.56,2952 4777,2801.55 z " fill-rule="evenodd" fill="rgb(255,0,0)" stroke-width="5" stroke="rgb(0,0,0)" />
	<path d="M7583,2623.24 7273,2444.24 7273,2180.19 7583,2306.06 7583,2623.24 z " fill-rule="evenodd" fill="rgb(255,0,0)" stroke-width="5" stroke="rgb(0,0,0)" />
	<path d="M409,2803.86 665.561,2952 409,2952 409,2803.86 z " fill-rule="evenodd" fill="rgb(255,0,0)" stroke-width="5" stroke="rgb(0,0,0)" />
	<path d="M719,3337.86 409,3158.86 409,3152 719,3152 719,3337.86 z " fill-rule="evenodd" fill="rgb(255,0,0)" stroke-width="5" stroke="rgb(0,0,0)" />
	<path d="M1033,2803.86 1289.56,2952 1033,2952 1033,2803.86 z " fill-rule="evenodd" fill="rgb(255,0,0)" stroke-width="5" stroke="rgb(0,0,0)" />
	<path d="M1343,3337.86 1033,3158.86 1033,3152 1343,3152 1343,3337.86 z " fill-rule="evenodd" fill="rgb(255,0,0)" stroke-width="5" stroke="rgb(0,0,0)" />
	<path d="M1657,2803.86 1913.56,2952 1657,2952 1657,2803.86 z " fill-rule="evenodd" fill="rgb(255,0,0)" stroke-width="5" stroke="rgb(0,0,0)" />
	<path d="M1967,3337.86 1657,3158.86 1657,3152 1967,3152 1967,3337.86 z " fill-rule="evenodd" fill="rgb(255,0,0)" stroke-width="5" stroke="rgb(0,0,0)" />
	<path d="M2905,2803.86 3161.56,2952 2905,2952 2905,2803.86 z " fill-rule="evenodd" fill="rgb(255,0,0)" stroke-width="5" stroke="rgb(0,0,0)" />
	<path d="M3529,2803.86 3785.56,2952 3529,2952 3529,2803.86 z " fill-rule="evenodd" fill="rgb(255,0,0)" stroke-width="5" stroke="rgb(0,0,0)" />
	<path d="M3839,3337.86 3700,3257.6 3700,3052 3839,3052 3839,3337.86 z " fill-rule="evenodd" fill="rgb(255,0,0)" stroke-width="5" stroke="rgb(0,0,0)" />
	<path d="M4153,2803.86 4463,2982.86 4463,3337.86 4153,3158.86 4153,3052 4200,3052 4200,2952 4153,2952 4153,2803.86 z " fill-rule="evenodd" fill="rgb(255,0,0)" stroke-width="5" stroke="rgb(0,0,0)" />
	<path d="M4777,3158.86 4777,2803.86 5033.56,2952 4900,2952 4900,3052 4950,3052 4950,3258.75 4777,3158.86 z " fill-rule="evenodd" fill="rgb(255,0,0)" stroke-width="5" stroke="rgb(0,0,0)" />
	<path d="M5087,2982.86 5087,3337.86 5050,3316.49 5050,2961.49 5087,2982.86 z " fill-rule="evenodd" fill="rgb(255,0,0)" stroke-width="5" stroke="rgb(0,0,0)" />
	<path d="M8207,2623.24 7897,2444.24 7897,2433.56 8207,2559.43 8207,2623.24 z " fill-rule="evenodd" fill="rgb(255,0,0)" stroke-width="5" stroke="rgb(0,0,0)" />
	<path d="M3839,3340.17 3839,3695.17 3700,3614.91 3700,3259.91 3839,3340.17 z " fill-rule="evenodd" fill="rgb(255,0,0)" stroke-width="5" stroke="rgb(0,0,0)" />
	<path d="M4777,3516.17 4777,3161.17 4950,3261.06 4950,3616.06 4777,3516.17 z " fill-rule="evenodd" fill="rgb(255,0,0)" stroke-width="5" stroke="rgb(0,0,0)" />
	<path d="M5087,3340.17 5087,3695.17 5050,3673.8 5050,3318.8 5087,3340.17 z " fill-rule="evenodd" fill="rgb(255,0,0)" stroke-width="5" stroke="rgb(0,0,0)" />
	<path d="M8521,2801.55 8521,2686.92 8600,2719 8600,2847.16 8521,2801.55 z " fill-rule="evenodd" fill="rgb(255,0,0)" stroke-width="5" stroke="rgb(0,0,0)" />
	<path d="M8521,3158.86 8521,2803.86 8600,2849.47 8600,3204.47 8521,3158.86 z " fill-rule="evenodd" fill="rgb(255,0,0)" stroke-width="5" stroke="rgb(0,0,0)" />
	<path d="M8521,3516.17 8521,3161.17 8600,3206.78 8600,3561.78 8521,3516.17 z " fill-rule="evenodd" fill="rgb(255,0,0)" stroke-width="5" stroke="rgb(0,0,0)" />
	<path d="M3839,3697.48 3839,4052.48 3700,3972.21 3700,3617.21 3839,3697.48 z " fill-rule="evenodd" fill="rgb(255,0,0)" stroke-width="5" stroke="rgb(0,0,0)" />
	<path d="M4777,3873.48 4777,3518.48 4950,3618.37 4950,3973.37 4777,3873.48 z " fill-rule="evenodd" fill="rgb(255,0,0)" stroke-width="5" stroke="rgb(0,0,0)" />
	<path d="M5087,3697.48 5087,4052.48 5050,4031.11 5050,3676.11 5087,3697.48 z " fill-rule="evenodd" fill="rgb(255,0,0)" stroke-width="5" stroke="rgb(0,0,0)" />
	<path d="M8521,3873.48 8521,3518.48 8600,3564.09 8600,3919.09 8521,3873.48 z " fill-rule="evenodd" fill="rgb(255,0,0)" stroke-width="5" stroke="rgb(0,0,0)" />
	<path d="M3839,4054.79 3839,4409.79 3700,4329.52 3700,3974.52 3839,4054.79 z " fill-rule="evenodd" fill="rgb(255,0,0)" stroke-width="5" stroke="rgb(0,0,0)" />
	<path d="M4777,4230.79 4777,3875.79 4950,3975.68 4950,4330.68 4777,4230.79 z " fill-rule="evenodd" fill="rgb(255,0,0)" stroke-width="5" stroke="rgb(0,0,0)" />
	<path d="M5087,4054.79 5087,4409.79 5050,4388.42 5050,4033.42 5087,4054.79 z " fill-rule="evenodd" fill="rgb(255,0,0)" stroke-width="5" stroke="rgb(0,0,0)" />
	<path d="M8521,4230.79 8521,3875.79 8600,3921.4 8600,4276.4 8521,4230.79 z " fill-rule="evenodd" fill="rgb(255,0,0)" stroke-width="5" stroke="rgb(0,0,0)" />
	<path d="M3839,4412.09 3839,4767.09 3700,4686.83 3700,4331.83 3839,4412.09 z " fill-rule="evenodd" fill="rgb(255,0,0)" stroke-width="5" stroke="rgb(0,0,0)" />
	<path d="M4777,4588.09 4777,4233.09 4950,4332.99 4950,4687.99 4777,4588.09 z " fill-rule="evenodd" fill="rgb(255,0,0)" stroke-width="5" stroke="rgb(0,0,0)" />
	<path d="M5087,4412.09 5087,4767.09 5050,4745.73 5050,4390.73 5087,4412.09 z " fill-rule="evenodd" fill="rgb(255,0,0)" stroke-width="5" stroke="rgb(0,0,0)" />
	<path d="M8521,4588.09 8521,4233.09 8600,4278.71 8600,4633.71 8521,4588.09 z " fill-rule="evenodd" fill="rgb(255,0,0)" stroke-width="5" stroke="rgb(0,0,0)" />
	<path d="M3839,4769.4 3839,4952 3700,4952 3700,4689.14 3839,4769.4 z " fill-rule="evenodd" fill="rgb(255,0,0)" stroke-width="5" stroke="rgb(0,0,0)" />
	<path d="M4153,4945.4 4153,4590.4 4463,4769.4 4463,4952 4164.42,4952 4153,4945.4 z " fill-rule="evenodd" fill="rgb(255,0,0)" stroke-width="5" stroke="rgb(0,0,0)" />
	<path d="M4777,4945.4 4777,4590.4 4950,4690.3 4950,4952 4788.42,4952 4777,4945.4 z " fill-rule="evenodd" fill="rgb(255,0,0)" stroke-width="5" stroke="rgb(0,0,0)" />
	<path d="M5087,4769.4 5087,5124.4 5050,5103.04 5050,4748.04 5087,4769.4 z " fill-rule="evenodd" fill="rgb(255,0,0)" stroke-width="5" stroke="rgb(0,0,0)" />
	<path d="M8521,4945.4 8521,4590.4 8600,4636.02 8600,4991.02 8521,4945.4 z " fill-rule="evenodd" fill="rgb(255,0,0)" stroke-width="5" stroke="rgb(0,0,0)" />
	<path d="M4153,4947.71 4160.42,4952 4153,4952 4153,4947.71 z " fill-rule="evenodd" fill="rgb(255,0,0)" stroke-width="5" stroke="rgb(0,0,0)" />
	<path d="M4777,4947.71 4784.42,4952 4777,4952 4777,4947.71 z " fill-rule="evenodd" fill="rgb(255,0,0)" stroke-width="5" stroke="rgb(0,0,0)" />
	<path d="M5087,5126.71 5087,5481.71 5050,5460.35 5050,5105.35 5087,5126.71 z " fill-rule="evenodd" fill="rgb(255,0,0)" stroke-width="5" stroke="rgb(0,0,0)" />
	<path d="M8521,5302.71 8521,4947.71 8600,4993.33 8600,5348.33 8521,5302.71 z " fill-rule="evenodd" fill="rgb(255,0,0)" stroke-width="5" stroke="rgb(0,0,0)" />
	<path d="M5087,5484.02 5087,5552 5050,5552 5050,5462.66 5087,5484.02 z " fill-rule="evenodd" fill="rgb(255,0,0)" stroke-width="5" stroke="rgb(0,0,0)" />
	<path d="M5401,5305.02 5711,5484.02 5711,5552 5401,5552 5401,5305.02 z " fill-rule="evenodd" fill="rgb(255,0,0)" stroke-width="5" stroke="rgb(0,0,0)" />
	<path d="M6025,5305.02 6335,5484.02 6335,5552 6025,5552 6025,5305.02 z " fill-rule="evenodd" fill="rgb(255,0,0)" stroke-width="5" stroke="rgb(0,0,0)" />
	<path d="M6649,5305.02 6959,5484.02 6959,5552 6649,5552 6649,5305.02 z " fill-rule="evenodd" fill="rgb(255,0,0)" stroke-width="5" stroke="rgb(0,0,0)" />
	<path d="M7273,5305.02 7583,5484.02 7583,5552 7273,5552 7273,5305.02 z " fill-rule="evenodd" fill="rgb(255,0,0)" stroke-width="5" stroke="rgb(0,0,0)" />
	<path d="M7897,5305.02 8207,5484.02 8207,5552 7897,5552 7897,5305.02 z " fill-rule="evenodd" fill="rgb(255,0,0)" stroke-width="5" stroke="rgb(0,0,0)" />
	<path d="M8521,5305.02 8600,5350.64 8600,5552 8521,5552 8521,5305.02 z " fill-rule="evenodd" fill="rgb(255,0,0)" stroke-width="5" stroke="rgb(0,0,0)" />
	<path d="M2965.04,6052 3100,6052 3100,6129.93 2965.04,6052 z " fill-rule="evenodd" fill="rgb(255,0,0)" stroke-width="5" stroke="rgb(0,0,0)" />
	<path d="M2905,6374.64 2905,6052 2961.04,6052 3100,6132.24 3100,6487.24 2905,6374.64 z " fill-rule="evenodd" fill="rgb(255,0,0)" stroke-width="5" stroke="rgb(0,0,0)" />
	<path d="M2905,6731.95 2905,6376.95 3100,6489.55 3100,6844.55 2905,6731.95 z " fill-rule="evenodd" fill="rgb(255,0,0)" stroke-width="5" stroke="rgb(0,0,0)" />
	<path d="M409,6734.26 719,6913.26 719,6952 409,6952 409,6734.26 z " fill-rule="evenodd" fill="rgb(255,0,0)" stroke-width="5" stroke="rgb(0,0,0)" />
	<path d="M1033,6734.26 1343,6913.26 1343,6952 1033,6952 1033,6734.26 z " fill-rule="evenodd" fill="rgb(255,0,0)" stroke-width="5" stroke="rgb(0,0,0)" />
	<path d="M1657,6734.26 1967,6913.26 1967,6952 1657,6952 1657,6734.26 z " fill-rule="evenodd" fill="rgb(255,0,0)" stroke-width="5" stroke="rgb(0,0,0)" />
	<path d="M2281,6734.26 2591,6913.26 2591,6952 2281,6952 2281,6734.26 z " fill-rule="evenodd" fill="rgb(255,0,0)" stroke-width="5" stroke="rgb(0,0,0)" />
	<path d="M2905,6734.26 3100,6846.86 3100,6852 2905,6852 2905,6734.26 z " fill-rule="evenodd" fill="rgb(255,0,0)" stroke-width="5" stroke="rgb(0,0,0)" />
	<path d="M2903,657.691 2593,836.691 2593,481.691 2798.5,363.029 2903,405.413 2903,657.691 z " fill-rule="evenodd" fill="rgb(255,0,0)" stroke-width="5" stroke="rgb(0,0,0)" />
	<path d="M3217,836.691 3217,532.769 3437,622 3390.56,736.474 3217,836.691 z " fill-rule="evenodd" fill="rgb(255,0,0)" stroke-width="5" stroke="rgb(0,0,0)" />
	<path d="M3841,836.691 3841,786.683 3891.85,807.329 3841,836.691 z " fill-rule="evenodd" fill="rgb(255,0,0)" stroke-width="5" stroke="rgb(0,0,0)" />
	<path d="M3527,1015 3341.64,1122.03 3527,664.932 3527,1015 z " fill-rule="evenodd" fill="rgb(255,0,0)" stroke-width="5" stroke="rgb(0,0,0)" />
	<path d="M3217,839 3389.34,739.489 3217,1164.3 3217,839 z " fill-rule="evenodd" fill="rgb(255,0,0)" stroke-width="5" stroke="rgb(0,0,0)" />
	<path d="M4151,1015 3841,1194 3841,839 3894.2,808.283 4151,912.553 4151,1015 z " fill-rule="evenodd" fill="rgb(255,0,0)" stroke-width="5" stroke="rgb(0,0,0)" />
	<path d="M3527,1372.31 3217,1551.31 3217,1429.38 3340.41,1125.05 3527,1017.31 3527,1372.31 z " fill-rule="evenodd" fill="rgb(255,0,0)" stroke-width="5" stroke="rgb(0,0,0)" />
	<path d="M2279,300.381 2150,374.868 2150,100 2279,152.322 2279,300.381 z " fill-rule="evenodd" fill="rgb(255,0,0)" stroke-width="5" stroke="rgb(0,0,0)" />
	<path d="M2593,479.381 2593,279.678 2796.15,362.076 2593,479.381 z " fill-rule="evenodd" fill="rgb(255,0,0)" stroke-width="5" stroke="rgb(0,0,0)" />
	<path d="M2279,657.691 2150,732.178 2150,377.178 2279,302.691 2279,657.691 z " fill-rule="evenodd" fill="rgb(255,0,0)" stroke-width="5" stroke="rgb(0,0,0)" />
	<path d="M2279,1015 2150,1089.49 2150,734.487 2279,660 2279,1015 z " fill-rule="evenodd" fill="rgb(255,0,0)" stroke-width="5" stroke="rgb(0,0,0)" />
	<path d="M4465,1194 4465,1040.05 4621.54,1103.61 4465,1194 z " fill-rule="evenodd" fill="rgb(255,0,0)" stroke-width="5" stroke="rgb(0,0,0)" />
	<path d="M2279,1372.31 2150,1446.8 2150,1091.8 2279,1017.31 2279,1372.31 z " fill-rule="evenodd" fill="rgb(255,0,0)" stroke-width="5" stroke="rgb(0,0,0)" />
	<path d="M4775,1372.31 4465,1551.31 4465,1196.31 4623.89,1104.56 4775,1165.92 4775,1372.31 z " fill-rule="evenodd" fill="rgb(255,0,0)" stroke-width="5" stroke="rgb(0,0,0)" />
	<path d="M2279,1729.62 1969,1908.62 1969,1602 2150,1602 2150,1449.11 2279,1374.62 2279,1729.62 z " fill-rule="evenodd" fill="rgb(255,0,0)" stroke-width="5" stroke="rgb(0,0,0)" />
	<path d="M1345,1551.31 1345,1502 1400,1502 1400,1519.55 1345,1551.31 z " fill-rule="evenodd" fill="rgb(255,0,0)" stroke-width="5" stroke="rgb(0,0,0)" />
	<path d="M5089,1551.31 5089,1293.41 5351.23,1399.89 5089,1551.31 z " fill-rule="evenodd" fill="rgb(255,0,0)" stroke-width="5" stroke="rgb(0,0,0)" />
	<path d="M1655,1729.62 1345,1908.62 1345,1553.62 1400,1521.86 1400,1602 1655,1602 1655,1729.62 z " fill-rule="evenodd" fill="rgb(255,0,0)" stroke-width="5" stroke="rgb(0,0,0)" />
	<path d="M5399,1729.62 5089,1908.62 5089,1553.62 5353.58,1400.84 5399,1419.28 5399,1729.62 z " fill-rule="evenodd" fill="rgb(255,0,0)" stroke-width="5" stroke="rgb(0,0,0)" />
	<path d="M721,1551.31 721,1502 806.396,1502 721,1551.31 z " fill-rule="evenodd" fill="rgb(255,0,0)" stroke-width="5" stroke="rgb(0,0,0)" />
	<path d="M1031,1729.62 721,1908.62 721,1553.62 810.396,1502 1031,1502 1031,1729.62 z " fill-rule="evenodd" fill="rgb(255,0,0)" stroke-width="5" stroke="rgb(0,0,0)" />
	<path d="M5713,1551.31 5713,1546.78 5717.61,1548.65 5713,1551.31 z " fill-rule="evenodd" fill="rgb(255,0,0)" stroke-width="5" stroke="rgb(0,0,0)" />
	<path d="M6023,1729.62 5713,1908.62 5713,1553.62 5719.96,1549.6 6023,1672.65 6023,1729.62 z " fill-rule="evenodd" fill="rgb(255,0,0)" stroke-width="5" stroke="rgb(0,0,0)" />
	<path d="M407,1729.62 100,1906.89 100,1602 407,1602 407,1729.62 z " fill-rule="evenodd" fill="rgb(255,0,0)" stroke-width="5" stroke="rgb(0,0,0)" />
	<path d="M407,2086.93 100,2264.2 100,1909.2 407,1731.93 407,2086.93 z " fill-rule="evenodd" fill="rgb(255,0,0)" stroke-width="5" stroke="rgb(0,0,0)" />
	<path d="M6337,1908.62 6337,1800.14 6447.3,1844.93 6337,1908.62 z " fill-rule="evenodd" fill="rgb(255,0,0)" stroke-width="5" stroke="rgb(0,0,0)" />
	<path d="M6647,2086.93 6337,2265.93 6337,1910.93 6449.65,1845.88 6647,1926.01 6647,2086.93 z " fill-rule="evenodd" fill="rgb(255,0,0)" stroke-width="5" stroke="rgb(0,0,0)" />
	<path d="M407,2444.24 100,2621.51 100,2266.51 407,2089.24 407,2444.24 z " fill-rule="evenodd" fill="rgb(255,0,0)" stroke-width="5" stroke="rgb(0,0,0)" />
	<path d="M407,2801.55 146.44,2952 100,2952 100,2623.82 407,2446.55 407,2801.55 z " fill-rule="evenodd" fill="rgb(255,0,0)" stroke-width="5" stroke="rgb(0,0,0)" />
	<path d="M1031,2801.55 770.44,2952 721,2952 721,2625.55 1031,2446.55 1031,2801.55 z " fill-rule="evenodd" fill="rgb(255,0,0)" stroke-width="5" stroke="rgb(0,0,0)" />
	<path d="M1655,2801.55 1394.44,2952 1345,2952 1345,2625.55 1655,2446.55 1655,2801.55 z " fill-rule="evenodd" fill="rgb(255,0,0)" stroke-width="5" stroke="rgb(0,0,0)" />
	<path d="M2279,2801.55 2018.44,2952 1969,2952 1969,2625.55 2279,2446.55 2279,2801.55 z " fill-rule="evenodd" fill="rgb(255,0,0)" stroke-width="5" stroke="rgb(0,0,0)" />
	<path d="M3527,2801.55 3266.44,2952 3217,2952 3217,2625.55 3527,2446.55 3527,2801.55 z " fill-rule="evenodd" fill="rgb(255,0,0)" stroke-width="5" stroke="rgb(0,0,0)" />
	<path d="M4151,2801.55 3890.44,2952 3841,2952 3841,2625.55 4151,2446.55 4151,2801.55 z " fill-rule="evenodd" fill="rgb(255,0,0)" stroke-width="5" stroke="rgb(0,0,0)" />
	<path d="M6961,2265.93 6961,2053.51 7176.99,2141.21 6961,2265.93 z " fill-rule="evenodd" fill="rgb(255,0,0)" stroke-width="5" stroke="rgb(0,0,0)" />
	<path d="M7271,2444.24 6961,2623.24 6961,2268.24 7179.34,2142.16 7271,2179.38 7271,2444.24 z " fill-rule="evenodd" fill="rgb(255,0,0)" stroke-width="5" stroke="rgb(0,0,0)" />
	<path d="M407,2952 150.439,2952 407,2803.86 407,2952 z " fill-rule="evenodd" fill="rgb(255,0,0)" stroke-width="5" stroke="rgb(0,0,0)" />
	<path d="M407,3158.86 100,3336.12 100,3152 407,3152 407,3158.86 z " fill-rule="evenodd" fill="rgb(255,0,0)" stroke-width="5" stroke="rgb(0,0,0)" />
	<path d="M1031,2952 774.439,2952 1031,2803.86 1031,2952 z " fill-rule="evenodd" fill="rgb(255,0,0)" stroke-width="5" stroke="rgb(0,0,0)" />
	<path d="M1031,3158.86 721,3337.86 721,3152 1031,3152 1031,3158.86 z " fill-rule="evenodd" fill="rgb(255,0,0)" stroke-width="5" stroke="rgb(0,0,0)" />
	<path d="M1655,2952 1398.44,2952 1655,2803.86 1655,2952 z " fill-rule="evenodd" fill="rgb(255,0,0)" stroke-width="5" stroke="rgb(0,0,0)" />
	<path d="M1655,3158.86 1345,3337.86 1345,3152 1655,3152 1655,3158.86 z " fill-rule="evenodd" fill="rgb(255,0,0)" stroke-width="5" stroke="rgb(0,0,0)" />
	<path d="M2279,3158.86 1969,3337.86 1969,3152 2050,3152 2050,2952 2022.44,2952 2279,2803.86 2279,3158.86 z " fill-rule="evenodd" fill="rgb(255,0,0)" stroke-width="5" stroke="rgb(0,0,0)" />
	<path d="M2903,2952 2850,2952 2850,3152 2900,3152 2900,3160.59 2593,3337.86 2593,2982.86 2903,2803.86 2903,2952 z " fill-rule="evenodd" fill="rgb(255,0,0)" stroke-width="5" stroke="rgb(0,0,0)" />
	<path d="M3527,2952 3270.44,2952 3527,2803.86 3527,2952 z " fill-rule="evenodd" fill="rgb(255,0,0)" stroke-width="5" stroke="rgb(0,0,0)" />
	<path d="M4151,2952 3894.44,2952 4151,2803.86 4151,2952 z " fill-rule="evenodd" fill="rgb(255,0,0)" stroke-width="5" stroke="rgb(0,0,0)" />
	<path d="M4151,3158.86 3841,3337.86 3841,3052 4151,3052 4151,3158.86 z " fill-rule="evenodd" fill="rgb(255,0,0)" stroke-width="5" stroke="rgb(0,0,0)" />
	<path d="M7895,2444.24 7585,2623.24 7585,2306.88 7895,2432.75 7895,2444.24 z " fill-rule="evenodd" fill="rgb(255,0,0)" stroke-width="5" stroke="rgb(0,0,0)" />
	<path d="M407,3516.17 100,3693.43 100,3338.43 407,3161.17 407,3516.17 z " fill-rule="evenodd" fill="rgb(255,0,0)" stroke-width="5" stroke="rgb(0,0,0)" />
	<path d="M2593,3695.17 2593,3340.17 2900,3162.9 2900,3517.9 2593,3695.17 z " fill-rule="evenodd" fill="rgb(255,0,0)" stroke-width="5" stroke="rgb(0,0,0)" />
	<path d="M8209,2623.24 8209,2560.24 8273.06,2586.25 8209,2623.24 z " fill-rule="evenodd" fill="rgb(255,0,0)" stroke-width="5" stroke="rgb(0,0,0)" />
	<path d="M8519,2801.55 8209,2980.55 8209,2625.55 8275.41,2587.2 8519,2686.11 8519,2801.55 z " fill-rule="evenodd" fill="rgb(255,0,0)" stroke-width="5" stroke="rgb(0,0,0)" />
	<path d="M407,3873.48 100,4050.74 100,3695.74 407,3518.48 407,3873.48 z " fill-rule="evenodd" fill="rgb(255,0,0)" stroke-width="5" stroke="rgb(0,0,0)" />
	<path d="M2593,4052.48 2593,3697.48 2900,3520.21 2900,3875.21 2593,4052.48 z " fill-rule="evenodd" fill="rgb(255,0,0)" stroke-width="5" stroke="rgb(0,0,0)" />
	<path d="M407,4230.79 100,4408.05 100,4053.05 407,3875.79 407,4230.79 z " fill-rule="evenodd" fill="rgb(255,0,0)" stroke-width="5" stroke="rgb(0,0,0)" />
	<path d="M2593,4409.79 2593,4054.79 2900,3877.52 2900,4232.52 2593,4409.79 z " fill-rule="evenodd" fill="rgb(255,0,0)" stroke-width="5" stroke="rgb(0,0,0)" />
	<path d="M407,4588.09 100,4765.36 100,4410.36 407,4233.09 407,4588.09 z " fill-rule="evenodd" fill="rgb(255,0,0)" stroke-width="5" stroke="rgb(0,0,0)" />
	<path d="M2593,4767.09 2593,4412.09 2900,4234.83 2900,4589.83 2593,4767.09 z " fill-rule="evenodd" fill="rgb(255,0,0)" stroke-width="5" stroke="rgb(0,0,0)" />
	<path d="M407,4945.4 100,5122.67 100,4767.67 407,4590.4 407,4945.4 z " fill-rule="evenodd" fill="rgb(255,0,0)" stroke-width="5" stroke="rgb(0,0,0)" />
	<path d="M2593,5124.4 2593,4769.4 2900,4592.14 2900,4947.14 2593,5124.4 z " fill-rule="evenodd" fill="rgb(255,0,0)" stroke-width="5" stroke="rgb(0,0,0)" />
	<path d="M4151,4945.4 4139.58,4952 3841,4952 3841,4769.4 4151,4590.4 4151,4945.4 z " fill-rule="evenodd" fill="rgb(255,0,0)" stroke-width="5" stroke="rgb(0,0,0)" />
	<path d="M4775,4945.4 4763.58,4952 4465,4952 4465,4769.4 4775,4590.4 4775,4945.4 z " fill-rule="evenodd" fill="rgb(255,0,0)" stroke-width="5" stroke="rgb(0,0,0)" />
	<path d="M407,5302.71 100,5479.98 100,5124.98 407,4947.71 407,5302.71 z " fill-rule="evenodd" fill="rgb(255,0,0)" stroke-width="5" stroke="rgb(0,0,0)" />
	<path d="M2593,5481.71 2593,5126.71 2900,4949.45 2900,5304.45 2593,5481.71 z " fill-rule="evenodd" fill="rgb(255,0,0)" stroke-width="5" stroke="rgb(0,0,0)" />
	<path d="M4151,4952 4143.58,4952 4151,4947.71 4151,4952 z " fill-rule="evenodd" fill="rgb(255,0,0)" stroke-width="5" stroke="rgb(0,0,0)" />
	<path d="M4775,4952 4767.58,4952 4775,4947.71 4775,4952 z " fill-rule="evenodd" fill="rgb(255,0,0)" stroke-width="5" stroke="rgb(0,0,0)" />
	<path d="M407,5660.02 100,5837.29 100,5482.29 407,5305.02 407,5660.02 z " fill-rule="evenodd" fill="rgb(255,0,0)" stroke-width="5" stroke="rgb(0,0,0)" />
	<path d="M2593,5839.02 2593,5484.02 2900,5306.76 2900,5661.76 2593,5839.02 z " fill-rule="evenodd" fill="rgb(255,0,0)" stroke-width="5" stroke="rgb(0,0,0)" />
	<path d="M5399,5552 5089,5552 5089,5484.02 5399,5305.02 5399,5552 z " fill-rule="evenodd" fill="rgb(255,0,0)" stroke-width="5" stroke="rgb(0,0,0)" />
	<path d="M6023,5552 5713,5552 5713,5484.02 6023,5305.02 6023,5552 z " fill-rule="evenodd" fill="rgb(255,0,0)" stroke-width="5" stroke="rgb(0,0,0)" />
	<path d="M6647,5552 6337,5552 6337,5484.02 6647,5305.02 6647,5552 z " fill-rule="evenodd" fill="rgb(255,0,0)" stroke-width="5" stroke="rgb(0,0,0)" />
	<path d="M7271,5552 6961,5552 6961,5484.02 7271,5305.02 7271,5552 z " fill-rule="evenodd" fill="rgb(255,0,0)" stroke-width="5" stroke="rgb(0,0,0)" />
	<path d="M7895,5552 7585,5552 7585,5484.02 7895,5305.02 7895,5552 z " fill-rule="evenodd" fill="rgb(255,0,0)" stroke-width="5" stroke="rgb(0,0,0)" />
	<path d="M8519,5552 8209,5552 8209,5484.02 8519,5305.02 8519,5552 z " fill-rule="evenodd" fill="rgb(255,0,0)" stroke-width="5" stroke="rgb(0,0,0)" />
	<path d="M407,6017.33 100,6194.6 100,5839.6 407,5662.33 407,6017.33 z " fill-rule="evenodd" fill="rgb(255,0,0)" stroke-width="5" stroke="rgb(0,0,0)" />
	<path d="M2593,6196.33 2593,5841.33 2900,5664.06 2900,6019.06 2593,6196.33 z " fill-rule="evenodd" fill="rgb(255,0,0)" stroke-width="5" stroke="rgb(0,0,0)" />
	<path d="M407,6374.64 100,6551.91 100,6196.91 407,6019.64 407,6374.64 z " fill-rule="evenodd" fill="rgb(255,0,0)" stroke-width="5" stroke="rgb(0,0,0)" />
	<path d="M2903,6374.64 2593,6553.64 2593,6198.64 2900,6021.37 2900,6052 2903,6052 2903,6374.64 z " fill-rule="evenodd" fill="rgb(255,0,0)" stroke-width="5" stroke="rgb(0,0,0)" />
	<path d="M407,6731.95 100,6909.22 100,6554.22 407,6376.95 407,6731.95 z " fill-rule="evenodd" fill="rgb(255,0,0)" stroke-width="5" stroke="rgb(0,0,0)" />
	<path d="M407,6952 100,6952 100,6911.53 407,6734.26 407,6952 z " fill-rule="evenodd" fill="rgb(255,0,0)" stroke-width="5" stroke="rgb(0,0,0)" />
	<path d="M1031,6952 721,6952 721,6913.26 1031,6734.26 1031,6952 z " fill-rule="evenodd" fill="rgb(255,0,0)" stroke-width="5" stroke="rgb(0,0,0)" />
	<path d="M1655,6952 1345,6952 1345,6913.26 1655,6734.26 1655,6952 z " fill-rule="evenodd" fill="rgb(255,0,0)" stroke-width="5" stroke="rgb(0,0,0)" />
	<path d="M2279,6952 1969,6952 1969,6913.26 2279,6734.26 2279,6952 z " fill-rule="evenodd" fill="rgb(255,0,0)" stroke-width="5" stroke="rgb(0,0,0)" />
	<path d="M2903,6852 2900,6852 2900,6952 2593,6952 2593,6913.26 2903,6734.26 2903,6852 z " fill-rule="evenodd" fill="rgb(255,0,0)" stroke-width="5" stroke="rgb(0,0,0)" />
	<polyline points="3524,665 3524,1020 3524,665 3879,665 3524,665 " fill="none" stroke-width="100" stroke="rgb(0,0,0)" />
	<circle cx="3524" cy="665" r="-5.91667" fill="rgb(0,0,0)" />
	<circle cx="3524" cy="1020" r="-5.91667" fill="rgb(0,0,0)" />
	<circle cx="3524" cy="665" r="-5.91667" fill="rgb(0,0,0)" />
	<circle cx="3879" cy="665" r="-5.91667" fill="rgb(0,0,0)" />
	<circle cx="3524" cy="665" r="-5.91667" fill="rgb(0,0,0)" />
	<polyline points="3524,1055.5 3524,665 3133.5,665 " fill="none" stroke-width="0.5" stroke="rgb(128,0,128)" />
</svg>
