<?xml version="1.0" standalone="no" ?>
<!DOCTYPE svg PUBLIC "-//W3C//DTD SVG 1.1//EN" "http://www.w3.org/Graphics/SVG/1.1/DTD/svg11.dtd">
<svg width="1435px" height="18855px" xmlns="http://www.w3.org/2000/svg" version="1.1" >
	<path d="M100,18755 455,18755 634,18445 279,18445 z " fill-rule="evenodd" fill="rgb(255,255,255)" stroke-width="10" stroke="rgb(0,0,0)" />
	<path d="M100,18414 455,18414 634,18104 279,18104 z " fill-rule="evenodd" fill="rgb(255,255,255)" stroke-width="10" stroke="rgb(0,0,0)" />
	<path d="M100,18073 455,18073 634,17763 279,17763 z " fill-rule="evenodd" fill="rgb(255,255,255)" stroke-width="10" stroke="rgb(0,0,0)" />
	<path d="M100,17732 455,17732 634,17422 279,17422 z " fill-rule="evenodd" fill="rgb(255,255,255)" stroke-width="10" stroke="rgb(0,0,0)" />
	<path d="M100,17391 455,17391 634,17081 279,17081 z " fill-rule="evenodd" fill="rgb(255,255,255)" stroke-width="10" stroke="rgb(0,0,0)" />
	<path d="M100,17050 455,17050 634,16740 279,16740 z " fill-rule="evenodd" fill="rgb(255,255,255)" stroke-width="10" stroke="rgb(0,0,0)" />
	<path d="M100,16709 455,16709 634,16399 279,16399 z " fill-rule="evenodd" fill="rgb(255,255,255)" stroke-width="10" stroke="rgb(0,0,0)" />
	<path d="M100,16368 455,16368 634,16058 279,16058 z " fill-rule="evenodd" fill="rgb(255,255,255)" stroke-width="10" stroke="rgb(0,0,0)" />
	<path d="M100,16027 455,16027 634,15717 279,15717 z " fill-rule="evenodd" fill="rgb(255,255,255)" stroke-width="10" stroke="rgb(0,0,0)" />
	<path d="M100,15686 455,15686 634,15376 279,15376 z " fill-rule="evenodd" fill="rgb(255,255,255)" stroke-width="10" stroke="rgb(0,0,0)" />
	<path d="M100,15345 455,15345 634,15035 279,15035 z " fill-rule="evenodd" fill="rgb(255,255,255)" stroke-width="10" stroke="rgb(0,0,0)" />
	<path d="M100,15004 455,15004 634,14694 279,14694 z " fill-rule="evenodd" fill="rgb(255,255,255)" stroke-width="10" stroke="rgb(0,0,0)" />
	<path d="M100,14663 455,14663 634,14353 279,14353 z " fill-rule="evenodd" fill="rgb(255,255,255)" stroke-width="10" stroke="rgb(0,0,0)" />
	<path d="M100,14322 455,14322 634,14012 279,14012 z " fill-rule="evenodd" fill="rgb(255,255,255)" stroke-width="10" stroke="rgb(0,0,0)" />
	<path d="M100,13981 455,13981 634,13671 279,13671 z " fill-rule="evenodd" fill="rgb(255,255,255)" stroke-width="10" stroke="rgb(0,0,0)" />
	<path d="M100,13640 455,13640 634,13330 279,13330 z " fill-rule="evenodd" fill="rgb(255,255,255)" stroke-width="10" stroke="rgb(0,0,0)" />
	<path d="M100,13299 455,13299 634,12989 279,12989 z " fill-rule="evenodd" fill="rgb(255,255,255)" stroke-width="10" stroke="rgb(0,0,0)" />
	<path d="M100,12958 455,12958 634,12648 279,12648 z " fill-rule="evenodd" fill="rgb(255,255,255)" stroke-width="10" stroke="rgb(0,0,0)" />
	<path d="M100,12617 455,12617 634,12307 279,12307 z " fill-rule="evenodd" fill="rgb(255,255,255)" stroke-width="10" stroke="rgb(0,0,0)" />
	<path d="M100,12276 455,12276 634,11966 279,11966 z " fill-rule="evenodd" fill="rgb(255,255,255)" stroke-width="10" stroke="rgb(0,0,0)" />
	<path d="M100,11935 455,11935 634,11625 279,11625 z " fill-rule="evenodd" fill="rgb(255,255,255)" stroke-width="10" stroke="rgb(0,0,0)" />
	<path d="M100,11594 455,11594 634,11284 279,11284 z " fill-rule="evenodd" fill="rgb(255,255,255)" stroke-width="10" stroke="rgb(0,0,0)" />
	<path d="M100,11253 455,11253 634,10943 279,10943 z " fill-rule="evenodd" fill="rgb(255,255,255)" stroke-width="10" stroke="rgb(0,0,0)" />
	<path d="M100,10912 455,10912 634,10602 279,10602 z " fill-rule="evenodd" fill="rgb(255,255,255)" stroke-width="10" stroke="rgb(0,0,0)" />
	<path d="M100,10571 455,10571 634,10261 279,10261 z " fill-rule="evenodd" fill="rgb(255,255,255)" stroke-width="10" stroke="rgb(0,0,0)" />
	<path d="M100,10230 455,10230 634,9920 279,9920 z " fill-rule="evenodd" fill="rgb(255,255,255)" stroke-width="10" stroke="rgb(0,0,0)" />
	<path d="M100,9889 455,9889 634,9579 279,9579 z " fill-rule="evenodd" fill="rgb(255,255,255)" stroke-width="10" stroke="rgb(0,0,0)" />
	<path d="M100,9548 455,9548 634,9238 279,9238 z " fill-rule="evenodd" fill="rgb(255,255,255)" stroke-width="10" stroke="rgb(0,0,0)" />
	<path d="M100,9207 455,9207 634,8897 279,8897 z " fill-rule="evenodd" fill="rgb(255,255,255)" stroke-width="10" stroke="rgb(0,0,0)" />
	<path d="M100,8866 455,8866 634,8556 279,8556 z " fill-rule="evenodd" fill="rgb(255,255,255)" stroke-width="10" stroke="rgb(0,0,0)" />
	<path d="M100,8525 455,8525 634,8215 279,8215 z " fill-rule="evenodd" fill="rgb(255,255,255)" stroke-width="10" stroke="rgb(0,0,0)" />
	<path d="M100,8184 455,8184 634,7874 279,7874 z " fill-rule="evenodd" fill="rgb(255,255,255)" stroke-width="10" stroke="rgb(0,0,0)" />
	<path d="M100,7843 455,7843 634,7533 279,7533 z " fill-rule="evenodd" fill="rgb(255,255,255)" stroke-width="10" stroke="rgb(0,0,0)" />
	<path d="M100,7502 455,7502 634,7192 279,7192 z " fill-rule="evenodd" fill="rgb(255,255,255)" stroke-width="10" stroke="rgb(0,0,0)" />
	<path d="M100,7161 455,7161 634,6851 279,6851 z " fill-rule="evenodd" fill="rgb(255,255,255)" stroke-width="10" stroke="rgb(0,0,0)" />
	<path d="M100,6820 455,6820 634,6510 279,6510 z " fill-rule="evenodd" fill="rgb(255,255,255)" stroke-width="10" stroke="rgb(0,0,0)" />
	<path d="M100,6479 455,6479 634,6169 279,6169 z " fill-rule="evenodd" fill="rgb(255,255,255)" stroke-width="10" stroke="rgb(0,0,0)" />
	<path d="M100,6138 455,6138 634,5828 279,5828 z " fill-rule="evenodd" fill="rgb(255,255,255)" stroke-width="10" stroke="rgb(0,0,0)" />
	<path d="M866.4,18755 1221.4,18755 1042.4,18445 687.4,18445 z " fill-rule="evenodd" fill="rgb(255,255,255)" stroke-width="10" stroke="rgb(0,0,0)" />
	<path d="M866.4,18414 1221.4,18414 1042.4,18104 687.4,18104 z " fill-rule="evenodd" fill="rgb(255,255,255)" stroke-width="10" stroke="rgb(0,0,0)" />
	<path d="M866.4,18073 1221.4,18073 1042.4,17763 687.4,17763 z " fill-rule="evenodd" fill="rgb(255,255,255)" stroke-width="10" stroke="rgb(0,0,0)" />
	<path d="M866.4,17732 1221.4,17732 1042.4,17422 687.4,17422 z " fill-rule="evenodd" fill="rgb(255,255,255)" stroke-width="10" stroke="rgb(0,0,0)" />
	<path d="M866.4,17391 1221.4,17391 1042.4,17081 687.4,17081 z " fill-rule="evenodd" fill="rgb(255,255,255)" stroke-width="10" stroke="rgb(0,0,0)" />
	<path d="M866.4,17050 1221.4,17050 1042.4,16740 687.4,16740 z " fill-rule="evenodd" fill="rgb(255,255,255)" stroke-width="10" stroke="rgb(0,0,0)" />
	<path d="M866.4,16709 1221.4,16709 1042.4,16399 687.4,16399 z " fill-rule="evenodd" fill="rgb(255,255,255)" stroke-width="10" stroke="rgb(0,0,0)" />
	<path d="M866.4,16368 1221.4,16368 1042.4,16058 687.4,16058 z " fill-rule="evenodd" fill="rgb(255,255,255)" stroke-width="10" stroke="rgb(0,0,0)" />
	<path d="M866.4,16027 1221.4,16027 1042.4,15717 687.4,15717 z " fill-rule="evenodd" fill="rgb(255,255,255)" stroke-width="10" stroke="rgb(0,0,0)" />
	<path d="M866.4,15686 1221.4,15686 1042.4,15376 687.4,15376 z " fill-rule="evenodd" fill="rgb(255,255,255)" stroke-width="10" stroke="rgb(0,0,0)" />
	<path d="M866.4,15345 1221.4,15345 1042.4,15035 687.4,15035 z " fill-rule="evenodd" fill="rgb(255,255,255)" stroke-width="10" stroke="rgb(0,0,0)" />
	<path d="M866.4,15004 1221.4,15004 1042.4,14694 687.4,14694 z " fill-rule="evenodd" fill="rgb(255,255,255)" stroke-width="10" stroke="rgb(0,0,0)" />
	<path d="M866.4,14663 1221.4,14663 1042.4,14353 687.4,14353 z " fill-rule="evenodd" fill="rgb(255,255,255)" stroke-width="10" stroke="rgb(0,0,0)" />
	<path d="M866.4,14322 1221.4,14322 1042.4,14012 687.4,14012 z " fill-rule="evenodd" fill="rgb(255,255,255)" stroke-width="10" stroke="rgb(0,0,0)" />
	<path d="M866.4,13981 1221.4,13981 1042.4,13671 687.4,13671 z " fill-rule="evenodd" fill="rgb(255,255,255)" stroke-width="10" stroke="rgb(0,0,0)" />
	<path d="M866.4,13640 1221.4,13640 1042.4,13330 687.4,13330 z " fill-rule="evenodd" fill="rgb(255,255,255)" stroke-width="10" stroke="rgb(0,0,0)" />
	<path d="M866.4,13299 1221.4,13299 1042.4,12989 687.4,12989 z " fill-rule="evenodd" fill="rgb(255,255,255)" stroke-width="10" stroke="rgb(0,0,0)" />
	<path d="M866.4,12958 1221.4,12958 1042.4,12648 687.4,12648 z " fill-rule="evenodd" fill="rgb(255,255,255)" stroke-width="10" stroke="rgb(0,0,0)" />
	<path d="M866.4,12617 1221.4,12617 1042.4,12307 687.4,12307 z " fill-rule="evenodd" fill="rgb(255,255,255)" stroke-width="10" stroke="rgb(0,0,0)" />
	<path d="M866.4,12276 1221.4,12276 1042.4,11966 687.4,11966 z " fill-rule="evenodd" fill="rgb(255,255,255)" stroke-width="10" stroke="rgb(0,0,0)" />
	<path d="M866.4,11935 1221.4,11935 1042.4,11625 687.4,11625 z " fill-rule="evenodd" fill="rgb(255,255,255)" stroke-width="10" stroke="rgb(0,0,0)" />
	<path d="M866.4,11594 1221.4,11594 1042.4,11284 687.4,11284 z " fill-rule="evenodd" fill="rgb(255,255,255)" stroke-width="10" stroke="rgb(0,0,0)" />
	<path d="M866.4,11253 1221.4,11253 1042.4,10943 687.4,10943 z " fill-rule="evenodd" fill="rgb(255,255,255)" stroke-width="10" stroke="rgb(0,0,0)" />
	<path d="M866.4,10912 1221.4,10912 1042.4,10602 687.4,10602 z " fill-rule="evenodd" fill="rgb(255,255,255)" stroke-width="10" stroke="rgb(0,0,0)" />
	<path d="M866.4,10571 1221.4,10571 1042.4,10261 687.4,10261 z " fill-rule="evenodd" fill="rgb(255,255,255)" stroke-width="10" stroke="rgb(0,0,0)" />
	<path d="M866.4,10230 1221.4,10230 1042.4,9920 687.4,9920 z " fill-rule="evenodd" fill="rgb(255,255,255)" stroke-width="10" stroke="rgb(0,0,0)" />
	<path d="M866.4,9889 1221.4,9889 1042.4,9579 687.4,9579 z " fill-rule="evenodd" fill="rgb(255,255,255)" stroke-width="10" stroke="rgb(0,0,0)" />
	<path d="M866.4,9548 1221.4,9548 1042.4,9238 687.4,9238 z " fill-rule="evenodd" fill="rgb(255,255,255)" stroke-width="10" stroke="rgb(0,0,0)" />
	<path d="M866.4,9207 1221.4,9207 1042.4,8897 687.4,8897 z " fill-rule="evenodd" fill="rgb(255,255,255)" stroke-width="10" stroke="rgb(0,0,0)" />
	<path d="M866.4,8866 1221.4,8866 1042.4,8556 687.4,8556 z " fill-rule="evenodd" fill="rgb(255,255,255)" stroke-width="10" stroke="rgb(0,0,0)" />
	<path d="M866.4,8525 1221.4,8525 1042.4,8215 687.4,8215 z " fill-rule="evenodd" fill="rgb(255,255,255)" stroke-width="10" stroke="rgb(0,0,0)" />
	<path d="M866.4,8184 1221.4,8184 1042.4,7874 687.4,7874 z " fill-rule="evenodd" fill="rgb(255,255,255)" stroke-width="10" stroke="rgb(0,0,0)" />
	<path d="M866.4,7843 1221.4,7843 1042.4,7533 687.4,7533 z " fill-rule="evenodd" fill="rgb(255,255,255)" stroke-width="10" stroke="rgb(0,0,0)" />
	<path d="M866.4,7502 1221.4,7502 1042.4,7192 687.4,7192 z " fill-rule="evenodd" fill="rgb(255,255,255)" stroke-width="10" stroke="rgb(0,0,0)" />
	<path d="M866.4,7161 1221.4,7161 1042.4,6851 687.4,6851 z " fill-rule="evenodd" fill="rgb(255,255,255)" stroke-width="10" stroke="rgb(0,0,0)" />
	<path d="M866.4,6820 1221.4,6820 1042.4,6510 687.4,6510 z " fill-rule="evenodd" fill="rgb(255,255,255)" stroke-width="10" stroke="rgb(0,0,0)" />
	<path d="M866.4,6479 1221.4,6479 1042.4,6169 687.4,6169 z " fill-rule="evenodd" fill="rgb(255,255,255)" stroke-width="10" stroke="rgb(0,0,0)" />
	<path d="M866.4,6138 1221.4,6138 1042.4,5828 687.4,5828 z " fill-rule="evenodd" fill="rgb(255,255,255)" stroke-width="10" stroke="rgb(0,0,0)" />
	<path d="M866.4,5797 1221.4,5797 1042.4,5487 687.4,5487 z " fill-rule="evenodd" fill="rgb(255,255,255)" stroke-width="10" stroke="rgb(0,0,0)" />
	<path d="M866.4,5456 1221.4,5456 1042.4,5146 687.4,5146 z " fill-rule="evenodd" fill="rgb(255,255,255)" stroke-width="10" stroke="rgb(0,0,0)" />
	<path d="M866.4,5115 1221.4,5115 1042.4,4805 687.4,4805 z " fill-rule="evenodd" fill="rgb(255,255,255)" stroke-width="10" stroke="rgb(0,0,0)" />
	<path d="M866.4,4774 1221.4,4774 1042.4,4464 687.4,4464 z " fill-rule="evenodd" fill="rgb(255,255,255)" stroke-width="10" stroke="rgb(0,0,0)" />
	<path d="M866.4,4433 1221.4,4433 1042.4,4123 687.4,4123 z " fill-rule="evenodd" fill="rgb(255,255,255)" stroke-width="10" stroke="rgb(0,0,0)" />
	<path d="M866.4,4092 1221.4,4092 1042.4,3782 687.4,3782 z " fill-rule="evenodd" fill="rgb(255,255,255)" stroke-width="10" stroke="rgb(0,0,0)" />
	<path d="M866.4,3751 1221.4,3751 1042.4,3441 687.4,3441 z " fill-rule="evenodd" fill="rgb(255,255,255)" stroke-width="10" stroke="rgb(0,0,0)" />
	<path d="M866.4,3410 1221.4,3410 1042.4,3100 687.4,3100 z " fill-rule="evenodd" fill="rgb(255,255,255)" stroke-width="10" stroke="rgb(0,0,0)" />
	<path d="M866.4,3069 1221.4,3069 1042.4,2759 687.4,2759 z " fill-rule="evenodd" fill="rgb(255,255,255)" stroke-width="10" stroke="rgb(0,0,0)" />
	<path d="M866.4,2728 1221.4,2728 1042.4,2418 687.4,2418 z " fill-rule="evenodd" fill="rgb(255,255,255)" stroke-width="10" stroke="rgb(0,0,0)" />
	<path d="M866.4,2387 1221.4,2387 1042.4,2077 687.4,2077 z " fill-rule="evenodd" fill="rgb(255,255,255)" stroke-width="10" stroke="rgb(0,0,0)" />
	<path d="M866.4,2046 1221.4,2046 1042.4,1736 687.4,1736 z " fill-rule="evenodd" fill="rgb(255,255,255)" stroke-width="10" stroke="rgb(0,0,0)" />
	<path d="M866.4,1705 1221.4,1705 1042.4,1395 687.4,1395 z " fill-rule="evenodd" fill="rgb(255,255,255)" stroke-width="10" stroke="rgb(0,0,0)" />
	<path d="M866.4,1364 1221.4,1364 1042.4,1054 687.4,1054 z " fill-rule="evenodd" fill="rgb(255,255,255)" stroke-width="10" stroke="rgb(0,0,0)" />
	<path d="M866.4,1023 1221.4,1023 1042.4,713 687.4,713 z " fill-rule="evenodd" fill="rgb(255,255,255)" stroke-width="10" stroke="rgb(0,0,0)" />
	<path d="M866.4,682 1221.4,682 1042.4,372 687.4,372 z " fill-rule="evenodd" fill="rgb(255,255,255)" stroke-width="10" stroke="rgb(0,0,0)" />
	<path d="M866.4,341 1221.4,341 1042.4,31 687.4,31 z " fill-rule="evenodd" fill="rgb(255,255,255)" stroke-width="10" stroke="rgb(0,0,0)" />
	<path d="M594.412,14694 415.412,15004 163.946,15004 289.68,14694 594.412,14694 z " fill-rule="evenodd" fill="rgb(255,0,0)" stroke-width="10" stroke="rgb(0,0,0)" />
	<path d="M588.394,14366.5 417.175,14663 537.574,14366.5 588.394,14366.5 z " fill-rule="evenodd" fill="rgb(255,0,0)" stroke-width="10" stroke="rgb(0,0,0)" />
	<path d="M455,14322 100,14322 279,14012 609.227,14012 629.298,14020.1 455,14322 z " fill-rule="evenodd" fill="rgb(255,0,0)" stroke-width="10" stroke="rgb(0,0,0)" />
	<path d="M593.865,13671 414.865,13981 313.231,13981 439.101,13671 593.865,13671 z " fill-rule="evenodd" fill="rgb(255,0,0)" stroke-width="10" stroke="rgb(0,0,0)" />
	<path d="M455,13640 100,13640 273.86,13338.9 561.484,13455.6 455,13640 z " fill-rule="evenodd" fill="rgb(255,0,0)" stroke-width="10" stroke="rgb(0,0,0)" />
	<path d="M530.349,5847.93 508.152,5886.37 413.354,5847.93 530.349,5847.93 z " fill-rule="evenodd" fill="rgb(255,0,0)" stroke-width="10" stroke="rgb(0,0,0)" />
	<path d="M479.514,12989 300.514,13299 153.266,13299 279,12989 479.514,12989 z " fill-rule="evenodd" fill="rgb(255,0,0)" stroke-width="10" stroke="rgb(0,0,0)" />
	<path d="M593.865,12648 414.865,12958 209.287,12958 335.157,12648 593.865,12648 z " fill-rule="evenodd" fill="rgb(255,0,0)" stroke-width="10" stroke="rgb(0,0,0)" />
	<path d="M279,8556 634,8556 455,8866 100,8866 206.046,8682.34 227.381,8691 227.381,8821 327.381,8821 327.381,8624 256.364,8595.2 279,8556 z " fill-rule="evenodd" fill="rgb(255,0,0)" stroke-width="10" stroke="rgb(0,0,0)" />
	<path d="M585.619,12307 406.619,12617 279,12617 279,12307 585.619,12307 z " fill-rule="evenodd" fill="rgb(255,0,0)" stroke-width="10" stroke="rgb(0,0,0)" />
	<path d="M623.453,11966 605.453,11997.2 618.11,11966 623.453,11966 z " fill-rule="evenodd" fill="rgb(255,0,0)" stroke-width="10" stroke="rgb(0,0,0)" />
	<path d="M279,8215 634,8215 455,8525 145.477,8525 253.219,8259.65 279,8215 z " fill-rule="evenodd" fill="rgb(255,0,0)" stroke-width="10" stroke="rgb(0,0,0)" />
	<path d="M103.956,13299 153.266,13213.6 153.266,13299 103.956,13299 z " fill-rule="evenodd" fill="rgb(255,0,0)" stroke-width="10" stroke="rgb(0,0,0)" />
	<path d="M279,11625 634,11625 455,11935 227.381,11935 227.381,11714.4 279,11625 z " fill-rule="evenodd" fill="rgb(255,0,0)" stroke-width="10" stroke="rgb(0,0,0)" />
	<path d="M100,12958 279,12648 335.157,12648 209.287,12958 100,12958 z " fill-rule="evenodd" fill="rgb(255,0,0)" stroke-width="10" stroke="rgb(0,0,0)" />
	<path d="M466.899,12598 455.928,12617 417.59,12617 417.59,12598 466.899,12598 z " fill-rule="evenodd" fill="rgb(255,0,0)" stroke-width="10" stroke="rgb(0,0,0)" />
	<path d="M279,11284 634,11284 455,11594 327.381,11594 327.381,11303 268.029,11303 279,11284 z " fill-rule="evenodd" fill="rgb(255,0,0)" stroke-width="10" stroke="rgb(0,0,0)" />
	<path d="M100,13981 279,13671 439.101,13671 313.231,13981 100,13981 z " fill-rule="evenodd" fill="rgb(255,0,0)" stroke-width="10" stroke="rgb(0,0,0)" />
	<path d="M455,8184 100,8184 279,7874 605.453,7874 605.453,7923.44 455,8184 z " fill-rule="evenodd" fill="rgb(255,0,0)" stroke-width="10" stroke="rgb(0,0,0)" />
	<path d="M455,7843 100,7843 279,7533 605.453,7533 605.453,7582.44 455,7843 z " fill-rule="evenodd" fill="rgb(255,0,0)" stroke-width="10" stroke="rgb(0,0,0)" />
	<path d="M455,7502 100,7502 279,7192 605.453,7192 605.453,7241.44 455,7502 z " fill-rule="evenodd" fill="rgb(255,0,0)" stroke-width="10" stroke="rgb(0,0,0)" />
	<path d="M455,7161 100,7161 279,6851 605.453,6851 605.453,6900.44 455,7161 z " fill-rule="evenodd" fill="rgb(255,0,0)" stroke-width="10" stroke="rgb(0,0,0)" />
	<path d="M455,12276 100,12276 279,11966 605.453,11966 605.453,12015.4 455,12276 z " fill-rule="evenodd" fill="rgb(255,0,0)" stroke-width="10" stroke="rgb(0,0,0)" />
	<path d="M455,6820 100,6820 279,6510 634,6510 612.635,6547 605.453,6547 605.453,6559.44 455,6820 z " fill-rule="evenodd" fill="rgb(255,0,0)" stroke-width="10" stroke="rgb(0,0,0)" />
	<path d="M100,14663 279,14353 543.045,14353 417.175,14663 100,14663 z " fill-rule="evenodd" fill="rgb(255,0,0)" stroke-width="10" stroke="rgb(0,0,0)" />
	<path d="M126.91,11594 275.053,11337.4 275.053,11594 126.91,11594 z " fill-rule="evenodd" fill="rgb(255,0,0)" stroke-width="10" stroke="rgb(0,0,0)" />
	<path d="M503.596,10943 324.596,11253 317.739,11253 317.739,10943 503.596,10943 z " fill-rule="evenodd" fill="rgb(255,0,0)" stroke-width="10" stroke="rgb(0,0,0)" />
	<path d="M124.261,10912 272.404,10655.4 272.404,10912 124.261,10912 z " fill-rule="evenodd" fill="rgb(255,0,0)" stroke-width="10" stroke="rgb(0,0,0)" />
	<path d="M532.834,10261 353.834,10571 346.977,10571 346.977,10261 532.834,10261 z " fill-rule="evenodd" fill="rgb(255,0,0)" stroke-width="10" stroke="rgb(0,0,0)" />
	<path d="M130.857,12617 279,12360.4 279,12617 130.857,12617 z " fill-rule="evenodd" fill="rgb(255,0,0)" stroke-width="10" stroke="rgb(0,0,0)" />
	<path d="M503.596,9920 324.596,10230 317.739,10230 317.739,9920 503.596,9920 z " fill-rule="evenodd" fill="rgb(255,0,0)" stroke-width="10" stroke="rgb(0,0,0)" />
	<path d="M300.514,13299 448.657,13042.4 448.657,13299 300.514,13299 z " fill-rule="evenodd" fill="rgb(255,0,0)" stroke-width="10" stroke="rgb(0,0,0)" />
	<path d="M596.8,13042.4 448.657,13299 448.657,13042.4 596.8,13042.4 z " fill-rule="evenodd" fill="rgb(255,0,0)" stroke-width="10" stroke="rgb(0,0,0)" />
	<path d="M466.118,5999 385.857,6138 180.261,6138 180.261,5999 466.118,5999 z " fill-rule="evenodd" fill="rgb(255,0,0)" stroke-width="10" stroke="rgb(0,0,0)" />
	<path d="M100,6479 279,6169 634,6169 455,6479 348.143,6479 348.143,6432 248.143,6432 248.143,6479 100,6479 z " fill-rule="evenodd" fill="rgb(255,0,0)" stroke-width="10" stroke="rgb(0,0,0)" />
	<path d="M455,18755 100,18755 248.143,18498.4 248.143,18632 348.143,18632 348.143,18582 554.894,18582 455,18755 z " fill-rule="evenodd" fill="rgb(255,0,0)" stroke-width="10" stroke="rgb(0,0,0)" />
	<path d="M233.961,18182 588.961,18182 567.597,18219 212.597,18219 233.961,18182 z " fill-rule="evenodd" fill="rgb(255,0,0)" stroke-width="10" stroke="rgb(0,0,0)" />
	<path d="M100,15004 279,14694 289.68,14694 163.809,15004 100,15004 z " fill-rule="evenodd" fill="rgb(255,0,0)" stroke-width="10" stroke="rgb(0,0,0)" />
	<path d="M180.261,17934 535.261,17934 455,18073 100,18073 180.261,17934 z " fill-rule="evenodd" fill="rgb(255,0,0)" stroke-width="10" stroke="rgb(0,0,0)" />
	<path d="M455,17732 100,17732 199.894,17559 554.894,17559 455,17732 z " fill-rule="evenodd" fill="rgb(255,0,0)" stroke-width="10" stroke="rgb(0,0,0)" />
	<path d="M255.326,18145 610.326,18145 588.961,18182 233.961,18182 255.326,18145 z " fill-rule="evenodd" fill="rgb(255,0,0)" stroke-width="10" stroke="rgb(0,0,0)" />
	<path d="M583.218,13417.9 468.594,13417.9 500.671,13338.9 628.834,13338.9 583.218,13417.9 z " fill-rule="evenodd" fill="rgb(255,0,0)" stroke-width="10" stroke="rgb(0,0,0)" />
	<path d="M535.261,17934 180.261,17934 225.877,17855 580.877,17855 535.261,17934 z " fill-rule="evenodd" fill="rgb(255,0,0)" stroke-width="10" stroke="rgb(0,0,0)" />
	<path d="M580.877,17855 225.877,17855 271.494,17776 626.494,17776 580.877,17855 z " fill-rule="evenodd" fill="rgb(255,0,0)" stroke-width="10" stroke="rgb(0,0,0)" />
	<path d="M180.261,17252 535.261,17252 455,17391 100,17391 180.261,17252 z " fill-rule="evenodd" fill="rgb(255,0,0)" stroke-width="10" stroke="rgb(0,0,0)" />
	<path d="M455,17050 100,17050 199.894,16877 554.894,16877 455,17050 z " fill-rule="evenodd" fill="rgb(255,0,0)" stroke-width="10" stroke="rgb(0,0,0)" />
	<path d="M276.69,18108 631.69,18108 610.326,18145 255.326,18145 276.69,18108 z " fill-rule="evenodd" fill="rgb(255,0,0)" stroke-width="10" stroke="rgb(0,0,0)" />
	<path d="M554.894,17559 199.894,17559 245.51,17480 600.51,17480 554.894,17559 z " fill-rule="evenodd" fill="rgb(255,0,0)" stroke-width="10" stroke="rgb(0,0,0)" />
	<path d="M260.523,17113 615.523,17113 535.261,17252 180.261,17252 260.523,17113 z " fill-rule="evenodd" fill="rgb(255,0,0)" stroke-width="10" stroke="rgb(0,0,0)" />
	<path d="M455,16709 100,16709 199.894,16536 554.894,16536 455,16709 z " fill-rule="evenodd" fill="rgb(255,0,0)" stroke-width="10" stroke="rgb(0,0,0)" />
	<path d="M266.874,17443 621.874,17443 600.51,17480 245.51,17480 266.874,17443 z " fill-rule="evenodd" fill="rgb(255,0,0)" stroke-width="10" stroke="rgb(0,0,0)" />
	<path d="M554.894,16877 199.894,16877 245.51,16798 600.51,16798 554.894,16877 z " fill-rule="evenodd" fill="rgb(255,0,0)" stroke-width="10" stroke="rgb(0,0,0)" />
	<path d="M180.261,16229 535.261,16229 455,16368 100,16368 180.261,16229 z " fill-rule="evenodd" fill="rgb(255,0,0)" stroke-width="10" stroke="rgb(0,0,0)" />
	<path d="M455,16027 100,16027 199.894,15854 554.894,15854 455,16027 z " fill-rule="evenodd" fill="rgb(255,0,0)" stroke-width="10" stroke="rgb(0,0,0)" />
	<path d="M266.874,16761 621.874,16761 600.51,16798 245.51,16798 266.874,16761 z " fill-rule="evenodd" fill="rgb(255,0,0)" stroke-width="10" stroke="rgb(0,0,0)" />
	<path d="M554.894,16536 199.894,16536 245.51,16457 600.51,16457 554.894,16536 z " fill-rule="evenodd" fill="rgb(255,0,0)" stroke-width="10" stroke="rgb(0,0,0)" />
	<path d="M260.523,5860 443.118,5860 443.118,5999 180.261,5999 260.523,5860 z " fill-rule="evenodd" fill="rgb(255,0,0)" stroke-width="10" stroke="rgb(0,0,0)" />
	<path d="M279,10602 634,10602 455,10912 272.404,10912 272.404,10613.4 279,10602 z " fill-rule="evenodd" fill="rgb(255,0,0)" stroke-width="10" stroke="rgb(0,0,0)" />
	<path d="M500.616,15607 145.616,15607 245.51,15434 507.212,15434 507.212,15595.6 500.616,15607 z " fill-rule="evenodd" fill="rgb(255,0,0)" stroke-width="10" stroke="rgb(0,0,0)" />
	<path d="M266.874,16420 621.874,16420 600.51,16457 245.51,16457 266.874,16420 z " fill-rule="evenodd" fill="rgb(255,0,0)" stroke-width="10" stroke="rgb(0,0,0)" />
	<path d="M535.261,16229 180.261,16229 225.877,16150 580.877,16150 535.261,16229 z " fill-rule="evenodd" fill="rgb(255,0,0)" stroke-width="10" stroke="rgb(0,0,0)" />
	<path d="M631.812,14012 627.525,14019.4 627.525,14012 631.812,14012 z " fill-rule="evenodd" fill="rgb(255,0,0)" stroke-width="10" stroke="rgb(0,0,0)" />
	<path d="M128.072,18414 132.358,18406.6 132.358,18414 128.072,18414 z " fill-rule="evenodd" fill="rgb(255,0,0)" stroke-width="10" stroke="rgb(0,0,0)" />
	<path d="M221.258,15817 576.258,15817 554.894,15854 199.894,15854 221.258,15817 z " fill-rule="evenodd" fill="rgb(255,0,0)" stroke-width="10" stroke="rgb(0,0,0)" />
	<path d="M455,15686 100,15686 145.616,15607 500.616,15607 455,15686 z " fill-rule="evenodd" fill="rgb(255,0,0)" stroke-width="10" stroke="rgb(0,0,0)" />
	<path d="M575.189,15471 507.212,15471 507.212,15434 596.553,15434 575.189,15471 z " fill-rule="evenodd" fill="rgb(255,0,0)" stroke-width="10" stroke="rgb(0,0,0)" />
	<path d="M100,9889 279,9579 346.977,9579 346.977,9889 100,9889 z " fill-rule="evenodd" fill="rgb(255,0,0)" stroke-width="10" stroke="rgb(0,0,0)" />
	<path d="M100,9548 279,9238 346.977,9238 346.977,9548 100,9548 z " fill-rule="evenodd" fill="rgb(255,0,0)" stroke-width="10" stroke="rgb(0,0,0)" />
	<path d="M100,10571 279,10261 346.977,10261 346.977,10571 100,10571 z " fill-rule="evenodd" fill="rgb(255,0,0)" stroke-width="10" stroke="rgb(0,0,0)" />
	<path d="M593.954,9579 414.954,9889 346.977,9889 346.977,9579 593.954,9579 z " fill-rule="evenodd" fill="rgb(255,0,0)" stroke-width="10" stroke="rgb(0,0,0)" />
	<path d="M593.954,9238 414.954,9548 346.977,9548 346.977,9238 593.954,9238 z " fill-rule="evenodd" fill="rgb(255,0,0)" stroke-width="10" stroke="rgb(0,0,0)" />
	<path d="M627.878,18455.6 582.261,18534.6 380.901,18534.6 380.901,18455.6 627.878,18455.6 z " fill-rule="evenodd" fill="rgb(255,0,0)" stroke-width="10" stroke="rgb(0,0,0)" />
	<path d="M180.261,6003.04 180.261,6138 102.332,6138 180.261,6003.04 z " fill-rule="evenodd" fill="rgb(255,0,0)" stroke-width="10" stroke="rgb(0,0,0)" />
	<path d="M455,18414 132.358,18414 132.358,18358 212.597,18219 567.597,18219 455,18414 z " fill-rule="evenodd" fill="rgb(255,0,0)" stroke-width="10" stroke="rgb(0,0,0)" />
	<path d="M455,15345 100,15345 212.597,15150 567.597,15150 455,15345 z " fill-rule="evenodd" fill="rgb(255,0,0)" stroke-width="10" stroke="rgb(0,0,0)" />
	<path d="M100,10230 279,9920 317.739,9920 317.739,10230 100,10230 z " fill-rule="evenodd" fill="rgb(255,0,0)" stroke-width="10" stroke="rgb(0,0,0)" />
	<path d="M100,9207 279,8897 317.739,8897 317.739,9207 100,9207 z " fill-rule="evenodd" fill="rgb(255,0,0)" stroke-width="10" stroke="rgb(0,0,0)" />
	<path d="M535.478,8897 356.478,9207 317.739,9207 317.739,8897 535.478,8897 z " fill-rule="evenodd" fill="rgb(255,0,0)" stroke-width="10" stroke="rgb(0,0,0)" />
	<path d="M100,11253 279,10943 317.739,10943 317.739,11253 100,11253 z " fill-rule="evenodd" fill="rgb(255,0,0)" stroke-width="10" stroke="rgb(0,0,0)" />
	<path d="M109.642,11935 222.239,11740 227.381,11740 227.381,11935 109.642,11935 z " fill-rule="evenodd" fill="rgb(255,0,0)" stroke-width="10" stroke="rgb(0,0,0)" />
	<path d="M1042.4,10261 1221.4,10571 866.4,10571 747.739,10365.5 790.122,10261 1042.4,10261 z " fill-rule="evenodd" fill="rgb(255,0,0)" stroke-width="10" stroke="rgb(0,0,0)" />
	<path d="M1182.26,10229.1 878.341,10229.1 967.572,10009.1 1082.05,10055.6 1182.26,10229.1 z " fill-rule="evenodd" fill="rgb(255,0,0)" stroke-width="10" stroke="rgb(0,0,0)" />
	<path d="M814.781,9629.85 764.773,9629.85 785.42,9579 814.781,9629.85 z " fill-rule="evenodd" fill="rgb(255,0,0)" stroke-width="10" stroke="rgb(0,0,0)" />
	<path d="M1109.44,155.637 1216.47,341 759.367,155.637 1109.44,155.637 z " fill-rule="evenodd" fill="rgb(255,0,0)" stroke-width="10" stroke="rgb(0,0,0)" />
	<path d="M891.002,341 791.491,168.663 1216.3,341 891.002,341 z " fill-rule="evenodd" fill="rgb(255,0,0)" stroke-width="10" stroke="rgb(0,0,0)" />
	<path d="M1042.4,9238 1221.4,9548 866.4,9548 835.683,9494.8 939.953,9238 1042.4,9238 z " fill-rule="evenodd" fill="rgb(255,0,0)" stroke-width="10" stroke="rgb(0,0,0)" />
	<path d="M1042.4,18445 1221.4,18755 1099.47,18755 795.139,18631.6 687.4,18445 1042.4,18445 z " fill-rule="evenodd" fill="rgb(255,0,0)" stroke-width="10" stroke="rgb(0,0,0)" />
	<path d="M992.294,3834 1066.78,3963 791.913,3963 844.235,3834 992.294,3834 z " fill-rule="evenodd" fill="rgb(255,0,0)" stroke-width="10" stroke="rgb(0,0,0)" />
	<path d="M1181.63,18414 981.925,18414 1064.32,18210.8 1181.63,18414 z " fill-rule="evenodd" fill="rgb(255,0,0)" stroke-width="10" stroke="rgb(0,0,0)" />
	<path d="M1146.91,4304 1221.4,4433 866.4,4433 791.913,4304 1146.91,4304 z " fill-rule="evenodd" fill="rgb(255,0,0)" stroke-width="10" stroke="rgb(0,0,0)" />
	<path d="M1072.43,4175 1146.91,4304 791.913,4304 717.426,4175 1072.43,4175 z " fill-rule="evenodd" fill="rgb(255,0,0)" stroke-width="10" stroke="rgb(0,0,0)" />
	<path d="M1197.84,9166.19 1043.88,9166.19 1107.45,9009.65 1197.84,9166.19 z " fill-rule="evenodd" fill="rgb(255,0,0)" stroke-width="10" stroke="rgb(0,0,0)" />
	<path d="M1146.91,3963 1221.4,4092 866.4,4092 791.913,3963 1146.91,3963 z " fill-rule="evenodd" fill="rgb(255,0,0)" stroke-width="10" stroke="rgb(0,0,0)" />
	<path d="M1042.4,17081 1221.4,17391 866.4,17391 774.654,17232.1 836.009,17081 1042.4,17081 z " fill-rule="evenodd" fill="rgb(255,0,0)" stroke-width="10" stroke="rgb(0,0,0)" />
	<path d="M1042.4,3441 1221.4,3751 914.781,3751 914.781,3570 761.887,3570 687.4,3441 1042.4,3441 z " fill-rule="evenodd" fill="rgb(255,0,0)" stroke-width="10" stroke="rgb(0,0,0)" />
	<path d="M995.602,18755 946.293,18755 946.293,18700 963.844,18700 995.602,18755 z " fill-rule="evenodd" fill="rgb(255,0,0)" stroke-width="10" stroke="rgb(0,0,0)" />
	<path d="M1181.27,8866 923.369,8866 1029.85,8603.77 1181.27,8866 z " fill-rule="evenodd" fill="rgb(255,0,0)" stroke-width="10" stroke="rgb(0,0,0)" />
	<path d="M1042.4,8215 1221.4,8525 866.4,8525 834.642,8470 914.781,8470 914.781,8215 1042.4,8215 z " fill-rule="evenodd" fill="rgb(255,0,0)" stroke-width="10" stroke="rgb(0,0,0)" />
	<path d="M1042.4,7874 1221.4,8184 866.4,8184 713.624,7919.42 732.065,7874 1042.4,7874 z " fill-rule="evenodd" fill="rgb(255,0,0)" stroke-width="10" stroke="rgb(0,0,0)" />
	<path d="M1215.24,18073 1165.93,18073 1165.93,17987.6 1215.24,18073 z " fill-rule="evenodd" fill="rgb(255,0,0)" stroke-width="10" stroke="rgb(0,0,0)" />
	<path d="M1042.4,9579 1221.4,9889 866.4,9889 814.781,9799.6 814.781,9579 1042.4,9579 z " fill-rule="evenodd" fill="rgb(255,0,0)" stroke-width="10" stroke="rgb(0,0,0)" />
	<path d="M1197.38,7843 1192.85,7843 1194.72,7838.39 1197.38,7843 z " fill-rule="evenodd" fill="rgb(255,0,0)" stroke-width="10" stroke="rgb(0,0,0)" />
	<path d="M866.4,8866 687.4,8556 1042.4,8556 1046.42,8562.96 923.369,8866 866.4,8866 z " fill-rule="evenodd" fill="rgb(255,0,0)" stroke-width="10" stroke="rgb(0,0,0)" />
	<path d="M1034.49,375 1211.76,682 906.871,682 906.871,375 1034.49,375 z " fill-rule="evenodd" fill="rgb(255,0,0)" stroke-width="10" stroke="rgb(0,0,0)" />
	<path d="M1044.13,3103 1221.4,3410 866.4,3410 689.132,3103 1044.13,3103 z " fill-rule="evenodd" fill="rgb(255,0,0)" stroke-width="10" stroke="rgb(0,0,0)" />
	<path d="M735.76,3834 844.235,3834 799.449,3944.3 735.76,3834 z " fill-rule="evenodd" fill="rgb(255,0,0)" stroke-width="10" stroke="rgb(0,0,0)" />
	<path d="M866.4,9207 687.4,8897 1042.4,8897 1107.45,9009.65 1027.31,9207 866.4,9207 z " fill-rule="evenodd" fill="rgb(255,0,0)" stroke-width="10" stroke="rgb(0,0,0)" />
	<path d="M1044.13,2762 1221.4,3069 866.4,3069 689.132,2762 1044.13,2762 z " fill-rule="evenodd" fill="rgb(255,0,0)" stroke-width="10" stroke="rgb(0,0,0)" />
	<path d="M1044.13,2421 1194.58,2681.56 1194.58,2728 866.4,2728 689.132,2421 1044.13,2421 z " fill-rule="evenodd" fill="rgb(255,0,0)" stroke-width="10" stroke="rgb(0,0,0)" />
	<path d="M1042.4,2077 1192.85,2337.56 1192.85,2387 866.4,2387 687.4,2077 1042.4,2077 z " fill-rule="evenodd" fill="rgb(255,0,0)" stroke-width="10" stroke="rgb(0,0,0)" />
	<path d="M1042.4,7533 1192.85,7793.56 1192.85,7843 866.4,7843 687.4,7533 1042.4,7533 z " fill-rule="evenodd" fill="rgb(255,0,0)" stroke-width="10" stroke="rgb(0,0,0)" />
	<path d="M1042.4,1736 1192.85,1996.56 1192.85,2046 866.4,2046 687.4,1736 1042.4,1736 z " fill-rule="evenodd" fill="rgb(255,0,0)" stroke-width="10" stroke="rgb(0,0,0)" />
	<path d="M1042.4,7192 1192.85,7452.56 1192.85,7502 866.4,7502 687.4,7192 1042.4,7192 z " fill-rule="evenodd" fill="rgb(255,0,0)" stroke-width="10" stroke="rgb(0,0,0)" />
	<path d="M1042.4,1395 1192.85,1655.56 1192.85,1705 866.4,1705 687.4,1395 1042.4,1395 z " fill-rule="evenodd" fill="rgb(255,0,0)" stroke-width="10" stroke="rgb(0,0,0)" />
	<path d="M702.362,8215 914.781,8215 827.081,8430.99 702.362,8215 z " fill-rule="evenodd" fill="rgb(255,0,0)" stroke-width="10" stroke="rgb(0,0,0)" />
	<path d="M866.4,18073 687.4,17763 1042.4,17763 1168.47,17981.3 1131.26,18073 866.4,18073 z " fill-rule="evenodd" fill="rgb(255,0,0)" stroke-width="10" stroke="rgb(0,0,0)" />
	<path d="M859.804,6893.02 859.804,7149.58 711.661,6893.02 859.804,6893.02 z " fill-rule="evenodd" fill="rgb(255,0,0)" stroke-width="10" stroke="rgb(0,0,0)" />
	<path d="M911.996,6513 1089.26,6820 905.139,6820 905.139,6513 911.996,6513 z " fill-rule="evenodd" fill="rgb(255,0,0)" stroke-width="10" stroke="rgb(0,0,0)" />
	<path d="M859.804,17422 859.804,17678.6 711.661,17422 859.804,17422 z " fill-rule="evenodd" fill="rgb(255,0,0)" stroke-width="10" stroke="rgb(0,0,0)" />
	<path d="M880.114,6169 1059.11,6479 873.257,6479 873.257,6169 880.114,6169 z " fill-rule="evenodd" fill="rgb(255,0,0)" stroke-width="10" stroke="rgb(0,0,0)" />
	<path d="M835.781,9238 835.781,9494.56 687.638,9238 835.781,9238 z " fill-rule="evenodd" fill="rgb(255,0,0)" stroke-width="10" stroke="rgb(0,0,0)" />
	<path d="M866.4,6479 687.4,6169 873.257,6169 873.257,6479 866.4,6479 z " fill-rule="evenodd" fill="rgb(255,0,0)" stroke-width="10" stroke="rgb(0,0,0)" />
	<path d="M1042.4,16740 1221.4,17050 1035.54,17050 1035.54,16969 835.543,16969 835.543,16996.6 687.4,16740 1042.4,16740 z " fill-rule="evenodd" fill="rgb(255,0,0)" stroke-width="10" stroke="rgb(0,0,0)" />
	<path d="M835.543,16399 835.543,16452 1035.54,16452 1035.54,16402 1044.13,16402 1221.4,16709 866.4,16709 687.4,16399 835.543,16399 z " fill-rule="evenodd" fill="rgb(255,0,0)" stroke-width="10" stroke="rgb(0,0,0)" />
	<path d="M1059.11,6222.44 1059.11,6479 910.97,6222.44 1059.11,6222.44 z " fill-rule="evenodd" fill="rgb(255,0,0)" stroke-width="10" stroke="rgb(0,0,0)" />
	<path d="M1059.11,6479 1059.11,6222.44 1207.26,6479 1059.11,6479 z " fill-rule="evenodd" fill="rgb(255,0,0)" stroke-width="10" stroke="rgb(0,0,0)" />
	<path d="M1041.23,5828 1220.23,6138 934.377,6138 934.377,5828 1041.23,5828 z " fill-rule="evenodd" fill="rgb(255,0,0)" stroke-width="10" stroke="rgb(0,0,0)" />
	<path d="M866.4,10230 687.4,9920 1003.76,9920 877.892,10230 866.4,10230 z " fill-rule="evenodd" fill="rgb(255,0,0)" stroke-width="10" stroke="rgb(0,0,0)" />
	<path d="M1044.13,16061 1221.4,16368 866.4,16368 689.132,16061 1044.13,16061 z " fill-rule="evenodd" fill="rgb(255,0,0)" stroke-width="10" stroke="rgb(0,0,0)" />
	<path d="M1221.4,16027 866.4,16027 689.132,15720 1044.13,15720 1221.4,16027 z " fill-rule="evenodd" fill="rgb(255,0,0)" stroke-width="10" stroke="rgb(0,0,0)" />
	<path d="M727.125,10261 790.122,10261 764.113,10325.1 727.125,10261 z " fill-rule="evenodd" fill="rgb(255,0,0)" stroke-width="10" stroke="rgb(0,0,0)" />
	<path d="M866.4,18414 687.4,18104 1042.4,18104 1080.74,18170.4 981.836,18414 866.4,18414 z " fill-rule="evenodd" fill="rgb(255,0,0)" stroke-width="10" stroke="rgb(0,0,0)" />
	<path d="M1044.13,15379 1221.4,15686 866.4,15686 689.132,15379 1044.13,15379 z " fill-rule="evenodd" fill="rgb(255,0,0)" stroke-width="10" stroke="rgb(0,0,0)" />
	<path d="M1221.4,15345 866.4,15345 689.132,15038 1044.13,15038 1221.4,15345 z " fill-rule="evenodd" fill="rgb(255,0,0)" stroke-width="10" stroke="rgb(0,0,0)" />
	<path d="M1044.13,14697 1221.4,15004 866.4,15004 689.132,14697 1044.13,14697 z " fill-rule="evenodd" fill="rgb(255,0,0)" stroke-width="10" stroke="rgb(0,0,0)" />
	<path d="M1221.4,14663 866.4,14663 689.132,14356 1044.13,14356 1221.4,14663 z " fill-rule="evenodd" fill="rgb(255,0,0)" stroke-width="10" stroke="rgb(0,0,0)" />
	<path d="M1044.13,14015 1221.4,14322 866.4,14322 689.132,14015 1044.13,14015 z " fill-rule="evenodd" fill="rgb(255,0,0)" stroke-width="10" stroke="rgb(0,0,0)" />
	<path d="M1221.4,13981 866.4,13981 689.132,13674 1044.13,13674 1221.4,13981 z " fill-rule="evenodd" fill="rgb(255,0,0)" stroke-width="10" stroke="rgb(0,0,0)" />
	<path d="M1044.13,1057 1221.4,1364 866.4,1364 689.132,1057 1044.13,1057 z " fill-rule="evenodd" fill="rgb(255,0,0)" stroke-width="10" stroke="rgb(0,0,0)" />
	<path d="M1221.4,1023 866.4,1023 689.132,716 1044.13,716 1221.4,1023 z " fill-rule="evenodd" fill="rgb(255,0,0)" stroke-width="10" stroke="rgb(0,0,0)" />
	<path d="M866.4,7161 859.804,7149.58 859.804,6851 1042.4,6851 1221.4,7161 866.4,7161 z " fill-rule="evenodd" fill="rgb(255,0,0)" stroke-width="10" stroke="rgb(0,0,0)" />
	<path d="M866.4,17732 859.804,17720.6 859.804,17422 1042.4,17422 1221.4,17732 866.4,17732 z " fill-rule="evenodd" fill="rgb(255,0,0)" stroke-width="10" stroke="rgb(0,0,0)" />
	<path d="M1044.13,13333 1221.4,13640 866.4,13640 689.132,13333 1044.13,13333 z " fill-rule="evenodd" fill="rgb(255,0,0)" stroke-width="10" stroke="rgb(0,0,0)" />
	<path d="M1221.4,13299 866.4,13299 689.132,12992 1044.13,12992 1221.4,13299 z " fill-rule="evenodd" fill="rgb(255,0,0)" stroke-width="10" stroke="rgb(0,0,0)" />
	<path d="M1197.14,7494.58 1197.14,7502 1192.85,7494.58 1197.14,7494.58 z " fill-rule="evenodd" fill="rgb(255,0,0)" stroke-width="10" stroke="rgb(0,0,0)" />
	<path d="M729.051,7874 729.051,7881.42 724.765,7874 729.051,7874 z " fill-rule="evenodd" fill="rgb(255,0,0)" stroke-width="10" stroke="rgb(0,0,0)" />
	<path d="M1044.13,12651 1221.4,12958 866.4,12958 689.132,12651 1044.13,12651 z " fill-rule="evenodd" fill="rgb(255,0,0)" stroke-width="10" stroke="rgb(0,0,0)" />
	<path d="M1221.4,12617 866.4,12617 689.132,12310 1044.13,12310 1221.4,12617 z " fill-rule="evenodd" fill="rgb(255,0,0)" stroke-width="10" stroke="rgb(0,0,0)" />
	<path d="M934.377,5828 934.377,6138 866.4,6138 687.4,5828 934.377,5828 z " fill-rule="evenodd" fill="rgb(255,0,0)" stroke-width="10" stroke="rgb(0,0,0)" />
	<path d="M934.377,5487 934.377,5797 866.4,5797 687.4,5487 934.377,5487 z " fill-rule="evenodd" fill="rgb(255,0,0)" stroke-width="10" stroke="rgb(0,0,0)" />
	<path d="M934.377,5146 934.377,5456 866.4,5456 687.4,5146 934.377,5146 z " fill-rule="evenodd" fill="rgb(255,0,0)" stroke-width="10" stroke="rgb(0,0,0)" />
	<path d="M934.377,4805 934.377,5115 866.4,5115 687.4,4805 934.377,4805 z " fill-rule="evenodd" fill="rgb(255,0,0)" stroke-width="10" stroke="rgb(0,0,0)" />
	<path d="M934.377,5797 934.377,5487 1002.35,5487 1181.35,5797 934.377,5797 z " fill-rule="evenodd" fill="rgb(255,0,0)" stroke-width="10" stroke="rgb(0,0,0)" />
	<path d="M934.377,4464 934.377,4774 866.4,4774 687.4,4464 934.377,4464 z " fill-rule="evenodd" fill="rgb(255,0,0)" stroke-width="10" stroke="rgb(0,0,0)" />
	<path d="M1044.13,11969 1221.4,12276 866.4,12276 689.132,11969 1044.13,11969 z " fill-rule="evenodd" fill="rgb(255,0,0)" stroke-width="10" stroke="rgb(0,0,0)" />
	<path d="M1221.4,11935 866.4,11935 689.132,11628 1044.13,11628 1221.4,11935 z " fill-rule="evenodd" fill="rgb(255,0,0)" stroke-width="10" stroke="rgb(0,0,0)" />
	<path d="M1044.13,11287 1221.4,11594 866.4,11594 689.132,11287 1044.13,11287 z " fill-rule="evenodd" fill="rgb(255,0,0)" stroke-width="10" stroke="rgb(0,0,0)" />
	<path d="M1042.4,10943 1221.4,11253 866.4,11253 689.132,10946 719.758,10946 719.758,10943 1042.4,10943 z " fill-rule="evenodd" fill="rgb(255,0,0)" stroke-width="10" stroke="rgb(0,0,0)" />
	<path d="M1044.13,10605 1221.4,10912 866.4,10912 689.132,10605 1044.13,10605 z " fill-rule="evenodd" fill="rgb(255,0,0)" stroke-width="10" stroke="rgb(0,0,0)" />
	<path d="M906.871,375 906.871,682 866.4,682 689.132,375 906.871,375 z " fill-rule="evenodd" fill="rgb(255,0,0)" stroke-width="10" stroke="rgb(0,0,0)" />
	<path d="M934.377,4774 934.377,4464 973.116,4464 1152.12,4774 934.377,4774 z " fill-rule="evenodd" fill="rgb(255,0,0)" stroke-width="10" stroke="rgb(0,0,0)" />
	<path d="M934.377,5456 934.377,5146 973.116,5146 1152.12,5456 934.377,5456 z " fill-rule="evenodd" fill="rgb(255,0,0)" stroke-width="10" stroke="rgb(0,0,0)" />
	<path d="M934.377,5115 934.377,4805 973.116,4805 1152.12,5115 934.377,5115 z " fill-rule="evenodd" fill="rgb(255,0,0)" stroke-width="10" stroke="rgb(0,0,0)" />
	<path d="M805.139,6510 805.139,6513 905.139,6513 905.139,6820 866.4,6820 687.4,6510 805.139,6510 z " fill-rule="evenodd" fill="rgb(255,0,0)" stroke-width="10" stroke="rgb(0,0,0)" />
</svg>
