<?xml version="1.0" standalone="no" ?>
<!DOCTYPE svg PUBLIC "-//W3C//DTD SVG 1.1//EN" "http://www.w3.org/Graphics/SVG/1.1/DTD/svg11.dtd">
<svg width="2350px" height="29580px" xmlns="http://www.w3.org/2000/svg" version="1.1" >
	<path d="M100,29480 600,29480 1000,29080 500,29080 z " fill-rule="evenodd" fill="rgb(255,255,255)" stroke-width="10" stroke="rgb(0,0,0)" />
	<path d="M100,29040 600,29040 1000,28640 500,28640 z " fill-rule="evenodd" fill="rgb(255,255,255)" stroke-width="10" stroke="rgb(0,0,0)" />
	<path d="M100,28600 600,28600 1000,28200 500,28200 z " fill-rule="evenodd" fill="rgb(255,255,255)" stroke-width="10" stroke="rgb(0,0,0)" />
	<path d="M100,28160 600,28160 1000,27760 500,27760 z " fill-rule="evenodd" fill="rgb(255,255,255)" stroke-width="10" stroke="rgb(0,0,0)" />
	<path d="M100,27720 600,27720 1000,27320 500,27320 z " fill-rule="evenodd" fill="rgb(255,255,255)" stroke-width="10" stroke="rgb(0,0,0)" />
	<path d="M100,27280 600,27280 1000,26880 500,26880 z " fill-rule="evenodd" fill="rgb(255,255,255)" stroke-width="10" stroke="rgb(0,0,0)" />
	<path d="M100,26840 600,26840 1000,26440 500,26440 z " fill-rule="evenodd" fill="rgb(255,255,255)" stroke-width="10" stroke="rgb(0,0,0)" />
	<path d="M100,26400 600,26400 1000,26000 500,26000 z " fill-rule="evenodd" fill="rgb(255,255,255)" stroke-width="10" stroke="rgb(0,0,0)" />
	<path d="M100,25960 600,25960 1000,25560 500,25560 z " fill-rule="evenodd" fill="rgb(255,255,255)" stroke-width="10" stroke="rgb(0,0,0)" />
	<path d="M100,25520 600,25520 1000,25120 500,25120 z " fill-rule="evenodd" fill="rgb(255,255,255)" stroke-width="10" stroke="rgb(0,0,0)" />
	<path d="M100,25080 600,25080 1000,24680 500,24680 z " fill-rule="evenodd" fill="rgb(255,255,255)" stroke-width="10" stroke="rgb(0,0,0)" />
	<path d="M100,24640 600,24640 1000,24240 500,24240 z " fill-rule="evenodd" fill="rgb(255,255,255)" stroke-width="10" stroke="rgb(0,0,0)" />
	<path d="M100,24200 600,24200 1000,23800 500,23800 z " fill-rule="evenodd" fill="rgb(255,255,255)" stroke-width="10" stroke="rgb(0,0,0)" />
	<path d="M100,23760 600,23760 1000,23360 500,23360 z " fill-rule="evenodd" fill="rgb(255,255,255)" stroke-width="10" stroke="rgb(0,0,0)" />
	<path d="M100,23320 600,23320 1000,22920 500,22920 z " fill-rule="evenodd" fill="rgb(255,255,255)" stroke-width="10" stroke="rgb(0,0,0)" />
	<path d="M100,22880 600,22880 1000,22480 500,22480 z " fill-rule="evenodd" fill="rgb(255,255,255)" stroke-width="10" stroke="rgb(0,0,0)" />
	<path d="M100,22440 600,22440 1000,22040 500,22040 z " fill-rule="evenodd" fill="rgb(255,255,255)" stroke-width="10" stroke="rgb(0,0,0)" />
	<path d="M100,22000 600,22000 1000,21600 500,21600 z " fill-rule="evenodd" fill="rgb(255,255,255)" stroke-width="10" stroke="rgb(0,0,0)" />
	<path d="M100,21560 600,21560 1000,21160 500,21160 z " fill-rule="evenodd" fill="rgb(255,255,255)" stroke-width="10" stroke="rgb(0,0,0)" />
	<path d="M100,21120 600,21120 1000,20720 500,20720 z " fill-rule="evenodd" fill="rgb(255,255,255)" stroke-width="10" stroke="rgb(0,0,0)" />
	<path d="M100,20680 600,20680 1000,20280 500,20280 z " fill-rule="evenodd" fill="rgb(255,255,255)" stroke-width="10" stroke="rgb(0,0,0)" />
	<path d="M100,20240 600,20240 1000,19840 500,19840 z " fill-rule="evenodd" fill="rgb(255,255,255)" stroke-width="10" stroke="rgb(0,0,0)" />
	<path d="M100,19800 600,19800 1000,19400 500,19400 z " fill-rule="evenodd" fill="rgb(255,255,255)" stroke-width="10" stroke="rgb(0,0,0)" />
	<path d="M100,19360 600,19360 1000,18960 500,18960 z " fill-rule="evenodd" fill="rgb(255,255,255)" stroke-width="10" stroke="rgb(0,0,0)" />
	<path d="M100,18920 600,18920 1000,18520 500,18520 z " fill-rule="evenodd" fill="rgb(255,255,255)" stroke-width="10" stroke="rgb(0,0,0)" />
	<path d="M100,18480 600,18480 1000,18080 500,18080 z " fill-rule="evenodd" fill="rgb(255,255,255)" stroke-width="10" stroke="rgb(0,0,0)" />
	<path d="M100,18040 600,18040 1000,17640 500,17640 z " fill-rule="evenodd" fill="rgb(255,255,255)" stroke-width="10" stroke="rgb(0,0,0)" />
	<path d="M100,17600 600,17600 1000,17200 500,17200 z " fill-rule="evenodd" fill="rgb(255,255,255)" stroke-width="10" stroke="rgb(0,0,0)" />
	<path d="M100,17160 600,17160 1000,16760 500,16760 z " fill-rule="evenodd" fill="rgb(255,255,255)" stroke-width="10" stroke="rgb(0,0,0)" />
	<path d="M100,16720 600,16720 1000,16320 500,16320 z " fill-rule="evenodd" fill="rgb(255,255,255)" stroke-width="10" stroke="rgb(0,0,0)" />
	<path d="M100,16280 600,16280 1000,15880 500,15880 z " fill-rule="evenodd" fill="rgb(255,255,255)" stroke-width="10" stroke="rgb(0,0,0)" />
	<path d="M100,15840 600,15840 1000,15440 500,15440 z " fill-rule="evenodd" fill="rgb(255,255,255)" stroke-width="10" stroke="rgb(0,0,0)" />
	<path d="M100,15400 600,15400 1000,15000 500,15000 z " fill-rule="evenodd" fill="rgb(255,255,255)" stroke-width="10" stroke="rgb(0,0,0)" />
	<path d="M100,14960 600,14960 1000,14560 500,14560 z " fill-rule="evenodd" fill="rgb(255,255,255)" stroke-width="10" stroke="rgb(0,0,0)" />
	<path d="M100,14520 600,14520 1000,14120 500,14120 z " fill-rule="evenodd" fill="rgb(255,255,255)" stroke-width="10" stroke="rgb(0,0,0)" />
	<path d="M100,14080 600,14080 1000,13680 500,13680 z " fill-rule="evenodd" fill="rgb(255,255,255)" stroke-width="10" stroke="rgb(0,0,0)" />
	<path d="M100,13640 600,13640 1000,13240 500,13240 z " fill-rule="evenodd" fill="rgb(255,255,255)" stroke-width="10" stroke="rgb(0,0,0)" />
	<path d="M100,13200 600,13200 1000,12800 500,12800 z " fill-rule="evenodd" fill="rgb(255,255,255)" stroke-width="10" stroke="rgb(0,0,0)" />
	<path d="M100,12760 600,12760 1000,12360 500,12360 z " fill-rule="evenodd" fill="rgb(255,255,255)" stroke-width="10" stroke="rgb(0,0,0)" />
	<path d="M100,12320 600,12320 1000,11920 500,11920 z " fill-rule="evenodd" fill="rgb(255,255,255)" stroke-width="10" stroke="rgb(0,0,0)" />
	<path d="M100,11880 600,11880 1000,11480 500,11480 z " fill-rule="evenodd" fill="rgb(255,255,255)" stroke-width="10" stroke="rgb(0,0,0)" />
	<path d="M100,11440 600,11440 1000,11040 500,11040 z " fill-rule="evenodd" fill="rgb(255,255,255)" stroke-width="10" stroke="rgb(0,0,0)" />
	<path d="M100,11000 600,11000 1000,10600 500,10600 z " fill-rule="evenodd" fill="rgb(255,255,255)" stroke-width="10" stroke="rgb(0,0,0)" />
	<path d="M100,10560 600,10560 1000,10160 500,10160 z " fill-rule="evenodd" fill="rgb(255,255,255)" stroke-width="10" stroke="rgb(0,0,0)" />
	<path d="M100,10120 600,10120 1000,9720 500,9720 z " fill-rule="evenodd" fill="rgb(255,255,255)" stroke-width="10" stroke="rgb(0,0,0)" />
	<path d="M100,9680 600,9680 1000,9280 500,9280 z " fill-rule="evenodd" fill="rgb(255,255,255)" stroke-width="10" stroke="rgb(0,0,0)" />
	<path d="M100,9240 600,9240 1000,8840 500,8840 z " fill-rule="evenodd" fill="rgb(255,255,255)" stroke-width="10" stroke="rgb(0,0,0)" />
	<path d="M100,8800 600,8800 1000,8400 500,8400 z " fill-rule="evenodd" fill="rgb(255,255,255)" stroke-width="10" stroke="rgb(0,0,0)" />
	<path d="M100,8360 600,8360 1000,7960 500,7960 z " fill-rule="evenodd" fill="rgb(255,255,255)" stroke-width="10" stroke="rgb(0,0,0)" />
	<path d="M100,7920 600,7920 1000,7520 500,7520 z " fill-rule="evenodd" fill="rgb(255,255,255)" stroke-width="10" stroke="rgb(0,0,0)" />
	<path d="M100,7480 600,7480 1000,7080 500,7080 z " fill-rule="evenodd" fill="rgb(255,255,255)" stroke-width="10" stroke="rgb(0,0,0)" />
	<path d="M100,7040 600,7040 1000,6640 500,6640 z " fill-rule="evenodd" fill="rgb(255,255,255)" stroke-width="10" stroke="rgb(0,0,0)" />
	<path d="M100,6600 600,6600 1000,6200 500,6200 z " fill-rule="evenodd" fill="rgb(255,255,255)" stroke-width="10" stroke="rgb(0,0,0)" />
	<path d="M100,6160 600,6160 1000,5760 500,5760 z " fill-rule="evenodd" fill="rgb(255,255,255)" stroke-width="10" stroke="rgb(0,0,0)" />
	<path d="M100,5720 600,5720 1000,5320 500,5320 z " fill-rule="evenodd" fill="rgb(255,255,255)" stroke-width="10" stroke="rgb(0,0,0)" />
	<path d="M100,5280 600,5280 1000,4880 500,4880 z " fill-rule="evenodd" fill="rgb(255,255,255)" stroke-width="10" stroke="rgb(0,0,0)" />
	<path d="M100,4840 600,4840 1000,4440 500,4440 z " fill-rule="evenodd" fill="rgb(255,255,255)" stroke-width="10" stroke="rgb(0,0,0)" />
	<path d="M100,4400 600,4400 1000,4000 500,4000 z " fill-rule="evenodd" fill="rgb(255,255,255)" stroke-width="10" stroke="rgb(0,0,0)" />
	<path d="M100,3960 600,3960 1000,3560 500,3560 z " fill-rule="evenodd" fill="rgb(255,255,255)" stroke-width="10" stroke="rgb(0,0,0)" />
	<path d="M100,3520 600,3520 1000,3120 500,3120 z " fill-rule="evenodd" fill="rgb(255,255,255)" stroke-width="10" stroke="rgb(0,0,0)" />
	<path d="M100,3080 600,3080 1000,2680 500,2680 z " fill-rule="evenodd" fill="rgb(255,255,255)" stroke-width="10" stroke="rgb(0,0,0)" />
	<path d="M100,2640 600,2640 1000,2240 500,2240 z " fill-rule="evenodd" fill="rgb(255,255,255)" stroke-width="10" stroke="rgb(0,0,0)" />
	<path d="M100,2200 600,2200 1000,1800 500,1800 z " fill-rule="evenodd" fill="rgb(255,255,255)" stroke-width="10" stroke="rgb(0,0,0)" />
	<path d="M100,1760 600,1760 1000,1360 500,1360 z " fill-rule="evenodd" fill="rgb(255,255,255)" stroke-width="10" stroke="rgb(0,0,0)" />
	<path d="M100,1320 600,1320 1000,920 500,920 z " fill-rule="evenodd" fill="rgb(255,255,255)" stroke-width="10" stroke="rgb(0,0,0)" />
	<path d="M100,880 600,880 1000,480 500,480 z " fill-rule="evenodd" fill="rgb(255,255,255)" stroke-width="10" stroke="rgb(0,0,0)" />
	<path d="M100,440 600,440 1000,40 500,40 z " fill-rule="evenodd" fill="rgb(255,255,255)" stroke-width="10" stroke="rgb(0,0,0)" />
	<path d="M998.177,29080 606.662,29471.5 606.662,29080 998.177,29080 z " fill-rule="evenodd" fill="rgb(255,0,0)" stroke-width="10" stroke="rgb(0,0,0)" />
	<path d="M500,26000 1000,26000 600,26400 208.485,26400 208.485,26291.5 500,26000 z " fill-rule="evenodd" fill="rgb(255,0,0)" stroke-width="10" stroke="rgb(0,0,0)" />
	<path d="M600,25960 100,25960 500,25560 574.544,25560 574.544,25872 688,25872 600,25960 z " fill-rule="evenodd" fill="rgb(255,0,0)" stroke-width="10" stroke="rgb(0,0,0)" />
	<path d="M110.133,25520 198.133,25432 276.192,25432 276.192,25520 110.133,25520 z " fill-rule="evenodd" fill="rgb(255,0,0)" stroke-width="10" stroke="rgb(0,0,0)" />
	<path d="M998.177,24680 715.147,24963 715.147,24680 998.177,24680 z " fill-rule="evenodd" fill="rgb(255,0,0)" stroke-width="10" stroke="rgb(0,0,0)" />
	<path d="M600,24640 100,24640 500,24240 666.059,24240 666.059,24573.9 600,24640 z " fill-rule="evenodd" fill="rgb(255,0,0)" stroke-width="10" stroke="rgb(0,0,0)" />
	<path d="M600,24200 100,24200 500,23800 683.029,23800 683.029,24117 600,24200 z " fill-rule="evenodd" fill="rgb(255,0,0)" stroke-width="10" stroke="rgb(0,0,0)" />
	<path d="M100,23760 174.544,23685.5 174.544,23760 100,23760 z " fill-rule="evenodd" fill="rgb(255,0,0)" stroke-width="10" stroke="rgb(0,0,0)" />
	<path d="M992.426,22920 791.515,23120.9 791.515,22920 992.426,22920 z " fill-rule="evenodd" fill="rgb(255,0,0)" stroke-width="10" stroke="rgb(0,0,0)" />
	<path d="M500,22480 1000,22480 600,22880 316.971,22880 316.971,22663 500,22480 z " fill-rule="evenodd" fill="rgb(255,0,0)" stroke-width="10" stroke="rgb(0,0,0)" />
	<path d="M110.309,22440 167.882,22382.4 167.882,22440 110.309,22440 z " fill-rule="evenodd" fill="rgb(255,0,0)" stroke-width="10" stroke="rgb(0,0,0)" />
	<path d="M600,23320 100,23320 500,22920 791.515,22920 791.515,23128.5 600,23320 z " fill-rule="evenodd" fill="rgb(255,0,0)" stroke-width="10" stroke="rgb(0,0,0)" />
	<path d="M102.288,440 285.317,256.971 285.317,440 102.288,440 z " fill-rule="evenodd" fill="rgb(255,0,0)" stroke-width="10" stroke="rgb(0,0,0)" />
	<path d="M913.456,6212 889.456,6236 488,6236 488,6212 913.456,6212 z " fill-rule="evenodd" fill="rgb(255,0,0)" stroke-width="10" stroke="rgb(0,0,0)" />
	<path d="M443.828,27816.2 943.828,27816.2 919.828,27840.2 419.828,27840.2 443.828,27816.2 z " fill-rule="evenodd" fill="rgb(255,0,0)" stroke-width="10" stroke="rgb(0,0,0)" />
	<path d="M992.426,21600 900,21692.4 900,21600 992.426,21600 z " fill-rule="evenodd" fill="rgb(255,0,0)" stroke-width="10" stroke="rgb(0,0,0)" />
	<path d="M488,5332 795.574,5332 795.574,5356 464,5356 488,5332 z " fill-rule="evenodd" fill="rgb(255,0,0)" stroke-width="10" stroke="rgb(0,0,0)" />
	<path d="M318,6822 818,6822 600,7040 108.603,7040 108.603,7031.4 318,6822 z " fill-rule="evenodd" fill="rgb(255,0,0)" stroke-width="10" stroke="rgb(0,0,0)" />
	<path d="M500,21160 1000,21160 600,21560 399.088,21560 399.088,21260.9 500,21160 z " fill-rule="evenodd" fill="rgb(255,0,0)" stroke-width="10" stroke="rgb(0,0,0)" />
	<path d="M998.177,20720 823.632,20894.5 823.632,20720 998.177,20720 z " fill-rule="evenodd" fill="rgb(255,0,0)" stroke-width="10" stroke="rgb(0,0,0)" />
	<path d="M100,20680 500,20280 557.574,20280 557.574,20580 357.574,20580 357.574,20680 100,20680 z " fill-rule="evenodd" fill="rgb(255,0,0)" stroke-width="10" stroke="rgb(0,0,0)" />
	<path d="M600,22000 100,22000 500,21600 900,21600 900,21700 600,22000 z " fill-rule="evenodd" fill="rgb(255,0,0)" stroke-width="10" stroke="rgb(0,0,0)" />
	<path d="M107.574,21560 399.088,21268.5 399.088,21560 107.574,21560 z " fill-rule="evenodd" fill="rgb(255,0,0)" stroke-width="10" stroke="rgb(0,0,0)" />
	<path d="M983.029,24240 666.059,24557 666.059,24240 983.029,24240 z " fill-rule="evenodd" fill="rgb(255,0,0)" stroke-width="10" stroke="rgb(0,0,0)" />
	<path d="M500,23360 1000,23360 600,23760 174.544,23760 174.544,23685.5 500,23360 z " fill-rule="evenodd" fill="rgb(255,0,0)" stroke-width="10" stroke="rgb(0,0,0)" />
	<path d="M600,26840 100,26840 500,26440 916.059,26440 916.059,26523.9 600,26840 z " fill-rule="evenodd" fill="rgb(255,0,0)" stroke-width="10" stroke="rgb(0,0,0)" />
	<path d="M993.964,25560 686.39,25867.6 686.39,25560 993.964,25560 z " fill-rule="evenodd" fill="rgb(255,0,0)" stroke-width="10" stroke="rgb(0,0,0)" />
	<path d="M992.426,19840 592.426,20240 500,20240 500,19840 992.426,19840 z " fill-rule="evenodd" fill="rgb(255,0,0)" stroke-width="10" stroke="rgb(0,0,0)" />
	<path d="M318,6382 818,6382 600,6600 100,6600 318,6382 z " fill-rule="evenodd" fill="rgb(255,0,0)" stroke-width="10" stroke="rgb(0,0,0)" />
	<path d="M500,19400 1000,19400 600,19800 425.456,19800 425.456,19474.5 500,19400 z " fill-rule="evenodd" fill="rgb(255,0,0)" stroke-width="10" stroke="rgb(0,0,0)" />
	<path d="M100,19360 500,18960 500,19360 100,19360 z " fill-rule="evenodd" fill="rgb(255,0,0)" stroke-width="10" stroke="rgb(0,0,0)" />
	<path d="M996.599,18520 788.114,18728.5 788.114,18520 996.599,18520 z " fill-rule="evenodd" fill="rgb(255,0,0)" stroke-width="10" stroke="rgb(0,0,0)" />
	<path d="M500,18080 1000,18080 600,18480 283.029,18480 283.029,18297 500,18080 z " fill-rule="evenodd" fill="rgb(255,0,0)" stroke-width="10" stroke="rgb(0,0,0)" />
	<path d="M100,18040 500,17640 516.059,17640 516.059,18040 100,18040 z " fill-rule="evenodd" fill="rgb(255,0,0)" stroke-width="10" stroke="rgb(0,0,0)" />
	<path d="M992.426,17200 608.485,17583.9 608.485,17200 992.426,17200 z " fill-rule="evenodd" fill="rgb(255,0,0)" stroke-width="10" stroke="rgb(0,0,0)" />
	<path d="M500,5760 1000,5760 600,6160 107.574,6160 107.574,6152.43 500,5760 z " fill-rule="evenodd" fill="rgb(255,0,0)" stroke-width="10" stroke="rgb(0,0,0)" />
	<path d="M318,5502 818,5502 600,5720 100,5720 318,5502 z " fill-rule="evenodd" fill="rgb(255,0,0)" stroke-width="10" stroke="rgb(0,0,0)" />
	<path d="M600,29480 100,29480 500,29080 606.662,29080 606.662,29473.3 600,29480 z " fill-rule="evenodd" fill="rgb(255,0,0)" stroke-width="10" stroke="rgb(0,0,0)" />
	<path d="M998.177,16760 932.118,16826.1 932.118,16760 998.177,16760 z " fill-rule="evenodd" fill="rgb(255,0,0)" stroke-width="10" stroke="rgb(0,0,0)" />
	<path d="M998.177,16320 898.177,16420 898.177,16320 998.177,16320 z " fill-rule="evenodd" fill="rgb(255,0,0)" stroke-width="10" stroke="rgb(0,0,0)" />
	<path d="M500,28640 1000,28640 600,29040 391.515,29040 391.515,28748.5 500,28640 z " fill-rule="evenodd" fill="rgb(255,0,0)" stroke-width="10" stroke="rgb(0,0,0)" />
	<path d="M600,16280 100,16280 500,15880 624.544,15880 624.544,16255.5 600,16280 z " fill-rule="evenodd" fill="rgb(255,0,0)" stroke-width="10" stroke="rgb(0,0,0)" />
	<path d="M992.426,15440 716.971,15715.5 716.971,15440 992.426,15440 z " fill-rule="evenodd" fill="rgb(255,0,0)" stroke-width="10" stroke="rgb(0,0,0)" />
	<path d="M471.941,6236 488,6219.94 488,6236 471.941,6236 z " fill-rule="evenodd" fill="rgb(255,0,0)" stroke-width="10" stroke="rgb(0,0,0)" />
	<path d="M500,15000 1000,15000 600,15400 216.059,15400 216.059,15283.9 500,15000 z " fill-rule="evenodd" fill="rgb(255,0,0)" stroke-width="10" stroke="rgb(0,0,0)" />
	<path d="M600,14960 100,14960 500,14560 715.147,14560 715.147,14844.9 600,14960 z " fill-rule="evenodd" fill="rgb(255,0,0)" stroke-width="10" stroke="rgb(0,0,0)" />
	<path d="M101.823,26400 208.485,26293.3 208.485,26400 101.823,26400 z " fill-rule="evenodd" fill="rgb(255,0,0)" stroke-width="10" stroke="rgb(0,0,0)" />
	<path d="M318,5062 818,5062 600,5280 100,5280 318,5062 z " fill-rule="evenodd" fill="rgb(255,0,0)" stroke-width="10" stroke="rgb(0,0,0)" />
	<path d="M101.823,20240 500,19841.8 500,20240 101.823,20240 z " fill-rule="evenodd" fill="rgb(255,0,0)" stroke-width="10" stroke="rgb(0,0,0)" />
	<path d="M982.118,17640 582.118,18040 516.059,18040 516.059,17640 982.118,17640 z " fill-rule="evenodd" fill="rgb(255,0,0)" stroke-width="10" stroke="rgb(0,0,0)" />
	<path d="M600,17600 100,17600 500,17200 608.485,17200 608.485,17591.5 600,17600 z " fill-rule="evenodd" fill="rgb(255,0,0)" stroke-width="10" stroke="rgb(0,0,0)" />
	<path d="M500,18960 1000,18960 600,19360 500,19360 500,18960 500,18960 z " fill-rule="evenodd" fill="rgb(255,0,0)" stroke-width="10" stroke="rgb(0,0,0)" />
	<path d="M600,14520 100,14520 500,14120 733.029,14120 733.029,14387 600,14520 z " fill-rule="evenodd" fill="rgb(255,0,0)" stroke-width="10" stroke="rgb(0,0,0)" />
	<path d="M990.603,13680 823.632,13847 823.632,13680 990.603,13680 z " fill-rule="evenodd" fill="rgb(255,0,0)" stroke-width="10" stroke="rgb(0,0,0)" />
	<path d="M372,4568 496.544,4443.46 496.544,4568 372,4568 z " fill-rule="evenodd" fill="rgb(255,0,0)" stroke-width="10" stroke="rgb(0,0,0)" />
	<path d="M500,13240 1000,13240 600,13640 324.544,13640 324.544,13415.5 500,13240 z " fill-rule="evenodd" fill="rgb(255,0,0)" stroke-width="10" stroke="rgb(0,0,0)" />
	<path d="M600,21120 100,21120 500,20720 823.632,20720 823.632,20896.4 600,21120 z " fill-rule="evenodd" fill="rgb(255,0,0)" stroke-width="10" stroke="rgb(0,0,0)" />
	<path d="M100,28600 315.147,28384.9 315.147,28600 100,28600 z " fill-rule="evenodd" fill="rgb(255,0,0)" stroke-width="10" stroke="rgb(0,0,0)" />
	<path d="M318,4622 818,4622 600,4840 100,4840 318,4622 z " fill-rule="evenodd" fill="rgb(255,0,0)" stroke-width="10" stroke="rgb(0,0,0)" />
	<path d="M600,16720 100,16720 500,16320 898.177,16320 898.177,16421.8 600,16720 z " fill-rule="evenodd" fill="rgb(255,0,0)" stroke-width="10" stroke="rgb(0,0,0)" />
	<path d="M500,12800 1000,12800 600,13200 133.941,13200 133.941,13166.1 500,12800 z " fill-rule="evenodd" fill="rgb(255,0,0)" stroke-width="10" stroke="rgb(0,0,0)" />
	<path d="M109.397,12760 217.882,12651.5 217.882,12760 109.397,12760 z " fill-rule="evenodd" fill="rgb(255,0,0)" stroke-width="10" stroke="rgb(0,0,0)" />
	<path d="M500,4000 1000,4000 600,4400 100,4400 346,4154 600,4154 600,4054 446,4054 500,4000 z " fill-rule="evenodd" fill="rgb(255,0,0)" stroke-width="10" stroke="rgb(0,0,0)" />
	<path d="M600,3960 100,3960 500,3560 1000,3560 941.515,3618.49 941.515,3614 791.515,3614 791.515,3714 841.515,3714 841.515,3718.49 600,3960 z " fill-rule="evenodd" fill="rgb(255,0,0)" stroke-width="10" stroke="rgb(0,0,0)" />
	<path d="M117.882,12320 350.912,12087 350.912,12320 117.882,12320 z " fill-rule="evenodd" fill="rgb(255,0,0)" stroke-width="10" stroke="rgb(0,0,0)" />
	<path d="M500,11480 1000,11480 600,11880 433.029,11880 433.029,11547 500,11480 z " fill-rule="evenodd" fill="rgb(255,0,0)" stroke-width="10" stroke="rgb(0,0,0)" />
	<path d="M600,17160 100,17160 500,16760 932.118,16760 932.118,16827.9 600,17160 z " fill-rule="evenodd" fill="rgb(255,0,0)" stroke-width="10" stroke="rgb(0,0,0)" />
	<path d="M109.397,11880 433.029,11556.4 433.029,11880 109.397,11880 z " fill-rule="evenodd" fill="rgb(255,0,0)" stroke-width="10" stroke="rgb(0,0,0)" />
	<path d="M318,3302 818,3302 600,3520 100,3520 318,3302 z " fill-rule="evenodd" fill="rgb(255,0,0)" stroke-width="10" stroke="rgb(0,0,0)" />
	<path d="M101.823,29040 391.515,28750.3 391.515,29040 101.823,29040 z " fill-rule="evenodd" fill="rgb(255,0,0)" stroke-width="10" stroke="rgb(0,0,0)" />
	<path d="M998.177,11040 640.603,11397.6 640.603,11040 998.177,11040 z " fill-rule="evenodd" fill="rgb(255,0,0)" stroke-width="10" stroke="rgb(0,0,0)" />
	<path d="M600,15840 100,15840 500,15440 716.971,15440 716.971,15723 600,15840 z " fill-rule="evenodd" fill="rgb(255,0,0)" stroke-width="10" stroke="rgb(0,0,0)" />
	<path d="M624.544,16117.5 624.544,15880 862.059,15880 624.544,16117.5 z " fill-rule="evenodd" fill="rgb(255,0,0)" stroke-width="10" stroke="rgb(0,0,0)" />
	<path d="M497.828,27762.2 997.828,27762.2 943.828,27816.2 443.828,27816.2 497.828,27762.2 z " fill-rule="evenodd" fill="rgb(255,0,0)" stroke-width="10" stroke="rgb(0,0,0)" />
	<path d="M600,3080 100,3080 500,2680 990.022,2680 997.119,2682.88 600,3080 z " fill-rule="evenodd" fill="rgb(255,0,0)" stroke-width="10" stroke="rgb(0,0,0)" />
	<path d="M600,11000 100,11000 494.668,10605.3 850.278,10749.7 600,11000 z " fill-rule="evenodd" fill="rgb(255,0,0)" stroke-width="10" stroke="rgb(0,0,0)" />
	<path d="M100,28160 347.828,27912.2 532.118,27987 532.118,28160 100,28160 z " fill-rule="evenodd" fill="rgb(255,0,0)" stroke-width="10" stroke="rgb(0,0,0)" />
	<path d="M322.839,28377.2 822.839,28377.2 604.839,28595.2 315.147,28595.2 315.147,28384.9 322.839,28377.2 z " fill-rule="evenodd" fill="rgb(255,0,0)" stroke-width="10" stroke="rgb(0,0,0)" />
	<path d="M500,10160 1000,10160 600,10560 242.426,10560 242.426,10417.6 500,10160 z " fill-rule="evenodd" fill="rgb(255,0,0)" stroke-width="10" stroke="rgb(0,0,0)" />
	<path d="M107.574,13640 274.544,13473 274.544,13494 324.544,13494 324.544,13640 107.574,13640 z " fill-rule="evenodd" fill="rgb(255,0,0)" stroke-width="10" stroke="rgb(0,0,0)" />
	<path d="M372,6768 872,6768 818,6822 318,6822 372,6768 z " fill-rule="evenodd" fill="rgb(255,0,0)" stroke-width="10" stroke="rgb(0,0,0)" />
	<path d="M500,25120 1000,25120 600,25520 492.923,25520 213.468,25406.5 500,25120 z " fill-rule="evenodd" fill="rgb(255,0,0)" stroke-width="10" stroke="rgb(0,0,0)" />
	<path d="M600,10120 100,10120 384.081,9835.92 739.692,9980.31 600,10120 z " fill-rule="evenodd" fill="rgb(255,0,0)" stroke-width="10" stroke="rgb(0,0,0)" />
	<path d="M124.755,9680 261.996,9542.76 600,9680 124.755,9680 z " fill-rule="evenodd" fill="rgb(255,0,0)" stroke-width="10" stroke="rgb(0,0,0)" />
	<path d="M982.118,14120 733.029,14369.1 733.029,14120 982.118,14120 z " fill-rule="evenodd" fill="rgb(255,0,0)" stroke-width="10" stroke="rgb(0,0,0)" />
	<path d="M600,2640 100,2640 500,2240 1000,2240 946,2294 775.456,2294 775.456,2464.54 600,2640 z " fill-rule="evenodd" fill="rgb(255,0,0)" stroke-width="10" stroke="rgb(0,0,0)" />
	<path d="M600,9240 100,9240 500,8840 732.618,8840 922.785,8917.21 600,9240 z " fill-rule="evenodd" fill="rgb(255,0,0)" stroke-width="10" stroke="rgb(0,0,0)" />
	<path d="M600,8800 100,8800 420.335,8479.66 775.945,8624.05 600,8800 z " fill-rule="evenodd" fill="rgb(255,0,0)" stroke-width="10" stroke="rgb(0,0,0)" />
	<path d="M600,8360 100,8360 273.495,8186.51 629.105,8330.9 600,8360 z " fill-rule="evenodd" fill="rgb(255,0,0)" stroke-width="10" stroke="rgb(0,0,0)" />
	<path d="M149.542,7920 176.196,7893.35 241.842,7920 149.542,7920 z " fill-rule="evenodd" fill="rgb(255,0,0)" stroke-width="10" stroke="rgb(0,0,0)" />
	<path d="M500,11920 1000,11920 600,12320 350.912,12320 350.912,12069.1 500,11920 z " fill-rule="evenodd" fill="rgb(255,0,0)" stroke-width="10" stroke="rgb(0,0,0)" />
	<path d="M500,1800 1000,1800 600,2200 100,2200 246,2054 483.941,2054 483.941,1854 446,1854 500,1800 z " fill-rule="evenodd" fill="rgb(255,0,0)" stroke-width="10" stroke="rgb(0,0,0)" />
	<path d="M485.693,8414.31 985.693,8414.31 775.945,8624.05 420.335,8479.66 485.693,8414.31 z " fill-rule="evenodd" fill="rgb(255,0,0)" stroke-width="10" stroke="rgb(0,0,0)" />
	<path d="M950.458,8840 887.55,8902.91 732.618,8840 950.458,8840 z " fill-rule="evenodd" fill="rgb(255,0,0)" stroke-width="10" stroke="rgb(0,0,0)" />
	<path d="M101.823,10560 242.426,10419.4 242.426,10560 101.823,10560 z " fill-rule="evenodd" fill="rgb(255,0,0)" stroke-width="10" stroke="rgb(0,0,0)" />
	<path d="M818,6382 318,6382 464,6236 964,6236 818,6382 z " fill-rule="evenodd" fill="rgb(255,0,0)" stroke-width="10" stroke="rgb(0,0,0)" />
	<path d="M426,6714 926,6714 872,6768 372,6768 426,6714 z " fill-rule="evenodd" fill="rgb(255,0,0)" stroke-width="10" stroke="rgb(0,0,0)" />
	<path d="M485.693,7974.31 985.693,7974.31 629.105,8330.9 273.495,8186.51 485.693,7974.31 z " fill-rule="evenodd" fill="rgb(255,0,0)" stroke-width="10" stroke="rgb(0,0,0)" />
	<path d="M600,11440 100,11440 500,11040 640.603,11040 640.603,11399.4 600,11440 z " fill-rule="evenodd" fill="rgb(255,0,0)" stroke-width="10" stroke="rgb(0,0,0)" />
	<path d="M818,5502 318,5502 464,5356 964,5356 818,5502 z " fill-rule="evenodd" fill="rgb(255,0,0)" stroke-width="10" stroke="rgb(0,0,0)" />
	<path d="M480,6660 980,6660 926,6714 426,6714 480,6660 z " fill-rule="evenodd" fill="rgb(255,0,0)" stroke-width="10" stroke="rgb(0,0,0)" />
	<path d="M500,7520 1000,7520 600,7920 241.842,7920 140.961,7879.04 500,7520 z " fill-rule="evenodd" fill="rgb(255,0,0)" stroke-width="10" stroke="rgb(0,0,0)" />
	<path d="M910.417,26901.7 878.299,26933.8 878.299,26901.7 910.417,26901.7 z " fill-rule="evenodd" fill="rgb(255,0,0)" stroke-width="10" stroke="rgb(0,0,0)" />
	<path d="M818,5062 318,5062 464,4916 964,4916 818,5062 z " fill-rule="evenodd" fill="rgb(255,0,0)" stroke-width="10" stroke="rgb(0,0,0)" />
	<path d="M372,4568 872,4568 818,4622 318,4622 372,4568 z " fill-rule="evenodd" fill="rgb(255,0,0)" stroke-width="10" stroke="rgb(0,0,0)" />
	<path d="M154.44,27720 253.601,27620.8 497.821,27720 154.44,27720 z " fill-rule="evenodd" fill="rgb(255,0,0)" stroke-width="10" stroke="rgb(0,0,0)" />
	<path d="M250.912,18334 283.029,18334 283.029,18480 104.912,18480 250.912,18334 z " fill-rule="evenodd" fill="rgb(255,0,0)" stroke-width="10" stroke="rgb(0,0,0)" />
	<path d="M446.182,26933.8 500.182,26879.8 878.299,26879.8 878.299,26933.8 446.182,26933.8 z " fill-rule="evenodd" fill="rgb(255,0,0)" stroke-width="10" stroke="rgb(0,0,0)" />
	<path d="M485.693,9734.31 985.693,9734.31 739.692,9980.31 384.081,9835.92 485.693,9734.31 z " fill-rule="evenodd" fill="rgb(255,0,0)" stroke-width="10" stroke="rgb(0,0,0)" />
	<path d="M500,22040 1000,22040 600,22440 167.882,22440 167.882,22372.1 500,22040 z " fill-rule="evenodd" fill="rgb(255,0,0)" stroke-width="10" stroke="rgb(0,0,0)" />
	<path d="M1000,1360 600,1760 100,1760 500,1360 514.922,1360 422.426,1588 292.426,1588 292.426,1688 489.426,1688 622.437,1360 1000,1360 z " fill-rule="evenodd" fill="rgb(255,0,0)" stroke-width="10" stroke="rgb(0,0,0)" />
	<path d="M492.842,9287.16 992.842,9287.16 600,9680 244.39,9535.61 492.842,9287.16 z " fill-rule="evenodd" fill="rgb(255,0,0)" stroke-width="10" stroke="rgb(0,0,0)" />
	<path d="M101.823,19800 425.456,19476.4 425.456,19800 101.823,19800 z " fill-rule="evenodd" fill="rgb(255,0,0)" stroke-width="10" stroke="rgb(0,0,0)" />
	<path d="M104.738,13200 133.941,13170.8 122.094,13200 104.738,13200 z " fill-rule="evenodd" fill="rgb(255,0,0)" stroke-width="10" stroke="rgb(0,0,0)" />
	<path d="M600,7480 224.87,7480 310.049,7269.95 500,7080 983.698,7080 995.292,7084.71 600,7480 z " fill-rule="evenodd" fill="rgb(255,0,0)" stroke-width="10" stroke="rgb(0,0,0)" />
	<path d="M600,14080 100,14080 500,13680 823.632,13680 823.632,13856.4 600,14080 z " fill-rule="evenodd" fill="rgb(255,0,0)" stroke-width="10" stroke="rgb(0,0,0)" />
	<path d="M1000,920 600,1320 100,1320 172,1248 509.397,1248 509.397,920 1000,920 z " fill-rule="evenodd" fill="rgb(255,0,0)" stroke-width="10" stroke="rgb(0,0,0)" />
	<path d="M600,18920 100,18920 500,18520 788.114,18520 643.48,18876.5 600,18920 z " fill-rule="evenodd" fill="rgb(255,0,0)" stroke-width="10" stroke="rgb(0,0,0)" />
	<path d="M120.434,7480 296.111,7304.32 224.87,7480 120.434,7480 z " fill-rule="evenodd" fill="rgb(255,0,0)" stroke-width="10" stroke="rgb(0,0,0)" />
	<path d="M963.59,10605.3 828.175,10740.7 494.668,10605.3 963.59,10605.3 z " fill-rule="evenodd" fill="rgb(255,0,0)" stroke-width="10" stroke="rgb(0,0,0)" />
	<path d="M101.823,22880 316.971,22664.9 316.971,22880 101.823,22880 z " fill-rule="evenodd" fill="rgb(255,0,0)" stroke-width="10" stroke="rgb(0,0,0)" />
	<path d="M419.828,27840.2 919.828,27840.2 751.946,28008.1 751.946,27912.2 347.828,27912.2 419.828,27840.2 z " fill-rule="evenodd" fill="rgb(255,0,0)" stroke-width="10" stroke="rgb(0,0,0)" />
	<path d="M500,480 1000,480 600,880 109.397,880 109.397,870.603 500,480 z " fill-rule="evenodd" fill="rgb(255,0,0)" stroke-width="10" stroke="rgb(0,0,0)" />
	<path d="M673.229,157.319 390.548,440 285.317,397.319 382.681,157.319 673.229,157.319 z " fill-rule="evenodd" fill="rgb(255,0,0)" stroke-width="10" stroke="rgb(0,0,0)" />
	<path d="M785.033,24002 683.029,24002 764.945,23800 922.898,23864.1 785.033,24002 z " fill-rule="evenodd" fill="rgb(255,0,0)" stroke-width="10" stroke="rgb(0,0,0)" />
	<path d="M600,25080 100,25080 500,24680 715.147,24680 715.147,24964.9 600,25080 z " fill-rule="evenodd" fill="rgb(255,0,0)" stroke-width="10" stroke="rgb(0,0,0)" />
	<path d="M818,3302 318,3302 490,3130 990,3130 818,3302 z " fill-rule="evenodd" fill="rgb(255,0,0)" stroke-width="10" stroke="rgb(0,0,0)" />
	<path d="M939.691,20280 557.574,20662.1 557.574,20280 939.691,20280 z " fill-rule="evenodd" fill="rgb(255,0,0)" stroke-width="10" stroke="rgb(0,0,0)" />
	<path d="M500,27320 1000,27320 600,27720 498.086,27720 214.871,27605.1 500,27320 z " fill-rule="evenodd" fill="rgb(255,0,0)" stroke-width="10" stroke="rgb(0,0,0)" />
	<path d="M109.397,15400 216.059,15293.3 216.059,15400 109.397,15400 z " fill-rule="evenodd" fill="rgb(255,0,0)" stroke-width="10" stroke="rgb(0,0,0)" />
	<path d="M822.839,28377.2 322.839,28377.2 394.839,28305.2 807.691,28305.2 807.691,28205.2 994.839,28205.2 822.839,28377.2 z " fill-rule="evenodd" fill="rgb(255,0,0)" stroke-width="10" stroke="rgb(0,0,0)" />
	<path d="M500,12360 1000,12360 600,12760 217.882,12760 217.882,12642.1 500,12360 z " fill-rule="evenodd" fill="rgb(255,0,0)" stroke-width="10" stroke="rgb(0,0,0)" />
	<path d="M616.781,28230.3 641.921,28205.2 703.903,28230.3 616.781,28230.3 z " fill-rule="evenodd" fill="rgb(255,0,0)" stroke-width="10" stroke="rgb(0,0,0)" />
	<path d="M675.206,4568 568.544,4568 568.544,4496 747.206,4496 675.206,4568 z " fill-rule="evenodd" fill="rgb(255,0,0)" stroke-width="10" stroke="rgb(0,0,0)" />
	<path d="M988.78,14560 715.147,14833.6 715.147,14560 988.78,14560 z " fill-rule="evenodd" fill="rgb(255,0,0)" stroke-width="10" stroke="rgb(0,0,0)" />
	<path d="M600,27280 100,27280 271.867,27108.1 627.588,27252.4 600,27280 z " fill-rule="evenodd" fill="rgb(255,0,0)" stroke-width="10" stroke="rgb(0,0,0)" />
	<path d="M446.182,26933.8 719.814,26933.8 719.814,27160.2 627.588,27252.4 271.867,27108.1 446.182,26933.8 z " fill-rule="evenodd" fill="rgb(255,0,0)" stroke-width="10" stroke="rgb(0,0,0)" />
	<path d="M496.544,4568 496.544,4446.85 582.733,4481.81 496.544,4568 z " fill-rule="evenodd" fill="rgb(255,0,0)" stroke-width="10" stroke="rgb(0,0,0)" />
</svg>
