<?xml version="1.0" standalone="no" ?>
<!DOCTYPE svg PUBLIC "-//W3C//DTD SVG 1.1//EN" "http://www.w3.org/Graphics/SVG/1.1/DTD/svg11.dtd">
<svg width="8700px" height="7052px" xmlns="http://www.w3.org/2000/svg" version="1.1" >
	<path d="M100,6952 600,6952 1000,6552 500,6552 100,6952 z " fill-rule="evenodd" fill="rgb(0,128,0)" stroke-width="5" stroke="rgb(0,0,0)" />
	<path d="M608.485,6952 1108.49,6952 1508.49,6552 1008.49,6552 608.485,6952 z " fill-rule="evenodd" fill="rgb(0,128,0)" stroke-width="5" stroke="rgb(0,0,0)" />
	<path d="M500,6546 1000,6546 1400,6146 900,6146 500,6546 z " fill-rule="evenodd" fill="rgb(0,128,0)" stroke-width="5" stroke="rgb(0,0,0)" />
	<path d="M1008.49,6546 1508.49,6546 1908.49,6146 1408.49,6146 1008.49,6546 z " fill-rule="evenodd" fill="rgb(0,128,0)" stroke-width="5" stroke="rgb(0,0,0)" />
	<path d="M1516.97,6546 2016.97,6546 2416.97,6146 1916.97,6146 1516.97,6546 z " fill-rule="evenodd" fill="rgb(0,128,0)" stroke-width="5" stroke="rgb(0,0,0)" />
	<path d="M1116.97,6952 1616.97,6952 2016.97,6552 1516.97,6552 1116.97,6952 z " fill-rule="evenodd" fill="rgb(0,128,0)" stroke-width="5" stroke="rgb(0,0,0)" />
	<path d="M2025.46,6546 2525.46,6546 2925.46,6146 2425.46,6146 2025.46,6546 z " fill-rule="evenodd" fill="rgb(0,128,0)" stroke-width="5" stroke="rgb(0,0,0)" />
	<path d="M900,6140 1400,6140 1800,5740 1300,5740 900,6140 z " fill-rule="evenodd" fill="rgb(0,128,0)" stroke-width="5" stroke="rgb(0,0,0)" />
	<path d="M1408.49,6140 1908.49,6140 2308.49,5740 1808.49,5740 1408.49,6140 z " fill-rule="evenodd" fill="rgb(0,128,0)" stroke-width="5" stroke="rgb(0,0,0)" />
	<path d="M1916.97,6140 2416.97,6140 2816.97,5740 2316.97,5740 1916.97,6140 z " fill-rule="evenodd" fill="rgb(0,128,0)" stroke-width="5" stroke="rgb(0,0,0)" />
	<path d="M391.515,6140 891.515,6140 1291.51,5740 791.515,5740 391.515,6140 z " fill-rule="evenodd" fill="rgb(0,128,0)" stroke-width="5" stroke="rgb(0,0,0)" />
	<path d="M1625.46,6952 2125.46,6952 2525.46,6552 2025.46,6552 1625.46,6952 z " fill-rule="evenodd" fill="rgb(0,128,0)" stroke-width="5" stroke="rgb(0,0,0)" />
	<path d="M1300,5734 1800,5734 2200,5334 1700,5334 1300,5734 z " fill-rule="evenodd" fill="rgb(0,128,0)" stroke-width="5" stroke="rgb(0,0,0)" />
	<path d="M1808.49,5734 2308.49,5734 2708.49,5334 2208.49,5334 1808.49,5734 z " fill-rule="evenodd" fill="rgb(0,128,0)" stroke-width="5" stroke="rgb(0,0,0)" />
	<path d="M791.515,5734 1291.51,5734 1691.51,5334 1191.51,5334 791.515,5734 z " fill-rule="evenodd" fill="rgb(0,128,0)" stroke-width="5" stroke="rgb(0,0,0)" />
	<path d="M2133.94,6952 2633.94,6952 3033.94,6552 2533.94,6552 2133.94,6952 z " fill-rule="evenodd" fill="rgb(0,128,0)" stroke-width="5" stroke="rgb(0,0,0)" />
	<path d="M1700,5328 2200,5328 2600,4928 2100,4928 1700,5328 z " fill-rule="evenodd" fill="rgb(0,128,0)" stroke-width="5" stroke="rgb(0,0,0)" />
	<path d="M5259.4,5328 5759.4,5328 6159.4,4928 5659.4,4928 5259.4,5328 z " fill-rule="evenodd" fill="rgb(0,128,0)" stroke-width="5" stroke="rgb(0,0,0)" />
	<path d="M5767.88,5328 6267.88,5328 6667.88,4928 6167.88,4928 5767.88,5328 z " fill-rule="evenodd" fill="rgb(0,128,0)" stroke-width="5" stroke="rgb(0,0,0)" />
	<path d="M283.029,5734 783.029,5734 1183.03,5334 683.029,5334 283.029,5734 z " fill-rule="evenodd" fill="rgb(0,128,0)" stroke-width="5" stroke="rgb(0,0,0)" />
	<path d="M1191.51,5328 1691.51,5328 2091.51,4928 1591.51,4928 1191.51,5328 z " fill-rule="evenodd" fill="rgb(0,128,0)" stroke-width="5" stroke="rgb(0,0,0)" />
	<path d="M5150.91,4922 5650.91,4922 6050.91,4522 5550.91,4522 5150.91,4922 z " fill-rule="evenodd" fill="rgb(0,128,0)" stroke-width="5" stroke="rgb(0,0,0)" />
	<path d="M5659.4,4922 6159.4,4922 6559.4,4522 6059.4,4522 5659.4,4922 z " fill-rule="evenodd" fill="rgb(0,128,0)" stroke-width="5" stroke="rgb(0,0,0)" />
	<path d="M6276.37,5328 6776.37,5328 7176.37,4928 6676.37,4928 6276.37,5328 z " fill-rule="evenodd" fill="rgb(0,128,0)" stroke-width="5" stroke="rgb(0,0,0)" />
	<path d="M6167.88,4922 6667.88,4922 7067.88,4522 6567.88,4522 6167.88,4922 z " fill-rule="evenodd" fill="rgb(0,128,0)" stroke-width="5" stroke="rgb(0,0,0)" />
	<path d="M6676.37,4922 7176.37,4922 7576.37,4522 7076.37,4522 6676.37,4922 z " fill-rule="evenodd" fill="rgb(0,128,0)" stroke-width="5" stroke="rgb(0,0,0)" />
	<path d="M7184.85,4922 7684.85,4922 8084.85,4522 7584.85,4522 7184.85,4922 z " fill-rule="evenodd" fill="rgb(0,128,0)" stroke-width="5" stroke="rgb(0,0,0)" />
	<path d="M683.029,5328 1183.03,5328 1583.03,4928 1083.03,4928 683.029,5328 z " fill-rule="evenodd" fill="rgb(0,128,0)" stroke-width="5" stroke="rgb(0,0,0)" />
	<path d="M1591.51,4922 2091.51,4922 2491.51,4522 1991.51,4522 1591.51,4922 z " fill-rule="evenodd" fill="rgb(0,128,0)" stroke-width="5" stroke="rgb(0,0,0)" />
	<path d="M4025.46,4516 4525.46,4516 4925.46,4116 4425.46,4116 4025.46,4516 z " fill-rule="evenodd" fill="rgb(0,128,0)" stroke-width="5" stroke="rgb(0,0,0)" />
	<path d="M5550.91,4516 6050.91,4516 6450.91,4116 5950.91,4116 5550.91,4516 z " fill-rule="evenodd" fill="rgb(0,128,0)" stroke-width="5" stroke="rgb(0,0,0)" />
	<path d="M6059.4,4516 6559.4,4516 6959.4,4116 6459.4,4116 6059.4,4516 z " fill-rule="evenodd" fill="rgb(0,128,0)" stroke-width="5" stroke="rgb(0,0,0)" />
	<path d="M6567.88,4516 7067.88,4516 7467.88,4116 6967.88,4116 6567.88,4516 z " fill-rule="evenodd" fill="rgb(0,128,0)" stroke-width="5" stroke="rgb(0,0,0)" />
	<path d="M7076.37,4516 7576.37,4516 7976.37,4116 7476.37,4116 7076.37,4516 z " fill-rule="evenodd" fill="rgb(0,128,0)" stroke-width="5" stroke="rgb(0,0,0)" />
	<path d="M6784.85,5328 7284.85,5328 7684.85,4928 7184.85,4928 6784.85,5328 z " fill-rule="evenodd" fill="rgb(0,128,0)" stroke-width="5" stroke="rgb(0,0,0)" />
	<path d="M7693.34,4922 8193.34,4922 8593.34,4522 8093.34,4522 7693.34,4922 z " fill-rule="evenodd" fill="rgb(0,128,0)" stroke-width="5" stroke="rgb(0,0,0)" />
	<path d="M7584.85,4516 8084.85,4516 8484.85,4116 7984.85,4116 7584.85,4516 z " fill-rule="evenodd" fill="rgb(0,128,0)" stroke-width="5" stroke="rgb(0,0,0)" />
	<path d="M174.544,5328 674.544,5328 1074.54,4928 574.544,4928 174.544,5328 z " fill-rule="evenodd" fill="rgb(0,128,0)" stroke-width="5" stroke="rgb(0,0,0)" />
	<path d="M1083.03,4922 1583.03,4922 1983.03,4522 1483.03,4522 1083.03,4922 z " fill-rule="evenodd" fill="rgb(0,128,0)" stroke-width="5" stroke="rgb(0,0,0)" />
	<path d="M1991.51,4516 2491.51,4516 2891.51,4116 2391.51,4116 1991.51,4516 z " fill-rule="evenodd" fill="rgb(0,128,0)" stroke-width="5" stroke="rgb(0,0,0)" />
	<path d="M3916.97,4110 4416.97,4110 4816.97,3710 4316.97,3710 3916.97,4110 z " fill-rule="evenodd" fill="rgb(0,128,0)" stroke-width="5" stroke="rgb(0,0,0)" />
	<path d="M5442.43,4110 5942.43,4110 6342.43,3710 5842.43,3710 5442.43,4110 z " fill-rule="evenodd" fill="rgb(0,128,0)" stroke-width="5" stroke="rgb(0,0,0)" />
	<path d="M5950.91,4110 6450.91,4110 6850.91,3710 6350.91,3710 5950.91,4110 z " fill-rule="evenodd" fill="rgb(0,128,0)" stroke-width="5" stroke="rgb(0,0,0)" />
	<path d="M6459.4,4110 6959.4,4110 7359.4,3710 6859.4,3710 6459.4,4110 z " fill-rule="evenodd" fill="rgb(0,128,0)" stroke-width="5" stroke="rgb(0,0,0)" />
	<path d="M6967.88,4110 7467.88,4110 7867.88,3710 7367.88,3710 6967.88,4110 z " fill-rule="evenodd" fill="rgb(0,128,0)" stroke-width="5" stroke="rgb(0,0,0)" />
	<path d="M7476.37,4110 7976.37,4110 8376.37,3710 7876.37,3710 7476.37,4110 z " fill-rule="evenodd" fill="rgb(0,128,0)" stroke-width="5" stroke="rgb(0,0,0)" />
	<path d="M7293.34,5328 7793.34,5328 8193.34,4928 7693.34,4928 7293.34,5328 z " fill-rule="evenodd" fill="rgb(0,128,0)" stroke-width="5" stroke="rgb(0,0,0)" />
	<path d="M574.544,4922 1074.54,4922 1474.54,4522 974.544,4522 574.544,4922 z " fill-rule="evenodd" fill="rgb(0,128,0)" stroke-width="5" stroke="rgb(0,0,0)" />
	<path d="M1483.03,4516 1983.03,4516 2383.03,4116 1883.03,4116 1483.03,4516 z " fill-rule="evenodd" fill="rgb(0,128,0)" stroke-width="5" stroke="rgb(0,0,0)" />
	<path d="M3808.49,3704 4308.49,3704 4708.49,3304 4208.49,3304 3808.49,3704 z " fill-rule="evenodd" fill="rgb(0,128,0)" stroke-width="5" stroke="rgb(0,0,0)" />
	<path d="M5333.94,3704 5833.94,3704 6233.94,3304 5733.94,3304 5333.94,3704 z " fill-rule="evenodd" fill="rgb(0,128,0)" stroke-width="5" stroke="rgb(0,0,0)" />
	<path d="M5842.43,3704 6342.43,3704 6742.43,3304 6242.43,3304 5842.43,3704 z " fill-rule="evenodd" fill="rgb(0,128,0)" stroke-width="5" stroke="rgb(0,0,0)" />
	<path d="M6350.91,3704 6850.91,3704 7250.91,3304 6750.91,3304 6350.91,3704 z " fill-rule="evenodd" fill="rgb(0,128,0)" stroke-width="5" stroke="rgb(0,0,0)" />
	<path d="M6859.4,3704 7359.4,3704 7759.4,3304 7259.4,3304 6859.4,3704 z " fill-rule="evenodd" fill="rgb(0,128,0)" stroke-width="5" stroke="rgb(0,0,0)" />
	<path d="M7367.88,3704 7867.88,3704 8267.88,3304 7767.88,3304 7367.88,3704 z " fill-rule="evenodd" fill="rgb(0,128,0)" stroke-width="5" stroke="rgb(0,0,0)" />
	<path d="M974.544,4516 1474.54,4516 1874.54,4116 1374.54,4116 974.544,4516 z " fill-rule="evenodd" fill="rgb(0,128,0)" stroke-width="5" stroke="rgb(0,0,0)" />
	<path d="M1883.03,4110 2383.03,4110 2783.03,3710 2283.03,3710 1883.03,4110 z " fill-rule="evenodd" fill="rgb(0,128,0)" stroke-width="5" stroke="rgb(0,0,0)" />
	<path d="M5225.46,3298 5725.46,3298 6125.46,2898 5625.46,2898 5225.46,3298 z " fill-rule="evenodd" fill="rgb(0,128,0)" stroke-width="5" stroke="rgb(0,0,0)" />
	<path d="M5733.94,3298 6233.94,3298 6633.94,2898 6133.94,2898 5733.94,3298 z " fill-rule="evenodd" fill="rgb(0,128,0)" stroke-width="5" stroke="rgb(0,0,0)" />
	<path d="M6242.43,3298 6742.43,3298 7142.43,2898 6642.43,2898 6242.43,3298 z " fill-rule="evenodd" fill="rgb(0,128,0)" stroke-width="5" stroke="rgb(0,0,0)" />
	<path d="M6750.91,3298 7250.91,3298 7650.91,2898 7150.91,2898 6750.91,3298 z " fill-rule="evenodd" fill="rgb(0,128,0)" stroke-width="5" stroke="rgb(0,0,0)" />
	<path d="M7259.4,3298 7759.4,3298 8159.4,2898 7659.4,2898 7259.4,3298 z " fill-rule="evenodd" fill="rgb(0,128,0)" stroke-width="5" stroke="rgb(0,0,0)" />
	<path d="M466.059,4516 966.059,4516 1366.06,4116 866.059,4116 466.059,4516 z " fill-rule="evenodd" fill="rgb(0,128,0)" stroke-width="5" stroke="rgb(0,0,0)" />
	<path d="M1374.54,4110 1874.54,4110 2274.54,3710 1774.54,3710 1374.54,4110 z " fill-rule="evenodd" fill="rgb(0,128,0)" stroke-width="5" stroke="rgb(0,0,0)" />
	<path d="M4100,2892 4600,2892 5000,2492 4500,2492 4100,2892 z " fill-rule="evenodd" fill="rgb(0,128,0)" stroke-width="5" stroke="rgb(0,0,0)" />
	<path d="M4608.49,2892 5108.49,2892 5508.49,2492 5008.49,2492 4608.49,2892 z " fill-rule="evenodd" fill="rgb(0,128,0)" stroke-width="5" stroke="rgb(0,0,0)" />
	<path d="M5116.97,2892 5616.97,2892 6016.97,2492 5516.97,2492 5116.97,2892 z " fill-rule="evenodd" fill="rgb(0,128,0)" stroke-width="5" stroke="rgb(0,0,0)" />
	<path d="M5625.46,2892 6125.46,2892 6525.46,2492 6025.46,2492 5625.46,2892 z " fill-rule="evenodd" fill="rgb(0,128,0)" stroke-width="5" stroke="rgb(0,0,0)" />
	<path d="M6133.94,2892 6633.94,2892 7033.94,2492 6533.94,2492 6133.94,2892 z " fill-rule="evenodd" fill="rgb(0,128,0)" stroke-width="5" stroke="rgb(0,0,0)" />
	<path d="M6642.43,2892 7142.43,2892 7542.43,2492 7042.43,2492 6642.43,2892 z " fill-rule="evenodd" fill="rgb(0,128,0)" stroke-width="5" stroke="rgb(0,0,0)" />
	<path d="M866.059,4110 1366.06,4110 1766.06,3710 1266.06,3710 866.059,4110 z " fill-rule="evenodd" fill="rgb(0,128,0)" stroke-width="5" stroke="rgb(0,0,0)" />
	<path d="M1774.54,3704 2274.54,3704 2674.54,3304 2174.54,3304 1774.54,3704 z " fill-rule="evenodd" fill="rgb(0,128,0)" stroke-width="5" stroke="rgb(0,0,0)" />
	<path d="M3591.51,2892 4091.51,2892 4491.51,2492 3991.51,2492 3591.51,2892 z " fill-rule="evenodd" fill="rgb(0,128,0)" stroke-width="5" stroke="rgb(0,0,0)" />
	<path d="M4500,2486 5000,2486 5400,2086 4900,2086 4500,2486 z " fill-rule="evenodd" fill="rgb(0,128,0)" stroke-width="5" stroke="rgb(0,0,0)" />
	<path d="M5008.49,2486 5508.49,2486 5908.49,2086 5408.49,2086 5008.49,2486 z " fill-rule="evenodd" fill="rgb(0,128,0)" stroke-width="5" stroke="rgb(0,0,0)" />
	<path d="M5516.97,2486 6016.97,2486 6416.97,2086 5916.97,2086 5516.97,2486 z " fill-rule="evenodd" fill="rgb(0,128,0)" stroke-width="5" stroke="rgb(0,0,0)" />
	<path d="M6025.46,2486 6525.46,2486 6925.46,2086 6425.46,2086 6025.46,2486 z " fill-rule="evenodd" fill="rgb(0,128,0)" stroke-width="5" stroke="rgb(0,0,0)" />
	<path d="M357.574,4110 857.574,4110 1257.57,3710 757.574,3710 357.574,4110 z " fill-rule="evenodd" fill="rgb(0,128,0)" stroke-width="5" stroke="rgb(0,0,0)" />
	<path d="M1266.06,3704 1766.06,3704 2166.06,3304 1666.06,3304 1266.06,3704 z " fill-rule="evenodd" fill="rgb(0,128,0)" stroke-width="5" stroke="rgb(0,0,0)" />
	<path d="M3083.03,2892 3583.03,2892 3983.03,2492 3483.03,2492 3083.03,2892 z " fill-rule="evenodd" fill="rgb(0,128,0)" stroke-width="5" stroke="rgb(0,0,0)" />
	<path d="M3991.51,2486 4491.51,2486 4891.51,2086 4391.51,2086 3991.51,2486 z " fill-rule="evenodd" fill="rgb(0,128,0)" stroke-width="5" stroke="rgb(0,0,0)" />
	<path d="M4900,2080 5400,2080 5800,1680 5300,1680 4900,2080 z " fill-rule="evenodd" fill="rgb(0,128,0)" stroke-width="5" stroke="rgb(0,0,0)" />
	<path d="M757.574,3704 1257.57,3704 1657.57,3304 1157.57,3304 757.574,3704 z " fill-rule="evenodd" fill="rgb(0,128,0)" stroke-width="5" stroke="rgb(0,0,0)" />
	<path d="M2574.54,2892 3074.54,2892 3474.54,2492 2974.54,2492 2574.54,2892 z " fill-rule="evenodd" fill="rgb(0,128,0)" stroke-width="5" stroke="rgb(0,0,0)" />
	<path d="M3483.03,2486 3983.03,2486 4383.03,2086 3883.03,2086 3483.03,2486 z " fill-rule="evenodd" fill="rgb(0,128,0)" stroke-width="5" stroke="rgb(0,0,0)" />
	<path d="M4391.51,2080 4891.51,2080 5291.51,1680 4791.51,1680 4391.51,2080 z " fill-rule="evenodd" fill="rgb(0,128,0)" stroke-width="5" stroke="rgb(0,0,0)" />
	<path d="M249.088,3704 749.088,3704 1149.09,3304 649.088,3304 249.088,3704 z " fill-rule="evenodd" fill="rgb(0,128,0)" stroke-width="5" stroke="rgb(0,0,0)" />
	<path d="M2066.06,2892 2566.06,2892 2966.06,2492 2466.06,2492 2066.06,2892 z " fill-rule="evenodd" fill="rgb(0,128,0)" stroke-width="5" stroke="rgb(0,0,0)" />
	<path d="M2974.54,2486 3474.54,2486 3874.54,2086 3374.54,2086 2974.54,2486 z " fill-rule="evenodd" fill="rgb(0,128,0)" stroke-width="5" stroke="rgb(0,0,0)" />
	<path d="M3883.03,2080 4383.03,2080 4783.03,1680 4283.03,1680 3883.03,2080 z " fill-rule="evenodd" fill="rgb(0,128,0)" stroke-width="5" stroke="rgb(0,0,0)" />
	<path d="M1557.57,2892 2057.57,2892 2457.57,2492 1957.57,2492 1557.57,2892 z " fill-rule="evenodd" fill="rgb(0,128,0)" stroke-width="5" stroke="rgb(0,0,0)" />
	<path d="M2466.06,2486 2966.06,2486 3366.06,2086 2866.06,2086 2466.06,2486 z " fill-rule="evenodd" fill="rgb(0,128,0)" stroke-width="5" stroke="rgb(0,0,0)" />
	<path d="M3374.54,2080 3874.54,2080 4274.54,1680 3774.54,1680 3374.54,2080 z " fill-rule="evenodd" fill="rgb(0,128,0)" stroke-width="5" stroke="rgb(0,0,0)" />
	<path d="M1049.09,2892 1549.09,2892 1949.09,2492 1449.09,2492 1049.09,2892 z " fill-rule="evenodd" fill="rgb(0,128,0)" stroke-width="5" stroke="rgb(0,0,0)" />
	<path d="M1957.57,2486 2457.57,2486 2857.57,2086 2357.57,2086 1957.57,2486 z " fill-rule="evenodd" fill="rgb(0,128,0)" stroke-width="5" stroke="rgb(0,0,0)" />
	<path d="M2866.06,2080 3366.06,2080 3766.06,1680 3266.06,1680 2866.06,2080 z " fill-rule="evenodd" fill="rgb(0,128,0)" stroke-width="5" stroke="rgb(0,0,0)" />
	<path d="M3774.54,1674 4274.54,1674 4674.54,1274 4174.54,1274 3774.54,1674 z " fill-rule="evenodd" fill="rgb(0,128,0)" stroke-width="5" stroke="rgb(0,0,0)" />
	<path d="M540.603,2892 1040.6,2892 1440.6,2492 940.603,2492 540.603,2892 z " fill-rule="evenodd" fill="rgb(0,128,0)" stroke-width="5" stroke="rgb(0,0,0)" />
	<path d="M1449.09,2486 1949.09,2486 2349.09,2086 1849.09,2086 1449.09,2486 z " fill-rule="evenodd" fill="rgb(0,128,0)" stroke-width="5" stroke="rgb(0,0,0)" />
	<path d="M2357.57,2080 2857.57,2080 3257.57,1680 2757.57,1680 2357.57,2080 z " fill-rule="evenodd" fill="rgb(0,128,0)" stroke-width="5" stroke="rgb(0,0,0)" />
	<path d="M3266.06,1674 3766.06,1674 4166.06,1274 3666.06,1274 3266.06,1674 z " fill-rule="evenodd" fill="rgb(0,128,0)" stroke-width="5" stroke="rgb(0,0,0)" />
	<path d="M940.603,2486 1440.6,2486 1840.6,2086 1340.6,2086 940.603,2486 z " fill-rule="evenodd" fill="rgb(0,128,0)" stroke-width="5" stroke="rgb(0,0,0)" />
	<path d="M1849.09,2080 2349.09,2080 2749.09,1680 2249.09,1680 1849.09,2080 z " fill-rule="evenodd" fill="rgb(0,128,0)" stroke-width="5" stroke="rgb(0,0,0)" />
	<path d="M432.118,2486 932.118,2486 1332.12,2086 832.118,2086 432.118,2486 z " fill-rule="evenodd" fill="rgb(0,128,0)" stroke-width="5" stroke="rgb(0,0,0)" />
	<path d="M1340.6,2080 1840.6,2080 2240.6,1680 1740.6,1680 1340.6,2080 z " fill-rule="evenodd" fill="rgb(0,128,0)" stroke-width="5" stroke="rgb(0,0,0)" />
	<path d="M2249.09,1674 2749.09,1674 3149.09,1274 2649.09,1274 2249.09,1674 z " fill-rule="evenodd" fill="rgb(0,128,0)" stroke-width="5" stroke="rgb(0,0,0)" />
	<path d="M832.118,2080 1332.12,2080 1732.12,1680 1232.12,1680 832.118,2080 z " fill-rule="evenodd" fill="rgb(0,128,0)" stroke-width="5" stroke="rgb(0,0,0)" />
	<path d="M323.632,2080 823.632,2080 1223.63,1680 723.632,1680 323.632,2080 z " fill-rule="evenodd" fill="rgb(0,128,0)" stroke-width="5" stroke="rgb(0,0,0)" />
	<path d="M491.515,6552 100,6943.51 100,6552 491.515,6552 z " fill-rule="evenodd" fill="rgb(255,0,0)" stroke-width="5" stroke="rgb(0,0,0)" />
	<path d="M391.515,6146 891.515,6146 491.515,6546 100,6546 100,6437.51 391.515,6146 z " fill-rule="evenodd" fill="rgb(255,0,0)" stroke-width="5" stroke="rgb(0,0,0)" />
	<path d="M2925.46,6140 2425.46,6140 2825.46,5740 2900,5740 2900,6052 3013.46,6052 2925.46,6140 z " fill-rule="evenodd" fill="rgb(255,0,0)" stroke-width="5" stroke="rgb(0,0,0)" />
	<path d="M2933.94,6140 3021.94,6052 3100,6052 3100,6140 2933.94,6140 z " fill-rule="evenodd" fill="rgb(255,0,0)" stroke-width="5" stroke="rgb(0,0,0)" />
	<path d="M383.029,6146 100,6429.03 100,6146 383.029,6146 z " fill-rule="evenodd" fill="rgb(255,0,0)" stroke-width="5" stroke="rgb(0,0,0)" />
	<path d="M3033.94,6546 2533.94,6546 2933.94,6146 3100,6146 3100,6479.94 3033.94,6546 z " fill-rule="evenodd" fill="rgb(255,0,0)" stroke-width="5" stroke="rgb(0,0,0)" />
	<path d="M2816.97,5734 2316.97,5734 2716.97,5334 2900,5334 2900,5650.97 2816.97,5734 z " fill-rule="evenodd" fill="rgb(255,0,0)" stroke-width="5" stroke="rgb(0,0,0)" />
	<path d="M2825.46,5734 2900,5659.46 2900,5734 2825.46,5734 z " fill-rule="evenodd" fill="rgb(255,0,0)" stroke-width="5" stroke="rgb(0,0,0)" />
	<path d="M5250.91,5334 5050,5534.91 5050,5334 5250.91,5334 z " fill-rule="evenodd" fill="rgb(255,0,0)" stroke-width="5" stroke="rgb(0,0,0)" />
	<path d="M283.029,5740 783.029,5740 383.029,6140 100,6140 100,5923.03 283.029,5740 z " fill-rule="evenodd" fill="rgb(255,0,0)" stroke-width="5" stroke="rgb(0,0,0)" />
	<path d="M3042.43,6546 3100,6488.43 3100,6546 3042.43,6546 z " fill-rule="evenodd" fill="rgb(255,0,0)" stroke-width="5" stroke="rgb(0,0,0)" />
	<path d="M2708.49,5328 2208.49,5328 2608.49,4928 2900,4928 2900,5136.49 2708.49,5328 z " fill-rule="evenodd" fill="rgb(255,0,0)" stroke-width="5" stroke="rgb(0,0,0)" />
	<path d="M2716.97,5328 2900,5144.97 2900,5328 2716.97,5328 z " fill-rule="evenodd" fill="rgb(255,0,0)" stroke-width="5" stroke="rgb(0,0,0)" />
	<path d="M4125.46,4928 4101.46,4952 3700,4952 3700,4928 4125.46,4928 z " fill-rule="evenodd" fill="rgb(255,0,0)" stroke-width="5" stroke="rgb(0,0,0)" />
	<path d="M4133.94,4928 4633.94,4928 4609.94,4952 4109.94,4952 4133.94,4928 z " fill-rule="evenodd" fill="rgb(255,0,0)" stroke-width="5" stroke="rgb(0,0,0)" />
	<path d="M5142.43,4928 5050,5020.43 5050,4928 5142.43,4928 z " fill-rule="evenodd" fill="rgb(255,0,0)" stroke-width="5" stroke="rgb(0,0,0)" />
	<path d="M4642.43,4928 4950,4928 4950,4952 4618.43,4952 4642.43,4928 z " fill-rule="evenodd" fill="rgb(255,0,0)" stroke-width="5" stroke="rgb(0,0,0)" />
	<path d="M5259.4,5334 5759.4,5334 5541.4,5552 5050,5552 5050,5543.4 5259.4,5334 z " fill-rule="evenodd" fill="rgb(255,0,0)" stroke-width="5" stroke="rgb(0,0,0)" />
	<path d="M5150.91,4928 5650.91,4928 5250.91,5328 5050,5328 5050,5028.91 5150.91,4928 z " fill-rule="evenodd" fill="rgb(255,0,0)" stroke-width="5" stroke="rgb(0,0,0)" />
	<path d="M274.544,5740 100,5914.54 100,5740 274.544,5740 z " fill-rule="evenodd" fill="rgb(255,0,0)" stroke-width="5" stroke="rgb(0,0,0)" />
	<path d="M2642.43,6952 3042.43,6552 3100,6552 3100,6852 2900,6852 2900,6952 2642.43,6952 z " fill-rule="evenodd" fill="rgb(255,0,0)" stroke-width="5" stroke="rgb(0,0,0)" />
	<path d="M2600,4922 2100,4922 2500,4522 2900,4522 2900,4622 2600,4922 z " fill-rule="evenodd" fill="rgb(255,0,0)" stroke-width="5" stroke="rgb(0,0,0)" />
	<path d="M2608.49,4922 2900,4630.49 2900,4922 2608.49,4922 z " fill-rule="evenodd" fill="rgb(255,0,0)" stroke-width="5" stroke="rgb(0,0,0)" />
	<path d="M4016.97,4522 3700,4838.97 3700,4522 4016.97,4522 z " fill-rule="evenodd" fill="rgb(255,0,0)" stroke-width="5" stroke="rgb(0,0,0)" />
	<path d="M4025.46,4522 4525.46,4522 4125.46,4922 3700,4922 3700,4847.46 4025.46,4522 z " fill-rule="evenodd" fill="rgb(255,0,0)" stroke-width="5" stroke="rgb(0,0,0)" />
	<path d="M4633.94,4922 4133.94,4922 4533.94,4522 4950,4522 4950,4605.94 4633.94,4922 z " fill-rule="evenodd" fill="rgb(255,0,0)" stroke-width="5" stroke="rgb(0,0,0)" />
	<path d="M4642.43,4922 4950,4614.43 4950,4922 4642.43,4922 z " fill-rule="evenodd" fill="rgb(255,0,0)" stroke-width="5" stroke="rgb(0,0,0)" />
	<path d="M5542.43,4522 5142.43,4922 5050,4922 5050,4522 5542.43,4522 z " fill-rule="evenodd" fill="rgb(255,0,0)" stroke-width="5" stroke="rgb(0,0,0)" />
	<path d="M5767.88,5334 6267.88,5334 6049.88,5552 5549.88,5552 5767.88,5334 z " fill-rule="evenodd" fill="rgb(255,0,0)" stroke-width="5" stroke="rgb(0,0,0)" />
	<path d="M174.544,5334 674.544,5334 274.544,5734 100,5734 100,5408.54 174.544,5334 z " fill-rule="evenodd" fill="rgb(255,0,0)" stroke-width="5" stroke="rgb(0,0,0)" />
	<path d="M2500,4516 2900,4116 2900,4516 2500,4516 z " fill-rule="evenodd" fill="rgb(255,0,0)" stroke-width="5" stroke="rgb(0,0,0)" />
	<path d="M3908.49,4116 3700,4324.49 3700,4116 3908.49,4116 z " fill-rule="evenodd" fill="rgb(255,0,0)" stroke-width="5" stroke="rgb(0,0,0)" />
	<path d="M3916.97,4116 4416.97,4116 4016.97,4516 3700,4516 3700,4332.97 3916.97,4116 z " fill-rule="evenodd" fill="rgb(255,0,0)" stroke-width="5" stroke="rgb(0,0,0)" />
	<path d="M4533.94,4516 4933.94,4116 4950,4116 4950,4516 4533.94,4516 z " fill-rule="evenodd" fill="rgb(255,0,0)" stroke-width="5" stroke="rgb(0,0,0)" />
	<path d="M5433.94,4116 5050,4499.94 5050,4116 5433.94,4116 z " fill-rule="evenodd" fill="rgb(255,0,0)" stroke-width="5" stroke="rgb(0,0,0)" />
	<path d="M5442.43,4116 5942.43,4116 5542.43,4516 5050,4516 5050,4508.43 5442.43,4116 z " fill-rule="evenodd" fill="rgb(255,0,0)" stroke-width="5" stroke="rgb(0,0,0)" />
	<path d="M6276.37,5334 6776.37,5334 6558.37,5552 6058.37,5552 6276.37,5334 z " fill-rule="evenodd" fill="rgb(255,0,0)" stroke-width="5" stroke="rgb(0,0,0)" />
	<path d="M8593.34,4516 8093.34,4516 8493.34,4116 8600,4116 8600,4509.34 8593.34,4516 z " fill-rule="evenodd" fill="rgb(255,0,0)" stroke-width="5" stroke="rgb(0,0,0)" />
	<path d="M166.059,5334 100,5400.06 100,5334 166.059,5334 z " fill-rule="evenodd" fill="rgb(255,0,0)" stroke-width="5" stroke="rgb(0,0,0)" />
	<path d="M3800,3710 3700,3810 3700,3710 3800,3710 z " fill-rule="evenodd" fill="rgb(255,0,0)" stroke-width="5" stroke="rgb(0,0,0)" />
	<path d="M3808.49,3710 4308.49,3710 3908.49,4110 3700,4110 3700,3818.49 3808.49,3710 z " fill-rule="evenodd" fill="rgb(255,0,0)" stroke-width="5" stroke="rgb(0,0,0)" />
	<path d="M4925.46,4110 4425.46,4110 4825.46,3710 4950,3710 4950,4085.46 4925.46,4110 z " fill-rule="evenodd" fill="rgb(255,0,0)" stroke-width="5" stroke="rgb(0,0,0)" />
	<path d="M5325.46,3710 5050,3985.46 5050,3710 5325.46,3710 z " fill-rule="evenodd" fill="rgb(255,0,0)" stroke-width="5" stroke="rgb(0,0,0)" />
	<path d="M4933.94,4110 4950,4093.94 4950,4110 4933.94,4110 z " fill-rule="evenodd" fill="rgb(255,0,0)" stroke-width="5" stroke="rgb(0,0,0)" />
	<path d="M5333.94,3710 5833.94,3710 5433.94,4110 5050,4110 5050,3993.94 5333.94,3710 z " fill-rule="evenodd" fill="rgb(255,0,0)" stroke-width="5" stroke="rgb(0,0,0)" />
	<path d="M8484.85,4110 7984.85,4110 8384.85,3710 8600,3710 8600,3994.85 8484.85,4110 z " fill-rule="evenodd" fill="rgb(255,0,0)" stroke-width="5" stroke="rgb(0,0,0)" />
	<path d="M8493.34,4110 8600,4003.34 8600,4110 8493.34,4110 z " fill-rule="evenodd" fill="rgb(255,0,0)" stroke-width="5" stroke="rgb(0,0,0)" />
	<path d="M6784.85,5334 7284.85,5334 7066.85,5552 6566.85,5552 6784.85,5334 z " fill-rule="evenodd" fill="rgb(255,0,0)" stroke-width="5" stroke="rgb(0,0,0)" />
	<path d="M8201.82,4922 8600,4523.82 8600,4922 8201.82,4922 z " fill-rule="evenodd" fill="rgb(255,0,0)" stroke-width="5" stroke="rgb(0,0,0)" />
	<path d="M566.059,4928 166.059,5328 100,5328 100,4928 566.059,4928 z " fill-rule="evenodd" fill="rgb(255,0,0)" stroke-width="5" stroke="rgb(0,0,0)" />
	<path d="M2891.51,4110 2391.51,4110 2791.51,3710 2900,3710 2900,4101.51 2891.51,4110 z " fill-rule="evenodd" fill="rgb(255,0,0)" stroke-width="5" stroke="rgb(0,0,0)" />
	<path d="M3700,3304 4200,3304 3800,3704 3700,3704 3700,3304 3700,3304 z " fill-rule="evenodd" fill="rgb(255,0,0)" stroke-width="5" stroke="rgb(0,0,0)" />
	<path d="M4816.97,3704 4316.97,3704 4716.97,3304 4950,3304 4950,3570.97 4816.97,3704 z " fill-rule="evenodd" fill="rgb(255,0,0)" stroke-width="5" stroke="rgb(0,0,0)" />
	<path d="M5216.97,3304 5050,3470.97 5050,3304 5216.97,3304 z " fill-rule="evenodd" fill="rgb(255,0,0)" stroke-width="5" stroke="rgb(0,0,0)" />
	<path d="M4825.46,3704 4950,3579.46 4950,3704 4825.46,3704 z " fill-rule="evenodd" fill="rgb(255,0,0)" stroke-width="5" stroke="rgb(0,0,0)" />
	<path d="M5225.46,3304 5725.46,3304 5325.46,3704 5050,3704 5050,3479.46 5225.46,3304 z " fill-rule="evenodd" fill="rgb(255,0,0)" stroke-width="5" stroke="rgb(0,0,0)" />
	<path d="M8376.37,3704 7876.37,3704 8276.37,3304 8600,3304 8600,3480.37 8376.37,3704 z " fill-rule="evenodd" fill="rgb(255,0,0)" stroke-width="5" stroke="rgb(0,0,0)" />
	<path d="M8384.85,3704 8600,3488.85 8600,3704 8384.85,3704 z " fill-rule="evenodd" fill="rgb(255,0,0)" stroke-width="5" stroke="rgb(0,0,0)" />
	<path d="M7293.34,5334 7793.34,5334 7575.34,5552 7075.34,5552 7293.34,5334 z " fill-rule="evenodd" fill="rgb(255,0,0)" stroke-width="5" stroke="rgb(0,0,0)" />
	<path d="M8301.82,5328 7801.82,5328 8201.82,4928 8600,4928 8600,5029.82 8301.82,5328 z " fill-rule="evenodd" fill="rgb(255,0,0)" stroke-width="5" stroke="rgb(0,0,0)" />
	<path d="M466.059,4522 966.059,4522 566.059,4922 100,4922 100,4888.06 466.059,4522 z " fill-rule="evenodd" fill="rgb(255,0,0)" stroke-width="5" stroke="rgb(0,0,0)" />
	<path d="M2791.51,3704 2900,3595.51 2900,3704 2791.51,3704 z " fill-rule="evenodd" fill="rgb(255,0,0)" stroke-width="5" stroke="rgb(0,0,0)" />
	<path d="M4100,2898 4600,2898 4200,3298 3700,3298 3946,3052 4200,3052 4200,2952 4046,2952 4100,2898 z " fill-rule="evenodd" fill="rgb(255,0,0)" stroke-width="5" stroke="rgb(0,0,0)" />
	<path d="M4708.49,3298 4208.49,3298 4608.49,2898 5108.49,2898 5050,2956.49 5050,2952 4900,2952 4900,3052 4950,3052 4950,3056.49 4708.49,3298 z " fill-rule="evenodd" fill="rgb(255,0,0)" stroke-width="5" stroke="rgb(0,0,0)" />
	<path d="M4716.97,3298 4950,3064.97 4950,3298 4716.97,3298 z " fill-rule="evenodd" fill="rgb(255,0,0)" stroke-width="5" stroke="rgb(0,0,0)" />
	<path d="M5116.97,2898 5616.97,2898 5216.97,3298 5050,3298 5050,2964.97 5116.97,2898 z " fill-rule="evenodd" fill="rgb(255,0,0)" stroke-width="5" stroke="rgb(0,0,0)" />
	<path d="M8267.88,3298 7767.88,3298 8167.88,2898 8600,2898 8600,2965.88 8267.88,3298 z " fill-rule="evenodd" fill="rgb(255,0,0)" stroke-width="5" stroke="rgb(0,0,0)" />
	<path d="M8276.37,3298 8600,2974.37 8600,3298 8276.37,3298 z " fill-rule="evenodd" fill="rgb(255,0,0)" stroke-width="5" stroke="rgb(0,0,0)" />
	<path d="M7801.82,5334 8301.82,5334 8083.82,5552 7583.82,5552 7801.82,5334 z " fill-rule="evenodd" fill="rgb(255,0,0)" stroke-width="5" stroke="rgb(0,0,0)" />
	<path d="M8310.31,5328 8600,5038.31 8600,5328 8310.31,5328 z " fill-rule="evenodd" fill="rgb(255,0,0)" stroke-width="5" stroke="rgb(0,0,0)" />
	<path d="M457.574,4522 100,4879.57 100,4522 457.574,4522 z " fill-rule="evenodd" fill="rgb(255,0,0)" stroke-width="5" stroke="rgb(0,0,0)" />
	<path d="M2783.03,3704 2283.03,3704 2683.03,3304 2900,3304 2900,3587.03 2783.03,3704 z " fill-rule="evenodd" fill="rgb(255,0,0)" stroke-width="5" stroke="rgb(0,0,0)" />
	<path d="M3700,3289.51 3700,3052 3937.51,3052 3700,3289.51 z " fill-rule="evenodd" fill="rgb(255,0,0)" stroke-width="5" stroke="rgb(0,0,0)" />
	<path d="M3591.51,2898 4091.51,2898 4037.51,2952 3537.51,2952 3591.51,2898 z " fill-rule="evenodd" fill="rgb(255,0,0)" stroke-width="5" stroke="rgb(0,0,0)" />
	<path d="M7650.91,2892 7150.91,2892 7550.91,2492 8040.93,2492 8048.03,2494.88 7650.91,2892 z " fill-rule="evenodd" fill="rgb(255,0,0)" stroke-width="5" stroke="rgb(0,0,0)" />
	<path d="M8159.4,2892 7659.4,2892 8054.07,2497.33 8409.68,2641.72 8159.4,2892 z " fill-rule="evenodd" fill="rgb(255,0,0)" stroke-width="5" stroke="rgb(0,0,0)" />
	<path d="M8167.88,2892 8415.71,2644.17 8600,2719 8600,2892 8167.88,2892 z " fill-rule="evenodd" fill="rgb(255,0,0)" stroke-width="5" stroke="rgb(0,0,0)" />
	<path d="M8592.31,5552 8092.31,5552 8310.31,5334 8600,5334 8600,5544.31 8592.31,5552 z " fill-rule="evenodd" fill="rgb(255,0,0)" stroke-width="5" stroke="rgb(0,0,0)" />
	<path d="M357.574,4116 857.574,4116 457.574,4516 100,4516 100,4373.57 357.574,4116 z " fill-rule="evenodd" fill="rgb(255,0,0)" stroke-width="5" stroke="rgb(0,0,0)" />
	<path d="M2683.03,3298 2850,3131.03 2850,3152 2900,3152 2900,3298 2683.03,3298 z " fill-rule="evenodd" fill="rgb(255,0,0)" stroke-width="5" stroke="rgb(0,0,0)" />
	<path d="M3083.03,2898 3583.03,2898 3529.03,2952 3029.03,2952 3083.03,2898 z " fill-rule="evenodd" fill="rgb(255,0,0)" stroke-width="5" stroke="rgb(0,0,0)" />
	<path d="M7033.94,2486 6533.94,2486 6933.94,2086 7041.02,2086 7320.47,2199.47 7033.94,2486 z " fill-rule="evenodd" fill="rgb(255,0,0)" stroke-width="5" stroke="rgb(0,0,0)" />
	<path d="M7542.43,2486 7042.43,2486 7326.51,2201.92 7682.12,2346.31 7542.43,2486 z " fill-rule="evenodd" fill="rgb(255,0,0)" stroke-width="5" stroke="rgb(0,0,0)" />
	<path d="M7550.91,2486 7688.15,2348.76 8026.16,2486 7550.91,2486 z " fill-rule="evenodd" fill="rgb(255,0,0)" stroke-width="5" stroke="rgb(0,0,0)" />
	<path d="M349.088,4116 100,4365.09 100,4116 349.088,4116 z " fill-rule="evenodd" fill="rgb(255,0,0)" stroke-width="5" stroke="rgb(0,0,0)" />
	<path d="M2674.54,3298 2174.54,3298 2574.54,2898 3074.54,2898 3020.54,2952 2850,2952 2850,3122.54 2674.54,3298 z " fill-rule="evenodd" fill="rgb(255,0,0)" stroke-width="5" stroke="rgb(0,0,0)" />
	<path d="M5908.49,2080 5408.49,2080 5808.49,1680 6041.1,1680 6231.27,1757.21 5908.49,2080 z " fill-rule="evenodd" fill="rgb(255,0,0)" stroke-width="5" stroke="rgb(0,0,0)" />
	<path d="M6416.97,2080 5916.97,2080 6237.31,1759.66 6592.92,1904.05 6416.97,2080 z " fill-rule="evenodd" fill="rgb(255,0,0)" stroke-width="5" stroke="rgb(0,0,0)" />
	<path d="M6925.46,2080 6425.46,2080 6598.95,1906.51 6954.56,2050.9 6925.46,2080 z " fill-rule="evenodd" fill="rgb(255,0,0)" stroke-width="5" stroke="rgb(0,0,0)" />
	<path d="M6933.94,2080 6960.6,2053.35 7026.24,2080 6933.94,2080 z " fill-rule="evenodd" fill="rgb(255,0,0)" stroke-width="5" stroke="rgb(0,0,0)" />
	<path d="M249.088,3710 749.088,3710 349.088,4110 100,4110 100,3859.09 249.088,3710 z " fill-rule="evenodd" fill="rgb(255,0,0)" stroke-width="5" stroke="rgb(0,0,0)" />
	<path d="M2066.06,2898 2566.06,2898 2166.06,3298 1666.06,3298 1812.06,3152 2050,3152 2050,2952 2012.06,2952 2066.06,2898 z " fill-rule="evenodd" fill="rgb(255,0,0)" stroke-width="5" stroke="rgb(0,0,0)" />
	<path d="M5800,1674 5300,1674 5509.75,1464.25 5865.36,1608.64 5800,1674 z " fill-rule="evenodd" fill="rgb(255,0,0)" stroke-width="5" stroke="rgb(0,0,0)" />
	<path d="M5808.49,1674 5871.39,1611.09 6026.33,1674 5808.49,1674 z " fill-rule="evenodd" fill="rgb(255,0,0)" stroke-width="5" stroke="rgb(0,0,0)" />
	<path d="M240.603,3710 100,3850.6 100,3710 240.603,3710 z " fill-rule="evenodd" fill="rgb(255,0,0)" stroke-width="5" stroke="rgb(0,0,0)" />
	<path d="M1657.57,3298 1157.57,3298 1303.57,3152 1803.57,3152 1657.57,3298 z " fill-rule="evenodd" fill="rgb(255,0,0)" stroke-width="5" stroke="rgb(0,0,0)" />
	<path d="M1557.57,2898 2057.57,2898 2003.57,2952 1503.57,2952 1557.57,2898 z " fill-rule="evenodd" fill="rgb(255,0,0)" stroke-width="5" stroke="rgb(0,0,0)" />
	<path d="M5291.51,1674 4791.51,1674 5148.1,1317.41 5503.71,1461.8 5291.51,1674 z " fill-rule="evenodd" fill="rgb(255,0,0)" stroke-width="5" stroke="rgb(0,0,0)" />
	<path d="M140.603,3304 640.603,3304 240.603,3704 100,3704 100,3344.6 140.603,3304 z " fill-rule="evenodd" fill="rgb(255,0,0)" stroke-width="5" stroke="rgb(0,0,0)" />
	<path d="M1149.09,3298 649.088,3298 795.088,3152 1295.09,3152 1149.09,3298 z " fill-rule="evenodd" fill="rgb(255,0,0)" stroke-width="5" stroke="rgb(0,0,0)" />
	<path d="M1049.09,2898 1549.09,2898 1495.09,2952 995.088,2952 1049.09,2898 z " fill-rule="evenodd" fill="rgb(255,0,0)" stroke-width="5" stroke="rgb(0,0,0)" />
	<path d="M4783.03,1674 4283.03,1674 4683.03,1274 5041.19,1274 5142.07,1314.96 4783.03,1674 z " fill-rule="evenodd" fill="rgb(255,0,0)" stroke-width="5" stroke="rgb(0,0,0)" />
	<path d="M132.118,3304 100,3336.12 100,3304 132.118,3304 z " fill-rule="evenodd" fill="rgb(255,0,0)" stroke-width="5" stroke="rgb(0,0,0)" />
	<path d="M640.603,3298 140.603,3298 286.603,3152 786.603,3152 640.603,3298 z " fill-rule="evenodd" fill="rgb(255,0,0)" stroke-width="5" stroke="rgb(0,0,0)" />
	<path d="M540.603,2898 1040.6,2898 986.603,2952 486.603,2952 540.603,2898 z " fill-rule="evenodd" fill="rgb(255,0,0)" stroke-width="5" stroke="rgb(0,0,0)" />
	<path d="M4683.03,1268 4782.19,1168.84 5026.41,1268 4683.03,1268 z " fill-rule="evenodd" fill="rgb(255,0,0)" stroke-width="5" stroke="rgb(0,0,0)" />
	<path d="M132.118,3298 100,3298 100,3152 278.118,3152 132.118,3298 z " fill-rule="evenodd" fill="rgb(255,0,0)" stroke-width="5" stroke="rgb(0,0,0)" />
	<path d="M532.118,2898 478.118,2952 100,2952 100,2898 532.118,2898 z " fill-rule="evenodd" fill="rgb(255,0,0)" stroke-width="5" stroke="rgb(0,0,0)" />
	<path d="M4674.54,1268 4174.54,1268 4420.55,1022 4776.16,1166.39 4674.54,1268 z " fill-rule="evenodd" fill="rgb(255,0,0)" stroke-width="5" stroke="rgb(0,0,0)" />
	<path d="M432.118,2492 932.118,2492 532.118,2892 100,2892 100,2824.12 432.118,2492 z " fill-rule="evenodd" fill="rgb(255,0,0)" stroke-width="5" stroke="rgb(0,0,0)" />
	<path d="M3657.57,1274 3257.57,1674 2757.57,1674 3157.57,1274 3172.5,1274 3080,1502 2950,1502 2950,1602 3147,1602 3280.01,1274 3657.57,1274 z " fill-rule="evenodd" fill="rgb(255,0,0)" stroke-width="5" stroke="rgb(0,0,0)" />
	<path d="M4166.06,1268 3666.06,1268 4058.9,875.158 4414.51,1019.55 4166.06,1268 z " fill-rule="evenodd" fill="rgb(255,0,0)" stroke-width="5" stroke="rgb(0,0,0)" />
	<path d="M423.632,2492 100,2815.63 100,2492 423.632,2492 z " fill-rule="evenodd" fill="rgb(255,0,0)" stroke-width="5" stroke="rgb(0,0,0)" />
	<path d="M3157.57,1268 3186.78,1238.8 3174.93,1268 3157.57,1268 z " fill-rule="evenodd" fill="rgb(255,0,0)" stroke-width="5" stroke="rgb(0,0,0)" />
	<path d="M3657.57,1268 3282.44,1268 3367.62,1057.95 3557.57,868 4041.27,868 4052.87,872.708 3657.57,1268 z " fill-rule="evenodd" fill="rgb(255,0,0)" stroke-width="5" stroke="rgb(0,0,0)" />
	<path d="M323.632,2086 823.632,2086 423.632,2486 100,2486 100,2309.63 323.632,2086 z " fill-rule="evenodd" fill="rgb(255,0,0)" stroke-width="5" stroke="rgb(0,0,0)" />
	<path d="M2640.6,1274 2240.6,1674 1740.6,1674 1812.6,1602 2150,1602 2150,1274 2640.6,1274 z " fill-rule="evenodd" fill="rgb(255,0,0)" stroke-width="5" stroke="rgb(0,0,0)" />
	<path d="M3149.09,1268 2649.09,1268 3049.09,868 3337.2,868 3192.57,1224.52 3149.09,1268 z " fill-rule="evenodd" fill="rgb(255,0,0)" stroke-width="5" stroke="rgb(0,0,0)" />
	<path d="M3549.09,868 3373.41,1043.68 3444.65,868 3549.09,868 z " fill-rule="evenodd" fill="rgb(255,0,0)" stroke-width="5" stroke="rgb(0,0,0)" />
	<path d="M3557.57,862 3692.99,726.585 4026.49,862 3557.57,862 z " fill-rule="evenodd" fill="rgb(255,0,0)" stroke-width="5" stroke="rgb(0,0,0)" />
	<path d="M315.147,2086 100,2301.15 100,2086 315.147,2086 z " fill-rule="evenodd" fill="rgb(255,0,0)" stroke-width="5" stroke="rgb(0,0,0)" />
	<path d="M1732.12,1674 1232.12,1674 1400,1506.12 1400,1602 1804.12,1602 1732.12,1674 z " fill-rule="evenodd" fill="rgb(255,0,0)" stroke-width="5" stroke="rgb(0,0,0)" />
	<path d="M2540.6,868 3040.6,868 2640.6,1268 2150,1268 2150,1258.6 2540.6,868 z " fill-rule="evenodd" fill="rgb(255,0,0)" stroke-width="5" stroke="rgb(0,0,0)" />
	<path d="M3049.09,862 3331.77,579.319 3437,622 3339.64,862 3049.09,862 z " fill-rule="evenodd" fill="rgb(255,0,0)" stroke-width="5" stroke="rgb(0,0,0)" />
	<path d="M3549.09,862 3447.08,862 3529,660 3686.95,724.135 3549.09,862 z " fill-rule="evenodd" fill="rgb(255,0,0)" stroke-width="5" stroke="rgb(0,0,0)" />
	<path d="M215.147,1680 715.147,1680 315.147,2080 100,2080 100,1795.15 215.147,1680 z " fill-rule="evenodd" fill="rgb(255,0,0)" stroke-width="5" stroke="rgb(0,0,0)" />
	<path d="M1223.63,1674 723.632,1674 895.632,1502 1395.63,1502 1223.63,1674 z " fill-rule="evenodd" fill="rgb(255,0,0)" stroke-width="5" stroke="rgb(0,0,0)" />
	<path d="M2532.12,868 2150,1250.12 2150,868 2532.12,868 z " fill-rule="evenodd" fill="rgb(255,0,0)" stroke-width="5" stroke="rgb(0,0,0)" />
	<path d="M3040.6,862 2540.6,862 2940.6,462 3042.52,462 3325.73,576.871 3040.6,862 z " fill-rule="evenodd" fill="rgb(255,0,0)" stroke-width="5" stroke="rgb(0,0,0)" />
	<path d="M206.662,1680 100,1786.66 100,1680 206.662,1680 z " fill-rule="evenodd" fill="rgb(255,0,0)" stroke-width="5" stroke="rgb(0,0,0)" />
	<path d="M715.147,1674 215.147,1674 287.147,1602 700,1602 700,1502 887.147,1502 715.147,1674 z " fill-rule="evenodd" fill="rgb(255,0,0)" stroke-width="5" stroke="rgb(0,0,0)" />
	<path d="M2432.12,462 2932.12,462 2532.12,862 2150,862 2150,744.118 2432.12,462 z " fill-rule="evenodd" fill="rgb(255,0,0)" stroke-width="5" stroke="rgb(0,0,0)" />
	<path d="M2940.6,456 2965.74,430.861 3027.72,456 2940.6,456 z " fill-rule="evenodd" fill="rgb(255,0,0)" stroke-width="5" stroke="rgb(0,0,0)" />
	<path d="M206.662,1674 100,1674 100,1602 278.662,1602 206.662,1674 z " fill-rule="evenodd" fill="rgb(255,0,0)" stroke-width="5" stroke="rgb(0,0,0)" />
	<path d="M2423.63,462 2150,735.632 2150,462 2423.63,462 z " fill-rule="evenodd" fill="rgb(255,0,0)" stroke-width="5" stroke="rgb(0,0,0)" />
	<path d="M2932.12,456 2432.12,456 2603.98,284.133 2959.71,428.412 2932.12,456 z " fill-rule="evenodd" fill="rgb(255,0,0)" stroke-width="5" stroke="rgb(0,0,0)" />
	<path d="M2423.63,456 2150,456 2150,229.632 2242.23,137.406 2597.95,281.685 2423.63,456 z " fill-rule="evenodd" fill="rgb(255,0,0)" stroke-width="5" stroke="rgb(0,0,0)" />
	<path d="M2150,221.147 2150,100 2236.19,134.958 2150,221.147 z " fill-rule="evenodd" fill="rgb(255,0,0)" stroke-width="5" stroke="rgb(0,0,0)" />
	<polyline points="95,6957 595,6957 95,6957 95,6457 95,6957 " fill="none" stroke-width="100" stroke="rgb(0,0,0)" />
	<circle cx="95" cy="6957" r="-8.33333" fill="rgb(0,0,0)" />
	<circle cx="595" cy="6957" r="-8.33333" fill="rgb(0,0,0)" />
	<circle cx="95" cy="6957" r="-8.33333" fill="rgb(0,0,0)" />
	<circle cx="95" cy="6457" r="-8.33333" fill="rgb(0,0,0)" />
	<circle cx="95" cy="6957" r="-8.33333" fill="rgb(0,0,0)" />
	<polyline points="95,7507 95,6957 -455,6957 " fill="none" stroke-width="0.5" stroke="rgb(128,0,128)" />
</svg>
