<?xml version="1.0" standalone="no" ?>
<!DOCTYPE svg PUBLIC "-//W3C//DTD SVG 1.1//EN" "http://www.w3.org/Graphics/SVG/1.1/DTD/svg11.dtd">
<svg width="8700px" height="7052px" xmlns="http://www.w3.org/2000/svg" version="1.1" >
	<path d="M1208.49,1602 708.485,1602 308.485,2002 808.485,2002 1208.49,1602 z " fill-rule="evenodd" fill="rgb(0,128,0)" stroke-width="5" stroke="rgb(0,0,0)" />
	<path d="M1716.97,1602 1216.97,1602 816.971,2002 1316.97,2002 1716.97,1602 z " fill-rule="evenodd" fill="rgb(0,128,0)" stroke-width="5" stroke="rgb(0,0,0)" />
	<path d="M3133.94,1196 2633.94,1196 2233.94,1596 2733.94,1596 3133.94,1196 z " fill-rule="evenodd" fill="rgb(0,128,0)" stroke-width="5" stroke="rgb(0,0,0)" />
	<path d="M2225.46,1602 1725.46,1602 1325.46,2002 1825.46,2002 2225.46,1602 z " fill-rule="evenodd" fill="rgb(0,128,0)" stroke-width="5" stroke="rgb(0,0,0)" />
	<path d="M1316.97,2008 816.971,2008 416.971,2408 916.971,2408 1316.97,2008 z " fill-rule="evenodd" fill="rgb(0,128,0)" stroke-width="5" stroke="rgb(0,0,0)" />
	<path d="M2733.94,1602 2233.94,1602 1833.94,2002 2333.94,2002 2733.94,1602 z " fill-rule="evenodd" fill="rgb(0,128,0)" stroke-width="5" stroke="rgb(0,0,0)" />
	<path d="M1825.46,2008 1325.46,2008 925.456,2408 1425.46,2408 1825.46,2008 z " fill-rule="evenodd" fill="rgb(0,128,0)" stroke-width="5" stroke="rgb(0,0,0)" />
	<path d="M4150.91,1196 3650.91,1196 3250.91,1596 3750.91,1596 4150.91,1196 z " fill-rule="evenodd" fill="rgb(0,128,0)" stroke-width="5" stroke="rgb(0,0,0)" />
	<path d="M3242.43,1602 2742.43,1602 2342.43,2002 2842.43,2002 3242.43,1602 z " fill-rule="evenodd" fill="rgb(0,128,0)" stroke-width="5" stroke="rgb(0,0,0)" />
	<path d="M2333.94,2008 1833.94,2008 1433.94,2408 1933.94,2408 2333.94,2008 z " fill-rule="evenodd" fill="rgb(0,128,0)" stroke-width="5" stroke="rgb(0,0,0)" />
	<path d="M1425.46,2414 925.456,2414 525.456,2814 1025.46,2814 1425.46,2414 z " fill-rule="evenodd" fill="rgb(0,128,0)" stroke-width="5" stroke="rgb(0,0,0)" />
	<path d="M4659.4,1196 4159.4,1196 3759.4,1596 4259.4,1596 4659.4,1196 z " fill-rule="evenodd" fill="rgb(0,128,0)" stroke-width="5" stroke="rgb(0,0,0)" />
	<path d="M3750.91,1602 3250.91,1602 2850.91,2002 3350.91,2002 3750.91,1602 z " fill-rule="evenodd" fill="rgb(0,128,0)" stroke-width="5" stroke="rgb(0,0,0)" />
	<path d="M2842.43,2008 2342.43,2008 1942.43,2408 2442.43,2408 2842.43,2008 z " fill-rule="evenodd" fill="rgb(0,128,0)" stroke-width="5" stroke="rgb(0,0,0)" />
	<path d="M1933.94,2414 1433.94,2414 1033.94,2814 1533.94,2814 1933.94,2414 z " fill-rule="evenodd" fill="rgb(0,128,0)" stroke-width="5" stroke="rgb(0,0,0)" />
	<path d="M4259.4,1602 3759.4,1602 3359.4,2002 3859.4,2002 4259.4,1602 z " fill-rule="evenodd" fill="rgb(0,128,0)" stroke-width="5" stroke="rgb(0,0,0)" />
	<path d="M3350.91,2008 2850.91,2008 2450.91,2408 2950.91,2408 3350.91,2008 z " fill-rule="evenodd" fill="rgb(0,128,0)" stroke-width="5" stroke="rgb(0,0,0)" />
	<path d="M2442.43,2414 1942.43,2414 1542.43,2814 2042.43,2814 2442.43,2414 z " fill-rule="evenodd" fill="rgb(0,128,0)" stroke-width="5" stroke="rgb(0,0,0)" />
	<path d="M4767.88,1602 4267.88,1602 3867.88,2002 4367.88,2002 4767.88,1602 z " fill-rule="evenodd" fill="rgb(0,128,0)" stroke-width="5" stroke="rgb(0,0,0)" />
	<path d="M3859.4,2008 3359.4,2008 2959.4,2408 3459.4,2408 3859.4,2008 z " fill-rule="evenodd" fill="rgb(0,128,0)" stroke-width="5" stroke="rgb(0,0,0)" />
	<path d="M2950.91,2414 2450.91,2414 2050.91,2814 2550.91,2814 2950.91,2414 z " fill-rule="evenodd" fill="rgb(0,128,0)" stroke-width="5" stroke="rgb(0,0,0)" />
	<path d="M1133.94,3226 633.941,3226 233.941,3626 733.941,3626 1133.94,3226 z " fill-rule="evenodd" fill="rgb(0,128,0)" stroke-width="5" stroke="rgb(0,0,0)" />
	<path d="M5276.37,1602 4776.37,1602 4376.37,2002 4876.37,2002 5276.37,1602 z " fill-rule="evenodd" fill="rgb(0,128,0)" stroke-width="5" stroke="rgb(0,0,0)" />
	<path d="M4367.88,2008 3867.88,2008 3467.88,2408 3967.88,2408 4367.88,2008 z " fill-rule="evenodd" fill="rgb(0,128,0)" stroke-width="5" stroke="rgb(0,0,0)" />
	<path d="M3459.4,2414 2959.4,2414 2559.4,2814 3059.4,2814 3459.4,2414 z " fill-rule="evenodd" fill="rgb(0,128,0)" stroke-width="5" stroke="rgb(0,0,0)" />
	<path d="M1642.43,3226 1142.43,3226 742.426,3626 1242.43,3626 1642.43,3226 z " fill-rule="evenodd" fill="rgb(0,128,0)" stroke-width="5" stroke="rgb(0,0,0)" />
	<path d="M5784.85,1602 5284.85,1602 4884.85,2002 5384.85,2002 5784.85,1602 z " fill-rule="evenodd" fill="rgb(0,128,0)" stroke-width="5" stroke="rgb(0,0,0)" />
	<path d="M4876.37,2008 4376.37,2008 3976.37,2408 4476.37,2408 4876.37,2008 z " fill-rule="evenodd" fill="rgb(0,128,0)" stroke-width="5" stroke="rgb(0,0,0)" />
	<path d="M3967.88,2414 3467.88,2414 3067.88,2814 3567.88,2814 3967.88,2414 z " fill-rule="evenodd" fill="rgb(0,128,0)" stroke-width="5" stroke="rgb(0,0,0)" />
	<path d="M2150.91,3226 1650.91,3226 1250.91,3626 1750.91,3626 2150.91,3226 z " fill-rule="evenodd" fill="rgb(0,128,0)" stroke-width="5" stroke="rgb(0,0,0)" />
	<path d="M1242.43,3632 742.426,3632 342.426,4032 842.426,4032 1242.43,3632 z " fill-rule="evenodd" fill="rgb(0,128,0)" stroke-width="5" stroke="rgb(0,0,0)" />
	<path d="M5384.85,2008 4884.85,2008 4484.85,2408 4984.85,2408 5384.85,2008 z " fill-rule="evenodd" fill="rgb(0,128,0)" stroke-width="5" stroke="rgb(0,0,0)" />
	<path d="M4476.37,2414 3976.37,2414 3576.37,2814 4076.37,2814 4476.37,2414 z " fill-rule="evenodd" fill="rgb(0,128,0)" stroke-width="5" stroke="rgb(0,0,0)" />
	<path d="M2659.4,3226 2159.4,3226 1759.4,3626 2259.4,3626 2659.4,3226 z " fill-rule="evenodd" fill="rgb(0,128,0)" stroke-width="5" stroke="rgb(0,0,0)" />
	<path d="M1750.91,3632 1250.91,3632 850.912,4032 1350.91,4032 1750.91,3632 z " fill-rule="evenodd" fill="rgb(0,128,0)" stroke-width="5" stroke="rgb(0,0,0)" />
	<path d="M5893.34,2008 5393.34,2008 4993.34,2408 5493.34,2408 5893.34,2008 z " fill-rule="evenodd" fill="rgb(0,128,0)" stroke-width="5" stroke="rgb(0,0,0)" />
	<path d="M4984.85,2414 4484.85,2414 4084.85,2814 4584.85,2814 4984.85,2414 z " fill-rule="evenodd" fill="rgb(0,128,0)" stroke-width="5" stroke="rgb(0,0,0)" />
	<path d="M2259.4,3632 1759.4,3632 1359.4,4032 1859.4,4032 2259.4,3632 z " fill-rule="evenodd" fill="rgb(0,128,0)" stroke-width="5" stroke="rgb(0,0,0)" />
	<path d="M1350.91,4038 850.912,4038 450.912,4438 950.912,4438 1350.91,4038 z " fill-rule="evenodd" fill="rgb(0,128,0)" stroke-width="5" stroke="rgb(0,0,0)" />
	<path d="M6401.82,2008 5901.82,2008 5501.82,2408 6001.82,2408 6401.82,2008 z " fill-rule="evenodd" fill="rgb(0,128,0)" stroke-width="5" stroke="rgb(0,0,0)" />
	<path d="M5493.34,2414 4993.34,2414 4593.34,2814 5093.34,2814 5493.34,2414 z " fill-rule="evenodd" fill="rgb(0,128,0)" stroke-width="5" stroke="rgb(0,0,0)" />
	<path d="M2767.88,3632 2267.88,3632 1867.88,4032 2367.88,4032 2767.88,3632 z " fill-rule="evenodd" fill="rgb(0,128,0)" stroke-width="5" stroke="rgb(0,0,0)" />
	<path d="M1859.4,4038 1359.4,4038 959.397,4438 1459.4,4438 1859.4,4038 z " fill-rule="evenodd" fill="rgb(0,128,0)" stroke-width="5" stroke="rgb(0,0,0)" />
	<path d="M6001.82,2414 5501.82,2414 5101.82,2814 5601.82,2814 6001.82,2414 z " fill-rule="evenodd" fill="rgb(0,128,0)" stroke-width="5" stroke="rgb(0,0,0)" />
	<path d="M2367.88,4038 1867.88,4038 1467.88,4438 1967.88,4438 2367.88,4038 z " fill-rule="evenodd" fill="rgb(0,128,0)" stroke-width="5" stroke="rgb(0,0,0)" />
	<path d="M1459.4,4444 959.397,4444 559.397,4844 1059.4,4844 1459.4,4444 z " fill-rule="evenodd" fill="rgb(0,128,0)" stroke-width="5" stroke="rgb(0,0,0)" />
	<path d="M6510.31,2414 6010.31,2414 5610.31,2814 6110.31,2814 6510.31,2414 z " fill-rule="evenodd" fill="rgb(0,128,0)" stroke-width="5" stroke="rgb(0,0,0)" />
	<path d="M4693.34,3226 4193.34,3226 3793.34,3626 4293.34,3626 4693.34,3226 z " fill-rule="evenodd" fill="rgb(0,128,0)" stroke-width="5" stroke="rgb(0,0,0)" />
	<path d="M2876.37,4038 2376.37,4038 1976.37,4438 2476.37,4438 2876.37,4038 z " fill-rule="evenodd" fill="rgb(0,128,0)" stroke-width="5" stroke="rgb(0,0,0)" />
	<path d="M1967.88,4444 1467.88,4444 1067.88,4844 1567.88,4844 1967.88,4444 z " fill-rule="evenodd" fill="rgb(0,128,0)" stroke-width="5" stroke="rgb(0,0,0)" />
	<path d="M1059.4,4850 559.397,4850 159.397,5250 659.397,5250 1059.4,4850 z " fill-rule="evenodd" fill="rgb(0,128,0)" stroke-width="5" stroke="rgb(0,0,0)" />
	<path d="M7018.79,2414 6518.79,2414 6118.79,2814 6618.79,2814 7018.79,2414 z " fill-rule="evenodd" fill="rgb(0,128,0)" stroke-width="5" stroke="rgb(0,0,0)" />
	<path d="M6110.31,2820 5610.31,2820 5210.31,3220 5710.31,3220 6110.31,2820 z " fill-rule="evenodd" fill="rgb(0,128,0)" stroke-width="5" stroke="rgb(0,0,0)" />
	<path d="M2476.37,4444 1976.37,4444 1576.37,4844 2076.37,4844 2476.37,4444 z " fill-rule="evenodd" fill="rgb(0,128,0)" stroke-width="5" stroke="rgb(0,0,0)" />
	<path d="M1567.88,4850 1067.88,4850 667.882,5250 1167.88,5250 1567.88,4850 z " fill-rule="evenodd" fill="rgb(0,128,0)" stroke-width="5" stroke="rgb(0,0,0)" />
	<path d="M7527.28,2414 7027.28,2414 6627.28,2814 7127.28,2814 7527.28,2414 z " fill-rule="evenodd" fill="rgb(0,128,0)" stroke-width="5" stroke="rgb(0,0,0)" />
	<path d="M6618.79,2820 6118.79,2820 5718.79,3220 6218.79,3220 6618.79,2820 z " fill-rule="evenodd" fill="rgb(0,128,0)" stroke-width="5" stroke="rgb(0,0,0)" />
	<path d="M4801.82,3632 4301.82,3632 3901.82,4032 4401.82,4032 4801.82,3632 z " fill-rule="evenodd" fill="rgb(0,128,0)" stroke-width="5" stroke="rgb(0,0,0)" />
	<path d="M2076.37,4850 1576.37,4850 1176.37,5250 1676.37,5250 2076.37,4850 z " fill-rule="evenodd" fill="rgb(0,128,0)" stroke-width="5" stroke="rgb(0,0,0)" />
	<path d="M1167.88,5256 667.882,5256 267.882,5656 767.882,5656 1167.88,5256 z " fill-rule="evenodd" fill="rgb(0,128,0)" stroke-width="5" stroke="rgb(0,0,0)" />
	<path d="M7127.28,2820 6627.28,2820 6227.28,3220 6727.28,3220 7127.28,2820 z " fill-rule="evenodd" fill="rgb(0,128,0)" stroke-width="5" stroke="rgb(0,0,0)" />
	<path d="M6218.79,3226 5718.79,3226 5318.79,3626 5818.79,3626 6218.79,3226 z " fill-rule="evenodd" fill="rgb(0,128,0)" stroke-width="5" stroke="rgb(0,0,0)" />
	<path d="M2584.85,4850 2084.85,4850 1684.85,5250 2184.85,5250 2584.85,4850 z " fill-rule="evenodd" fill="rgb(0,128,0)" stroke-width="5" stroke="rgb(0,0,0)" />
	<path d="M1676.37,5256 1176.37,5256 776.368,5656 1276.37,5656 1676.37,5256 z " fill-rule="evenodd" fill="rgb(0,128,0)" stroke-width="5" stroke="rgb(0,0,0)" />
	<path d="M7635.76,2820 7135.76,2820 6735.76,3220 7235.76,3220 7635.76,2820 z " fill-rule="evenodd" fill="rgb(0,128,0)" stroke-width="5" stroke="rgb(0,0,0)" />
	<path d="M6727.28,3226 6227.28,3226 5827.28,3626 6327.28,3626 6727.28,3226 z " fill-rule="evenodd" fill="rgb(0,128,0)" stroke-width="5" stroke="rgb(0,0,0)" />
	<path d="M4910.31,4038 4410.31,4038 4010.31,4438 4510.31,4438 4910.31,4038 z " fill-rule="evenodd" fill="rgb(0,128,0)" stroke-width="5" stroke="rgb(0,0,0)" />
	<path d="M2184.85,5256 1684.85,5256 1284.85,5656 1784.85,5656 2184.85,5256 z " fill-rule="evenodd" fill="rgb(0,128,0)" stroke-width="5" stroke="rgb(0,0,0)" />
	<path d="M1276.37,5662 776.368,5662 376.368,6062 876.368,6062 1276.37,5662 z " fill-rule="evenodd" fill="rgb(0,128,0)" stroke-width="5" stroke="rgb(0,0,0)" />
	<path d="M8144.25,2820 7644.25,2820 7244.25,3220 7744.25,3220 8144.25,2820 z " fill-rule="evenodd" fill="rgb(0,128,0)" stroke-width="5" stroke="rgb(0,0,0)" />
	<path d="M7235.76,3226 6735.76,3226 6335.76,3626 6835.76,3626 7235.76,3226 z " fill-rule="evenodd" fill="rgb(0,128,0)" stroke-width="5" stroke="rgb(0,0,0)" />
	<path d="M6327.28,3632 5827.28,3632 5427.28,4032 5927.28,4032 6327.28,3632 z " fill-rule="evenodd" fill="rgb(0,128,0)" stroke-width="5" stroke="rgb(0,0,0)" />
	<path d="M2693.34,5256 2193.34,5256 1793.34,5656 2293.34,5656 2693.34,5256 z " fill-rule="evenodd" fill="rgb(0,128,0)" stroke-width="5" stroke="rgb(0,0,0)" />
	<path d="M1784.85,5662 1284.85,5662 884.853,6062 1384.85,6062 1784.85,5662 z " fill-rule="evenodd" fill="rgb(0,128,0)" stroke-width="5" stroke="rgb(0,0,0)" />
	<path d="M7744.25,3226 7244.25,3226 6844.25,3626 7344.25,3626 7744.25,3226 z " fill-rule="evenodd" fill="rgb(0,128,0)" stroke-width="5" stroke="rgb(0,0,0)" />
	<path d="M6835.76,3632 6335.76,3632 5935.76,4032 6435.76,4032 6835.76,3632 z " fill-rule="evenodd" fill="rgb(0,128,0)" stroke-width="5" stroke="rgb(0,0,0)" />
	<path d="M2293.34,5662 1793.34,5662 1393.34,6062 1893.34,6062 2293.34,5662 z " fill-rule="evenodd" fill="rgb(0,128,0)" stroke-width="5" stroke="rgb(0,0,0)" />
	<path d="M1384.85,6068 884.853,6068 484.853,6468 984.853,6468 1384.85,6068 z " fill-rule="evenodd" fill="rgb(0,128,0)" stroke-width="5" stroke="rgb(0,0,0)" />
	<path d="M8252.74,3226 7752.74,3226 7352.74,3626 7852.74,3626 8252.74,3226 z " fill-rule="evenodd" fill="rgb(0,128,0)" stroke-width="5" stroke="rgb(0,0,0)" />
	<path d="M7344.25,3632 6844.25,3632 6444.25,4032 6944.25,4032 7344.25,3632 z " fill-rule="evenodd" fill="rgb(0,128,0)" stroke-width="5" stroke="rgb(0,0,0)" />
	<path d="M6435.76,4038 5935.76,4038 5535.76,4438 6035.76,4438 6435.76,4038 z " fill-rule="evenodd" fill="rgb(0,128,0)" stroke-width="5" stroke="rgb(0,0,0)" />
	<path d="M2801.82,5662 2301.82,5662 1901.82,6062 2401.82,6062 2801.82,5662 z " fill-rule="evenodd" fill="rgb(0,128,0)" stroke-width="5" stroke="rgb(0,0,0)" />
	<path d="M1893.34,6068 1393.34,6068 993.338,6468 1493.34,6468 1893.34,6068 z " fill-rule="evenodd" fill="rgb(0,128,0)" stroke-width="5" stroke="rgb(0,0,0)" />
	<path d="M7852.74,3632 7352.74,3632 6952.74,4032 7452.74,4032 7852.74,3632 z " fill-rule="evenodd" fill="rgb(0,128,0)" stroke-width="5" stroke="rgb(0,0,0)" />
	<path d="M6944.25,4038 6444.25,4038 6044.25,4438 6544.25,4438 6944.25,4038 z " fill-rule="evenodd" fill="rgb(0,128,0)" stroke-width="5" stroke="rgb(0,0,0)" />
	<path d="M6035.76,4444 5535.76,4444 5135.76,4844 5635.76,4844 6035.76,4444 z " fill-rule="evenodd" fill="rgb(0,128,0)" stroke-width="5" stroke="rgb(0,0,0)" />
	<path d="M2401.82,6068 1901.82,6068 1501.82,6468 2001.82,6468 2401.82,6068 z " fill-rule="evenodd" fill="rgb(0,128,0)" stroke-width="5" stroke="rgb(0,0,0)" />
	<path d="M1493.34,6474 993.338,6474 593.338,6874 1093.34,6874 1493.34,6474 z " fill-rule="evenodd" fill="rgb(0,128,0)" stroke-width="5" stroke="rgb(0,0,0)" />
	<path d="M8361.22,3632 7861.22,3632 7461.22,4032 7961.22,4032 8361.22,3632 z " fill-rule="evenodd" fill="rgb(0,128,0)" stroke-width="5" stroke="rgb(0,0,0)" />
	<path d="M7452.74,4038 6952.74,4038 6552.74,4438 7052.74,4438 7452.74,4038 z " fill-rule="evenodd" fill="rgb(0,128,0)" stroke-width="5" stroke="rgb(0,0,0)" />
	<path d="M6544.25,4444 6044.25,4444 5644.25,4844 6144.25,4844 6544.25,4444 z " fill-rule="evenodd" fill="rgb(0,128,0)" stroke-width="5" stroke="rgb(0,0,0)" />
	<path d="M2910.31,6068 2410.31,6068 2010.31,6468 2510.31,6468 2910.31,6068 z " fill-rule="evenodd" fill="rgb(0,128,0)" stroke-width="5" stroke="rgb(0,0,0)" />
	<path d="M2001.82,6474 1501.82,6474 1101.82,6874 1601.82,6874 2001.82,6474 z " fill-rule="evenodd" fill="rgb(0,128,0)" stroke-width="5" stroke="rgb(0,0,0)" />
	<path d="M7961.22,4038 7461.22,4038 7061.22,4438 7561.22,4438 7961.22,4038 z " fill-rule="evenodd" fill="rgb(0,128,0)" stroke-width="5" stroke="rgb(0,0,0)" />
	<path d="M7052.74,4444 6552.74,4444 6152.74,4844 6652.74,4844 7052.74,4444 z " fill-rule="evenodd" fill="rgb(0,128,0)" stroke-width="5" stroke="rgb(0,0,0)" />
	<path d="M6144.25,4850 5644.25,4850 5244.25,5250 5744.25,5250 6144.25,4850 z " fill-rule="evenodd" fill="rgb(0,128,0)" stroke-width="5" stroke="rgb(0,0,0)" />
	<path d="M2510.31,6474 2010.31,6474 1610.31,6874 2110.31,6874 2510.31,6474 z " fill-rule="evenodd" fill="rgb(0,128,0)" stroke-width="5" stroke="rgb(0,0,0)" />
	<path d="M8469.71,4038 7969.71,4038 7569.71,4438 8069.71,4438 8469.71,4038 z " fill-rule="evenodd" fill="rgb(0,128,0)" stroke-width="5" stroke="rgb(0,0,0)" />
	<path d="M7561.22,4444 7061.22,4444 6661.22,4844 7161.22,4844 7561.22,4444 z " fill-rule="evenodd" fill="rgb(0,128,0)" stroke-width="5" stroke="rgb(0,0,0)" />
	<path d="M6652.74,4850 6152.74,4850 5752.74,5250 6252.74,5250 6652.74,4850 z " fill-rule="evenodd" fill="rgb(0,128,0)" stroke-width="5" stroke="rgb(0,0,0)" />
	<path d="M3018.79,6474 2518.79,6474 2118.79,6874 2618.79,6874 3018.79,6474 z " fill-rule="evenodd" fill="rgb(0,128,0)" stroke-width="5" stroke="rgb(0,0,0)" />
	<path d="M8069.71,4444 7569.71,4444 7169.71,4844 7669.71,4844 8069.71,4444 z " fill-rule="evenodd" fill="rgb(0,128,0)" stroke-width="5" stroke="rgb(0,0,0)" />
	<path d="M7161.22,4850 6661.22,4850 6261.22,5250 6761.22,5250 7161.22,4850 z " fill-rule="evenodd" fill="rgb(0,128,0)" stroke-width="5" stroke="rgb(0,0,0)" />
	<path d="M8578.19,4444 8078.19,4444 7678.19,4844 8178.19,4844 8578.19,4444 z " fill-rule="evenodd" fill="rgb(0,128,0)" stroke-width="5" stroke="rgb(0,0,0)" />
	<path d="M7669.71,4850 7169.71,4850 6769.71,5250 7269.71,5250 7669.71,4850 z " fill-rule="evenodd" fill="rgb(0,128,0)" stroke-width="5" stroke="rgb(0,0,0)" />
	<path d="M8178.19,4850 7678.19,4850 7278.19,5250 7778.19,5250 8178.19,4850 z " fill-rule="evenodd" fill="rgb(0,128,0)" stroke-width="5" stroke="rgb(0,0,0)" />
	<path d="M1216.97,1596 1310.97,1502 1400,1502 1400,1596 1216.97,1596 z " fill-rule="evenodd" fill="rgb(255,0,0)" stroke-width="5" stroke="rgb(0,0,0)" />
	<path d="M1208.49,1596 708.485,1596 802.485,1502 1302.49,1502 1208.49,1596 z " fill-rule="evenodd" fill="rgb(255,0,0)" stroke-width="5" stroke="rgb(0,0,0)" />
	<path d="M700,1596 700,1596 700,1502 794,1502 700,1596 z " fill-rule="evenodd" fill="rgb(255,0,0)" stroke-width="5" stroke="rgb(0,0,0)" />
	<path d="M200,1602 700,1602 300,2002 100,2002 100,1702 200,1602 z " fill-rule="evenodd" fill="rgb(255,0,0)" stroke-width="5" stroke="rgb(0,0,0)" />
	<path d="M191.515,1602 100,1693.51 100,1602 191.515,1602 z " fill-rule="evenodd" fill="rgb(255,0,0)" stroke-width="5" stroke="rgb(0,0,0)" />
	<path d="M300,2008 100,2208 100,2008 300,2008 z " fill-rule="evenodd" fill="rgb(255,0,0)" stroke-width="5" stroke="rgb(0,0,0)" />
	<path d="M3533.94,790 3436.95,886.99 3476.28,790 3533.94,790 z " fill-rule="evenodd" fill="rgb(255,0,0)" stroke-width="5" stroke="rgb(0,0,0)" />
	<path d="M3133.94,1190 2633.94,1190 3033.94,790 3368.85,790 3256.15,1067.79 3133.94,1190 z " fill-rule="evenodd" fill="rgb(255,0,0)" stroke-width="5" stroke="rgb(0,0,0)" />
	<path d="M2525.46,790 3025.46,790 2625.46,1190 2150,1190 2150,1165.46 2525.46,790 z " fill-rule="evenodd" fill="rgb(255,0,0)" stroke-width="5" stroke="rgb(0,0,0)" />
	<path d="M2516.97,790 2150,1156.97 2150,790 2516.97,790 z " fill-rule="evenodd" fill="rgb(255,0,0)" stroke-width="5" stroke="rgb(0,0,0)" />
	<path d="M2625.46,1196 2225.46,1596 2150,1596 2150,1196 2625.46,1196 z " fill-rule="evenodd" fill="rgb(255,0,0)" stroke-width="5" stroke="rgb(0,0,0)" />
	<path d="M308.485,2008 808.485,2008 408.485,2408 100,2408 100,2216.49 308.485,2008 z " fill-rule="evenodd" fill="rgb(255,0,0)" stroke-width="5" stroke="rgb(0,0,0)" />
	<path d="M3542.43,784 3626.74,699.686 3834.39,784 3542.43,784 z " fill-rule="evenodd" fill="rgb(255,0,0)" stroke-width="5" stroke="rgb(0,0,0)" />
	<path d="M3033.94,784 3265.5,552.441 3437,622 3371.28,784 3033.94,784 z " fill-rule="evenodd" fill="rgb(255,0,0)" stroke-width="5" stroke="rgb(0,0,0)" />
	<path d="M3533.94,784 3478.72,784 3529,660 3620.71,697.236 3533.94,784 z " fill-rule="evenodd" fill="rgb(255,0,0)" stroke-width="5" stroke="rgb(0,0,0)" />
	<path d="M3542.43,790 3849.17,790 3986.62,845.809 3642.43,1190 3314.07,1190 3431.16,901.264 3542.43,790 z " fill-rule="evenodd" fill="rgb(255,0,0)" stroke-width="5" stroke="rgb(0,0,0)" />
	<path d="M3142.43,1190 3250.36,1082.07 3206.57,1190 3142.43,1190 z " fill-rule="evenodd" fill="rgb(255,0,0)" stroke-width="5" stroke="rgb(0,0,0)" />
	<path d="M3025.46,784 2525.46,784 2903.74,405.714 3259.46,549.992 3025.46,784 z " fill-rule="evenodd" fill="rgb(255,0,0)" stroke-width="5" stroke="rgb(0,0,0)" />
	<path d="M2416.97,384 2850.21,384 2897.71,403.265 2516.97,784 2150,784 2150,650.971 2416.97,384 z " fill-rule="evenodd" fill="rgb(255,0,0)" stroke-width="5" stroke="rgb(0,0,0)" />
	<path d="M408.485,2414 100,2722.49 100,2414 408.485,2414 z " fill-rule="evenodd" fill="rgb(255,0,0)" stroke-width="5" stroke="rgb(0,0,0)" />
	<path d="M4150.91,1190 3650.91,1190 3992.65,848.259 4348.26,992.649 4150.91,1190 z " fill-rule="evenodd" fill="rgb(255,0,0)" stroke-width="5" stroke="rgb(0,0,0)" />
	<path d="M3642.43,1196 3242.43,1596 3149.43,1596 3311.64,1196 3642.43,1196 z " fill-rule="evenodd" fill="rgb(255,0,0)" stroke-width="5" stroke="rgb(0,0,0)" />
	<path d="M2742.43,1596 3142.43,1196 3204.14,1196 3080,1502 2950,1502 2950,1596 2742.43,1596 z " fill-rule="evenodd" fill="rgb(255,0,0)" stroke-width="5" stroke="rgb(0,0,0)" />
	<path d="M2416.97,378 2537.72,257.255 2835.41,378 2416.97,378 z " fill-rule="evenodd" fill="rgb(255,0,0)" stroke-width="5" stroke="rgb(0,0,0)" />
	<path d="M2408.49,384 2150,642.485 2150,384 2408.49,384 z " fill-rule="evenodd" fill="rgb(255,0,0)" stroke-width="5" stroke="rgb(0,0,0)" />
	<path d="M416.971,2414 916.971,2414 516.971,2814 100,2814 100,2730.97 416.971,2414 z " fill-rule="evenodd" fill="rgb(255,0,0)" stroke-width="5" stroke="rgb(0,0,0)" />
	<path d="M4659.4,1190 4159.4,1190 4354.3,995.099 4709.91,1139.49 4659.4,1190 z " fill-rule="evenodd" fill="rgb(255,0,0)" stroke-width="5" stroke="rgb(0,0,0)" />
	<path d="M2175.96,110.528 2531.68,254.807 2408.49,378 2150,378 2150,136.485 2175.96,110.528 z " fill-rule="evenodd" fill="rgb(255,0,0)" stroke-width="5" stroke="rgb(0,0,0)" />
	<path d="M516.971,2820 384.971,2952 100,2952 100,2820 516.971,2820 z " fill-rule="evenodd" fill="rgb(255,0,0)" stroke-width="5" stroke="rgb(0,0,0)" />
	<path d="M116.971,3220 100,3220 100,3152 184.971,3152 116.971,3220 z " fill-rule="evenodd" fill="rgb(255,0,0)" stroke-width="5" stroke="rgb(0,0,0)" />
	<path d="M4667.88,1190 4715.94,1141.94 4834.31,1190 4667.88,1190 z " fill-rule="evenodd" fill="rgb(255,0,0)" stroke-width="5" stroke="rgb(0,0,0)" />
	<path d="M2150,128 2150,100 2169.92,108.08 2150,128 z " fill-rule="evenodd" fill="rgb(255,0,0)" stroke-width="5" stroke="rgb(0,0,0)" />
	<path d="M525.456,2820 1025.46,2820 893.456,2952 393.456,2952 525.456,2820 z " fill-rule="evenodd" fill="rgb(255,0,0)" stroke-width="5" stroke="rgb(0,0,0)" />
	<path d="M625.456,3220 125.456,3220 193.456,3152 693.456,3152 625.456,3220 z " fill-rule="evenodd" fill="rgb(255,0,0)" stroke-width="5" stroke="rgb(0,0,0)" />
	<path d="M116.971,3226 100,3242.97 100,3226 116.971,3226 z " fill-rule="evenodd" fill="rgb(255,0,0)" stroke-width="5" stroke="rgb(0,0,0)" />
	<path d="M4767.88,1596 4267.88,1596 4667.88,1196 4849.09,1196 5075.82,1288.06 4767.88,1596 z " fill-rule="evenodd" fill="rgb(255,0,0)" stroke-width="5" stroke="rgb(0,0,0)" />
	<path d="M1033.94,2820 1533.94,2820 1401.94,2952 901.941,2952 1033.94,2820 z " fill-rule="evenodd" fill="rgb(255,0,0)" stroke-width="5" stroke="rgb(0,0,0)" />
	<path d="M1133.94,3220 633.941,3220 701.941,3152 1201.94,3152 1133.94,3220 z " fill-rule="evenodd" fill="rgb(255,0,0)" stroke-width="5" stroke="rgb(0,0,0)" />
	<path d="M125.456,3226 625.456,3226 225.456,3626 100,3626 100,3251.46 125.456,3226 z " fill-rule="evenodd" fill="rgb(255,0,0)" stroke-width="5" stroke="rgb(0,0,0)" />
	<path d="M5276.37,1596 4776.37,1596 5081.86,1290.51 5437.47,1434.9 5276.37,1596 z " fill-rule="evenodd" fill="rgb(255,0,0)" stroke-width="5" stroke="rgb(0,0,0)" />
	<path d="M1542.43,2820 2042.43,2820 1910.43,2952 1410.43,2952 1542.43,2820 z " fill-rule="evenodd" fill="rgb(255,0,0)" stroke-width="5" stroke="rgb(0,0,0)" />
	<path d="M1642.43,3220 1142.43,3220 1210.43,3152 1710.43,3152 1642.43,3220 z " fill-rule="evenodd" fill="rgb(255,0,0)" stroke-width="5" stroke="rgb(0,0,0)" />
	<path d="M225.456,3632 100,3757.46 100,3632 225.456,3632 z " fill-rule="evenodd" fill="rgb(255,0,0)" stroke-width="5" stroke="rgb(0,0,0)" />
	<path d="M5784.85,1596 5284.85,1596 5443.5,1437.35 5799.11,1581.74 5784.85,1596 z " fill-rule="evenodd" fill="rgb(255,0,0)" stroke-width="5" stroke="rgb(0,0,0)" />
	<path d="M2050.91,2820 2550.91,2820 2150.91,3220 1650.91,3220 1718.91,3152 2050,3152 2050,2952 1918.91,2952 2050.91,2820 z " fill-rule="evenodd" fill="rgb(255,0,0)" stroke-width="5" stroke="rgb(0,0,0)" />
	<path d="M233.941,3632 733.941,3632 333.941,4032 100,4032 100,3765.94 233.941,3632 z " fill-rule="evenodd" fill="rgb(255,0,0)" stroke-width="5" stroke="rgb(0,0,0)" />
	<path d="M5793.34,1596 5805.15,1584.19 5834.22,1596 5793.34,1596 z " fill-rule="evenodd" fill="rgb(255,0,0)" stroke-width="5" stroke="rgb(0,0,0)" />
	<path d="M2659.4,3220 2159.4,3220 2559.4,2820 3059.4,2820 2927.4,2952 2850,2952 2850,3029.4 2659.4,3220 z " fill-rule="evenodd" fill="rgb(255,0,0)" stroke-width="5" stroke="rgb(0,0,0)" />
	<path d="M333.941,4038 100,4271.94 100,4038 333.941,4038 z " fill-rule="evenodd" fill="rgb(255,0,0)" stroke-width="5" stroke="rgb(0,0,0)" />
	<path d="M5893.34,2002 5393.34,2002 5793.34,1602 5849,1602 6165.02,1730.32 5893.34,2002 z " fill-rule="evenodd" fill="rgb(255,0,0)" stroke-width="5" stroke="rgb(0,0,0)" />
	<path d="M3067.88,2820 3567.88,2820 3435.88,2952 2935.88,2952 3067.88,2820 z " fill-rule="evenodd" fill="rgb(255,0,0)" stroke-width="5" stroke="rgb(0,0,0)" />
	<path d="M2667.88,3220 2850,3037.88 2850,3152 2900,3152 2900,3220 2667.88,3220 z " fill-rule="evenodd" fill="rgb(255,0,0)" stroke-width="5" stroke="rgb(0,0,0)" />
	<path d="M342.426,4038 842.426,4038 442.426,4438 100,4438 100,4280.43 342.426,4038 z " fill-rule="evenodd" fill="rgb(255,0,0)" stroke-width="5" stroke="rgb(0,0,0)" />
	<path d="M6401.82,2002 5901.82,2002 6171.06,1732.77 6526.67,1877.16 6401.82,2002 z " fill-rule="evenodd" fill="rgb(255,0,0)" stroke-width="5" stroke="rgb(0,0,0)" />
	<path d="M3576.37,2820 4076.37,2820 3944.37,2952 3444.37,2952 3576.37,2820 z " fill-rule="evenodd" fill="rgb(255,0,0)" stroke-width="5" stroke="rgb(0,0,0)" />
	<path d="M3700,3196.37 3700,3052 3844.37,3052 3700,3196.37 z " fill-rule="evenodd" fill="rgb(255,0,0)" stroke-width="5" stroke="rgb(0,0,0)" />
	<path d="M2767.88,3626 2267.88,3626 2667.88,3226 2900,3226 2900,3493.88 2767.88,3626 z " fill-rule="evenodd" fill="rgb(255,0,0)" stroke-width="5" stroke="rgb(0,0,0)" />
	<path d="M442.426,4444 100,4786.43 100,4444 442.426,4444 z " fill-rule="evenodd" fill="rgb(255,0,0)" stroke-width="5" stroke="rgb(0,0,0)" />
	<path d="M6410.31,2002 6532.7,1879.61 6834.14,2002 6410.31,2002 z " fill-rule="evenodd" fill="rgb(255,0,0)" stroke-width="5" stroke="rgb(0,0,0)" />
	<path d="M4084.85,2820 4584.85,2820 4184.85,3220 3700,3220 3700,3204.85 3852.85,3052 4200,3052 4200,2952 3952.85,2952 4084.85,2820 z " fill-rule="evenodd" fill="rgb(255,0,0)" stroke-width="5" stroke="rgb(0,0,0)" />
	<path d="M2776.37,3626 2900,3502.37 2900,3626 2776.37,3626 z " fill-rule="evenodd" fill="rgb(255,0,0)" stroke-width="5" stroke="rgb(0,0,0)" />
	<path d="M450.912,4444 950.912,4444 550.912,4844 100,4844 100,4794.91 450.912,4444 z " fill-rule="evenodd" fill="rgb(255,0,0)" stroke-width="5" stroke="rgb(0,0,0)" />
	<path d="M6510.31,2408 6010.31,2408 6410.31,2008 6848.92,2008 6892.58,2025.73 6510.31,2408 z " fill-rule="evenodd" fill="rgb(255,0,0)" stroke-width="5" stroke="rgb(0,0,0)" />
	<path d="M4693.34,3220 4193.34,3220 4593.34,2820 5093.34,2820 4961.34,2952 4900,2952 4900,3013.34 4693.34,3220 z " fill-rule="evenodd" fill="rgb(255,0,0)" stroke-width="5" stroke="rgb(0,0,0)" />
	<path d="M4184.85,3226 3784.85,3626 3700,3626 3700,3226 4184.85,3226 z " fill-rule="evenodd" fill="rgb(255,0,0)" stroke-width="5" stroke="rgb(0,0,0)" />
	<path d="M2876.37,4032 2376.37,4032 2776.37,3632 2900,3632 2900,4008.37 2876.37,4032 z " fill-rule="evenodd" fill="rgb(255,0,0)" stroke-width="5" stroke="rgb(0,0,0)" />
	<path d="M550.912,4850 150.912,5250 100,5250 100,4850 550.912,4850 z " fill-rule="evenodd" fill="rgb(255,0,0)" stroke-width="5" stroke="rgb(0,0,0)" />
	<path d="M7018.79,2408 6518.79,2408 6898.61,2028.18 7254.22,2172.57 7018.79,2408 z " fill-rule="evenodd" fill="rgb(255,0,0)" stroke-width="5" stroke="rgb(0,0,0)" />
	<path d="M5101.82,2820 5601.82,2820 5201.82,3220 5050,3220 5050,2952 4969.82,2952 5101.82,2820 z " fill-rule="evenodd" fill="rgb(255,0,0)" stroke-width="5" stroke="rgb(0,0,0)" />
	<path d="M4701.82,3220 4900,3021.82 4900,3052 4950,3052 4950,3220 4701.82,3220 z " fill-rule="evenodd" fill="rgb(255,0,0)" stroke-width="5" stroke="rgb(0,0,0)" />
	<path d="M3784.85,3632 3700,3716.85 3700,3632 3784.85,3632 z " fill-rule="evenodd" fill="rgb(255,0,0)" stroke-width="5" stroke="rgb(0,0,0)" />
	<path d="M2884.85,4032 2900,4016.85 2900,4032 2884.85,4032 z " fill-rule="evenodd" fill="rgb(255,0,0)" stroke-width="5" stroke="rgb(0,0,0)" />
	<path d="M150.912,5256 100,5306.91 100,5256 150.912,5256 z " fill-rule="evenodd" fill="rgb(255,0,0)" stroke-width="5" stroke="rgb(0,0,0)" />
	<path d="M7527.28,2408 7027.28,2408 7260.26,2175.02 7615.87,2319.41 7527.28,2408 z " fill-rule="evenodd" fill="rgb(255,0,0)" stroke-width="5" stroke="rgb(0,0,0)" />
	<path d="M5201.82,3226 5050,3377.82 5050,3226 5201.82,3226 z " fill-rule="evenodd" fill="rgb(255,0,0)" stroke-width="5" stroke="rgb(0,0,0)" />
	<path d="M4801.82,3626 4301.82,3626 4701.82,3226 4950,3226 4950,3477.82 4801.82,3626 z " fill-rule="evenodd" fill="rgb(255,0,0)" stroke-width="5" stroke="rgb(0,0,0)" />
	<path d="M3793.34,3632 4293.34,3632 3893.34,4032 3700,4032 3700,3725.34 3793.34,3632 z " fill-rule="evenodd" fill="rgb(255,0,0)" stroke-width="5" stroke="rgb(0,0,0)" />
	<path d="M2484.85,4438 2884.85,4038 2900,4038 2900,4438 2484.85,4438 z " fill-rule="evenodd" fill="rgb(255,0,0)" stroke-width="5" stroke="rgb(0,0,0)" />
	<path d="M159.397,5256 659.397,5256 259.397,5656 100,5656 100,5315.4 159.397,5256 z " fill-rule="evenodd" fill="rgb(255,0,0)" stroke-width="5" stroke="rgb(0,0,0)" />
	<path d="M7535.76,2408 7621.9,2321.86 7834.05,2408 7535.76,2408 z " fill-rule="evenodd" fill="rgb(255,0,0)" stroke-width="5" stroke="rgb(0,0,0)" />
	<path d="M5210.31,3226 5710.31,3226 5310.31,3626 5050,3626 5050,3386.31 5210.31,3226 z " fill-rule="evenodd" fill="rgb(255,0,0)" stroke-width="5" stroke="rgb(0,0,0)" />
	<path d="M4810.31,3626 4950,3486.31 4950,3626 4810.31,3626 z " fill-rule="evenodd" fill="rgb(255,0,0)" stroke-width="5" stroke="rgb(0,0,0)" />
	<path d="M3893.34,4038 3700,4231.34 3700,4038 3893.34,4038 z " fill-rule="evenodd" fill="rgb(255,0,0)" stroke-width="5" stroke="rgb(0,0,0)" />
	<path d="M2584.85,4844 2084.85,4844 2484.85,4444 2900,4444 2900,4528.85 2584.85,4844 z " fill-rule="evenodd" fill="rgb(255,0,0)" stroke-width="5" stroke="rgb(0,0,0)" />
	<path d="M259.397,5662 100,5821.4 100,5662 259.397,5662 z " fill-rule="evenodd" fill="rgb(255,0,0)" stroke-width="5" stroke="rgb(0,0,0)" />
	<path d="M7635.76,2814 7135.76,2814 7535.76,2414 7848.83,2414 7981.78,2467.98 7635.76,2814 z " fill-rule="evenodd" fill="rgb(255,0,0)" stroke-width="5" stroke="rgb(0,0,0)" />
	<path d="M5310.31,3632 5050,3892.31 5050,3632 5310.31,3632 z " fill-rule="evenodd" fill="rgb(255,0,0)" stroke-width="5" stroke="rgb(0,0,0)" />
	<path d="M4910.31,4032 4410.31,4032 4810.31,3632 4950,3632 4950,3992.31 4910.31,4032 z " fill-rule="evenodd" fill="rgb(255,0,0)" stroke-width="5" stroke="rgb(0,0,0)" />
	<path d="M3901.82,4038 4401.82,4038 4001.82,4438 3700,4438 3700,4239.82 3901.82,4038 z " fill-rule="evenodd" fill="rgb(255,0,0)" stroke-width="5" stroke="rgb(0,0,0)" />
	<path d="M2593.34,4844 2900,4537.34 2900,4844 2593.34,4844 z " fill-rule="evenodd" fill="rgb(255,0,0)" stroke-width="5" stroke="rgb(0,0,0)" />
	<path d="M267.882,5662 767.882,5662 367.882,6062 100,6062 100,5829.88 267.882,5662 z " fill-rule="evenodd" fill="rgb(255,0,0)" stroke-width="5" stroke="rgb(0,0,0)" />
	<path d="M8144.25,2814 7644.25,2814 7987.82,2470.43 8343.43,2614.82 8144.25,2814 z " fill-rule="evenodd" fill="rgb(255,0,0)" stroke-width="5" stroke="rgb(0,0,0)" />
	<path d="M5318.79,3632 5818.79,3632 5418.79,4032 5050,4032 5050,3900.79 5318.79,3632 z " fill-rule="evenodd" fill="rgb(255,0,0)" stroke-width="5" stroke="rgb(0,0,0)" />
	<path d="M4918.79,4032 4950,4000.79 4950,4032 4918.79,4032 z " fill-rule="evenodd" fill="rgb(255,0,0)" stroke-width="5" stroke="rgb(0,0,0)" />
	<path d="M4001.82,4444 3700,4745.82 3700,4444 4001.82,4444 z " fill-rule="evenodd" fill="rgb(255,0,0)" stroke-width="5" stroke="rgb(0,0,0)" />
	<path d="M2693.34,5250 2193.34,5250 2593.34,4850 2900,4850 2900,5043.34 2693.34,5250 z " fill-rule="evenodd" fill="rgb(255,0,0)" stroke-width="5" stroke="rgb(0,0,0)" />
	<path d="M367.882,6068 100,6335.88 100,6068 367.882,6068 z " fill-rule="evenodd" fill="rgb(255,0,0)" stroke-width="5" stroke="rgb(0,0,0)" />
	<path d="M8152.74,2814 8349.46,2617.27 8600,2719 8600,2814 8152.74,2814 z " fill-rule="evenodd" fill="rgb(255,0,0)" stroke-width="5" stroke="rgb(0,0,0)" />
	<path d="M5418.79,4038 5050,4406.79 5050,4038 5418.79,4038 z " fill-rule="evenodd" fill="rgb(255,0,0)" stroke-width="5" stroke="rgb(0,0,0)" />
	<path d="M4518.79,4438 4918.79,4038 4950,4038 4950,4438 4518.79,4438 z " fill-rule="evenodd" fill="rgb(255,0,0)" stroke-width="5" stroke="rgb(0,0,0)" />
	<path d="M4010.31,4444 4510.31,4444 4110.31,4844 3700,4844 3700,4754.31 4010.31,4444 z " fill-rule="evenodd" fill="rgb(255,0,0)" stroke-width="5" stroke="rgb(0,0,0)" />
	<path d="M2701.82,5250 2900,5051.82 2900,5250 2701.82,5250 z " fill-rule="evenodd" fill="rgb(255,0,0)" stroke-width="5" stroke="rgb(0,0,0)" />
	<path d="M376.368,6068 876.368,6068 476.368,6468 100,6468 100,6344.37 376.368,6068 z " fill-rule="evenodd" fill="rgb(255,0,0)" stroke-width="5" stroke="rgb(0,0,0)" />
	<path d="M8252.74,3220 7752.74,3220 8152.74,2820 8600,2820 8600,2872.74 8252.74,3220 z " fill-rule="evenodd" fill="rgb(255,0,0)" stroke-width="5" stroke="rgb(0,0,0)" />
	<path d="M5427.28,4038 5927.28,4038 5527.28,4438 5050,4438 5050,4415.28 5427.28,4038 z " fill-rule="evenodd" fill="rgb(255,0,0)" stroke-width="5" stroke="rgb(0,0,0)" />
	<path d="M4618.79,4844 4118.79,4844 4518.79,4444 4950,4444 4950,4512.79 4618.79,4844 z " fill-rule="evenodd" fill="rgb(255,0,0)" stroke-width="5" stroke="rgb(0,0,0)" />
	<path d="M4110.31,4850 4008.31,4952 3700,4952 3700,4850 4110.31,4850 z " fill-rule="evenodd" fill="rgb(255,0,0)" stroke-width="5" stroke="rgb(0,0,0)" />
	<path d="M2801.82,5656 2301.82,5656 2701.82,5256 2900,5256 2900,5557.82 2801.82,5656 z " fill-rule="evenodd" fill="rgb(255,0,0)" stroke-width="5" stroke="rgb(0,0,0)" />
	<path d="M476.368,6474 100,6850.37 100,6474 476.368,6474 z " fill-rule="evenodd" fill="rgb(255,0,0)" stroke-width="5" stroke="rgb(0,0,0)" />
	<path d="M8261.22,3220 8600,2881.22 8600,3220 8261.22,3220 z " fill-rule="evenodd" fill="rgb(255,0,0)" stroke-width="5" stroke="rgb(0,0,0)" />
	<path d="M5527.28,4444 5127.28,4844 5050,4844 5050,4444 5527.28,4444 z " fill-rule="evenodd" fill="rgb(255,0,0)" stroke-width="5" stroke="rgb(0,0,0)" />
	<path d="M4627.28,4844 4950,4521.28 4950,4844 4627.28,4844 z " fill-rule="evenodd" fill="rgb(255,0,0)" stroke-width="5" stroke="rgb(0,0,0)" />
	<path d="M4118.79,4850 4618.79,4850 4516.79,4952 4016.79,4952 4118.79,4850 z " fill-rule="evenodd" fill="rgb(255,0,0)" stroke-width="5" stroke="rgb(0,0,0)" />
	<path d="M2810.31,5656 2900,5566.31 2900,5656 2810.31,5656 z " fill-rule="evenodd" fill="rgb(255,0,0)" stroke-width="5" stroke="rgb(0,0,0)" />
	<path d="M484.853,6474 984.853,6474 584.853,6874 100,6874 100,6858.85 484.853,6474 z " fill-rule="evenodd" fill="rgb(255,0,0)" stroke-width="5" stroke="rgb(0,0,0)" />
	<path d="M8361.22,3626 7861.22,3626 8261.22,3226 8600,3226 8600,3387.22 8361.22,3626 z " fill-rule="evenodd" fill="rgb(255,0,0)" stroke-width="5" stroke="rgb(0,0,0)" />
	<path d="M5127.28,4850 5050,4927.28 5050,4850 5127.28,4850 z " fill-rule="evenodd" fill="rgb(255,0,0)" stroke-width="5" stroke="rgb(0,0,0)" />
	<path d="M4627.28,4850 4950,4850 4950,4952 4525.28,4952 4627.28,4850 z " fill-rule="evenodd" fill="rgb(255,0,0)" stroke-width="5" stroke="rgb(0,0,0)" />
	<path d="M2910.31,6062 2410.31,6062 2810.31,5662 2900,5662 2900,6052 2920.31,6052 2910.31,6062 z " fill-rule="evenodd" fill="rgb(255,0,0)" stroke-width="5" stroke="rgb(0,0,0)" />
	<path d="M584.853,6880 512.853,6952 100,6952 100,6880 584.853,6880 z " fill-rule="evenodd" fill="rgb(255,0,0)" stroke-width="5" stroke="rgb(0,0,0)" />
	<path d="M8369.71,3626 8600,3395.71 8600,3626 8369.71,3626 z " fill-rule="evenodd" fill="rgb(255,0,0)" stroke-width="5" stroke="rgb(0,0,0)" />
	<path d="M5135.76,4850 5635.76,4850 5235.76,5250 5050,5250 5050,4935.76 5135.76,4850 z " fill-rule="evenodd" fill="rgb(255,0,0)" stroke-width="5" stroke="rgb(0,0,0)" />
	<path d="M2918.79,6062 2928.79,6052 3100,6052 3100,6062 2918.79,6062 z " fill-rule="evenodd" fill="rgb(255,0,0)" stroke-width="5" stroke="rgb(0,0,0)" />
	<path d="M593.338,6880 1093.34,6880 1021.34,6952 521.338,6952 593.338,6880 z " fill-rule="evenodd" fill="rgb(255,0,0)" stroke-width="5" stroke="rgb(0,0,0)" />
	<path d="M8469.71,4032 7969.71,4032 8369.71,3632 8600,3632 8600,3901.71 8469.71,4032 z " fill-rule="evenodd" fill="rgb(255,0,0)" stroke-width="5" stroke="rgb(0,0,0)" />
	<path d="M5235.76,5256 5050,5441.76 5050,5256 5235.76,5256 z " fill-rule="evenodd" fill="rgb(255,0,0)" stroke-width="5" stroke="rgb(0,0,0)" />
	<path d="M3018.79,6468 2518.79,6468 2918.79,6068 3100,6068 3100,6386.79 3018.79,6468 z " fill-rule="evenodd" fill="rgb(255,0,0)" stroke-width="5" stroke="rgb(0,0,0)" />
	<path d="M1101.82,6880 1601.82,6880 1529.82,6952 1029.82,6952 1101.82,6880 z " fill-rule="evenodd" fill="rgb(255,0,0)" stroke-width="5" stroke="rgb(0,0,0)" />
	<path d="M8478.19,4032 8600,3910.19 8600,4032 8478.19,4032 z " fill-rule="evenodd" fill="rgb(255,0,0)" stroke-width="5" stroke="rgb(0,0,0)" />
	<path d="M5244.25,5256 5744.25,5256 5448.25,5552 5050,5552 5050,5450.25 5244.25,5256 z " fill-rule="evenodd" fill="rgb(255,0,0)" stroke-width="5" stroke="rgb(0,0,0)" />
	<path d="M3027.28,6468 3100,6395.28 3100,6468 3027.28,6468 z " fill-rule="evenodd" fill="rgb(255,0,0)" stroke-width="5" stroke="rgb(0,0,0)" />
	<path d="M1610.31,6880 2110.31,6880 2038.31,6952 1538.31,6952 1610.31,6880 z " fill-rule="evenodd" fill="rgb(255,0,0)" stroke-width="5" stroke="rgb(0,0,0)" />
	<path d="M8578.19,4438 8078.19,4438 8478.19,4038 8600,4038 8600,4416.19 8578.19,4438 z " fill-rule="evenodd" fill="rgb(255,0,0)" stroke-width="5" stroke="rgb(0,0,0)" />
	<path d="M5752.74,5256 6252.74,5256 5956.74,5552 5456.74,5552 5752.74,5256 z " fill-rule="evenodd" fill="rgb(255,0,0)" stroke-width="5" stroke="rgb(0,0,0)" />
	<path d="M2627.28,6874 3027.28,6474 3100,6474 3100,6852 2900,6852 2900,6874 2627.28,6874 z " fill-rule="evenodd" fill="rgb(255,0,0)" stroke-width="5" stroke="rgb(0,0,0)" />
	<path d="M2118.79,6880 2618.79,6880 2546.79,6952 2046.79,6952 2118.79,6880 z " fill-rule="evenodd" fill="rgb(255,0,0)" stroke-width="5" stroke="rgb(0,0,0)" />
	<path d="M8586.68,4438 8600,4424.68 8600,4438 8586.68,4438 z " fill-rule="evenodd" fill="rgb(255,0,0)" stroke-width="5" stroke="rgb(0,0,0)" />
	<path d="M6261.22,5256 6761.22,5256 6465.22,5552 5965.22,5552 6261.22,5256 z " fill-rule="evenodd" fill="rgb(255,0,0)" stroke-width="5" stroke="rgb(0,0,0)" />
	<path d="M2627.28,6880 2900,6880 2900,6952 2555.28,6952 2627.28,6880 z " fill-rule="evenodd" fill="rgb(255,0,0)" stroke-width="5" stroke="rgb(0,0,0)" />
	<path d="M8186.68,4844 8586.68,4444 8600,4444 8600,4844 8186.68,4844 z " fill-rule="evenodd" fill="rgb(255,0,0)" stroke-width="5" stroke="rgb(0,0,0)" />
	<path d="M6769.71,5256 7269.71,5256 6973.71,5552 6473.71,5552 6769.71,5256 z " fill-rule="evenodd" fill="rgb(255,0,0)" stroke-width="5" stroke="rgb(0,0,0)" />
	<path d="M8286.68,5250 7786.68,5250 8186.68,4850 8600,4850 8600,4936.68 8286.68,5250 z " fill-rule="evenodd" fill="rgb(255,0,0)" stroke-width="5" stroke="rgb(0,0,0)" />
	<path d="M7278.19,5256 7778.19,5256 7482.19,5552 6982.19,5552 7278.19,5256 z " fill-rule="evenodd" fill="rgb(255,0,0)" stroke-width="5" stroke="rgb(0,0,0)" />
	<path d="M8295.16,5250 8600,4945.16 8600,5250 8295.16,5250 z " fill-rule="evenodd" fill="rgb(255,0,0)" stroke-width="5" stroke="rgb(0,0,0)" />
	<path d="M7786.68,5256 8286.68,5256 7990.68,5552 7490.68,5552 7786.68,5256 z " fill-rule="evenodd" fill="rgb(255,0,0)" stroke-width="5" stroke="rgb(0,0,0)" />
	<path d="M8295.16,5256 8600,5256 8600,5451.16 8499.16,5552 7999.16,5552 8295.16,5256 z " fill-rule="evenodd" fill="rgb(255,0,0)" stroke-width="5" stroke="rgb(0,0,0)" />
	<path d="M8600,5459.65 8600,5552 8507.65,5552 8600,5459.65 z " fill-rule="evenodd" fill="rgb(255,0,0)" stroke-width="5" stroke="rgb(0,0,0)" />
	<polyline points="695,1607 195,1607 695,1607 695,2107 695,1607 " fill="none" stroke-width="100" stroke="rgb(0,0,0)" />
	<circle cx="695" cy="1607" r="-8.33333" fill="rgb(0,0,0)" />
	<circle cx="195" cy="1607" r="-8.33333" fill="rgb(0,0,0)" />
	<circle cx="695" cy="1607" r="-8.33333" fill="rgb(0,0,0)" />
	<circle cx="695" cy="2107" r="-8.33333" fill="rgb(0,0,0)" />
	<circle cx="695" cy="1607" r="-8.33333" fill="rgb(0,0,0)" />
	<polyline points="695,2157 695,1607 145,1607 " fill="none" stroke-width="0.5" stroke="rgb(128,0,128)" />
</svg>
