<?xml version="1.0" standalone="no" ?>
<!DOCTYPE svg PUBLIC "-//W3C//DTD SVG 1.1//EN" "http://www.w3.org/Graphics/SVG/1.1/DTD/svg11.dtd">
<svg width="8700px" height="7052px" xmlns="http://www.w3.org/2000/svg" version="1.1" >
	<path d="M1908.49,1602 1408.49,1602 1008.49,2002 1508.49,2002 1908.49,1602 z " fill-rule="evenodd" fill="rgb(0,128,0)" stroke-width="5" stroke="rgb(0,0,0)" />
	<path d="M1400,1602 900,1602 500,2002 1000,2002 1400,1602 z " fill-rule="evenodd" fill="rgb(0,128,0)" stroke-width="5" stroke="rgb(0,0,0)" />
	<path d="M1000,2008 500,2008 100,2408 600,2408 1000,2008 z " fill-rule="evenodd" fill="rgb(0,128,0)" stroke-width="5" stroke="rgb(0,0,0)" />
	<path d="M3216.97,790 2716.97,790 2316.97,1190 2816.97,1190 3216.97,790 z " fill-rule="evenodd" fill="rgb(0,128,0)" stroke-width="5" stroke="rgb(0,0,0)" />
	<path d="M2416.97,1602 1916.97,1602 1516.97,2002 2016.97,2002 2416.97,1602 z " fill-rule="evenodd" fill="rgb(0,128,0)" stroke-width="5" stroke="rgb(0,0,0)" />
	<path d="M1508.49,2008 1008.49,2008 608.485,2408 1108.49,2408 1508.49,2008 z " fill-rule="evenodd" fill="rgb(0,128,0)" stroke-width="5" stroke="rgb(0,0,0)" />
	<path d="M2925.46,1602 2425.46,1602 2025.46,2002 2525.46,2002 2925.46,1602 z " fill-rule="evenodd" fill="rgb(0,128,0)" stroke-width="5" stroke="rgb(0,0,0)" />
	<path d="M2016.97,2008 1516.97,2008 1116.97,2408 1616.97,2408 2016.97,2008 z " fill-rule="evenodd" fill="rgb(0,128,0)" stroke-width="5" stroke="rgb(0,0,0)" />
	<path d="M1108.49,2414 608.485,2414 208.485,2814 708.485,2814 1108.49,2414 z " fill-rule="evenodd" fill="rgb(0,128,0)" stroke-width="5" stroke="rgb(0,0,0)" />
	<path d="M4342.43,1196 3842.43,1196 3442.43,1596 3942.43,1596 4342.43,1196 z " fill-rule="evenodd" fill="rgb(0,128,0)" stroke-width="5" stroke="rgb(0,0,0)" />
	<path d="M3433.94,1602 2933.94,1602 2533.94,2002 3033.94,2002 3433.94,1602 z " fill-rule="evenodd" fill="rgb(0,128,0)" stroke-width="5" stroke="rgb(0,0,0)" />
	<path d="M2525.46,2008 2025.46,2008 1625.46,2408 2125.46,2408 2525.46,2008 z " fill-rule="evenodd" fill="rgb(0,128,0)" stroke-width="5" stroke="rgb(0,0,0)" />
	<path d="M1616.97,2414 1116.97,2414 716.971,2814 1216.97,2814 1616.97,2414 z " fill-rule="evenodd" fill="rgb(0,128,0)" stroke-width="5" stroke="rgb(0,0,0)" />
	<path d="M3942.43,1602 3442.43,1602 3042.43,2002 3542.43,2002 3942.43,1602 z " fill-rule="evenodd" fill="rgb(0,128,0)" stroke-width="5" stroke="rgb(0,0,0)" />
	<path d="M3033.94,2008 2533.94,2008 2133.94,2408 2633.94,2408 3033.94,2008 z " fill-rule="evenodd" fill="rgb(0,128,0)" stroke-width="5" stroke="rgb(0,0,0)" />
	<path d="M2125.46,2414 1625.46,2414 1225.46,2814 1725.46,2814 2125.46,2414 z " fill-rule="evenodd" fill="rgb(0,128,0)" stroke-width="5" stroke="rgb(0,0,0)" />
	<path d="M4450.91,1602 3950.91,1602 3550.91,2002 4050.91,2002 4450.91,1602 z " fill-rule="evenodd" fill="rgb(0,128,0)" stroke-width="5" stroke="rgb(0,0,0)" />
	<path d="M3542.43,2008 3042.43,2008 2642.43,2408 3142.43,2408 3542.43,2008 z " fill-rule="evenodd" fill="rgb(0,128,0)" stroke-width="5" stroke="rgb(0,0,0)" />
	<path d="M2633.94,2414 2133.94,2414 1733.94,2814 2233.94,2814 2633.94,2414 z " fill-rule="evenodd" fill="rgb(0,128,0)" stroke-width="5" stroke="rgb(0,0,0)" />
	<path d="M4959.4,1602 4459.4,1602 4059.4,2002 4559.4,2002 4959.4,1602 z " fill-rule="evenodd" fill="rgb(0,128,0)" stroke-width="5" stroke="rgb(0,0,0)" />
	<path d="M4050.91,2008 3550.91,2008 3150.91,2408 3650.91,2408 4050.91,2008 z " fill-rule="evenodd" fill="rgb(0,128,0)" stroke-width="5" stroke="rgb(0,0,0)" />
	<path d="M3142.43,2414 2642.43,2414 2242.43,2814 2742.43,2814 3142.43,2414 z " fill-rule="evenodd" fill="rgb(0,128,0)" stroke-width="5" stroke="rgb(0,0,0)" />
	<path d="M1325.46,3226 825.456,3226 425.456,3626 925.456,3626 1325.46,3226 z " fill-rule="evenodd" fill="rgb(0,128,0)" stroke-width="5" stroke="rgb(0,0,0)" />
	<path d="M5467.88,1602 4967.88,1602 4567.88,2002 5067.88,2002 5467.88,1602 z " fill-rule="evenodd" fill="rgb(0,128,0)" stroke-width="5" stroke="rgb(0,0,0)" />
	<path d="M4559.4,2008 4059.4,2008 3659.4,2408 4159.4,2408 4559.4,2008 z " fill-rule="evenodd" fill="rgb(0,128,0)" stroke-width="5" stroke="rgb(0,0,0)" />
	<path d="M3650.91,2414 3150.91,2414 2750.91,2814 3250.91,2814 3650.91,2414 z " fill-rule="evenodd" fill="rgb(0,128,0)" stroke-width="5" stroke="rgb(0,0,0)" />
	<path d="M1833.94,3226 1333.94,3226 933.941,3626 1433.94,3626 1833.94,3226 z " fill-rule="evenodd" fill="rgb(0,128,0)" stroke-width="5" stroke="rgb(0,0,0)" />
	<path d="M5067.88,2008 4567.88,2008 4167.88,2408 4667.88,2408 5067.88,2008 z " fill-rule="evenodd" fill="rgb(0,128,0)" stroke-width="5" stroke="rgb(0,0,0)" />
	<path d="M4159.4,2414 3659.4,2414 3259.4,2814 3759.4,2814 4159.4,2414 z " fill-rule="evenodd" fill="rgb(0,128,0)" stroke-width="5" stroke="rgb(0,0,0)" />
	<path d="M2342.43,3226 1842.43,3226 1442.43,3626 1942.43,3626 2342.43,3226 z " fill-rule="evenodd" fill="rgb(0,128,0)" stroke-width="5" stroke="rgb(0,0,0)" />
	<path d="M1433.94,3632 933.941,3632 533.941,4032 1033.94,4032 1433.94,3632 z " fill-rule="evenodd" fill="rgb(0,128,0)" stroke-width="5" stroke="rgb(0,0,0)" />
	<path d="M5576.37,2008 5076.37,2008 4676.37,2408 5176.37,2408 5576.37,2008 z " fill-rule="evenodd" fill="rgb(0,128,0)" stroke-width="5" stroke="rgb(0,0,0)" />
	<path d="M4667.88,2414 4167.88,2414 3767.88,2814 4267.88,2814 4667.88,2414 z " fill-rule="evenodd" fill="rgb(0,128,0)" stroke-width="5" stroke="rgb(0,0,0)" />
	<path d="M2850.91,3226 2350.91,3226 1950.91,3626 2450.91,3626 2850.91,3226 z " fill-rule="evenodd" fill="rgb(0,128,0)" stroke-width="5" stroke="rgb(0,0,0)" />
	<path d="M1942.43,3632 1442.43,3632 1042.43,4032 1542.43,4032 1942.43,3632 z " fill-rule="evenodd" fill="rgb(0,128,0)" stroke-width="5" stroke="rgb(0,0,0)" />
	<path d="M1033.94,4038 533.941,4038 133.941,4438 633.941,4438 1033.94,4038 z " fill-rule="evenodd" fill="rgb(0,128,0)" stroke-width="5" stroke="rgb(0,0,0)" />
	<path d="M6084.85,2008 5584.85,2008 5184.85,2408 5684.85,2408 6084.85,2008 z " fill-rule="evenodd" fill="rgb(0,128,0)" stroke-width="5" stroke="rgb(0,0,0)" />
	<path d="M5176.37,2414 4676.37,2414 4276.37,2814 4776.37,2814 5176.37,2414 z " fill-rule="evenodd" fill="rgb(0,128,0)" stroke-width="5" stroke="rgb(0,0,0)" />
	<path d="M2450.91,3632 1950.91,3632 1550.91,4032 2050.91,4032 2450.91,3632 z " fill-rule="evenodd" fill="rgb(0,128,0)" stroke-width="5" stroke="rgb(0,0,0)" />
	<path d="M1542.43,4038 1042.43,4038 642.426,4438 1142.43,4438 1542.43,4038 z " fill-rule="evenodd" fill="rgb(0,128,0)" stroke-width="5" stroke="rgb(0,0,0)" />
	<path d="M6593.34,2008 6093.34,2008 5693.34,2408 6193.34,2408 6593.34,2008 z " fill-rule="evenodd" fill="rgb(0,128,0)" stroke-width="5" stroke="rgb(0,0,0)" />
	<path d="M5684.85,2414 5184.85,2414 4784.85,2814 5284.85,2814 5684.85,2414 z " fill-rule="evenodd" fill="rgb(0,128,0)" stroke-width="5" stroke="rgb(0,0,0)" />
	<path d="M2050.91,4038 1550.91,4038 1150.91,4438 1650.91,4438 2050.91,4038 z " fill-rule="evenodd" fill="rgb(0,128,0)" stroke-width="5" stroke="rgb(0,0,0)" />
	<path d="M1142.43,4444 642.426,4444 242.426,4844 742.426,4844 1142.43,4444 z " fill-rule="evenodd" fill="rgb(0,128,0)" stroke-width="5" stroke="rgb(0,0,0)" />
	<path d="M6193.34,2414 5693.34,2414 5293.34,2814 5793.34,2814 6193.34,2414 z " fill-rule="evenodd" fill="rgb(0,128,0)" stroke-width="5" stroke="rgb(0,0,0)" />
	<path d="M2559.4,4038 2059.4,4038 1659.4,4438 2159.4,4438 2559.4,4038 z " fill-rule="evenodd" fill="rgb(0,128,0)" stroke-width="5" stroke="rgb(0,0,0)" />
	<path d="M1650.91,4444 1150.91,4444 750.912,4844 1250.91,4844 1650.91,4444 z " fill-rule="evenodd" fill="rgb(0,128,0)" stroke-width="5" stroke="rgb(0,0,0)" />
	<path d="M6701.82,2414 6201.82,2414 5801.82,2814 6301.82,2814 6701.82,2414 z " fill-rule="evenodd" fill="rgb(0,128,0)" stroke-width="5" stroke="rgb(0,0,0)" />
	<path d="M4884.85,3226 4384.85,3226 3984.85,3626 4484.85,3626 4884.85,3226 z " fill-rule="evenodd" fill="rgb(0,128,0)" stroke-width="5" stroke="rgb(0,0,0)" />
	<path d="M2159.4,4444 1659.4,4444 1259.4,4844 1759.4,4844 2159.4,4444 z " fill-rule="evenodd" fill="rgb(0,128,0)" stroke-width="5" stroke="rgb(0,0,0)" />
	<path d="M1250.91,4850 750.912,4850 350.912,5250 850.912,5250 1250.91,4850 z " fill-rule="evenodd" fill="rgb(0,128,0)" stroke-width="5" stroke="rgb(0,0,0)" />
	<path d="M7210.31,2414 6710.31,2414 6310.31,2814 6810.31,2814 7210.31,2414 z " fill-rule="evenodd" fill="rgb(0,128,0)" stroke-width="5" stroke="rgb(0,0,0)" />
	<path d="M6301.82,2820 5801.82,2820 5401.82,3220 5901.82,3220 6301.82,2820 z " fill-rule="evenodd" fill="rgb(0,128,0)" stroke-width="5" stroke="rgb(0,0,0)" />
	<path d="M2667.88,4444 2167.88,4444 1767.88,4844 2267.88,4844 2667.88,4444 z " fill-rule="evenodd" fill="rgb(0,128,0)" stroke-width="5" stroke="rgb(0,0,0)" />
	<path d="M1759.4,4850 1259.4,4850 859.397,5250 1359.4,5250 1759.4,4850 z " fill-rule="evenodd" fill="rgb(0,128,0)" stroke-width="5" stroke="rgb(0,0,0)" />
	<path d="M7718.79,2414 7218.79,2414 6818.79,2814 7318.79,2814 7718.79,2414 z " fill-rule="evenodd" fill="rgb(0,128,0)" stroke-width="5" stroke="rgb(0,0,0)" />
	<path d="M6810.31,2820 6310.31,2820 5910.31,3220 6410.31,3220 6810.31,2820 z " fill-rule="evenodd" fill="rgb(0,128,0)" stroke-width="5" stroke="rgb(0,0,0)" />
	<path d="M2267.88,4850 1767.88,4850 1367.88,5250 1867.88,5250 2267.88,4850 z " fill-rule="evenodd" fill="rgb(0,128,0)" stroke-width="5" stroke="rgb(0,0,0)" />
	<path d="M1359.4,5256 859.397,5256 459.397,5656 959.397,5656 1359.4,5256 z " fill-rule="evenodd" fill="rgb(0,128,0)" stroke-width="5" stroke="rgb(0,0,0)" />
	<path d="M7318.79,2820 6818.79,2820 6418.79,3220 6918.79,3220 7318.79,2820 z " fill-rule="evenodd" fill="rgb(0,128,0)" stroke-width="5" stroke="rgb(0,0,0)" />
	<path d="M6410.31,3226 5910.31,3226 5510.31,3626 6010.31,3626 6410.31,3226 z " fill-rule="evenodd" fill="rgb(0,128,0)" stroke-width="5" stroke="rgb(0,0,0)" />
	<path d="M2776.37,4850 2276.37,4850 1876.37,5250 2376.37,5250 2776.37,4850 z " fill-rule="evenodd" fill="rgb(0,128,0)" stroke-width="5" stroke="rgb(0,0,0)" />
	<path d="M1867.88,5256 1367.88,5256 967.882,5656 1467.88,5656 1867.88,5256 z " fill-rule="evenodd" fill="rgb(0,128,0)" stroke-width="5" stroke="rgb(0,0,0)" />
	<path d="M7827.28,2820 7327.28,2820 6927.28,3220 7427.28,3220 7827.28,2820 z " fill-rule="evenodd" fill="rgb(0,128,0)" stroke-width="5" stroke="rgb(0,0,0)" />
	<path d="M6918.79,3226 6418.79,3226 6018.79,3626 6518.79,3626 6918.79,3226 z " fill-rule="evenodd" fill="rgb(0,128,0)" stroke-width="5" stroke="rgb(0,0,0)" />
	<path d="M6010.31,3632 5510.31,3632 5110.31,4032 5610.31,4032 6010.31,3632 z " fill-rule="evenodd" fill="rgb(0,128,0)" stroke-width="5" stroke="rgb(0,0,0)" />
	<path d="M2376.37,5256 1876.37,5256 1476.37,5656 1976.37,5656 2376.37,5256 z " fill-rule="evenodd" fill="rgb(0,128,0)" stroke-width="5" stroke="rgb(0,0,0)" />
	<path d="M1467.88,5662 967.882,5662 567.882,6062 1067.88,6062 1467.88,5662 z " fill-rule="evenodd" fill="rgb(0,128,0)" stroke-width="5" stroke="rgb(0,0,0)" />
	<path d="M8335.76,2820 7835.76,2820 7435.76,3220 7935.76,3220 8335.76,2820 z " fill-rule="evenodd" fill="rgb(0,128,0)" stroke-width="5" stroke="rgb(0,0,0)" />
	<path d="M7427.28,3226 6927.28,3226 6527.28,3626 7027.28,3626 7427.28,3226 z " fill-rule="evenodd" fill="rgb(0,128,0)" stroke-width="5" stroke="rgb(0,0,0)" />
	<path d="M6518.79,3632 6018.79,3632 5618.79,4032 6118.79,4032 6518.79,3632 z " fill-rule="evenodd" fill="rgb(0,128,0)" stroke-width="5" stroke="rgb(0,0,0)" />
	<path d="M4701.82,4444 4201.82,4444 3801.82,4844 4301.82,4844 4701.82,4444 z " fill-rule="evenodd" fill="rgb(0,128,0)" stroke-width="5" stroke="rgb(0,0,0)" />
	<path d="M2884.85,5256 2384.85,5256 1984.85,5656 2484.85,5656 2884.85,5256 z " fill-rule="evenodd" fill="rgb(0,128,0)" stroke-width="5" stroke="rgb(0,0,0)" />
	<path d="M1976.37,5662 1476.37,5662 1076.37,6062 1576.37,6062 1976.37,5662 z " fill-rule="evenodd" fill="rgb(0,128,0)" stroke-width="5" stroke="rgb(0,0,0)" />
	<path d="M1067.88,6068 567.882,6068 167.882,6468 667.882,6468 1067.88,6068 z " fill-rule="evenodd" fill="rgb(0,128,0)" stroke-width="5" stroke="rgb(0,0,0)" />
	<path d="M7935.76,3226 7435.76,3226 7035.76,3626 7535.76,3626 7935.76,3226 z " fill-rule="evenodd" fill="rgb(0,128,0)" stroke-width="5" stroke="rgb(0,0,0)" />
	<path d="M7027.28,3632 6527.28,3632 6127.28,4032 6627.28,4032 7027.28,3632 z " fill-rule="evenodd" fill="rgb(0,128,0)" stroke-width="5" stroke="rgb(0,0,0)" />
	<path d="M6118.79,4038 5618.79,4038 5218.79,4438 5718.79,4438 6118.79,4038 z " fill-rule="evenodd" fill="rgb(0,128,0)" stroke-width="5" stroke="rgb(0,0,0)" />
	<path d="M2484.85,5662 1984.85,5662 1584.85,6062 2084.85,6062 2484.85,5662 z " fill-rule="evenodd" fill="rgb(0,128,0)" stroke-width="5" stroke="rgb(0,0,0)" />
	<path d="M1576.37,6068 1076.37,6068 676.368,6468 1176.37,6468 1576.37,6068 z " fill-rule="evenodd" fill="rgb(0,128,0)" stroke-width="5" stroke="rgb(0,0,0)" />
	<path d="M8444.25,3226 7944.25,3226 7544.25,3626 8044.25,3626 8444.25,3226 z " fill-rule="evenodd" fill="rgb(0,128,0)" stroke-width="5" stroke="rgb(0,0,0)" />
	<path d="M7535.76,3632 7035.76,3632 6635.76,4032 7135.76,4032 7535.76,3632 z " fill-rule="evenodd" fill="rgb(0,128,0)" stroke-width="5" stroke="rgb(0,0,0)" />
	<path d="M6627.28,4038 6127.28,4038 5727.28,4438 6227.28,4438 6627.28,4038 z " fill-rule="evenodd" fill="rgb(0,128,0)" stroke-width="5" stroke="rgb(0,0,0)" />
	<path d="M2084.85,6068 1584.85,6068 1184.85,6468 1684.85,6468 2084.85,6068 z " fill-rule="evenodd" fill="rgb(0,128,0)" stroke-width="5" stroke="rgb(0,0,0)" />
	<path d="M1176.37,6474 676.368,6474 276.368,6874 776.368,6874 1176.37,6474 z " fill-rule="evenodd" fill="rgb(0,128,0)" stroke-width="5" stroke="rgb(0,0,0)" />
	<path d="M8044.25,3632 7544.25,3632 7144.25,4032 7644.25,4032 8044.25,3632 z " fill-rule="evenodd" fill="rgb(0,128,0)" stroke-width="5" stroke="rgb(0,0,0)" />
	<path d="M7135.76,4038 6635.76,4038 6235.76,4438 6735.76,4438 7135.76,4038 z " fill-rule="evenodd" fill="rgb(0,128,0)" stroke-width="5" stroke="rgb(0,0,0)" />
	<path d="M6227.28,4444 5727.28,4444 5327.28,4844 5827.28,4844 6227.28,4444 z " fill-rule="evenodd" fill="rgb(0,128,0)" stroke-width="5" stroke="rgb(0,0,0)" />
	<path d="M2593.34,6068 2093.34,6068 1693.34,6468 2193.34,6468 2593.34,6068 z " fill-rule="evenodd" fill="rgb(0,128,0)" stroke-width="5" stroke="rgb(0,0,0)" />
	<path d="M1684.85,6474 1184.85,6474 784.853,6874 1284.85,6874 1684.85,6474 z " fill-rule="evenodd" fill="rgb(0,128,0)" stroke-width="5" stroke="rgb(0,0,0)" />
	<path d="M8552.74,3632 8052.74,3632 7652.74,4032 8152.74,4032 8552.74,3632 z " fill-rule="evenodd" fill="rgb(0,128,0)" stroke-width="5" stroke="rgb(0,0,0)" />
	<path d="M7644.25,4038 7144.25,4038 6744.25,4438 7244.25,4438 7644.25,4038 z " fill-rule="evenodd" fill="rgb(0,128,0)" stroke-width="5" stroke="rgb(0,0,0)" />
	<path d="M6735.76,4444 6235.76,4444 5835.76,4844 6335.76,4844 6735.76,4444 z " fill-rule="evenodd" fill="rgb(0,128,0)" stroke-width="5" stroke="rgb(0,0,0)" />
	<path d="M2193.34,6474 1693.34,6474 1293.34,6874 1793.34,6874 2193.34,6474 z " fill-rule="evenodd" fill="rgb(0,128,0)" stroke-width="5" stroke="rgb(0,0,0)" />
	<path d="M8152.74,4038 7652.74,4038 7252.74,4438 7752.74,4438 8152.74,4038 z " fill-rule="evenodd" fill="rgb(0,128,0)" stroke-width="5" stroke="rgb(0,0,0)" />
	<path d="M7244.25,4444 6744.25,4444 6344.25,4844 6844.25,4844 7244.25,4444 z " fill-rule="evenodd" fill="rgb(0,128,0)" stroke-width="5" stroke="rgb(0,0,0)" />
	<path d="M6335.76,4850 5835.76,4850 5435.76,5250 5935.76,5250 6335.76,4850 z " fill-rule="evenodd" fill="rgb(0,128,0)" stroke-width="5" stroke="rgb(0,0,0)" />
	<path d="M2701.82,6474 2201.82,6474 1801.82,6874 2301.82,6874 2701.82,6474 z " fill-rule="evenodd" fill="rgb(0,128,0)" stroke-width="5" stroke="rgb(0,0,0)" />
	<path d="M7752.74,4444 7252.74,4444 6852.74,4844 7352.74,4844 7752.74,4444 z " fill-rule="evenodd" fill="rgb(0,128,0)" stroke-width="5" stroke="rgb(0,0,0)" />
	<path d="M6844.25,4850 6344.25,4850 5944.25,5250 6444.25,5250 6844.25,4850 z " fill-rule="evenodd" fill="rgb(0,128,0)" stroke-width="5" stroke="rgb(0,0,0)" />
	<path d="M8261.22,4444 7761.22,4444 7361.22,4844 7861.22,4844 8261.22,4444 z " fill-rule="evenodd" fill="rgb(0,128,0)" stroke-width="5" stroke="rgb(0,0,0)" />
	<path d="M7352.74,4850 6852.74,4850 6452.74,5250 6952.74,5250 7352.74,4850 z " fill-rule="evenodd" fill="rgb(0,128,0)" stroke-width="5" stroke="rgb(0,0,0)" />
	<path d="M7861.22,4850 7361.22,4850 6961.22,5250 7461.22,5250 7861.22,4850 z " fill-rule="evenodd" fill="rgb(0,128,0)" stroke-width="5" stroke="rgb(0,0,0)" />
	<path d="M8369.71,4850 7869.71,4850 7469.71,5250 7969.71,5250 8369.71,4850 z " fill-rule="evenodd" fill="rgb(0,128,0)" stroke-width="5" stroke="rgb(0,0,0)" />
	<path d="M2316.97,1196 2816.97,1196 2416.97,1596 2150,1596 2150,1362.97 2316.97,1196 z " fill-rule="evenodd" fill="rgb(255,0,0)" stroke-width="5" stroke="rgb(0,0,0)" />
	<path d="M2308.49,1196 2150,1354.49 2150,1196 2308.49,1196 z " fill-rule="evenodd" fill="rgb(255,0,0)" stroke-width="5" stroke="rgb(0,0,0)" />
	<path d="M900,1596 994,1502 1400,1502 1400,1596 900,1596 z " fill-rule="evenodd" fill="rgb(255,0,0)" stroke-width="5" stroke="rgb(0,0,0)" />
	<path d="M391.515,1602 891.515,1602 491.515,2002 100,2002 100,1893.51 391.515,1602 z " fill-rule="evenodd" fill="rgb(255,0,0)" stroke-width="5" stroke="rgb(0,0,0)" />
	<path d="M491.515,2008 100,2399.51 100,2008 491.515,2008 z " fill-rule="evenodd" fill="rgb(255,0,0)" stroke-width="5" stroke="rgb(0,0,0)" />
	<path d="M3833.94,1190 3333.94,1190 3733.94,790 3849.17,790 4122.83,901.114 3833.94,1190 z " fill-rule="evenodd" fill="rgb(255,0,0)" stroke-width="5" stroke="rgb(0,0,0)" />
	<path d="M3725.46,790 3325.46,1190 3314.07,1190 3476.28,790 3725.46,790 z " fill-rule="evenodd" fill="rgb(255,0,0)" stroke-width="5" stroke="rgb(0,0,0)" />
	<path d="M2825.46,1190 3225.46,790 3368.85,790 3206.57,1190 2825.46,1190 z " fill-rule="evenodd" fill="rgb(255,0,0)" stroke-width="5" stroke="rgb(0,0,0)" />
	<path d="M3325.46,1196 3302.22,1219.24 3311.64,1196 3325.46,1196 z " fill-rule="evenodd" fill="rgb(255,0,0)" stroke-width="5" stroke="rgb(0,0,0)" />
	<path d="M2925.46,1596 2425.46,1596 2825.46,1196 3204.14,1196 3121.33,1400.13 3019.46,1502 2950,1502 2950,1571.46 2925.46,1596 z " fill-rule="evenodd" fill="rgb(255,0,0)" stroke-width="5" stroke="rgb(0,0,0)" />
	<path d="M2208.49,790 2708.49,790 2308.49,1190 2150,1190 2150,848.485 2208.49,790 z " fill-rule="evenodd" fill="rgb(255,0,0)" stroke-width="5" stroke="rgb(0,0,0)" />
	<path d="M2200,790 2150,840 2150,790 2200,790 z " fill-rule="evenodd" fill="rgb(255,0,0)" stroke-width="5" stroke="rgb(0,0,0)" />
	<path d="M891.515,1596 700,1596 700,1502 985.515,1502 891.515,1596 z " fill-rule="evenodd" fill="rgb(255,0,0)" stroke-width="5" stroke="rgb(0,0,0)" />
	<path d="M383.029,1602 100,1885.03 100,1602 383.029,1602 z " fill-rule="evenodd" fill="rgb(255,0,0)" stroke-width="5" stroke="rgb(0,0,0)" />
	<path d="M100,2414 600,2414 200,2814 100,2814 100,2414 100,2414 z " fill-rule="evenodd" fill="rgb(255,0,0)" stroke-width="5" stroke="rgb(0,0,0)" />
	<path d="M3733.94,784 3762.95,754.992 3834.39,784 3733.94,784 z " fill-rule="evenodd" fill="rgb(255,0,0)" stroke-width="5" stroke="rgb(0,0,0)" />
	<path d="M4342.43,1190 3842.43,1190 4128.86,903.565 4484.47,1047.95 4342.43,1190 z " fill-rule="evenodd" fill="rgb(255,0,0)" stroke-width="5" stroke="rgb(0,0,0)" />
	<path d="M3333.94,1196 3833.94,1196 3433.94,1596 3149.43,1596 3296.43,1233.51 3333.94,1196 z " fill-rule="evenodd" fill="rgb(255,0,0)" stroke-width="5" stroke="rgb(0,0,0)" />
	<path d="M3115.54,1414.41 3080,1502 3027.94,1502 3115.54,1414.41 z " fill-rule="evenodd" fill="rgb(255,0,0)" stroke-width="5" stroke="rgb(0,0,0)" />
	<path d="M2933.94,1596 2950,1579.94 2950,1596 2933.94,1596 z " fill-rule="evenodd" fill="rgb(255,0,0)" stroke-width="5" stroke="rgb(0,0,0)" />
	<path d="M3225.46,784 3401.75,607.704 3437,622 3371.28,784 3225.46,784 z " fill-rule="evenodd" fill="rgb(255,0,0)" stroke-width="5" stroke="rgb(0,0,0)" />
	<path d="M3725.46,784 3478.72,784 3529,660 3756.91,752.541 3725.46,784 z " fill-rule="evenodd" fill="rgb(255,0,0)" stroke-width="5" stroke="rgb(0,0,0)" />
	<path d="M3216.97,784 2716.97,784 3039.99,460.977 3395.72,605.255 3216.97,784 z " fill-rule="evenodd" fill="rgb(255,0,0)" stroke-width="5" stroke="rgb(0,0,0)" />
	<path d="M2708.49,784 2208.49,784 2608.49,384 2850.21,384 3033.96,458.528 2708.49,784 z " fill-rule="evenodd" fill="rgb(255,0,0)" stroke-width="5" stroke="rgb(0,0,0)" />
	<path d="M2600,384 2200,784 2150,784 2150,384 2600,384 z " fill-rule="evenodd" fill="rgb(255,0,0)" stroke-width="5" stroke="rgb(0,0,0)" />
	<path d="M200,2820 100,2920 100,2820 200,2820 z " fill-rule="evenodd" fill="rgb(255,0,0)" stroke-width="5" stroke="rgb(0,0,0)" />
	<path d="M4350.91,1190 4490.51,1050.4 4834.31,1190 4350.91,1190 z " fill-rule="evenodd" fill="rgb(255,0,0)" stroke-width="5" stroke="rgb(0,0,0)" />
	<path d="M2608.49,378 2673.97,312.518 2835.41,378 2608.49,378 z " fill-rule="evenodd" fill="rgb(255,0,0)" stroke-width="5" stroke="rgb(0,0,0)" />
	<path d="M2312.21,165.791 2667.93,310.07 2600,378 2150,378 2150,328 2312.21,165.791 z " fill-rule="evenodd" fill="rgb(255,0,0)" stroke-width="5" stroke="rgb(0,0,0)" />
	<path d="M208.485,2820 708.485,2820 576.485,2952 100,2952 100,2928.49 208.485,2820 z " fill-rule="evenodd" fill="rgb(255,0,0)" stroke-width="5" stroke="rgb(0,0,0)" />
	<path d="M308.485,3220 100,3220 100,3152 376.485,3152 308.485,3220 z " fill-rule="evenodd" fill="rgb(255,0,0)" stroke-width="5" stroke="rgb(0,0,0)" />
	<path d="M4450.91,1596 3950.91,1596 4350.91,1196 4849.09,1196 4850.38,1196.53 4450.91,1596 z " fill-rule="evenodd" fill="rgb(255,0,0)" stroke-width="5" stroke="rgb(0,0,0)" />
	<path d="M716.971,2820 1216.97,2820 1084.97,2952 584.971,2952 716.971,2820 z " fill-rule="evenodd" fill="rgb(255,0,0)" stroke-width="5" stroke="rgb(0,0,0)" />
	<path d="M816.971,3220 316.971,3220 384.971,3152 884.971,3152 816.971,3220 z " fill-rule="evenodd" fill="rgb(255,0,0)" stroke-width="5" stroke="rgb(0,0,0)" />
	<path d="M2150,319.515 2150,100 2306.17,163.343 2150,319.515 z " fill-rule="evenodd" fill="rgb(255,0,0)" stroke-width="5" stroke="rgb(0,0,0)" />
	<path d="M308.485,3226 100,3434.49 100,3226 308.485,3226 z " fill-rule="evenodd" fill="rgb(255,0,0)" stroke-width="5" stroke="rgb(0,0,0)" />
	<path d="M4959.4,1596 4459.4,1596 4856.42,1198.98 5212.03,1343.37 4959.4,1596 z " fill-rule="evenodd" fill="rgb(255,0,0)" stroke-width="5" stroke="rgb(0,0,0)" />
	<path d="M1225.46,2820 1725.46,2820 1593.46,2952 1093.46,2952 1225.46,2820 z " fill-rule="evenodd" fill="rgb(255,0,0)" stroke-width="5" stroke="rgb(0,0,0)" />
	<path d="M1325.46,3220 825.456,3220 893.456,3152 1393.46,3152 1325.46,3220 z " fill-rule="evenodd" fill="rgb(255,0,0)" stroke-width="5" stroke="rgb(0,0,0)" />
	<path d="M316.971,3226 816.971,3226 416.971,3626 100,3626 100,3442.97 316.971,3226 z " fill-rule="evenodd" fill="rgb(255,0,0)" stroke-width="5" stroke="rgb(0,0,0)" />
	<path d="M5467.88,1596 4967.88,1596 5218.06,1345.82 5573.67,1490.21 5467.88,1596 z " fill-rule="evenodd" fill="rgb(255,0,0)" stroke-width="5" stroke="rgb(0,0,0)" />
	<path d="M1733.94,2820 2233.94,2820 2050,3003.94 2050,2952 1601.94,2952 1733.94,2820 z " fill-rule="evenodd" fill="rgb(255,0,0)" stroke-width="5" stroke="rgb(0,0,0)" />
	<path d="M1833.94,3220 1333.94,3220 1401.94,3152 1901.94,3152 1833.94,3220 z " fill-rule="evenodd" fill="rgb(255,0,0)" stroke-width="5" stroke="rgb(0,0,0)" />
	<path d="M416.971,3632 100,3948.97 100,3632 416.971,3632 z " fill-rule="evenodd" fill="rgb(255,0,0)" stroke-width="5" stroke="rgb(0,0,0)" />
	<path d="M5476.37,1596 5579.71,1492.66 5834.22,1596 5476.37,1596 z " fill-rule="evenodd" fill="rgb(255,0,0)" stroke-width="5" stroke="rgb(0,0,0)" />
	<path d="M2242.43,2820 2742.43,2820 2342.43,3220 1842.43,3220 1910.43,3152 2050,3152 2050,3012.43 2242.43,2820 z " fill-rule="evenodd" fill="rgb(255,0,0)" stroke-width="5" stroke="rgb(0,0,0)" />
	<path d="M425.456,3632 925.456,3632 525.456,4032 100,4032 100,3957.46 425.456,3632 z " fill-rule="evenodd" fill="rgb(255,0,0)" stroke-width="5" stroke="rgb(0,0,0)" />
	<path d="M5576.37,2002 5076.37,2002 5476.37,1602 5849,1602 5939.59,1638.78 5576.37,2002 z " fill-rule="evenodd" fill="rgb(255,0,0)" stroke-width="5" stroke="rgb(0,0,0)" />
	<path d="M2850.91,3220 2350.91,3220 2750.91,2820 3250.91,2820 3118.91,2952 2850,2952 2850,3152 2900,3152 2900,3170.91 2850.91,3220 z " fill-rule="evenodd" fill="rgb(255,0,0)" stroke-width="5" stroke="rgb(0,0,0)" />
	<path d="M525.456,4038 125.456,4438 100,4438 100,4038 525.456,4038 z " fill-rule="evenodd" fill="rgb(255,0,0)" stroke-width="5" stroke="rgb(0,0,0)" />
	<path d="M6084.85,2002 5584.85,2002 5945.62,1641.23 6301.23,1785.62 6084.85,2002 z " fill-rule="evenodd" fill="rgb(255,0,0)" stroke-width="5" stroke="rgb(0,0,0)" />
	<path d="M3259.4,2820 3759.4,2820 3627.4,2952 3127.4,2952 3259.4,2820 z " fill-rule="evenodd" fill="rgb(255,0,0)" stroke-width="5" stroke="rgb(0,0,0)" />
	<path d="M2859.4,3220 2900,3179.4 2900,3220 2859.4,3220 z " fill-rule="evenodd" fill="rgb(255,0,0)" stroke-width="5" stroke="rgb(0,0,0)" />
	<path d="M125.456,4444 100,4469.46 100,4444 125.456,4444 z " fill-rule="evenodd" fill="rgb(255,0,0)" stroke-width="5" stroke="rgb(0,0,0)" />
	<path d="M6593.34,2002 6093.34,2002 6307.27,1788.07 6662.88,1932.46 6593.34,2002 z " fill-rule="evenodd" fill="rgb(255,0,0)" stroke-width="5" stroke="rgb(0,0,0)" />
	<path d="M3767.88,2820 4267.88,2820 4135.88,2952 3635.88,2952 3767.88,2820 z " fill-rule="evenodd" fill="rgb(255,0,0)" stroke-width="5" stroke="rgb(0,0,0)" />
	<path d="M3867.88,3220 3700,3220 3700,3052 4035.88,3052 3867.88,3220 z " fill-rule="evenodd" fill="rgb(255,0,0)" stroke-width="5" stroke="rgb(0,0,0)" />
	<path d="M2459.4,3626 2859.4,3226 2900,3226 2900,3626 2459.4,3626 z " fill-rule="evenodd" fill="rgb(255,0,0)" stroke-width="5" stroke="rgb(0,0,0)" />
	<path d="M133.941,4444 633.941,4444 233.941,4844 100,4844 100,4477.94 133.941,4444 z " fill-rule="evenodd" fill="rgb(255,0,0)" stroke-width="5" stroke="rgb(0,0,0)" />
	<path d="M6601.82,2002 6668.91,1934.91 6834.14,2002 6601.82,2002 z " fill-rule="evenodd" fill="rgb(255,0,0)" stroke-width="5" stroke="rgb(0,0,0)" />
	<path d="M4276.37,2820 4776.37,2820 4376.37,3220 3876.37,3220 4044.37,3052 4200,3052 4200,2952 4144.37,2952 4276.37,2820 z " fill-rule="evenodd" fill="rgb(255,0,0)" stroke-width="5" stroke="rgb(0,0,0)" />
	<path d="M3867.88,3226 3700,3393.88 3700,3226 3867.88,3226 z " fill-rule="evenodd" fill="rgb(255,0,0)" stroke-width="5" stroke="rgb(0,0,0)" />
	<path d="M2559.4,4032 2059.4,4032 2459.4,3632 2900,3632 2900,3691.4 2559.4,4032 z " fill-rule="evenodd" fill="rgb(255,0,0)" stroke-width="5" stroke="rgb(0,0,0)" />
	<path d="M233.941,4850 100,4983.94 100,4850 233.941,4850 z " fill-rule="evenodd" fill="rgb(255,0,0)" stroke-width="5" stroke="rgb(0,0,0)" />
	<path d="M6701.82,2408 6201.82,2408 6601.82,2008 6848.92,2008 7028.79,2081.03 6701.82,2408 z " fill-rule="evenodd" fill="rgb(255,0,0)" stroke-width="5" stroke="rgb(0,0,0)" />
	<path d="M4884.85,3220 4384.85,3220 4784.85,2820 5284.85,2820 5050,3054.85 5050,2952 4900,2952 4900,3052 4950,3052 4950,3154.85 4884.85,3220 z " fill-rule="evenodd" fill="rgb(255,0,0)" stroke-width="5" stroke="rgb(0,0,0)" />
	<path d="M3876.37,3226 4376.37,3226 3976.37,3626 3700,3626 3700,3402.37 3876.37,3226 z " fill-rule="evenodd" fill="rgb(255,0,0)" stroke-width="5" stroke="rgb(0,0,0)" />
	<path d="M2567.88,4032 2900,3699.88 2900,4032 2567.88,4032 z " fill-rule="evenodd" fill="rgb(255,0,0)" stroke-width="5" stroke="rgb(0,0,0)" />
	<path d="M242.426,4850 742.426,4850 342.426,5250 100,5250 100,4992.43 242.426,4850 z " fill-rule="evenodd" fill="rgb(255,0,0)" stroke-width="5" stroke="rgb(0,0,0)" />
	<path d="M7210.31,2408 6710.31,2408 7034.82,2083.48 7390.43,2227.87 7210.31,2408 z " fill-rule="evenodd" fill="rgb(255,0,0)" stroke-width="5" stroke="rgb(0,0,0)" />
	<path d="M5293.34,2820 5793.34,2820 5393.34,3220 5050,3220 5050,3063.34 5293.34,2820 z " fill-rule="evenodd" fill="rgb(255,0,0)" stroke-width="5" stroke="rgb(0,0,0)" />
	<path d="M4893.34,3220 4950,3163.34 4950,3220 4893.34,3220 z " fill-rule="evenodd" fill="rgb(255,0,0)" stroke-width="5" stroke="rgb(0,0,0)" />
	<path d="M3976.37,3632 3700,3908.37 3700,3632 3976.37,3632 z " fill-rule="evenodd" fill="rgb(255,0,0)" stroke-width="5" stroke="rgb(0,0,0)" />
	<path d="M2667.88,4438 2167.88,4438 2567.88,4038 2900,4038 2900,4205.88 2667.88,4438 z " fill-rule="evenodd" fill="rgb(255,0,0)" stroke-width="5" stroke="rgb(0,0,0)" />
	<path d="M342.426,5256 100,5498.43 100,5256 342.426,5256 z " fill-rule="evenodd" fill="rgb(255,0,0)" stroke-width="5" stroke="rgb(0,0,0)" />
	<path d="M7718.79,2408 7218.79,2408 7396.47,2230.33 7752.08,2374.71 7718.79,2408 z " fill-rule="evenodd" fill="rgb(255,0,0)" stroke-width="5" stroke="rgb(0,0,0)" />
	<path d="M5393.34,3226 5050,3569.34 5050,3226 5393.34,3226 z " fill-rule="evenodd" fill="rgb(255,0,0)" stroke-width="5" stroke="rgb(0,0,0)" />
	<path d="M4493.34,3626 4893.34,3226 4950,3226 4950,3626 4493.34,3626 z " fill-rule="evenodd" fill="rgb(255,0,0)" stroke-width="5" stroke="rgb(0,0,0)" />
	<path d="M3984.85,3632 4484.85,3632 4084.85,4032 3700,4032 3700,3916.85 3984.85,3632 z " fill-rule="evenodd" fill="rgb(255,0,0)" stroke-width="5" stroke="rgb(0,0,0)" />
	<path d="M2676.37,4438 2900,4214.37 2900,4438 2676.37,4438 z " fill-rule="evenodd" fill="rgb(255,0,0)" stroke-width="5" stroke="rgb(0,0,0)" />
	<path d="M350.912,5256 850.912,5256 450.912,5656 100,5656 100,5506.91 350.912,5256 z " fill-rule="evenodd" fill="rgb(255,0,0)" stroke-width="5" stroke="rgb(0,0,0)" />
	<path d="M7727.28,2408 7758.11,2377.17 7834.05,2408 7727.28,2408 z " fill-rule="evenodd" fill="rgb(255,0,0)" stroke-width="5" stroke="rgb(0,0,0)" />
	<path d="M5401.82,3226 5901.82,3226 5501.82,3626 5050,3626 5050,3577.82 5401.82,3226 z " fill-rule="evenodd" fill="rgb(255,0,0)" stroke-width="5" stroke="rgb(0,0,0)" />
	<path d="M4593.34,4032 4093.34,4032 4493.34,3632 4950,3632 4950,3675.34 4593.34,4032 z " fill-rule="evenodd" fill="rgb(255,0,0)" stroke-width="5" stroke="rgb(0,0,0)" />
	<path d="M4084.85,4038 3700,4422.85 3700,4038 4084.85,4038 z " fill-rule="evenodd" fill="rgb(255,0,0)" stroke-width="5" stroke="rgb(0,0,0)" />
	<path d="M2776.37,4844 2276.37,4844 2676.37,4444 2900,4444 2900,4720.37 2776.37,4844 z " fill-rule="evenodd" fill="rgb(255,0,0)" stroke-width="5" stroke="rgb(0,0,0)" />
	<path d="M450.912,5662 100,6012.91 100,5662 450.912,5662 z " fill-rule="evenodd" fill="rgb(255,0,0)" stroke-width="5" stroke="rgb(0,0,0)" />
	<path d="M7827.28,2814 7327.28,2814 7727.28,2414 7848.83,2414 8117.99,2523.29 7827.28,2814 z " fill-rule="evenodd" fill="rgb(255,0,0)" stroke-width="5" stroke="rgb(0,0,0)" />
	<path d="M5501.82,3632 5101.82,4032 5050,4032 5050,3632 5501.82,3632 z " fill-rule="evenodd" fill="rgb(255,0,0)" stroke-width="5" stroke="rgb(0,0,0)" />
	<path d="M4601.82,4032 4950,3683.82 4950,4032 4601.82,4032 z " fill-rule="evenodd" fill="rgb(255,0,0)" stroke-width="5" stroke="rgb(0,0,0)" />
	<path d="M4093.34,4038 4593.34,4038 4193.34,4438 3700,4438 3700,4431.34 4093.34,4038 z " fill-rule="evenodd" fill="rgb(255,0,0)" stroke-width="5" stroke="rgb(0,0,0)" />
	<path d="M2784.85,4844 2900,4728.85 2900,4844 2784.85,4844 z " fill-rule="evenodd" fill="rgb(255,0,0)" stroke-width="5" stroke="rgb(0,0,0)" />
	<path d="M459.397,5662 959.397,5662 559.397,6062 100,6062 100,6021.4 459.397,5662 z " fill-rule="evenodd" fill="rgb(255,0,0)" stroke-width="5" stroke="rgb(0,0,0)" />
	<path d="M8335.76,2814 7835.76,2814 8124.03,2525.74 8479.64,2670.13 8335.76,2814 z " fill-rule="evenodd" fill="rgb(255,0,0)" stroke-width="5" stroke="rgb(0,0,0)" />
	<path d="M5101.82,4038 5050,4089.82 5050,4038 5101.82,4038 z " fill-rule="evenodd" fill="rgb(255,0,0)" stroke-width="5" stroke="rgb(0,0,0)" />
	<path d="M4701.82,4438 4201.82,4438 4601.82,4038 4950,4038 4950,4189.82 4701.82,4438 z " fill-rule="evenodd" fill="rgb(255,0,0)" stroke-width="5" stroke="rgb(0,0,0)" />
	<path d="M4193.34,4444 3793.34,4844 3700,4844 3700,4444 4193.34,4444 z " fill-rule="evenodd" fill="rgb(255,0,0)" stroke-width="5" stroke="rgb(0,0,0)" />
	<path d="M2884.85,5250 2384.85,5250 2784.85,4850 2900,4850 2900,5234.85 2884.85,5250 z " fill-rule="evenodd" fill="rgb(255,0,0)" stroke-width="5" stroke="rgb(0,0,0)" />
	<path d="M559.397,6068 159.397,6468 100,6468 100,6068 559.397,6068 z " fill-rule="evenodd" fill="rgb(255,0,0)" stroke-width="5" stroke="rgb(0,0,0)" />
	<path d="M8344.25,2814 8485.67,2672.58 8600,2719 8600,2814 8344.25,2814 z " fill-rule="evenodd" fill="rgb(255,0,0)" stroke-width="5" stroke="rgb(0,0,0)" />
	<path d="M5110.31,4038 5610.31,4038 5210.31,4438 5050,4438 5050,4098.31 5110.31,4038 z " fill-rule="evenodd" fill="rgb(255,0,0)" stroke-width="5" stroke="rgb(0,0,0)" />
	<path d="M4710.31,4438 4950,4198.31 4950,4438 4710.31,4438 z " fill-rule="evenodd" fill="rgb(255,0,0)" stroke-width="5" stroke="rgb(0,0,0)" />
	<path d="M3793.34,4850 3700,4943.34 3700,4850 3793.34,4850 z " fill-rule="evenodd" fill="rgb(255,0,0)" stroke-width="5" stroke="rgb(0,0,0)" />
	<path d="M2893.34,5250 2900,5243.34 2900,5250 2893.34,5250 z " fill-rule="evenodd" fill="rgb(255,0,0)" stroke-width="5" stroke="rgb(0,0,0)" />
	<path d="M159.397,6474 100,6533.4 100,6474 159.397,6474 z " fill-rule="evenodd" fill="rgb(255,0,0)" stroke-width="5" stroke="rgb(0,0,0)" />
	<path d="M8444.25,3220 7944.25,3220 8344.25,2820 8600,2820 8600,3064.25 8444.25,3220 z " fill-rule="evenodd" fill="rgb(255,0,0)" stroke-width="5" stroke="rgb(0,0,0)" />
	<path d="M5210.31,4444 5050,4604.31 5050,4444 5210.31,4444 z " fill-rule="evenodd" fill="rgb(255,0,0)" stroke-width="5" stroke="rgb(0,0,0)" />
	<path d="M4810.31,4844 4310.31,4844 4710.31,4444 4950,4444 4950,4704.31 4810.31,4844 z " fill-rule="evenodd" fill="rgb(255,0,0)" stroke-width="5" stroke="rgb(0,0,0)" />
	<path d="M3801.82,4850 4301.82,4850 4199.82,4952 3700,4952 3700,4951.82 3801.82,4850 z " fill-rule="evenodd" fill="rgb(255,0,0)" stroke-width="5" stroke="rgb(0,0,0)" />
	<path d="M2493.34,5656 2893.34,5256 2900,5256 2900,5656 2493.34,5656 z " fill-rule="evenodd" fill="rgb(255,0,0)" stroke-width="5" stroke="rgb(0,0,0)" />
	<path d="M167.882,6474 667.882,6474 267.882,6874 100,6874 100,6541.88 167.882,6474 z " fill-rule="evenodd" fill="rgb(255,0,0)" stroke-width="5" stroke="rgb(0,0,0)" />
	<path d="M8452.74,3220 8600,3072.74 8600,3220 8452.74,3220 z " fill-rule="evenodd" fill="rgb(255,0,0)" stroke-width="5" stroke="rgb(0,0,0)" />
	<path d="M5218.79,4444 5718.79,4444 5318.79,4844 5050,4844 5050,4612.79 5218.79,4444 z " fill-rule="evenodd" fill="rgb(255,0,0)" stroke-width="5" stroke="rgb(0,0,0)" />
	<path d="M4818.79,4844 4950,4712.79 4950,4844 4818.79,4844 z " fill-rule="evenodd" fill="rgb(255,0,0)" stroke-width="5" stroke="rgb(0,0,0)" />
	<path d="M4310.31,4850 4810.31,4850 4708.31,4952 4208.31,4952 4310.31,4850 z " fill-rule="evenodd" fill="rgb(255,0,0)" stroke-width="5" stroke="rgb(0,0,0)" />
	<path d="M2593.34,6062 2093.34,6062 2493.34,5662 2900,5662 2900,5755.34 2593.34,6062 z " fill-rule="evenodd" fill="rgb(255,0,0)" stroke-width="5" stroke="rgb(0,0,0)" />
	<path d="M267.882,6880 195.882,6952 100,6952 100,6880 267.882,6880 z " fill-rule="evenodd" fill="rgb(255,0,0)" stroke-width="5" stroke="rgb(0,0,0)" />
	<path d="M8552.74,3626 8052.74,3626 8452.74,3226 8600,3226 8600,3578.74 8552.74,3626 z " fill-rule="evenodd" fill="rgb(255,0,0)" stroke-width="5" stroke="rgb(0,0,0)" />
	<path d="M5318.79,4850 5050,5118.79 5050,4850 5318.79,4850 z " fill-rule="evenodd" fill="rgb(255,0,0)" stroke-width="5" stroke="rgb(0,0,0)" />
	<path d="M4818.79,4850 4950,4850 4950,4952 4716.79,4952 4818.79,4850 z " fill-rule="evenodd" fill="rgb(255,0,0)" stroke-width="5" stroke="rgb(0,0,0)" />
	<path d="M2601.82,6062 2900,5763.82 2900,6052 3100,6052 3100,6062 2601.82,6062 z " fill-rule="evenodd" fill="rgb(255,0,0)" stroke-width="5" stroke="rgb(0,0,0)" />
	<path d="M276.368,6880 776.368,6880 704.368,6952 204.368,6952 276.368,6880 z " fill-rule="evenodd" fill="rgb(255,0,0)" stroke-width="5" stroke="rgb(0,0,0)" />
	<path d="M8561.22,3626 8600,3587.22 8600,3626 8561.22,3626 z " fill-rule="evenodd" fill="rgb(255,0,0)" stroke-width="5" stroke="rgb(0,0,0)" />
	<path d="M5327.28,4850 5827.28,4850 5427.28,5250 5050,5250 5050,5127.28 5327.28,4850 z " fill-rule="evenodd" fill="rgb(255,0,0)" stroke-width="5" stroke="rgb(0,0,0)" />
	<path d="M2701.82,6468 2201.82,6468 2601.82,6068 3100,6068 3100,6069.82 2701.82,6468 z " fill-rule="evenodd" fill="rgb(255,0,0)" stroke-width="5" stroke="rgb(0,0,0)" />
	<path d="M784.853,6880 1284.85,6880 1212.85,6952 712.853,6952 784.853,6880 z " fill-rule="evenodd" fill="rgb(255,0,0)" stroke-width="5" stroke="rgb(0,0,0)" />
	<path d="M8161.22,4032 8561.22,3632 8600,3632 8600,4032 8161.22,4032 z " fill-rule="evenodd" fill="rgb(255,0,0)" stroke-width="5" stroke="rgb(0,0,0)" />
	<path d="M5427.28,5256 5131.28,5552 5050,5552 5050,5256 5427.28,5256 z " fill-rule="evenodd" fill="rgb(255,0,0)" stroke-width="5" stroke="rgb(0,0,0)" />
	<path d="M2710.31,6468 3100,6078.31 3100,6468 2710.31,6468 z " fill-rule="evenodd" fill="rgb(255,0,0)" stroke-width="5" stroke="rgb(0,0,0)" />
	<path d="M1293.34,6880 1793.34,6880 1721.34,6952 1221.34,6952 1293.34,6880 z " fill-rule="evenodd" fill="rgb(255,0,0)" stroke-width="5" stroke="rgb(0,0,0)" />
	<path d="M8261.22,4438 7761.22,4438 8161.22,4038 8600,4038 8600,4099.22 8261.22,4438 z " fill-rule="evenodd" fill="rgb(255,0,0)" stroke-width="5" stroke="rgb(0,0,0)" />
	<path d="M5435.76,5256 5935.76,5256 5639.76,5552 5139.76,5552 5435.76,5256 z " fill-rule="evenodd" fill="rgb(255,0,0)" stroke-width="5" stroke="rgb(0,0,0)" />
	<path d="M2810.31,6874 2310.31,6874 2710.31,6474 3100,6474 3100,6584.31 2810.31,6874 z " fill-rule="evenodd" fill="rgb(255,0,0)" stroke-width="5" stroke="rgb(0,0,0)" />
	<path d="M1801.82,6880 2301.82,6880 2229.82,6952 1729.82,6952 1801.82,6880 z " fill-rule="evenodd" fill="rgb(255,0,0)" stroke-width="5" stroke="rgb(0,0,0)" />
	<path d="M8269.71,4438 8600,4107.71 8600,4438 8269.71,4438 z " fill-rule="evenodd" fill="rgb(255,0,0)" stroke-width="5" stroke="rgb(0,0,0)" />
	<path d="M5944.25,5256 6444.25,5256 6148.25,5552 5648.25,5552 5944.25,5256 z " fill-rule="evenodd" fill="rgb(255,0,0)" stroke-width="5" stroke="rgb(0,0,0)" />
	<path d="M2818.79,6874 3100,6592.79 3100,6852 2900,6852 2900,6874 2818.79,6874 z " fill-rule="evenodd" fill="rgb(255,0,0)" stroke-width="5" stroke="rgb(0,0,0)" />
	<path d="M2310.31,6880 2810.31,6880 2738.31,6952 2238.31,6952 2310.31,6880 z " fill-rule="evenodd" fill="rgb(255,0,0)" stroke-width="5" stroke="rgb(0,0,0)" />
	<path d="M8369.71,4844 7869.71,4844 8269.71,4444 8600,4444 8600,4613.71 8369.71,4844 z " fill-rule="evenodd" fill="rgb(255,0,0)" stroke-width="5" stroke="rgb(0,0,0)" />
	<path d="M6452.74,5256 6952.74,5256 6656.74,5552 6156.74,5552 6452.74,5256 z " fill-rule="evenodd" fill="rgb(255,0,0)" stroke-width="5" stroke="rgb(0,0,0)" />
	<path d="M2818.79,6880 2900,6880 2900,6952 2746.79,6952 2818.79,6880 z " fill-rule="evenodd" fill="rgb(255,0,0)" stroke-width="5" stroke="rgb(0,0,0)" />
	<path d="M8378.19,4844 8600,4622.19 8600,4844 8378.19,4844 z " fill-rule="evenodd" fill="rgb(255,0,0)" stroke-width="5" stroke="rgb(0,0,0)" />
	<path d="M6961.22,5256 7461.22,5256 7165.22,5552 6665.22,5552 6961.22,5256 z " fill-rule="evenodd" fill="rgb(255,0,0)" stroke-width="5" stroke="rgb(0,0,0)" />
	<path d="M8478.19,5250 7978.19,5250 8378.19,4850 8600,4850 8600,5128.19 8478.19,5250 z " fill-rule="evenodd" fill="rgb(255,0,0)" stroke-width="5" stroke="rgb(0,0,0)" />
	<path d="M7469.71,5256 7969.71,5256 7673.71,5552 7173.71,5552 7469.71,5256 z " fill-rule="evenodd" fill="rgb(255,0,0)" stroke-width="5" stroke="rgb(0,0,0)" />
	<path d="M8486.68,5250 8600,5136.68 8600,5250 8486.68,5250 z " fill-rule="evenodd" fill="rgb(255,0,0)" stroke-width="5" stroke="rgb(0,0,0)" />
	<path d="M7978.19,5256 8478.19,5256 8182.19,5552 7682.19,5552 7978.19,5256 z " fill-rule="evenodd" fill="rgb(255,0,0)" stroke-width="5" stroke="rgb(0,0,0)" />
	<path d="M8486.68,5256 8600,5256 8600,5552 8190.68,5552 8486.68,5256 z " fill-rule="evenodd" fill="rgb(255,0,0)" stroke-width="5" stroke="rgb(0,0,0)" />
	<polyline points="1395,1607 895,1607 1395,1607 1395,2107 1395,1607 " fill="none" stroke-width="100" stroke="rgb(0,0,0)" />
	<circle cx="1395" cy="1607" r="-8.33333" fill="rgb(0,0,0)" />
	<circle cx="895" cy="1607" r="-8.33333" fill="rgb(0,0,0)" />
	<circle cx="1395" cy="1607" r="-8.33333" fill="rgb(0,0,0)" />
	<circle cx="1395" cy="2107" r="-8.33333" fill="rgb(0,0,0)" />
	<circle cx="1395" cy="1607" r="-8.33333" fill="rgb(0,0,0)" />
	<polyline points="1395,2157 1395,1607 845,1607 " fill="none" stroke-width="0.5" stroke="rgb(128,0,128)" />
</svg>
