<?xml version="1.0" standalone="no" ?>
<!DOCTYPE svg PUBLIC "-//W3C//DTD SVG 1.1//EN" "http://www.w3.org/Graphics/SVG/1.1/DTD/svg11.dtd">
<svg width="8700px" height="7052px" xmlns="http://www.w3.org/2000/svg" version="1.1" >
	<path d="M491.515,1908 991.515,1908 1391.51,1508 891.515,1508 491.515,1908 z " fill-rule="evenodd" fill="rgb(0,128,0)" stroke-width="5" stroke="rgb(0,0,0)" />
	<path d="M2308.49,1096 2808.49,1096 3208.49,696 2708.49,696 2308.49,1096 z " fill-rule="evenodd" fill="rgb(0,128,0)" stroke-width="5" stroke="rgb(0,0,0)" />
	<path d="M600,2314 1100,2314 1500,1914 1000,1914 600,2314 z " fill-rule="evenodd" fill="rgb(0,128,0)" stroke-width="5" stroke="rgb(0,0,0)" />
	<path d="M200,2720 700,2720 1100,2320 600,2320 200,2720 z " fill-rule="evenodd" fill="rgb(0,128,0)" stroke-width="5" stroke="rgb(0,0,0)" />
	<path d="M1108.49,2314 1608.49,2314 2008.49,1914 1508.49,1914 1108.49,2314 z " fill-rule="evenodd" fill="rgb(0,128,0)" stroke-width="5" stroke="rgb(0,0,0)" />
	<path d="M2016.97,1908 2516.97,1908 2916.97,1508 2416.97,1508 2016.97,1908 z " fill-rule="evenodd" fill="rgb(0,128,0)" stroke-width="5" stroke="rgb(0,0,0)" />
	<path d="M708.485,2720 1208.49,2720 1608.49,2320 1108.49,2320 708.485,2720 z " fill-rule="evenodd" fill="rgb(0,128,0)" stroke-width="5" stroke="rgb(0,0,0)" />
	<path d="M1616.97,2314 2116.97,2314 2516.97,1914 2016.97,1914 1616.97,2314 z " fill-rule="evenodd" fill="rgb(0,128,0)" stroke-width="5" stroke="rgb(0,0,0)" />
	<path d="M3433.94,1502 3933.94,1502 4333.94,1102 3833.94,1102 3433.94,1502 z " fill-rule="evenodd" fill="rgb(0,128,0)" stroke-width="5" stroke="rgb(0,0,0)" />
	<path d="M1216.97,2720 1716.97,2720 2116.97,2320 1616.97,2320 1216.97,2720 z " fill-rule="evenodd" fill="rgb(0,128,0)" stroke-width="5" stroke="rgb(0,0,0)" />
	<path d="M2125.46,2314 2625.46,2314 3025.46,1914 2525.46,1914 2125.46,2314 z " fill-rule="evenodd" fill="rgb(0,128,0)" stroke-width="5" stroke="rgb(0,0,0)" />
	<path d="M3033.94,1908 3533.94,1908 3933.94,1508 3433.94,1508 3033.94,1908 z " fill-rule="evenodd" fill="rgb(0,128,0)" stroke-width="5" stroke="rgb(0,0,0)" />
	<path d="M1725.46,2720 2225.46,2720 2625.46,2320 2125.46,2320 1725.46,2720 z " fill-rule="evenodd" fill="rgb(0,128,0)" stroke-width="5" stroke="rgb(0,0,0)" />
	<path d="M2633.94,2314 3133.94,2314 3533.94,1914 3033.94,1914 2633.94,2314 z " fill-rule="evenodd" fill="rgb(0,128,0)" stroke-width="5" stroke="rgb(0,0,0)" />
	<path d="M3542.43,1908 4042.43,1908 4442.43,1508 3942.43,1508 3542.43,1908 z " fill-rule="evenodd" fill="rgb(0,128,0)" stroke-width="5" stroke="rgb(0,0,0)" />
	<path d="M2233.94,2720 2733.94,2720 3133.94,2320 2633.94,2320 2233.94,2720 z " fill-rule="evenodd" fill="rgb(0,128,0)" stroke-width="5" stroke="rgb(0,0,0)" />
	<path d="M3142.43,2314 3642.43,2314 4042.43,1914 3542.43,1914 3142.43,2314 z " fill-rule="evenodd" fill="rgb(0,128,0)" stroke-width="5" stroke="rgb(0,0,0)" />
	<path d="M4050.91,1908 4550.91,1908 4950.91,1508 4450.91,1508 4050.91,1908 z " fill-rule="evenodd" fill="rgb(0,128,0)" stroke-width="5" stroke="rgb(0,0,0)" />
	<path d="M2742.43,2720 3242.43,2720 3642.43,2320 3142.43,2320 2742.43,2720 z " fill-rule="evenodd" fill="rgb(0,128,0)" stroke-width="5" stroke="rgb(0,0,0)" />
	<path d="M3650.91,2314 4150.91,2314 4550.91,1914 4050.91,1914 3650.91,2314 z " fill-rule="evenodd" fill="rgb(0,128,0)" stroke-width="5" stroke="rgb(0,0,0)" />
	<path d="M4559.4,1908 5059.4,1908 5459.4,1508 4959.4,1508 4559.4,1908 z " fill-rule="evenodd" fill="rgb(0,128,0)" stroke-width="5" stroke="rgb(0,0,0)" />
	<path d="M525.456,3938 1025.46,3938 1425.46,3538 925.456,3538 525.456,3938 z " fill-rule="evenodd" fill="rgb(0,128,0)" stroke-width="5" stroke="rgb(0,0,0)" />
	<path d="M3250.91,2720 3750.91,2720 4150.91,2320 3650.91,2320 3250.91,2720 z " fill-rule="evenodd" fill="rgb(0,128,0)" stroke-width="5" stroke="rgb(0,0,0)" />
	<path d="M4159.4,2314 4659.4,2314 5059.4,1914 4559.4,1914 4159.4,2314 z " fill-rule="evenodd" fill="rgb(0,128,0)" stroke-width="5" stroke="rgb(0,0,0)" />
	<path d="M125.456,4344 625.456,4344 1025.46,3944 525.456,3944 125.456,4344 z " fill-rule="evenodd" fill="rgb(0,128,0)" stroke-width="5" stroke="rgb(0,0,0)" />
	<path d="M1033.94,3938 1533.94,3938 1933.94,3538 1433.94,3538 1033.94,3938 z " fill-rule="evenodd" fill="rgb(0,128,0)" stroke-width="5" stroke="rgb(0,0,0)" />
	<path d="M1942.43,3532 2442.43,3532 2842.43,3132 2342.43,3132 1942.43,3532 z " fill-rule="evenodd" fill="rgb(0,128,0)" stroke-width="5" stroke="rgb(0,0,0)" />
	<path d="M3759.4,2720 4259.4,2720 4659.4,2320 4159.4,2320 3759.4,2720 z " fill-rule="evenodd" fill="rgb(0,128,0)" stroke-width="5" stroke="rgb(0,0,0)" />
	<path d="M4667.88,2314 5167.88,2314 5567.88,1914 5067.88,1914 4667.88,2314 z " fill-rule="evenodd" fill="rgb(0,128,0)" stroke-width="5" stroke="rgb(0,0,0)" />
	<path d="M633.941,4344 1133.94,4344 1533.94,3944 1033.94,3944 633.941,4344 z " fill-rule="evenodd" fill="rgb(0,128,0)" stroke-width="5" stroke="rgb(0,0,0)" />
	<path d="M1542.43,3938 2042.43,3938 2442.43,3538 1942.43,3538 1542.43,3938 z " fill-rule="evenodd" fill="rgb(0,128,0)" stroke-width="5" stroke="rgb(0,0,0)" />
	<path d="M4267.88,2720 4767.88,2720 5167.88,2320 4667.88,2320 4267.88,2720 z " fill-rule="evenodd" fill="rgb(0,128,0)" stroke-width="5" stroke="rgb(0,0,0)" />
	<path d="M5176.37,2314 5676.37,2314 6076.37,1914 5576.37,1914 5176.37,2314 z " fill-rule="evenodd" fill="rgb(0,128,0)" stroke-width="5" stroke="rgb(0,0,0)" />
	<path d="M233.941,4750 733.941,4750 1133.94,4350 633.941,4350 233.941,4750 z " fill-rule="evenodd" fill="rgb(0,128,0)" stroke-width="5" stroke="rgb(0,0,0)" />
	<path d="M1142.43,4344 1642.43,4344 2042.43,3944 1542.43,3944 1142.43,4344 z " fill-rule="evenodd" fill="rgb(0,128,0)" stroke-width="5" stroke="rgb(0,0,0)" />
	<path d="M4776.37,2720 5276.37,2720 5676.37,2320 5176.37,2320 4776.37,2720 z " fill-rule="evenodd" fill="rgb(0,128,0)" stroke-width="5" stroke="rgb(0,0,0)" />
	<path d="M5684.85,2314 6184.85,2314 6584.85,1914 6084.85,1914 5684.85,2314 z " fill-rule="evenodd" fill="rgb(0,128,0)" stroke-width="5" stroke="rgb(0,0,0)" />
	<path d="M742.426,4750 1242.43,4750 1642.43,4350 1142.43,4350 742.426,4750 z " fill-rule="evenodd" fill="rgb(0,128,0)" stroke-width="5" stroke="rgb(0,0,0)" />
	<path d="M1650.91,4344 2150.91,4344 2550.91,3944 2050.91,3944 1650.91,4344 z " fill-rule="evenodd" fill="rgb(0,128,0)" stroke-width="5" stroke="rgb(0,0,0)" />
	<path d="M5284.85,2720 5784.85,2720 6184.85,2320 5684.85,2320 5284.85,2720 z " fill-rule="evenodd" fill="rgb(0,128,0)" stroke-width="5" stroke="rgb(0,0,0)" />
	<path d="M342.426,5156 842.426,5156 1242.43,4756 742.426,4756 342.426,5156 z " fill-rule="evenodd" fill="rgb(0,128,0)" stroke-width="5" stroke="rgb(0,0,0)" />
	<path d="M1250.91,4750 1750.91,4750 2150.91,4350 1650.91,4350 1250.91,4750 z " fill-rule="evenodd" fill="rgb(0,128,0)" stroke-width="5" stroke="rgb(0,0,0)" />
	<path d="M3976.37,3532 4476.37,3532 4876.37,3132 4376.37,3132 3976.37,3532 z " fill-rule="evenodd" fill="rgb(0,128,0)" stroke-width="5" stroke="rgb(0,0,0)" />
	<path d="M5793.34,2720 6293.34,2720 6693.34,2320 6193.34,2320 5793.34,2720 z " fill-rule="evenodd" fill="rgb(0,128,0)" stroke-width="5" stroke="rgb(0,0,0)" />
	<path d="M850.912,5156 1350.91,5156 1750.91,4756 1250.91,4756 850.912,5156 z " fill-rule="evenodd" fill="rgb(0,128,0)" stroke-width="5" stroke="rgb(0,0,0)" />
	<path d="M1759.4,4750 2259.4,4750 2659.4,4350 2159.4,4350 1759.4,4750 z " fill-rule="evenodd" fill="rgb(0,128,0)" stroke-width="5" stroke="rgb(0,0,0)" />
	<path d="M5393.34,3126 5893.34,3126 6293.34,2726 5793.34,2726 5393.34,3126 z " fill-rule="evenodd" fill="rgb(0,128,0)" stroke-width="5" stroke="rgb(0,0,0)" />
	<path d="M6301.82,2720 6801.82,2720 7201.82,2320 6701.82,2320 6301.82,2720 z " fill-rule="evenodd" fill="rgb(0,128,0)" stroke-width="5" stroke="rgb(0,0,0)" />
	<path d="M450.912,5562 950.912,5562 1350.91,5162 850.912,5162 450.912,5562 z " fill-rule="evenodd" fill="rgb(0,128,0)" stroke-width="5" stroke="rgb(0,0,0)" />
	<path d="M1359.4,5156 1859.4,5156 2259.4,4756 1759.4,4756 1359.4,5156 z " fill-rule="evenodd" fill="rgb(0,128,0)" stroke-width="5" stroke="rgb(0,0,0)" />
	<path d="M5901.82,3126 6401.82,3126 6801.82,2726 6301.82,2726 5901.82,3126 z " fill-rule="evenodd" fill="rgb(0,128,0)" stroke-width="5" stroke="rgb(0,0,0)" />
	<path d="M959.397,5562 1459.4,5562 1859.4,5162 1359.4,5162 959.397,5562 z " fill-rule="evenodd" fill="rgb(0,128,0)" stroke-width="5" stroke="rgb(0,0,0)" />
	<path d="M1867.88,5156 2367.88,5156 2767.88,4756 2267.88,4756 1867.88,5156 z " fill-rule="evenodd" fill="rgb(0,128,0)" stroke-width="5" stroke="rgb(0,0,0)" />
	<path d="M5501.82,3532 6001.82,3532 6401.82,3132 5901.82,3132 5501.82,3532 z " fill-rule="evenodd" fill="rgb(0,128,0)" stroke-width="5" stroke="rgb(0,0,0)" />
	<path d="M6410.31,3126 6910.31,3126 7310.31,2726 6810.31,2726 6410.31,3126 z " fill-rule="evenodd" fill="rgb(0,128,0)" stroke-width="5" stroke="rgb(0,0,0)" />
	<path d="M559.397,5968 1059.4,5968 1459.4,5568 959.397,5568 559.397,5968 z " fill-rule="evenodd" fill="rgb(0,128,0)" stroke-width="5" stroke="rgb(0,0,0)" />
	<path d="M1467.88,5562 1967.88,5562 2367.88,5162 1867.88,5162 1467.88,5562 z " fill-rule="evenodd" fill="rgb(0,128,0)" stroke-width="5" stroke="rgb(0,0,0)" />
	<path d="M5101.82,3938 5601.82,3938 6001.82,3538 5501.82,3538 5101.82,3938 z " fill-rule="evenodd" fill="rgb(0,128,0)" stroke-width="5" stroke="rgb(0,0,0)" />
	<path d="M6010.31,3532 6510.31,3532 6910.31,3132 6410.31,3132 6010.31,3532 z " fill-rule="evenodd" fill="rgb(0,128,0)" stroke-width="5" stroke="rgb(0,0,0)" />
	<path d="M6918.79,3126 7418.79,3126 7818.79,2726 7318.79,2726 6918.79,3126 z " fill-rule="evenodd" fill="rgb(0,128,0)" stroke-width="5" stroke="rgb(0,0,0)" />
	<path d="M159.397,6374 659.397,6374 1059.4,5974 559.397,5974 159.397,6374 z " fill-rule="evenodd" fill="rgb(0,128,0)" stroke-width="5" stroke="rgb(0,0,0)" />
	<path d="M1067.88,5968 1567.88,5968 1967.88,5568 1467.88,5568 1067.88,5968 z " fill-rule="evenodd" fill="rgb(0,128,0)" stroke-width="5" stroke="rgb(0,0,0)" />
	<path d="M1976.37,5562 2476.37,5562 2876.37,5162 2376.37,5162 1976.37,5562 z " fill-rule="evenodd" fill="rgb(0,128,0)" stroke-width="5" stroke="rgb(0,0,0)" />
	<path d="M3793.34,4750 4293.34,4750 4693.34,4350 4193.34,4350 3793.34,4750 z " fill-rule="evenodd" fill="rgb(0,128,0)" stroke-width="5" stroke="rgb(0,0,0)" />
	<path d="M5610.31,3938 6110.31,3938 6510.31,3538 6010.31,3538 5610.31,3938 z " fill-rule="evenodd" fill="rgb(0,128,0)" stroke-width="5" stroke="rgb(0,0,0)" />
	<path d="M6518.79,3532 7018.79,3532 7418.79,3132 6918.79,3132 6518.79,3532 z " fill-rule="evenodd" fill="rgb(0,128,0)" stroke-width="5" stroke="rgb(0,0,0)" />
	<path d="M7427.28,3126 7927.28,3126 8327.28,2726 7827.28,2726 7427.28,3126 z " fill-rule="evenodd" fill="rgb(0,128,0)" stroke-width="5" stroke="rgb(0,0,0)" />
	<path d="M667.882,6374 1167.88,6374 1567.88,5974 1067.88,5974 667.882,6374 z " fill-rule="evenodd" fill="rgb(0,128,0)" stroke-width="5" stroke="rgb(0,0,0)" />
	<path d="M1576.37,5968 2076.37,5968 2476.37,5568 1976.37,5568 1576.37,5968 z " fill-rule="evenodd" fill="rgb(0,128,0)" stroke-width="5" stroke="rgb(0,0,0)" />
	<path d="M5210.31,4344 5710.31,4344 6110.31,3944 5610.31,3944 5210.31,4344 z " fill-rule="evenodd" fill="rgb(0,128,0)" stroke-width="5" stroke="rgb(0,0,0)" />
	<path d="M6118.79,3938 6618.79,3938 7018.79,3538 6518.79,3538 6118.79,3938 z " fill-rule="evenodd" fill="rgb(0,128,0)" stroke-width="5" stroke="rgb(0,0,0)" />
	<path d="M7027.28,3532 7527.28,3532 7927.28,3132 7427.28,3132 7027.28,3532 z " fill-rule="evenodd" fill="rgb(0,128,0)" stroke-width="5" stroke="rgb(0,0,0)" />
	<path d="M267.882,6780 767.882,6780 1167.88,6380 667.882,6380 267.882,6780 z " fill-rule="evenodd" fill="rgb(0,128,0)" stroke-width="5" stroke="rgb(0,0,0)" />
	<path d="M1176.37,6374 1676.37,6374 2076.37,5974 1576.37,5974 1176.37,6374 z " fill-rule="evenodd" fill="rgb(0,128,0)" stroke-width="5" stroke="rgb(0,0,0)" />
	<path d="M5718.79,4344 6218.79,4344 6618.79,3944 6118.79,3944 5718.79,4344 z " fill-rule="evenodd" fill="rgb(0,128,0)" stroke-width="5" stroke="rgb(0,0,0)" />
	<path d="M6627.28,3938 7127.28,3938 7527.28,3538 7027.28,3538 6627.28,3938 z " fill-rule="evenodd" fill="rgb(0,128,0)" stroke-width="5" stroke="rgb(0,0,0)" />
	<path d="M7535.76,3532 8035.76,3532 8435.76,3132 7935.76,3132 7535.76,3532 z " fill-rule="evenodd" fill="rgb(0,128,0)" stroke-width="5" stroke="rgb(0,0,0)" />
	<path d="M776.368,6780 1276.37,6780 1676.37,6380 1176.37,6380 776.368,6780 z " fill-rule="evenodd" fill="rgb(0,128,0)" stroke-width="5" stroke="rgb(0,0,0)" />
	<path d="M1684.85,6374 2184.85,6374 2584.85,5974 2084.85,5974 1684.85,6374 z " fill-rule="evenodd" fill="rgb(0,128,0)" stroke-width="5" stroke="rgb(0,0,0)" />
	<path d="M5318.79,4750 5818.79,4750 6218.79,4350 5718.79,4350 5318.79,4750 z " fill-rule="evenodd" fill="rgb(0,128,0)" stroke-width="5" stroke="rgb(0,0,0)" />
	<path d="M6227.28,4344 6727.28,4344 7127.28,3944 6627.28,3944 6227.28,4344 z " fill-rule="evenodd" fill="rgb(0,128,0)" stroke-width="5" stroke="rgb(0,0,0)" />
	<path d="M7135.76,3938 7635.76,3938 8035.76,3538 7535.76,3538 7135.76,3938 z " fill-rule="evenodd" fill="rgb(0,128,0)" stroke-width="5" stroke="rgb(0,0,0)" />
	<path d="M1284.85,6780 1784.85,6780 2184.85,6380 1684.85,6380 1284.85,6780 z " fill-rule="evenodd" fill="rgb(0,128,0)" stroke-width="5" stroke="rgb(0,0,0)" />
	<path d="M5827.28,4750 6327.28,4750 6727.28,4350 6227.28,4350 5827.28,4750 z " fill-rule="evenodd" fill="rgb(0,128,0)" stroke-width="5" stroke="rgb(0,0,0)" />
	<path d="M6735.76,4344 7235.76,4344 7635.76,3944 7135.76,3944 6735.76,4344 z " fill-rule="evenodd" fill="rgb(0,128,0)" stroke-width="5" stroke="rgb(0,0,0)" />
	<path d="M7644.25,3938 8144.25,3938 8544.25,3538 8044.25,3538 7644.25,3938 z " fill-rule="evenodd" fill="rgb(0,128,0)" stroke-width="5" stroke="rgb(0,0,0)" />
	<path d="M1793.34,6780 2293.34,6780 2693.34,6380 2193.34,6380 1793.34,6780 z " fill-rule="evenodd" fill="rgb(0,128,0)" stroke-width="5" stroke="rgb(0,0,0)" />
	<path d="M5427.28,5156 5927.28,5156 6327.28,4756 5827.28,4756 5427.28,5156 z " fill-rule="evenodd" fill="rgb(0,128,0)" stroke-width="5" stroke="rgb(0,0,0)" />
	<path d="M6335.76,4750 6835.76,4750 7235.76,4350 6735.76,4350 6335.76,4750 z " fill-rule="evenodd" fill="rgb(0,128,0)" stroke-width="5" stroke="rgb(0,0,0)" />
	<path d="M7244.25,4344 7744.25,4344 8144.25,3944 7644.25,3944 7244.25,4344 z " fill-rule="evenodd" fill="rgb(0,128,0)" stroke-width="5" stroke="rgb(0,0,0)" />
	<path d="M5935.76,5156 6435.76,5156 6835.76,4756 6335.76,4756 5935.76,5156 z " fill-rule="evenodd" fill="rgb(0,128,0)" stroke-width="5" stroke="rgb(0,0,0)" />
	<path d="M6844.25,4750 7344.25,4750 7744.25,4350 7244.25,4350 6844.25,4750 z " fill-rule="evenodd" fill="rgb(0,128,0)" stroke-width="5" stroke="rgb(0,0,0)" />
	<path d="M6444.25,5156 6944.25,5156 7344.25,4756 6844.25,4756 6444.25,5156 z " fill-rule="evenodd" fill="rgb(0,128,0)" stroke-width="5" stroke="rgb(0,0,0)" />
	<path d="M7352.74,4750 7852.74,4750 8252.74,4350 7752.74,4350 7352.74,4750 z " fill-rule="evenodd" fill="rgb(0,128,0)" stroke-width="5" stroke="rgb(0,0,0)" />
	<path d="M6952.74,5156 7452.74,5156 7852.74,4756 7352.74,4756 6952.74,5156 z " fill-rule="evenodd" fill="rgb(0,128,0)" stroke-width="5" stroke="rgb(0,0,0)" />
	<path d="M7461.22,5156 7961.22,5156 8361.22,4756 7861.22,4756 7461.22,5156 z " fill-rule="evenodd" fill="rgb(0,128,0)" stroke-width="5" stroke="rgb(0,0,0)" />
	<path d="M883.029,1508 483.029,1908 100,1908 100,1791.03 289.029,1602 700,1602 700,1508 883.029,1508 z " fill-rule="evenodd" fill="rgb(255,0,0)" stroke-width="5" stroke="rgb(0,0,0)" />
	<path d="M1500,1908 1000,1908 1400,1508 1400,1508 1400,1602 1806,1602 1500,1908 z " fill-rule="evenodd" fill="rgb(255,0,0)" stroke-width="5" stroke="rgb(0,0,0)" />
	<path d="M2300,1102 2150,1252 2150,1102 2300,1102 z " fill-rule="evenodd" fill="rgb(255,0,0)" stroke-width="5" stroke="rgb(0,0,0)" />
	<path d="M2308.49,1102 2808.49,1102 2408.49,1502 2150,1502 2150,1260.49 2308.49,1102 z " fill-rule="evenodd" fill="rgb(255,0,0)" stroke-width="5" stroke="rgb(0,0,0)" />
	<path d="M2200,696 2700,696 2300,1096 2150,1096 2150,746 2200,696 z " fill-rule="evenodd" fill="rgb(255,0,0)" stroke-width="5" stroke="rgb(0,0,0)" />
	<path d="M2816.97,1096 3216.97,696 3406.98,696 3244.71,1096 2816.97,1096 z " fill-rule="evenodd" fill="rgb(255,0,0)" stroke-width="5" stroke="rgb(0,0,0)" />
	<path d="M3376.22,1036.75 3514.4,696 3617.66,696 3688.29,724.678 3376.22,1036.75 z " fill-rule="evenodd" fill="rgb(255,0,0)" stroke-width="5" stroke="rgb(0,0,0)" />
	<path d="M483.029,1914 100,2297.03 100,1914 483.029,1914 z " fill-rule="evenodd" fill="rgb(255,0,0)" stroke-width="5" stroke="rgb(0,0,0)" />
	<path d="M100,1782.54 100,1602 280.544,1602 100,1782.54 z " fill-rule="evenodd" fill="rgb(255,0,0)" stroke-width="5" stroke="rgb(0,0,0)" />
	<path d="M491.515,1914 991.515,1914 591.515,2314 100,2314 100,2305.51 491.515,1914 z " fill-rule="evenodd" fill="rgb(255,0,0)" stroke-width="5" stroke="rgb(0,0,0)" />
	<path d="M2408.49,1508 2008.49,1908 1508.49,1908 1814.49,1602 2150,1602 2150,1508 2408.49,1508 z " fill-rule="evenodd" fill="rgb(255,0,0)" stroke-width="5" stroke="rgb(0,0,0)" />
	<path d="M2916.97,1502 2416.97,1502 2816.97,1102 3242.27,1102 3191.28,1227.69 2916.97,1502 z " fill-rule="evenodd" fill="rgb(255,0,0)" stroke-width="5" stroke="rgb(0,0,0)" />
	<path d="M3825.46,1096 3352.19,1096 3370.43,1051.02 3694.33,727.129 4049.94,871.518 3825.46,1096 z " fill-rule="evenodd" fill="rgb(255,0,0)" stroke-width="5" stroke="rgb(0,0,0)" />
	<path d="M2191.51,696 2150,737.515 2150,696 2191.51,696 z " fill-rule="evenodd" fill="rgb(255,0,0)" stroke-width="5" stroke="rgb(0,0,0)" />
	<path d="M2700,690 2200,690 2600,290 2618.45,290 2961.04,428.955 2700,690 z " fill-rule="evenodd" fill="rgb(255,0,0)" stroke-width="5" stroke="rgb(0,0,0)" />
	<path d="M3208.49,690 2708.49,690 2967.08,431.404 3322.8,575.682 3208.49,690 z " fill-rule="evenodd" fill="rgb(255,0,0)" stroke-width="5" stroke="rgb(0,0,0)" />
	<path d="M3216.97,690 3328.84,578.131 3437,622 3409.41,690 3216.97,690 z " fill-rule="evenodd" fill="rgb(255,0,0)" stroke-width="5" stroke="rgb(0,0,0)" />
	<path d="M3516.83,690 3529,660 3602.89,690 3516.83,690 z " fill-rule="evenodd" fill="rgb(255,0,0)" stroke-width="5" stroke="rgb(0,0,0)" />
	<path d="M591.515,2320 191.515,2720 100,2720 100,2320 591.515,2320 z " fill-rule="evenodd" fill="rgb(255,0,0)" stroke-width="5" stroke="rgb(0,0,0)" />
	<path d="M2925.46,1502 3185.49,1241.96 3080,1502 2950,1502 2925.46,1502 z " fill-rule="evenodd" fill="rgb(255,0,0)" stroke-width="5" stroke="rgb(0,0,0)" />
	<path d="M3825.46,1102 3425.46,1502 3187.55,1502 3349.76,1102 3825.46,1102 z " fill-rule="evenodd" fill="rgb(255,0,0)" stroke-width="5" stroke="rgb(0,0,0)" />
	<path d="M4333.94,1096 3833.94,1096 4055.97,873.969 4411.58,1018.36 4333.94,1096 z " fill-rule="evenodd" fill="rgb(255,0,0)" stroke-width="5" stroke="rgb(0,0,0)" />
	<path d="M2591.51,290 2191.51,690 2150,690 2150,290 2591.51,290 z " fill-rule="evenodd" fill="rgb(255,0,0)" stroke-width="5" stroke="rgb(0,0,0)" />
	<path d="M2600,284 2601.05,282.945 2603.66,284 2600,284 z " fill-rule="evenodd" fill="rgb(255,0,0)" stroke-width="5" stroke="rgb(0,0,0)" />
	<path d="M191.515,2726 100,2817.51 100,2726 191.515,2726 z " fill-rule="evenodd" fill="rgb(255,0,0)" stroke-width="5" stroke="rgb(0,0,0)" />
	<path d="M200,2726 700,2726 474,2952 100,2952 100,2826 200,2726 z " fill-rule="evenodd" fill="rgb(255,0,0)" stroke-width="5" stroke="rgb(0,0,0)" />
	<path d="M3425.46,1508 3025.46,1908 2525.46,1908 2925.46,1508 2950,1508 2950,1602 3147,1602 3185.12,1508 3425.46,1508 z " fill-rule="evenodd" fill="rgb(255,0,0)" stroke-width="5" stroke="rgb(0,0,0)" />
	<path d="M4342.43,1096 4417.62,1020.81 4602.8,1096 4342.43,1096 z " fill-rule="evenodd" fill="rgb(255,0,0)" stroke-width="5" stroke="rgb(0,0,0)" />
	<path d="M2591.51,284 2150,284 2150,225.515 2239.3,136.218 2595.02,280.497 2591.51,284 z " fill-rule="evenodd" fill="rgb(255,0,0)" stroke-width="5" stroke="rgb(0,0,0)" />
	<path d="M100,3332 100,3152 280,3152 100,3332 z " fill-rule="evenodd" fill="rgb(255,0,0)" stroke-width="5" stroke="rgb(0,0,0)" />
	<path d="M708.485,2726 1208.49,2726 982.485,2952 482.485,2952 708.485,2726 z " fill-rule="evenodd" fill="rgb(255,0,0)" stroke-width="5" stroke="rgb(0,0,0)" />
	<path d="M4442.43,1502 3942.43,1502 4342.43,1102 4617.58,1102 4777.49,1166.93 4442.43,1502 z " fill-rule="evenodd" fill="rgb(255,0,0)" stroke-width="5" stroke="rgb(0,0,0)" />
	<path d="M2150,217.029 2150,100 2233.26,133.77 2150,217.029 z " fill-rule="evenodd" fill="rgb(255,0,0)" stroke-width="5" stroke="rgb(0,0,0)" />
	<path d="M408.485,3532 100,3532 100,3340.49 288.485,3152 788.485,3152 408.485,3532 z " fill-rule="evenodd" fill="rgb(255,0,0)" stroke-width="5" stroke="rgb(0,0,0)" />
	<path d="M1216.97,2726 1716.97,2726 1490.97,2952 990.971,2952 1216.97,2726 z " fill-rule="evenodd" fill="rgb(255,0,0)" stroke-width="5" stroke="rgb(0,0,0)" />
	<path d="M4950.91,1502 4450.91,1502 4783.53,1169.38 5139.14,1313.77 4950.91,1502 z " fill-rule="evenodd" fill="rgb(255,0,0)" stroke-width="5" stroke="rgb(0,0,0)" />
	<path d="M408.485,3538 100,3846.49 100,3538 408.485,3538 z " fill-rule="evenodd" fill="rgb(255,0,0)" stroke-width="5" stroke="rgb(0,0,0)" />
	<path d="M916.971,3532 416.971,3532 796.971,3152 1296.97,3152 916.971,3532 z " fill-rule="evenodd" fill="rgb(255,0,0)" stroke-width="5" stroke="rgb(0,0,0)" />
	<path d="M1725.46,2726 2225.46,2726 1999.46,2952 1499.46,2952 1725.46,2726 z " fill-rule="evenodd" fill="rgb(255,0,0)" stroke-width="5" stroke="rgb(0,0,0)" />
	<path d="M5459.4,1502 4959.4,1502 5145.17,1316.22 5500.78,1460.61 5459.4,1502 z " fill-rule="evenodd" fill="rgb(255,0,0)" stroke-width="5" stroke="rgb(0,0,0)" />
	<path d="M416.971,3538 916.971,3538 516.971,3938 100,3938 100,3854.97 416.971,3538 z " fill-rule="evenodd" fill="rgb(255,0,0)" stroke-width="5" stroke="rgb(0,0,0)" />
	<path d="M1425.46,3532 925.456,3532 1305.46,3152 1805.46,3152 1425.46,3532 z " fill-rule="evenodd" fill="rgb(255,0,0)" stroke-width="5" stroke="rgb(0,0,0)" />
	<path d="M2233.94,2726 2733.94,2726 2333.94,3126 2050,3126 2050,2952 2007.94,2952 2233.94,2726 z " fill-rule="evenodd" fill="rgb(255,0,0)" stroke-width="5" stroke="rgb(0,0,0)" />
	<path d="M5467.88,1502 5506.82,1463.06 5602.72,1502 5467.88,1502 z " fill-rule="evenodd" fill="rgb(255,0,0)" stroke-width="5" stroke="rgb(0,0,0)" />
	<path d="M516.971,3944 116.971,4344 100,4344 100,3944 516.971,3944 z " fill-rule="evenodd" fill="rgb(255,0,0)" stroke-width="5" stroke="rgb(0,0,0)" />
	<path d="M2333.94,3132 1933.94,3532 1433.94,3532 1813.94,3152 2050,3152 2050,3132 2333.94,3132 z " fill-rule="evenodd" fill="rgb(255,0,0)" stroke-width="5" stroke="rgb(0,0,0)" />
	<path d="M2842.43,3126 2342.43,3126 2742.43,2726 3242.43,2726 3016.43,2952 2850,2952 2850,3118.43 2842.43,3126 z " fill-rule="evenodd" fill="rgb(255,0,0)" stroke-width="5" stroke="rgb(0,0,0)" />
	<path d="M5567.88,1908 5067.88,1908 5467.88,1508 5617.49,1508 5866.7,1609.19 5567.88,1908 z " fill-rule="evenodd" fill="rgb(255,0,0)" stroke-width="5" stroke="rgb(0,0,0)" />
	<path d="M116.971,4350 100,4366.97 100,4350 116.971,4350 z " fill-rule="evenodd" fill="rgb(255,0,0)" stroke-width="5" stroke="rgb(0,0,0)" />
	<path d="M3250.91,2726 3750.91,2726 3524.91,2952 3024.91,2952 3250.91,2726 z " fill-rule="evenodd" fill="rgb(255,0,0)" stroke-width="5" stroke="rgb(0,0,0)" />
	<path d="M6076.37,1908 5576.37,1908 5872.73,1611.64 6228.34,1756.03 6076.37,1908 z " fill-rule="evenodd" fill="rgb(255,0,0)" stroke-width="5" stroke="rgb(0,0,0)" />
	<path d="M125.456,4350 625.456,4350 225.456,4750 100,4750 100,4375.46 125.456,4350 z " fill-rule="evenodd" fill="rgb(255,0,0)" stroke-width="5" stroke="rgb(0,0,0)" />
	<path d="M2450.91,3532 2850,3132.91 2850,3152 2900,3152 2900,3532 2450.91,3532 z " fill-rule="evenodd" fill="rgb(255,0,0)" stroke-width="5" stroke="rgb(0,0,0)" />
	<path d="M3859.4,3126 3700,3126 3700,3052 3933.4,3052 3859.4,3126 z " fill-rule="evenodd" fill="rgb(255,0,0)" stroke-width="5" stroke="rgb(0,0,0)" />
	<path d="M3759.4,2726 4259.4,2726 4033.4,2952 3533.4,2952 3759.4,2726 z " fill-rule="evenodd" fill="rgb(255,0,0)" stroke-width="5" stroke="rgb(0,0,0)" />
	<path d="M6584.85,1908 6084.85,1908 6234.38,1758.48 6589.99,1902.87 6584.85,1908 z " fill-rule="evenodd" fill="rgb(255,0,0)" stroke-width="5" stroke="rgb(0,0,0)" />
	<path d="M225.456,4756 100,4881.46 100,4756 225.456,4756 z " fill-rule="evenodd" fill="rgb(255,0,0)" stroke-width="5" stroke="rgb(0,0,0)" />
	<path d="M2550.91,3938 2050.91,3938 2450.91,3538 2900,3538 2900,3588.91 2550.91,3938 z " fill-rule="evenodd" fill="rgb(255,0,0)" stroke-width="5" stroke="rgb(0,0,0)" />
	<path d="M3859.4,3132 3700,3291.4 3700,3132 3859.4,3132 z " fill-rule="evenodd" fill="rgb(255,0,0)" stroke-width="5" stroke="rgb(0,0,0)" />
	<path d="M4267.88,2726 4767.88,2726 4367.88,3126 3867.88,3126 3941.88,3052 4200,3052 4200,2952 4041.88,2952 4267.88,2726 z " fill-rule="evenodd" fill="rgb(255,0,0)" stroke-width="5" stroke="rgb(0,0,0)" />
	<path d="M6593.34,1908 6596.02,1905.32 6602.63,1908 6593.34,1908 z " fill-rule="evenodd" fill="rgb(255,0,0)" stroke-width="5" stroke="rgb(0,0,0)" />
	<path d="M233.941,4756 733.941,4756 333.941,5156 100,5156 100,4889.94 233.941,4756 z " fill-rule="evenodd" fill="rgb(255,0,0)" stroke-width="5" stroke="rgb(0,0,0)" />
	<path d="M2559.4,3938 2900,3597.4 2900,3938 2559.4,3938 z " fill-rule="evenodd" fill="rgb(255,0,0)" stroke-width="5" stroke="rgb(0,0,0)" />
	<path d="M3867.88,3132 4367.88,3132 3967.88,3532 3700,3532 3700,3299.88 3867.88,3132 z " fill-rule="evenodd" fill="rgb(255,0,0)" stroke-width="5" stroke="rgb(0,0,0)" />
	<path d="M4876.37,3126 4376.37,3126 4776.37,2726 5276.37,2726 5050,2952.37 5050,2952 4900,2952 4900,3052 4950,3052 4950,3052.37 4876.37,3126 z " fill-rule="evenodd" fill="rgb(255,0,0)" stroke-width="5" stroke="rgb(0,0,0)" />
	<path d="M6693.34,2314 6193.34,2314 6593.34,1914 6617.41,1914 6955.9,2051.44 6693.34,2314 z " fill-rule="evenodd" fill="rgb(255,0,0)" stroke-width="5" stroke="rgb(0,0,0)" />
	<path d="M333.941,5162 100,5395.94 100,5162 333.941,5162 z " fill-rule="evenodd" fill="rgb(255,0,0)" stroke-width="5" stroke="rgb(0,0,0)" />
	<path d="M2659.4,4344 2159.4,4344 2559.4,3944 2900,3944 2900,4103.4 2659.4,4344 z " fill-rule="evenodd" fill="rgb(255,0,0)" stroke-width="5" stroke="rgb(0,0,0)" />
	<path d="M3967.88,3538 3700,3805.88 3700,3538 3967.88,3538 z " fill-rule="evenodd" fill="rgb(255,0,0)" stroke-width="5" stroke="rgb(0,0,0)" />
	<path d="M4884.85,3126 4950,3060.85 4950,3126 4884.85,3126 z " fill-rule="evenodd" fill="rgb(255,0,0)" stroke-width="5" stroke="rgb(0,0,0)" />
	<path d="M5284.85,2726 5784.85,2726 5384.85,3126 5050,3126 5050,2960.85 5284.85,2726 z " fill-rule="evenodd" fill="rgb(255,0,0)" stroke-width="5" stroke="rgb(0,0,0)" />
	<path d="M7201.82,2314 6701.82,2314 6961.93,2053.89 7317.54,2198.28 7201.82,2314 z " fill-rule="evenodd" fill="rgb(255,0,0)" stroke-width="5" stroke="rgb(0,0,0)" />
	<path d="M342.426,5162 842.426,5162 442.426,5562 100,5562 100,5404.43 342.426,5162 z " fill-rule="evenodd" fill="rgb(255,0,0)" stroke-width="5" stroke="rgb(0,0,0)" />
	<path d="M2667.88,4344 2900,4111.88 2900,4344 2667.88,4344 z " fill-rule="evenodd" fill="rgb(255,0,0)" stroke-width="5" stroke="rgb(0,0,0)" />
	<path d="M3976.37,3538 4476.37,3538 4076.37,3938 3700,3938 3700,3814.37 3976.37,3538 z " fill-rule="evenodd" fill="rgb(255,0,0)" stroke-width="5" stroke="rgb(0,0,0)" />
	<path d="M4484.85,3532 4884.85,3132 4950,3132 4950,3532 4484.85,3532 z " fill-rule="evenodd" fill="rgb(255,0,0)" stroke-width="5" stroke="rgb(0,0,0)" />
	<path d="M5384.85,3132 5050,3466.85 5050,3132 5384.85,3132 z " fill-rule="evenodd" fill="rgb(255,0,0)" stroke-width="5" stroke="rgb(0,0,0)" />
	<path d="M7210.31,2314 7323.58,2200.73 7602.55,2314 7210.31,2314 z " fill-rule="evenodd" fill="rgb(255,0,0)" stroke-width="5" stroke="rgb(0,0,0)" />
	<path d="M442.426,5568 100,5910.43 100,5568 442.426,5568 z " fill-rule="evenodd" fill="rgb(255,0,0)" stroke-width="5" stroke="rgb(0,0,0)" />
	<path d="M2767.88,4750 2267.88,4750 2667.88,4350 2900,4350 2900,4617.88 2767.88,4750 z " fill-rule="evenodd" fill="rgb(255,0,0)" stroke-width="5" stroke="rgb(0,0,0)" />
	<path d="M4076.37,3944 3700,4320.37 3700,3944 4076.37,3944 z " fill-rule="evenodd" fill="rgb(255,0,0)" stroke-width="5" stroke="rgb(0,0,0)" />
	<path d="M4584.85,3938 4084.85,3938 4484.85,3538 4950,3538 4950,3572.85 4584.85,3938 z " fill-rule="evenodd" fill="rgb(255,0,0)" stroke-width="5" stroke="rgb(0,0,0)" />
	<path d="M5393.34,3132 5893.34,3132 5493.34,3532 5050,3532 5050,3475.34 5393.34,3132 z " fill-rule="evenodd" fill="rgb(255,0,0)" stroke-width="5" stroke="rgb(0,0,0)" />
	<path d="M7310.31,2720 6810.31,2720 7210.31,2320 7617.32,2320 7683.46,2346.85 7310.31,2720 z " fill-rule="evenodd" fill="rgb(255,0,0)" stroke-width="5" stroke="rgb(0,0,0)" />
	<path d="M450.912,5568 950.912,5568 550.912,5968 100,5968 100,5918.91 450.912,5568 z " fill-rule="evenodd" fill="rgb(255,0,0)" stroke-width="5" stroke="rgb(0,0,0)" />
	<path d="M2776.37,4750 2900,4626.37 2900,4750 2776.37,4750 z " fill-rule="evenodd" fill="rgb(255,0,0)" stroke-width="5" stroke="rgb(0,0,0)" />
	<path d="M4084.85,3944 4584.85,3944 4184.85,4344 3700,4344 3700,4328.85 4084.85,3944 z " fill-rule="evenodd" fill="rgb(255,0,0)" stroke-width="5" stroke="rgb(0,0,0)" />
	<path d="M4593.34,3938 4950,3581.34 4950,3938 4593.34,3938 z " fill-rule="evenodd" fill="rgb(255,0,0)" stroke-width="5" stroke="rgb(0,0,0)" />
	<path d="M5493.34,3538 5093.34,3938 5050,3938 5050,3538 5493.34,3538 z " fill-rule="evenodd" fill="rgb(255,0,0)" stroke-width="5" stroke="rgb(0,0,0)" />
	<path d="M7818.79,2720 7318.79,2720 7689.49,2349.3 8045.1,2493.69 7818.79,2720 z " fill-rule="evenodd" fill="rgb(255,0,0)" stroke-width="5" stroke="rgb(0,0,0)" />
	<path d="M550.912,5974 150.912,6374 100,6374 100,5974 550.912,5974 z " fill-rule="evenodd" fill="rgb(255,0,0)" stroke-width="5" stroke="rgb(0,0,0)" />
	<path d="M2876.37,5156 2376.37,5156 2776.37,4756 2900,4756 2900,5132.37 2876.37,5156 z " fill-rule="evenodd" fill="rgb(255,0,0)" stroke-width="5" stroke="rgb(0,0,0)" />
	<path d="M4184.85,4350 3784.85,4750 3700,4750 3700,4350 4184.85,4350 z " fill-rule="evenodd" fill="rgb(255,0,0)" stroke-width="5" stroke="rgb(0,0,0)" />
	<path d="M4693.34,4344 4193.34,4344 4593.34,3944 4950,3944 4950,4087.34 4693.34,4344 z " fill-rule="evenodd" fill="rgb(255,0,0)" stroke-width="5" stroke="rgb(0,0,0)" />
	<path d="M5093.34,3944 5050,3987.34 5050,3944 5093.34,3944 z " fill-rule="evenodd" fill="rgb(255,0,0)" stroke-width="5" stroke="rgb(0,0,0)" />
	<path d="M8327.28,2720 7827.28,2720 8051.14,2496.14 8406.75,2640.53 8327.28,2720 z " fill-rule="evenodd" fill="rgb(255,0,0)" stroke-width="5" stroke="rgb(0,0,0)" />
	<path d="M150.912,6380 100,6430.91 100,6380 150.912,6380 z " fill-rule="evenodd" fill="rgb(255,0,0)" stroke-width="5" stroke="rgb(0,0,0)" />
	<path d="M2884.85,5156 2900,5140.85 2900,5156 2884.85,5156 z " fill-rule="evenodd" fill="rgb(255,0,0)" stroke-width="5" stroke="rgb(0,0,0)" />
	<path d="M3784.85,4756 3700,4840.85 3700,4756 3784.85,4756 z " fill-rule="evenodd" fill="rgb(255,0,0)" stroke-width="5" stroke="rgb(0,0,0)" />
	<path d="M4701.82,4344 4950,4095.82 4950,4344 4701.82,4344 z " fill-rule="evenodd" fill="rgb(255,0,0)" stroke-width="5" stroke="rgb(0,0,0)" />
	<path d="M5101.82,3944 5601.82,3944 5201.82,4344 5050,4344 5050,3995.82 5101.82,3944 z " fill-rule="evenodd" fill="rgb(255,0,0)" stroke-width="5" stroke="rgb(0,0,0)" />
	<path d="M8335.76,2720 8412.78,2642.98 8600,2719 8600,2720 8335.76,2720 z " fill-rule="evenodd" fill="rgb(255,0,0)" stroke-width="5" stroke="rgb(0,0,0)" />
	<path d="M159.397,6380 659.397,6380 259.397,6780 100,6780 100,6439.4 159.397,6380 z " fill-rule="evenodd" fill="rgb(255,0,0)" stroke-width="5" stroke="rgb(0,0,0)" />
	<path d="M2484.85,5562 2884.85,5162 2900,5162 2900,5562 2484.85,5562 z " fill-rule="evenodd" fill="rgb(255,0,0)" stroke-width="5" stroke="rgb(0,0,0)" />
	<path d="M3793.34,4756 4293.34,4756 4097.34,4952 3700,4952 3700,4849.34 3793.34,4756 z " fill-rule="evenodd" fill="rgb(255,0,0)" stroke-width="5" stroke="rgb(0,0,0)" />
	<path d="M4801.82,4750 4301.82,4750 4701.82,4350 4950,4350 4950,4601.82 4801.82,4750 z " fill-rule="evenodd" fill="rgb(255,0,0)" stroke-width="5" stroke="rgb(0,0,0)" />
	<path d="M5201.82,4350 5050,4501.82 5050,4350 5201.82,4350 z " fill-rule="evenodd" fill="rgb(255,0,0)" stroke-width="5" stroke="rgb(0,0,0)" />
	<path d="M8435.76,3126 7935.76,3126 8335.76,2726 8600,2726 8600,2961.76 8435.76,3126 z " fill-rule="evenodd" fill="rgb(255,0,0)" stroke-width="5" stroke="rgb(0,0,0)" />
	<path d="M259.397,6786 100,6945.4 100,6786 259.397,6786 z " fill-rule="evenodd" fill="rgb(255,0,0)" stroke-width="5" stroke="rgb(0,0,0)" />
	<path d="M2584.85,5968 2084.85,5968 2484.85,5568 2900,5568 2900,5652.85 2584.85,5968 z " fill-rule="evenodd" fill="rgb(255,0,0)" stroke-width="5" stroke="rgb(0,0,0)" />
	<path d="M4301.82,4756 4801.82,4756 4605.82,4952 4105.82,4952 4301.82,4756 z " fill-rule="evenodd" fill="rgb(255,0,0)" stroke-width="5" stroke="rgb(0,0,0)" />
	<path d="M4810.31,4750 4950,4610.31 4950,4750 4810.31,4750 z " fill-rule="evenodd" fill="rgb(255,0,0)" stroke-width="5" stroke="rgb(0,0,0)" />
	<path d="M5210.31,4350 5710.31,4350 5310.31,4750 5050,4750 5050,4510.31 5210.31,4350 z " fill-rule="evenodd" fill="rgb(255,0,0)" stroke-width="5" stroke="rgb(0,0,0)" />
	<path d="M8444.25,3126 8600,2970.25 8600,3126 8444.25,3126 z " fill-rule="evenodd" fill="rgb(255,0,0)" stroke-width="5" stroke="rgb(0,0,0)" />
	<path d="M267.882,6786 767.882,6786 601.882,6952 101.882,6952 267.882,6786 z " fill-rule="evenodd" fill="rgb(255,0,0)" stroke-width="5" stroke="rgb(0,0,0)" />
	<path d="M2593.34,5968 2900,5661.34 2900,5968 2593.34,5968 z " fill-rule="evenodd" fill="rgb(255,0,0)" stroke-width="5" stroke="rgb(0,0,0)" />
	<path d="M5310.31,4756 5050,5016.31 5050,4756 5310.31,4756 z " fill-rule="evenodd" fill="rgb(255,0,0)" stroke-width="5" stroke="rgb(0,0,0)" />
	<path d="M4810.31,4756 4950,4756 4950,4952 4614.31,4952 4810.31,4756 z " fill-rule="evenodd" fill="rgb(255,0,0)" stroke-width="5" stroke="rgb(0,0,0)" />
	<path d="M8544.25,3532 8044.25,3532 8444.25,3132 8600,3132 8600,3476.25 8544.25,3532 z " fill-rule="evenodd" fill="rgb(255,0,0)" stroke-width="5" stroke="rgb(0,0,0)" />
	<path d="M776.368,6786 1276.37,6786 1110.37,6952 610.368,6952 776.368,6786 z " fill-rule="evenodd" fill="rgb(255,0,0)" stroke-width="5" stroke="rgb(0,0,0)" />
	<path d="M2693.34,6374 2193.34,6374 2593.34,5974 2900,5974 2900,6052 3015.34,6052 2693.34,6374 z " fill-rule="evenodd" fill="rgb(255,0,0)" stroke-width="5" stroke="rgb(0,0,0)" />
	<path d="M5318.79,4756 5818.79,4756 5418.79,5156 5050,5156 5050,5024.79 5318.79,4756 z " fill-rule="evenodd" fill="rgb(255,0,0)" stroke-width="5" stroke="rgb(0,0,0)" />
	<path d="M8552.74,3532 8600,3484.74 8600,3532 8552.74,3532 z " fill-rule="evenodd" fill="rgb(255,0,0)" stroke-width="5" stroke="rgb(0,0,0)" />
	<path d="M1284.85,6786 1784.85,6786 1618.85,6952 1118.85,6952 1284.85,6786 z " fill-rule="evenodd" fill="rgb(255,0,0)" stroke-width="5" stroke="rgb(0,0,0)" />
	<path d="M2701.82,6374 3023.82,6052 3100,6052 3100,6374 2701.82,6374 z " fill-rule="evenodd" fill="rgb(255,0,0)" stroke-width="5" stroke="rgb(0,0,0)" />
	<path d="M5418.79,5162 5050,5530.79 5050,5162 5418.79,5162 z " fill-rule="evenodd" fill="rgb(255,0,0)" stroke-width="5" stroke="rgb(0,0,0)" />
	<path d="M8152.74,3938 8552.74,3538 8600,3538 8600,3938 8152.74,3938 z " fill-rule="evenodd" fill="rgb(255,0,0)" stroke-width="5" stroke="rgb(0,0,0)" />
	<path d="M1793.34,6786 2293.34,6786 2127.34,6952 1627.34,6952 1793.34,6786 z " fill-rule="evenodd" fill="rgb(255,0,0)" stroke-width="5" stroke="rgb(0,0,0)" />
	<path d="M2801.82,6780 2301.82,6780 2701.82,6380 3100,6380 3100,6481.82 2801.82,6780 z " fill-rule="evenodd" fill="rgb(255,0,0)" stroke-width="5" stroke="rgb(0,0,0)" />
	<path d="M5427.28,5162 5927.28,5162 5537.28,5552 5050,5552 5050,5539.28 5427.28,5162 z " fill-rule="evenodd" fill="rgb(255,0,0)" stroke-width="5" stroke="rgb(0,0,0)" />
	<path d="M8252.74,4344 7752.74,4344 8152.74,3944 8600,3944 8600,3996.74 8252.74,4344 z " fill-rule="evenodd" fill="rgb(255,0,0)" stroke-width="5" stroke="rgb(0,0,0)" />
	<path d="M2301.82,6786 2801.82,6786 2635.82,6952 2135.82,6952 2301.82,6786 z " fill-rule="evenodd" fill="rgb(255,0,0)" stroke-width="5" stroke="rgb(0,0,0)" />
	<path d="M2810.31,6780 3100,6490.31 3100,6780 2810.31,6780 z " fill-rule="evenodd" fill="rgb(255,0,0)" stroke-width="5" stroke="rgb(0,0,0)" />
	<path d="M5935.76,5162 6435.76,5162 6045.76,5552 5545.76,5552 5935.76,5162 z " fill-rule="evenodd" fill="rgb(255,0,0)" stroke-width="5" stroke="rgb(0,0,0)" />
	<path d="M8261.22,4344 8600,4005.22 8600,4344 8261.22,4344 z " fill-rule="evenodd" fill="rgb(255,0,0)" stroke-width="5" stroke="rgb(0,0,0)" />
	<path d="M2810.31,6786 3100,6786 3100,6852 2900,6852 2900,6952 2644.31,6952 2810.31,6786 z " fill-rule="evenodd" fill="rgb(255,0,0)" stroke-width="5" stroke="rgb(0,0,0)" />
	<path d="M6444.25,5162 6944.25,5162 6554.25,5552 6054.25,5552 6444.25,5162 z " fill-rule="evenodd" fill="rgb(255,0,0)" stroke-width="5" stroke="rgb(0,0,0)" />
	<path d="M8361.22,4750 7861.22,4750 8261.22,4350 8600,4350 8600,4511.22 8361.22,4750 z " fill-rule="evenodd" fill="rgb(255,0,0)" stroke-width="5" stroke="rgb(0,0,0)" />
	<path d="M6952.74,5162 7452.74,5162 7062.74,5552 6562.74,5552 6952.74,5162 z " fill-rule="evenodd" fill="rgb(255,0,0)" stroke-width="5" stroke="rgb(0,0,0)" />
	<path d="M8369.71,4750 8600,4519.71 8600,4750 8369.71,4750 z " fill-rule="evenodd" fill="rgb(255,0,0)" stroke-width="5" stroke="rgb(0,0,0)" />
	<path d="M7461.22,5162 7961.22,5162 7571.22,5552 7071.22,5552 7461.22,5162 z " fill-rule="evenodd" fill="rgb(255,0,0)" stroke-width="5" stroke="rgb(0,0,0)" />
	<path d="M8469.71,5156 7969.71,5156 8369.71,4756 8600,4756 8600,5025.71 8469.71,5156 z " fill-rule="evenodd" fill="rgb(255,0,0)" stroke-width="5" stroke="rgb(0,0,0)" />
	<path d="M7969.71,5162 8469.71,5162 8079.71,5552 7579.71,5552 7969.71,5162 z " fill-rule="evenodd" fill="rgb(255,0,0)" stroke-width="5" stroke="rgb(0,0,0)" />
	<path d="M8478.19,5156 8600,5034.19 8600,5156 8478.19,5156 z " fill-rule="evenodd" fill="rgb(255,0,0)" stroke-width="5" stroke="rgb(0,0,0)" />
	<path d="M8588.19,5552 8088.19,5552 8478.19,5162 8600,5162 8600,5540.19 8588.19,5552 z " fill-rule="evenodd" fill="rgb(255,0,0)" stroke-width="5" stroke="rgb(0,0,0)" />
	<path d="M8600,5548.68 8600,5552 8596.68,5552 8600,5548.68 z " fill-rule="evenodd" fill="rgb(255,0,0)" stroke-width="5" stroke="rgb(0,0,0)" />
	<polyline points="1395,1507 1895,1507 1395,1507 1395,1007 1395,1507 " fill="none" stroke-width="100" stroke="rgb(0,0,0)" />
	<circle cx="1395" cy="1507" r="-8.33333" fill="rgb(0,0,0)" />
	<circle cx="1895" cy="1507" r="-8.33333" fill="rgb(0,0,0)" />
	<circle cx="1395" cy="1507" r="-8.33333" fill="rgb(0,0,0)" />
	<circle cx="1395" cy="1007" r="-8.33333" fill="rgb(0,0,0)" />
	<circle cx="1395" cy="1507" r="-8.33333" fill="rgb(0,0,0)" />
	<polyline points="1395,2057 1395,1507 845,1507 " fill="none" stroke-width="0.5" stroke="rgb(128,0,128)" />
</svg>
