<?xml version="1.0" standalone="no" ?>
<!DOCTYPE svg PUBLIC "-//W3C//DTD SVG 1.1//EN" "http://www.w3.org/Graphics/SVG/1.1/DTD/svg11.dtd">
<svg width="2350px" height="31340px" xmlns="http://www.w3.org/2000/svg" version="1.1" >
	<path d="M100,31240 600,31240 1000,30840 500,30840 z " fill-rule="evenodd" fill="rgb(255,255,255)" stroke-width="10" stroke="rgb(0,0,0)" />
	<path d="M100,30800 600,30800 1000,30400 500,30400 z " fill-rule="evenodd" fill="rgb(255,255,255)" stroke-width="10" stroke="rgb(0,0,0)" />
	<path d="M100,30360 600,30360 1000,29960 500,29960 z " fill-rule="evenodd" fill="rgb(255,255,255)" stroke-width="10" stroke="rgb(0,0,0)" />
	<path d="M100,29920 600,29920 1000,29520 500,29520 z " fill-rule="evenodd" fill="rgb(255,255,255)" stroke-width="10" stroke="rgb(0,0,0)" />
	<path d="M100,29480 600,29480 1000,29080 500,29080 z " fill-rule="evenodd" fill="rgb(255,255,255)" stroke-width="10" stroke="rgb(0,0,0)" />
	<path d="M100,29040 600,29040 1000,28640 500,28640 z " fill-rule="evenodd" fill="rgb(255,255,255)" stroke-width="10" stroke="rgb(0,0,0)" />
	<path d="M100,28600 600,28600 1000,28200 500,28200 z " fill-rule="evenodd" fill="rgb(255,255,255)" stroke-width="10" stroke="rgb(0,0,0)" />
	<path d="M100,28160 600,28160 1000,27760 500,27760 z " fill-rule="evenodd" fill="rgb(255,255,255)" stroke-width="10" stroke="rgb(0,0,0)" />
	<path d="M100,27720 600,27720 1000,27320 500,27320 z " fill-rule="evenodd" fill="rgb(255,255,255)" stroke-width="10" stroke="rgb(0,0,0)" />
	<path d="M100,27280 600,27280 1000,26880 500,26880 z " fill-rule="evenodd" fill="rgb(255,255,255)" stroke-width="10" stroke="rgb(0,0,0)" />
	<path d="M100,26840 600,26840 1000,26440 500,26440 z " fill-rule="evenodd" fill="rgb(255,255,255)" stroke-width="10" stroke="rgb(0,0,0)" />
	<path d="M100,26400 600,26400 1000,26000 500,26000 z " fill-rule="evenodd" fill="rgb(255,255,255)" stroke-width="10" stroke="rgb(0,0,0)" />
	<path d="M100,25960 600,25960 1000,25560 500,25560 z " fill-rule="evenodd" fill="rgb(255,255,255)" stroke-width="10" stroke="rgb(0,0,0)" />
	<path d="M100,25520 600,25520 1000,25120 500,25120 z " fill-rule="evenodd" fill="rgb(255,255,255)" stroke-width="10" stroke="rgb(0,0,0)" />
	<path d="M100,25080 600,25080 1000,24680 500,24680 z " fill-rule="evenodd" fill="rgb(255,255,255)" stroke-width="10" stroke="rgb(0,0,0)" />
	<path d="M100,24640 600,24640 1000,24240 500,24240 z " fill-rule="evenodd" fill="rgb(255,255,255)" stroke-width="10" stroke="rgb(0,0,0)" />
	<path d="M100,24200 600,24200 1000,23800 500,23800 z " fill-rule="evenodd" fill="rgb(255,255,255)" stroke-width="10" stroke="rgb(0,0,0)" />
	<path d="M100,23760 600,23760 1000,23360 500,23360 z " fill-rule="evenodd" fill="rgb(255,255,255)" stroke-width="10" stroke="rgb(0,0,0)" />
	<path d="M100,23320 600,23320 1000,22920 500,22920 z " fill-rule="evenodd" fill="rgb(255,255,255)" stroke-width="10" stroke="rgb(0,0,0)" />
	<path d="M100,22880 600,22880 1000,22480 500,22480 z " fill-rule="evenodd" fill="rgb(255,255,255)" stroke-width="10" stroke="rgb(0,0,0)" />
	<path d="M100,22440 600,22440 1000,22040 500,22040 z " fill-rule="evenodd" fill="rgb(255,255,255)" stroke-width="10" stroke="rgb(0,0,0)" />
	<path d="M100,22000 600,22000 1000,21600 500,21600 z " fill-rule="evenodd" fill="rgb(255,255,255)" stroke-width="10" stroke="rgb(0,0,0)" />
	<path d="M100,21560 600,21560 1000,21160 500,21160 z " fill-rule="evenodd" fill="rgb(255,255,255)" stroke-width="10" stroke="rgb(0,0,0)" />
	<path d="M100,21120 600,21120 1000,20720 500,20720 z " fill-rule="evenodd" fill="rgb(255,255,255)" stroke-width="10" stroke="rgb(0,0,0)" />
	<path d="M100,20680 600,20680 1000,20280 500,20280 z " fill-rule="evenodd" fill="rgb(255,255,255)" stroke-width="10" stroke="rgb(0,0,0)" />
	<path d="M100,20240 600,20240 1000,19840 500,19840 z " fill-rule="evenodd" fill="rgb(255,255,255)" stroke-width="10" stroke="rgb(0,0,0)" />
	<path d="M100,19800 600,19800 1000,19400 500,19400 z " fill-rule="evenodd" fill="rgb(255,255,255)" stroke-width="10" stroke="rgb(0,0,0)" />
	<path d="M100,19360 600,19360 1000,18960 500,18960 z " fill-rule="evenodd" fill="rgb(255,255,255)" stroke-width="10" stroke="rgb(0,0,0)" />
	<path d="M100,18920 600,18920 1000,18520 500,18520 z " fill-rule="evenodd" fill="rgb(255,255,255)" stroke-width="10" stroke="rgb(0,0,0)" />
	<path d="M100,18480 600,18480 1000,18080 500,18080 z " fill-rule="evenodd" fill="rgb(255,255,255)" stroke-width="10" stroke="rgb(0,0,0)" />
	<path d="M100,18040 600,18040 1000,17640 500,17640 z " fill-rule="evenodd" fill="rgb(255,255,255)" stroke-width="10" stroke="rgb(0,0,0)" />
	<path d="M100,17600 600,17600 1000,17200 500,17200 z " fill-rule="evenodd" fill="rgb(255,255,255)" stroke-width="10" stroke="rgb(0,0,0)" />
	<path d="M100,17160 600,17160 1000,16760 500,16760 z " fill-rule="evenodd" fill="rgb(255,255,255)" stroke-width="10" stroke="rgb(0,0,0)" />
	<path d="M100,16720 600,16720 1000,16320 500,16320 z " fill-rule="evenodd" fill="rgb(255,255,255)" stroke-width="10" stroke="rgb(0,0,0)" />
	<path d="M100,16280 600,16280 1000,15880 500,15880 z " fill-rule="evenodd" fill="rgb(255,255,255)" stroke-width="10" stroke="rgb(0,0,0)" />
	<path d="M100,15840 600,15840 1000,15440 500,15440 z " fill-rule="evenodd" fill="rgb(255,255,255)" stroke-width="10" stroke="rgb(0,0,0)" />
	<path d="M100,15400 600,15400 1000,15000 500,15000 z " fill-rule="evenodd" fill="rgb(255,255,255)" stroke-width="10" stroke="rgb(0,0,0)" />
	<path d="M100,14960 600,14960 1000,14560 500,14560 z " fill-rule="evenodd" fill="rgb(255,255,255)" stroke-width="10" stroke="rgb(0,0,0)" />
	<path d="M100,14520 600,14520 1000,14120 500,14120 z " fill-rule="evenodd" fill="rgb(255,255,255)" stroke-width="10" stroke="rgb(0,0,0)" />
	<path d="M100,14080 600,14080 1000,13680 500,13680 z " fill-rule="evenodd" fill="rgb(255,255,255)" stroke-width="10" stroke="rgb(0,0,0)" />
	<path d="M100,13640 600,13640 1000,13240 500,13240 z " fill-rule="evenodd" fill="rgb(255,255,255)" stroke-width="10" stroke="rgb(0,0,0)" />
	<path d="M100,13200 600,13200 1000,12800 500,12800 z " fill-rule="evenodd" fill="rgb(255,255,255)" stroke-width="10" stroke="rgb(0,0,0)" />
	<path d="M100,12760 600,12760 1000,12360 500,12360 z " fill-rule="evenodd" fill="rgb(255,255,255)" stroke-width="10" stroke="rgb(0,0,0)" />
	<path d="M100,12320 600,12320 1000,11920 500,11920 z " fill-rule="evenodd" fill="rgb(255,255,255)" stroke-width="10" stroke="rgb(0,0,0)" />
	<path d="M100,11880 600,11880 1000,11480 500,11480 z " fill-rule="evenodd" fill="rgb(255,255,255)" stroke-width="10" stroke="rgb(0,0,0)" />
	<path d="M100,11440 600,11440 1000,11040 500,11040 z " fill-rule="evenodd" fill="rgb(255,255,255)" stroke-width="10" stroke="rgb(0,0,0)" />
	<path d="M100,11000 600,11000 1000,10600 500,10600 z " fill-rule="evenodd" fill="rgb(255,255,255)" stroke-width="10" stroke="rgb(0,0,0)" />
	<path d="M100,10560 600,10560 1000,10160 500,10160 z " fill-rule="evenodd" fill="rgb(255,255,255)" stroke-width="10" stroke="rgb(0,0,0)" />
	<path d="M100,10120 600,10120 1000,9720 500,9720 z " fill-rule="evenodd" fill="rgb(255,255,255)" stroke-width="10" stroke="rgb(0,0,0)" />
	<path d="M100,9680 600,9680 1000,9280 500,9280 z " fill-rule="evenodd" fill="rgb(255,255,255)" stroke-width="10" stroke="rgb(0,0,0)" />
	<path d="M100,9240 600,9240 1000,8840 500,8840 z " fill-rule="evenodd" fill="rgb(255,255,255)" stroke-width="10" stroke="rgb(0,0,0)" />
	<path d="M100,8800 600,8800 1000,8400 500,8400 z " fill-rule="evenodd" fill="rgb(255,255,255)" stroke-width="10" stroke="rgb(0,0,0)" />
	<path d="M100,8360 600,8360 1000,7960 500,7960 z " fill-rule="evenodd" fill="rgb(255,255,255)" stroke-width="10" stroke="rgb(0,0,0)" />
	<path d="M100,7920 600,7920 1000,7520 500,7520 z " fill-rule="evenodd" fill="rgb(255,255,255)" stroke-width="10" stroke="rgb(0,0,0)" />
	<path d="M100,7480 600,7480 1000,7080 500,7080 z " fill-rule="evenodd" fill="rgb(255,255,255)" stroke-width="10" stroke="rgb(0,0,0)" />
	<path d="M100,7040 600,7040 1000,6640 500,6640 z " fill-rule="evenodd" fill="rgb(255,255,255)" stroke-width="10" stroke="rgb(0,0,0)" />
	<path d="M100,6600 600,6600 1000,6200 500,6200 z " fill-rule="evenodd" fill="rgb(255,255,255)" stroke-width="10" stroke="rgb(0,0,0)" />
	<path d="M100,6160 600,6160 1000,5760 500,5760 z " fill-rule="evenodd" fill="rgb(255,255,255)" stroke-width="10" stroke="rgb(0,0,0)" />
	<path d="M100,5720 600,5720 1000,5320 500,5320 z " fill-rule="evenodd" fill="rgb(255,255,255)" stroke-width="10" stroke="rgb(0,0,0)" />
	<path d="M100,5280 600,5280 1000,4880 500,4880 z " fill-rule="evenodd" fill="rgb(255,255,255)" stroke-width="10" stroke="rgb(0,0,0)" />
	<path d="M100,4840 600,4840 1000,4440 500,4440 z " fill-rule="evenodd" fill="rgb(255,255,255)" stroke-width="10" stroke="rgb(0,0,0)" />
	<path d="M100,4400 600,4400 1000,4000 500,4000 z " fill-rule="evenodd" fill="rgb(255,255,255)" stroke-width="10" stroke="rgb(0,0,0)" />
	<path d="M100,3960 600,3960 1000,3560 500,3560 z " fill-rule="evenodd" fill="rgb(255,255,255)" stroke-width="10" stroke="rgb(0,0,0)" />
	<path d="M100,3520 600,3520 1000,3120 500,3120 z " fill-rule="evenodd" fill="rgb(255,255,255)" stroke-width="10" stroke="rgb(0,0,0)" />
	<path d="M100,3080 600,3080 1000,2680 500,2680 z " fill-rule="evenodd" fill="rgb(255,255,255)" stroke-width="10" stroke="rgb(0,0,0)" />
	<path d="M100,2640 600,2640 1000,2240 500,2240 z " fill-rule="evenodd" fill="rgb(255,255,255)" stroke-width="10" stroke="rgb(0,0,0)" />
	<path d="M100,2200 600,2200 1000,1800 500,1800 z " fill-rule="evenodd" fill="rgb(255,255,255)" stroke-width="10" stroke="rgb(0,0,0)" />
	<path d="M100,1760 600,1760 1000,1360 500,1360 z " fill-rule="evenodd" fill="rgb(255,255,255)" stroke-width="10" stroke="rgb(0,0,0)" />
	<path d="M100,1320 600,1320 1000,920 500,920 z " fill-rule="evenodd" fill="rgb(255,255,255)" stroke-width="10" stroke="rgb(0,0,0)" />
	<path d="M100,880 600,880 1000,480 500,480 z " fill-rule="evenodd" fill="rgb(255,255,255)" stroke-width="10" stroke="rgb(0,0,0)" />
	<path d="M100,440 600,440 1000,40 500,40 z " fill-rule="evenodd" fill="rgb(255,255,255)" stroke-width="10" stroke="rgb(0,0,0)" />
	<path d="M600,22440 100,22440 500,22040 766.971,22040 766.971,22273 600,22440 z " fill-rule="evenodd" fill="rgb(255,0,0)" stroke-width="10" stroke="rgb(0,0,0)" />
	<path d="M124.544,22000 283.029,21841.5 283.029,22000 124.544,22000 z " fill-rule="evenodd" fill="rgb(255,0,0)" stroke-width="10" stroke="rgb(0,0,0)" />
	<path d="M868.176,30971.8 774.176,31065.8 368.176,31065.8 368.176,30971.8 868.176,30971.8 z " fill-rule="evenodd" fill="rgb(255,0,0)" stroke-width="10" stroke="rgb(0,0,0)" />
	<path d="M600,30800 100,30800 500,30400 891.515,30400 891.515,30508.5 600,30800 z " fill-rule="evenodd" fill="rgb(255,0,0)" stroke-width="10" stroke="rgb(0,0,0)" />
	<path d="M108.485,30360 500,29968.5 500,30360 108.485,30360 z " fill-rule="evenodd" fill="rgb(255,0,0)" stroke-width="10" stroke="rgb(0,0,0)" />
	<path d="M500,21160 1000,21160 600,21560 484.771,21560 211.114,21448.9 500,21160 z " fill-rule="evenodd" fill="rgb(255,0,0)" stroke-width="10" stroke="rgb(0,0,0)" />
	<path d="M100,21120 500,20720 511.382,20720 349.173,21120 100,21120 z " fill-rule="evenodd" fill="rgb(255,0,0)" stroke-width="10" stroke="rgb(0,0,0)" />
	<path d="M892.563,20720 492.563,21120 349.173,21120 511.446,20720 892.563,20720 z " fill-rule="evenodd" fill="rgb(255,0,0)" stroke-width="10" stroke="rgb(0,0,0)" />
	<path d="M368.453,30971.8 391.691,30948.6 382.267,30971.8 368.453,30971.8 z " fill-rule="evenodd" fill="rgb(255,0,0)" stroke-width="10" stroke="rgb(0,0,0)" />
	<path d="M500,20280 1000,20280 600,20680 221.317,20680 304.128,20475.9 406,20374 475.456,20374 475.456,20304.5 500,20280 z " fill-rule="evenodd" fill="rgb(255,0,0)" stroke-width="10" stroke="rgb(0,0,0)" />
	<path d="M600,20240 100,20240 500,19840 658.485,19840 658.485,20181.5 600,20240 z " fill-rule="evenodd" fill="rgb(255,0,0)" stroke-width="10" stroke="rgb(0,0,0)" />
	<path d="M443.338,976.662 493.338,926.662 493.338,976.662 443.338,976.662 z " fill-rule="evenodd" fill="rgb(255,0,0)" stroke-width="10" stroke="rgb(0,0,0)" />
	<path d="M490,2250 681.515,2250 681.515,2344 396,2344 490,2250 z " fill-rule="evenodd" fill="rgb(255,0,0)" stroke-width="10" stroke="rgb(0,0,0)" />
	<path d="M100,440 383.029,156.971 383.029,440 100,440 z " fill-rule="evenodd" fill="rgb(255,0,0)" stroke-width="10" stroke="rgb(0,0,0)" />
	<path d="M500,29960 1000,29960 600,30360 500,30360 500,29960 500,29960 z " fill-rule="evenodd" fill="rgb(255,0,0)" stroke-width="10" stroke="rgb(0,0,0)" />
	<path d="M990.143,29520 961.135,29549 889.691,29520 990.143,29520 z " fill-rule="evenodd" fill="rgb(255,0,0)" stroke-width="10" stroke="rgb(0,0,0)" />
	<path d="M492.228,29087.8 992.228,29087.8 705.792,29374.2 350.182,29229.8 492.228,29087.8 z " fill-rule="evenodd" fill="rgb(255,0,0)" stroke-width="10" stroke="rgb(0,0,0)" />
	<path d="M600,19800 100,19800 500,19400 784.508,19400 637.512,19762.5 600,19800 z " fill-rule="evenodd" fill="rgb(255,0,0)" stroke-width="10" stroke="rgb(0,0,0)" />
	<path d="M906.662,19047.6 942.197,18960 994.256,18960 906.662,19047.6 z " fill-rule="evenodd" fill="rgb(255,0,0)" stroke-width="10" stroke="rgb(0,0,0)" />
	<path d="M509.397,960.603 493.338,976.662 493.338,960.603 509.397,960.603 z " fill-rule="evenodd" fill="rgb(255,0,0)" stroke-width="10" stroke="rgb(0,0,0)" />
	<path d="M930.456,263.704 754.16,440 718.912,425.704 784.632,263.704 930.456,263.704 z " fill-rule="evenodd" fill="rgb(255,0,0)" stroke-width="10" stroke="rgb(0,0,0)" />
	<path d="M497.199,28751.7 743.939,28751.7 693.655,28875.7 465.74,28783.2 497.199,28751.7 z " fill-rule="evenodd" fill="rgb(255,0,0)" stroke-width="10" stroke="rgb(0,0,0)" />
	<path d="M490.954,28209 990.954,28209 667.93,28532.1 312.209,28387.8 490.954,28209 z " fill-rule="evenodd" fill="rgb(255,0,0)" stroke-width="10" stroke="rgb(0,0,0)" />
	<path d="M500,18520 1000,18520 600,18920 358.278,18920 174.528,18845.5 500,18520 z " fill-rule="evenodd" fill="rgb(255,0,0)" stroke-width="10" stroke="rgb(0,0,0)" />
	<path d="M100,18480 500,18080 550,18080 550,18480 100,18480 z " fill-rule="evenodd" fill="rgb(255,0,0)" stroke-width="10" stroke="rgb(0,0,0)" />
	<path d="M991.515,30400 891.515,30500 891.515,30400 991.515,30400 z " fill-rule="evenodd" fill="rgb(255,0,0)" stroke-width="10" stroke="rgb(0,0,0)" />
	<path d="M980.419,17643 840.824,17782.6 497.022,17643 980.419,17643 z " fill-rule="evenodd" fill="rgb(255,0,0)" stroke-width="10" stroke="rgb(0,0,0)" />
	<path d="M131.35,18920 196.832,18854.5 358.278,18920 131.35,18920 z " fill-rule="evenodd" fill="rgb(255,0,0)" stroke-width="10" stroke="rgb(0,0,0)" />
	<path d="M312.209,28387.8 667.93,28532.1 600,28600 150,28600 150,28550 312.209,28387.8 z " fill-rule="evenodd" fill="rgb(255,0,0)" stroke-width="10" stroke="rgb(0,0,0)" />
	<path d="M500.176,30839.8 1000.18,30839.8 868.176,30971.8 391.691,30971.8 391.691,30948.3 500.176,30839.8 z " fill-rule="evenodd" fill="rgb(255,0,0)" stroke-width="10" stroke="rgb(0,0,0)" />
	<path d="M577.324,812 785.809,812 785.809,880 509.324,880 577.324,812 z " fill-rule="evenodd" fill="rgb(255,0,0)" stroke-width="10" stroke="rgb(0,0,0)" />
	<path d="M500,5760 1000,5760 600,6160 101.826,6160 100.527,6159.47 500,5760 z " fill-rule="evenodd" fill="rgb(255,0,0)" stroke-width="10" stroke="rgb(0,0,0)" />
	<path d="M600,24640 100,24640 232,24508 732,24508 600,24640 z " fill-rule="evenodd" fill="rgb(255,0,0)" stroke-width="10" stroke="rgb(0,0,0)" />
	<path d="M456.262,28683.7 956.262,28683.7 888.262,28751.7 388.262,28751.7 456.262,28683.7 z " fill-rule="evenodd" fill="rgb(255,0,0)" stroke-width="10" stroke="rgb(0,0,0)" />
	<path d="M323.632,17380.5 323.632,17600 167.46,17536.7 323.632,17380.5 z " fill-rule="evenodd" fill="rgb(255,0,0)" stroke-width="10" stroke="rgb(0,0,0)" />
	<path d="M992.993,19400 784.508,19608.5 784.508,19400 992.993,19400 z " fill-rule="evenodd" fill="rgb(255,0,0)" stroke-width="10" stroke="rgb(0,0,0)" />
	<path d="M600,18040 100,18040 497.022,17643 852.632,17787.4 600,18040 z " fill-rule="evenodd" fill="rgb(255,0,0)" stroke-width="10" stroke="rgb(0,0,0)" />
	<path d="M732,24508 232,24508 364,24376 864,24376 732,24508 z " fill-rule="evenodd" fill="rgb(255,0,0)" stroke-width="10" stroke="rgb(0,0,0)" />
	<path d="M168,24132 668,24132 600,24200 100,24200 168,24132 z " fill-rule="evenodd" fill="rgb(255,0,0)" stroke-width="10" stroke="rgb(0,0,0)" />
	<path d="M500,21600 1000,21600 600,22000 283.029,22000 283.029,21817 500,21600 z " fill-rule="evenodd" fill="rgb(255,0,0)" stroke-width="10" stroke="rgb(0,0,0)" />
	<path d="M600,29480 100,29480 350.182,29229.8 705.792,29374.2 600,29480 z " fill-rule="evenodd" fill="rgb(255,0,0)" stroke-width="10" stroke="rgb(0,0,0)" />
	<path d="M600,31240 100,31240 283.941,31056.1 283.941,31108 732,31108 600,31240 z " fill-rule="evenodd" fill="rgb(255,0,0)" stroke-width="10" stroke="rgb(0,0,0)" />
	<path d="M432,24308 932,24308 864,24376 364,24376 432,24308 z " fill-rule="evenodd" fill="rgb(255,0,0)" stroke-width="10" stroke="rgb(0,0,0)" />
	<path d="M975.456,19840 658.485,20157 658.485,19840 975.456,19840 z " fill-rule="evenodd" fill="rgb(255,0,0)" stroke-width="10" stroke="rgb(0,0,0)" />
	<path d="M979.409,27760 876.067,27863.3 621.553,27760 979.409,27760 z " fill-rule="evenodd" fill="rgb(255,0,0)" stroke-width="10" stroke="rgb(0,0,0)" />
	<path d="M600,5720 100,5720 500,5320 1000,5320 932,5388 792.426,5388 792.426,5527.57 600,5720 z " fill-rule="evenodd" fill="rgb(255,0,0)" stroke-width="10" stroke="rgb(0,0,0)" />
	<path d="M600,17160 100,17160 500,16760 925.456,16760 925.456,16834.5 600,17160 z " fill-rule="evenodd" fill="rgb(255,0,0)" stroke-width="10" stroke="rgb(0,0,0)" />
	<path d="M500,16320 1000,16320 600,16720 227.367,16720 136.781,16683.2 500,16320 z " fill-rule="evenodd" fill="rgb(255,0,0)" stroke-width="10" stroke="rgb(0,0,0)" />
	<path d="M500,4880 1000,4880 600,5280 100,5280 232,5148 500.912,5148 500.912,4948 450.912,4948 450.912,4929.09 500,4880 z " fill-rule="evenodd" fill="rgb(255,0,0)" stroke-width="10" stroke="rgb(0,0,0)" />
	<path d="M975.456,18080 575.456,18480 550,18480 550,18080 975.456,18080 z " fill-rule="evenodd" fill="rgb(255,0,0)" stroke-width="10" stroke="rgb(0,0,0)" />
	<path d="M494.054,27325.9 994.054,27325.9 633.285,27686.7 277.675,27542.3 494.054,27325.9 z " fill-rule="evenodd" fill="rgb(255,0,0)" stroke-width="10" stroke="rgb(0,0,0)" />
	<path d="M668,24132 168,24132 300,24000 800,24000 668,24132 z " fill-rule="evenodd" fill="rgb(255,0,0)" stroke-width="10" stroke="rgb(0,0,0)" />
	<path d="M992.426,15880 951.823,15920.6 951.823,15880 992.426,15880 z " fill-rule="evenodd" fill="rgb(255,0,0)" stroke-width="10" stroke="rgb(0,0,0)" />
	<path d="M117.882,15840 143.338,15814.5 143.338,15840 117.882,15840 z " fill-rule="evenodd" fill="rgb(255,0,0)" stroke-width="10" stroke="rgb(0,0,0)" />
	<path d="M494.054,26885.9 994.054,26885.9 780.125,27099.9 424.515,26955.5 494.054,26885.9 z " fill-rule="evenodd" fill="rgb(255,0,0)" stroke-width="10" stroke="rgb(0,0,0)" />
	<path d="M800,24000 300,24000 432,23868 932,23868 800,24000 z " fill-rule="evenodd" fill="rgb(255,0,0)" stroke-width="10" stroke="rgb(0,0,0)" />
	<path d="M551.029,272 718.912,272 718.912,440 383.029,440 551.029,272 z " fill-rule="evenodd" fill="rgb(255,0,0)" stroke-width="10" stroke="rgb(0,0,0)" />
	<path d="M992.426,15000 592.426,15400 551.823,15400 551.823,15000 992.426,15000 z " fill-rule="evenodd" fill="rgb(255,0,0)" stroke-width="10" stroke="rgb(0,0,0)" />
	<path d="M600,14960 100,14960 500,14560 633.941,14560 633.941,14926.1 600,14960 z " fill-rule="evenodd" fill="rgb(255,0,0)" stroke-width="10" stroke="rgb(0,0,0)" />
	<path d="M979.409,14120 912.321,14187.1 747.093,14120 979.409,14120 z " fill-rule="evenodd" fill="rgb(255,0,0)" stroke-width="10" stroke="rgb(0,0,0)" />
	<path d="M600,4840 100,4840 500,4440 1000,4440 832,4608 676.368,4608 676.368,4708 732,4708 600,4840 z " fill-rule="evenodd" fill="rgb(255,0,0)" stroke-width="10" stroke="rgb(0,0,0)" />
	<path d="M101.823,14080 269.706,13912.1 269.706,14080 101.823,14080 z " fill-rule="evenodd" fill="rgb(255,0,0)" stroke-width="10" stroke="rgb(0,0,0)" />
	<path d="M500,26440 1000,26440 600,26840 159.397,26840 159.397,26780.6 500,26440 z " fill-rule="evenodd" fill="rgb(255,0,0)" stroke-width="10" stroke="rgb(0,0,0)" />
	<path d="M122.721,13640 256.662,13506.1 256.662,13640 122.721,13640 z " fill-rule="evenodd" fill="rgb(255,0,0)" stroke-width="10" stroke="rgb(0,0,0)" />
	<path d="M600,14520 100,14520 500,14120 747.093,14120 926.966,14193 600,14520 z " fill-rule="evenodd" fill="rgb(255,0,0)" stroke-width="10" stroke="rgb(0,0,0)" />
	<path d="M500,4000 1000,4000 600,4400 100,4400 334.853,4165.15 334.853,4268 484.853,4268 484.853,4168 434.853,4168 434.853,4065.15 500,4000 z " fill-rule="evenodd" fill="rgb(255,0,0)" stroke-width="10" stroke="rgb(0,0,0)" />
	<path d="M500,17200 1000,17200 600,17600 323.632,17600 323.632,17376.4 500,17200 z " fill-rule="evenodd" fill="rgb(255,0,0)" stroke-width="10" stroke="rgb(0,0,0)" />
	<path d="M1000,12800 667.882,13132.1 667.882,12800 1000,12800 z " fill-rule="evenodd" fill="rgb(255,0,0)" stroke-width="10" stroke="rgb(0,0,0)" />
	<path d="M600,12760 100,12760 500,12360 742.426,12360 742.426,12617.6 600,12760 z " fill-rule="evenodd" fill="rgb(255,0,0)" stroke-width="10" stroke="rgb(0,0,0)" />
	<path d="M600,27280 100,27280 424.515,26955.5 780.125,27099.9 600,27280 z " fill-rule="evenodd" fill="rgb(255,0,0)" stroke-width="10" stroke="rgb(0,0,0)" />
	<path d="M500,13240 1000,13240 600,13640 256.662,13640 256.662,13483.3 500,13240 z " fill-rule="evenodd" fill="rgb(255,0,0)" stroke-width="10" stroke="rgb(0,0,0)" />
	<path d="M102.735,26840 159.397,26783.3 159.397,26840 102.735,26840 z " fill-rule="evenodd" fill="rgb(255,0,0)" stroke-width="10" stroke="rgb(0,0,0)" />
	<path d="M101.823,12320 378.191,12043.6 378.191,12320 101.823,12320 z " fill-rule="evenodd" fill="rgb(255,0,0)" stroke-width="10" stroke="rgb(0,0,0)" />
	<path d="M500,26000 1000,26000 600,26400 267.882,26400 267.882,26232.1 500,26000 z " fill-rule="evenodd" fill="rgb(255,0,0)" stroke-width="10" stroke="rgb(0,0,0)" />
	<path d="M101.823,25960 344.25,25717.6 344.25,25960 101.823,25960 z " fill-rule="evenodd" fill="rgb(255,0,0)" stroke-width="10" stroke="rgb(0,0,0)" />
	<path d="M600,27720 100,27720 277.675,27542.3 633.285,27686.7 600,27720 z " fill-rule="evenodd" fill="rgb(255,0,0)" stroke-width="10" stroke="rgb(0,0,0)" />
	<path d="M100,1320 443.338,976.662 443.338,1320 100,1320 z " fill-rule="evenodd" fill="rgb(255,0,0)" stroke-width="10" stroke="rgb(0,0,0)" />
	<path d="M963.324,11480 563.324,11880 506.662,11880 506.662,11480 963.324,11480 z " fill-rule="evenodd" fill="rgb(255,0,0)" stroke-width="10" stroke="rgb(0,0,0)" />
	<path d="M600,11440 100,11440 500,11040 884.853,11040 884.853,11155.1 600,11440 z " fill-rule="evenodd" fill="rgb(255,0,0)" stroke-width="10" stroke="rgb(0,0,0)" />
	<path d="M990.603,22040 766.971,22263.6 766.971,22040 990.603,22040 z " fill-rule="evenodd" fill="rgb(255,0,0)" stroke-width="10" stroke="rgb(0,0,0)" />
	<path d="M600,11000 100,11000 500,10600 850.912,10600 850.912,10749.1 600,11000 z " fill-rule="evenodd" fill="rgb(255,0,0)" stroke-width="10" stroke="rgb(0,0,0)" />
	<path d="M120.591,16720 151.426,16689.2 227.367,16720 120.591,16720 z " fill-rule="evenodd" fill="rgb(255,0,0)" stroke-width="10" stroke="rgb(0,0,0)" />
	<path d="M600,16280 100,16280 500,15880 951.823,15880 951.823,15928.2 600,16280 z " fill-rule="evenodd" fill="rgb(255,0,0)" stroke-width="10" stroke="rgb(0,0,0)" />
	<path d="M500,15440 1000,15440 600,15840 143.338,15840 143.338,15796.7 500,15440 z " fill-rule="evenodd" fill="rgb(255,0,0)" stroke-width="10" stroke="rgb(0,0,0)" />
	<path d="M100,880 484.853,495.147 484.853,880 100,880 z " fill-rule="evenodd" fill="rgb(255,0,0)" stroke-width="10" stroke="rgb(0,0,0)" />
	<path d="M500,10160 1000,10160 600,10560 376.368,10560 376.368,10283.6 500,10160 z " fill-rule="evenodd" fill="rgb(255,0,0)" stroke-width="10" stroke="rgb(0,0,0)" />
	<path d="M984.853,14560 633.941,14910.9 633.941,14560 984.853,14560 z " fill-rule="evenodd" fill="rgb(255,0,0)" stroke-width="10" stroke="rgb(0,0,0)" />
	<path d="M600,28160 100,28160 500,27760 621.553,27760 890.712,27869.3 600,28160 z " fill-rule="evenodd" fill="rgb(255,0,0)" stroke-width="10" stroke="rgb(0,0,0)" />
	<path d="M100,15400 500,15000 551.823,15000 551.823,15400 100,15400 z " fill-rule="evenodd" fill="rgb(255,0,0)" stroke-width="10" stroke="rgb(0,0,0)" />
	<path d="M995.442,25120 647.265,25468.2 647.265,25120 995.442,25120 z " fill-rule="evenodd" fill="rgb(255,0,0)" stroke-width="10" stroke="rgb(0,0,0)" />
	<path d="M600,3960 100,3960 500,3560 993.338,3560 993.338,3566.66 600,3960 z " fill-rule="evenodd" fill="rgb(255,0,0)" stroke-width="10" stroke="rgb(0,0,0)" />
	<path d="M992.426,9720 877.279,9835.15 877.279,9720 992.426,9720 z " fill-rule="evenodd" fill="rgb(255,0,0)" stroke-width="10" stroke="rgb(0,0,0)" />
	<path d="M600,9680 100,9680 500,9280 959.397,9280 959.397,9320.6 600,9680 z " fill-rule="evenodd" fill="rgb(255,0,0)" stroke-width="10" stroke="rgb(0,0,0)" />
	<path d="M600,29040 100,29040 388.262,28751.7 743.872,28896.1 600,29040 z " fill-rule="evenodd" fill="rgb(255,0,0)" stroke-width="10" stroke="rgb(0,0,0)" />
	<path d="M977.279,16760 925.456,16811.8 925.456,16760 977.279,16760 z " fill-rule="evenodd" fill="rgb(255,0,0)" stroke-width="10" stroke="rgb(0,0,0)" />
	<path d="M500,8840 1000,8840 600,9240 251.823,9240 251.823,9088.18 500,8840 z " fill-rule="evenodd" fill="rgb(255,0,0)" stroke-width="10" stroke="rgb(0,0,0)" />
	<path d="M100,8800 500,8400 593.338,8400 593.338,8800 100,8800 z " fill-rule="evenodd" fill="rgb(255,0,0)" stroke-width="10" stroke="rgb(0,0,0)" />
	<path d="M500,7960 1000,7960 600,8360 484.853,8360 484.853,7975.15 500,7960 z " fill-rule="evenodd" fill="rgb(255,0,0)" stroke-width="10" stroke="rgb(0,0,0)" />
	<path d="M100,7920 500,7520 559.397,7520 559.397,7920 100,7920 z " fill-rule="evenodd" fill="rgb(255,0,0)" stroke-width="10" stroke="rgb(0,0,0)" />
	<path d="M998.177,12360 856.755,12501.4 742.426,12455 742.426,12360 998.177,12360 z " fill-rule="evenodd" fill="rgb(255,0,0)" stroke-width="10" stroke="rgb(0,0,0)" />
	<path d="M600,7480 100,7480 500,7080 660.309,7080 660.309,7419.69 600,7480 z " fill-rule="evenodd" fill="rgb(255,0,0)" stroke-width="10" stroke="rgb(0,0,0)" />
	<path d="M979.383,6640 739.691,6879.69 739.691,6640 979.383,6640 z " fill-rule="evenodd" fill="rgb(255,0,0)" stroke-width="10" stroke="rgb(0,0,0)" />
	<path d="M127.979,20680 221.317,20586.7 221.317,20680 127.979,20680 z " fill-rule="evenodd" fill="rgb(255,0,0)" stroke-width="10" stroke="rgb(0,0,0)" />
	<path d="M507.378,27319.3 500.716,27325.9 500.716,27319.3 507.378,27319.3 z " fill-rule="evenodd" fill="rgb(255,0,0)" stroke-width="10" stroke="rgb(0,0,0)" />
	<path d="M101.823,25080 161.22,25020.6 161.22,25080 101.823,25080 z " fill-rule="evenodd" fill="rgb(255,0,0)" stroke-width="10" stroke="rgb(0,0,0)" />
	<path d="M500,25560 1000,25560 600,25960 344.25,25960 344.25,25715.8 500,25560 z " fill-rule="evenodd" fill="rgb(255,0,0)" stroke-width="10" stroke="rgb(0,0,0)" />
	<path d="M107.574,26400 267.882,26239.7 267.882,26400 107.574,26400 z " fill-rule="evenodd" fill="rgb(255,0,0)" stroke-width="10" stroke="rgb(0,0,0)" />
	<path d="M600,7040 100,7040 500,6640 739.691,6640 739.691,6900.31 600,7040 z " fill-rule="evenodd" fill="rgb(255,0,0)" stroke-width="10" stroke="rgb(0,0,0)" />
	<path d="M896,23464 396,23464 498,23362 997.823,23362 997.823,23362.2 896,23464 z " fill-rule="evenodd" fill="rgb(255,0,0)" stroke-width="10" stroke="rgb(0,0,0)" />
	<path d="M100,11880 500,11480 506.662,11480 506.662,11880 100,11880 z " fill-rule="evenodd" fill="rgb(255,0,0)" stroke-width="10" stroke="rgb(0,0,0)" />
	<path d="M600,13200 100,13200 500,12800 667.882,12800 667.882,13132.1 600,13200 z " fill-rule="evenodd" fill="rgb(255,0,0)" stroke-width="10" stroke="rgb(0,0,0)" />
	<path d="M998.177,10600 850.912,10747.3 850.912,10600 998.177,10600 z " fill-rule="evenodd" fill="rgb(255,0,0)" stroke-width="10" stroke="rgb(0,0,0)" />
	<path d="M600,6600 100,6600 500,6200 768.794,6200 768.794,6431.21 600,6600 z " fill-rule="evenodd" fill="rgb(255,0,0)" stroke-width="10" stroke="rgb(0,0,0)" />
	<path d="M120.617,9240 251.823,9108.79 251.823,9240 120.617,9240 z " fill-rule="evenodd" fill="rgb(255,0,0)" stroke-width="10" stroke="rgb(0,0,0)" />
	<path d="M896,23024 396,23024 498,22922 998,22922 896,23024 z " fill-rule="evenodd" fill="rgb(255,0,0)" stroke-width="10" stroke="rgb(0,0,0)" />
	<path d="M600,19360 100,19360 500,18960 906.662,18960 906.662,19053.3 600,19360 z " fill-rule="evenodd" fill="rgb(255,0,0)" stroke-width="10" stroke="rgb(0,0,0)" />
	<path d="M139.564,21560 211.564,21488 307.446,21488 307.446,21560 139.564,21560 z " fill-rule="evenodd" fill="rgb(255,0,0)" stroke-width="10" stroke="rgb(0,0,0)" />
	<path d="M600,25520 100,25520 500,25120 647.265,25120 647.265,25472.7 600,25520 z " fill-rule="evenodd" fill="rgb(255,0,0)" stroke-width="10" stroke="rgb(0,0,0)" />
	<path d="M107.574,10560 376.368,10291.2 376.368,10560 107.574,10560 z " fill-rule="evenodd" fill="rgb(255,0,0)" stroke-width="10" stroke="rgb(0,0,0)" />
	<path d="M812.721,2344 681.515,2344 681.515,2242 914.721,2242 812.721,2344 z " fill-rule="evenodd" fill="rgb(255,0,0)" stroke-width="10" stroke="rgb(0,0,0)" />
	<path d="M941.515,976.662 643.338,1274.84 643.338,986.662 443.338,986.662 443.338,976.662 941.515,976.662 z " fill-rule="evenodd" fill="rgb(255,0,0)" stroke-width="10" stroke="rgb(0,0,0)" />
	<path d="M896,22584 396,22584 468,22512 968,22512 896,22584 z " fill-rule="evenodd" fill="rgb(255,0,0)" stroke-width="10" stroke="rgb(0,0,0)" />
	<path d="M998.177,9280 959.397,9318.78 959.397,9280 998.177,9280 z " fill-rule="evenodd" fill="rgb(255,0,0)" stroke-width="10" stroke="rgb(0,0,0)" />
	<path d="M600,10120 100,10120 500,9720 877.279,9720 877.279,9842.72 600,10120 z " fill-rule="evenodd" fill="rgb(255,0,0)" stroke-width="10" stroke="rgb(0,0,0)" />
	<path d="M500,3120 1000,3120 600,3520 101.823,3520 101.823,3518.18 500,3120 z " fill-rule="evenodd" fill="rgb(255,0,0)" stroke-width="10" stroke="rgb(0,0,0)" />
	<path d="M600,3080 100,3080 172,3008 672,3008 600,3080 z " fill-rule="evenodd" fill="rgb(255,0,0)" stroke-width="10" stroke="rgb(0,0,0)" />
	<path d="M998.177,7520 598.177,7920 559.397,7920 559.397,7520 998.177,7520 z " fill-rule="evenodd" fill="rgb(255,0,0)" stroke-width="10" stroke="rgb(0,0,0)" />
	<path d="M107.574,8360 403.574,8064 484.853,8064 484.853,8360 107.574,8360 z " fill-rule="evenodd" fill="rgb(255,0,0)" stroke-width="10" stroke="rgb(0,0,0)" />
	<path d="M983.029,8410.31 593.338,8800 593.338,8410.31 983.029,8410.31 z " fill-rule="evenodd" fill="rgb(255,0,0)" stroke-width="10" stroke="rgb(0,0,0)" />
	<path d="M672,3008 172,3008 244,2936 744,2936 672,3008 z " fill-rule="evenodd" fill="rgb(255,0,0)" stroke-width="10" stroke="rgb(0,0,0)" />
	<path d="M500,24680 1000,24680 600,25080 161.22,25080 161.22,25018.8 500,24680 z " fill-rule="evenodd" fill="rgb(255,0,0)" stroke-width="10" stroke="rgb(0,0,0)" />
	<path d="M600,2640 100,2640 396,2344 896,2344 600,2640 z " fill-rule="evenodd" fill="rgb(255,0,0)" stroke-width="10" stroke="rgb(0,0,0)" />
	<path d="M600,29920 100,29920 500,29520 889.691,29520 889.691,29630.3 600,29920 z " fill-rule="evenodd" fill="rgb(255,0,0)" stroke-width="10" stroke="rgb(0,0,0)" />
	<path d="M744,2936 244,2936 316,2864 816,2864 744,2936 z " fill-rule="evenodd" fill="rgb(255,0,0)" stroke-width="10" stroke="rgb(0,0,0)" />
	<path d="M990.603,7080 660.309,7410.29 660.309,7080 990.603,7080 z " fill-rule="evenodd" fill="rgb(255,0,0)" stroke-width="10" stroke="rgb(0,0,0)" />
	<path d="M600,23760 100,23760 396,23464 896,23464 600,23760 z " fill-rule="evenodd" fill="rgb(255,0,0)" stroke-width="10" stroke="rgb(0,0,0)" />
	<path d="M664.235,156.971 383.029,438.177 383.029,178.971 583.029,178.971 583.029,156.971 664.235,156.971 z " fill-rule="evenodd" fill="rgb(255,0,0)" stroke-width="10" stroke="rgb(0,0,0)" />
	<path d="M816,2864 316,2864 388,2792 888,2792 816,2864 z " fill-rule="evenodd" fill="rgb(255,0,0)" stroke-width="10" stroke="rgb(0,0,0)" />
	<path d="M500,13680 1000,13680 600,14080 269.706,14080 269.706,13910.3 500,13680 z " fill-rule="evenodd" fill="rgb(255,0,0)" stroke-width="10" stroke="rgb(0,0,0)" />
	<path d="M600,23320 100,23320 396,23024 896,23024 600,23320 z " fill-rule="evenodd" fill="rgb(255,0,0)" stroke-width="10" stroke="rgb(0,0,0)" />
	<path d="M867.015,880 785.809,880 785.809,808 939.015,808 867.015,880 z " fill-rule="evenodd" fill="rgb(255,0,0)" stroke-width="10" stroke="rgb(0,0,0)" />
	<path d="M990.603,6200 768.794,6421.81 768.794,6200 990.603,6200 z " fill-rule="evenodd" fill="rgb(255,0,0)" stroke-width="10" stroke="rgb(0,0,0)" />
	<path d="M600,22880 100,22880 396,22584 896,22584 600,22880 z " fill-rule="evenodd" fill="rgb(255,0,0)" stroke-width="10" stroke="rgb(0,0,0)" />
	<path d="M500,11920 1000,11920 600,12320 378.191,12320 378.191,12041.8 500,11920 z " fill-rule="evenodd" fill="rgb(255,0,0)" stroke-width="10" stroke="rgb(0,0,0)" />
	<path d="M600,2200 100,2200 396,1904 896,1904 600,2200 z " fill-rule="evenodd" fill="rgb(255,0,0)" stroke-width="10" stroke="rgb(0,0,0)" />
	<path d="M998.177,11040 884.853,11153.3 884.853,11040 998.177,11040 z " fill-rule="evenodd" fill="rgb(255,0,0)" stroke-width="10" stroke="rgb(0,0,0)" />
	<path d="M600,1760 100,1760 396,1464 896,1464 600,1760 z " fill-rule="evenodd" fill="rgb(255,0,0)" stroke-width="10" stroke="rgb(0,0,0)" />
	<path d="M598.177,791.147 484.853,791.147 484.853,495.147 894.177,495.147 598.177,791.147 z " fill-rule="evenodd" fill="rgb(255,0,0)" stroke-width="10" stroke="rgb(0,0,0)" />
</svg>
