<?xml version="1.0" standalone="no" ?>
<!DOCTYPE svg PUBLIC "-//W3C//DTD SVG 1.1//EN" "http://www.w3.org/Graphics/SVG/1.1/DTD/svg11.dtd">
<svg width="8700px" height="7052px" xmlns="http://www.w3.org/2000/svg" version="1.1" >
	<path d="M2041.51,1908 2541.51,1908 2941.51,1508 2441.51,1508 2041.51,1908 z " fill-rule="evenodd" fill="rgb(0,128,0)" stroke-width="5" stroke="rgb(0,0,0)" />
	<path d="M3458.49,1502 3958.49,1502 4358.49,1102 3858.49,1102 3458.49,1502 z " fill-rule="evenodd" fill="rgb(0,128,0)" stroke-width="5" stroke="rgb(0,0,0)" />
	<path d="M116.059,2314 616.059,2314 1016.06,1914 516.059,1914 116.059,2314 z " fill-rule="evenodd" fill="rgb(0,128,0)" stroke-width="5" stroke="rgb(0,0,0)" />
	<path d="M624.544,2314 1124.54,2314 1524.54,1914 1024.54,1914 624.544,2314 z " fill-rule="evenodd" fill="rgb(0,128,0)" stroke-width="5" stroke="rgb(0,0,0)" />
	<path d="M1133.03,2314 1633.03,2314 2033.03,1914 1533.03,1914 1133.03,2314 z " fill-rule="evenodd" fill="rgb(0,128,0)" stroke-width="5" stroke="rgb(0,0,0)" />
	<path d="M1641.51,2314 2141.51,2314 2541.51,1914 2041.51,1914 1641.51,2314 z " fill-rule="evenodd" fill="rgb(0,128,0)" stroke-width="5" stroke="rgb(0,0,0)" />
	<path d="M2150,2314 2650,2314 3050,1914 2550,1914 2150,2314 z " fill-rule="evenodd" fill="rgb(0,128,0)" stroke-width="5" stroke="rgb(0,0,0)" />
	<path d="M3058.49,1908 3558.49,1908 3958.49,1508 3458.49,1508 3058.49,1908 z " fill-rule="evenodd" fill="rgb(0,128,0)" stroke-width="5" stroke="rgb(0,0,0)" />
	<path d="M224.544,2720 724.544,2720 1124.54,2320 624.544,2320 224.544,2720 z " fill-rule="evenodd" fill="rgb(0,128,0)" stroke-width="5" stroke="rgb(0,0,0)" />
	<path d="M733.029,2720 1233.03,2720 1633.03,2320 1133.03,2320 733.029,2720 z " fill-rule="evenodd" fill="rgb(0,128,0)" stroke-width="5" stroke="rgb(0,0,0)" />
	<path d="M2333.03,1096 2833.03,1096 3233.03,696 2733.03,696 2333.03,1096 z " fill-rule="evenodd" fill="rgb(0,128,0)" stroke-width="5" stroke="rgb(0,0,0)" />
	<path d="M1241.51,2720 1741.51,2720 2141.51,2320 1641.51,2320 1241.51,2720 z " fill-rule="evenodd" fill="rgb(0,128,0)" stroke-width="5" stroke="rgb(0,0,0)" />
	<path d="M1750,2720 2250,2720 2650,2320 2150,2320 1750,2720 z " fill-rule="evenodd" fill="rgb(0,128,0)" stroke-width="5" stroke="rgb(0,0,0)" />
	<path d="M2658.49,2314 3158.49,2314 3558.49,1914 3058.49,1914 2658.49,2314 z " fill-rule="evenodd" fill="rgb(0,128,0)" stroke-width="5" stroke="rgb(0,0,0)" />
	<path d="M3566.97,1908 4066.97,1908 4466.97,1508 3966.97,1508 3566.97,1908 z " fill-rule="evenodd" fill="rgb(0,128,0)" stroke-width="5" stroke="rgb(0,0,0)" />
	<path d="M2258.49,2720 2758.49,2720 3158.49,2320 2658.49,2320 2258.49,2720 z " fill-rule="evenodd" fill="rgb(0,128,0)" stroke-width="5" stroke="rgb(0,0,0)" />
	<path d="M3166.97,2314 3666.97,2314 4066.97,1914 3566.97,1914 3166.97,2314 z " fill-rule="evenodd" fill="rgb(0,128,0)" stroke-width="5" stroke="rgb(0,0,0)" />
	<path d="M4075.46,1908 4575.46,1908 4975.46,1508 4475.46,1508 4075.46,1908 z " fill-rule="evenodd" fill="rgb(0,128,0)" stroke-width="5" stroke="rgb(0,0,0)" />
	<path d="M2766.97,2720 3266.97,2720 3666.97,2320 3166.97,2320 2766.97,2720 z " fill-rule="evenodd" fill="rgb(0,128,0)" stroke-width="5" stroke="rgb(0,0,0)" />
	<path d="M3675.46,2314 4175.46,2314 4575.46,1914 4075.46,1914 3675.46,2314 z " fill-rule="evenodd" fill="rgb(0,128,0)" stroke-width="5" stroke="rgb(0,0,0)" />
	<path d="M4583.94,1908 5083.94,1908 5483.94,1508 4983.94,1508 4583.94,1908 z " fill-rule="evenodd" fill="rgb(0,128,0)" stroke-width="5" stroke="rgb(0,0,0)" />
	<path d="M550,3938 1050,3938 1450,3538 950,3538 550,3938 z " fill-rule="evenodd" fill="rgb(0,128,0)" stroke-width="5" stroke="rgb(0,0,0)" />
	<path d="M3275.46,2720 3775.46,2720 4175.46,2320 3675.46,2320 3275.46,2720 z " fill-rule="evenodd" fill="rgb(0,128,0)" stroke-width="5" stroke="rgb(0,0,0)" />
	<path d="M4183.94,2314 4683.94,2314 5083.94,1914 4583.94,1914 4183.94,2314 z " fill-rule="evenodd" fill="rgb(0,128,0)" stroke-width="5" stroke="rgb(0,0,0)" />
	<path d="M150,4344 650,4344 1050,3944 550,3944 150,4344 z " fill-rule="evenodd" fill="rgb(0,128,0)" stroke-width="5" stroke="rgb(0,0,0)" />
	<path d="M1058.49,3938 1558.49,3938 1958.49,3538 1458.49,3538 1058.49,3938 z " fill-rule="evenodd" fill="rgb(0,128,0)" stroke-width="5" stroke="rgb(0,0,0)" />
	<path d="M3783.94,2720 4283.94,2720 4683.94,2320 4183.94,2320 3783.94,2720 z " fill-rule="evenodd" fill="rgb(0,128,0)" stroke-width="5" stroke="rgb(0,0,0)" />
	<path d="M4692.43,2314 5192.43,2314 5592.43,1914 5092.43,1914 4692.43,2314 z " fill-rule="evenodd" fill="rgb(0,128,0)" stroke-width="5" stroke="rgb(0,0,0)" />
	<path d="M658.485,4344 1158.49,4344 1558.49,3944 1058.49,3944 658.485,4344 z " fill-rule="evenodd" fill="rgb(0,128,0)" stroke-width="5" stroke="rgb(0,0,0)" />
	<path d="M1566.97,3938 2066.97,3938 2466.97,3538 1966.97,3538 1566.97,3938 z " fill-rule="evenodd" fill="rgb(0,128,0)" stroke-width="5" stroke="rgb(0,0,0)" />
	<path d="M4292.43,2720 4792.43,2720 5192.43,2320 4692.43,2320 4292.43,2720 z " fill-rule="evenodd" fill="rgb(0,128,0)" stroke-width="5" stroke="rgb(0,0,0)" />
	<path d="M5200.91,2314 5700.91,2314 6100.91,1914 5600.91,1914 5200.91,2314 z " fill-rule="evenodd" fill="rgb(0,128,0)" stroke-width="5" stroke="rgb(0,0,0)" />
	<path d="M258.485,4750 758.485,4750 1158.49,4350 658.485,4350 258.485,4750 z " fill-rule="evenodd" fill="rgb(0,128,0)" stroke-width="5" stroke="rgb(0,0,0)" />
	<path d="M1166.97,4344 1666.97,4344 2066.97,3944 1566.97,3944 1166.97,4344 z " fill-rule="evenodd" fill="rgb(0,128,0)" stroke-width="5" stroke="rgb(0,0,0)" />
	<path d="M4800.91,2720 5300.91,2720 5700.91,2320 5200.91,2320 4800.91,2720 z " fill-rule="evenodd" fill="rgb(0,128,0)" stroke-width="5" stroke="rgb(0,0,0)" />
	<path d="M5709.4,2314 6209.4,2314 6609.4,1914 6109.4,1914 5709.4,2314 z " fill-rule="evenodd" fill="rgb(0,128,0)" stroke-width="5" stroke="rgb(0,0,0)" />
	<path d="M766.971,4750 1266.97,4750 1666.97,4350 1166.97,4350 766.971,4750 z " fill-rule="evenodd" fill="rgb(0,128,0)" stroke-width="5" stroke="rgb(0,0,0)" />
	<path d="M1675.46,4344 2175.46,4344 2575.46,3944 2075.46,3944 1675.46,4344 z " fill-rule="evenodd" fill="rgb(0,128,0)" stroke-width="5" stroke="rgb(0,0,0)" />
	<path d="M5309.4,2720 5809.4,2720 6209.4,2320 5709.4,2320 5309.4,2720 z " fill-rule="evenodd" fill="rgb(0,128,0)" stroke-width="5" stroke="rgb(0,0,0)" />
	<path d="M366.971,5156 866.971,5156 1266.97,4756 766.971,4756 366.971,5156 z " fill-rule="evenodd" fill="rgb(0,128,0)" stroke-width="5" stroke="rgb(0,0,0)" />
	<path d="M1275.46,4750 1775.46,4750 2175.46,4350 1675.46,4350 1275.46,4750 z " fill-rule="evenodd" fill="rgb(0,128,0)" stroke-width="5" stroke="rgb(0,0,0)" />
	<path d="M4000.91,3532 4500.91,3532 4900.91,3132 4400.91,3132 4000.91,3532 z " fill-rule="evenodd" fill="rgb(0,128,0)" stroke-width="5" stroke="rgb(0,0,0)" />
	<path d="M5817.88,2720 6317.88,2720 6717.88,2320 6217.88,2320 5817.88,2720 z " fill-rule="evenodd" fill="rgb(0,128,0)" stroke-width="5" stroke="rgb(0,0,0)" />
	<path d="M875.456,5156 1375.46,5156 1775.46,4756 1275.46,4756 875.456,5156 z " fill-rule="evenodd" fill="rgb(0,128,0)" stroke-width="5" stroke="rgb(0,0,0)" />
	<path d="M1783.94,4750 2283.94,4750 2683.94,4350 2183.94,4350 1783.94,4750 z " fill-rule="evenodd" fill="rgb(0,128,0)" stroke-width="5" stroke="rgb(0,0,0)" />
	<path d="M5417.88,3126 5917.88,3126 6317.88,2726 5817.88,2726 5417.88,3126 z " fill-rule="evenodd" fill="rgb(0,128,0)" stroke-width="5" stroke="rgb(0,0,0)" />
	<path d="M6326.37,2720 6826.37,2720 7226.37,2320 6726.37,2320 6326.37,2720 z " fill-rule="evenodd" fill="rgb(0,128,0)" stroke-width="5" stroke="rgb(0,0,0)" />
	<path d="M475.456,5562 975.456,5562 1375.46,5162 875.456,5162 475.456,5562 z " fill-rule="evenodd" fill="rgb(0,128,0)" stroke-width="5" stroke="rgb(0,0,0)" />
	<path d="M1383.94,5156 1883.94,5156 2283.94,4756 1783.94,4756 1383.94,5156 z " fill-rule="evenodd" fill="rgb(0,128,0)" stroke-width="5" stroke="rgb(0,0,0)" />
	<path d="M5926.37,3126 6426.37,3126 6826.37,2726 6326.37,2726 5926.37,3126 z " fill-rule="evenodd" fill="rgb(0,128,0)" stroke-width="5" stroke="rgb(0,0,0)" />
	<path d="M983.941,5562 1483.94,5562 1883.94,5162 1383.94,5162 983.941,5562 z " fill-rule="evenodd" fill="rgb(0,128,0)" stroke-width="5" stroke="rgb(0,0,0)" />
	<path d="M1892.43,5156 2392.43,5156 2792.43,4756 2292.43,4756 1892.43,5156 z " fill-rule="evenodd" fill="rgb(0,128,0)" stroke-width="5" stroke="rgb(0,0,0)" />
	<path d="M3709.4,4344 4209.4,4344 4609.4,3944 4109.4,3944 3709.4,4344 z " fill-rule="evenodd" fill="rgb(0,128,0)" stroke-width="5" stroke="rgb(0,0,0)" />
	<path d="M5526.37,3532 6026.37,3532 6426.37,3132 5926.37,3132 5526.37,3532 z " fill-rule="evenodd" fill="rgb(0,128,0)" stroke-width="5" stroke="rgb(0,0,0)" />
	<path d="M6434.85,3126 6934.85,3126 7334.85,2726 6834.85,2726 6434.85,3126 z " fill-rule="evenodd" fill="rgb(0,128,0)" stroke-width="5" stroke="rgb(0,0,0)" />
	<path d="M583.941,5968 1083.94,5968 1483.94,5568 983.941,5568 583.941,5968 z " fill-rule="evenodd" fill="rgb(0,128,0)" stroke-width="5" stroke="rgb(0,0,0)" />
	<path d="M1492.43,5562 1992.43,5562 2392.43,5162 1892.43,5162 1492.43,5562 z " fill-rule="evenodd" fill="rgb(0,128,0)" stroke-width="5" stroke="rgb(0,0,0)" />
	<path d="M5126.37,3938 5626.37,3938 6026.37,3538 5526.37,3538 5126.37,3938 z " fill-rule="evenodd" fill="rgb(0,128,0)" stroke-width="5" stroke="rgb(0,0,0)" />
	<path d="M6034.85,3532 6534.85,3532 6934.85,3132 6434.85,3132 6034.85,3532 z " fill-rule="evenodd" fill="rgb(0,128,0)" stroke-width="5" stroke="rgb(0,0,0)" />
	<path d="M6943.34,3126 7443.34,3126 7843.34,2726 7343.34,2726 6943.34,3126 z " fill-rule="evenodd" fill="rgb(0,128,0)" stroke-width="5" stroke="rgb(0,0,0)" />
	<path d="M183.941,6374 683.941,6374 1083.94,5974 583.941,5974 183.941,6374 z " fill-rule="evenodd" fill="rgb(0,128,0)" stroke-width="5" stroke="rgb(0,0,0)" />
	<path d="M1092.43,5968 1592.43,5968 1992.43,5568 1492.43,5568 1092.43,5968 z " fill-rule="evenodd" fill="rgb(0,128,0)" stroke-width="5" stroke="rgb(0,0,0)" />
	<path d="M3817.88,4750 4317.88,4750 4717.88,4350 4217.88,4350 3817.88,4750 z " fill-rule="evenodd" fill="rgb(0,128,0)" stroke-width="5" stroke="rgb(0,0,0)" />
	<path d="M5634.85,3938 6134.85,3938 6534.85,3538 6034.85,3538 5634.85,3938 z " fill-rule="evenodd" fill="rgb(0,128,0)" stroke-width="5" stroke="rgb(0,0,0)" />
	<path d="M6543.34,3532 7043.34,3532 7443.34,3132 6943.34,3132 6543.34,3532 z " fill-rule="evenodd" fill="rgb(0,128,0)" stroke-width="5" stroke="rgb(0,0,0)" />
	<path d="M7451.82,3126 7951.82,3126 8351.82,2726 7851.82,2726 7451.82,3126 z " fill-rule="evenodd" fill="rgb(0,128,0)" stroke-width="5" stroke="rgb(0,0,0)" />
	<path d="M692.426,6374 1192.43,6374 1592.43,5974 1092.43,5974 692.426,6374 z " fill-rule="evenodd" fill="rgb(0,128,0)" stroke-width="5" stroke="rgb(0,0,0)" />
	<path d="M1600.91,5968 2100.91,5968 2500.91,5568 2000.91,5568 1600.91,5968 z " fill-rule="evenodd" fill="rgb(0,128,0)" stroke-width="5" stroke="rgb(0,0,0)" />
	<path d="M5234.85,4344 5734.85,4344 6134.85,3944 5634.85,3944 5234.85,4344 z " fill-rule="evenodd" fill="rgb(0,128,0)" stroke-width="5" stroke="rgb(0,0,0)" />
	<path d="M6143.34,3938 6643.34,3938 7043.34,3538 6543.34,3538 6143.34,3938 z " fill-rule="evenodd" fill="rgb(0,128,0)" stroke-width="5" stroke="rgb(0,0,0)" />
	<path d="M7051.82,3532 7551.82,3532 7951.82,3132 7451.82,3132 7051.82,3532 z " fill-rule="evenodd" fill="rgb(0,128,0)" stroke-width="5" stroke="rgb(0,0,0)" />
	<path d="M292.426,6780 792.426,6780 1192.43,6380 692.426,6380 292.426,6780 z " fill-rule="evenodd" fill="rgb(0,128,0)" stroke-width="5" stroke="rgb(0,0,0)" />
	<path d="M1200.91,6374 1700.91,6374 2100.91,5974 1600.91,5974 1200.91,6374 z " fill-rule="evenodd" fill="rgb(0,128,0)" stroke-width="5" stroke="rgb(0,0,0)" />
	<path d="M5743.34,4344 6243.34,4344 6643.34,3944 6143.34,3944 5743.34,4344 z " fill-rule="evenodd" fill="rgb(0,128,0)" stroke-width="5" stroke="rgb(0,0,0)" />
	<path d="M6651.82,3938 7151.82,3938 7551.82,3538 7051.82,3538 6651.82,3938 z " fill-rule="evenodd" fill="rgb(0,128,0)" stroke-width="5" stroke="rgb(0,0,0)" />
	<path d="M7560.31,3532 8060.31,3532 8460.31,3132 7960.31,3132 7560.31,3532 z " fill-rule="evenodd" fill="rgb(0,128,0)" stroke-width="5" stroke="rgb(0,0,0)" />
	<path d="M800.912,6780 1300.91,6780 1700.91,6380 1200.91,6380 800.912,6780 z " fill-rule="evenodd" fill="rgb(0,128,0)" stroke-width="5" stroke="rgb(0,0,0)" />
	<path d="M1709.4,6374 2209.4,6374 2609.4,5974 2109.4,5974 1709.4,6374 z " fill-rule="evenodd" fill="rgb(0,128,0)" stroke-width="5" stroke="rgb(0,0,0)" />
	<path d="M5343.34,4750 5843.34,4750 6243.34,4350 5743.34,4350 5343.34,4750 z " fill-rule="evenodd" fill="rgb(0,128,0)" stroke-width="5" stroke="rgb(0,0,0)" />
	<path d="M6251.82,4344 6751.82,4344 7151.82,3944 6651.82,3944 6251.82,4344 z " fill-rule="evenodd" fill="rgb(0,128,0)" stroke-width="5" stroke="rgb(0,0,0)" />
	<path d="M7160.31,3938 7660.31,3938 8060.31,3538 7560.31,3538 7160.31,3938 z " fill-rule="evenodd" fill="rgb(0,128,0)" stroke-width="5" stroke="rgb(0,0,0)" />
	<path d="M1309.4,6780 1809.4,6780 2209.4,6380 1709.4,6380 1309.4,6780 z " fill-rule="evenodd" fill="rgb(0,128,0)" stroke-width="5" stroke="rgb(0,0,0)" />
	<path d="M5851.82,4750 6351.82,4750 6751.82,4350 6251.82,4350 5851.82,4750 z " fill-rule="evenodd" fill="rgb(0,128,0)" stroke-width="5" stroke="rgb(0,0,0)" />
	<path d="M6760.31,4344 7260.31,4344 7660.31,3944 7160.31,3944 6760.31,4344 z " fill-rule="evenodd" fill="rgb(0,128,0)" stroke-width="5" stroke="rgb(0,0,0)" />
	<path d="M7668.79,3938 8168.79,3938 8568.79,3538 8068.79,3538 7668.79,3938 z " fill-rule="evenodd" fill="rgb(0,128,0)" stroke-width="5" stroke="rgb(0,0,0)" />
	<path d="M1817.88,6780 2317.88,6780 2717.88,6380 2217.88,6380 1817.88,6780 z " fill-rule="evenodd" fill="rgb(0,128,0)" stroke-width="5" stroke="rgb(0,0,0)" />
	<path d="M5451.82,5156 5951.82,5156 6351.82,4756 5851.82,4756 5451.82,5156 z " fill-rule="evenodd" fill="rgb(0,128,0)" stroke-width="5" stroke="rgb(0,0,0)" />
	<path d="M6360.31,4750 6860.31,4750 7260.31,4350 6760.31,4350 6360.31,4750 z " fill-rule="evenodd" fill="rgb(0,128,0)" stroke-width="5" stroke="rgb(0,0,0)" />
	<path d="M7268.79,4344 7768.79,4344 8168.79,3944 7668.79,3944 7268.79,4344 z " fill-rule="evenodd" fill="rgb(0,128,0)" stroke-width="5" stroke="rgb(0,0,0)" />
	<path d="M5960.31,5156 6460.31,5156 6860.31,4756 6360.31,4756 5960.31,5156 z " fill-rule="evenodd" fill="rgb(0,128,0)" stroke-width="5" stroke="rgb(0,0,0)" />
	<path d="M6868.79,4750 7368.79,4750 7768.79,4350 7268.79,4350 6868.79,4750 z " fill-rule="evenodd" fill="rgb(0,128,0)" stroke-width="5" stroke="rgb(0,0,0)" />
	<path d="M6468.79,5156 6968.79,5156 7368.79,4756 6868.79,4756 6468.79,5156 z " fill-rule="evenodd" fill="rgb(0,128,0)" stroke-width="5" stroke="rgb(0,0,0)" />
	<path d="M7377.28,4750 7877.28,4750 8277.28,4350 7777.28,4350 7377.28,4750 z " fill-rule="evenodd" fill="rgb(0,128,0)" stroke-width="5" stroke="rgb(0,0,0)" />
	<path d="M6977.28,5156 7477.28,5156 7877.28,4756 7377.28,4756 6977.28,5156 z " fill-rule="evenodd" fill="rgb(0,128,0)" stroke-width="5" stroke="rgb(0,0,0)" />
	<path d="M7485.76,5156 7985.76,5156 8385.76,4756 7885.76,4756 7485.76,5156 z " fill-rule="evenodd" fill="rgb(0,128,0)" stroke-width="5" stroke="rgb(0,0,0)" />
	<path d="M2433.03,1508 2033.03,1908 1533.03,1908 1839.03,1602 2150,1602 2150,1508 2433.03,1508 z " fill-rule="evenodd" fill="rgb(255,0,0)" stroke-width="5" stroke="rgb(0,0,0)" />
	<path d="M3450,1508 3050,1908 2550,1908 2950,1508 2950,1508 2950,1602 3147,1602 3185.12,1508 3450,1508 z " fill-rule="evenodd" fill="rgb(255,0,0)" stroke-width="5" stroke="rgb(0,0,0)" />
	<path d="M2941.51,1502 2441.51,1502 2841.51,1102 3242.27,1102 3174.53,1268.98 2941.51,1502 z " fill-rule="evenodd" fill="rgb(255,0,0)" stroke-width="5" stroke="rgb(0,0,0)" />
	<path d="M2950,1502 3168.74,1283.26 3080,1502 2950,1502 z " fill-rule="evenodd" fill="rgb(255,0,0)" stroke-width="5" stroke="rgb(0,0,0)" />
	<path d="M3350,1102 3850,1102 3450,1502 3187.55,1502 3349.6,1102.4 3350,1102 z " fill-rule="evenodd" fill="rgb(255,0,0)" stroke-width="5" stroke="rgb(0,0,0)" />
	<path d="M3850,1096 3352.19,1096 3353.69,1092.31 3711.78,734.216 4067.39,878.606 3850,1096 z " fill-rule="evenodd" fill="rgb(255,0,0)" stroke-width="5" stroke="rgb(0,0,0)" />
	<path d="M4358.49,1096 3858.49,1096 4073.43,881.057 4429.04,1025.45 4358.49,1096 z " fill-rule="evenodd" fill="rgb(255,0,0)" stroke-width="5" stroke="rgb(0,0,0)" />
	<path d="M4366.97,1096 4435.07,1027.9 4602.8,1096 4366.97,1096 z " fill-rule="evenodd" fill="rgb(255,0,0)" stroke-width="5" stroke="rgb(0,0,0)" />
	<path d="M1524.54,1908 1024.54,1908 1400,1532.54 1400,1602 1830.54,1602 1524.54,1908 z " fill-rule="evenodd" fill="rgb(255,0,0)" stroke-width="5" stroke="rgb(0,0,0)" />
	<path d="M2333.03,1102 2833.03,1102 2433.03,1502 2150,1502 2150,1285.03 2333.03,1102 z " fill-rule="evenodd" fill="rgb(255,0,0)" stroke-width="5" stroke="rgb(0,0,0)" />
	<path d="M4466.97,1502 3966.97,1502 4366.97,1102 4617.58,1102 4794.95,1174.02 4466.97,1502 z " fill-rule="evenodd" fill="rgb(255,0,0)" stroke-width="5" stroke="rgb(0,0,0)" />
	<path d="M2841.51,1096 3241.51,696 3406.98,696 3244.71,1096 2841.51,1096 z " fill-rule="evenodd" fill="rgb(255,0,0)" stroke-width="5" stroke="rgb(0,0,0)" />
	<path d="M3359.48,1078.04 3514.4,696 3617.66,696 3705.75,731.766 3359.48,1078.04 z " fill-rule="evenodd" fill="rgb(255,0,0)" stroke-width="5" stroke="rgb(0,0,0)" />
	<path d="M107.574,2320 100,2327.57 100,2320 107.574,2320 z " fill-rule="evenodd" fill="rgb(255,0,0)" stroke-width="5" stroke="rgb(0,0,0)" />
	<path d="M116.059,2320 616.059,2320 216.059,2720 100,2720 100,2336.06 116.059,2320 z " fill-rule="evenodd" fill="rgb(255,0,0)" stroke-width="5" stroke="rgb(0,0,0)" />
	<path d="M507.574,1914 107.574,2314 100,2314 100,1914 507.574,1914 z " fill-rule="evenodd" fill="rgb(255,0,0)" stroke-width="5" stroke="rgb(0,0,0)" />
	<path d="M1016.06,1908 516.059,1908 916.059,1508 1400,1508 1400,1524.06 1016.06,1908 z " fill-rule="evenodd" fill="rgb(255,0,0)" stroke-width="5" stroke="rgb(0,0,0)" />
	<path d="M2324.54,1102 2150,1276.54 2150,1102 2324.54,1102 z " fill-rule="evenodd" fill="rgb(255,0,0)" stroke-width="5" stroke="rgb(0,0,0)" />
	<path d="M4975.46,1502 4475.46,1502 4800.99,1176.47 5156.6,1320.86 4975.46,1502 z " fill-rule="evenodd" fill="rgb(255,0,0)" stroke-width="5" stroke="rgb(0,0,0)" />
	<path d="M3241.51,690 3346.3,585.213 3437,622 3409.41,690 3241.51,690 z " fill-rule="evenodd" fill="rgb(255,0,0)" stroke-width="5" stroke="rgb(0,0,0)" />
	<path d="M3516.83,690 3529,660 3602.89,690 3516.83,690 z " fill-rule="evenodd" fill="rgb(255,0,0)" stroke-width="5" stroke="rgb(0,0,0)" />
	<path d="M216.059,2726 100,2842.06 100,2726 216.059,2726 z " fill-rule="evenodd" fill="rgb(255,0,0)" stroke-width="5" stroke="rgb(0,0,0)" />
	<path d="M907.574,1508 507.574,1908 100,1908 100,1815.57 313.574,1602 700,1602 700,1508 907.574,1508 z " fill-rule="evenodd" fill="rgb(255,0,0)" stroke-width="5" stroke="rgb(0,0,0)" />
	<path d="M224.544,2726 724.544,2726 498.544,2952 100,2952 100,2850.54 224.544,2726 z " fill-rule="evenodd" fill="rgb(255,0,0)" stroke-width="5" stroke="rgb(0,0,0)" />
	<path d="M733.029,2726 1233.03,2726 1007.03,2952 507.029,2952 733.029,2726 z " fill-rule="evenodd" fill="rgb(255,0,0)" stroke-width="5" stroke="rgb(0,0,0)" />
	<path d="M2224.54,696 2724.54,696 2324.54,1096 2150,1096 2150,770.544 2224.54,696 z " fill-rule="evenodd" fill="rgb(255,0,0)" stroke-width="5" stroke="rgb(0,0,0)" />
	<path d="M3233.03,690 2733.03,690 2984.54,438.486 3340.26,582.765 3233.03,690 z " fill-rule="evenodd" fill="rgb(255,0,0)" stroke-width="5" stroke="rgb(0,0,0)" />
	<path d="M1241.51,2726 1741.51,2726 1515.51,2952 1015.51,2952 1241.51,2726 z " fill-rule="evenodd" fill="rgb(255,0,0)" stroke-width="5" stroke="rgb(0,0,0)" />
	<path d="M1750,2726 2250,2726 2024,2952 1524,2952 1750,2726 z " fill-rule="evenodd" fill="rgb(255,0,0)" stroke-width="5" stroke="rgb(0,0,0)" />
	<path d="M5483.94,1502 4983.94,1502 5162.63,1323.31 5518.24,1467.7 5483.94,1502 z " fill-rule="evenodd" fill="rgb(255,0,0)" stroke-width="5" stroke="rgb(0,0,0)" />
	<path d="M100,1807.09 100,1602 305.088,1602 100,1807.09 z " fill-rule="evenodd" fill="rgb(255,0,0)" stroke-width="5" stroke="rgb(0,0,0)" />
	<path d="M100,3356.54 100,3152 304.544,3152 100,3356.54 z " fill-rule="evenodd" fill="rgb(255,0,0)" stroke-width="5" stroke="rgb(0,0,0)" />
	<path d="M433.029,3532 100,3532 100,3365.03 313.029,3152 813.029,3152 433.029,3532 z " fill-rule="evenodd" fill="rgb(255,0,0)" stroke-width="5" stroke="rgb(0,0,0)" />
	<path d="M2216.06,696 2150,762.059 2150,696 2216.06,696 z " fill-rule="evenodd" fill="rgb(255,0,0)" stroke-width="5" stroke="rgb(0,0,0)" />
	<path d="M2724.54,690 2224.54,690 2622.79,291.759 2978.51,436.038 2724.54,690 z " fill-rule="evenodd" fill="rgb(255,0,0)" stroke-width="5" stroke="rgb(0,0,0)" />
	<path d="M941.515,3532 441.515,3532 821.515,3152 1321.51,3152 941.515,3532 z " fill-rule="evenodd" fill="rgb(255,0,0)" stroke-width="5" stroke="rgb(0,0,0)" />
	<path d="M1450,3532 950,3532 1330,3152 1830,3152 1450,3532 z " fill-rule="evenodd" fill="rgb(255,0,0)" stroke-width="5" stroke="rgb(0,0,0)" />
	<path d="M2258.49,2726 2758.49,2726 2358.49,3126 2050,3126 2050,2952 2032.49,2952 2258.49,2726 z " fill-rule="evenodd" fill="rgb(255,0,0)" stroke-width="5" stroke="rgb(0,0,0)" />
	<path d="M5492.43,1502 5524.28,1470.15 5602.72,1502 5492.43,1502 z " fill-rule="evenodd" fill="rgb(255,0,0)" stroke-width="5" stroke="rgb(0,0,0)" />
	<path d="M433.029,3538 100,3871.03 100,3538 433.029,3538 z " fill-rule="evenodd" fill="rgb(255,0,0)" stroke-width="5" stroke="rgb(0,0,0)" />
	<path d="M2616.06,290 2216.06,690 2150,690 2150,290 2616.06,290 z " fill-rule="evenodd" fill="rgb(255,0,0)" stroke-width="5" stroke="rgb(0,0,0)" />
	<path d="M441.515,3538 941.515,3538 541.515,3938 100,3938 100,3879.51 441.515,3538 z " fill-rule="evenodd" fill="rgb(255,0,0)" stroke-width="5" stroke="rgb(0,0,0)" />
	<path d="M2358.49,3132 1958.49,3532 1458.49,3532 1838.49,3152 2050,3152 2050,3132 2358.49,3132 z " fill-rule="evenodd" fill="rgb(255,0,0)" stroke-width="5" stroke="rgb(0,0,0)" />
	<path d="M2366.97,3126 2766.97,2726 3266.97,2726 3040.97,2952 2850,2952 2850,3126 2366.97,3126 z " fill-rule="evenodd" fill="rgb(255,0,0)" stroke-width="5" stroke="rgb(0,0,0)" />
	<path d="M5592.43,1908 5092.43,1908 5492.43,1508 5617.49,1508 5884.15,1616.27 5592.43,1908 z " fill-rule="evenodd" fill="rgb(255,0,0)" stroke-width="5" stroke="rgb(0,0,0)" />
	<path d="M2150,284 2150,250.059 2256.76,143.301 2603.66,284 2150,284 z " fill-rule="evenodd" fill="rgb(255,0,0)" stroke-width="5" stroke="rgb(0,0,0)" />
	<path d="M541.515,3944 141.515,4344 100,4344 100,3944 541.515,3944 z " fill-rule="evenodd" fill="rgb(255,0,0)" stroke-width="5" stroke="rgb(0,0,0)" />
	<path d="M2466.97,3532 1966.97,3532 2366.97,3132 2850,3132 2850,3148.97 2466.97,3532 z " fill-rule="evenodd" fill="rgb(255,0,0)" stroke-width="5" stroke="rgb(0,0,0)" />
	<path d="M3275.46,2726 3775.46,2726 3549.46,2952 3049.46,2952 3275.46,2726 z " fill-rule="evenodd" fill="rgb(255,0,0)" stroke-width="5" stroke="rgb(0,0,0)" />
	<path d="M6100.91,1908 5600.91,1908 5890.19,1618.72 6245.8,1763.11 6100.91,1908 z " fill-rule="evenodd" fill="rgb(255,0,0)" stroke-width="5" stroke="rgb(0,0,0)" />
	<path d="M2150,241.574 2150,100 2250.72,140.852 2150,241.574 z " fill-rule="evenodd" fill="rgb(255,0,0)" stroke-width="5" stroke="rgb(0,0,0)" />
	<path d="M141.515,4350 100,4391.51 100,4350 141.515,4350 z " fill-rule="evenodd" fill="rgb(255,0,0)" stroke-width="5" stroke="rgb(0,0,0)" />
	<path d="M150,4350 650,4350 250,4750 100,4750 100,4400 150,4350 z " fill-rule="evenodd" fill="rgb(255,0,0)" stroke-width="5" stroke="rgb(0,0,0)" />
	<path d="M2475.46,3532 2855.46,3152 2900,3152 2900,3532 2475.46,3532 z " fill-rule="evenodd" fill="rgb(255,0,0)" stroke-width="5" stroke="rgb(0,0,0)" />
	<path d="M3883.94,3126 3700,3126 3700,3052 3957.94,3052 3883.94,3126 z " fill-rule="evenodd" fill="rgb(255,0,0)" stroke-width="5" stroke="rgb(0,0,0)" />
	<path d="M3783.94,2726 4283.94,2726 4057.94,2952 3557.94,2952 3783.94,2726 z " fill-rule="evenodd" fill="rgb(255,0,0)" stroke-width="5" stroke="rgb(0,0,0)" />
	<path d="M6109.4,1908 6251.83,1765.56 6602.63,1908 6109.4,1908 z " fill-rule="evenodd" fill="rgb(255,0,0)" stroke-width="5" stroke="rgb(0,0,0)" />
	<path d="M250,4756 100,4906 100,4756 250,4756 z " fill-rule="evenodd" fill="rgb(255,0,0)" stroke-width="5" stroke="rgb(0,0,0)" />
	<path d="M2575.46,3938 2075.46,3938 2475.46,3538 2900,3538 2900,3613.46 2575.46,3938 z " fill-rule="evenodd" fill="rgb(255,0,0)" stroke-width="5" stroke="rgb(0,0,0)" />
	<path d="M3883.94,3132 3700,3315.94 3700,3132 3883.94,3132 z " fill-rule="evenodd" fill="rgb(255,0,0)" stroke-width="5" stroke="rgb(0,0,0)" />
	<path d="M4292.43,2726 4792.43,2726 4392.43,3126 3892.43,3126 3966.43,3052 4200,3052 4200,2952 4066.43,2952 4292.43,2726 z " fill-rule="evenodd" fill="rgb(255,0,0)" stroke-width="5" stroke="rgb(0,0,0)" />
	<path d="M258.485,4756 758.485,4756 358.485,5156 100,5156 100,4914.49 258.485,4756 z " fill-rule="evenodd" fill="rgb(255,0,0)" stroke-width="5" stroke="rgb(0,0,0)" />
	<path d="M2583.94,3938 2900,3621.94 2900,3938 2583.94,3938 z " fill-rule="evenodd" fill="rgb(255,0,0)" stroke-width="5" stroke="rgb(0,0,0)" />
	<path d="M3892.43,3132 4392.43,3132 3992.43,3532 3700,3532 3700,3324.43 3892.43,3132 z " fill-rule="evenodd" fill="rgb(255,0,0)" stroke-width="5" stroke="rgb(0,0,0)" />
	<path d="M4900.91,3126 4400.91,3126 4800.91,2726 5300.91,2726 5050,2976.91 5050,2952 4900,2952 4900,3052 4950,3052 4950,3076.91 4900.91,3126 z " fill-rule="evenodd" fill="rgb(255,0,0)" stroke-width="5" stroke="rgb(0,0,0)" />
	<path d="M6717.88,2314 6217.88,2314 6617.75,1914.14 6973.36,2058.53 6717.88,2314 z " fill-rule="evenodd" fill="rgb(255,0,0)" stroke-width="5" stroke="rgb(0,0,0)" />
	<path d="M358.485,5162 100,5420.49 100,5162 358.485,5162 z " fill-rule="evenodd" fill="rgb(255,0,0)" stroke-width="5" stroke="rgb(0,0,0)" />
	<path d="M2683.94,4344 2183.94,4344 2583.94,3944 2900,3944 2900,4127.94 2683.94,4344 z " fill-rule="evenodd" fill="rgb(255,0,0)" stroke-width="5" stroke="rgb(0,0,0)" />
	<path d="M3992.43,3538 3700,3830.43 3700,3538 3992.43,3538 z " fill-rule="evenodd" fill="rgb(255,0,0)" stroke-width="5" stroke="rgb(0,0,0)" />
	<path d="M4909.4,3126 4950,3085.4 4950,3126 4909.4,3126 z " fill-rule="evenodd" fill="rgb(255,0,0)" stroke-width="5" stroke="rgb(0,0,0)" />
	<path d="M5309.4,2726 5809.4,2726 5409.4,3126 5050,3126 5050,2985.4 5309.4,2726 z " fill-rule="evenodd" fill="rgb(255,0,0)" stroke-width="5" stroke="rgb(0,0,0)" />
	<path d="M7226.37,2314 6726.37,2314 6979.39,2060.98 7335,2205.37 7226.37,2314 z " fill-rule="evenodd" fill="rgb(255,0,0)" stroke-width="5" stroke="rgb(0,0,0)" />
	<path d="M366.971,5162 866.971,5162 466.971,5562 100,5562 100,5428.97 366.971,5162 z " fill-rule="evenodd" fill="rgb(255,0,0)" stroke-width="5" stroke="rgb(0,0,0)" />
	<path d="M2692.43,4344 2900,4136.43 2900,4344 2692.43,4344 z " fill-rule="evenodd" fill="rgb(255,0,0)" stroke-width="5" stroke="rgb(0,0,0)" />
	<path d="M4000.91,3538 4500.91,3538 4100.91,3938 3700,3938 3700,3838.91 4000.91,3538 z " fill-rule="evenodd" fill="rgb(255,0,0)" stroke-width="5" stroke="rgb(0,0,0)" />
	<path d="M4509.4,3532 4909.4,3132 4950,3132 4950,3532 4509.4,3532 z " fill-rule="evenodd" fill="rgb(255,0,0)" stroke-width="5" stroke="rgb(0,0,0)" />
	<path d="M5409.4,3132 5050,3491.4 5050,3132 5409.4,3132 z " fill-rule="evenodd" fill="rgb(255,0,0)" stroke-width="5" stroke="rgb(0,0,0)" />
	<path d="M7234.85,2314 7341.04,2207.82 7602.55,2314 7234.85,2314 z " fill-rule="evenodd" fill="rgb(255,0,0)" stroke-width="5" stroke="rgb(0,0,0)" />
	<path d="M466.971,5568 100,5934.97 100,5568 466.971,5568 z " fill-rule="evenodd" fill="rgb(255,0,0)" stroke-width="5" stroke="rgb(0,0,0)" />
	<path d="M2792.43,4750 2292.43,4750 2692.43,4350 2900,4350 2900,4642.43 2792.43,4750 z " fill-rule="evenodd" fill="rgb(255,0,0)" stroke-width="5" stroke="rgb(0,0,0)" />
	<path d="M4100.91,3944 3700.91,4344 3700,4344 3700,3944 4100.91,3944 z " fill-rule="evenodd" fill="rgb(255,0,0)" stroke-width="5" stroke="rgb(0,0,0)" />
	<path d="M4609.4,3938 4109.4,3938 4509.4,3538 4950,3538 4950,3597.4 4609.4,3938 z " fill-rule="evenodd" fill="rgb(255,0,0)" stroke-width="5" stroke="rgb(0,0,0)" />
	<path d="M5417.88,3132 5917.88,3132 5517.88,3532 5050,3532 5050,3499.88 5417.88,3132 z " fill-rule="evenodd" fill="rgb(255,0,0)" stroke-width="5" stroke="rgb(0,0,0)" />
	<path d="M7334.85,2720 6834.85,2720 7234.85,2320 7617.32,2320 7700.91,2353.94 7334.85,2720 z " fill-rule="evenodd" fill="rgb(255,0,0)" stroke-width="5" stroke="rgb(0,0,0)" />
	<path d="M475.456,5568 975.456,5568 575.456,5968 100,5968 100,5943.46 475.456,5568 z " fill-rule="evenodd" fill="rgb(255,0,0)" stroke-width="5" stroke="rgb(0,0,0)" />
	<path d="M2800.91,4750 2900,4650.91 2900,4750 2800.91,4750 z " fill-rule="evenodd" fill="rgb(255,0,0)" stroke-width="5" stroke="rgb(0,0,0)" />
	<path d="M3700.91,4350 3700,4350.91 3700,4350 3700.91,4350 z " fill-rule="evenodd" fill="rgb(255,0,0)" stroke-width="5" stroke="rgb(0,0,0)" />
	<path d="M4617.88,3938 4950,3605.88 4950,3938 4617.88,3938 z " fill-rule="evenodd" fill="rgb(255,0,0)" stroke-width="5" stroke="rgb(0,0,0)" />
	<path d="M5517.88,3538 5117.88,3938 5050,3938 5050,3538 5517.88,3538 z " fill-rule="evenodd" fill="rgb(255,0,0)" stroke-width="5" stroke="rgb(0,0,0)" />
	<path d="M7843.34,2720 7343.34,2720 7706.95,2356.39 8062.56,2500.78 7843.34,2720 z " fill-rule="evenodd" fill="rgb(255,0,0)" stroke-width="5" stroke="rgb(0,0,0)" />
	<path d="M575.456,5974 175.456,6374 100,6374 100,5974 575.456,5974 z " fill-rule="evenodd" fill="rgb(255,0,0)" stroke-width="5" stroke="rgb(0,0,0)" />
	<path d="M2400.91,5156 2800.91,4756 2900,4756 2900,5156 2400.91,5156 z " fill-rule="evenodd" fill="rgb(255,0,0)" stroke-width="5" stroke="rgb(0,0,0)" />
	<path d="M3709.4,4350 4209.4,4350 3809.4,4750 3700,4750 3700,4359.4 3709.4,4350 z " fill-rule="evenodd" fill="rgb(255,0,0)" stroke-width="5" stroke="rgb(0,0,0)" />
	<path d="M4717.88,4344 4217.88,4344 4617.88,3944 4950,3944 4950,4111.88 4717.88,4344 z " fill-rule="evenodd" fill="rgb(255,0,0)" stroke-width="5" stroke="rgb(0,0,0)" />
	<path d="M5117.88,3944 5050,4011.88 5050,3944 5117.88,3944 z " fill-rule="evenodd" fill="rgb(255,0,0)" stroke-width="5" stroke="rgb(0,0,0)" />
	<path d="M8351.82,2720 7851.82,2720 8068.59,2503.23 8424.2,2647.62 8351.82,2720 z " fill-rule="evenodd" fill="rgb(255,0,0)" stroke-width="5" stroke="rgb(0,0,0)" />
	<path d="M175.456,6380 100,6455.46 100,6380 175.456,6380 z " fill-rule="evenodd" fill="rgb(255,0,0)" stroke-width="5" stroke="rgb(0,0,0)" />
	<path d="M2500.91,5562 2000.91,5562 2400.91,5162 2900,5162 2900,5162.91 2500.91,5562 z " fill-rule="evenodd" fill="rgb(255,0,0)" stroke-width="5" stroke="rgb(0,0,0)" />
	<path d="M3809.4,4756 3700,4865.4 3700,4756 3809.4,4756 z " fill-rule="evenodd" fill="rgb(255,0,0)" stroke-width="5" stroke="rgb(0,0,0)" />
	<path d="M4726.37,4344 4950,4120.37 4950,4344 4726.37,4344 z " fill-rule="evenodd" fill="rgb(255,0,0)" stroke-width="5" stroke="rgb(0,0,0)" />
	<path d="M5126.37,3944 5626.37,3944 5226.37,4344 5050,4344 5050,4020.37 5126.37,3944 z " fill-rule="evenodd" fill="rgb(255,0,0)" stroke-width="5" stroke="rgb(0,0,0)" />
	<path d="M8360.31,2720 8430.24,2650.07 8600,2719 8600,2720 8360.31,2720 z " fill-rule="evenodd" fill="rgb(255,0,0)" stroke-width="5" stroke="rgb(0,0,0)" />
	<path d="M183.941,6380 683.941,6380 283.941,6780 100,6780 100,6463.94 183.941,6380 z " fill-rule="evenodd" fill="rgb(255,0,0)" stroke-width="5" stroke="rgb(0,0,0)" />
	<path d="M2509.4,5562 2900,5171.4 2900,5562 2509.4,5562 z " fill-rule="evenodd" fill="rgb(255,0,0)" stroke-width="5" stroke="rgb(0,0,0)" />
	<path d="M3817.88,4756 4317.88,4756 4121.88,4952 3700,4952 3700,4873.88 3817.88,4756 z " fill-rule="evenodd" fill="rgb(255,0,0)" stroke-width="5" stroke="rgb(0,0,0)" />
	<path d="M4826.37,4750 4326.37,4750 4726.37,4350 4950,4350 4950,4626.37 4826.37,4750 z " fill-rule="evenodd" fill="rgb(255,0,0)" stroke-width="5" stroke="rgb(0,0,0)" />
	<path d="M5226.37,4350 5050,4526.37 5050,4350 5226.37,4350 z " fill-rule="evenodd" fill="rgb(255,0,0)" stroke-width="5" stroke="rgb(0,0,0)" />
	<path d="M8460.31,3126 7960.31,3126 8360.31,2726 8600,2726 8600,2986.31 8460.31,3126 z " fill-rule="evenodd" fill="rgb(255,0,0)" stroke-width="5" stroke="rgb(0,0,0)" />
	<path d="M283.941,6786 117.941,6952 100,6952 100,6786 283.941,6786 z " fill-rule="evenodd" fill="rgb(255,0,0)" stroke-width="5" stroke="rgb(0,0,0)" />
	<path d="M2609.4,5968 2109.4,5968 2509.4,5568 2900,5568 2900,5677.4 2609.4,5968 z " fill-rule="evenodd" fill="rgb(255,0,0)" stroke-width="5" stroke="rgb(0,0,0)" />
	<path d="M4326.37,4756 4826.37,4756 4630.37,4952 4130.37,4952 4326.37,4756 z " fill-rule="evenodd" fill="rgb(255,0,0)" stroke-width="5" stroke="rgb(0,0,0)" />
	<path d="M4834.85,4750 4950,4634.85 4950,4750 4834.85,4750 z " fill-rule="evenodd" fill="rgb(255,0,0)" stroke-width="5" stroke="rgb(0,0,0)" />
	<path d="M5234.85,4350 5734.85,4350 5334.85,4750 5050,4750 5050,4534.85 5234.85,4350 z " fill-rule="evenodd" fill="rgb(255,0,0)" stroke-width="5" stroke="rgb(0,0,0)" />
	<path d="M8468.79,3126 8600,2994.79 8600,3126 8468.79,3126 z " fill-rule="evenodd" fill="rgb(255,0,0)" stroke-width="5" stroke="rgb(0,0,0)" />
	<path d="M292.426,6786 792.426,6786 626.426,6952 126.426,6952 292.426,6786 z " fill-rule="evenodd" fill="rgb(255,0,0)" stroke-width="5" stroke="rgb(0,0,0)" />
	<path d="M2617.88,5968 2900,5685.88 2900,5968 2617.88,5968 z " fill-rule="evenodd" fill="rgb(255,0,0)" stroke-width="5" stroke="rgb(0,0,0)" />
	<path d="M5334.85,4756 5050,5040.85 5050,4756 5334.85,4756 z " fill-rule="evenodd" fill="rgb(255,0,0)" stroke-width="5" stroke="rgb(0,0,0)" />
	<path d="M4834.85,4756 4950,4756 4950,4952 4638.85,4952 4834.85,4756 z " fill-rule="evenodd" fill="rgb(255,0,0)" stroke-width="5" stroke="rgb(0,0,0)" />
	<path d="M8568.79,3532 8068.79,3532 8468.79,3132 8600,3132 8600,3500.79 8568.79,3532 z " fill-rule="evenodd" fill="rgb(255,0,0)" stroke-width="5" stroke="rgb(0,0,0)" />
	<path d="M800.912,6786 1300.91,6786 1134.91,6952 634.912,6952 800.912,6786 z " fill-rule="evenodd" fill="rgb(255,0,0)" stroke-width="5" stroke="rgb(0,0,0)" />
	<path d="M2717.88,6374 2217.88,6374 2617.88,5974 2900,5974 2900,6052 3039.88,6052 2717.88,6374 z " fill-rule="evenodd" fill="rgb(255,0,0)" stroke-width="5" stroke="rgb(0,0,0)" />
	<path d="M5343.34,4756 5843.34,4756 5443.34,5156 5050,5156 5050,5049.34 5343.34,4756 z " fill-rule="evenodd" fill="rgb(255,0,0)" stroke-width="5" stroke="rgb(0,0,0)" />
	<path d="M8577.28,3532 8600,3509.28 8600,3532 8577.28,3532 z " fill-rule="evenodd" fill="rgb(255,0,0)" stroke-width="5" stroke="rgb(0,0,0)" />
	<path d="M1309.4,6786 1809.4,6786 1643.4,6952 1143.4,6952 1309.4,6786 z " fill-rule="evenodd" fill="rgb(255,0,0)" stroke-width="5" stroke="rgb(0,0,0)" />
	<path d="M2726.37,6374 3048.37,6052 3100,6052 3100,6374 2726.37,6374 z " fill-rule="evenodd" fill="rgb(255,0,0)" stroke-width="5" stroke="rgb(0,0,0)" />
	<path d="M5443.34,5162 5053.34,5552 5050,5552 5050,5162 5443.34,5162 z " fill-rule="evenodd" fill="rgb(255,0,0)" stroke-width="5" stroke="rgb(0,0,0)" />
	<path d="M8177.28,3938 8577.28,3538 8600,3538 8600,3938 8177.28,3938 z " fill-rule="evenodd" fill="rgb(255,0,0)" stroke-width="5" stroke="rgb(0,0,0)" />
	<path d="M1817.88,6786 2317.88,6786 2151.88,6952 1651.88,6952 1817.88,6786 z " fill-rule="evenodd" fill="rgb(255,0,0)" stroke-width="5" stroke="rgb(0,0,0)" />
	<path d="M2826.37,6780 2326.37,6780 2726.37,6380 3100,6380 3100,6506.37 2826.37,6780 z " fill-rule="evenodd" fill="rgb(255,0,0)" stroke-width="5" stroke="rgb(0,0,0)" />
	<path d="M5451.82,5162 5951.82,5162 5561.82,5552 5061.82,5552 5451.82,5162 z " fill-rule="evenodd" fill="rgb(255,0,0)" stroke-width="5" stroke="rgb(0,0,0)" />
	<path d="M8277.28,4344 7777.28,4344 8177.28,3944 8600,3944 8600,4021.28 8277.28,4344 z " fill-rule="evenodd" fill="rgb(255,0,0)" stroke-width="5" stroke="rgb(0,0,0)" />
	<path d="M2326.37,6786 2826.37,6786 2660.37,6952 2160.37,6952 2326.37,6786 z " fill-rule="evenodd" fill="rgb(255,0,0)" stroke-width="5" stroke="rgb(0,0,0)" />
	<path d="M2834.85,6780 3100,6514.85 3100,6780 2834.85,6780 z " fill-rule="evenodd" fill="rgb(255,0,0)" stroke-width="5" stroke="rgb(0,0,0)" />
	<path d="M5960.31,5162 6460.31,5162 6070.31,5552 5570.31,5552 5960.31,5162 z " fill-rule="evenodd" fill="rgb(255,0,0)" stroke-width="5" stroke="rgb(0,0,0)" />
	<path d="M8285.76,4344 8600,4029.76 8600,4344 8285.76,4344 z " fill-rule="evenodd" fill="rgb(255,0,0)" stroke-width="5" stroke="rgb(0,0,0)" />
	<path d="M2834.85,6786 3100,6786 3100,6852 2900,6852 2900,6952 2668.85,6952 2834.85,6786 z " fill-rule="evenodd" fill="rgb(255,0,0)" stroke-width="5" stroke="rgb(0,0,0)" />
	<path d="M6468.79,5162 6968.79,5162 6578.79,5552 6078.79,5552 6468.79,5162 z " fill-rule="evenodd" fill="rgb(255,0,0)" stroke-width="5" stroke="rgb(0,0,0)" />
	<path d="M8385.76,4750 7885.76,4750 8285.76,4350 8600,4350 8600,4535.76 8385.76,4750 z " fill-rule="evenodd" fill="rgb(255,0,0)" stroke-width="5" stroke="rgb(0,0,0)" />
	<path d="M6977.28,5162 7477.28,5162 7087.28,5552 6587.28,5552 6977.28,5162 z " fill-rule="evenodd" fill="rgb(255,0,0)" stroke-width="5" stroke="rgb(0,0,0)" />
	<path d="M8394.25,4750 8600,4544.25 8600,4750 8394.25,4750 z " fill-rule="evenodd" fill="rgb(255,0,0)" stroke-width="5" stroke="rgb(0,0,0)" />
	<path d="M7485.76,5162 7985.76,5162 7595.76,5552 7095.76,5552 7485.76,5162 z " fill-rule="evenodd" fill="rgb(255,0,0)" stroke-width="5" stroke="rgb(0,0,0)" />
	<path d="M8494.25,5156 7994.25,5156 8394.25,4756 8600,4756 8600,5050.25 8494.25,5156 z " fill-rule="evenodd" fill="rgb(255,0,0)" stroke-width="5" stroke="rgb(0,0,0)" />
	<path d="M7994.25,5162 8494.25,5162 8104.25,5552 7604.25,5552 7994.25,5162 z " fill-rule="evenodd" fill="rgb(255,0,0)" stroke-width="5" stroke="rgb(0,0,0)" />
	<path d="M8502.74,5156 8600,5058.74 8600,5156 8502.74,5156 z " fill-rule="evenodd" fill="rgb(255,0,0)" stroke-width="5" stroke="rgb(0,0,0)" />
	<path d="M8502.74,5162 8600,5162 8600,5552 8112.74,5552 8502.74,5162 z " fill-rule="evenodd" fill="rgb(255,0,0)" stroke-width="5" stroke="rgb(0,0,0)" />
	<polyline points="2945,1507 3445,1507 2945,1507 2945,1007 2945,1507 " fill="none" stroke-width="100" stroke="rgb(0,0,0)" />
	<circle cx="2945" cy="1507" r="-8.33333" fill="rgb(0,0,0)" />
	<circle cx="3445" cy="1507" r="-8.33333" fill="rgb(0,0,0)" />
	<circle cx="2945" cy="1507" r="-8.33333" fill="rgb(0,0,0)" />
	<circle cx="2945" cy="1007" r="-8.33333" fill="rgb(0,0,0)" />
	<circle cx="2945" cy="1507" r="-8.33333" fill="rgb(0,0,0)" />
	<polyline points="2945,2057 2945,1507 2395,1507 " fill="none" stroke-width="0.5" stroke="rgb(128,0,128)" />
</svg>
