<?xml version="1.0" standalone="no" ?>
<!DOCTYPE svg PUBLIC "-//W3C//DTD SVG 1.1//EN" "http://www.w3.org/Graphics/SVG/1.1/DTD/svg11.dtd">
<svg width="8700px" height="7052px" xmlns="http://www.w3.org/2000/svg" version="1.1" >
	<path d="M398,1803 398,2403 698,2403 698,1803 398,1803 z " fill-rule="evenodd" fill="rgb(0,128,0)" stroke-width="5" stroke="rgb(0,0,0)" />
	<path d="M700,1502 700,2102 1000,2102 1000,1502 700,1502 z " fill-rule="evenodd" fill="rgb(0,128,0)" stroke-width="5" stroke="rgb(0,0,0)" />
	<path d="M700,2104 700,2704 1000,2704 1000,2104 700,2104 z " fill-rule="evenodd" fill="rgb(0,128,0)" stroke-width="5" stroke="rgb(0,0,0)" />
	<path d="M1002,1803 1002,2403 1302,2403 1302,1803 1002,1803 z " fill-rule="evenodd" fill="rgb(0,128,0)" stroke-width="5" stroke="rgb(0,0,0)" />
	<path d="M1304,2104 1304,2704 1604,2704 1604,2104 1304,2104 z " fill-rule="evenodd" fill="rgb(0,128,0)" stroke-width="5" stroke="rgb(0,0,0)" />
	<path d="M1304,3308 1304,3908 1604,3908 1604,3308 1304,3308 z " fill-rule="evenodd" fill="rgb(0,128,0)" stroke-width="5" stroke="rgb(0,0,0)" />
	<path d="M700,3308 700,3908 1000,3908 1000,3308 700,3308 z " fill-rule="evenodd" fill="rgb(0,128,0)" stroke-width="5" stroke="rgb(0,0,0)" />
	<path d="M1002,3609 1002,4209 1302,4209 1302,3609 1002,3609 z " fill-rule="evenodd" fill="rgb(0,128,0)" stroke-width="5" stroke="rgb(0,0,0)" />
	<path d="M1304,3910 1304,4510 1604,4510 1604,3910 1304,3910 z " fill-rule="evenodd" fill="rgb(0,128,0)" stroke-width="5" stroke="rgb(0,0,0)" />
	<path d="M1606,1803 1606,2403 1906,2403 1906,1803 1606,1803 z " fill-rule="evenodd" fill="rgb(0,128,0)" stroke-width="5" stroke="rgb(0,0,0)" />
	<path d="M1606,3609 1606,4209 1906,4209 1906,3609 1606,3609 z " fill-rule="evenodd" fill="rgb(0,128,0)" stroke-width="5" stroke="rgb(0,0,0)" />
	<path d="M1606,4211 1606,4811 1906,4811 1906,4211 1606,4211 z " fill-rule="evenodd" fill="rgb(0,128,0)" stroke-width="5" stroke="rgb(0,0,0)" />
	<path d="M398,3609 398,4209 698,4209 698,3609 398,3609 z " fill-rule="evenodd" fill="rgb(0,128,0)" stroke-width="5" stroke="rgb(0,0,0)" />
	<path d="M700,3910 700,4510 1000,4510 1000,3910 700,3910 z " fill-rule="evenodd" fill="rgb(0,128,0)" stroke-width="5" stroke="rgb(0,0,0)" />
	<path d="M1002,4211 1002,4811 1302,4811 1302,4211 1002,4211 z " fill-rule="evenodd" fill="rgb(0,128,0)" stroke-width="5" stroke="rgb(0,0,0)" />
	<path d="M1304,4512 1304,5112 1604,5112 1604,4512 1304,4512 z " fill-rule="evenodd" fill="rgb(0,128,0)" stroke-width="5" stroke="rgb(0,0,0)" />
	<path d="M1606,4813 1606,5413 1906,5413 1906,4813 1606,4813 z " fill-rule="evenodd" fill="rgb(0,128,0)" stroke-width="5" stroke="rgb(0,0,0)" />
	<path d="M1908,2104 1908,2704 2208,2704 2208,2104 1908,2104 z " fill-rule="evenodd" fill="rgb(0,128,0)" stroke-width="5" stroke="rgb(0,0,0)" />
	<path d="M1908,3308 1908,3908 2208,3908 2208,3308 1908,3308 z " fill-rule="evenodd" fill="rgb(0,128,0)" stroke-width="5" stroke="rgb(0,0,0)" />
	<path d="M1908,3910 1908,4510 2208,4510 2208,3910 1908,3910 z " fill-rule="evenodd" fill="rgb(0,128,0)" stroke-width="5" stroke="rgb(0,0,0)" />
	<path d="M1908,4512 1908,5112 2208,5112 2208,4512 1908,4512 z " fill-rule="evenodd" fill="rgb(0,128,0)" stroke-width="5" stroke="rgb(0,0,0)" />
	<path d="M1908,5114 1908,5714 2208,5714 2208,5114 1908,5114 z " fill-rule="evenodd" fill="rgb(0,128,0)" stroke-width="5" stroke="rgb(0,0,0)" />
	<path d="M398,4211 398,4811 698,4811 698,4211 398,4211 z " fill-rule="evenodd" fill="rgb(0,128,0)" stroke-width="5" stroke="rgb(0,0,0)" />
	<path d="M700,4512 700,5112 1000,5112 1000,4512 700,4512 z " fill-rule="evenodd" fill="rgb(0,128,0)" stroke-width="5" stroke="rgb(0,0,0)" />
	<path d="M1002,4813 1002,5413 1302,5413 1302,4813 1002,4813 z " fill-rule="evenodd" fill="rgb(0,128,0)" stroke-width="5" stroke="rgb(0,0,0)" />
	<path d="M1304,5114 1304,5714 1604,5714 1604,5114 1304,5114 z " fill-rule="evenodd" fill="rgb(0,128,0)" stroke-width="5" stroke="rgb(0,0,0)" />
	<path d="M1606,5415 1606,6015 1906,6015 1906,5415 1606,5415 z " fill-rule="evenodd" fill="rgb(0,128,0)" stroke-width="5" stroke="rgb(0,0,0)" />
	<path d="M1908,5716 1908,6316 2208,6316 2208,5716 1908,5716 z " fill-rule="evenodd" fill="rgb(0,128,0)" stroke-width="5" stroke="rgb(0,0,0)" />
	<path d="M2210,599 2210,1199 2510,1199 2510,599 2210,599 z " fill-rule="evenodd" fill="rgb(0,128,0)" stroke-width="5" stroke="rgb(0,0,0)" />
	<path d="M2210,1201 2210,1801 2510,1801 2510,1201 2210,1201 z " fill-rule="evenodd" fill="rgb(0,128,0)" stroke-width="5" stroke="rgb(0,0,0)" />
	<path d="M2210,1803 2210,2403 2510,2403 2510,1803 2210,1803 z " fill-rule="evenodd" fill="rgb(0,128,0)" stroke-width="5" stroke="rgb(0,0,0)" />
	<path d="M2210,2405 2210,3005 2510,3005 2510,2405 2210,2405 z " fill-rule="evenodd" fill="rgb(0,128,0)" stroke-width="5" stroke="rgb(0,0,0)" />
	<path d="M2210,3007 2210,3607 2510,3607 2510,3007 2210,3007 z " fill-rule="evenodd" fill="rgb(0,128,0)" stroke-width="5" stroke="rgb(0,0,0)" />
	<path d="M2210,3609 2210,4209 2510,4209 2510,3609 2210,3609 z " fill-rule="evenodd" fill="rgb(0,128,0)" stroke-width="5" stroke="rgb(0,0,0)" />
	<path d="M2210,4211 2210,4811 2510,4811 2510,4211 2210,4211 z " fill-rule="evenodd" fill="rgb(0,128,0)" stroke-width="5" stroke="rgb(0,0,0)" />
	<path d="M2210,4813 2210,5413 2510,5413 2510,4813 2210,4813 z " fill-rule="evenodd" fill="rgb(0,128,0)" stroke-width="5" stroke="rgb(0,0,0)" />
	<path d="M2210,5415 2210,6015 2510,6015 2510,5415 2210,5415 z " fill-rule="evenodd" fill="rgb(0,128,0)" stroke-width="5" stroke="rgb(0,0,0)" />
	<path d="M2210,6017 2210,6617 2510,6617 2510,6017 2210,6017 z " fill-rule="evenodd" fill="rgb(0,128,0)" stroke-width="5" stroke="rgb(0,0,0)" />
	<path d="M398,4813 398,5413 698,5413 698,4813 398,4813 z " fill-rule="evenodd" fill="rgb(0,128,0)" stroke-width="5" stroke="rgb(0,0,0)" />
	<path d="M700,5114 700,5714 1000,5714 1000,5114 700,5114 z " fill-rule="evenodd" fill="rgb(0,128,0)" stroke-width="5" stroke="rgb(0,0,0)" />
	<path d="M1002,5415 1002,6015 1302,6015 1302,5415 1002,5415 z " fill-rule="evenodd" fill="rgb(0,128,0)" stroke-width="5" stroke="rgb(0,0,0)" />
	<path d="M1304,5716 1304,6316 1604,6316 1604,5716 1304,5716 z " fill-rule="evenodd" fill="rgb(0,128,0)" stroke-width="5" stroke="rgb(0,0,0)" />
	<path d="M1606,6017 1606,6617 1906,6617 1906,6017 1606,6017 z " fill-rule="evenodd" fill="rgb(0,128,0)" stroke-width="5" stroke="rgb(0,0,0)" />
	<path d="M1908,6318 1908,6918 2208,6918 2208,6318 1908,6318 z " fill-rule="evenodd" fill="rgb(0,128,0)" stroke-width="5" stroke="rgb(0,0,0)" />
	<path d="M2512,900 2512,1500 2812,1500 2812,900 2512,900 z " fill-rule="evenodd" fill="rgb(0,128,0)" stroke-width="5" stroke="rgb(0,0,0)" />
	<path d="M2512,1502 2512,2102 2812,2102 2812,1502 2512,1502 z " fill-rule="evenodd" fill="rgb(0,128,0)" stroke-width="5" stroke="rgb(0,0,0)" />
	<path d="M2512,2104 2512,2704 2812,2704 2812,2104 2512,2104 z " fill-rule="evenodd" fill="rgb(0,128,0)" stroke-width="5" stroke="rgb(0,0,0)" />
	<path d="M2512,2706 2512,3306 2812,3306 2812,2706 2512,2706 z " fill-rule="evenodd" fill="rgb(0,128,0)" stroke-width="5" stroke="rgb(0,0,0)" />
	<path d="M2512,3308 2512,3908 2812,3908 2812,3308 2512,3308 z " fill-rule="evenodd" fill="rgb(0,128,0)" stroke-width="5" stroke="rgb(0,0,0)" />
	<path d="M2512,3910 2512,4510 2812,4510 2812,3910 2512,3910 z " fill-rule="evenodd" fill="rgb(0,128,0)" stroke-width="5" stroke="rgb(0,0,0)" />
	<path d="M2512,4512 2512,5112 2812,5112 2812,4512 2512,4512 z " fill-rule="evenodd" fill="rgb(0,128,0)" stroke-width="5" stroke="rgb(0,0,0)" />
	<path d="M2512,5114 2512,5714 2812,5714 2812,5114 2512,5114 z " fill-rule="evenodd" fill="rgb(0,128,0)" stroke-width="5" stroke="rgb(0,0,0)" />
	<path d="M2512,5716 2512,6316 2812,6316 2812,5716 2512,5716 z " fill-rule="evenodd" fill="rgb(0,128,0)" stroke-width="5" stroke="rgb(0,0,0)" />
	<path d="M2512,6318 2512,6918 2812,6918 2812,6318 2512,6318 z " fill-rule="evenodd" fill="rgb(0,128,0)" stroke-width="5" stroke="rgb(0,0,0)" />
	<path d="M398,5415 398,6015 698,6015 698,5415 398,5415 z " fill-rule="evenodd" fill="rgb(0,128,0)" stroke-width="5" stroke="rgb(0,0,0)" />
	<path d="M700,5716 700,6316 1000,6316 1000,5716 700,5716 z " fill-rule="evenodd" fill="rgb(0,128,0)" stroke-width="5" stroke="rgb(0,0,0)" />
	<path d="M1002,6017 1002,6617 1302,6617 1302,6017 1002,6017 z " fill-rule="evenodd" fill="rgb(0,128,0)" stroke-width="5" stroke="rgb(0,0,0)" />
	<path d="M1304,6318 1304,6918 1604,6918 1604,6318 1304,6318 z " fill-rule="evenodd" fill="rgb(0,128,0)" stroke-width="5" stroke="rgb(0,0,0)" />
	<path d="M2814,599 2814,1199 3114,1199 3114,599 2814,599 z " fill-rule="evenodd" fill="rgb(0,128,0)" stroke-width="5" stroke="rgb(0,0,0)" />
	<path d="M2814,1803 2814,2403 3114,2403 3114,1803 2814,1803 z " fill-rule="evenodd" fill="rgb(0,128,0)" stroke-width="5" stroke="rgb(0,0,0)" />
	<path d="M398,6017 398,6617 698,6617 698,6017 398,6017 z " fill-rule="evenodd" fill="rgb(0,128,0)" stroke-width="5" stroke="rgb(0,0,0)" />
	<path d="M700,6318 700,6918 1000,6918 1000,6318 700,6318 z " fill-rule="evenodd" fill="rgb(0,128,0)" stroke-width="5" stroke="rgb(0,0,0)" />
	<path d="M3116,2104 3116,2704 3416,2704 3416,2104 3116,2104 z " fill-rule="evenodd" fill="rgb(0,128,0)" stroke-width="5" stroke="rgb(0,0,0)" />
	<path d="M3418,1201 3418,1801 3718,1801 3718,1201 3418,1201 z " fill-rule="evenodd" fill="rgb(0,128,0)" stroke-width="5" stroke="rgb(0,0,0)" />
	<path d="M3418,1803 3418,2403 3718,2403 3718,1803 3418,1803 z " fill-rule="evenodd" fill="rgb(0,128,0)" stroke-width="5" stroke="rgb(0,0,0)" />
	<path d="M3720,900 3720,1500 4020,1500 4020,900 3720,900 z " fill-rule="evenodd" fill="rgb(0,128,0)" stroke-width="5" stroke="rgb(0,0,0)" />
	<path d="M3720,1502 3720,2102 4020,2102 4020,1502 3720,1502 z " fill-rule="evenodd" fill="rgb(0,128,0)" stroke-width="5" stroke="rgb(0,0,0)" />
	<path d="M3720,2104 3720,2704 4020,2704 4020,2104 3720,2104 z " fill-rule="evenodd" fill="rgb(0,128,0)" stroke-width="5" stroke="rgb(0,0,0)" />
	<path d="M3720,3308 3720,3908 4020,3908 4020,3308 3720,3308 z " fill-rule="evenodd" fill="rgb(0,128,0)" stroke-width="5" stroke="rgb(0,0,0)" />
	<path d="M3720,3910 3720,4510 4020,4510 4020,3910 3720,3910 z " fill-rule="evenodd" fill="rgb(0,128,0)" stroke-width="5" stroke="rgb(0,0,0)" />
	<path d="M4022,1201 4022,1801 4322,1801 4322,1201 4022,1201 z " fill-rule="evenodd" fill="rgb(0,128,0)" stroke-width="5" stroke="rgb(0,0,0)" />
	<path d="M4022,1803 4022,2403 4322,2403 4322,1803 4022,1803 z " fill-rule="evenodd" fill="rgb(0,128,0)" stroke-width="5" stroke="rgb(0,0,0)" />
	<path d="M4022,3609 4022,4209 4322,4209 4322,3609 4022,3609 z " fill-rule="evenodd" fill="rgb(0,128,0)" stroke-width="5" stroke="rgb(0,0,0)" />
	<path d="M4022,4211 4022,4811 4322,4811 4322,4211 4022,4211 z " fill-rule="evenodd" fill="rgb(0,128,0)" stroke-width="5" stroke="rgb(0,0,0)" />
	<path d="M4324,1502 4324,2102 4624,2102 4624,1502 4324,1502 z " fill-rule="evenodd" fill="rgb(0,128,0)" stroke-width="5" stroke="rgb(0,0,0)" />
	<path d="M4324,2104 4324,2704 4624,2704 4624,2104 4324,2104 z " fill-rule="evenodd" fill="rgb(0,128,0)" stroke-width="5" stroke="rgb(0,0,0)" />
	<path d="M4324,2706 4324,3306 4624,3306 4624,2706 4324,2706 z " fill-rule="evenodd" fill="rgb(0,128,0)" stroke-width="5" stroke="rgb(0,0,0)" />
	<path d="M4324,3308 4324,3908 4624,3908 4624,3308 4324,3308 z " fill-rule="evenodd" fill="rgb(0,128,0)" stroke-width="5" stroke="rgb(0,0,0)" />
	<path d="M4324,3910 4324,4510 4624,4510 4624,3910 4324,3910 z " fill-rule="evenodd" fill="rgb(0,128,0)" stroke-width="5" stroke="rgb(0,0,0)" />
	<path d="M4626,1803 4626,2403 4926,2403 4926,1803 4626,1803 z " fill-rule="evenodd" fill="rgb(0,128,0)" stroke-width="5" stroke="rgb(0,0,0)" />
	<path d="M4626,3609 4626,4209 4926,4209 4926,3609 4626,3609 z " fill-rule="evenodd" fill="rgb(0,128,0)" stroke-width="5" stroke="rgb(0,0,0)" />
	<path d="M4626,4211 4626,4811 4926,4811 4926,4211 4626,4211 z " fill-rule="evenodd" fill="rgb(0,128,0)" stroke-width="5" stroke="rgb(0,0,0)" />
	<path d="M4928,1502 4928,2102 5228,2102 5228,1502 4928,1502 z " fill-rule="evenodd" fill="rgb(0,128,0)" stroke-width="5" stroke="rgb(0,0,0)" />
	<path d="M4928,2104 4928,2704 5228,2704 5228,2104 4928,2104 z " fill-rule="evenodd" fill="rgb(0,128,0)" stroke-width="5" stroke="rgb(0,0,0)" />
	<path d="M5230,1803 5230,2403 5530,2403 5530,1803 5230,1803 z " fill-rule="evenodd" fill="rgb(0,128,0)" stroke-width="5" stroke="rgb(0,0,0)" />
	<path d="M5230,2405 5230,3005 5530,3005 5530,2405 5230,2405 z " fill-rule="evenodd" fill="rgb(0,128,0)" stroke-width="5" stroke="rgb(0,0,0)" />
	<path d="M5230,3007 5230,3607 5530,3607 5530,3007 5230,3007 z " fill-rule="evenodd" fill="rgb(0,128,0)" stroke-width="5" stroke="rgb(0,0,0)" />
	<path d="M5230,3609 5230,4209 5530,4209 5530,3609 5230,3609 z " fill-rule="evenodd" fill="rgb(0,128,0)" stroke-width="5" stroke="rgb(0,0,0)" />
	<path d="M5230,4211 5230,4811 5530,4811 5530,4211 5230,4211 z " fill-rule="evenodd" fill="rgb(0,128,0)" stroke-width="5" stroke="rgb(0,0,0)" />
	<path d="M5230,4813 5230,5413 5530,5413 5530,4813 5230,4813 z " fill-rule="evenodd" fill="rgb(0,128,0)" stroke-width="5" stroke="rgb(0,0,0)" />
	<path d="M5532,2104 5532,2704 5832,2704 5832,2104 5532,2104 z " fill-rule="evenodd" fill="rgb(0,128,0)" stroke-width="5" stroke="rgb(0,0,0)" />
	<path d="M5532,2706 5532,3306 5832,3306 5832,2706 5532,2706 z " fill-rule="evenodd" fill="rgb(0,128,0)" stroke-width="5" stroke="rgb(0,0,0)" />
	<path d="M5532,3308 5532,3908 5832,3908 5832,3308 5532,3308 z " fill-rule="evenodd" fill="rgb(0,128,0)" stroke-width="5" stroke="rgb(0,0,0)" />
	<path d="M5532,3910 5532,4510 5832,4510 5832,3910 5532,3910 z " fill-rule="evenodd" fill="rgb(0,128,0)" stroke-width="5" stroke="rgb(0,0,0)" />
	<path d="M5532,4512 5532,5112 5832,5112 5832,4512 5532,4512 z " fill-rule="evenodd" fill="rgb(0,128,0)" stroke-width="5" stroke="rgb(0,0,0)" />
	<path d="M5834,1803 5834,2403 6134,2403 6134,1803 5834,1803 z " fill-rule="evenodd" fill="rgb(0,128,0)" stroke-width="5" stroke="rgb(0,0,0)" />
	<path d="M5834,2405 5834,3005 6134,3005 6134,2405 5834,2405 z " fill-rule="evenodd" fill="rgb(0,128,0)" stroke-width="5" stroke="rgb(0,0,0)" />
	<path d="M5834,3007 5834,3607 6134,3607 6134,3007 5834,3007 z " fill-rule="evenodd" fill="rgb(0,128,0)" stroke-width="5" stroke="rgb(0,0,0)" />
	<path d="M5834,3609 5834,4209 6134,4209 6134,3609 5834,3609 z " fill-rule="evenodd" fill="rgb(0,128,0)" stroke-width="5" stroke="rgb(0,0,0)" />
	<path d="M5834,4211 5834,4811 6134,4811 6134,4211 5834,4211 z " fill-rule="evenodd" fill="rgb(0,128,0)" stroke-width="5" stroke="rgb(0,0,0)" />
	<path d="M5834,4813 5834,5413 6134,5413 6134,4813 5834,4813 z " fill-rule="evenodd" fill="rgb(0,128,0)" stroke-width="5" stroke="rgb(0,0,0)" />
	<path d="M6136,2104 6136,2704 6436,2704 6436,2104 6136,2104 z " fill-rule="evenodd" fill="rgb(0,128,0)" stroke-width="5" stroke="rgb(0,0,0)" />
	<path d="M6136,2706 6136,3306 6436,3306 6436,2706 6136,2706 z " fill-rule="evenodd" fill="rgb(0,128,0)" stroke-width="5" stroke="rgb(0,0,0)" />
	<path d="M6136,3308 6136,3908 6436,3908 6436,3308 6136,3308 z " fill-rule="evenodd" fill="rgb(0,128,0)" stroke-width="5" stroke="rgb(0,0,0)" />
	<path d="M6136,3910 6136,4510 6436,4510 6436,3910 6136,3910 z " fill-rule="evenodd" fill="rgb(0,128,0)" stroke-width="5" stroke="rgb(0,0,0)" />
	<path d="M6136,4512 6136,5112 6436,5112 6436,4512 6136,4512 z " fill-rule="evenodd" fill="rgb(0,128,0)" stroke-width="5" stroke="rgb(0,0,0)" />
	<path d="M6438,2405 6438,3005 6738,3005 6738,2405 6438,2405 z " fill-rule="evenodd" fill="rgb(0,128,0)" stroke-width="5" stroke="rgb(0,0,0)" />
	<path d="M6438,3007 6438,3607 6738,3607 6738,3007 6438,3007 z " fill-rule="evenodd" fill="rgb(0,128,0)" stroke-width="5" stroke="rgb(0,0,0)" />
	<path d="M6438,3609 6438,4209 6738,4209 6738,3609 6438,3609 z " fill-rule="evenodd" fill="rgb(0,128,0)" stroke-width="5" stroke="rgb(0,0,0)" />
	<path d="M6438,4211 6438,4811 6738,4811 6738,4211 6438,4211 z " fill-rule="evenodd" fill="rgb(0,128,0)" stroke-width="5" stroke="rgb(0,0,0)" />
	<path d="M6438,4813 6438,5413 6738,5413 6738,4813 6438,4813 z " fill-rule="evenodd" fill="rgb(0,128,0)" stroke-width="5" stroke="rgb(0,0,0)" />
	<path d="M6740,2104 6740,2704 7040,2704 7040,2104 6740,2104 z " fill-rule="evenodd" fill="rgb(0,128,0)" stroke-width="5" stroke="rgb(0,0,0)" />
	<path d="M6740,2706 6740,3306 7040,3306 7040,2706 6740,2706 z " fill-rule="evenodd" fill="rgb(0,128,0)" stroke-width="5" stroke="rgb(0,0,0)" />
	<path d="M6740,3308 6740,3908 7040,3908 7040,3308 6740,3308 z " fill-rule="evenodd" fill="rgb(0,128,0)" stroke-width="5" stroke="rgb(0,0,0)" />
	<path d="M6740,3910 6740,4510 7040,4510 7040,3910 6740,3910 z " fill-rule="evenodd" fill="rgb(0,128,0)" stroke-width="5" stroke="rgb(0,0,0)" />
	<path d="M6740,4512 6740,5112 7040,5112 7040,4512 6740,4512 z " fill-rule="evenodd" fill="rgb(0,128,0)" stroke-width="5" stroke="rgb(0,0,0)" />
	<path d="M7042,2405 7042,3005 7342,3005 7342,2405 7042,2405 z " fill-rule="evenodd" fill="rgb(0,128,0)" stroke-width="5" stroke="rgb(0,0,0)" />
	<path d="M7042,3007 7042,3607 7342,3607 7342,3007 7042,3007 z " fill-rule="evenodd" fill="rgb(0,128,0)" stroke-width="5" stroke="rgb(0,0,0)" />
	<path d="M7042,3609 7042,4209 7342,4209 7342,3609 7042,3609 z " fill-rule="evenodd" fill="rgb(0,128,0)" stroke-width="5" stroke="rgb(0,0,0)" />
	<path d="M7042,4211 7042,4811 7342,4811 7342,4211 7042,4211 z " fill-rule="evenodd" fill="rgb(0,128,0)" stroke-width="5" stroke="rgb(0,0,0)" />
	<path d="M7042,4813 7042,5413 7342,5413 7342,4813 7042,4813 z " fill-rule="evenodd" fill="rgb(0,128,0)" stroke-width="5" stroke="rgb(0,0,0)" />
	<path d="M7344,2706 7344,3306 7644,3306 7644,2706 7344,2706 z " fill-rule="evenodd" fill="rgb(0,128,0)" stroke-width="5" stroke="rgb(0,0,0)" />
	<path d="M7344,3308 7344,3908 7644,3908 7644,3308 7344,3308 z " fill-rule="evenodd" fill="rgb(0,128,0)" stroke-width="5" stroke="rgb(0,0,0)" />
	<path d="M7344,3910 7344,4510 7644,4510 7644,3910 7344,3910 z " fill-rule="evenodd" fill="rgb(0,128,0)" stroke-width="5" stroke="rgb(0,0,0)" />
	<path d="M7344,4512 7344,5112 7644,5112 7644,4512 7344,4512 z " fill-rule="evenodd" fill="rgb(0,128,0)" stroke-width="5" stroke="rgb(0,0,0)" />
	<path d="M7646,3007 7646,3607 7946,3607 7946,3007 7646,3007 z " fill-rule="evenodd" fill="rgb(0,128,0)" stroke-width="5" stroke="rgb(0,0,0)" />
	<path d="M7646,3609 7646,4209 7946,4209 7946,3609 7646,3609 z " fill-rule="evenodd" fill="rgb(0,128,0)" stroke-width="5" stroke="rgb(0,0,0)" />
	<path d="M7646,4211 7646,4811 7946,4811 7946,4211 7646,4211 z " fill-rule="evenodd" fill="rgb(0,128,0)" stroke-width="5" stroke="rgb(0,0,0)" />
	<path d="M7646,4813 7646,5413 7946,5413 7946,4813 7646,4813 z " fill-rule="evenodd" fill="rgb(0,128,0)" stroke-width="5" stroke="rgb(0,0,0)" />
	<path d="M7948,2706 7948,3306 8248,3306 8248,2706 7948,2706 z " fill-rule="evenodd" fill="rgb(0,128,0)" stroke-width="5" stroke="rgb(0,0,0)" />
	<path d="M7948,3308 7948,3908 8248,3908 8248,3308 7948,3308 z " fill-rule="evenodd" fill="rgb(0,128,0)" stroke-width="5" stroke="rgb(0,0,0)" />
	<path d="M7948,3910 7948,4510 8248,4510 8248,3910 7948,3910 z " fill-rule="evenodd" fill="rgb(0,128,0)" stroke-width="5" stroke="rgb(0,0,0)" />
	<path d="M7948,4512 7948,5112 8248,5112 8248,4512 7948,4512 z " fill-rule="evenodd" fill="rgb(0,128,0)" stroke-width="5" stroke="rgb(0,0,0)" />
	<path d="M8250,3007 8250,3607 8550,3607 8550,3007 8250,3007 z " fill-rule="evenodd" fill="rgb(0,128,0)" stroke-width="5" stroke="rgb(0,0,0)" />
	<path d="M8250,3609 8250,4209 8550,4209 8550,3609 8250,3609 z " fill-rule="evenodd" fill="rgb(0,128,0)" stroke-width="5" stroke="rgb(0,0,0)" />
	<path d="M8250,4211 8250,4811 8550,4811 8550,4211 8250,4211 z " fill-rule="evenodd" fill="rgb(0,128,0)" stroke-width="5" stroke="rgb(0,0,0)" />
	<path d="M8250,4813 8250,5413 8550,5413 8550,4813 8250,4813 z " fill-rule="evenodd" fill="rgb(0,128,0)" stroke-width="5" stroke="rgb(0,0,0)" />
	<path d="M698,1801 398,1801 398,1602 698,1602 698,1801 z " fill-rule="evenodd" fill="rgb(255,0,0)" stroke-width="5" stroke="rgb(0,0,0)" />
	<path d="M1302,1801 1002,1801 1002,1502 1302,1502 1302,1801 z " fill-rule="evenodd" fill="rgb(255,0,0)" stroke-width="5" stroke="rgb(0,0,0)" />
	<path d="M1002,2405 1302,2405 1302,2952 1002,2952 1002,2405 z " fill-rule="evenodd" fill="rgb(255,0,0)" stroke-width="5" stroke="rgb(0,0,0)" />
	<path d="M396,2102 100,2102 100,1602 396,1602 396,2102 z " fill-rule="evenodd" fill="rgb(255,0,0)" stroke-width="5" stroke="rgb(0,0,0)" />
	<path d="M396,2104 396,2704 100,2704 100,2104 396,2104 z " fill-rule="evenodd" fill="rgb(255,0,0)" stroke-width="5" stroke="rgb(0,0,0)" />
	<path d="M398,2405 698,2405 698,2952 398,2952 398,2405 z " fill-rule="evenodd" fill="rgb(255,0,0)" stroke-width="5" stroke="rgb(0,0,0)" />
	<path d="M700,2706 1000,2706 1000,2952 700,2952 700,2706 z " fill-rule="evenodd" fill="rgb(255,0,0)" stroke-width="5" stroke="rgb(0,0,0)" />
	<path d="M1000,3306 700,3306 700,3152 1000,3152 1000,3306 z " fill-rule="evenodd" fill="rgb(255,0,0)" stroke-width="5" stroke="rgb(0,0,0)" />
	<path d="M1302,3607 1002,3607 1002,3152 1302,3152 1302,3607 z " fill-rule="evenodd" fill="rgb(255,0,0)" stroke-width="5" stroke="rgb(0,0,0)" />
	<path d="M1604,2102 1304,2102 1304,1502 1400,1502 1400,1602 1604,1602 1604,2102 z " fill-rule="evenodd" fill="rgb(255,0,0)" stroke-width="5" stroke="rgb(0,0,0)" />
	<path d="M1304,2706 1604,2706 1604,2952 1304,2952 1304,2706 z " fill-rule="evenodd" fill="rgb(255,0,0)" stroke-width="5" stroke="rgb(0,0,0)" />
	<path d="M1604,3306 1304,3306 1304,3152 1604,3152 1604,3306 z " fill-rule="evenodd" fill="rgb(255,0,0)" stroke-width="5" stroke="rgb(0,0,0)" />
	<path d="M396,3306 100,3306 100,3152 396,3152 396,3306 z " fill-rule="evenodd" fill="rgb(255,0,0)" stroke-width="5" stroke="rgb(0,0,0)" />
	<path d="M396,2706 396,2952 100,2952 100,2706 396,2706 z " fill-rule="evenodd" fill="rgb(255,0,0)" stroke-width="5" stroke="rgb(0,0,0)" />
	<path d="M698,3607 398,3607 398,3152 698,3152 698,3607 z " fill-rule="evenodd" fill="rgb(255,0,0)" stroke-width="5" stroke="rgb(0,0,0)" />
	<path d="M1906,1801 1606,1801 1606,1602 1906,1602 1906,1801 z " fill-rule="evenodd" fill="rgb(255,0,0)" stroke-width="5" stroke="rgb(0,0,0)" />
	<path d="M1606,2405 1906,2405 1906,2952 1606,2952 1606,2405 z " fill-rule="evenodd" fill="rgb(255,0,0)" stroke-width="5" stroke="rgb(0,0,0)" />
	<path d="M1906,3607 1606,3607 1606,3152 1906,3152 1906,3607 z " fill-rule="evenodd" fill="rgb(255,0,0)" stroke-width="5" stroke="rgb(0,0,0)" />
	<path d="M396,3308 396,3908 100,3908 100,3308 396,3308 z " fill-rule="evenodd" fill="rgb(255,0,0)" stroke-width="5" stroke="rgb(0,0,0)" />
	<path d="M2208,900 2208,1500 2150,1500 2150,900 2208,900 z " fill-rule="evenodd" fill="rgb(255,0,0)" stroke-width="5" stroke="rgb(0,0,0)" />
	<path d="M2208,1502 2208,2102 1908,2102 1908,1602 2150,1602 2150,1502 2208,1502 z " fill-rule="evenodd" fill="rgb(255,0,0)" stroke-width="5" stroke="rgb(0,0,0)" />
	<path d="M1908,2706 2208,2706 2208,3306 1908,3306 1908,3152 2050,3152 2050,2952 1908,2952 1908,2706 z " fill-rule="evenodd" fill="rgb(255,0,0)" stroke-width="5" stroke="rgb(0,0,0)" />
	<path d="M396,3910 396,4510 100,4510 100,3910 396,3910 z " fill-rule="evenodd" fill="rgb(255,0,0)" stroke-width="5" stroke="rgb(0,0,0)" />
	<path d="M2208,298 2208,898 2150,898 2150,298 2208,298 z " fill-rule="evenodd" fill="rgb(255,0,0)" stroke-width="5" stroke="rgb(0,0,0)" />
	<path d="M396,4512 396,5112 100,5112 100,4512 396,4512 z " fill-rule="evenodd" fill="rgb(255,0,0)" stroke-width="5" stroke="rgb(0,0,0)" />
	<path d="M2210,6619 2510,6619 2510,6952 2210,6952 2210,6619 z " fill-rule="evenodd" fill="rgb(255,0,0)" stroke-width="5" stroke="rgb(0,0,0)" />
	<path d="M2208,296 2150,296 2150,100 2208,123.524 2208,296 z " fill-rule="evenodd" fill="rgb(255,0,0)" stroke-width="5" stroke="rgb(0,0,0)" />
	<path d="M2510,597 2210,597 2210,124.336 2510,246.014 2510,597 z " fill-rule="evenodd" fill="rgb(255,0,0)" stroke-width="5" stroke="rgb(0,0,0)" />
	<path d="M2812,898 2512,898 2512,298 2638.17,298 2812,368.503 2812,898 z " fill-rule="evenodd" fill="rgb(255,0,0)" stroke-width="5" stroke="rgb(0,0,0)" />
	<path d="M2512,6920 2812,6920 2812,6952 2512,6952 2512,6920 z " fill-rule="evenodd" fill="rgb(255,0,0)" stroke-width="5" stroke="rgb(0,0,0)" />
	<path d="M396,5114 396,5714 100,5714 100,5114 396,5114 z " fill-rule="evenodd" fill="rgb(255,0,0)" stroke-width="5" stroke="rgb(0,0,0)" />
	<path d="M1606,6619 1906,6619 1906,6952 1606,6952 1606,6619 z " fill-rule="evenodd" fill="rgb(255,0,0)" stroke-width="5" stroke="rgb(0,0,0)" />
	<path d="M1908,6920 2208,6920 2208,6952 1908,6952 1908,6920 z " fill-rule="evenodd" fill="rgb(255,0,0)" stroke-width="5" stroke="rgb(0,0,0)" />
	<path d="M2512,296 2512,246.825 2633.24,296 2512,296 z " fill-rule="evenodd" fill="rgb(255,0,0)" stroke-width="5" stroke="rgb(0,0,0)" />
	<path d="M3114,597 2814,597 2814,369.315 3114,490.993 3114,597 z " fill-rule="evenodd" fill="rgb(255,0,0)" stroke-width="5" stroke="rgb(0,0,0)" />
	<path d="M3114,1801 2814,1801 2814,1201 3114,1201 3114,1418.19 3080,1502 2950,1502 2950,1602 3114,1602 3114,1801 z " fill-rule="evenodd" fill="rgb(255,0,0)" stroke-width="5" stroke="rgb(0,0,0)" />
	<path d="M2814,3005 2814,2405 3114,2405 3114,2952 2850,2952 2850,3005 2814,3005 z " fill-rule="evenodd" fill="rgb(255,0,0)" stroke-width="5" stroke="rgb(0,0,0)" />
	<path d="M2814,3607 2814,3007 2850,3007 2850,3152 2900,3152 2900,3607 2814,3607 z " fill-rule="evenodd" fill="rgb(255,0,0)" stroke-width="5" stroke="rgb(0,0,0)" />
	<path d="M2814,4209 2814,3609 2900,3609 2900,4209 2814,4209 z " fill-rule="evenodd" fill="rgb(255,0,0)" stroke-width="5" stroke="rgb(0,0,0)" />
	<path d="M2814,4811 2814,4211 2900,4211 2900,4811 2814,4811 z " fill-rule="evenodd" fill="rgb(255,0,0)" stroke-width="5" stroke="rgb(0,0,0)" />
	<path d="M2814,5413 2814,4813 2900,4813 2900,5413 2814,5413 z " fill-rule="evenodd" fill="rgb(255,0,0)" stroke-width="5" stroke="rgb(0,0,0)" />
	<path d="M2814,6015 2814,5415 2900,5415 2900,6015 2814,6015 z " fill-rule="evenodd" fill="rgb(255,0,0)" stroke-width="5" stroke="rgb(0,0,0)" />
	<path d="M2814,6617 2814,6017 2900,6017 2900,6052 3100,6052 3100,6617 2814,6617 z " fill-rule="evenodd" fill="rgb(255,0,0)" stroke-width="5" stroke="rgb(0,0,0)" />
	<path d="M2814,6619 3100,6619 3100,6852 2900,6852 2900,6952 2814,6952 2814,6619 z " fill-rule="evenodd" fill="rgb(255,0,0)" stroke-width="5" stroke="rgb(0,0,0)" />
	<path d="M396,5716 396,6316 100,6316 100,5716 396,5716 z " fill-rule="evenodd" fill="rgb(255,0,0)" stroke-width="5" stroke="rgb(0,0,0)" />
	<path d="M1002,6619 1302,6619 1302,6952 1002,6952 1002,6619 z " fill-rule="evenodd" fill="rgb(255,0,0)" stroke-width="5" stroke="rgb(0,0,0)" />
	<path d="M1304,6920 1604,6920 1604,6952 1304,6952 1304,6920 z " fill-rule="evenodd" fill="rgb(255,0,0)" stroke-width="5" stroke="rgb(0,0,0)" />
	<path d="M3116,898 3116,491.804 3416,613.483 3416,673.765 3325.03,898 3116,898 z " fill-rule="evenodd" fill="rgb(255,0,0)" stroke-width="5" stroke="rgb(0,0,0)" />
	<path d="M3116,900 3324.22,900 3116,1413.26 3116,900 z " fill-rule="evenodd" fill="rgb(255,0,0)" stroke-width="5" stroke="rgb(0,0,0)" />
	<path d="M3416,1500 3188.36,1500 3416,938.654 3416,1500 z " fill-rule="evenodd" fill="rgb(255,0,0)" stroke-width="5" stroke="rgb(0,0,0)" />
	<path d="M3416,1502 3416,2102 3116,2102 3116,1602 3147,1602 3187.55,1502 3416,1502 z " fill-rule="evenodd" fill="rgb(255,0,0)" stroke-width="5" stroke="rgb(0,0,0)" />
	<path d="M3116,2706 3416,2706 3416,2952 3116,2952 3116,2706 z " fill-rule="evenodd" fill="rgb(255,0,0)" stroke-width="5" stroke="rgb(0,0,0)" />
	<path d="M396,6318 396,6918 100,6918 100,6318 396,6318 z " fill-rule="evenodd" fill="rgb(255,0,0)" stroke-width="5" stroke="rgb(0,0,0)" />
	<path d="M398,6619 698,6619 698,6952 398,6952 398,6619 z " fill-rule="evenodd" fill="rgb(255,0,0)" stroke-width="5" stroke="rgb(0,0,0)" />
	<path d="M700,6920 1000,6920 1000,6952 700,6952 700,6920 z " fill-rule="evenodd" fill="rgb(255,0,0)" stroke-width="5" stroke="rgb(0,0,0)" />
	<path d="M3418,614.294 3437,622 3418,668.835 3418,614.294 z " fill-rule="evenodd" fill="rgb(255,0,0)" stroke-width="5" stroke="rgb(0,0,0)" />
	<path d="M3718,1199 3418,1199 3418,933.723 3529,660 3718,736.74 3718,1199 z " fill-rule="evenodd" fill="rgb(255,0,0)" stroke-width="5" stroke="rgb(0,0,0)" />
	<path d="M3418,2405 3718,2405 3718,2952 3418,2952 3418,2405 z " fill-rule="evenodd" fill="rgb(255,0,0)" stroke-width="5" stroke="rgb(0,0,0)" />
	<path d="M3718,3607 3700,3607 3700,3052 3718,3052 3718,3607 z " fill-rule="evenodd" fill="rgb(255,0,0)" stroke-width="5" stroke="rgb(0,0,0)" />
	<path d="M3718,3609 3718,4209 3700,4209 3700,3609 3718,3609 z " fill-rule="evenodd" fill="rgb(255,0,0)" stroke-width="5" stroke="rgb(0,0,0)" />
	<path d="M396,6920 396,6952 100,6952 100,6920 396,6920 z " fill-rule="evenodd" fill="rgb(255,0,0)" stroke-width="5" stroke="rgb(0,0,0)" />
	<path d="M4020,898 3720,898 3720,737.553 4020,859.363 4020,898 z " fill-rule="evenodd" fill="rgb(255,0,0)" stroke-width="5" stroke="rgb(0,0,0)" />
	<path d="M3720,2706 4020,2706 4020,2952 3720,2952 3720,2706 z " fill-rule="evenodd" fill="rgb(255,0,0)" stroke-width="5" stroke="rgb(0,0,0)" />
	<path d="M4020,3306 3720,3306 3720,3052 4020,3052 4020,3306 z " fill-rule="evenodd" fill="rgb(255,0,0)" stroke-width="5" stroke="rgb(0,0,0)" />
	<path d="M3718,4211 3718,4811 3700,4811 3700,4211 3718,4211 z " fill-rule="evenodd" fill="rgb(255,0,0)" stroke-width="5" stroke="rgb(0,0,0)" />
	<path d="M3720,4512 4020,4512 4020,4952 3720,4952 3720,4512 z " fill-rule="evenodd" fill="rgb(255,0,0)" stroke-width="5" stroke="rgb(0,0,0)" />
	<path d="M4322,1199 4022,1199 4022,860.175 4322,981.985 4322,1199 z " fill-rule="evenodd" fill="rgb(255,0,0)" stroke-width="5" stroke="rgb(0,0,0)" />
	<path d="M4022,2405 4322,2405 4322,3005 4200,3005 4200,2952 4022,2952 4022,2405 z " fill-rule="evenodd" fill="rgb(255,0,0)" stroke-width="5" stroke="rgb(0,0,0)" />
	<path d="M4322,3007 4322,3607 4022,3607 4022,3052 4200,3052 4200,3007 4322,3007 z " fill-rule="evenodd" fill="rgb(255,0,0)" stroke-width="5" stroke="rgb(0,0,0)" />
	<path d="M4022,4813 4322,4813 4322,4952 4022,4952 4022,4813 z " fill-rule="evenodd" fill="rgb(255,0,0)" stroke-width="5" stroke="rgb(0,0,0)" />
	<path d="M3718,4813 3718,4952 3700,4952 3700,4813 3718,4813 z " fill-rule="evenodd" fill="rgb(255,0,0)" stroke-width="5" stroke="rgb(0,0,0)" />
	<path d="M4624,1500 4324,1500 4324,982.797 4624,1104.61 4624,1500 z " fill-rule="evenodd" fill="rgb(255,0,0)" stroke-width="5" stroke="rgb(0,0,0)" />
	<path d="M4324,4512 4624,4512 4624,4952 4324,4952 4324,4512 z " fill-rule="evenodd" fill="rgb(255,0,0)" stroke-width="5" stroke="rgb(0,0,0)" />
	<path d="M4626,1199 4626,1105.42 4856.47,1199 4626,1199 z " fill-rule="evenodd" fill="rgb(255,0,0)" stroke-width="5" stroke="rgb(0,0,0)" />
	<path d="M4926,1801 4626,1801 4626,1201 4861.4,1201 4926,1227.23 4926,1801 z " fill-rule="evenodd" fill="rgb(255,0,0)" stroke-width="5" stroke="rgb(0,0,0)" />
	<path d="M4626,3005 4626,2405 4926,2405 4926,2952 4900,2952 4900,3005 4626,3005 z " fill-rule="evenodd" fill="rgb(255,0,0)" stroke-width="5" stroke="rgb(0,0,0)" />
	<path d="M4926,3607 4626,3607 4626,3007 4900,3007 4900,3052 4926,3052 4926,3607 z " fill-rule="evenodd" fill="rgb(255,0,0)" stroke-width="5" stroke="rgb(0,0,0)" />
	<path d="M4626,4813 4926,4813 4926,4952 4626,4952 4626,4813 z " fill-rule="evenodd" fill="rgb(255,0,0)" stroke-width="5" stroke="rgb(0,0,0)" />
	<path d="M5228,1500 4928,1500 4928,1228.04 5228,1349.85 5228,1500 z " fill-rule="evenodd" fill="rgb(255,0,0)" stroke-width="5" stroke="rgb(0,0,0)" />
	<path d="M4928,2706 5228,2706 5228,3306 5050,3306 5050,2952 4928,2952 4928,2706 z " fill-rule="evenodd" fill="rgb(255,0,0)" stroke-width="5" stroke="rgb(0,0,0)" />
	<path d="M4928,3306 4928,3052 4950,3052 4950,3306 4928,3306 z " fill-rule="evenodd" fill="rgb(255,0,0)" stroke-width="5" stroke="rgb(0,0,0)" />
	<path d="M4928,3908 4928,3308 4950,3308 4950,3908 4928,3908 z " fill-rule="evenodd" fill="rgb(255,0,0)" stroke-width="5" stroke="rgb(0,0,0)" />
	<path d="M5228,3308 5228,3908 5050,3908 5050,3308 5228,3308 z " fill-rule="evenodd" fill="rgb(255,0,0)" stroke-width="5" stroke="rgb(0,0,0)" />
	<path d="M4928,4510 4928,3910 4950,3910 4950,4510 4928,4510 z " fill-rule="evenodd" fill="rgb(255,0,0)" stroke-width="5" stroke="rgb(0,0,0)" />
	<path d="M5228,3910 5228,4510 5050,4510 5050,3910 5228,3910 z " fill-rule="evenodd" fill="rgb(255,0,0)" stroke-width="5" stroke="rgb(0,0,0)" />
	<path d="M4928,4512 4950,4512 4950,4952 4928,4952 4928,4512 z " fill-rule="evenodd" fill="rgb(255,0,0)" stroke-width="5" stroke="rgb(0,0,0)" />
	<path d="M5228,4512 5228,5112 5050,5112 5050,4512 5228,4512 z " fill-rule="evenodd" fill="rgb(255,0,0)" stroke-width="5" stroke="rgb(0,0,0)" />
	<path d="M5228,5114 5228,5552 5050,5552 5050,5114 5228,5114 z " fill-rule="evenodd" fill="rgb(255,0,0)" stroke-width="5" stroke="rgb(0,0,0)" />
	<path d="M5530,1801 5230,1801 5230,1350.66 5530,1472.47 5530,1801 z " fill-rule="evenodd" fill="rgb(255,0,0)" stroke-width="5" stroke="rgb(0,0,0)" />
	<path d="M5230,5415 5530,5415 5530,5552 5230,5552 5230,5415 z " fill-rule="evenodd" fill="rgb(255,0,0)" stroke-width="5" stroke="rgb(0,0,0)" />
	<path d="M5532,1500 5532,1473.29 5597.79,1500 5532,1500 z " fill-rule="evenodd" fill="rgb(255,0,0)" stroke-width="5" stroke="rgb(0,0,0)" />
	<path d="M5832,2102 5532,2102 5532,1502 5602.72,1502 5832,1595.1 5832,2102 z " fill-rule="evenodd" fill="rgb(255,0,0)" stroke-width="5" stroke="rgb(0,0,0)" />
	<path d="M5532,5114 5832,5114 5832,5552 5532,5552 5532,5114 z " fill-rule="evenodd" fill="rgb(255,0,0)" stroke-width="5" stroke="rgb(0,0,0)" />
	<path d="M6134,1801 5834,1801 5834,1595.91 6134,1717.72 6134,1801 z " fill-rule="evenodd" fill="rgb(255,0,0)" stroke-width="5" stroke="rgb(0,0,0)" />
	<path d="M5834,5415 6134,5415 6134,5552 5834,5552 5834,5415 z " fill-rule="evenodd" fill="rgb(255,0,0)" stroke-width="5" stroke="rgb(0,0,0)" />
	<path d="M6436,2102 6136,2102 6136,1718.53 6436,1840.34 6436,2102 z " fill-rule="evenodd" fill="rgb(255,0,0)" stroke-width="5" stroke="rgb(0,0,0)" />
	<path d="M6136,5114 6436,5114 6436,5552 6136,5552 6136,5114 z " fill-rule="evenodd" fill="rgb(255,0,0)" stroke-width="5" stroke="rgb(0,0,0)" />
	<path d="M6738,2403 6438,2403 6438,1841.15 6738,1962.96 6738,2403 z " fill-rule="evenodd" fill="rgb(255,0,0)" stroke-width="5" stroke="rgb(0,0,0)" />
	<path d="M6438,5415 6738,5415 6738,5552 6438,5552 6438,5415 z " fill-rule="evenodd" fill="rgb(255,0,0)" stroke-width="5" stroke="rgb(0,0,0)" />
	<path d="M7040,2102 6740,2102 6740,1963.78 7040,2085.59 7040,2102 z " fill-rule="evenodd" fill="rgb(255,0,0)" stroke-width="5" stroke="rgb(0,0,0)" />
	<path d="M6740,5114 7040,5114 7040,5552 6740,5552 6740,5114 z " fill-rule="evenodd" fill="rgb(255,0,0)" stroke-width="5" stroke="rgb(0,0,0)" />
	<path d="M7342,2403 7042,2403 7042,2086.4 7342,2208.21 7342,2403 z " fill-rule="evenodd" fill="rgb(255,0,0)" stroke-width="5" stroke="rgb(0,0,0)" />
	<path d="M7042,5415 7342,5415 7342,5552 7042,5552 7042,5415 z " fill-rule="evenodd" fill="rgb(255,0,0)" stroke-width="5" stroke="rgb(0,0,0)" />
	<path d="M7644,2704 7344,2704 7344,2209.02 7644,2330.83 7644,2704 z " fill-rule="evenodd" fill="rgb(255,0,0)" stroke-width="5" stroke="rgb(0,0,0)" />
	<path d="M7344,5114 7644,5114 7644,5552 7344,5552 7344,5114 z " fill-rule="evenodd" fill="rgb(255,0,0)" stroke-width="5" stroke="rgb(0,0,0)" />
	<path d="M7646,2403 7646,2331.64 7821.74,2403 7646,2403 z " fill-rule="evenodd" fill="rgb(255,0,0)" stroke-width="5" stroke="rgb(0,0,0)" />
	<path d="M7946,3005 7646,3005 7646,2405 7826.67,2405 7946,2453.45 7946,3005 z " fill-rule="evenodd" fill="rgb(255,0,0)" stroke-width="5" stroke="rgb(0,0,0)" />
	<path d="M7646,5415 7946,5415 7946,5552 7646,5552 7646,5415 z " fill-rule="evenodd" fill="rgb(255,0,0)" stroke-width="5" stroke="rgb(0,0,0)" />
	<path d="M8248,2704 7948,2704 7948,2454.27 8248,2576.08 8248,2704 z " fill-rule="evenodd" fill="rgb(255,0,0)" stroke-width="5" stroke="rgb(0,0,0)" />
	<path d="M7948,5114 8248,5114 8248,5552 7948,5552 7948,5114 z " fill-rule="evenodd" fill="rgb(255,0,0)" stroke-width="5" stroke="rgb(0,0,0)" />
	<path d="M8550,3005 8250,3005 8250,2576.89 8550,2698.7 8550,3005 z " fill-rule="evenodd" fill="rgb(255,0,0)" stroke-width="5" stroke="rgb(0,0,0)" />
	<path d="M8250,5415 8550,5415 8550,5552 8250,5552 8250,5415 z " fill-rule="evenodd" fill="rgb(255,0,0)" stroke-width="5" stroke="rgb(0,0,0)" />
	<path d="M8552,2704 8552,2699.51 8563.06,2704 8552,2704 z " fill-rule="evenodd" fill="rgb(255,0,0)" stroke-width="5" stroke="rgb(0,0,0)" />
	<path d="M8552,3306 8552,2706 8567.98,2706 8600,2719 8600,3306 8552,3306 z " fill-rule="evenodd" fill="rgb(255,0,0)" stroke-width="5" stroke="rgb(0,0,0)" />
	<path d="M8552,3908 8552,3308 8600,3308 8600,3908 8552,3908 z " fill-rule="evenodd" fill="rgb(255,0,0)" stroke-width="5" stroke="rgb(0,0,0)" />
	<path d="M8552,4510 8552,3910 8600,3910 8600,4510 8552,4510 z " fill-rule="evenodd" fill="rgb(255,0,0)" stroke-width="5" stroke="rgb(0,0,0)" />
	<path d="M8552,5112 8552,4512 8600,4512 8600,5112 8552,5112 z " fill-rule="evenodd" fill="rgb(255,0,0)" stroke-width="5" stroke="rgb(0,0,0)" />
	<path d="M8552,5114 8600,5114 8600,5552 8552,5552 8552,5114 z " fill-rule="evenodd" fill="rgb(255,0,0)" stroke-width="5" stroke="rgb(0,0,0)" />
	<polyline points="695,1507 695,2107 695,1507 1295,1507 695,1507 " fill="none" stroke-width="100" stroke="rgb(0,0,0)" />
	<circle cx="695" cy="1507" r="-10" fill="rgb(0,0,0)" />
	<circle cx="695" cy="2107" r="-10" fill="rgb(0,0,0)" />
	<circle cx="695" cy="1507" r="-10" fill="rgb(0,0,0)" />
	<circle cx="1295" cy="1507" r="-10" fill="rgb(0,0,0)" />
	<circle cx="695" cy="1507" r="-10" fill="rgb(0,0,0)" />
	<polyline points="695,2167 695,1507 35,1507 " fill="none" stroke-width="0.5" stroke="rgb(128,0,128)" />
</svg>
