<?xml version="1.0" standalone="no" ?>
<!DOCTYPE svg PUBLIC "-//W3C//DTD SVG 1.1//EN" "http://www.w3.org/Graphics/SVG/1.1/DTD/svg11.dtd">
<svg width="8700px" height="7052px" xmlns="http://www.w3.org/2000/svg" version="1.1" >
	<path d="M2548,2049 2548,2649 2848,2649 2848,2049 2548,2049 z " fill-rule="evenodd" fill="rgb(0,128,0)" stroke-width="5" stroke="rgb(0,0,0)" />
	<path d="M2548,2651 2548,3251 2848,3251 2848,2651 2548,2651 z " fill-rule="evenodd" fill="rgb(0,128,0)" stroke-width="5" stroke="rgb(0,0,0)" />
	<path d="M2548,3253 2548,3853 2848,3853 2848,3253 2548,3253 z " fill-rule="evenodd" fill="rgb(0,128,0)" stroke-width="5" stroke="rgb(0,0,0)" />
	<path d="M2850,2350 2850,2950 3150,2950 3150,2350 2850,2350 z " fill-rule="evenodd" fill="rgb(0,128,0)" stroke-width="5" stroke="rgb(0,0,0)" />
	<path d="M2246,1146 2246,1746 2546,1746 2546,1146 2246,1146 z " fill-rule="evenodd" fill="rgb(0,128,0)" stroke-width="5" stroke="rgb(0,0,0)" />
	<path d="M2246,1748 2246,2348 2546,2348 2546,1748 2246,1748 z " fill-rule="evenodd" fill="rgb(0,128,0)" stroke-width="5" stroke="rgb(0,0,0)" />
	<path d="M2246,2350 2246,2950 2546,2950 2546,2350 2246,2350 z " fill-rule="evenodd" fill="rgb(0,128,0)" stroke-width="5" stroke="rgb(0,0,0)" />
	<path d="M2548,1447 2548,2047 2848,2047 2848,1447 2548,1447 z " fill-rule="evenodd" fill="rgb(0,128,0)" stroke-width="5" stroke="rgb(0,0,0)" />
	<path d="M2850,1748 2850,2348 3150,2348 3150,1748 2850,1748 z " fill-rule="evenodd" fill="rgb(0,128,0)" stroke-width="5" stroke="rgb(0,0,0)" />
	<path d="M2246,2952 2246,3552 2546,3552 2546,2952 2246,2952 z " fill-rule="evenodd" fill="rgb(0,128,0)" stroke-width="5" stroke="rgb(0,0,0)" />
	<path d="M2246,3554 2246,4154 2546,4154 2546,3554 2246,3554 z " fill-rule="evenodd" fill="rgb(0,128,0)" stroke-width="5" stroke="rgb(0,0,0)" />
	<path d="M2548,3855 2548,4455 2848,4455 2848,3855 2548,3855 z " fill-rule="evenodd" fill="rgb(0,128,0)" stroke-width="5" stroke="rgb(0,0,0)" />
	<path d="M3152,2049 3152,2649 3452,2649 3452,2049 3152,2049 z " fill-rule="evenodd" fill="rgb(0,128,0)" stroke-width="5" stroke="rgb(0,0,0)" />
	<path d="M3454,2350 3454,2950 3754,2950 3754,2350 3454,2350 z " fill-rule="evenodd" fill="rgb(0,128,0)" stroke-width="5" stroke="rgb(0,0,0)" />
	<path d="M2246,544 2246,1144 2546,1144 2546,544 2246,544 z " fill-rule="evenodd" fill="rgb(0,128,0)" stroke-width="5" stroke="rgb(0,0,0)" />
	<path d="M2548,845 2548,1445 2848,1445 2848,845 2548,845 z " fill-rule="evenodd" fill="rgb(0,128,0)" stroke-width="5" stroke="rgb(0,0,0)" />
	<path d="M1944,2049 1944,2649 2244,2649 2244,2049 1944,2049 z " fill-rule="evenodd" fill="rgb(0,128,0)" stroke-width="5" stroke="rgb(0,0,0)" />
	<path d="M1944,3253 1944,3853 2244,3853 2244,3253 1944,3253 z " fill-rule="evenodd" fill="rgb(0,128,0)" stroke-width="5" stroke="rgb(0,0,0)" />
	<path d="M1944,3855 1944,4455 2244,4455 2244,3855 1944,3855 z " fill-rule="evenodd" fill="rgb(0,128,0)" stroke-width="5" stroke="rgb(0,0,0)" />
	<path d="M2246,4156 2246,4756 2546,4756 2546,4156 2246,4156 z " fill-rule="evenodd" fill="rgb(0,128,0)" stroke-width="5" stroke="rgb(0,0,0)" />
	<path d="M2548,4457 2548,5057 2848,5057 2848,4457 2548,4457 z " fill-rule="evenodd" fill="rgb(0,128,0)" stroke-width="5" stroke="rgb(0,0,0)" />
	<path d="M3454,1748 3454,2348 3754,2348 3754,1748 3454,1748 z " fill-rule="evenodd" fill="rgb(0,128,0)" stroke-width="5" stroke="rgb(0,0,0)" />
	<path d="M3756,2049 3756,2649 4056,2649 4056,2049 3756,2049 z " fill-rule="evenodd" fill="rgb(0,128,0)" stroke-width="5" stroke="rgb(0,0,0)" />
	<path d="M3756,3253 3756,3853 4056,3853 4056,3253 3756,3253 z " fill-rule="evenodd" fill="rgb(0,128,0)" stroke-width="5" stroke="rgb(0,0,0)" />
	<path d="M3756,3855 3756,4455 4056,4455 4056,3855 3756,3855 z " fill-rule="evenodd" fill="rgb(0,128,0)" stroke-width="5" stroke="rgb(0,0,0)" />
	<path d="M1642,1748 1642,2348 1942,2348 1942,1748 1642,1748 z " fill-rule="evenodd" fill="rgb(0,128,0)" stroke-width="5" stroke="rgb(0,0,0)" />
	<path d="M2850,544 2850,1144 3150,1144 3150,544 2850,544 z " fill-rule="evenodd" fill="rgb(0,128,0)" stroke-width="5" stroke="rgb(0,0,0)" />
	<path d="M1642,2350 1642,2950 1942,2950 1942,2350 1642,2350 z " fill-rule="evenodd" fill="rgb(0,128,0)" stroke-width="5" stroke="rgb(0,0,0)" />
	<path d="M3454,1146 3454,1746 3754,1746 3754,1146 3454,1146 z " fill-rule="evenodd" fill="rgb(0,128,0)" stroke-width="5" stroke="rgb(0,0,0)" />
	<path d="M1642,3554 1642,4154 1942,4154 1942,3554 1642,3554 z " fill-rule="evenodd" fill="rgb(0,128,0)" stroke-width="5" stroke="rgb(0,0,0)" />
	<path d="M1642,4156 1642,4756 1942,4756 1942,4156 1642,4156 z " fill-rule="evenodd" fill="rgb(0,128,0)" stroke-width="5" stroke="rgb(0,0,0)" />
	<path d="M1944,4457 1944,5057 2244,5057 2244,4457 1944,4457 z " fill-rule="evenodd" fill="rgb(0,128,0)" stroke-width="5" stroke="rgb(0,0,0)" />
	<path d="M2246,4758 2246,5358 2546,5358 2546,4758 2246,4758 z " fill-rule="evenodd" fill="rgb(0,128,0)" stroke-width="5" stroke="rgb(0,0,0)" />
	<path d="M2548,5059 2548,5659 2848,5659 2848,5059 2548,5059 z " fill-rule="evenodd" fill="rgb(0,128,0)" stroke-width="5" stroke="rgb(0,0,0)" />
	<path d="M3756,1447 3756,2047 4056,2047 4056,1447 3756,1447 z " fill-rule="evenodd" fill="rgb(0,128,0)" stroke-width="5" stroke="rgb(0,0,0)" />
	<path d="M4058,1748 4058,2348 4358,2348 4358,1748 4058,1748 z " fill-rule="evenodd" fill="rgb(0,128,0)" stroke-width="5" stroke="rgb(0,0,0)" />
	<path d="M4058,2350 4058,2950 4358,2950 4358,2350 4058,2350 z " fill-rule="evenodd" fill="rgb(0,128,0)" stroke-width="5" stroke="rgb(0,0,0)" />
	<path d="M4058,3554 4058,4154 4358,4154 4358,3554 4058,3554 z " fill-rule="evenodd" fill="rgb(0,128,0)" stroke-width="5" stroke="rgb(0,0,0)" />
	<path d="M4058,4156 4058,4756 4358,4756 4358,4156 4058,4156 z " fill-rule="evenodd" fill="rgb(0,128,0)" stroke-width="5" stroke="rgb(0,0,0)" />
	<path d="M1340,2049 1340,2649 1640,2649 1640,2049 1340,2049 z " fill-rule="evenodd" fill="rgb(0,128,0)" stroke-width="5" stroke="rgb(0,0,0)" />
	<path d="M1340,3253 1340,3853 1640,3853 1640,3253 1340,3253 z " fill-rule="evenodd" fill="rgb(0,128,0)" stroke-width="5" stroke="rgb(0,0,0)" />
	<path d="M1340,3855 1340,4455 1640,4455 1640,3855 1340,3855 z " fill-rule="evenodd" fill="rgb(0,128,0)" stroke-width="5" stroke="rgb(0,0,0)" />
	<path d="M1340,4457 1340,5057 1640,5057 1640,4457 1340,4457 z " fill-rule="evenodd" fill="rgb(0,128,0)" stroke-width="5" stroke="rgb(0,0,0)" />
	<path d="M1642,4758 1642,5358 1942,5358 1942,4758 1642,4758 z " fill-rule="evenodd" fill="rgb(0,128,0)" stroke-width="5" stroke="rgb(0,0,0)" />
	<path d="M1944,5059 1944,5659 2244,5659 2244,5059 1944,5059 z " fill-rule="evenodd" fill="rgb(0,128,0)" stroke-width="5" stroke="rgb(0,0,0)" />
	<path d="M2246,5360 2246,5960 2546,5960 2546,5360 2246,5360 z " fill-rule="evenodd" fill="rgb(0,128,0)" stroke-width="5" stroke="rgb(0,0,0)" />
	<path d="M2548,5661 2548,6261 2848,6261 2848,5661 2548,5661 z " fill-rule="evenodd" fill="rgb(0,128,0)" stroke-width="5" stroke="rgb(0,0,0)" />
	<path d="M4058,1146 4058,1746 4358,1746 4358,1146 4058,1146 z " fill-rule="evenodd" fill="rgb(0,128,0)" stroke-width="5" stroke="rgb(0,0,0)" />
	<path d="M4360,1447 4360,2047 4660,2047 4660,1447 4360,1447 z " fill-rule="evenodd" fill="rgb(0,128,0)" stroke-width="5" stroke="rgb(0,0,0)" />
	<path d="M4360,2049 4360,2649 4660,2649 4660,2049 4360,2049 z " fill-rule="evenodd" fill="rgb(0,128,0)" stroke-width="5" stroke="rgb(0,0,0)" />
	<path d="M4360,2651 4360,3251 4660,3251 4660,2651 4360,2651 z " fill-rule="evenodd" fill="rgb(0,128,0)" stroke-width="5" stroke="rgb(0,0,0)" />
	<path d="M4360,3253 4360,3853 4660,3853 4660,3253 4360,3253 z " fill-rule="evenodd" fill="rgb(0,128,0)" stroke-width="5" stroke="rgb(0,0,0)" />
	<path d="M4360,3855 4360,4455 4660,4455 4660,3855 4360,3855 z " fill-rule="evenodd" fill="rgb(0,128,0)" stroke-width="5" stroke="rgb(0,0,0)" />
	<path d="M1038,1748 1038,2348 1338,2348 1338,1748 1038,1748 z " fill-rule="evenodd" fill="rgb(0,128,0)" stroke-width="5" stroke="rgb(0,0,0)" />
	<path d="M1038,2350 1038,2950 1338,2950 1338,2350 1038,2350 z " fill-rule="evenodd" fill="rgb(0,128,0)" stroke-width="5" stroke="rgb(0,0,0)" />
	<path d="M1038,3554 1038,4154 1338,4154 1338,3554 1038,3554 z " fill-rule="evenodd" fill="rgb(0,128,0)" stroke-width="5" stroke="rgb(0,0,0)" />
	<path d="M1038,4156 1038,4756 1338,4756 1338,4156 1038,4156 z " fill-rule="evenodd" fill="rgb(0,128,0)" stroke-width="5" stroke="rgb(0,0,0)" />
	<path d="M1038,4758 1038,5358 1338,5358 1338,4758 1038,4758 z " fill-rule="evenodd" fill="rgb(0,128,0)" stroke-width="5" stroke="rgb(0,0,0)" />
	<path d="M1340,5059 1340,5659 1640,5659 1640,5059 1340,5059 z " fill-rule="evenodd" fill="rgb(0,128,0)" stroke-width="5" stroke="rgb(0,0,0)" />
	<path d="M1642,5360 1642,5960 1942,5960 1942,5360 1642,5360 z " fill-rule="evenodd" fill="rgb(0,128,0)" stroke-width="5" stroke="rgb(0,0,0)" />
	<path d="M1944,5661 1944,6261 2244,6261 2244,5661 1944,5661 z " fill-rule="evenodd" fill="rgb(0,128,0)" stroke-width="5" stroke="rgb(0,0,0)" />
	<path d="M2246,5962 2246,6562 2546,6562 2546,5962 2246,5962 z " fill-rule="evenodd" fill="rgb(0,128,0)" stroke-width="5" stroke="rgb(0,0,0)" />
	<path d="M2548,6263 2548,6863 2848,6863 2848,6263 2548,6263 z " fill-rule="evenodd" fill="rgb(0,128,0)" stroke-width="5" stroke="rgb(0,0,0)" />
	<path d="M4662,1748 4662,2348 4962,2348 4962,1748 4662,1748 z " fill-rule="evenodd" fill="rgb(0,128,0)" stroke-width="5" stroke="rgb(0,0,0)" />
	<path d="M4662,2350 4662,2950 4962,2950 4962,2350 4662,2350 z " fill-rule="evenodd" fill="rgb(0,128,0)" stroke-width="5" stroke="rgb(0,0,0)" />
	<path d="M736,2049 736,2649 1036,2649 1036,2049 736,2049 z " fill-rule="evenodd" fill="rgb(0,128,0)" stroke-width="5" stroke="rgb(0,0,0)" />
	<path d="M736,3253 736,3853 1036,3853 1036,3253 736,3253 z " fill-rule="evenodd" fill="rgb(0,128,0)" stroke-width="5" stroke="rgb(0,0,0)" />
	<path d="M736,3855 736,4455 1036,4455 1036,3855 736,3855 z " fill-rule="evenodd" fill="rgb(0,128,0)" stroke-width="5" stroke="rgb(0,0,0)" />
	<path d="M736,4457 736,5057 1036,5057 1036,4457 736,4457 z " fill-rule="evenodd" fill="rgb(0,128,0)" stroke-width="5" stroke="rgb(0,0,0)" />
	<path d="M736,5059 736,5659 1036,5659 1036,5059 736,5059 z " fill-rule="evenodd" fill="rgb(0,128,0)" stroke-width="5" stroke="rgb(0,0,0)" />
	<path d="M1038,5360 1038,5960 1338,5960 1338,5360 1038,5360 z " fill-rule="evenodd" fill="rgb(0,128,0)" stroke-width="5" stroke="rgb(0,0,0)" />
	<path d="M1340,5661 1340,6261 1640,6261 1640,5661 1340,5661 z " fill-rule="evenodd" fill="rgb(0,128,0)" stroke-width="5" stroke="rgb(0,0,0)" />
	<path d="M1642,5962 1642,6562 1942,6562 1942,5962 1642,5962 z " fill-rule="evenodd" fill="rgb(0,128,0)" stroke-width="5" stroke="rgb(0,0,0)" />
	<path d="M1944,6263 1944,6863 2244,6863 2244,6263 1944,6263 z " fill-rule="evenodd" fill="rgb(0,128,0)" stroke-width="5" stroke="rgb(0,0,0)" />
	<path d="M4964,1447 4964,2047 5264,2047 5264,1447 4964,1447 z " fill-rule="evenodd" fill="rgb(0,128,0)" stroke-width="5" stroke="rgb(0,0,0)" />
	<path d="M4964,2049 4964,2649 5264,2649 5264,2049 4964,2049 z " fill-rule="evenodd" fill="rgb(0,128,0)" stroke-width="5" stroke="rgb(0,0,0)" />
	<path d="M434,1748 434,2348 734,2348 734,1748 434,1748 z " fill-rule="evenodd" fill="rgb(0,128,0)" stroke-width="5" stroke="rgb(0,0,0)" />
	<path d="M434,2350 434,2950 734,2950 734,2350 434,2350 z " fill-rule="evenodd" fill="rgb(0,128,0)" stroke-width="5" stroke="rgb(0,0,0)" />
	<path d="M434,3554 434,4154 734,4154 734,3554 434,3554 z " fill-rule="evenodd" fill="rgb(0,128,0)" stroke-width="5" stroke="rgb(0,0,0)" />
	<path d="M434,4156 434,4756 734,4756 734,4156 434,4156 z " fill-rule="evenodd" fill="rgb(0,128,0)" stroke-width="5" stroke="rgb(0,0,0)" />
	<path d="M434,4758 434,5358 734,5358 734,4758 434,4758 z " fill-rule="evenodd" fill="rgb(0,128,0)" stroke-width="5" stroke="rgb(0,0,0)" />
	<path d="M434,5360 434,5960 734,5960 734,5360 434,5360 z " fill-rule="evenodd" fill="rgb(0,128,0)" stroke-width="5" stroke="rgb(0,0,0)" />
	<path d="M736,5661 736,6261 1036,6261 1036,5661 736,5661 z " fill-rule="evenodd" fill="rgb(0,128,0)" stroke-width="5" stroke="rgb(0,0,0)" />
	<path d="M1038,5962 1038,6562 1338,6562 1338,5962 1038,5962 z " fill-rule="evenodd" fill="rgb(0,128,0)" stroke-width="5" stroke="rgb(0,0,0)" />
	<path d="M1340,6263 1340,6863 1640,6863 1640,6263 1340,6263 z " fill-rule="evenodd" fill="rgb(0,128,0)" stroke-width="5" stroke="rgb(0,0,0)" />
	<path d="M5266,1748 5266,2348 5566,2348 5566,1748 5266,1748 z " fill-rule="evenodd" fill="rgb(0,128,0)" stroke-width="5" stroke="rgb(0,0,0)" />
	<path d="M5266,2350 5266,2950 5566,2950 5566,2350 5266,2350 z " fill-rule="evenodd" fill="rgb(0,128,0)" stroke-width="5" stroke="rgb(0,0,0)" />
	<path d="M5266,2952 5266,3552 5566,3552 5566,2952 5266,2952 z " fill-rule="evenodd" fill="rgb(0,128,0)" stroke-width="5" stroke="rgb(0,0,0)" />
	<path d="M5266,3554 5266,4154 5566,4154 5566,3554 5266,3554 z " fill-rule="evenodd" fill="rgb(0,128,0)" stroke-width="5" stroke="rgb(0,0,0)" />
	<path d="M5266,4156 5266,4756 5566,4756 5566,4156 5266,4156 z " fill-rule="evenodd" fill="rgb(0,128,0)" stroke-width="5" stroke="rgb(0,0,0)" />
	<path d="M5266,4758 5266,5358 5566,5358 5566,4758 5266,4758 z " fill-rule="evenodd" fill="rgb(0,128,0)" stroke-width="5" stroke="rgb(0,0,0)" />
	<path d="M132,2049 132,2649 432,2649 432,2049 132,2049 z " fill-rule="evenodd" fill="rgb(0,128,0)" stroke-width="5" stroke="rgb(0,0,0)" />
	<path d="M132,3253 132,3853 432,3853 432,3253 132,3253 z " fill-rule="evenodd" fill="rgb(0,128,0)" stroke-width="5" stroke="rgb(0,0,0)" />
	<path d="M132,3855 132,4455 432,4455 432,3855 132,3855 z " fill-rule="evenodd" fill="rgb(0,128,0)" stroke-width="5" stroke="rgb(0,0,0)" />
	<path d="M132,4457 132,5057 432,5057 432,4457 132,4457 z " fill-rule="evenodd" fill="rgb(0,128,0)" stroke-width="5" stroke="rgb(0,0,0)" />
	<path d="M132,5059 132,5659 432,5659 432,5059 132,5059 z " fill-rule="evenodd" fill="rgb(0,128,0)" stroke-width="5" stroke="rgb(0,0,0)" />
	<path d="M132,5661 132,6261 432,6261 432,5661 132,5661 z " fill-rule="evenodd" fill="rgb(0,128,0)" stroke-width="5" stroke="rgb(0,0,0)" />
	<path d="M434,5962 434,6562 734,6562 734,5962 434,5962 z " fill-rule="evenodd" fill="rgb(0,128,0)" stroke-width="5" stroke="rgb(0,0,0)" />
	<path d="M736,6263 736,6863 1036,6863 1036,6263 736,6263 z " fill-rule="evenodd" fill="rgb(0,128,0)" stroke-width="5" stroke="rgb(0,0,0)" />
	<path d="M5568,2049 5568,2649 5868,2649 5868,2049 5568,2049 z " fill-rule="evenodd" fill="rgb(0,128,0)" stroke-width="5" stroke="rgb(0,0,0)" />
	<path d="M5568,2651 5568,3251 5868,3251 5868,2651 5568,2651 z " fill-rule="evenodd" fill="rgb(0,128,0)" stroke-width="5" stroke="rgb(0,0,0)" />
	<path d="M5568,3253 5568,3853 5868,3853 5868,3253 5568,3253 z " fill-rule="evenodd" fill="rgb(0,128,0)" stroke-width="5" stroke="rgb(0,0,0)" />
	<path d="M5568,3855 5568,4455 5868,4455 5868,3855 5568,3855 z " fill-rule="evenodd" fill="rgb(0,128,0)" stroke-width="5" stroke="rgb(0,0,0)" />
	<path d="M5568,4457 5568,5057 5868,5057 5868,4457 5568,4457 z " fill-rule="evenodd" fill="rgb(0,128,0)" stroke-width="5" stroke="rgb(0,0,0)" />
	<path d="M132,6263 132,6863 432,6863 432,6263 132,6263 z " fill-rule="evenodd" fill="rgb(0,128,0)" stroke-width="5" stroke="rgb(0,0,0)" />
	<path d="M5870,1748 5870,2348 6170,2348 6170,1748 5870,1748 z " fill-rule="evenodd" fill="rgb(0,128,0)" stroke-width="5" stroke="rgb(0,0,0)" />
	<path d="M5870,2350 5870,2950 6170,2950 6170,2350 5870,2350 z " fill-rule="evenodd" fill="rgb(0,128,0)" stroke-width="5" stroke="rgb(0,0,0)" />
	<path d="M5870,2952 5870,3552 6170,3552 6170,2952 5870,2952 z " fill-rule="evenodd" fill="rgb(0,128,0)" stroke-width="5" stroke="rgb(0,0,0)" />
	<path d="M5870,3554 5870,4154 6170,4154 6170,3554 5870,3554 z " fill-rule="evenodd" fill="rgb(0,128,0)" stroke-width="5" stroke="rgb(0,0,0)" />
	<path d="M5870,4156 5870,4756 6170,4756 6170,4156 5870,4156 z " fill-rule="evenodd" fill="rgb(0,128,0)" stroke-width="5" stroke="rgb(0,0,0)" />
	<path d="M5870,4758 5870,5358 6170,5358 6170,4758 5870,4758 z " fill-rule="evenodd" fill="rgb(0,128,0)" stroke-width="5" stroke="rgb(0,0,0)" />
	<path d="M6172,2049 6172,2649 6472,2649 6472,2049 6172,2049 z " fill-rule="evenodd" fill="rgb(0,128,0)" stroke-width="5" stroke="rgb(0,0,0)" />
	<path d="M6172,2651 6172,3251 6472,3251 6472,2651 6172,2651 z " fill-rule="evenodd" fill="rgb(0,128,0)" stroke-width="5" stroke="rgb(0,0,0)" />
	<path d="M6172,3253 6172,3853 6472,3853 6472,3253 6172,3253 z " fill-rule="evenodd" fill="rgb(0,128,0)" stroke-width="5" stroke="rgb(0,0,0)" />
	<path d="M6172,3855 6172,4455 6472,4455 6472,3855 6172,3855 z " fill-rule="evenodd" fill="rgb(0,128,0)" stroke-width="5" stroke="rgb(0,0,0)" />
	<path d="M6172,4457 6172,5057 6472,5057 6472,4457 6172,4457 z " fill-rule="evenodd" fill="rgb(0,128,0)" stroke-width="5" stroke="rgb(0,0,0)" />
	<path d="M6474,2350 6474,2950 6774,2950 6774,2350 6474,2350 z " fill-rule="evenodd" fill="rgb(0,128,0)" stroke-width="5" stroke="rgb(0,0,0)" />
	<path d="M6474,2952 6474,3552 6774,3552 6774,2952 6474,2952 z " fill-rule="evenodd" fill="rgb(0,128,0)" stroke-width="5" stroke="rgb(0,0,0)" />
	<path d="M6474,3554 6474,4154 6774,4154 6774,3554 6474,3554 z " fill-rule="evenodd" fill="rgb(0,128,0)" stroke-width="5" stroke="rgb(0,0,0)" />
	<path d="M6474,4156 6474,4756 6774,4756 6774,4156 6474,4156 z " fill-rule="evenodd" fill="rgb(0,128,0)" stroke-width="5" stroke="rgb(0,0,0)" />
	<path d="M6474,4758 6474,5358 6774,5358 6774,4758 6474,4758 z " fill-rule="evenodd" fill="rgb(0,128,0)" stroke-width="5" stroke="rgb(0,0,0)" />
	<path d="M6776,2651 6776,3251 7076,3251 7076,2651 6776,2651 z " fill-rule="evenodd" fill="rgb(0,128,0)" stroke-width="5" stroke="rgb(0,0,0)" />
	<path d="M6776,3253 6776,3853 7076,3853 7076,3253 6776,3253 z " fill-rule="evenodd" fill="rgb(0,128,0)" stroke-width="5" stroke="rgb(0,0,0)" />
	<path d="M6776,3855 6776,4455 7076,4455 7076,3855 6776,3855 z " fill-rule="evenodd" fill="rgb(0,128,0)" stroke-width="5" stroke="rgb(0,0,0)" />
	<path d="M6776,4457 6776,5057 7076,5057 7076,4457 6776,4457 z " fill-rule="evenodd" fill="rgb(0,128,0)" stroke-width="5" stroke="rgb(0,0,0)" />
	<path d="M7078,2350 7078,2950 7378,2950 7378,2350 7078,2350 z " fill-rule="evenodd" fill="rgb(0,128,0)" stroke-width="5" stroke="rgb(0,0,0)" />
	<path d="M7078,2952 7078,3552 7378,3552 7378,2952 7078,2952 z " fill-rule="evenodd" fill="rgb(0,128,0)" stroke-width="5" stroke="rgb(0,0,0)" />
	<path d="M7078,3554 7078,4154 7378,4154 7378,3554 7078,3554 z " fill-rule="evenodd" fill="rgb(0,128,0)" stroke-width="5" stroke="rgb(0,0,0)" />
	<path d="M7078,4156 7078,4756 7378,4756 7378,4156 7078,4156 z " fill-rule="evenodd" fill="rgb(0,128,0)" stroke-width="5" stroke="rgb(0,0,0)" />
	<path d="M7078,4758 7078,5358 7378,5358 7378,4758 7078,4758 z " fill-rule="evenodd" fill="rgb(0,128,0)" stroke-width="5" stroke="rgb(0,0,0)" />
	<path d="M7380,2651 7380,3251 7680,3251 7680,2651 7380,2651 z " fill-rule="evenodd" fill="rgb(0,128,0)" stroke-width="5" stroke="rgb(0,0,0)" />
	<path d="M7380,3253 7380,3853 7680,3853 7680,3253 7380,3253 z " fill-rule="evenodd" fill="rgb(0,128,0)" stroke-width="5" stroke="rgb(0,0,0)" />
	<path d="M7380,3855 7380,4455 7680,4455 7680,3855 7380,3855 z " fill-rule="evenodd" fill="rgb(0,128,0)" stroke-width="5" stroke="rgb(0,0,0)" />
	<path d="M7380,4457 7380,5057 7680,5057 7680,4457 7380,4457 z " fill-rule="evenodd" fill="rgb(0,128,0)" stroke-width="5" stroke="rgb(0,0,0)" />
	<path d="M7682,2952 7682,3552 7982,3552 7982,2952 7682,2952 z " fill-rule="evenodd" fill="rgb(0,128,0)" stroke-width="5" stroke="rgb(0,0,0)" />
	<path d="M7682,3554 7682,4154 7982,4154 7982,3554 7682,3554 z " fill-rule="evenodd" fill="rgb(0,128,0)" stroke-width="5" stroke="rgb(0,0,0)" />
	<path d="M7682,4156 7682,4756 7982,4756 7982,4156 7682,4156 z " fill-rule="evenodd" fill="rgb(0,128,0)" stroke-width="5" stroke="rgb(0,0,0)" />
	<path d="M7682,4758 7682,5358 7982,5358 7982,4758 7682,4758 z " fill-rule="evenodd" fill="rgb(0,128,0)" stroke-width="5" stroke="rgb(0,0,0)" />
	<path d="M7984,2651 7984,3251 8284,3251 8284,2651 7984,2651 z " fill-rule="evenodd" fill="rgb(0,128,0)" stroke-width="5" stroke="rgb(0,0,0)" />
	<path d="M7984,3253 7984,3853 8284,3853 8284,3253 7984,3253 z " fill-rule="evenodd" fill="rgb(0,128,0)" stroke-width="5" stroke="rgb(0,0,0)" />
	<path d="M7984,3855 7984,4455 8284,4455 8284,3855 7984,3855 z " fill-rule="evenodd" fill="rgb(0,128,0)" stroke-width="5" stroke="rgb(0,0,0)" />
	<path d="M7984,4457 7984,5057 8284,5057 8284,4457 7984,4457 z " fill-rule="evenodd" fill="rgb(0,128,0)" stroke-width="5" stroke="rgb(0,0,0)" />
	<path d="M8286,2952 8286,3552 8586,3552 8586,2952 8286,2952 z " fill-rule="evenodd" fill="rgb(0,128,0)" stroke-width="5" stroke="rgb(0,0,0)" />
	<path d="M8286,3554 8286,4154 8586,4154 8586,3554 8286,3554 z " fill-rule="evenodd" fill="rgb(0,128,0)" stroke-width="5" stroke="rgb(0,0,0)" />
	<path d="M8286,4156 8286,4756 8586,4756 8586,4156 8286,4156 z " fill-rule="evenodd" fill="rgb(0,128,0)" stroke-width="5" stroke="rgb(0,0,0)" />
	<path d="M8286,4758 8286,5358 8586,5358 8586,4758 8286,4758 z " fill-rule="evenodd" fill="rgb(0,128,0)" stroke-width="5" stroke="rgb(0,0,0)" />
	<path d="M2850,3552 2850,3152 2900,3152 2900,3552 2850,3552 z " fill-rule="evenodd" fill="rgb(255,0,0)" stroke-width="5" stroke="rgb(0,0,0)" />
	<path d="M2850,4154 2850,3554 2900,3554 2900,4154 2850,4154 z " fill-rule="evenodd" fill="rgb(255,0,0)" stroke-width="5" stroke="rgb(0,0,0)" />
	<path d="M3152,2651 3452,2651 3452,2952 3152,2952 3152,2651 z " fill-rule="evenodd" fill="rgb(255,0,0)" stroke-width="5" stroke="rgb(0,0,0)" />
	<path d="M2850,4756 2850,4156 2900,4156 2900,4756 2850,4756 z " fill-rule="evenodd" fill="rgb(255,0,0)" stroke-width="5" stroke="rgb(0,0,0)" />
	<path d="M3754,3552 3700,3552 3700,3052 3754,3052 3754,3552 z " fill-rule="evenodd" fill="rgb(255,0,0)" stroke-width="5" stroke="rgb(0,0,0)" />
	<path d="M3754,3554 3754,4154 3700,4154 3700,3554 3754,3554 z " fill-rule="evenodd" fill="rgb(255,0,0)" stroke-width="5" stroke="rgb(0,0,0)" />
	<path d="M2244,243 2244,843 2150,843 2150,243 2244,243 z " fill-rule="evenodd" fill="rgb(255,0,0)" stroke-width="5" stroke="rgb(0,0,0)" />
	<path d="M2244,845 2244,1445 2150,1445 2150,845 2244,845 z " fill-rule="evenodd" fill="rgb(255,0,0)" stroke-width="5" stroke="rgb(0,0,0)" />
	<path d="M2244,1447 2244,2047 1944,2047 1944,1602 2150,1602 2150,1447 2244,1447 z " fill-rule="evenodd" fill="rgb(255,0,0)" stroke-width="5" stroke="rgb(0,0,0)" />
	<path d="M1944,2651 2244,2651 2244,3251 1944,3251 1944,3152 2050,3152 2050,2952 1944,2952 1944,2651 z " fill-rule="evenodd" fill="rgb(255,0,0)" stroke-width="5" stroke="rgb(0,0,0)" />
	<path d="M3150,1746 2850,1746 2850,1146 3150,1146 3150,1329.45 3080,1502 2950,1502 2950,1602 3147,1602 3150,1594.6 3150,1746 z " fill-rule="evenodd" fill="rgb(255,0,0)" stroke-width="5" stroke="rgb(0,0,0)" />
	<path d="M3452,1447 3452,2047 3152,2047 3152,1589.67 3209.86,1447 3452,1447 z " fill-rule="evenodd" fill="rgb(255,0,0)" stroke-width="5" stroke="rgb(0,0,0)" />
	<path d="M2850,5358 2850,4758 2900,4758 2900,5358 2850,5358 z " fill-rule="evenodd" fill="rgb(255,0,0)" stroke-width="5" stroke="rgb(0,0,0)" />
	<path d="M3756,2651 4056,2651 4056,2952 3756,2952 3756,2651 z " fill-rule="evenodd" fill="rgb(255,0,0)" stroke-width="5" stroke="rgb(0,0,0)" />
	<path d="M4056,3251 3756,3251 3756,3052 4056,3052 4056,3251 z " fill-rule="evenodd" fill="rgb(255,0,0)" stroke-width="5" stroke="rgb(0,0,0)" />
	<path d="M3754,4156 3754,4756 3700,4756 3700,4156 3754,4156 z " fill-rule="evenodd" fill="rgb(255,0,0)" stroke-width="5" stroke="rgb(0,0,0)" />
	<path d="M3756,4457 4056,4457 4056,4952 3756,4952 3756,4457 z " fill-rule="evenodd" fill="rgb(255,0,0)" stroke-width="5" stroke="rgb(0,0,0)" />
	<path d="M2244,241 2150,241 2150,100 2244,138.126 2244,241 z " fill-rule="evenodd" fill="rgb(255,0,0)" stroke-width="5" stroke="rgb(0,0,0)" />
	<path d="M2546,542 2246,542 2246,138.937 2546,260.615 2546,542 z " fill-rule="evenodd" fill="rgb(255,0,0)" stroke-width="5" stroke="rgb(0,0,0)" />
	<path d="M1942,1746 1642,1746 1642,1602 1942,1602 1942,1746 z " fill-rule="evenodd" fill="rgb(255,0,0)" stroke-width="5" stroke="rgb(0,0,0)" />
	<path d="M2848,843 2548,843 2548,261.427 2848,383.105 2848,843 z " fill-rule="evenodd" fill="rgb(255,0,0)" stroke-width="5" stroke="rgb(0,0,0)" />
	<path d="M1942,3552 1642,3552 1642,3152 1942,3152 1942,3552 z " fill-rule="evenodd" fill="rgb(255,0,0)" stroke-width="5" stroke="rgb(0,0,0)" />
	<path d="M3152,845 3346.53,845 3152,1324.52 3152,845 z " fill-rule="evenodd" fill="rgb(255,0,0)" stroke-width="5" stroke="rgb(0,0,0)" />
	<path d="M3452,1445 3210.67,1445 3452,849.88 3452,1445 z " fill-rule="evenodd" fill="rgb(255,0,0)" stroke-width="5" stroke="rgb(0,0,0)" />
	<path d="M2850,5960 2850,5360 2900,5360 2900,5960 2850,5960 z " fill-rule="evenodd" fill="rgb(255,0,0)" stroke-width="5" stroke="rgb(0,0,0)" />
	<path d="M4058,2952 4358,2952 4358,3552 4058,3552 4058,3052 4200,3052 4200,2952 4058,2952 4058,2952 z " fill-rule="evenodd" fill="rgb(255,0,0)" stroke-width="5" stroke="rgb(0,0,0)" />
	<path d="M4058,4758 4358,4758 4358,4952 4058,4952 4058,4758 z " fill-rule="evenodd" fill="rgb(255,0,0)" stroke-width="5" stroke="rgb(0,0,0)" />
	<path d="M3754,4758 3754,4952 3700,4952 3700,4758 3754,4758 z " fill-rule="evenodd" fill="rgb(255,0,0)" stroke-width="5" stroke="rgb(0,0,0)" />
	<path d="M1640,2047 1340,2047 1340,1502 1400,1502 1400,1602 1640,1602 1640,2047 z " fill-rule="evenodd" fill="rgb(255,0,0)" stroke-width="5" stroke="rgb(0,0,0)" />
	<path d="M3150,542 2850,542 2850,383.916 3150,505.594 3150,542 z " fill-rule="evenodd" fill="rgb(255,0,0)" stroke-width="5" stroke="rgb(0,0,0)" />
	<path d="M3152,843 3152,506.406 3437,622 3347.34,843 3152,843 z " fill-rule="evenodd" fill="rgb(255,0,0)" stroke-width="5" stroke="rgb(0,0,0)" />
	<path d="M1340,2651 1640,2651 1640,2952 1340,2952 1340,2651 z " fill-rule="evenodd" fill="rgb(255,0,0)" stroke-width="5" stroke="rgb(0,0,0)" />
	<path d="M1640,3251 1340,3251 1340,3152 1640,3152 1640,3251 z " fill-rule="evenodd" fill="rgb(255,0,0)" stroke-width="5" stroke="rgb(0,0,0)" />
	<path d="M3754,1144 3454,1144 3454,844.948 3529,660 3754,751.358 3754,1144 z " fill-rule="evenodd" fill="rgb(255,0,0)" stroke-width="5" stroke="rgb(0,0,0)" />
	<path d="M4056,1445 3756,1445 3756,845 3984.63,845 4056,873.98 4056,1445 z " fill-rule="evenodd" fill="rgb(255,0,0)" stroke-width="5" stroke="rgb(0,0,0)" />
	<path d="M2850,6562 2850,5962 2900,5962 2900,6052 3100,6052 3100,6562 2850,6562 z " fill-rule="evenodd" fill="rgb(255,0,0)" stroke-width="5" stroke="rgb(0,0,0)" />
	<path d="M4360,4457 4660,4457 4660,4952 4360,4952 4360,4457 z " fill-rule="evenodd" fill="rgb(255,0,0)" stroke-width="5" stroke="rgb(0,0,0)" />
	<path d="M1338,1746 1038,1746 1038,1502 1338,1502 1338,1746 z " fill-rule="evenodd" fill="rgb(255,0,0)" stroke-width="5" stroke="rgb(0,0,0)" />
	<path d="M1338,3552 1038,3552 1038,3152 1338,3152 1338,3552 z " fill-rule="evenodd" fill="rgb(255,0,0)" stroke-width="5" stroke="rgb(0,0,0)" />
	<path d="M3756,843 3756,752.17 3979.7,843 3756,843 z " fill-rule="evenodd" fill="rgb(255,0,0)" stroke-width="5" stroke="rgb(0,0,0)" />
	<path d="M4358,1144 4058,1144 4058,874.792 4358,996.602 4358,1144 z " fill-rule="evenodd" fill="rgb(255,0,0)" stroke-width="5" stroke="rgb(0,0,0)" />
	<path d="M2850,6564 3100,6564 3100,6852 2900,6852 2900,6952 2850,6952 2850,6564 z " fill-rule="evenodd" fill="rgb(255,0,0)" stroke-width="5" stroke="rgb(0,0,0)" />
	<path d="M4660,1445 4360,1445 4360,997.415 4660,1119.22 4660,1445 z " fill-rule="evenodd" fill="rgb(255,0,0)" stroke-width="5" stroke="rgb(0,0,0)" />
	<path d="M4962,1746 4662,1746 4662,1146 4725.94,1146 4962,1241.85 4962,1746 z " fill-rule="evenodd" fill="rgb(255,0,0)" stroke-width="5" stroke="rgb(0,0,0)" />
	<path d="M4662,3552 4662,2952 4962,2952 4962,2952 4900,2952 4900,3052 4950,3052 4950,3552 4662,3552 z " fill-rule="evenodd" fill="rgb(255,0,0)" stroke-width="5" stroke="rgb(0,0,0)" />
	<path d="M4662,4154 4662,3554 4950,3554 4950,4154 4662,4154 z " fill-rule="evenodd" fill="rgb(255,0,0)" stroke-width="5" stroke="rgb(0,0,0)" />
	<path d="M4662,4756 4662,4156 4950,4156 4950,4756 4662,4756 z " fill-rule="evenodd" fill="rgb(255,0,0)" stroke-width="5" stroke="rgb(0,0,0)" />
	<path d="M4662,4758 4950,4758 4950,4952 4662,4952 4662,4758 z " fill-rule="evenodd" fill="rgb(255,0,0)" stroke-width="5" stroke="rgb(0,0,0)" />
	<path d="M1036,2047 736,2047 736,1502 1036,1502 1036,2047 z " fill-rule="evenodd" fill="rgb(255,0,0)" stroke-width="5" stroke="rgb(0,0,0)" />
	<path d="M736,2651 1036,2651 1036,2952 736,2952 736,2651 z " fill-rule="evenodd" fill="rgb(255,0,0)" stroke-width="5" stroke="rgb(0,0,0)" />
	<path d="M1036,3251 736,3251 736,3152 1036,3152 1036,3251 z " fill-rule="evenodd" fill="rgb(255,0,0)" stroke-width="5" stroke="rgb(0,0,0)" />
	<path d="M2246,6564 2546,6564 2546,6952 2246,6952 2246,6564 z " fill-rule="evenodd" fill="rgb(255,0,0)" stroke-width="5" stroke="rgb(0,0,0)" />
	<path d="M2548,6865 2848,6865 2848,6952 2548,6952 2548,6865 z " fill-rule="evenodd" fill="rgb(255,0,0)" stroke-width="5" stroke="rgb(0,0,0)" />
	<path d="M4662,1144 4662,1120.04 4721.02,1144 4662,1144 z " fill-rule="evenodd" fill="rgb(255,0,0)" stroke-width="5" stroke="rgb(0,0,0)" />
	<path d="M5264,1445 4964,1445 4964,1242.66 5264,1364.47 5264,1445 z " fill-rule="evenodd" fill="rgb(255,0,0)" stroke-width="5" stroke="rgb(0,0,0)" />
	<path d="M4964,2651 5264,2651 5264,3251 5050,3251 5050,2952 4964,2952 4964,2651 z " fill-rule="evenodd" fill="rgb(255,0,0)" stroke-width="5" stroke="rgb(0,0,0)" />
	<path d="M5264,3253 5264,3853 5050,3853 5050,3253 5264,3253 z " fill-rule="evenodd" fill="rgb(255,0,0)" stroke-width="5" stroke="rgb(0,0,0)" />
	<path d="M5264,3855 5264,4455 5050,4455 5050,3855 5264,3855 z " fill-rule="evenodd" fill="rgb(255,0,0)" stroke-width="5" stroke="rgb(0,0,0)" />
	<path d="M5264,4457 5264,5057 5050,5057 5050,4457 5264,4457 z " fill-rule="evenodd" fill="rgb(255,0,0)" stroke-width="5" stroke="rgb(0,0,0)" />
	<path d="M5264,5059 5264,5552 5050,5552 5050,5059 5264,5059 z " fill-rule="evenodd" fill="rgb(255,0,0)" stroke-width="5" stroke="rgb(0,0,0)" />
	<path d="M734,1746 434,1746 434,1602 700,1602 700,1502 734,1502 734,1746 z " fill-rule="evenodd" fill="rgb(255,0,0)" stroke-width="5" stroke="rgb(0,0,0)" />
	<path d="M734,3552 434,3552 434,3152 734,3152 734,3552 z " fill-rule="evenodd" fill="rgb(255,0,0)" stroke-width="5" stroke="rgb(0,0,0)" />
	<path d="M1642,6564 1942,6564 1942,6952 1642,6952 1642,6564 z " fill-rule="evenodd" fill="rgb(255,0,0)" stroke-width="5" stroke="rgb(0,0,0)" />
	<path d="M1944,6865 2244,6865 2244,6952 1944,6952 1944,6865 z " fill-rule="evenodd" fill="rgb(255,0,0)" stroke-width="5" stroke="rgb(0,0,0)" />
	<path d="M5566,1746 5266,1746 5266,1365.28 5566,1487.09 5566,1746 z " fill-rule="evenodd" fill="rgb(255,0,0)" stroke-width="5" stroke="rgb(0,0,0)" />
	<path d="M5266,5360 5566,5360 5566,5552 5266,5552 5266,5360 z " fill-rule="evenodd" fill="rgb(255,0,0)" stroke-width="5" stroke="rgb(0,0,0)" />
	<path d="M432,2047 132,2047 132,1602 432,1602 432,2047 z " fill-rule="evenodd" fill="rgb(255,0,0)" stroke-width="5" stroke="rgb(0,0,0)" />
	<path d="M132,2651 432,2651 432,2952 132,2952 132,2651 z " fill-rule="evenodd" fill="rgb(255,0,0)" stroke-width="5" stroke="rgb(0,0,0)" />
	<path d="M432,3251 132,3251 132,3152 432,3152 432,3251 z " fill-rule="evenodd" fill="rgb(255,0,0)" stroke-width="5" stroke="rgb(0,0,0)" />
	<path d="M1038,6564 1338,6564 1338,6952 1038,6952 1038,6564 z " fill-rule="evenodd" fill="rgb(255,0,0)" stroke-width="5" stroke="rgb(0,0,0)" />
	<path d="M1340,6865 1640,6865 1640,6952 1340,6952 1340,6865 z " fill-rule="evenodd" fill="rgb(255,0,0)" stroke-width="5" stroke="rgb(0,0,0)" />
	<path d="M5868,2047 5568,2047 5568,1487.9 5868,1609.71 5868,2047 z " fill-rule="evenodd" fill="rgb(255,0,0)" stroke-width="5" stroke="rgb(0,0,0)" />
	<path d="M5568,5059 5868,5059 5868,5552 5568,5552 5568,5059 z " fill-rule="evenodd" fill="rgb(255,0,0)" stroke-width="5" stroke="rgb(0,0,0)" />
	<path d="M130,1746 100,1746 100,1602 130,1602 130,1746 z " fill-rule="evenodd" fill="rgb(255,0,0)" stroke-width="5" stroke="rgb(0,0,0)" />
	<path d="M130,1748 130,2348 100,2348 100,1748 130,1748 z " fill-rule="evenodd" fill="rgb(255,0,0)" stroke-width="5" stroke="rgb(0,0,0)" />
	<path d="M130,2350 130,2950 100,2950 100,2350 130,2350 z " fill-rule="evenodd" fill="rgb(255,0,0)" stroke-width="5" stroke="rgb(0,0,0)" />
	<path d="M130,3552 100,3552 100,3152 130,3152 130,3552 z " fill-rule="evenodd" fill="rgb(255,0,0)" stroke-width="5" stroke="rgb(0,0,0)" />
	<path d="M130,3554 130,4154 100,4154 100,3554 130,3554 z " fill-rule="evenodd" fill="rgb(255,0,0)" stroke-width="5" stroke="rgb(0,0,0)" />
	<path d="M130,4156 130,4756 100,4756 100,4156 130,4156 z " fill-rule="evenodd" fill="rgb(255,0,0)" stroke-width="5" stroke="rgb(0,0,0)" />
	<path d="M130,4758 130,5358 100,5358 100,4758 130,4758 z " fill-rule="evenodd" fill="rgb(255,0,0)" stroke-width="5" stroke="rgb(0,0,0)" />
	<path d="M130,5360 130,5960 100,5960 100,5360 130,5360 z " fill-rule="evenodd" fill="rgb(255,0,0)" stroke-width="5" stroke="rgb(0,0,0)" />
	<path d="M130,5962 130,6562 100,6562 100,5962 130,5962 z " fill-rule="evenodd" fill="rgb(255,0,0)" stroke-width="5" stroke="rgb(0,0,0)" />
	<path d="M434,6564 734,6564 734,6952 434,6952 434,6564 z " fill-rule="evenodd" fill="rgb(255,0,0)" stroke-width="5" stroke="rgb(0,0,0)" />
	<path d="M736,6865 1036,6865 1036,6952 736,6952 736,6865 z " fill-rule="evenodd" fill="rgb(255,0,0)" stroke-width="5" stroke="rgb(0,0,0)" />
	<path d="M6170,1746 5870,1746 5870,1610.53 6170,1732.34 6170,1746 z " fill-rule="evenodd" fill="rgb(255,0,0)" stroke-width="5" stroke="rgb(0,0,0)" />
	<path d="M5870,5360 6170,5360 6170,5552 5870,5552 5870,5360 z " fill-rule="evenodd" fill="rgb(255,0,0)" stroke-width="5" stroke="rgb(0,0,0)" />
	<path d="M130,6564 130,6952 100,6952 100,6564 130,6564 z " fill-rule="evenodd" fill="rgb(255,0,0)" stroke-width="5" stroke="rgb(0,0,0)" />
	<path d="M132,6865 432,6865 432,6952 132,6952 132,6865 z " fill-rule="evenodd" fill="rgb(255,0,0)" stroke-width="5" stroke="rgb(0,0,0)" />
	<path d="M6472,2047 6172,2047 6172,1733.15 6472,1854.96 6472,2047 z " fill-rule="evenodd" fill="rgb(255,0,0)" stroke-width="5" stroke="rgb(0,0,0)" />
	<path d="M6172,5059 6472,5059 6472,5552 6172,5552 6172,5059 z " fill-rule="evenodd" fill="rgb(255,0,0)" stroke-width="5" stroke="rgb(0,0,0)" />
	<path d="M6774,2348 6474,2348 6474,1855.77 6774,1977.58 6774,2348 z " fill-rule="evenodd" fill="rgb(255,0,0)" stroke-width="5" stroke="rgb(0,0,0)" />
	<path d="M6474,5360 6774,5360 6774,5552 6474,5552 6474,5360 z " fill-rule="evenodd" fill="rgb(255,0,0)" stroke-width="5" stroke="rgb(0,0,0)" />
	<path d="M6776,2047 6776,1978.39 6944.97,2047 6776,2047 z " fill-rule="evenodd" fill="rgb(255,0,0)" stroke-width="5" stroke="rgb(0,0,0)" />
	<path d="M7076,2649 6776,2649 6776,2049 6949.89,2049 7076,2100.2 7076,2649 z " fill-rule="evenodd" fill="rgb(255,0,0)" stroke-width="5" stroke="rgb(0,0,0)" />
	<path d="M6776,5059 7076,5059 7076,5552 6776,5552 6776,5059 z " fill-rule="evenodd" fill="rgb(255,0,0)" stroke-width="5" stroke="rgb(0,0,0)" />
	<path d="M7378,2348 7078,2348 7078,2101.02 7378,2222.83 7378,2348 z " fill-rule="evenodd" fill="rgb(255,0,0)" stroke-width="5" stroke="rgb(0,0,0)" />
	<path d="M7078,5360 7378,5360 7378,5552 7078,5552 7078,5360 z " fill-rule="evenodd" fill="rgb(255,0,0)" stroke-width="5" stroke="rgb(0,0,0)" />
	<path d="M7680,2649 7380,2649 7380,2223.64 7680,2345.45 7680,2649 z " fill-rule="evenodd" fill="rgb(255,0,0)" stroke-width="5" stroke="rgb(0,0,0)" />
	<path d="M7380,5059 7680,5059 7680,5552 7380,5552 7380,5059 z " fill-rule="evenodd" fill="rgb(255,0,0)" stroke-width="5" stroke="rgb(0,0,0)" />
	<path d="M7682,2348 7682,2346.26 7686.28,2348 7682,2348 z " fill-rule="evenodd" fill="rgb(255,0,0)" stroke-width="5" stroke="rgb(0,0,0)" />
	<path d="M7982,2950 7682,2950 7682,2350 7691.21,2350 7982,2468.07 7982,2950 z " fill-rule="evenodd" fill="rgb(255,0,0)" stroke-width="5" stroke="rgb(0,0,0)" />
	<path d="M7682,5360 7982,5360 7982,5552 7682,5552 7682,5360 z " fill-rule="evenodd" fill="rgb(255,0,0)" stroke-width="5" stroke="rgb(0,0,0)" />
	<path d="M8284,2649 7984,2649 7984,2468.88 8284,2590.69 8284,2649 z " fill-rule="evenodd" fill="rgb(255,0,0)" stroke-width="5" stroke="rgb(0,0,0)" />
	<path d="M7984,5059 8284,5059 8284,5552 7984,5552 7984,5059 z " fill-rule="evenodd" fill="rgb(255,0,0)" stroke-width="5" stroke="rgb(0,0,0)" />
	<path d="M8586,2950 8286,2950 8286,2591.51 8586,2713.32 8586,2950 z " fill-rule="evenodd" fill="rgb(255,0,0)" stroke-width="5" stroke="rgb(0,0,0)" />
	<path d="M8286,5360 8586,5360 8586,5552 8286,5552 8286,5360 z " fill-rule="evenodd" fill="rgb(255,0,0)" stroke-width="5" stroke="rgb(0,0,0)" />
	<path d="M8588,3251 8588,2714.13 8600,2719 8600,3251 8588,3251 z " fill-rule="evenodd" fill="rgb(255,0,0)" stroke-width="5" stroke="rgb(0,0,0)" />
	<path d="M8588,3853 8588,3253 8600,3253 8600,3853 8588,3853 z " fill-rule="evenodd" fill="rgb(255,0,0)" stroke-width="5" stroke="rgb(0,0,0)" />
	<path d="M8588,4455 8588,3855 8600,3855 8600,4455 8588,4455 z " fill-rule="evenodd" fill="rgb(255,0,0)" stroke-width="5" stroke="rgb(0,0,0)" />
	<path d="M8588,5057 8588,4457 8600,4457 8600,5057 8588,5057 z " fill-rule="evenodd" fill="rgb(255,0,0)" stroke-width="5" stroke="rgb(0,0,0)" />
	<path d="M8588,5059 8600,5059 8600,5552 8588,5552 8588,5059 z " fill-rule="evenodd" fill="rgb(255,0,0)" stroke-width="5" stroke="rgb(0,0,0)" />
	<polyline points="2845,2957 2845,3557 2845,2957 3445,2957 2845,2957 " fill="none" stroke-width="100" stroke="rgb(0,0,0)" />
	<circle cx="2845" cy="2957" r="-10" fill="rgb(0,0,0)" />
	<circle cx="2845" cy="3557" r="-10" fill="rgb(0,0,0)" />
	<circle cx="2845" cy="2957" r="-10" fill="rgb(0,0,0)" />
	<circle cx="3445" cy="2957" r="-10" fill="rgb(0,0,0)" />
	<circle cx="2845" cy="2957" r="-10" fill="rgb(0,0,0)" />
	<polyline points="2845,3617 2845,2957 2185,2957 " fill="none" stroke-width="0.5" stroke="rgb(128,0,128)" />
</svg>
