<?xml version="1.0" standalone="no" ?>
<!DOCTYPE svg PUBLIC "-//W3C//DTD SVG 1.1//EN" "http://www.w3.org/Graphics/SVG/1.1/DTD/svg11.dtd">
<svg width="8700px" height="7052px" xmlns="http://www.w3.org/2000/svg" version="1.1" >
	<path d="M3152,2851 3152,2251 2852,2251 2852,2851 3152,2851 z " fill-rule="evenodd" fill="rgb(0,128,0)" stroke-width="5" stroke="rgb(0,0,0)" />
	<path d="M2850,3754 2850,3154 2550,3154 2550,3754 2850,3754 z " fill-rule="evenodd" fill="rgb(0,128,0)" stroke-width="5" stroke="rgb(0,0,0)" />
	<path d="M2850,3152 2850,2552 2550,2552 2550,3152 2850,3152 z " fill-rule="evenodd" fill="rgb(0,128,0)" stroke-width="5" stroke="rgb(0,0,0)" />
	<path d="M2850,2550 2850,1950 2550,1950 2550,2550 2850,2550 z " fill-rule="evenodd" fill="rgb(0,128,0)" stroke-width="5" stroke="rgb(0,0,0)" />
	<path d="M2548,3453 2548,2853 2248,2853 2248,3453 2548,3453 z " fill-rule="evenodd" fill="rgb(0,128,0)" stroke-width="5" stroke="rgb(0,0,0)" />
	<path d="M2548,2851 2548,2251 2248,2251 2248,2851 2548,2851 z " fill-rule="evenodd" fill="rgb(0,128,0)" stroke-width="5" stroke="rgb(0,0,0)" />
	<path d="M2548,2249 2548,1649 2248,1649 2248,2249 2548,2249 z " fill-rule="evenodd" fill="rgb(0,128,0)" stroke-width="5" stroke="rgb(0,0,0)" />
	<path d="M2850,4356 2850,3756 2550,3756 2550,4356 2850,4356 z " fill-rule="evenodd" fill="rgb(0,128,0)" stroke-width="5" stroke="rgb(0,0,0)" />
	<path d="M3454,2550 3454,1950 3154,1950 3154,2550 3454,2550 z " fill-rule="evenodd" fill="rgb(0,128,0)" stroke-width="5" stroke="rgb(0,0,0)" />
	<path d="M3152,2249 3152,1649 2852,1649 2852,2249 3152,2249 z " fill-rule="evenodd" fill="rgb(0,128,0)" stroke-width="5" stroke="rgb(0,0,0)" />
	<path d="M2850,1948 2850,1348 2550,1348 2550,1948 2850,1948 z " fill-rule="evenodd" fill="rgb(0,128,0)" stroke-width="5" stroke="rgb(0,0,0)" />
	<path d="M2548,4055 2548,3455 2248,3455 2248,4055 2548,4055 z " fill-rule="evenodd" fill="rgb(0,128,0)" stroke-width="5" stroke="rgb(0,0,0)" />
	<path d="M2548,1647 2548,1047 2248,1047 2248,1647 2548,1647 z " fill-rule="evenodd" fill="rgb(0,128,0)" stroke-width="5" stroke="rgb(0,0,0)" />
	<path d="M2246,3754 2246,3154 1946,3154 1946,3754 2246,3754 z " fill-rule="evenodd" fill="rgb(0,128,0)" stroke-width="5" stroke="rgb(0,0,0)" />
	<path d="M2246,2550 2246,1950 1946,1950 1946,2550 2246,2550 z " fill-rule="evenodd" fill="rgb(0,128,0)" stroke-width="5" stroke="rgb(0,0,0)" />
	<path d="M2850,4958 2850,4358 2550,4358 2550,4958 2850,4958 z " fill-rule="evenodd" fill="rgb(0,128,0)" stroke-width="5" stroke="rgb(0,0,0)" />
	<path d="M2548,4657 2548,4057 2248,4057 2248,4657 2548,4657 z " fill-rule="evenodd" fill="rgb(0,128,0)" stroke-width="5" stroke="rgb(0,0,0)" />
	<path d="M3756,2851 3756,2251 3456,2251 3456,2851 3756,2851 z " fill-rule="evenodd" fill="rgb(0,128,0)" stroke-width="5" stroke="rgb(0,0,0)" />
	<path d="M3756,2249 3756,1649 3456,1649 3456,2249 3756,2249 z " fill-rule="evenodd" fill="rgb(0,128,0)" stroke-width="5" stroke="rgb(0,0,0)" />
	<path d="M2850,1346 2850,746 2550,746 2550,1346 2850,1346 z " fill-rule="evenodd" fill="rgb(0,128,0)" stroke-width="5" stroke="rgb(0,0,0)" />
	<path d="M2548,1045 2548,445 2248,445 2248,1045 2548,1045 z " fill-rule="evenodd" fill="rgb(0,128,0)" stroke-width="5" stroke="rgb(0,0,0)" />
	<path d="M2246,4356 2246,3756 1946,3756 1946,4356 2246,4356 z " fill-rule="evenodd" fill="rgb(0,128,0)" stroke-width="5" stroke="rgb(0,0,0)" />
	<path d="M1944,4055 1944,3455 1644,3455 1644,4055 1944,4055 z " fill-rule="evenodd" fill="rgb(0,128,0)" stroke-width="5" stroke="rgb(0,0,0)" />
	<path d="M1944,2851 1944,2251 1644,2251 1644,2851 1944,2851 z " fill-rule="evenodd" fill="rgb(0,128,0)" stroke-width="5" stroke="rgb(0,0,0)" />
	<path d="M1944,2249 1944,1649 1644,1649 1644,2249 1944,2249 z " fill-rule="evenodd" fill="rgb(0,128,0)" stroke-width="5" stroke="rgb(0,0,0)" />
	<path d="M2850,5560 2850,4960 2550,4960 2550,5560 2850,5560 z " fill-rule="evenodd" fill="rgb(0,128,0)" stroke-width="5" stroke="rgb(0,0,0)" />
	<path d="M2548,5259 2548,4659 2248,4659 2248,5259 2548,5259 z " fill-rule="evenodd" fill="rgb(0,128,0)" stroke-width="5" stroke="rgb(0,0,0)" />
	<path d="M2246,4958 2246,4358 1946,4358 1946,4958 2246,4958 z " fill-rule="evenodd" fill="rgb(0,128,0)" stroke-width="5" stroke="rgb(0,0,0)" />
	<path d="M4058,4356 4058,3756 3758,3756 3758,4356 4058,4356 z " fill-rule="evenodd" fill="rgb(0,128,0)" stroke-width="5" stroke="rgb(0,0,0)" />
	<path d="M4058,3754 4058,3154 3758,3154 3758,3754 4058,3754 z " fill-rule="evenodd" fill="rgb(0,128,0)" stroke-width="5" stroke="rgb(0,0,0)" />
	<path d="M4058,2550 4058,1950 3758,1950 3758,2550 4058,2550 z " fill-rule="evenodd" fill="rgb(0,128,0)" stroke-width="5" stroke="rgb(0,0,0)" />
	<path d="M4058,1948 4058,1348 3758,1348 3758,1948 4058,1948 z " fill-rule="evenodd" fill="rgb(0,128,0)" stroke-width="5" stroke="rgb(0,0,0)" />
	<path d="M3756,1647 3756,1047 3456,1047 3456,1647 3756,1647 z " fill-rule="evenodd" fill="rgb(0,128,0)" stroke-width="5" stroke="rgb(0,0,0)" />
	<path d="M1944,4657 1944,4057 1644,4057 1644,4657 1944,4657 z " fill-rule="evenodd" fill="rgb(0,128,0)" stroke-width="5" stroke="rgb(0,0,0)" />
	<path d="M1642,4356 1642,3756 1342,3756 1342,4356 1642,4356 z " fill-rule="evenodd" fill="rgb(0,128,0)" stroke-width="5" stroke="rgb(0,0,0)" />
	<path d="M1642,3754 1642,3154 1342,3154 1342,3754 1642,3754 z " fill-rule="evenodd" fill="rgb(0,128,0)" stroke-width="5" stroke="rgb(0,0,0)" />
	<path d="M1642,2550 1642,1950 1342,1950 1342,2550 1642,2550 z " fill-rule="evenodd" fill="rgb(0,128,0)" stroke-width="5" stroke="rgb(0,0,0)" />
	<path d="M2850,6162 2850,5562 2550,5562 2550,6162 2850,6162 z " fill-rule="evenodd" fill="rgb(0,128,0)" stroke-width="5" stroke="rgb(0,0,0)" />
	<path d="M2548,5861 2548,5261 2248,5261 2248,5861 2548,5861 z " fill-rule="evenodd" fill="rgb(0,128,0)" stroke-width="5" stroke="rgb(0,0,0)" />
	<path d="M2246,5560 2246,4960 1946,4960 1946,5560 2246,5560 z " fill-rule="evenodd" fill="rgb(0,128,0)" stroke-width="5" stroke="rgb(0,0,0)" />
	<path d="M1944,5259 1944,4659 1644,4659 1644,5259 1944,5259 z " fill-rule="evenodd" fill="rgb(0,128,0)" stroke-width="5" stroke="rgb(0,0,0)" />
	<path d="M4360,4657 4360,4057 4060,4057 4060,4657 4360,4657 z " fill-rule="evenodd" fill="rgb(0,128,0)" stroke-width="5" stroke="rgb(0,0,0)" />
	<path d="M4360,4055 4360,3455 4060,3455 4060,4055 4360,4055 z " fill-rule="evenodd" fill="rgb(0,128,0)" stroke-width="5" stroke="rgb(0,0,0)" />
	<path d="M4360,2851 4360,2251 4060,2251 4060,2851 4360,2851 z " fill-rule="evenodd" fill="rgb(0,128,0)" stroke-width="5" stroke="rgb(0,0,0)" />
	<path d="M4360,2249 4360,1649 4060,1649 4060,2249 4360,2249 z " fill-rule="evenodd" fill="rgb(0,128,0)" stroke-width="5" stroke="rgb(0,0,0)" />
	<path d="M4360,1647 4360,1047 4060,1047 4060,1647 4360,1647 z " fill-rule="evenodd" fill="rgb(0,128,0)" stroke-width="5" stroke="rgb(0,0,0)" />
	<path d="M1642,4958 1642,4358 1342,4358 1342,4958 1642,4958 z " fill-rule="evenodd" fill="rgb(0,128,0)" stroke-width="5" stroke="rgb(0,0,0)" />
	<path d="M1340,4657 1340,4057 1040,4057 1040,4657 1340,4657 z " fill-rule="evenodd" fill="rgb(0,128,0)" stroke-width="5" stroke="rgb(0,0,0)" />
	<path d="M1340,4055 1340,3455 1040,3455 1040,4055 1340,4055 z " fill-rule="evenodd" fill="rgb(0,128,0)" stroke-width="5" stroke="rgb(0,0,0)" />
	<path d="M1340,2851 1340,2251 1040,2251 1040,2851 1340,2851 z " fill-rule="evenodd" fill="rgb(0,128,0)" stroke-width="5" stroke="rgb(0,0,0)" />
	<path d="M1340,2249 1340,1649 1040,1649 1040,2249 1340,2249 z " fill-rule="evenodd" fill="rgb(0,128,0)" stroke-width="5" stroke="rgb(0,0,0)" />
	<path d="M2850,6764 2850,6164 2550,6164 2550,6764 2850,6764 z " fill-rule="evenodd" fill="rgb(0,128,0)" stroke-width="5" stroke="rgb(0,0,0)" />
	<path d="M2548,6463 2548,5863 2248,5863 2248,6463 2548,6463 z " fill-rule="evenodd" fill="rgb(0,128,0)" stroke-width="5" stroke="rgb(0,0,0)" />
	<path d="M2246,6162 2246,5562 1946,5562 1946,6162 2246,6162 z " fill-rule="evenodd" fill="rgb(0,128,0)" stroke-width="5" stroke="rgb(0,0,0)" />
	<path d="M1944,5861 1944,5261 1644,5261 1644,5861 1944,5861 z " fill-rule="evenodd" fill="rgb(0,128,0)" stroke-width="5" stroke="rgb(0,0,0)" />
	<path d="M1642,5560 1642,4960 1342,4960 1342,5560 1642,5560 z " fill-rule="evenodd" fill="rgb(0,128,0)" stroke-width="5" stroke="rgb(0,0,0)" />
	<path d="M4662,4356 4662,3756 4362,3756 4362,4356 4662,4356 z " fill-rule="evenodd" fill="rgb(0,128,0)" stroke-width="5" stroke="rgb(0,0,0)" />
	<path d="M4662,3754 4662,3154 4362,3154 4362,3754 4662,3754 z " fill-rule="evenodd" fill="rgb(0,128,0)" stroke-width="5" stroke="rgb(0,0,0)" />
	<path d="M4662,3152 4662,2552 4362,2552 4362,3152 4662,3152 z " fill-rule="evenodd" fill="rgb(0,128,0)" stroke-width="5" stroke="rgb(0,0,0)" />
	<path d="M4662,2550 4662,1950 4362,1950 4362,2550 4662,2550 z " fill-rule="evenodd" fill="rgb(0,128,0)" stroke-width="5" stroke="rgb(0,0,0)" />
	<path d="M4662,1948 4662,1348 4362,1348 4362,1948 4662,1948 z " fill-rule="evenodd" fill="rgb(0,128,0)" stroke-width="5" stroke="rgb(0,0,0)" />
	<path d="M1340,5259 1340,4659 1040,4659 1040,5259 1340,5259 z " fill-rule="evenodd" fill="rgb(0,128,0)" stroke-width="5" stroke="rgb(0,0,0)" />
	<path d="M1038,4958 1038,4358 738,4358 738,4958 1038,4958 z " fill-rule="evenodd" fill="rgb(0,128,0)" stroke-width="5" stroke="rgb(0,0,0)" />
	<path d="M1038,4356 1038,3756 738,3756 738,4356 1038,4356 z " fill-rule="evenodd" fill="rgb(0,128,0)" stroke-width="5" stroke="rgb(0,0,0)" />
	<path d="M1038,3754 1038,3154 738,3154 738,3754 1038,3754 z " fill-rule="evenodd" fill="rgb(0,128,0)" stroke-width="5" stroke="rgb(0,0,0)" />
	<path d="M1038,2550 1038,1950 738,1950 738,2550 1038,2550 z " fill-rule="evenodd" fill="rgb(0,128,0)" stroke-width="5" stroke="rgb(0,0,0)" />
	<path d="M2246,6764 2246,6164 1946,6164 1946,6764 2246,6764 z " fill-rule="evenodd" fill="rgb(0,128,0)" stroke-width="5" stroke="rgb(0,0,0)" />
	<path d="M1944,6463 1944,5863 1644,5863 1644,6463 1944,6463 z " fill-rule="evenodd" fill="rgb(0,128,0)" stroke-width="5" stroke="rgb(0,0,0)" />
	<path d="M1642,6162 1642,5562 1342,5562 1342,6162 1642,6162 z " fill-rule="evenodd" fill="rgb(0,128,0)" stroke-width="5" stroke="rgb(0,0,0)" />
	<path d="M1340,5861 1340,5261 1040,5261 1040,5861 1340,5861 z " fill-rule="evenodd" fill="rgb(0,128,0)" stroke-width="5" stroke="rgb(0,0,0)" />
	<path d="M4964,2851 4964,2251 4664,2251 4664,2851 4964,2851 z " fill-rule="evenodd" fill="rgb(0,128,0)" stroke-width="5" stroke="rgb(0,0,0)" />
	<path d="M4964,2249 4964,1649 4664,1649 4664,2249 4964,2249 z " fill-rule="evenodd" fill="rgb(0,128,0)" stroke-width="5" stroke="rgb(0,0,0)" />
	<path d="M1038,5560 1038,4960 738,4960 738,5560 1038,5560 z " fill-rule="evenodd" fill="rgb(0,128,0)" stroke-width="5" stroke="rgb(0,0,0)" />
	<path d="M736,5259 736,4659 436,4659 436,5259 736,5259 z " fill-rule="evenodd" fill="rgb(0,128,0)" stroke-width="5" stroke="rgb(0,0,0)" />
	<path d="M736,4657 736,4057 436,4057 436,4657 736,4657 z " fill-rule="evenodd" fill="rgb(0,128,0)" stroke-width="5" stroke="rgb(0,0,0)" />
	<path d="M736,4055 736,3455 436,3455 436,4055 736,4055 z " fill-rule="evenodd" fill="rgb(0,128,0)" stroke-width="5" stroke="rgb(0,0,0)" />
	<path d="M736,2851 736,2251 436,2251 436,2851 736,2851 z " fill-rule="evenodd" fill="rgb(0,128,0)" stroke-width="5" stroke="rgb(0,0,0)" />
	<path d="M736,2249 736,1649 436,1649 436,2249 736,2249 z " fill-rule="evenodd" fill="rgb(0,128,0)" stroke-width="5" stroke="rgb(0,0,0)" />
	<path d="M1642,6764 1642,6164 1342,6164 1342,6764 1642,6764 z " fill-rule="evenodd" fill="rgb(0,128,0)" stroke-width="5" stroke="rgb(0,0,0)" />
	<path d="M1340,6463 1340,5863 1040,5863 1040,6463 1340,6463 z " fill-rule="evenodd" fill="rgb(0,128,0)" stroke-width="5" stroke="rgb(0,0,0)" />
	<path d="M1038,6162 1038,5562 738,5562 738,6162 1038,6162 z " fill-rule="evenodd" fill="rgb(0,128,0)" stroke-width="5" stroke="rgb(0,0,0)" />
	<path d="M5266,2550 5266,1950 4966,1950 4966,2550 5266,2550 z " fill-rule="evenodd" fill="rgb(0,128,0)" stroke-width="5" stroke="rgb(0,0,0)" />
	<path d="M736,5861 736,5261 436,5261 436,5861 736,5861 z " fill-rule="evenodd" fill="rgb(0,128,0)" stroke-width="5" stroke="rgb(0,0,0)" />
	<path d="M434,5560 434,4960 134,4960 134,5560 434,5560 z " fill-rule="evenodd" fill="rgb(0,128,0)" stroke-width="5" stroke="rgb(0,0,0)" />
	<path d="M434,4958 434,4358 134,4358 134,4958 434,4958 z " fill-rule="evenodd" fill="rgb(0,128,0)" stroke-width="5" stroke="rgb(0,0,0)" />
	<path d="M434,4356 434,3756 134,3756 134,4356 434,4356 z " fill-rule="evenodd" fill="rgb(0,128,0)" stroke-width="5" stroke="rgb(0,0,0)" />
	<path d="M434,3754 434,3154 134,3154 134,3754 434,3754 z " fill-rule="evenodd" fill="rgb(0,128,0)" stroke-width="5" stroke="rgb(0,0,0)" />
	<path d="M434,2550 434,1950 134,1950 134,2550 434,2550 z " fill-rule="evenodd" fill="rgb(0,128,0)" stroke-width="5" stroke="rgb(0,0,0)" />
	<path d="M1038,6764 1038,6164 738,6164 738,6764 1038,6764 z " fill-rule="evenodd" fill="rgb(0,128,0)" stroke-width="5" stroke="rgb(0,0,0)" />
	<path d="M736,6463 736,5863 436,5863 436,6463 736,6463 z " fill-rule="evenodd" fill="rgb(0,128,0)" stroke-width="5" stroke="rgb(0,0,0)" />
	<path d="M5568,5259 5568,4659 5268,4659 5268,5259 5568,5259 z " fill-rule="evenodd" fill="rgb(0,128,0)" stroke-width="5" stroke="rgb(0,0,0)" />
	<path d="M5568,4657 5568,4057 5268,4057 5268,4657 5568,4657 z " fill-rule="evenodd" fill="rgb(0,128,0)" stroke-width="5" stroke="rgb(0,0,0)" />
	<path d="M5568,4055 5568,3455 5268,3455 5268,4055 5568,4055 z " fill-rule="evenodd" fill="rgb(0,128,0)" stroke-width="5" stroke="rgb(0,0,0)" />
	<path d="M5568,3453 5568,2853 5268,2853 5268,3453 5568,3453 z " fill-rule="evenodd" fill="rgb(0,128,0)" stroke-width="5" stroke="rgb(0,0,0)" />
	<path d="M5568,2851 5568,2251 5268,2251 5268,2851 5568,2851 z " fill-rule="evenodd" fill="rgb(0,128,0)" stroke-width="5" stroke="rgb(0,0,0)" />
	<path d="M5568,2249 5568,1649 5268,1649 5268,2249 5568,2249 z " fill-rule="evenodd" fill="rgb(0,128,0)" stroke-width="5" stroke="rgb(0,0,0)" />
	<path d="M434,6162 434,5562 134,5562 134,6162 434,6162 z " fill-rule="evenodd" fill="rgb(0,128,0)" stroke-width="5" stroke="rgb(0,0,0)" />
	<path d="M434,6764 434,6164 134,6164 134,6764 434,6764 z " fill-rule="evenodd" fill="rgb(0,128,0)" stroke-width="5" stroke="rgb(0,0,0)" />
	<path d="M5870,4958 5870,4358 5570,4358 5570,4958 5870,4958 z " fill-rule="evenodd" fill="rgb(0,128,0)" stroke-width="5" stroke="rgb(0,0,0)" />
	<path d="M5870,4356 5870,3756 5570,3756 5570,4356 5870,4356 z " fill-rule="evenodd" fill="rgb(0,128,0)" stroke-width="5" stroke="rgb(0,0,0)" />
	<path d="M5870,3754 5870,3154 5570,3154 5570,3754 5870,3754 z " fill-rule="evenodd" fill="rgb(0,128,0)" stroke-width="5" stroke="rgb(0,0,0)" />
	<path d="M5870,3152 5870,2552 5570,2552 5570,3152 5870,3152 z " fill-rule="evenodd" fill="rgb(0,128,0)" stroke-width="5" stroke="rgb(0,0,0)" />
	<path d="M5870,2550 5870,1950 5570,1950 5570,2550 5870,2550 z " fill-rule="evenodd" fill="rgb(0,128,0)" stroke-width="5" stroke="rgb(0,0,0)" />
	<path d="M6172,5259 6172,4659 5872,4659 5872,5259 6172,5259 z " fill-rule="evenodd" fill="rgb(0,128,0)" stroke-width="5" stroke="rgb(0,0,0)" />
	<path d="M6172,4657 6172,4057 5872,4057 5872,4657 6172,4657 z " fill-rule="evenodd" fill="rgb(0,128,0)" stroke-width="5" stroke="rgb(0,0,0)" />
	<path d="M6172,4055 6172,3455 5872,3455 5872,4055 6172,4055 z " fill-rule="evenodd" fill="rgb(0,128,0)" stroke-width="5" stroke="rgb(0,0,0)" />
	<path d="M6172,3453 6172,2853 5872,2853 5872,3453 6172,3453 z " fill-rule="evenodd" fill="rgb(0,128,0)" stroke-width="5" stroke="rgb(0,0,0)" />
	<path d="M6172,2851 6172,2251 5872,2251 5872,2851 6172,2851 z " fill-rule="evenodd" fill="rgb(0,128,0)" stroke-width="5" stroke="rgb(0,0,0)" />
	<path d="M6474,4958 6474,4358 6174,4358 6174,4958 6474,4958 z " fill-rule="evenodd" fill="rgb(0,128,0)" stroke-width="5" stroke="rgb(0,0,0)" />
	<path d="M6474,4356 6474,3756 6174,3756 6174,4356 6474,4356 z " fill-rule="evenodd" fill="rgb(0,128,0)" stroke-width="5" stroke="rgb(0,0,0)" />
	<path d="M6474,3754 6474,3154 6174,3154 6174,3754 6474,3754 z " fill-rule="evenodd" fill="rgb(0,128,0)" stroke-width="5" stroke="rgb(0,0,0)" />
	<path d="M6474,3152 6474,2552 6174,2552 6174,3152 6474,3152 z " fill-rule="evenodd" fill="rgb(0,128,0)" stroke-width="5" stroke="rgb(0,0,0)" />
	<path d="M6474,2550 6474,1950 6174,1950 6174,2550 6474,2550 z " fill-rule="evenodd" fill="rgb(0,128,0)" stroke-width="5" stroke="rgb(0,0,0)" />
	<path d="M6776,5259 6776,4659 6476,4659 6476,5259 6776,5259 z " fill-rule="evenodd" fill="rgb(0,128,0)" stroke-width="5" stroke="rgb(0,0,0)" />
	<path d="M6776,4657 6776,4057 6476,4057 6476,4657 6776,4657 z " fill-rule="evenodd" fill="rgb(0,128,0)" stroke-width="5" stroke="rgb(0,0,0)" />
	<path d="M6776,4055 6776,3455 6476,3455 6476,4055 6776,4055 z " fill-rule="evenodd" fill="rgb(0,128,0)" stroke-width="5" stroke="rgb(0,0,0)" />
	<path d="M6776,3453 6776,2853 6476,2853 6476,3453 6776,3453 z " fill-rule="evenodd" fill="rgb(0,128,0)" stroke-width="5" stroke="rgb(0,0,0)" />
	<path d="M6776,2851 6776,2251 6476,2251 6476,2851 6776,2851 z " fill-rule="evenodd" fill="rgb(0,128,0)" stroke-width="5" stroke="rgb(0,0,0)" />
	<path d="M7078,4958 7078,4358 6778,4358 6778,4958 7078,4958 z " fill-rule="evenodd" fill="rgb(0,128,0)" stroke-width="5" stroke="rgb(0,0,0)" />
	<path d="M7078,4356 7078,3756 6778,3756 6778,4356 7078,4356 z " fill-rule="evenodd" fill="rgb(0,128,0)" stroke-width="5" stroke="rgb(0,0,0)" />
	<path d="M7078,3754 7078,3154 6778,3154 6778,3754 7078,3754 z " fill-rule="evenodd" fill="rgb(0,128,0)" stroke-width="5" stroke="rgb(0,0,0)" />
	<path d="M7078,3152 7078,2552 6778,2552 6778,3152 7078,3152 z " fill-rule="evenodd" fill="rgb(0,128,0)" stroke-width="5" stroke="rgb(0,0,0)" />
	<path d="M7380,5259 7380,4659 7080,4659 7080,5259 7380,5259 z " fill-rule="evenodd" fill="rgb(0,128,0)" stroke-width="5" stroke="rgb(0,0,0)" />
	<path d="M7380,4657 7380,4057 7080,4057 7080,4657 7380,4657 z " fill-rule="evenodd" fill="rgb(0,128,0)" stroke-width="5" stroke="rgb(0,0,0)" />
	<path d="M7380,4055 7380,3455 7080,3455 7080,4055 7380,4055 z " fill-rule="evenodd" fill="rgb(0,128,0)" stroke-width="5" stroke="rgb(0,0,0)" />
	<path d="M7380,3453 7380,2853 7080,2853 7080,3453 7380,3453 z " fill-rule="evenodd" fill="rgb(0,128,0)" stroke-width="5" stroke="rgb(0,0,0)" />
	<path d="M7380,2851 7380,2251 7080,2251 7080,2851 7380,2851 z " fill-rule="evenodd" fill="rgb(0,128,0)" stroke-width="5" stroke="rgb(0,0,0)" />
	<path d="M7682,4958 7682,4358 7382,4358 7382,4958 7682,4958 z " fill-rule="evenodd" fill="rgb(0,128,0)" stroke-width="5" stroke="rgb(0,0,0)" />
	<path d="M7682,4356 7682,3756 7382,3756 7382,4356 7682,4356 z " fill-rule="evenodd" fill="rgb(0,128,0)" stroke-width="5" stroke="rgb(0,0,0)" />
	<path d="M7682,3754 7682,3154 7382,3154 7382,3754 7682,3754 z " fill-rule="evenodd" fill="rgb(0,128,0)" stroke-width="5" stroke="rgb(0,0,0)" />
	<path d="M7682,3152 7682,2552 7382,2552 7382,3152 7682,3152 z " fill-rule="evenodd" fill="rgb(0,128,0)" stroke-width="5" stroke="rgb(0,0,0)" />
	<path d="M7984,5259 7984,4659 7684,4659 7684,5259 7984,5259 z " fill-rule="evenodd" fill="rgb(0,128,0)" stroke-width="5" stroke="rgb(0,0,0)" />
	<path d="M7984,4657 7984,4057 7684,4057 7684,4657 7984,4657 z " fill-rule="evenodd" fill="rgb(0,128,0)" stroke-width="5" stroke="rgb(0,0,0)" />
	<path d="M7984,4055 7984,3455 7684,3455 7684,4055 7984,4055 z " fill-rule="evenodd" fill="rgb(0,128,0)" stroke-width="5" stroke="rgb(0,0,0)" />
	<path d="M7984,3453 7984,2853 7684,2853 7684,3453 7984,3453 z " fill-rule="evenodd" fill="rgb(0,128,0)" stroke-width="5" stroke="rgb(0,0,0)" />
	<path d="M8286,4958 8286,4358 7986,4358 7986,4958 8286,4958 z " fill-rule="evenodd" fill="rgb(0,128,0)" stroke-width="5" stroke="rgb(0,0,0)" />
	<path d="M8286,4356 8286,3756 7986,3756 7986,4356 8286,4356 z " fill-rule="evenodd" fill="rgb(0,128,0)" stroke-width="5" stroke="rgb(0,0,0)" />
	<path d="M8286,3754 8286,3154 7986,3154 7986,3754 8286,3754 z " fill-rule="evenodd" fill="rgb(0,128,0)" stroke-width="5" stroke="rgb(0,0,0)" />
	<path d="M8588,5259 8588,4659 8288,4659 8288,5259 8588,5259 z " fill-rule="evenodd" fill="rgb(0,128,0)" stroke-width="5" stroke="rgb(0,0,0)" />
	<path d="M8588,4657 8588,4057 8288,4057 8288,4657 8588,4657 z " fill-rule="evenodd" fill="rgb(0,128,0)" stroke-width="5" stroke="rgb(0,0,0)" />
	<path d="M8588,4055 8588,3455 8288,3455 8288,4055 8588,4055 z " fill-rule="evenodd" fill="rgb(0,128,0)" stroke-width="5" stroke="rgb(0,0,0)" />
	<path d="M8588,3453 8588,2853 8288,2853 8288,3453 8588,3453 z " fill-rule="evenodd" fill="rgb(0,128,0)" stroke-width="5" stroke="rgb(0,0,0)" />
	<path d="M2852,4055 2852,3455 2900,3455 2900,4055 2852,4055 z " fill-rule="evenodd" fill="rgb(255,0,0)" stroke-width="5" stroke="rgb(0,0,0)" />
	<path d="M2852,2853 3152,2853 3152,2952 2852,2952 2852,2853 z " fill-rule="evenodd" fill="rgb(255,0,0)" stroke-width="5" stroke="rgb(0,0,0)" />
	<path d="M2852,3453 2852,3152 2900,3152 2900,3453 2852,3453 z " fill-rule="evenodd" fill="rgb(255,0,0)" stroke-width="5" stroke="rgb(0,0,0)" />
	<path d="M2852,4657 2852,4057 2900,4057 2900,4657 2852,4657 z " fill-rule="evenodd" fill="rgb(255,0,0)" stroke-width="5" stroke="rgb(0,0,0)" />
	<path d="M3154,2552 3454,2552 3454,2952 3154,2952 3154,2552 z " fill-rule="evenodd" fill="rgb(255,0,0)" stroke-width="5" stroke="rgb(0,0,0)" />
	<path d="M1946,2552 2246,2552 2246,3152 1946,3152 1946,3152 2050,3152 2050,2952 1946,2952 1946,2552 z " fill-rule="evenodd" fill="rgb(255,0,0)" stroke-width="5" stroke="rgb(0,0,0)" />
	<path d="M2246,1348 2246,1948 1946,1948 1946,1602 2150,1602 2150,1348 2246,1348 z " fill-rule="evenodd" fill="rgb(255,0,0)" stroke-width="5" stroke="rgb(0,0,0)" />
	<path d="M2246,746 2246,1346 2150,1346 2150,746 2246,746 z " fill-rule="evenodd" fill="rgb(255,0,0)" stroke-width="5" stroke="rgb(0,0,0)" />
	<path d="M2852,5259 2852,4659 2900,4659 2900,5259 2852,5259 z " fill-rule="evenodd" fill="rgb(255,0,0)" stroke-width="5" stroke="rgb(0,0,0)" />
	<path d="M3756,3455 3756,4055 3700,4055 3700,3455 3756,3455 z " fill-rule="evenodd" fill="rgb(255,0,0)" stroke-width="5" stroke="rgb(0,0,0)" />
	<path d="M3756,3453 3700,3453 3700,3052 3756,3052 3756,3453 z " fill-rule="evenodd" fill="rgb(255,0,0)" stroke-width="5" stroke="rgb(0,0,0)" />
	<path d="M3456,2853 3756,2853 3756,2952 3456,2952 3456,2853 z " fill-rule="evenodd" fill="rgb(255,0,0)" stroke-width="5" stroke="rgb(0,0,0)" />
	<path d="M3454,1348 3454,1948 3154,1948 3154,1584.74 3250,1348 3454,1348 z " fill-rule="evenodd" fill="rgb(255,0,0)" stroke-width="5" stroke="rgb(0,0,0)" />
	<path d="M3152,1647 2852,1647 2852,1047 3152,1047 3152,1324.52 3080,1502 2950,1502 2950,1602 3147,1602 3152,1589.67 3152,1647 z " fill-rule="evenodd" fill="rgb(255,0,0)" stroke-width="5" stroke="rgb(0,0,0)" />
	<path d="M2246,144 2246,744 2150,744 2150,144 2246,144 z " fill-rule="evenodd" fill="rgb(255,0,0)" stroke-width="5" stroke="rgb(0,0,0)" />
	<path d="M1944,3453 1644,3453 1644,3152 1944,3152 1944,3453 z " fill-rule="evenodd" fill="rgb(255,0,0)" stroke-width="5" stroke="rgb(0,0,0)" />
	<path d="M1644,2853 1944,2853 1944,2952 1644,2952 1644,2853 z " fill-rule="evenodd" fill="rgb(255,0,0)" stroke-width="5" stroke="rgb(0,0,0)" />
	<path d="M1944,1647 1644,1647 1644,1602 1944,1602 1944,1647 z " fill-rule="evenodd" fill="rgb(255,0,0)" stroke-width="5" stroke="rgb(0,0,0)" />
	<path d="M2852,5861 2852,5261 2900,5261 2900,5861 2852,5861 z " fill-rule="evenodd" fill="rgb(255,0,0)" stroke-width="5" stroke="rgb(0,0,0)" />
	<path d="M3758,4358 4058,4358 4058,4952 3758,4952 3758,4358 z " fill-rule="evenodd" fill="rgb(255,0,0)" stroke-width="5" stroke="rgb(0,0,0)" />
	<path d="M3756,4057 3756,4657 3700,4657 3700,4057 3756,4057 z " fill-rule="evenodd" fill="rgb(255,0,0)" stroke-width="5" stroke="rgb(0,0,0)" />
	<path d="M4058,3152 3758,3152 3758,3052 4058,3052 4058,3152 z " fill-rule="evenodd" fill="rgb(255,0,0)" stroke-width="5" stroke="rgb(0,0,0)" />
	<path d="M3758,2552 4058,2552 4058,2952 3758,2952 3758,2552 z " fill-rule="evenodd" fill="rgb(255,0,0)" stroke-width="5" stroke="rgb(0,0,0)" />
	<path d="M3454,1346 3250.81,1346 3454,844.948 3454,1346 z " fill-rule="evenodd" fill="rgb(255,0,0)" stroke-width="5" stroke="rgb(0,0,0)" />
	<path d="M3154,746 3386.7,746 3154,1319.59 3154,746 z " fill-rule="evenodd" fill="rgb(255,0,0)" stroke-width="5" stroke="rgb(0,0,0)" />
	<path d="M3152,1045 2852,1045 2852,445 3000.6,445 3152,506.406 3152,1045 z " fill-rule="evenodd" fill="rgb(255,0,0)" stroke-width="5" stroke="rgb(0,0,0)" />
	<path d="M2850,744 2550,744 2550,262.238 2850,383.916 2850,744 z " fill-rule="evenodd" fill="rgb(255,0,0)" stroke-width="5" stroke="rgb(0,0,0)" />
	<path d="M2548,443 2248,443 2248,139.748 2548,261.427 2548,443 z " fill-rule="evenodd" fill="rgb(255,0,0)" stroke-width="5" stroke="rgb(0,0,0)" />
	<path d="M2246,142 2150,142 2150,100 2246,138.937 2246,142 z " fill-rule="evenodd" fill="rgb(255,0,0)" stroke-width="5" stroke="rgb(0,0,0)" />
	<path d="M1342,2552 1642,2552 1642,2952 1342,2952 1342,2552 z " fill-rule="evenodd" fill="rgb(255,0,0)" stroke-width="5" stroke="rgb(0,0,0)" />
	<path d="M1642,1948 1342,1948 1342,1502 1400,1502 1400,1602 1642,1602 1642,1948 z " fill-rule="evenodd" fill="rgb(255,0,0)" stroke-width="5" stroke="rgb(0,0,0)" />
	<path d="M2852,6463 2852,5863 2900,5863 2900,6052 3100,6052 3100,6463 2852,6463 z " fill-rule="evenodd" fill="rgb(255,0,0)" stroke-width="5" stroke="rgb(0,0,0)" />
	<path d="M4060,4659 4360,4659 4360,4952 4060,4952 4060,4659 z " fill-rule="evenodd" fill="rgb(255,0,0)" stroke-width="5" stroke="rgb(0,0,0)" />
	<path d="M3756,4659 3756,4952 3700,4952 3700,4659 3756,4659 z " fill-rule="evenodd" fill="rgb(255,0,0)" stroke-width="5" stroke="rgb(0,0,0)" />
	<path d="M4060,2853 4360,2853 4360,3453 4060,3453 4060,3052 4200,3052 4200,2952 4060,2952 4060,2853 z " fill-rule="evenodd" fill="rgb(255,0,0)" stroke-width="5" stroke="rgb(0,0,0)" />
	<path d="M4058,1346 3758,1346 3758,752.982 4058,874.792 4058,1346 z " fill-rule="evenodd" fill="rgb(255,0,0)" stroke-width="5" stroke="rgb(0,0,0)" />
	<path d="M3756,1045 3456,1045 3456,840.016 3529,660 3756,752.17 3756,1045 z " fill-rule="evenodd" fill="rgb(255,0,0)" stroke-width="5" stroke="rgb(0,0,0)" />
	<path d="M3154,744 3154,507.217 3437,622 3387.51,744 3154,744 z " fill-rule="evenodd" fill="rgb(255,0,0)" stroke-width="5" stroke="rgb(0,0,0)" />
	<path d="M2852,443 2852,384.727 2995.67,443 2852,443 z " fill-rule="evenodd" fill="rgb(255,0,0)" stroke-width="5" stroke="rgb(0,0,0)" />
	<path d="M1340,3453 1040,3453 1040,3152 1340,3152 1340,3453 z " fill-rule="evenodd" fill="rgb(255,0,0)" stroke-width="5" stroke="rgb(0,0,0)" />
	<path d="M1040,2853 1340,2853 1340,2952 1040,2952 1040,2853 z " fill-rule="evenodd" fill="rgb(255,0,0)" stroke-width="5" stroke="rgb(0,0,0)" />
	<path d="M1340,1647 1040,1647 1040,1502 1340,1502 1340,1647 z " fill-rule="evenodd" fill="rgb(255,0,0)" stroke-width="5" stroke="rgb(0,0,0)" />
	<path d="M2852,6465 3100,6465 3100,6852 2900,6852 2900,6952 2852,6952 2852,6465 z " fill-rule="evenodd" fill="rgb(255,0,0)" stroke-width="5" stroke="rgb(0,0,0)" />
	<path d="M4362,4358 4662,4358 4662,4952 4362,4952 4362,4358 z " fill-rule="evenodd" fill="rgb(255,0,0)" stroke-width="5" stroke="rgb(0,0,0)" />
	<path d="M4662,1346 4362,1346 4362,998.227 4662,1120.04 4662,1346 z " fill-rule="evenodd" fill="rgb(255,0,0)" stroke-width="5" stroke="rgb(0,0,0)" />
	<path d="M4360,1045 4060,1045 4060,875.604 4360,997.415 4360,1045 z " fill-rule="evenodd" fill="rgb(255,0,0)" stroke-width="5" stroke="rgb(0,0,0)" />
	<path d="M738,2552 1038,2552 1038,2952 738,2952 738,2552 z " fill-rule="evenodd" fill="rgb(255,0,0)" stroke-width="5" stroke="rgb(0,0,0)" />
	<path d="M1038,1948 738,1948 738,1502 1038,1502 1038,1948 z " fill-rule="evenodd" fill="rgb(255,0,0)" stroke-width="5" stroke="rgb(0,0,0)" />
	<path d="M2550,6766 2850,6766 2850,6952 2550,6952 2550,6766 z " fill-rule="evenodd" fill="rgb(255,0,0)" stroke-width="5" stroke="rgb(0,0,0)" />
	<path d="M2248,6465 2548,6465 2548,6952 2248,6952 2248,6465 z " fill-rule="evenodd" fill="rgb(255,0,0)" stroke-width="5" stroke="rgb(0,0,0)" />
	<path d="M4664,4659 4950,4659 4950,4952 4664,4952 4664,4659 z " fill-rule="evenodd" fill="rgb(255,0,0)" stroke-width="5" stroke="rgb(0,0,0)" />
	<path d="M4664,4657 4664,4057 4950,4057 4950,4657 4664,4657 z " fill-rule="evenodd" fill="rgb(255,0,0)" stroke-width="5" stroke="rgb(0,0,0)" />
	<path d="M4664,4055 4664,3455 4950,3455 4950,4055 4664,4055 z " fill-rule="evenodd" fill="rgb(255,0,0)" stroke-width="5" stroke="rgb(0,0,0)" />
	<path d="M4664,3453 4664,2853 4964,2853 4964,2952 4900,2952 4900,3052 4950,3052 4950,3453 4664,3453 z " fill-rule="evenodd" fill="rgb(255,0,0)" stroke-width="5" stroke="rgb(0,0,0)" />
	<path d="M4964,1647 4664,1647 4664,1120.85 4964,1242.66 4964,1647 z " fill-rule="evenodd" fill="rgb(255,0,0)" stroke-width="5" stroke="rgb(0,0,0)" />
	<path d="M736,3453 436,3453 436,3152 736,3152 736,3453 z " fill-rule="evenodd" fill="rgb(255,0,0)" stroke-width="5" stroke="rgb(0,0,0)" />
	<path d="M436,2853 736,2853 736,2952 436,2952 436,2853 z " fill-rule="evenodd" fill="rgb(255,0,0)" stroke-width="5" stroke="rgb(0,0,0)" />
	<path d="M736,1647 436,1647 436,1602 700,1602 700,1502 736,1502 736,1647 z " fill-rule="evenodd" fill="rgb(255,0,0)" stroke-width="5" stroke="rgb(0,0,0)" />
	<path d="M1946,6766 2246,6766 2246,6952 1946,6952 1946,6766 z " fill-rule="evenodd" fill="rgb(255,0,0)" stroke-width="5" stroke="rgb(0,0,0)" />
	<path d="M1644,6465 1944,6465 1944,6952 1644,6952 1644,6465 z " fill-rule="evenodd" fill="rgb(255,0,0)" stroke-width="5" stroke="rgb(0,0,0)" />
	<path d="M5266,4960 5266,5552 5050,5552 5050,4960 5266,4960 z " fill-rule="evenodd" fill="rgb(255,0,0)" stroke-width="5" stroke="rgb(0,0,0)" />
	<path d="M5266,4358 5266,4958 5050,4958 5050,4358 5266,4358 z " fill-rule="evenodd" fill="rgb(255,0,0)" stroke-width="5" stroke="rgb(0,0,0)" />
	<path d="M5266,3756 5266,4356 5050,4356 5050,3756 5266,3756 z " fill-rule="evenodd" fill="rgb(255,0,0)" stroke-width="5" stroke="rgb(0,0,0)" />
	<path d="M5266,3154 5266,3754 5050,3754 5050,3154 5266,3154 z " fill-rule="evenodd" fill="rgb(255,0,0)" stroke-width="5" stroke="rgb(0,0,0)" />
	<path d="M4966,2552 5266,2552 5266,3152 5050,3152 5050,2952 4966,2952 4966,2552 z " fill-rule="evenodd" fill="rgb(255,0,0)" stroke-width="5" stroke="rgb(0,0,0)" />
	<path d="M5266,1948 4966,1948 4966,1348 5223.44,1348 5266,1365.28 5266,1948 z " fill-rule="evenodd" fill="rgb(255,0,0)" stroke-width="5" stroke="rgb(0,0,0)" />
	<path d="M4966,1346 4966,1243.47 5218.51,1346 4966,1346 z " fill-rule="evenodd" fill="rgb(255,0,0)" stroke-width="5" stroke="rgb(0,0,0)" />
	<path d="M134,2552 434,2552 434,2952 134,2952 134,2552 z " fill-rule="evenodd" fill="rgb(255,0,0)" stroke-width="5" stroke="rgb(0,0,0)" />
	<path d="M434,1948 134,1948 134,1602 434,1602 434,1948 z " fill-rule="evenodd" fill="rgb(255,0,0)" stroke-width="5" stroke="rgb(0,0,0)" />
	<path d="M1342,6766 1642,6766 1642,6952 1342,6952 1342,6766 z " fill-rule="evenodd" fill="rgb(255,0,0)" stroke-width="5" stroke="rgb(0,0,0)" />
	<path d="M1040,6465 1340,6465 1340,6952 1040,6952 1040,6465 z " fill-rule="evenodd" fill="rgb(255,0,0)" stroke-width="5" stroke="rgb(0,0,0)" />
	<path d="M5268,5261 5568,5261 5568,5552 5268,5552 5268,5261 z " fill-rule="evenodd" fill="rgb(255,0,0)" stroke-width="5" stroke="rgb(0,0,0)" />
	<path d="M5568,1647 5268,1647 5268,1366.09 5568,1487.9 5568,1647 z " fill-rule="evenodd" fill="rgb(255,0,0)" stroke-width="5" stroke="rgb(0,0,0)" />
	<path d="M132,5261 132,5861 100,5861 100,5261 132,5261 z " fill-rule="evenodd" fill="rgb(255,0,0)" stroke-width="5" stroke="rgb(0,0,0)" />
	<path d="M132,4659 132,5259 100,5259 100,4659 132,4659 z " fill-rule="evenodd" fill="rgb(255,0,0)" stroke-width="5" stroke="rgb(0,0,0)" />
	<path d="M132,4057 132,4657 100,4657 100,4057 132,4057 z " fill-rule="evenodd" fill="rgb(255,0,0)" stroke-width="5" stroke="rgb(0,0,0)" />
	<path d="M132,3455 132,4055 100,4055 100,3455 132,3455 z " fill-rule="evenodd" fill="rgb(255,0,0)" stroke-width="5" stroke="rgb(0,0,0)" />
	<path d="M132,3453 100,3453 100,3152 132,3152 132,3453 z " fill-rule="evenodd" fill="rgb(255,0,0)" stroke-width="5" stroke="rgb(0,0,0)" />
	<path d="M132,2853 132,2952 100,2952 100,2853 132,2853 z " fill-rule="evenodd" fill="rgb(255,0,0)" stroke-width="5" stroke="rgb(0,0,0)" />
	<path d="M132,2251 132,2851 100,2851 100,2251 132,2251 z " fill-rule="evenodd" fill="rgb(255,0,0)" stroke-width="5" stroke="rgb(0,0,0)" />
	<path d="M132,1649 132,2249 100,2249 100,1649 132,1649 z " fill-rule="evenodd" fill="rgb(255,0,0)" stroke-width="5" stroke="rgb(0,0,0)" />
	<path d="M132,1647 100,1647 100,1602 132,1602 132,1647 z " fill-rule="evenodd" fill="rgb(255,0,0)" stroke-width="5" stroke="rgb(0,0,0)" />
	<path d="M738,6766 1038,6766 1038,6952 738,6952 738,6766 z " fill-rule="evenodd" fill="rgb(255,0,0)" stroke-width="5" stroke="rgb(0,0,0)" />
	<path d="M436,6465 736,6465 736,6952 436,6952 436,6465 z " fill-rule="evenodd" fill="rgb(255,0,0)" stroke-width="5" stroke="rgb(0,0,0)" />
	<path d="M5570,4960 5870,4960 5870,5552 5570,5552 5570,4960 z " fill-rule="evenodd" fill="rgb(255,0,0)" stroke-width="5" stroke="rgb(0,0,0)" />
	<path d="M5870,1948 5570,1948 5570,1488.72 5870,1610.53 5870,1948 z " fill-rule="evenodd" fill="rgb(255,0,0)" stroke-width="5" stroke="rgb(0,0,0)" />
	<path d="M132,5863 132,6463 100,6463 100,5863 132,5863 z " fill-rule="evenodd" fill="rgb(255,0,0)" stroke-width="5" stroke="rgb(0,0,0)" />
	<path d="M134,6766 434,6766 434,6952 134,6952 134,6766 z " fill-rule="evenodd" fill="rgb(255,0,0)" stroke-width="5" stroke="rgb(0,0,0)" />
	<path d="M132,6465 132,6952 100,6952 100,6465 132,6465 z " fill-rule="evenodd" fill="rgb(255,0,0)" stroke-width="5" stroke="rgb(0,0,0)" />
	<path d="M5872,5261 6172,5261 6172,5552 5872,5552 5872,5261 z " fill-rule="evenodd" fill="rgb(255,0,0)" stroke-width="5" stroke="rgb(0,0,0)" />
	<path d="M6172,2249 5872,2249 5872,1649 5964.75,1649 6172,1733.15 6172,2249 z " fill-rule="evenodd" fill="rgb(255,0,0)" stroke-width="5" stroke="rgb(0,0,0)" />
	<path d="M5872,1647 5872,1611.34 5959.83,1647 5872,1647 z " fill-rule="evenodd" fill="rgb(255,0,0)" stroke-width="5" stroke="rgb(0,0,0)" />
	<path d="M6174,4960 6474,4960 6474,5552 6174,5552 6174,4960 z " fill-rule="evenodd" fill="rgb(255,0,0)" stroke-width="5" stroke="rgb(0,0,0)" />
	<path d="M6474,1948 6174,1948 6174,1733.96 6474,1855.77 6474,1948 z " fill-rule="evenodd" fill="rgb(255,0,0)" stroke-width="5" stroke="rgb(0,0,0)" />
	<path d="M6476,5261 6776,5261 6776,5552 6476,5552 6476,5261 z " fill-rule="evenodd" fill="rgb(255,0,0)" stroke-width="5" stroke="rgb(0,0,0)" />
	<path d="M6776,2249 6476,2249 6476,1856.58 6776,1978.39 6776,2249 z " fill-rule="evenodd" fill="rgb(255,0,0)" stroke-width="5" stroke="rgb(0,0,0)" />
	<path d="M6778,4960 7078,4960 7078,5552 6778,5552 6778,4960 z " fill-rule="evenodd" fill="rgb(255,0,0)" stroke-width="5" stroke="rgb(0,0,0)" />
	<path d="M7078,2550 6778,2550 6778,1979.21 7078,2101.02 7078,2550 z " fill-rule="evenodd" fill="rgb(255,0,0)" stroke-width="5" stroke="rgb(0,0,0)" />
	<path d="M7080,5261 7380,5261 7380,5552 7080,5552 7080,5261 z " fill-rule="evenodd" fill="rgb(255,0,0)" stroke-width="5" stroke="rgb(0,0,0)" />
	<path d="M7380,2249 7080,2249 7080,2101.83 7380,2223.64 7380,2249 z " fill-rule="evenodd" fill="rgb(255,0,0)" stroke-width="5" stroke="rgb(0,0,0)" />
	<path d="M7382,4960 7682,4960 7682,5552 7382,5552 7382,4960 z " fill-rule="evenodd" fill="rgb(255,0,0)" stroke-width="5" stroke="rgb(0,0,0)" />
	<path d="M7682,2550 7382,2550 7382,2224.45 7682,2346.26 7682,2550 z " fill-rule="evenodd" fill="rgb(255,0,0)" stroke-width="5" stroke="rgb(0,0,0)" />
	<path d="M7684,5261 7984,5261 7984,5552 7684,5552 7684,5261 z " fill-rule="evenodd" fill="rgb(255,0,0)" stroke-width="5" stroke="rgb(0,0,0)" />
	<path d="M7984,2851 7684,2851 7684,2347.07 7984,2468.88 7984,2851 z " fill-rule="evenodd" fill="rgb(255,0,0)" stroke-width="5" stroke="rgb(0,0,0)" />
	<path d="M7986,4960 8286,4960 8286,5552 7986,5552 7986,4960 z " fill-rule="evenodd" fill="rgb(255,0,0)" stroke-width="5" stroke="rgb(0,0,0)" />
	<path d="M8286,3152 7986,3152 7986,2552 8188.7,2552 8286,2591.51 8286,3152 z " fill-rule="evenodd" fill="rgb(255,0,0)" stroke-width="5" stroke="rgb(0,0,0)" />
	<path d="M7986,2550 7986,2469.69 8183.78,2550 7986,2550 z " fill-rule="evenodd" fill="rgb(255,0,0)" stroke-width="5" stroke="rgb(0,0,0)" />
	<path d="M8288,5261 8588,5261 8588,5552 8288,5552 8288,5261 z " fill-rule="evenodd" fill="rgb(255,0,0)" stroke-width="5" stroke="rgb(0,0,0)" />
	<path d="M8588,2851 8288,2851 8288,2592.32 8588,2714.13 8588,2851 z " fill-rule="evenodd" fill="rgb(255,0,0)" stroke-width="5" stroke="rgb(0,0,0)" />
	<path d="M8590,4960 8600,4960 8600,5552 8590,5552 8590,4960 z " fill-rule="evenodd" fill="rgb(255,0,0)" stroke-width="5" stroke="rgb(0,0,0)" />
	<path d="M8590,4958 8590,4358 8600,4358 8600,4958 8590,4958 z " fill-rule="evenodd" fill="rgb(255,0,0)" stroke-width="5" stroke="rgb(0,0,0)" />
	<path d="M8590,4356 8590,3756 8600,3756 8600,4356 8590,4356 z " fill-rule="evenodd" fill="rgb(255,0,0)" stroke-width="5" stroke="rgb(0,0,0)" />
	<path d="M8590,3754 8590,3154 8600,3154 8600,3754 8590,3754 z " fill-rule="evenodd" fill="rgb(255,0,0)" stroke-width="5" stroke="rgb(0,0,0)" />
	<path d="M8590,3152 8590,2714.94 8600,2719 8600,3152 8590,3152 z " fill-rule="evenodd" fill="rgb(255,0,0)" stroke-width="5" stroke="rgb(0,0,0)" />
	<polyline points="2845,3157 2845,2557 2845,3157 2245,3157 2845,3157 " fill="none" stroke-width="100" stroke="rgb(0,0,0)" />
	<circle cx="2845" cy="3157" r="-10" fill="rgb(0,0,0)" />
	<circle cx="2845" cy="2557" r="-10" fill="rgb(0,0,0)" />
	<circle cx="2845" cy="3157" r="-10" fill="rgb(0,0,0)" />
	<circle cx="2245" cy="3157" r="-10" fill="rgb(0,0,0)" />
	<circle cx="2845" cy="3157" r="-10" fill="rgb(0,0,0)" />
	<polyline points="2845,3817 2845,3157 2185,3157 " fill="none" stroke-width="0.5" stroke="rgb(128,0,128)" />
</svg>
