<?xml version="1.0" standalone="no" ?>
<!DOCTYPE svg PUBLIC "-//W3C//DTD SVG 1.1//EN" "http://www.w3.org/Graphics/SVG/1.1/DTD/svg11.dtd">
<svg width="1600px" height="19240px" xmlns="http://www.w3.org/2000/svg" version="1.1" >
	<path d="M100,19140 700,19140 700,18840 100,18840 z " fill-rule="evenodd" fill="rgb(255,255,255)" stroke-width="10" stroke="rgb(0,0,0)" />
	<path d="M100,18810 700,18810 700,18510 100,18510 z " fill-rule="evenodd" fill="rgb(255,255,255)" stroke-width="10" stroke="rgb(0,0,0)" />
	<path d="M100,18480 700,18480 700,18180 100,18180 z " fill-rule="evenodd" fill="rgb(255,255,255)" stroke-width="10" stroke="rgb(0,0,0)" />
	<path d="M100,18150 700,18150 700,17850 100,17850 z " fill-rule="evenodd" fill="rgb(255,255,255)" stroke-width="10" stroke="rgb(0,0,0)" />
	<path d="M100,17820 700,17820 700,17520 100,17520 z " fill-rule="evenodd" fill="rgb(255,255,255)" stroke-width="10" stroke="rgb(0,0,0)" />
	<path d="M100,17490 700,17490 700,17190 100,17190 z " fill-rule="evenodd" fill="rgb(255,255,255)" stroke-width="10" stroke="rgb(0,0,0)" />
	<path d="M100,17160 700,17160 700,16860 100,16860 z " fill-rule="evenodd" fill="rgb(255,255,255)" stroke-width="10" stroke="rgb(0,0,0)" />
	<path d="M100,16830 700,16830 700,16530 100,16530 z " fill-rule="evenodd" fill="rgb(255,255,255)" stroke-width="10" stroke="rgb(0,0,0)" />
	<path d="M100,16500 700,16500 700,16200 100,16200 z " fill-rule="evenodd" fill="rgb(255,255,255)" stroke-width="10" stroke="rgb(0,0,0)" />
	<path d="M100,16170 700,16170 700,15870 100,15870 z " fill-rule="evenodd" fill="rgb(255,255,255)" stroke-width="10" stroke="rgb(0,0,0)" />
	<path d="M100,15840 700,15840 700,15540 100,15540 z " fill-rule="evenodd" fill="rgb(255,255,255)" stroke-width="10" stroke="rgb(0,0,0)" />
	<path d="M100,15510 700,15510 700,15210 100,15210 z " fill-rule="evenodd" fill="rgb(255,255,255)" stroke-width="10" stroke="rgb(0,0,0)" />
	<path d="M100,15180 700,15180 700,14880 100,14880 z " fill-rule="evenodd" fill="rgb(255,255,255)" stroke-width="10" stroke="rgb(0,0,0)" />
	<path d="M100,14850 700,14850 700,14550 100,14550 z " fill-rule="evenodd" fill="rgb(255,255,255)" stroke-width="10" stroke="rgb(0,0,0)" />
	<path d="M100,14520 700,14520 700,14220 100,14220 z " fill-rule="evenodd" fill="rgb(255,255,255)" stroke-width="10" stroke="rgb(0,0,0)" />
	<path d="M100,14190 700,14190 700,13890 100,13890 z " fill-rule="evenodd" fill="rgb(255,255,255)" stroke-width="10" stroke="rgb(0,0,0)" />
	<path d="M100,13860 700,13860 700,13560 100,13560 z " fill-rule="evenodd" fill="rgb(255,255,255)" stroke-width="10" stroke="rgb(0,0,0)" />
	<path d="M100,13530 700,13530 700,13230 100,13230 z " fill-rule="evenodd" fill="rgb(255,255,255)" stroke-width="10" stroke="rgb(0,0,0)" />
	<path d="M100,13200 700,13200 700,12900 100,12900 z " fill-rule="evenodd" fill="rgb(255,255,255)" stroke-width="10" stroke="rgb(0,0,0)" />
	<path d="M100,12870 700,12870 700,12570 100,12570 z " fill-rule="evenodd" fill="rgb(255,255,255)" stroke-width="10" stroke="rgb(0,0,0)" />
	<path d="M100,12540 700,12540 700,12240 100,12240 z " fill-rule="evenodd" fill="rgb(255,255,255)" stroke-width="10" stroke="rgb(0,0,0)" />
	<path d="M100,12210 700,12210 700,11910 100,11910 z " fill-rule="evenodd" fill="rgb(255,255,255)" stroke-width="10" stroke="rgb(0,0,0)" />
	<path d="M100,11880 700,11880 700,11580 100,11580 z " fill-rule="evenodd" fill="rgb(255,255,255)" stroke-width="10" stroke="rgb(0,0,0)" />
	<path d="M100,11550 700,11550 700,11250 100,11250 z " fill-rule="evenodd" fill="rgb(255,255,255)" stroke-width="10" stroke="rgb(0,0,0)" />
	<path d="M100,11220 700,11220 700,10920 100,10920 z " fill-rule="evenodd" fill="rgb(255,255,255)" stroke-width="10" stroke="rgb(0,0,0)" />
	<path d="M100,10890 700,10890 700,10590 100,10590 z " fill-rule="evenodd" fill="rgb(255,255,255)" stroke-width="10" stroke="rgb(0,0,0)" />
	<path d="M100,10560 700,10560 700,10260 100,10260 z " fill-rule="evenodd" fill="rgb(255,255,255)" stroke-width="10" stroke="rgb(0,0,0)" />
	<path d="M100,10230 700,10230 700,9930 100,9930 z " fill-rule="evenodd" fill="rgb(255,255,255)" stroke-width="10" stroke="rgb(0,0,0)" />
	<path d="M100,9900 700,9900 700,9600 100,9600 z " fill-rule="evenodd" fill="rgb(255,255,255)" stroke-width="10" stroke="rgb(0,0,0)" />
	<path d="M100,9570 700,9570 700,9270 100,9270 z " fill-rule="evenodd" fill="rgb(255,255,255)" stroke-width="10" stroke="rgb(0,0,0)" />
	<path d="M100,9240 700,9240 700,8940 100,8940 z " fill-rule="evenodd" fill="rgb(255,255,255)" stroke-width="10" stroke="rgb(0,0,0)" />
	<path d="M100,8910 700,8910 700,8610 100,8610 z " fill-rule="evenodd" fill="rgb(255,255,255)" stroke-width="10" stroke="rgb(0,0,0)" />
	<path d="M100,8580 700,8580 700,8280 100,8280 z " fill-rule="evenodd" fill="rgb(255,255,255)" stroke-width="10" stroke="rgb(0,0,0)" />
	<path d="M100,8250 700,8250 700,7950 100,7950 z " fill-rule="evenodd" fill="rgb(255,255,255)" stroke-width="10" stroke="rgb(0,0,0)" />
	<path d="M100,7920 700,7920 700,7620 100,7620 z " fill-rule="evenodd" fill="rgb(255,255,255)" stroke-width="10" stroke="rgb(0,0,0)" />
	<path d="M100,7590 700,7590 700,7290 100,7290 z " fill-rule="evenodd" fill="rgb(255,255,255)" stroke-width="10" stroke="rgb(0,0,0)" />
	<path d="M100,7260 700,7260 700,6960 100,6960 z " fill-rule="evenodd" fill="rgb(255,255,255)" stroke-width="10" stroke="rgb(0,0,0)" />
	<path d="M100,6930 700,6930 700,6630 100,6630 z " fill-rule="evenodd" fill="rgb(255,255,255)" stroke-width="10" stroke="rgb(0,0,0)" />
	<path d="M100,6600 700,6600 700,6300 100,6300 z " fill-rule="evenodd" fill="rgb(255,255,255)" stroke-width="10" stroke="rgb(0,0,0)" />
	<path d="M100,6270 700,6270 700,5970 100,5970 z " fill-rule="evenodd" fill="rgb(255,255,255)" stroke-width="10" stroke="rgb(0,0,0)" />
	<path d="M100,5940 700,5940 700,5640 100,5640 z " fill-rule="evenodd" fill="rgb(255,255,255)" stroke-width="10" stroke="rgb(0,0,0)" />
	<path d="M100,5610 700,5610 700,5310 100,5310 z " fill-rule="evenodd" fill="rgb(255,255,255)" stroke-width="10" stroke="rgb(0,0,0)" />
	<path d="M100,5280 700,5280 700,4980 100,4980 z " fill-rule="evenodd" fill="rgb(255,255,255)" stroke-width="10" stroke="rgb(0,0,0)" />
	<path d="M100,4950 700,4950 700,4650 100,4650 z " fill-rule="evenodd" fill="rgb(255,255,255)" stroke-width="10" stroke="rgb(0,0,0)" />
	<path d="M100,4620 700,4620 700,4320 100,4320 z " fill-rule="evenodd" fill="rgb(255,255,255)" stroke-width="10" stroke="rgb(0,0,0)" />
	<path d="M100,4290 700,4290 700,3990 100,3990 z " fill-rule="evenodd" fill="rgb(255,255,255)" stroke-width="10" stroke="rgb(0,0,0)" />
	<path d="M100,3960 700,3960 700,3660 100,3660 z " fill-rule="evenodd" fill="rgb(255,255,255)" stroke-width="10" stroke="rgb(0,0,0)" />
	<path d="M100,3630 700,3630 700,3330 100,3330 z " fill-rule="evenodd" fill="rgb(255,255,255)" stroke-width="10" stroke="rgb(0,0,0)" />
	<path d="M100,3300 700,3300 700,3000 100,3000 z " fill-rule="evenodd" fill="rgb(255,255,255)" stroke-width="10" stroke="rgb(0,0,0)" />
	<path d="M100,2970 700,2970 700,2670 100,2670 z " fill-rule="evenodd" fill="rgb(255,255,255)" stroke-width="10" stroke="rgb(0,0,0)" />
	<path d="M100,2640 700,2640 700,2340 100,2340 z " fill-rule="evenodd" fill="rgb(255,255,255)" stroke-width="10" stroke="rgb(0,0,0)" />
	<path d="M100,2310 700,2310 700,2010 100,2010 z " fill-rule="evenodd" fill="rgb(255,255,255)" stroke-width="10" stroke="rgb(0,0,0)" />
	<path d="M100,1980 700,1980 700,1680 100,1680 z " fill-rule="evenodd" fill="rgb(255,255,255)" stroke-width="10" stroke="rgb(0,0,0)" />
	<path d="M100,1650 700,1650 700,1350 100,1350 z " fill-rule="evenodd" fill="rgb(255,255,255)" stroke-width="10" stroke="rgb(0,0,0)" />
	<path d="M100,1320 700,1320 700,1020 100,1020 z " fill-rule="evenodd" fill="rgb(255,255,255)" stroke-width="10" stroke="rgb(0,0,0)" />
	<path d="M100,990 700,990 700,690 100,690 z " fill-rule="evenodd" fill="rgb(255,255,255)" stroke-width="10" stroke="rgb(0,0,0)" />
	<path d="M100,660 700,660 700,360 100,360 z " fill-rule="evenodd" fill="rgb(255,255,255)" stroke-width="10" stroke="rgb(0,0,0)" />
	<path d="M100,330 700,330 700,30 100,30 z " fill-rule="evenodd" fill="rgb(255,255,255)" stroke-width="10" stroke="rgb(0,0,0)" />
	<path d="M100,14472 700,14472 700,14520 100,14520 100,14472 z " fill-rule="evenodd" fill="rgb(255,0,0)" stroke-width="10" stroke="rgb(0,0,0)" />
	<path d="M199,13890 199,14190 100,14190 100,13890 199,13890 z " fill-rule="evenodd" fill="rgb(255,0,0)" stroke-width="10" stroke="rgb(0,0,0)" />
	<path d="M606.869,17490 606.869,17189 654.869,17189 654.869,17490 606.869,17490 z " fill-rule="evenodd" fill="rgb(255,0,0)" stroke-width="10" stroke="rgb(0,0,0)" />
	<path d="M100,14424 700,14424 700,14472 100,14472 100,14424 z " fill-rule="evenodd" fill="rgb(255,0,0)" stroke-width="10" stroke="rgb(0,0,0)" />
	<path d="M599,13890 599,14190 199,14190 199,13890 599,13890 z " fill-rule="evenodd" fill="rgb(255,0,0)" stroke-width="10" stroke="rgb(0,0,0)" />
	<path d="M700,13560 700,13860 100,13860 100,13560 100,13560 100,13664 300,13664 300,13560 700,13560 z " fill-rule="evenodd" fill="rgb(255,0,0)" stroke-width="10" stroke="rgb(0,0,0)" />
	<path d="M700,13530 100,13530 100,13230 446,13230 446,13434 700,13434 700,13530 z " fill-rule="evenodd" fill="rgb(255,0,0)" stroke-width="10" stroke="rgb(0,0,0)" />
	<path d="M700,14424 100,14424 100,14328 700,14328 700,14424 z " fill-rule="evenodd" fill="rgb(255,0,0)" stroke-width="10" stroke="rgb(0,0,0)" />
	<path d="M100,14280 700,14280 700,14328 100,14328 100,14280 z " fill-rule="evenodd" fill="rgb(255,0,0)" stroke-width="10" stroke="rgb(0,0,0)" />
	<path d="M700,14280 100,14280 100,14224 700,14224 700,14280 z " fill-rule="evenodd" fill="rgb(255,0,0)" stroke-width="10" stroke="rgb(0,0,0)" />
	<path d="M100,427.305 100,371.305 501,371.305 501,427.305 100,427.305 z " fill-rule="evenodd" fill="rgb(255,0,0)" stroke-width="10" stroke="rgb(0,0,0)" />
	<path d="M698,13890 698,14190 599,14190 599,13890 698,13890 z " fill-rule="evenodd" fill="rgb(255,0,0)" stroke-width="10" stroke="rgb(0,0,0)" />
	<path d="M700,13200 100,13200 100,12900 463.262,12900 700,12996 700,13200 z " fill-rule="evenodd" fill="rgb(255,0,0)" stroke-width="10" stroke="rgb(0,0,0)" />
	<path d="M100,12870 100,12570 700,12570 700,12870 422.479,12870 245,12798 245,12668 145,12668 145,12865 157.33,12870 100,12870 z " fill-rule="evenodd" fill="rgb(255,0,0)" stroke-width="10" stroke="rgb(0,0,0)" />
	<path d="M700,12540 100,12540 100,12444 700,12444 700,12540 z " fill-rule="evenodd" fill="rgb(255,0,0)" stroke-width="10" stroke="rgb(0,0,0)" />
	<path d="M100,12210 100,11910 401,11910 401,12210 100,12210 z " fill-rule="evenodd" fill="rgb(255,0,0)" stroke-width="10" stroke="rgb(0,0,0)" />
	<path d="M500,11910 500,12210 401,12210 401,11910 500,11910 z " fill-rule="evenodd" fill="rgb(255,0,0)" stroke-width="10" stroke="rgb(0,0,0)" />
	<path d="M500,12210 500,11910 545,11910 545,12210 500,12210 z " fill-rule="evenodd" fill="rgb(255,0,0)" stroke-width="10" stroke="rgb(0,0,0)" />
	<path d="M100,12396 700,12396 700,12444 100,12444 100,12396 z " fill-rule="evenodd" fill="rgb(255,0,0)" stroke-width="10" stroke="rgb(0,0,0)" />
	<path d="M694,11580 694,11880 100,11880 100,11580 694,11580 z " fill-rule="evenodd" fill="rgb(255,0,0)" stroke-width="10" stroke="rgb(0,0,0)" />
	<path d="M700,12396 100,12396 100,12340 700,12340 700,12396 z " fill-rule="evenodd" fill="rgb(255,0,0)" stroke-width="10" stroke="rgb(0,0,0)" />
	<path d="M545,12210 545,11910 645,11910 645,12210 545,12210 z " fill-rule="evenodd" fill="rgb(255,0,0)" stroke-width="10" stroke="rgb(0,0,0)" />
	<path d="M500,11250 500,11550 100,11550 100,11250 500,11250 z " fill-rule="evenodd" fill="rgb(255,0,0)" stroke-width="10" stroke="rgb(0,0,0)" />
	<path d="M172.539,660 172.539,456.813 673.591,660 172.539,660 z " fill-rule="evenodd" fill="rgb(255,0,0)" stroke-width="10" stroke="rgb(0,0,0)" />
	<path d="M673.591,427.305 673.591,660 100,427.305 673.591,427.305 z " fill-rule="evenodd" fill="rgb(255,0,0)" stroke-width="10" stroke="rgb(0,0,0)" />
	<path d="M100,19140 100,18840 700,18840 700,18988.6 638.594,19140 100,19140 z " fill-rule="evenodd" fill="rgb(255,0,0)" stroke-width="10" stroke="rgb(0,0,0)" />
	<path d="M100,18810 100,18510 581.762,18510 460.084,18810 100,18810 z " fill-rule="evenodd" fill="rgb(255,0,0)" stroke-width="10" stroke="rgb(0,0,0)" />
	<path d="M100,18480 100,18180 403.252,18180 281.573,18480 100,18480 z " fill-rule="evenodd" fill="rgb(255,0,0)" stroke-width="10" stroke="rgb(0,0,0)" />
	<path d="M181.364,17946 181.364,17850 223.364,17850 184.427,17946 181.364,17946 z " fill-rule="evenodd" fill="rgb(255,0,0)" stroke-width="10" stroke="rgb(0,0,0)" />
	<path d="M500,10920 500,11220 100,11220 100,10920 500,10920 z " fill-rule="evenodd" fill="rgb(255,0,0)" stroke-width="10" stroke="rgb(0,0,0)" />
	<path d="M245,18150 245,17850 691,17850 691,17908 591,17908 591,18150 245,18150 z " fill-rule="evenodd" fill="rgb(255,0,0)" stroke-width="10" stroke="rgb(0,0,0)" />
	<path d="M100,10642 700,10642 700,10690 511,10690 511,10890 100,10890 100,10642 z " fill-rule="evenodd" fill="rgb(255,0,0)" stroke-width="10" stroke="rgb(0,0,0)" />
	<path d="M393,10260 393,10560 100,10560 100,10260 393,10260 z " fill-rule="evenodd" fill="rgb(255,0,0)" stroke-width="10" stroke="rgb(0,0,0)" />
	<path d="M643,7297 643,7590 587,7590 587,7297 643,7297 z " fill-rule="evenodd" fill="rgb(255,0,0)" stroke-width="10" stroke="rgb(0,0,0)" />
	<path d="M700,9930 700,10230 100,10230 100,9930 501,9930 501,10070 601,10070 601,9930 700,9930 z " fill-rule="evenodd" fill="rgb(255,0,0)" stroke-width="10" stroke="rgb(0,0,0)" />
	<path d="M100,17820 100,17520 693.018,17520 571.208,17820 100,17820 z " fill-rule="evenodd" fill="rgb(255,0,0)" stroke-width="10" stroke="rgb(0,0,0)" />
	<path d="M696.182,18180 696.182,18480 491.198,18480 311.182,18407 403.352,18180 696.182,18180 z " fill-rule="evenodd" fill="rgb(255,0,0)" stroke-width="10" stroke="rgb(0,0,0)" />
	<path d="M696.867,18810 460.084,18810 574.867,18527 696.867,18576.5 696.867,18810 z " fill-rule="evenodd" fill="rgb(255,0,0)" stroke-width="10" stroke="rgb(0,0,0)" />
	<path d="M696.867,19140 638.594,19140 696.867,18996.3 696.867,19140 z " fill-rule="evenodd" fill="rgb(255,0,0)" stroke-width="10" stroke="rgb(0,0,0)" />
	<path d="M393,10560 393,10260 694,10260 694,10560 393,10560 z " fill-rule="evenodd" fill="rgb(255,0,0)" stroke-width="10" stroke="rgb(0,0,0)" />
	<path d="M599,11250 599,11550 500,11550 500,11250 599,11250 z " fill-rule="evenodd" fill="rgb(255,0,0)" stroke-width="10" stroke="rgb(0,0,0)" />
	<path d="M500,11220 500,10920 645,10920 645,11220 500,11220 z " fill-rule="evenodd" fill="rgb(255,0,0)" stroke-width="10" stroke="rgb(0,0,0)" />
	<path d="M587,82 587,330 200,330 200,130 100,130 100,82 587,82 z " fill-rule="evenodd" fill="rgb(255,0,0)" stroke-width="10" stroke="rgb(0,0,0)" />
	<path d="M694,9600 694,9900 100,9900 100,9600 694,9600 z " fill-rule="evenodd" fill="rgb(255,0,0)" stroke-width="10" stroke="rgb(0,0,0)" />
	<path d="M100,17490 100,17190 447.773,17190 325.963,17490 100,17490 z " fill-rule="evenodd" fill="rgb(255,0,0)" stroke-width="10" stroke="rgb(0,0,0)" />
	<path d="M100,17160 100,16860 269.396,16860 147.585,17160 100,17160 z " fill-rule="evenodd" fill="rgb(255,0,0)" stroke-width="10" stroke="rgb(0,0,0)" />
	<path d="M500,9270 500,9570 100,9570 100,9270 500,9270 z " fill-rule="evenodd" fill="rgb(255,0,0)" stroke-width="10" stroke="rgb(0,0,0)" />
	<path d="M100,9240 100,8940 546,8940 546,9240 100,9240 z " fill-rule="evenodd" fill="rgb(255,0,0)" stroke-width="10" stroke="rgb(0,0,0)" />
	<path d="M686,9270 686,9570 500,9570 500,9270 686,9270 z " fill-rule="evenodd" fill="rgb(255,0,0)" stroke-width="10" stroke="rgb(0,0,0)" />
	<path d="M587,8610 587,8910 100,8910 100,8610 587,8610 z " fill-rule="evenodd" fill="rgb(255,0,0)" stroke-width="10" stroke="rgb(0,0,0)" />
	<path d="M393,704 393,990 100,990 100,704 393,704 z " fill-rule="evenodd" fill="rgb(255,0,0)" stroke-width="10" stroke="rgb(0,0,0)" />
	<path d="M100,8294 700,8294 700,8580 100,8580 100,8294 z " fill-rule="evenodd" fill="rgb(255,0,0)" stroke-width="10" stroke="rgb(0,0,0)" />
	<path d="M100,7964 700,7964 700,8250 100,8250 100,7964 z " fill-rule="evenodd" fill="rgb(255,0,0)" stroke-width="10" stroke="rgb(0,0,0)" />
	<path d="M100,7620 700,7620 700,7920 601,7920 601,7856 501,7856 501,7906 100,7906 100,7620 z " fill-rule="evenodd" fill="rgb(255,0,0)" stroke-width="10" stroke="rgb(0,0,0)" />
	<path d="M673.737,16860 673.737,17160 147.585,17160 269.396,16860 673.737,16860 z " fill-rule="evenodd" fill="rgb(255,0,0)" stroke-width="10" stroke="rgb(0,0,0)" />
	<path d="M100,7590 100,7290 401,7290 401,7590 100,7590 z " fill-rule="evenodd" fill="rgb(255,0,0)" stroke-width="10" stroke="rgb(0,0,0)" />
	<path d="M698,11250 698,11550 599,11550 599,11250 698,11250 z " fill-rule="evenodd" fill="rgb(255,0,0)" stroke-width="10" stroke="rgb(0,0,0)" />
	<path d="M100,18150 100,17850 145,17850 145,18114 245,18114 245,18150 100,18150 z " fill-rule="evenodd" fill="rgb(255,0,0)" stroke-width="10" stroke="rgb(0,0,0)" />
	<path d="M587,7290 587,7590 401,7590 401,7290 587,7290 z " fill-rule="evenodd" fill="rgb(255,0,0)" stroke-width="10" stroke="rgb(0,0,0)" />
	<path d="M587,6960 587,7260 100,7260 100,6960 587,6960 z " fill-rule="evenodd" fill="rgb(255,0,0)" stroke-width="10" stroke="rgb(0,0,0)" />
	<path d="M692,1320 100,1320 100,1104 692,1104 692,1320 z " fill-rule="evenodd" fill="rgb(255,0,0)" stroke-width="10" stroke="rgb(0,0,0)" />
	<path d="M700,6930 100,6930 100,6714 700,6714 700,6930 z " fill-rule="evenodd" fill="rgb(255,0,0)" stroke-width="10" stroke="rgb(0,0,0)" />
	<path d="M700,6600 100,6600 100,6384 700,6384 700,6600 z " fill-rule="evenodd" fill="rgb(255,0,0)" stroke-width="10" stroke="rgb(0,0,0)" />
	<path d="M700,6270 100,6270 100,6054 700,6054 700,6270 z " fill-rule="evenodd" fill="rgb(255,0,0)" stroke-width="10" stroke="rgb(0,0,0)" />
	<path d="M700,16530 700,16830 100,16830 100,16614 300,16614 300,16530 700,16530 z " fill-rule="evenodd" fill="rgb(255,0,0)" stroke-width="10" stroke="rgb(0,0,0)" />
	<path d="M100,5940 100,5640 700,5640 700,5897.44 682.718,5940 100,5940 z " fill-rule="evenodd" fill="rgb(255,0,0)" stroke-width="10" stroke="rgb(0,0,0)" />
	<path d="M673.737,17820 571.208,17820 673.737,17567.5 673.737,17820 z " fill-rule="evenodd" fill="rgb(255,0,0)" stroke-width="10" stroke="rgb(0,0,0)" />
	<path d="M500,5310 500,5610 100,5610 100,5310 500,5310 z " fill-rule="evenodd" fill="rgb(255,0,0)" stroke-width="10" stroke="rgb(0,0,0)" />
	<path d="M100,5280 100,4980 446,4980 446,5280 100,5280 z " fill-rule="evenodd" fill="rgb(255,0,0)" stroke-width="10" stroke="rgb(0,0,0)" />
	<path d="M686,5310 686,5610 500,5610 500,5310 686,5310 z " fill-rule="evenodd" fill="rgb(255,0,0)" stroke-width="10" stroke="rgb(0,0,0)" />
	<path d="M587,4650 587,4950 100,4950 100,4650 587,4650 z " fill-rule="evenodd" fill="rgb(255,0,0)" stroke-width="10" stroke="rgb(0,0,0)" />
	<path d="M391,4320 391,4620 100,4620 100,4320 391,4320 z " fill-rule="evenodd" fill="rgb(255,0,0)" stroke-width="10" stroke="rgb(0,0,0)" />
	<path d="M606.869,17190 606.869,17490 325.963,17490 447.773,17190 606.869,17190 z " fill-rule="evenodd" fill="rgb(255,0,0)" stroke-width="10" stroke="rgb(0,0,0)" />
	<path d="M700,12340 100,12340 100,12308 700,12308 700,12340 z " fill-rule="evenodd" fill="rgb(255,0,0)" stroke-width="10" stroke="rgb(0,0,0)" />
	<path d="M700,12308 100,12308 100,12276 700,12276 700,12308 z " fill-rule="evenodd" fill="rgb(255,0,0)" stroke-width="10" stroke="rgb(0,0,0)" />
	<path d="M700,12276 100,12276 100,12244 700,12244 700,12276 z " fill-rule="evenodd" fill="rgb(255,0,0)" stroke-width="10" stroke="rgb(0,0,0)" />
	<path d="M700,10642 100,10642 100,10610 700,10610 700,10642 z " fill-rule="evenodd" fill="rgb(255,0,0)" stroke-width="10" stroke="rgb(0,0,0)" />
	<path d="M391,1650 391,1618 692,1618 692,1650 391,1650 z " fill-rule="evenodd" fill="rgb(255,0,0)" stroke-width="10" stroke="rgb(0,0,0)" />
	<path d="M223.81,16562 124.81,16562 124.81,16530 223.81,16530 223.81,16562 z " fill-rule="evenodd" fill="rgb(255,0,0)" stroke-width="10" stroke="rgb(0,0,0)" />
	<path d="M700,6714 100,6714 100,6682 700,6682 700,6714 z " fill-rule="evenodd" fill="rgb(255,0,0)" stroke-width="10" stroke="rgb(0,0,0)" />
	<path d="M700,6682 100,6682 100,6650 700,6650 700,6682 z " fill-rule="evenodd" fill="rgb(255,0,0)" stroke-width="10" stroke="rgb(0,0,0)" />
	<path d="M628.844,16500 628.844,16468 673.844,16468 673.844,16500 628.844,16500 z " fill-rule="evenodd" fill="rgb(255,0,0)" stroke-width="10" stroke="rgb(0,0,0)" />
	<path d="M632,4980 632,5280 446,5280 446,4980 632,4980 z " fill-rule="evenodd" fill="rgb(255,0,0)" stroke-width="10" stroke="rgb(0,0,0)" />
	<path d="M587,3990 587,4290 100,4290 100,3990 587,3990 z " fill-rule="evenodd" fill="rgb(255,0,0)" stroke-width="10" stroke="rgb(0,0,0)" />
	<path d="M692,3660 692,3960 100,3960 100,3660 692,3660 z " fill-rule="evenodd" fill="rgb(255,0,0)" stroke-width="10" stroke="rgb(0,0,0)" />
	<path d="M100,16170 100,15870 559.284,15870 437.474,16170 100,16170 z " fill-rule="evenodd" fill="rgb(255,0,0)" stroke-width="10" stroke="rgb(0,0,0)" />
	<path d="M700,6384 100,6384 100,6352 700,6352 700,6384 z " fill-rule="evenodd" fill="rgb(255,0,0)" stroke-width="10" stroke="rgb(0,0,0)" />
	<path d="M577,4320 577,4620 391,4620 391,4320 577,4320 z " fill-rule="evenodd" fill="rgb(255,0,0)" stroke-width="10" stroke="rgb(0,0,0)" />
	<path d="M587,6352 100,6352 100,6320 587,6320 587,6352 z " fill-rule="evenodd" fill="rgb(255,0,0)" stroke-width="10" stroke="rgb(0,0,0)" />
	<path d="M391,3330 391,3630 100,3630 100,3330 391,3330 z " fill-rule="evenodd" fill="rgb(255,0,0)" stroke-width="10" stroke="rgb(0,0,0)" />
	<path d="M100,16500 100,16200 700,16200 700,16292.8 615.851,16500 100,16500 z " fill-rule="evenodd" fill="rgb(255,0,0)" stroke-width="10" stroke="rgb(0,0,0)" />
	<path d="M103.844,15540 139.505,15540 103.844,15627.8 103.844,15540 z " fill-rule="evenodd" fill="rgb(255,0,0)" stroke-width="10" stroke="rgb(0,0,0)" />
	<path d="M692,3000 692,3300 100,3300 100,3000 692,3000 z " fill-rule="evenodd" fill="rgb(255,0,0)" stroke-width="10" stroke="rgb(0,0,0)" />
	<path d="M100,15510 100,15210 314.039,15210 192.229,15510 100,15510 z " fill-rule="evenodd" fill="rgb(255,0,0)" stroke-width="10" stroke="rgb(0,0,0)" />
	<path d="M682,3330 682,3630 391,3630 391,3330 682,3330 z " fill-rule="evenodd" fill="rgb(255,0,0)" stroke-width="10" stroke="rgb(0,0,0)" />
	<path d="M100,15180 100,14880 492.417,14880 370.607,15180 100,15180 z " fill-rule="evenodd" fill="rgb(255,0,0)" stroke-width="10" stroke="rgb(0,0,0)" />
	<path d="M692,2670 692,2970 100,2970 100,2670 692,2670 z " fill-rule="evenodd" fill="rgb(255,0,0)" stroke-width="10" stroke="rgb(0,0,0)" />
	<path d="M100,14850 100,14550 670.795,14550 548.984,14850 100,14850 z " fill-rule="evenodd" fill="rgb(255,0,0)" stroke-width="10" stroke="rgb(0,0,0)" />
	<path d="M391,2340 391,2640 100,2640 100,2340 391,2340 z " fill-rule="evenodd" fill="rgb(255,0,0)" stroke-width="10" stroke="rgb(0,0,0)" />
	<path d="M696.156,14550 696.156,14850 548.984,14850 670.795,14550 696.156,14550 z " fill-rule="evenodd" fill="rgb(255,0,0)" stroke-width="10" stroke="rgb(0,0,0)" />
	<path d="M692,2010 692,2310 100,2310 100,2010 692,2010 z " fill-rule="evenodd" fill="rgb(255,0,0)" stroke-width="10" stroke="rgb(0,0,0)" />
	<path d="M696.156,14880 696.156,15180 370.607,15180 492.417,14880 696.156,14880 z " fill-rule="evenodd" fill="rgb(255,0,0)" stroke-width="10" stroke="rgb(0,0,0)" />
	<path d="M682,2340 682,2640 391,2640 391,2340 682,2340 z " fill-rule="evenodd" fill="rgb(255,0,0)" stroke-width="10" stroke="rgb(0,0,0)" />
	<path d="M696.156,15210 696.156,15510 192.229,15510 314.039,15210 696.156,15210 z " fill-rule="evenodd" fill="rgb(255,0,0)" stroke-width="10" stroke="rgb(0,0,0)" />
	<path d="M692,1680 692,1980 100,1980 100,1680 692,1680 z " fill-rule="evenodd" fill="rgb(255,0,0)" stroke-width="10" stroke="rgb(0,0,0)" />
	<path d="M700,15540 700,15840 100,15840 100,15637.3 139.505,15540 700,15540 z " fill-rule="evenodd" fill="rgb(255,0,0)" stroke-width="10" stroke="rgb(0,0,0)" />
	<path d="M672.727,18150 592.422,18150 672.727,17952.2 672.727,18150 z " fill-rule="evenodd" fill="rgb(255,0,0)" stroke-width="10" stroke="rgb(0,0,0)" />
	<path d="M391,1350 391,1650 100,1650 100,1350 391,1350 z " fill-rule="evenodd" fill="rgb(255,0,0)" stroke-width="10" stroke="rgb(0,0,0)" />
	<path d="M696.156,15870 696.156,16170 437.474,16170 559.284,15870 696.156,15870 z " fill-rule="evenodd" fill="rgb(255,0,0)" stroke-width="10" stroke="rgb(0,0,0)" />
	<path d="M692,7954 692,7964 100,7964 100,7954 692,7954 z " fill-rule="evenodd" fill="rgb(255,0,0)" stroke-width="10" stroke="rgb(0,0,0)" />
	<path d="M100,10600 700,10600 700,10610 100,10610 100,10600 z " fill-rule="evenodd" fill="rgb(255,0,0)" stroke-width="10" stroke="rgb(0,0,0)" />
	<path d="M100,10590 700,10590 700,10600 100,10600 100,10590 z " fill-rule="evenodd" fill="rgb(255,0,0)" stroke-width="10" stroke="rgb(0,0,0)" />
	<path d="M100,8284 700,8284 700,8294 100,8294 100,8284 z " fill-rule="evenodd" fill="rgb(255,0,0)" stroke-width="10" stroke="rgb(0,0,0)" />
	<path d="M100,6640 537.06,6640 533,6650 100,6650 100,6640 z " fill-rule="evenodd" fill="rgb(255,0,0)" stroke-width="10" stroke="rgb(0,0,0)" />
</svg>
