<?xml version="1.0" standalone="no" ?>
<!DOCTYPE svg PUBLIC "-//W3C//DTD SVG 1.1//EN" "http://www.w3.org/Graphics/SVG/1.1/DTD/svg11.dtd">
<svg width="8700px" height="7052px" xmlns="http://www.w3.org/2000/svg" version="1.1" >
	<path d="M2845,699 2845,1299 3145,1299 3145,699 2845,699 z " fill-rule="evenodd" fill="rgb(0,128,0)" stroke-width="5" stroke="rgb(0,0,0)" />
	<path d="M2845,1903 2845,2503 3145,2503 3145,1903 2845,1903 z " fill-rule="evenodd" fill="rgb(0,128,0)" stroke-width="5" stroke="rgb(0,0,0)" />
	<path d="M3147,1602 3147,2202 3447,2202 3447,1602 3147,1602 z " fill-rule="evenodd" fill="rgb(0,128,0)" stroke-width="5" stroke="rgb(0,0,0)" />
	<path d="M3147,2204 3147,2804 3447,2804 3447,2204 3147,2204 z " fill-rule="evenodd" fill="rgb(0,128,0)" stroke-width="5" stroke="rgb(0,0,0)" />
	<path d="M3449,1301 3449,1901 3749,1901 3749,1301 3449,1301 z " fill-rule="evenodd" fill="rgb(0,128,0)" stroke-width="5" stroke="rgb(0,0,0)" />
	<path d="M3449,1903 3449,2503 3749,2503 3749,1903 3449,1903 z " fill-rule="evenodd" fill="rgb(0,128,0)" stroke-width="5" stroke="rgb(0,0,0)" />
	<path d="M2543,398 2543,998 2843,998 2843,398 2543,398 z " fill-rule="evenodd" fill="rgb(0,128,0)" stroke-width="5" stroke="rgb(0,0,0)" />
	<path d="M2543,1000 2543,1600 2843,1600 2843,1000 2543,1000 z " fill-rule="evenodd" fill="rgb(0,128,0)" stroke-width="5" stroke="rgb(0,0,0)" />
	<path d="M2543,1602 2543,2202 2843,2202 2843,1602 2543,1602 z " fill-rule="evenodd" fill="rgb(0,128,0)" stroke-width="5" stroke="rgb(0,0,0)" />
	<path d="M2543,2204 2543,2804 2843,2804 2843,2204 2543,2204 z " fill-rule="evenodd" fill="rgb(0,128,0)" stroke-width="5" stroke="rgb(0,0,0)" />
	<path d="M3751,1000 3751,1600 4051,1600 4051,1000 3751,1000 z " fill-rule="evenodd" fill="rgb(0,128,0)" stroke-width="5" stroke="rgb(0,0,0)" />
	<path d="M3751,1602 3751,2202 4051,2202 4051,1602 3751,1602 z " fill-rule="evenodd" fill="rgb(0,128,0)" stroke-width="5" stroke="rgb(0,0,0)" />
	<path d="M3751,2204 3751,2804 4051,2804 4051,2204 3751,2204 z " fill-rule="evenodd" fill="rgb(0,128,0)" stroke-width="5" stroke="rgb(0,0,0)" />
	<path d="M3751,3408 3751,4008 4051,4008 4051,3408 3751,3408 z " fill-rule="evenodd" fill="rgb(0,128,0)" stroke-width="5" stroke="rgb(0,0,0)" />
	<path d="M2241,699 2241,1299 2541,1299 2541,699 2241,699 z " fill-rule="evenodd" fill="rgb(0,128,0)" stroke-width="5" stroke="rgb(0,0,0)" />
	<path d="M2241,1301 2241,1901 2541,1901 2541,1301 2241,1301 z " fill-rule="evenodd" fill="rgb(0,128,0)" stroke-width="5" stroke="rgb(0,0,0)" />
	<path d="M2241,1903 2241,2503 2541,2503 2541,1903 2241,1903 z " fill-rule="evenodd" fill="rgb(0,128,0)" stroke-width="5" stroke="rgb(0,0,0)" />
	<path d="M2241,2505 2241,3105 2541,3105 2541,2505 2241,2505 z " fill-rule="evenodd" fill="rgb(0,128,0)" stroke-width="5" stroke="rgb(0,0,0)" />
	<path d="M2543,2806 2543,3406 2843,3406 2843,2806 2543,2806 z " fill-rule="evenodd" fill="rgb(0,128,0)" stroke-width="5" stroke="rgb(0,0,0)" />
	<path d="M3751,4010 3751,4610 4051,4610 4051,4010 3751,4010 z " fill-rule="evenodd" fill="rgb(0,128,0)" stroke-width="5" stroke="rgb(0,0,0)" />
	<path d="M4053,1301 4053,1901 4353,1901 4353,1301 4053,1301 z " fill-rule="evenodd" fill="rgb(0,128,0)" stroke-width="5" stroke="rgb(0,0,0)" />
	<path d="M4053,1903 4053,2503 4353,2503 4353,1903 4053,1903 z " fill-rule="evenodd" fill="rgb(0,128,0)" stroke-width="5" stroke="rgb(0,0,0)" />
	<path d="M4053,3107 4053,3707 4353,3707 4353,3107 4053,3107 z " fill-rule="evenodd" fill="rgb(0,128,0)" stroke-width="5" stroke="rgb(0,0,0)" />
	<path d="M4053,3709 4053,4309 4353,4309 4353,3709 4053,3709 z " fill-rule="evenodd" fill="rgb(0,128,0)" stroke-width="5" stroke="rgb(0,0,0)" />
	<path d="M4053,4311 4053,4911 4353,4911 4353,4311 4053,4311 z " fill-rule="evenodd" fill="rgb(0,128,0)" stroke-width="5" stroke="rgb(0,0,0)" />
	<path d="M1939,1602 1939,2202 2239,2202 2239,1602 1939,1602 z " fill-rule="evenodd" fill="rgb(0,128,0)" stroke-width="5" stroke="rgb(0,0,0)" />
	<path d="M1939,2204 1939,2804 2239,2804 2239,2204 1939,2204 z " fill-rule="evenodd" fill="rgb(0,128,0)" stroke-width="5" stroke="rgb(0,0,0)" />
	<path d="M2241,3107 2241,3707 2541,3707 2541,3107 2241,3107 z " fill-rule="evenodd" fill="rgb(0,128,0)" stroke-width="5" stroke="rgb(0,0,0)" />
	<path d="M2543,3408 2543,4008 2843,4008 2843,3408 2543,3408 z " fill-rule="evenodd" fill="rgb(0,128,0)" stroke-width="5" stroke="rgb(0,0,0)" />
	<path d="M4355,1602 4355,2202 4655,2202 4655,1602 4355,1602 z " fill-rule="evenodd" fill="rgb(0,128,0)" stroke-width="5" stroke="rgb(0,0,0)" />
	<path d="M4355,2204 4355,2804 4655,2804 4655,2204 4355,2204 z " fill-rule="evenodd" fill="rgb(0,128,0)" stroke-width="5" stroke="rgb(0,0,0)" />
	<path d="M4355,2806 4355,3406 4655,3406 4655,2806 4355,2806 z " fill-rule="evenodd" fill="rgb(0,128,0)" stroke-width="5" stroke="rgb(0,0,0)" />
	<path d="M4355,3408 4355,4008 4655,4008 4655,3408 4355,3408 z " fill-rule="evenodd" fill="rgb(0,128,0)" stroke-width="5" stroke="rgb(0,0,0)" />
	<path d="M4355,4010 4355,4610 4655,4610 4655,4010 4355,4010 z " fill-rule="evenodd" fill="rgb(0,128,0)" stroke-width="5" stroke="rgb(0,0,0)" />
	<path d="M1637,1903 1637,2503 1937,2503 1937,1903 1637,1903 z " fill-rule="evenodd" fill="rgb(0,128,0)" stroke-width="5" stroke="rgb(0,0,0)" />
	<path d="M1939,3408 1939,4008 2239,4008 2239,3408 1939,3408 z " fill-rule="evenodd" fill="rgb(0,128,0)" stroke-width="5" stroke="rgb(0,0,0)" />
	<path d="M2241,3709 2241,4309 2541,4309 2541,3709 2241,3709 z " fill-rule="evenodd" fill="rgb(0,128,0)" stroke-width="5" stroke="rgb(0,0,0)" />
	<path d="M2543,4010 2543,4610 2843,4610 2843,4010 2543,4010 z " fill-rule="evenodd" fill="rgb(0,128,0)" stroke-width="5" stroke="rgb(0,0,0)" />
	<path d="M4657,1301 4657,1901 4957,1901 4957,1301 4657,1301 z " fill-rule="evenodd" fill="rgb(0,128,0)" stroke-width="5" stroke="rgb(0,0,0)" />
	<path d="M4657,1903 4657,2503 4957,2503 4957,1903 4657,1903 z " fill-rule="evenodd" fill="rgb(0,128,0)" stroke-width="5" stroke="rgb(0,0,0)" />
	<path d="M1335,1602 1335,2202 1635,2202 1635,1602 1335,1602 z " fill-rule="evenodd" fill="rgb(0,128,0)" stroke-width="5" stroke="rgb(0,0,0)" />
	<path d="M1335,2204 1335,2804 1635,2804 1635,2204 1335,2204 z " fill-rule="evenodd" fill="rgb(0,128,0)" stroke-width="5" stroke="rgb(0,0,0)" />
	<path d="M1335,3408 1335,4008 1635,4008 1635,3408 1335,3408 z " fill-rule="evenodd" fill="rgb(0,128,0)" stroke-width="5" stroke="rgb(0,0,0)" />
	<path d="M1637,3709 1637,4309 1937,4309 1937,3709 1637,3709 z " fill-rule="evenodd" fill="rgb(0,128,0)" stroke-width="5" stroke="rgb(0,0,0)" />
	<path d="M1939,4010 1939,4610 2239,4610 2239,4010 1939,4010 z " fill-rule="evenodd" fill="rgb(0,128,0)" stroke-width="5" stroke="rgb(0,0,0)" />
	<path d="M2241,4311 2241,4911 2541,4911 2541,4311 2241,4311 z " fill-rule="evenodd" fill="rgb(0,128,0)" stroke-width="5" stroke="rgb(0,0,0)" />
	<path d="M2543,4612 2543,5212 2843,5212 2843,4612 2543,4612 z " fill-rule="evenodd" fill="rgb(0,128,0)" stroke-width="5" stroke="rgb(0,0,0)" />
	<path d="M4959,1602 4959,2202 5259,2202 5259,1602 4959,1602 z " fill-rule="evenodd" fill="rgb(0,128,0)" stroke-width="5" stroke="rgb(0,0,0)" />
	<path d="M4959,2204 4959,2804 5259,2804 5259,2204 4959,2204 z " fill-rule="evenodd" fill="rgb(0,128,0)" stroke-width="5" stroke="rgb(0,0,0)" />
	<path d="M1033,1903 1033,2503 1333,2503 1333,1903 1033,1903 z " fill-rule="evenodd" fill="rgb(0,128,0)" stroke-width="5" stroke="rgb(0,0,0)" />
	<path d="M1033,3709 1033,4309 1333,4309 1333,3709 1033,3709 z " fill-rule="evenodd" fill="rgb(0,128,0)" stroke-width="5" stroke="rgb(0,0,0)" />
	<path d="M1335,4010 1335,4610 1635,4610 1635,4010 1335,4010 z " fill-rule="evenodd" fill="rgb(0,128,0)" stroke-width="5" stroke="rgb(0,0,0)" />
	<path d="M1637,4311 1637,4911 1937,4911 1937,4311 1637,4311 z " fill-rule="evenodd" fill="rgb(0,128,0)" stroke-width="5" stroke="rgb(0,0,0)" />
	<path d="M1939,4612 1939,5212 2239,5212 2239,4612 1939,4612 z " fill-rule="evenodd" fill="rgb(0,128,0)" stroke-width="5" stroke="rgb(0,0,0)" />
	<path d="M2241,4913 2241,5513 2541,5513 2541,4913 2241,4913 z " fill-rule="evenodd" fill="rgb(0,128,0)" stroke-width="5" stroke="rgb(0,0,0)" />
	<path d="M2543,5214 2543,5814 2843,5814 2843,5214 2543,5214 z " fill-rule="evenodd" fill="rgb(0,128,0)" stroke-width="5" stroke="rgb(0,0,0)" />
	<path d="M5261,1903 5261,2503 5561,2503 5561,1903 5261,1903 z " fill-rule="evenodd" fill="rgb(0,128,0)" stroke-width="5" stroke="rgb(0,0,0)" />
	<path d="M5261,2505 5261,3105 5561,3105 5561,2505 5261,2505 z " fill-rule="evenodd" fill="rgb(0,128,0)" stroke-width="5" stroke="rgb(0,0,0)" />
	<path d="M5261,3107 5261,3707 5561,3707 5561,3107 5261,3107 z " fill-rule="evenodd" fill="rgb(0,128,0)" stroke-width="5" stroke="rgb(0,0,0)" />
	<path d="M5261,3709 5261,4309 5561,4309 5561,3709 5261,3709 z " fill-rule="evenodd" fill="rgb(0,128,0)" stroke-width="5" stroke="rgb(0,0,0)" />
	<path d="M5261,4311 5261,4911 5561,4911 5561,4311 5261,4311 z " fill-rule="evenodd" fill="rgb(0,128,0)" stroke-width="5" stroke="rgb(0,0,0)" />
	<path d="M5261,4913 5261,5513 5561,5513 5561,4913 5261,4913 z " fill-rule="evenodd" fill="rgb(0,128,0)" stroke-width="5" stroke="rgb(0,0,0)" />
	<path d="M731,1602 731,2202 1031,2202 1031,1602 731,1602 z " fill-rule="evenodd" fill="rgb(0,128,0)" stroke-width="5" stroke="rgb(0,0,0)" />
	<path d="M731,2204 731,2804 1031,2804 1031,2204 731,2204 z " fill-rule="evenodd" fill="rgb(0,128,0)" stroke-width="5" stroke="rgb(0,0,0)" />
	<path d="M731,3408 731,4008 1031,4008 1031,3408 731,3408 z " fill-rule="evenodd" fill="rgb(0,128,0)" stroke-width="5" stroke="rgb(0,0,0)" />
	<path d="M731,4010 731,4610 1031,4610 1031,4010 731,4010 z " fill-rule="evenodd" fill="rgb(0,128,0)" stroke-width="5" stroke="rgb(0,0,0)" />
	<path d="M1033,4311 1033,4911 1333,4911 1333,4311 1033,4311 z " fill-rule="evenodd" fill="rgb(0,128,0)" stroke-width="5" stroke="rgb(0,0,0)" />
	<path d="M1335,4612 1335,5212 1635,5212 1635,4612 1335,4612 z " fill-rule="evenodd" fill="rgb(0,128,0)" stroke-width="5" stroke="rgb(0,0,0)" />
	<path d="M1637,4913 1637,5513 1937,5513 1937,4913 1637,4913 z " fill-rule="evenodd" fill="rgb(0,128,0)" stroke-width="5" stroke="rgb(0,0,0)" />
	<path d="M1939,5214 1939,5814 2239,5814 2239,5214 1939,5214 z " fill-rule="evenodd" fill="rgb(0,128,0)" stroke-width="5" stroke="rgb(0,0,0)" />
	<path d="M2241,5515 2241,6115 2541,6115 2541,5515 2241,5515 z " fill-rule="evenodd" fill="rgb(0,128,0)" stroke-width="5" stroke="rgb(0,0,0)" />
	<path d="M2543,5816 2543,6416 2843,6416 2843,5816 2543,5816 z " fill-rule="evenodd" fill="rgb(0,128,0)" stroke-width="5" stroke="rgb(0,0,0)" />
	<path d="M5563,2204 5563,2804 5863,2804 5863,2204 5563,2204 z " fill-rule="evenodd" fill="rgb(0,128,0)" stroke-width="5" stroke="rgb(0,0,0)" />
	<path d="M5563,2806 5563,3406 5863,3406 5863,2806 5563,2806 z " fill-rule="evenodd" fill="rgb(0,128,0)" stroke-width="5" stroke="rgb(0,0,0)" />
	<path d="M5563,3408 5563,4008 5863,4008 5863,3408 5563,3408 z " fill-rule="evenodd" fill="rgb(0,128,0)" stroke-width="5" stroke="rgb(0,0,0)" />
	<path d="M5563,4010 5563,4610 5863,4610 5863,4010 5563,4010 z " fill-rule="evenodd" fill="rgb(0,128,0)" stroke-width="5" stroke="rgb(0,0,0)" />
	<path d="M5563,4612 5563,5212 5863,5212 5863,4612 5563,4612 z " fill-rule="evenodd" fill="rgb(0,128,0)" stroke-width="5" stroke="rgb(0,0,0)" />
	<path d="M429,1903 429,2503 729,2503 729,1903 429,1903 z " fill-rule="evenodd" fill="rgb(0,128,0)" stroke-width="5" stroke="rgb(0,0,0)" />
	<path d="M429,3709 429,4309 729,4309 729,3709 429,3709 z " fill-rule="evenodd" fill="rgb(0,128,0)" stroke-width="5" stroke="rgb(0,0,0)" />
	<path d="M429,4311 429,4911 729,4911 729,4311 429,4311 z " fill-rule="evenodd" fill="rgb(0,128,0)" stroke-width="5" stroke="rgb(0,0,0)" />
	<path d="M731,4612 731,5212 1031,5212 1031,4612 731,4612 z " fill-rule="evenodd" fill="rgb(0,128,0)" stroke-width="5" stroke="rgb(0,0,0)" />
	<path d="M1033,4913 1033,5513 1333,5513 1333,4913 1033,4913 z " fill-rule="evenodd" fill="rgb(0,128,0)" stroke-width="5" stroke="rgb(0,0,0)" />
	<path d="M1335,5214 1335,5814 1635,5814 1635,5214 1335,5214 z " fill-rule="evenodd" fill="rgb(0,128,0)" stroke-width="5" stroke="rgb(0,0,0)" />
	<path d="M1637,5515 1637,6115 1937,6115 1937,5515 1637,5515 z " fill-rule="evenodd" fill="rgb(0,128,0)" stroke-width="5" stroke="rgb(0,0,0)" />
	<path d="M1939,5816 1939,6416 2239,6416 2239,5816 1939,5816 z " fill-rule="evenodd" fill="rgb(0,128,0)" stroke-width="5" stroke="rgb(0,0,0)" />
	<path d="M2241,6117 2241,6717 2541,6717 2541,6117 2241,6117 z " fill-rule="evenodd" fill="rgb(0,128,0)" stroke-width="5" stroke="rgb(0,0,0)" />
	<path d="M5865,1903 5865,2503 6165,2503 6165,1903 5865,1903 z " fill-rule="evenodd" fill="rgb(0,128,0)" stroke-width="5" stroke="rgb(0,0,0)" />
	<path d="M5865,2505 5865,3105 6165,3105 6165,2505 5865,2505 z " fill-rule="evenodd" fill="rgb(0,128,0)" stroke-width="5" stroke="rgb(0,0,0)" />
	<path d="M5865,3107 5865,3707 6165,3707 6165,3107 5865,3107 z " fill-rule="evenodd" fill="rgb(0,128,0)" stroke-width="5" stroke="rgb(0,0,0)" />
	<path d="M5865,3709 5865,4309 6165,4309 6165,3709 5865,3709 z " fill-rule="evenodd" fill="rgb(0,128,0)" stroke-width="5" stroke="rgb(0,0,0)" />
	<path d="M5865,4311 5865,4911 6165,4911 6165,4311 5865,4311 z " fill-rule="evenodd" fill="rgb(0,128,0)" stroke-width="5" stroke="rgb(0,0,0)" />
	<path d="M5865,4913 5865,5513 6165,5513 6165,4913 5865,4913 z " fill-rule="evenodd" fill="rgb(0,128,0)" stroke-width="5" stroke="rgb(0,0,0)" />
	<path d="M127,1602 127,2202 427,2202 427,1602 127,1602 z " fill-rule="evenodd" fill="rgb(0,128,0)" stroke-width="5" stroke="rgb(0,0,0)" />
	<path d="M127,2204 127,2804 427,2804 427,2204 127,2204 z " fill-rule="evenodd" fill="rgb(0,128,0)" stroke-width="5" stroke="rgb(0,0,0)" />
	<path d="M127,3408 127,4008 427,4008 427,3408 127,3408 z " fill-rule="evenodd" fill="rgb(0,128,0)" stroke-width="5" stroke="rgb(0,0,0)" />
	<path d="M127,4010 127,4610 427,4610 427,4010 127,4010 z " fill-rule="evenodd" fill="rgb(0,128,0)" stroke-width="5" stroke="rgb(0,0,0)" />
	<path d="M127,4612 127,5212 427,5212 427,4612 127,4612 z " fill-rule="evenodd" fill="rgb(0,128,0)" stroke-width="5" stroke="rgb(0,0,0)" />
	<path d="M429,4913 429,5513 729,5513 729,4913 429,4913 z " fill-rule="evenodd" fill="rgb(0,128,0)" stroke-width="5" stroke="rgb(0,0,0)" />
	<path d="M731,5214 731,5814 1031,5814 1031,5214 731,5214 z " fill-rule="evenodd" fill="rgb(0,128,0)" stroke-width="5" stroke="rgb(0,0,0)" />
	<path d="M1033,5515 1033,6115 1333,6115 1333,5515 1033,5515 z " fill-rule="evenodd" fill="rgb(0,128,0)" stroke-width="5" stroke="rgb(0,0,0)" />
	<path d="M1335,5816 1335,6416 1635,6416 1635,5816 1335,5816 z " fill-rule="evenodd" fill="rgb(0,128,0)" stroke-width="5" stroke="rgb(0,0,0)" />
	<path d="M1637,6117 1637,6717 1937,6717 1937,6117 1637,6117 z " fill-rule="evenodd" fill="rgb(0,128,0)" stroke-width="5" stroke="rgb(0,0,0)" />
	<path d="M6167,2204 6167,2804 6467,2804 6467,2204 6167,2204 z " fill-rule="evenodd" fill="rgb(0,128,0)" stroke-width="5" stroke="rgb(0,0,0)" />
	<path d="M6167,2806 6167,3406 6467,3406 6467,2806 6167,2806 z " fill-rule="evenodd" fill="rgb(0,128,0)" stroke-width="5" stroke="rgb(0,0,0)" />
	<path d="M6167,3408 6167,4008 6467,4008 6467,3408 6167,3408 z " fill-rule="evenodd" fill="rgb(0,128,0)" stroke-width="5" stroke="rgb(0,0,0)" />
	<path d="M6167,4010 6167,4610 6467,4610 6467,4010 6167,4010 z " fill-rule="evenodd" fill="rgb(0,128,0)" stroke-width="5" stroke="rgb(0,0,0)" />
	<path d="M6167,4612 6167,5212 6467,5212 6467,4612 6167,4612 z " fill-rule="evenodd" fill="rgb(0,128,0)" stroke-width="5" stroke="rgb(0,0,0)" />
	<path d="M127,5214 127,5814 427,5814 427,5214 127,5214 z " fill-rule="evenodd" fill="rgb(0,128,0)" stroke-width="5" stroke="rgb(0,0,0)" />
	<path d="M429,5515 429,6115 729,6115 729,5515 429,5515 z " fill-rule="evenodd" fill="rgb(0,128,0)" stroke-width="5" stroke="rgb(0,0,0)" />
	<path d="M731,5816 731,6416 1031,6416 1031,5816 731,5816 z " fill-rule="evenodd" fill="rgb(0,128,0)" stroke-width="5" stroke="rgb(0,0,0)" />
	<path d="M1033,6117 1033,6717 1333,6717 1333,6117 1033,6117 z " fill-rule="evenodd" fill="rgb(0,128,0)" stroke-width="5" stroke="rgb(0,0,0)" />
	<path d="M6469,2505 6469,3105 6769,3105 6769,2505 6469,2505 z " fill-rule="evenodd" fill="rgb(0,128,0)" stroke-width="5" stroke="rgb(0,0,0)" />
	<path d="M6469,3107 6469,3707 6769,3707 6769,3107 6469,3107 z " fill-rule="evenodd" fill="rgb(0,128,0)" stroke-width="5" stroke="rgb(0,0,0)" />
	<path d="M6469,3709 6469,4309 6769,4309 6769,3709 6469,3709 z " fill-rule="evenodd" fill="rgb(0,128,0)" stroke-width="5" stroke="rgb(0,0,0)" />
	<path d="M6469,4311 6469,4911 6769,4911 6769,4311 6469,4311 z " fill-rule="evenodd" fill="rgb(0,128,0)" stroke-width="5" stroke="rgb(0,0,0)" />
	<path d="M6469,4913 6469,5513 6769,5513 6769,4913 6469,4913 z " fill-rule="evenodd" fill="rgb(0,128,0)" stroke-width="5" stroke="rgb(0,0,0)" />
	<path d="M127,5816 127,6416 427,6416 427,5816 127,5816 z " fill-rule="evenodd" fill="rgb(0,128,0)" stroke-width="5" stroke="rgb(0,0,0)" />
	<path d="M429,6117 429,6717 729,6717 729,6117 429,6117 z " fill-rule="evenodd" fill="rgb(0,128,0)" stroke-width="5" stroke="rgb(0,0,0)" />
	<path d="M6771,2204 6771,2804 7071,2804 7071,2204 6771,2204 z " fill-rule="evenodd" fill="rgb(0,128,0)" stroke-width="5" stroke="rgb(0,0,0)" />
	<path d="M6771,2806 6771,3406 7071,3406 7071,2806 6771,2806 z " fill-rule="evenodd" fill="rgb(0,128,0)" stroke-width="5" stroke="rgb(0,0,0)" />
	<path d="M6771,3408 6771,4008 7071,4008 7071,3408 6771,3408 z " fill-rule="evenodd" fill="rgb(0,128,0)" stroke-width="5" stroke="rgb(0,0,0)" />
	<path d="M6771,4010 6771,4610 7071,4610 7071,4010 6771,4010 z " fill-rule="evenodd" fill="rgb(0,128,0)" stroke-width="5" stroke="rgb(0,0,0)" />
	<path d="M6771,4612 6771,5212 7071,5212 7071,4612 6771,4612 z " fill-rule="evenodd" fill="rgb(0,128,0)" stroke-width="5" stroke="rgb(0,0,0)" />
	<path d="M7073,2505 7073,3105 7373,3105 7373,2505 7073,2505 z " fill-rule="evenodd" fill="rgb(0,128,0)" stroke-width="5" stroke="rgb(0,0,0)" />
	<path d="M7073,3107 7073,3707 7373,3707 7373,3107 7073,3107 z " fill-rule="evenodd" fill="rgb(0,128,0)" stroke-width="5" stroke="rgb(0,0,0)" />
	<path d="M7073,3709 7073,4309 7373,4309 7373,3709 7073,3709 z " fill-rule="evenodd" fill="rgb(0,128,0)" stroke-width="5" stroke="rgb(0,0,0)" />
	<path d="M7073,4311 7073,4911 7373,4911 7373,4311 7073,4311 z " fill-rule="evenodd" fill="rgb(0,128,0)" stroke-width="5" stroke="rgb(0,0,0)" />
	<path d="M7073,4913 7073,5513 7373,5513 7373,4913 7073,4913 z " fill-rule="evenodd" fill="rgb(0,128,0)" stroke-width="5" stroke="rgb(0,0,0)" />
	<path d="M7375,2806 7375,3406 7675,3406 7675,2806 7375,2806 z " fill-rule="evenodd" fill="rgb(0,128,0)" stroke-width="5" stroke="rgb(0,0,0)" />
	<path d="M7375,3408 7375,4008 7675,4008 7675,3408 7375,3408 z " fill-rule="evenodd" fill="rgb(0,128,0)" stroke-width="5" stroke="rgb(0,0,0)" />
	<path d="M7375,4010 7375,4610 7675,4610 7675,4010 7375,4010 z " fill-rule="evenodd" fill="rgb(0,128,0)" stroke-width="5" stroke="rgb(0,0,0)" />
	<path d="M7375,4612 7375,5212 7675,5212 7675,4612 7375,4612 z " fill-rule="evenodd" fill="rgb(0,128,0)" stroke-width="5" stroke="rgb(0,0,0)" />
	<path d="M7677,2505 7677,3105 7977,3105 7977,2505 7677,2505 z " fill-rule="evenodd" fill="rgb(0,128,0)" stroke-width="5" stroke="rgb(0,0,0)" />
	<path d="M7677,3107 7677,3707 7977,3707 7977,3107 7677,3107 z " fill-rule="evenodd" fill="rgb(0,128,0)" stroke-width="5" stroke="rgb(0,0,0)" />
	<path d="M7677,3709 7677,4309 7977,4309 7977,3709 7677,3709 z " fill-rule="evenodd" fill="rgb(0,128,0)" stroke-width="5" stroke="rgb(0,0,0)" />
	<path d="M7677,4311 7677,4911 7977,4911 7977,4311 7677,4311 z " fill-rule="evenodd" fill="rgb(0,128,0)" stroke-width="5" stroke="rgb(0,0,0)" />
	<path d="M7677,4913 7677,5513 7977,5513 7977,4913 7677,4913 z " fill-rule="evenodd" fill="rgb(0,128,0)" stroke-width="5" stroke="rgb(0,0,0)" />
	<path d="M7979,2806 7979,3406 8279,3406 8279,2806 7979,2806 z " fill-rule="evenodd" fill="rgb(0,128,0)" stroke-width="5" stroke="rgb(0,0,0)" />
	<path d="M7979,3408 7979,4008 8279,4008 8279,3408 7979,3408 z " fill-rule="evenodd" fill="rgb(0,128,0)" stroke-width="5" stroke="rgb(0,0,0)" />
	<path d="M7979,4010 7979,4610 8279,4610 8279,4010 7979,4010 z " fill-rule="evenodd" fill="rgb(0,128,0)" stroke-width="5" stroke="rgb(0,0,0)" />
	<path d="M7979,4612 7979,5212 8279,5212 8279,4612 7979,4612 z " fill-rule="evenodd" fill="rgb(0,128,0)" stroke-width="5" stroke="rgb(0,0,0)" />
	<path d="M8281,3107 8281,3707 8581,3707 8581,3107 8281,3107 z " fill-rule="evenodd" fill="rgb(0,128,0)" stroke-width="5" stroke="rgb(0,0,0)" />
	<path d="M8281,3709 8281,4309 8581,4309 8581,3709 8281,3709 z " fill-rule="evenodd" fill="rgb(0,128,0)" stroke-width="5" stroke="rgb(0,0,0)" />
	<path d="M8281,4311 8281,4911 8581,4911 8581,4311 8281,4311 z " fill-rule="evenodd" fill="rgb(0,128,0)" stroke-width="5" stroke="rgb(0,0,0)" />
	<path d="M8281,4913 8281,5513 8581,5513 8581,4913 8281,4913 z " fill-rule="evenodd" fill="rgb(0,128,0)" stroke-width="5" stroke="rgb(0,0,0)" />
	<path d="M3145,1901 2845,1901 2845,1301 3145,1301 3145,1341.78 3080,1502 2950,1502 2950,1602 3145,1602 3145,1901 z " fill-rule="evenodd" fill="rgb(255,0,0)" stroke-width="5" stroke="rgb(0,0,0)" />
	<path d="M3147,1000 3283.65,1000 3147,1336.85 3147,1000 z " fill-rule="evenodd" fill="rgb(255,0,0)" stroke-width="5" stroke="rgb(0,0,0)" />
	<path d="M3447,1000 3447,1600 3147.81,1600 3391.12,1000 3447,1000 z " fill-rule="evenodd" fill="rgb(255,0,0)" stroke-width="5" stroke="rgb(0,0,0)" />
	<path d="M3449,2505 3749,2505 3749,2952 3449,2952 3449,2505 z " fill-rule="evenodd" fill="rgb(255,0,0)" stroke-width="5" stroke="rgb(0,0,0)" />
	<path d="M3749,3105 3700,3105 3700,3052 3749,3052 3749,3105 z " fill-rule="evenodd" fill="rgb(255,0,0)" stroke-width="5" stroke="rgb(0,0,0)" />
	<path d="M2843,396 2543,396 2543,259.399 2843,381.077 2843,396 z " fill-rule="evenodd" fill="rgb(255,0,0)" stroke-width="5" stroke="rgb(0,0,0)" />
	<path d="M3145,697 2845,697 2845,381.888 3145,503.566 3145,697 z " fill-rule="evenodd" fill="rgb(255,0,0)" stroke-width="5" stroke="rgb(0,0,0)" />
	<path d="M3147,998 3147,504.378 3437,622 3284.46,998 3147,998 z " fill-rule="evenodd" fill="rgb(255,0,0)" stroke-width="5" stroke="rgb(0,0,0)" />
	<path d="M3447,998 3391.93,998 3447,862.209 3447,998 z " fill-rule="evenodd" fill="rgb(255,0,0)" stroke-width="5" stroke="rgb(0,0,0)" />
	<path d="M2845,3105 2845,2505 3145,2505 3145,2952 2850,2952 2850,3105 2845,3105 z " fill-rule="evenodd" fill="rgb(255,0,0)" stroke-width="5" stroke="rgb(0,0,0)" />
	<path d="M3147,2806 3447,2806 3447,2952 3147,2952 3147,2806 z " fill-rule="evenodd" fill="rgb(255,0,0)" stroke-width="5" stroke="rgb(0,0,0)" />
	<path d="M3749,1299 3449,1299 3449,857.277 3513.18,699 3625.05,699 3749,749.328 3749,1299 z " fill-rule="evenodd" fill="rgb(255,0,0)" stroke-width="5" stroke="rgb(0,0,0)" />
	<path d="M3749,3107 3749,3707 3700,3707 3700,3107 3749,3107 z " fill-rule="evenodd" fill="rgb(255,0,0)" stroke-width="5" stroke="rgb(0,0,0)" />
	<path d="M3751,2806 4051,2806 4051,2952 3751,2952 3751,2806 z " fill-rule="evenodd" fill="rgb(255,0,0)" stroke-width="5" stroke="rgb(0,0,0)" />
	<path d="M4051,3406 3751,3406 3751,3052 4051,3052 4051,3406 z " fill-rule="evenodd" fill="rgb(255,0,0)" stroke-width="5" stroke="rgb(0,0,0)" />
	<path d="M2541,697 2241,697 2241,136.909 2541,258.587 2541,697 z " fill-rule="evenodd" fill="rgb(255,0,0)" stroke-width="5" stroke="rgb(0,0,0)" />
	<path d="M3514,697 3529,660 3620.13,697 3514,697 z " fill-rule="evenodd" fill="rgb(255,0,0)" stroke-width="5" stroke="rgb(0,0,0)" />
	<path d="M2845,3707 2845,3107 2850,3107 2850,3152 2900,3152 2900,3707 2845,3707 z " fill-rule="evenodd" fill="rgb(255,0,0)" stroke-width="5" stroke="rgb(0,0,0)" />
	<path d="M3749,3709 3749,4309 3700,4309 3700,3709 3749,3709 z " fill-rule="evenodd" fill="rgb(255,0,0)" stroke-width="5" stroke="rgb(0,0,0)" />
	<path d="M4051,998 3751,998 3751,750.14 4051,871.95 4051,998 z " fill-rule="evenodd" fill="rgb(255,0,0)" stroke-width="5" stroke="rgb(0,0,0)" />
	<path d="M4353,1299 4053,1299 4053,872.762 4353,994.572 4353,1299 z " fill-rule="evenodd" fill="rgb(255,0,0)" stroke-width="5" stroke="rgb(0,0,0)" />
	<path d="M4053,2505 4353,2505 4353,3105 4053,3105 4053,3052 4200,3052 4200,2952 4053,2952 4053,2505 z " fill-rule="evenodd" fill="rgb(255,0,0)" stroke-width="5" stroke="rgb(0,0,0)" />
	<path d="M2239,396 2150,396 2150,100 2239,136.098 2239,396 z " fill-rule="evenodd" fill="rgb(255,0,0)" stroke-width="5" stroke="rgb(0,0,0)" />
	<path d="M2239,398 2239,998 2150,998 2150,398 2239,398 z " fill-rule="evenodd" fill="rgb(255,0,0)" stroke-width="5" stroke="rgb(0,0,0)" />
	<path d="M2239,1000 2239,1600 2150,1600 2150,1000 2239,1000 z " fill-rule="evenodd" fill="rgb(255,0,0)" stroke-width="5" stroke="rgb(0,0,0)" />
	<path d="M1939,2806 2239,2806 2239,3406 1939,3406 1939,3152 2050,3152 2050,2952 1939,2952 1939,2806 z " fill-rule="evenodd" fill="rgb(255,0,0)" stroke-width="5" stroke="rgb(0,0,0)" />
	<path d="M2845,4309 2845,3709 2900,3709 2900,4309 2845,4309 z " fill-rule="evenodd" fill="rgb(255,0,0)" stroke-width="5" stroke="rgb(0,0,0)" />
	<path d="M3749,4311 3749,4911 3700,4911 3700,4311 3749,4311 z " fill-rule="evenodd" fill="rgb(255,0,0)" stroke-width="5" stroke="rgb(0,0,0)" />
	<path d="M3751,4612 4051,4612 4051,4952 3751,4952 3751,4612 z " fill-rule="evenodd" fill="rgb(255,0,0)" stroke-width="5" stroke="rgb(0,0,0)" />
	<path d="M4053,4913 4353,4913 4353,4952 4053,4952 4053,4913 z " fill-rule="evenodd" fill="rgb(255,0,0)" stroke-width="5" stroke="rgb(0,0,0)" />
	<path d="M4355,998 4355,995.384 4361.44,998 4355,998 z " fill-rule="evenodd" fill="rgb(255,0,0)" stroke-width="5" stroke="rgb(0,0,0)" />
	<path d="M4655,1600 4355,1600 4355,1000 4366.37,1000 4655,1117.19 4655,1600 z " fill-rule="evenodd" fill="rgb(255,0,0)" stroke-width="5" stroke="rgb(0,0,0)" />
	<path d="M4355,4612 4655,4612 4655,4952 4355,4952 4355,4612 z " fill-rule="evenodd" fill="rgb(255,0,0)" stroke-width="5" stroke="rgb(0,0,0)" />
	<path d="M1937,1901 1637,1901 1637,1602 1937,1602 1937,1901 z " fill-rule="evenodd" fill="rgb(255,0,0)" stroke-width="5" stroke="rgb(0,0,0)" />
	<path d="M1637,2505 1937,2505 1937,2952 1637,2952 1637,2505 z " fill-rule="evenodd" fill="rgb(255,0,0)" stroke-width="5" stroke="rgb(0,0,0)" />
	<path d="M1937,3707 1637,3707 1637,3152 1937,3152 1937,3707 z " fill-rule="evenodd" fill="rgb(255,0,0)" stroke-width="5" stroke="rgb(0,0,0)" />
	<path d="M2845,4911 2845,4311 2900,4311 2900,4911 2845,4911 z " fill-rule="evenodd" fill="rgb(255,0,0)" stroke-width="5" stroke="rgb(0,0,0)" />
	<path d="M3749,4913 3749,4952 3700,4952 3700,4913 3749,4913 z " fill-rule="evenodd" fill="rgb(255,0,0)" stroke-width="5" stroke="rgb(0,0,0)" />
	<path d="M4957,1299 4657,1299 4657,1118.01 4957,1239.82 4957,1299 z " fill-rule="evenodd" fill="rgb(255,0,0)" stroke-width="5" stroke="rgb(0,0,0)" />
	<path d="M4657,3105 4657,2505 4957,2505 4957,2952 4900,2952 4900,3052 4950,3052 4950,3105 4657,3105 z " fill-rule="evenodd" fill="rgb(255,0,0)" stroke-width="5" stroke="rgb(0,0,0)" />
	<path d="M4657,3707 4657,3107 4950,3107 4950,3707 4657,3707 z " fill-rule="evenodd" fill="rgb(255,0,0)" stroke-width="5" stroke="rgb(0,0,0)" />
	<path d="M4657,4309 4657,3709 4950,3709 4950,4309 4657,4309 z " fill-rule="evenodd" fill="rgb(255,0,0)" stroke-width="5" stroke="rgb(0,0,0)" />
	<path d="M4657,4911 4657,4311 4950,4311 4950,4911 4657,4911 z " fill-rule="evenodd" fill="rgb(255,0,0)" stroke-width="5" stroke="rgb(0,0,0)" />
	<path d="M4657,4913 4950,4913 4950,4952 4657,4952 4657,4913 z " fill-rule="evenodd" fill="rgb(255,0,0)" stroke-width="5" stroke="rgb(0,0,0)" />
	<path d="M1335,1600 1335,1502 1400,1502 1400,1600 1335,1600 z " fill-rule="evenodd" fill="rgb(255,0,0)" stroke-width="5" stroke="rgb(0,0,0)" />
	<path d="M1335,2806 1635,2806 1635,2952 1335,2952 1335,2806 z " fill-rule="evenodd" fill="rgb(255,0,0)" stroke-width="5" stroke="rgb(0,0,0)" />
	<path d="M1635,3406 1335,3406 1335,3152 1635,3152 1635,3406 z " fill-rule="evenodd" fill="rgb(255,0,0)" stroke-width="5" stroke="rgb(0,0,0)" />
	<path d="M2845,5513 2845,4913 2900,4913 2900,5513 2845,5513 z " fill-rule="evenodd" fill="rgb(255,0,0)" stroke-width="5" stroke="rgb(0,0,0)" />
	<path d="M5259,1600 4959,1600 4959,1240.63 5259,1362.44 5259,1600 z " fill-rule="evenodd" fill="rgb(255,0,0)" stroke-width="5" stroke="rgb(0,0,0)" />
	<path d="M4959,2806 5259,2806 5259,3406 5050,3406 5050,2952 4959,2952 4959,2806 z " fill-rule="evenodd" fill="rgb(255,0,0)" stroke-width="5" stroke="rgb(0,0,0)" />
	<path d="M5259,3408 5259,4008 5050,4008 5050,3408 5259,3408 z " fill-rule="evenodd" fill="rgb(255,0,0)" stroke-width="5" stroke="rgb(0,0,0)" />
	<path d="M5259,4010 5259,4610 5050,4610 5050,4010 5259,4010 z " fill-rule="evenodd" fill="rgb(255,0,0)" stroke-width="5" stroke="rgb(0,0,0)" />
	<path d="M5259,4612 5259,5212 5050,5212 5050,4612 5259,4612 z " fill-rule="evenodd" fill="rgb(255,0,0)" stroke-width="5" stroke="rgb(0,0,0)" />
	<path d="M5259,5214 5259,5552 5050,5552 5050,5214 5259,5214 z " fill-rule="evenodd" fill="rgb(255,0,0)" stroke-width="5" stroke="rgb(0,0,0)" />
	<path d="M1333,1901 1033,1901 1033,1502 1333,1502 1333,1901 z " fill-rule="evenodd" fill="rgb(255,0,0)" stroke-width="5" stroke="rgb(0,0,0)" />
	<path d="M1033,2505 1333,2505 1333,2952 1033,2952 1033,2505 z " fill-rule="evenodd" fill="rgb(255,0,0)" stroke-width="5" stroke="rgb(0,0,0)" />
	<path d="M1333,3707 1033,3707 1033,3152 1333,3152 1333,3707 z " fill-rule="evenodd" fill="rgb(255,0,0)" stroke-width="5" stroke="rgb(0,0,0)" />
	<path d="M2845,6115 2845,5515 2900,5515 2900,6052 3100,6052 3100,6115 2845,6115 z " fill-rule="evenodd" fill="rgb(255,0,0)" stroke-width="5" stroke="rgb(0,0,0)" />
	<path d="M5561,1901 5261,1901 5261,1363.25 5561,1485.06 5561,1901 z " fill-rule="evenodd" fill="rgb(255,0,0)" stroke-width="5" stroke="rgb(0,0,0)" />
	<path d="M5261,5515 5561,5515 5561,5552 5261,5552 5261,5515 z " fill-rule="evenodd" fill="rgb(255,0,0)" stroke-width="5" stroke="rgb(0,0,0)" />
	<path d="M1031,1600 731,1600 731,1502 1031,1502 1031,1600 z " fill-rule="evenodd" fill="rgb(255,0,0)" stroke-width="5" stroke="rgb(0,0,0)" />
	<path d="M731,2806 1031,2806 1031,2952 731,2952 731,2806 z " fill-rule="evenodd" fill="rgb(255,0,0)" stroke-width="5" stroke="rgb(0,0,0)" />
	<path d="M1031,3406 731,3406 731,3152 1031,3152 1031,3406 z " fill-rule="evenodd" fill="rgb(255,0,0)" stroke-width="5" stroke="rgb(0,0,0)" />
	<path d="M2845,6717 2845,6117 3100,6117 3100,6717 2845,6717 z " fill-rule="evenodd" fill="rgb(255,0,0)" stroke-width="5" stroke="rgb(0,0,0)" />
	<path d="M5563,1600 5563,1485.87 5844.08,1600 5563,1600 z " fill-rule="evenodd" fill="rgb(255,0,0)" stroke-width="5" stroke="rgb(0,0,0)" />
	<path d="M5863,2202 5563,2202 5563,1602 5849,1602 5863,1607.68 5863,2202 z " fill-rule="evenodd" fill="rgb(255,0,0)" stroke-width="5" stroke="rgb(0,0,0)" />
	<path d="M5563,5214 5863,5214 5863,5552 5563,5552 5563,5214 z " fill-rule="evenodd" fill="rgb(255,0,0)" stroke-width="5" stroke="rgb(0,0,0)" />
	<path d="M729,1901 429,1901 429,1602 700,1602 700,1502 729,1502 729,1901 z " fill-rule="evenodd" fill="rgb(255,0,0)" stroke-width="5" stroke="rgb(0,0,0)" />
	<path d="M429,2505 729,2505 729,2952 429,2952 429,2505 z " fill-rule="evenodd" fill="rgb(255,0,0)" stroke-width="5" stroke="rgb(0,0,0)" />
	<path d="M729,3707 429,3707 429,3152 729,3152 729,3707 z " fill-rule="evenodd" fill="rgb(255,0,0)" stroke-width="5" stroke="rgb(0,0,0)" />
	<path d="M2543,6418 2843,6418 2843,6952 2543,6952 2543,6418 z " fill-rule="evenodd" fill="rgb(255,0,0)" stroke-width="5" stroke="rgb(0,0,0)" />
	<path d="M2845,6719 3100,6719 3100,6852 2900,6852 2900,6952 2845,6952 2845,6719 z " fill-rule="evenodd" fill="rgb(255,0,0)" stroke-width="5" stroke="rgb(0,0,0)" />
	<path d="M6165,1901 5865,1901 5865,1608.5 6165,1730.31 6165,1901 z " fill-rule="evenodd" fill="rgb(255,0,0)" stroke-width="5" stroke="rgb(0,0,0)" />
	<path d="M5865,5515 6165,5515 6165,5552 5865,5552 5865,5515 z " fill-rule="evenodd" fill="rgb(255,0,0)" stroke-width="5" stroke="rgb(0,0,0)" />
	<path d="M127,2806 427,2806 427,2952 127,2952 127,2806 z " fill-rule="evenodd" fill="rgb(255,0,0)" stroke-width="5" stroke="rgb(0,0,0)" />
	<path d="M427,3406 127,3406 127,3152 427,3152 427,3406 z " fill-rule="evenodd" fill="rgb(255,0,0)" stroke-width="5" stroke="rgb(0,0,0)" />
	<path d="M1939,6418 2239,6418 2239,6952 1939,6952 1939,6418 z " fill-rule="evenodd" fill="rgb(255,0,0)" stroke-width="5" stroke="rgb(0,0,0)" />
	<path d="M2241,6719 2541,6719 2541,6952 2241,6952 2241,6719 z " fill-rule="evenodd" fill="rgb(255,0,0)" stroke-width="5" stroke="rgb(0,0,0)" />
	<path d="M6467,2202 6167,2202 6167,1731.12 6467,1852.93 6467,2202 z " fill-rule="evenodd" fill="rgb(255,0,0)" stroke-width="5" stroke="rgb(0,0,0)" />
	<path d="M6167,5214 6467,5214 6467,5552 6167,5552 6167,5214 z " fill-rule="evenodd" fill="rgb(255,0,0)" stroke-width="5" stroke="rgb(0,0,0)" />
	<path d="M125,1901 100,1901 100,1602 125,1602 125,1901 z " fill-rule="evenodd" fill="rgb(255,0,0)" stroke-width="5" stroke="rgb(0,0,0)" />
	<path d="M125,1903 125,2503 100,2503 100,1903 125,1903 z " fill-rule="evenodd" fill="rgb(255,0,0)" stroke-width="5" stroke="rgb(0,0,0)" />
	<path d="M125,2505 125,2952 100,2952 100,2505 125,2505 z " fill-rule="evenodd" fill="rgb(255,0,0)" stroke-width="5" stroke="rgb(0,0,0)" />
	<path d="M125,3707 100,3707 100,3152 125,3152 125,3707 z " fill-rule="evenodd" fill="rgb(255,0,0)" stroke-width="5" stroke="rgb(0,0,0)" />
	<path d="M125,3709 125,4309 100,4309 100,3709 125,3709 z " fill-rule="evenodd" fill="rgb(255,0,0)" stroke-width="5" stroke="rgb(0,0,0)" />
	<path d="M125,4311 125,4911 100,4911 100,4311 125,4311 z " fill-rule="evenodd" fill="rgb(255,0,0)" stroke-width="5" stroke="rgb(0,0,0)" />
	<path d="M125,4913 125,5513 100,5513 100,4913 125,4913 z " fill-rule="evenodd" fill="rgb(255,0,0)" stroke-width="5" stroke="rgb(0,0,0)" />
	<path d="M1335,6418 1635,6418 1635,6952 1335,6952 1335,6418 z " fill-rule="evenodd" fill="rgb(255,0,0)" stroke-width="5" stroke="rgb(0,0,0)" />
	<path d="M1637,6719 1937,6719 1937,6952 1637,6952 1637,6719 z " fill-rule="evenodd" fill="rgb(255,0,0)" stroke-width="5" stroke="rgb(0,0,0)" />
	<path d="M6469,1901 6469,1853.74 6585.39,1901 6469,1901 z " fill-rule="evenodd" fill="rgb(255,0,0)" stroke-width="5" stroke="rgb(0,0,0)" />
	<path d="M6769,2503 6469,2503 6469,1903 6590.32,1903 6769,1975.55 6769,2503 z " fill-rule="evenodd" fill="rgb(255,0,0)" stroke-width="5" stroke="rgb(0,0,0)" />
	<path d="M6469,5515 6769,5515 6769,5552 6469,5552 6469,5515 z " fill-rule="evenodd" fill="rgb(255,0,0)" stroke-width="5" stroke="rgb(0,0,0)" />
	<path d="M125,5515 125,6115 100,6115 100,5515 125,5515 z " fill-rule="evenodd" fill="rgb(255,0,0)" stroke-width="5" stroke="rgb(0,0,0)" />
	<path d="M731,6418 1031,6418 1031,6952 731,6952 731,6418 z " fill-rule="evenodd" fill="rgb(255,0,0)" stroke-width="5" stroke="rgb(0,0,0)" />
	<path d="M1033,6719 1333,6719 1333,6952 1033,6952 1033,6719 z " fill-rule="evenodd" fill="rgb(255,0,0)" stroke-width="5" stroke="rgb(0,0,0)" />
	<path d="M7071,2202 6771,2202 6771,1976.36 7071,2098.17 7071,2202 z " fill-rule="evenodd" fill="rgb(255,0,0)" stroke-width="5" stroke="rgb(0,0,0)" />
	<path d="M6771,5214 7071,5214 7071,5552 6771,5552 6771,5214 z " fill-rule="evenodd" fill="rgb(255,0,0)" stroke-width="5" stroke="rgb(0,0,0)" />
	<path d="M125,6117 125,6717 100,6717 100,6117 125,6117 z " fill-rule="evenodd" fill="rgb(255,0,0)" stroke-width="5" stroke="rgb(0,0,0)" />
	<path d="M127,6418 427,6418 427,6952 127,6952 127,6418 z " fill-rule="evenodd" fill="rgb(255,0,0)" stroke-width="5" stroke="rgb(0,0,0)" />
	<path d="M429,6719 729,6719 729,6952 429,6952 429,6719 z " fill-rule="evenodd" fill="rgb(255,0,0)" stroke-width="5" stroke="rgb(0,0,0)" />
	<path d="M7373,2503 7073,2503 7073,2098.99 7373,2220.8 7373,2503 z " fill-rule="evenodd" fill="rgb(255,0,0)" stroke-width="5" stroke="rgb(0,0,0)" />
	<path d="M7073,5515 7373,5515 7373,5552 7073,5552 7073,5515 z " fill-rule="evenodd" fill="rgb(255,0,0)" stroke-width="5" stroke="rgb(0,0,0)" />
	<path d="M125,6719 125,6952 100,6952 100,6719 125,6719 z " fill-rule="evenodd" fill="rgb(255,0,0)" stroke-width="5" stroke="rgb(0,0,0)" />
	<path d="M7675,2804 7375,2804 7375,2221.61 7675,2343.42 7675,2804 z " fill-rule="evenodd" fill="rgb(255,0,0)" stroke-width="5" stroke="rgb(0,0,0)" />
	<path d="M7375,5214 7675,5214 7675,5552 7375,5552 7375,5214 z " fill-rule="evenodd" fill="rgb(255,0,0)" stroke-width="5" stroke="rgb(0,0,0)" />
	<path d="M7977,2503 7677,2503 7677,2344.23 7977,2466.04 7977,2503 z " fill-rule="evenodd" fill="rgb(255,0,0)" stroke-width="5" stroke="rgb(0,0,0)" />
	<path d="M7677,5515 7977,5515 7977,5552 7677,5552 7677,5515 z " fill-rule="evenodd" fill="rgb(255,0,0)" stroke-width="5" stroke="rgb(0,0,0)" />
	<path d="M8279,2804 7979,2804 7979,2466.85 8279,2588.66 8279,2804 z " fill-rule="evenodd" fill="rgb(255,0,0)" stroke-width="5" stroke="rgb(0,0,0)" />
	<path d="M7979,5214 8279,5214 8279,5552 7979,5552 7979,5214 z " fill-rule="evenodd" fill="rgb(255,0,0)" stroke-width="5" stroke="rgb(0,0,0)" />
	<path d="M8581,3105 8281,3105 8281,2589.48 8581,2711.29 8581,3105 z " fill-rule="evenodd" fill="rgb(255,0,0)" stroke-width="5" stroke="rgb(0,0,0)" />
	<path d="M8281,5515 8581,5515 8581,5552 8281,5552 8281,5515 z " fill-rule="evenodd" fill="rgb(255,0,0)" stroke-width="5" stroke="rgb(0,0,0)" />
	<path d="M8583,2804 8583,2712.1 8600,2719 8600,2804 8583,2804 z " fill-rule="evenodd" fill="rgb(255,0,0)" stroke-width="5" stroke="rgb(0,0,0)" />
	<path d="M8583,3406 8583,2806 8600,2806 8600,3406 8583,3406 z " fill-rule="evenodd" fill="rgb(255,0,0)" stroke-width="5" stroke="rgb(0,0,0)" />
	<path d="M8583,4008 8583,3408 8600,3408 8600,4008 8583,4008 z " fill-rule="evenodd" fill="rgb(255,0,0)" stroke-width="5" stroke="rgb(0,0,0)" />
	<path d="M8583,4610 8583,4010 8600,4010 8600,4610 8583,4610 z " fill-rule="evenodd" fill="rgb(255,0,0)" stroke-width="5" stroke="rgb(0,0,0)" />
	<path d="M8583,5212 8583,4612 8600,4612 8600,5212 8583,5212 z " fill-rule="evenodd" fill="rgb(255,0,0)" stroke-width="5" stroke="rgb(0,0,0)" />
	<path d="M8583,5214 8600,5214 8600,5552 8583,5552 8583,5214 z " fill-rule="evenodd" fill="rgb(255,0,0)" stroke-width="5" stroke="rgb(0,0,0)" />
	<polyline points="3142,1607 3142,2207 3142,1607 3742,1607 3142,1607 " fill="none" stroke-width="100" stroke="rgb(0,0,0)" />
	<circle cx="3142" cy="1607" r="-10" fill="rgb(0,0,0)" />
	<circle cx="3142" cy="2207" r="-10" fill="rgb(0,0,0)" />
	<circle cx="3142" cy="1607" r="-10" fill="rgb(0,0,0)" />
	<circle cx="3742" cy="1607" r="-10" fill="rgb(0,0,0)" />
	<circle cx="3142" cy="1607" r="-10" fill="rgb(0,0,0)" />
	<polyline points="3142,2267 3142,1607 2482,1607 " fill="none" stroke-width="0.5" stroke="rgb(128,0,128)" />
</svg>
