<?xml version="1.0" standalone="no" ?>
<!DOCTYPE svg PUBLIC "-//W3C//DTD SVG 1.1//EN" "http://www.w3.org/Graphics/SVG/1.1/DTD/svg11.dtd">
<svg width="8700px" height="7052px" xmlns="http://www.w3.org/2000/svg" version="1.1" >
	<path d="M4002,3955 4002,3355 3702,3355 3702,3955 4002,3955 z " fill-rule="evenodd" fill="rgb(0,128,0)" stroke-width="5" stroke="rgb(0,0,0)" />
	<path d="M4002,2751 4002,2151 3702,2151 3702,2751 4002,2751 z " fill-rule="evenodd" fill="rgb(0,128,0)" stroke-width="5" stroke="rgb(0,0,0)" />
	<path d="M3700,2450 3700,1850 3400,1850 3400,2450 3700,2450 z " fill-rule="evenodd" fill="rgb(0,128,0)" stroke-width="5" stroke="rgb(0,0,0)" />
	<path d="M3398,2751 3398,2151 3098,2151 3098,2751 3398,2751 z " fill-rule="evenodd" fill="rgb(0,128,0)" stroke-width="5" stroke="rgb(0,0,0)" />
	<path d="M4304,4858 4304,4258 4004,4258 4004,4858 4304,4858 z " fill-rule="evenodd" fill="rgb(0,128,0)" stroke-width="5" stroke="rgb(0,0,0)" />
	<path d="M4304,4256 4304,3656 4004,3656 4004,4256 4304,4256 z " fill-rule="evenodd" fill="rgb(0,128,0)" stroke-width="5" stroke="rgb(0,0,0)" />
	<path d="M4304,3654 4304,3054 4004,3054 4004,3654 4304,3654 z " fill-rule="evenodd" fill="rgb(0,128,0)" stroke-width="5" stroke="rgb(0,0,0)" />
	<path d="M4002,4557 4002,3957 3702,3957 3702,4557 4002,4557 z " fill-rule="evenodd" fill="rgb(0,128,0)" stroke-width="5" stroke="rgb(0,0,0)" />
	<path d="M4304,2450 4304,1850 4004,1850 4004,2450 4304,2450 z " fill-rule="evenodd" fill="rgb(0,128,0)" stroke-width="5" stroke="rgb(0,0,0)" />
	<path d="M4002,2149 4002,1549 3702,1549 3702,2149 4002,2149 z " fill-rule="evenodd" fill="rgb(0,128,0)" stroke-width="5" stroke="rgb(0,0,0)" />
	<path d="M3700,1848 3700,1248 3400,1248 3400,1848 3700,1848 z " fill-rule="evenodd" fill="rgb(0,128,0)" stroke-width="5" stroke="rgb(0,0,0)" />
	<path d="M3096,2450 3096,1850 2796,1850 2796,2450 3096,2450 z " fill-rule="evenodd" fill="rgb(0,128,0)" stroke-width="5" stroke="rgb(0,0,0)" />
	<path d="M3096,1246 3096,646 2796,646 2796,1246 3096,1246 z " fill-rule="evenodd" fill="rgb(0,128,0)" stroke-width="5" stroke="rgb(0,0,0)" />
	<path d="M4606,4557 4606,3957 4306,3957 4306,4557 4606,4557 z " fill-rule="evenodd" fill="rgb(0,128,0)" stroke-width="5" stroke="rgb(0,0,0)" />
	<path d="M4606,3955 4606,3355 4306,3355 4306,3955 4606,3955 z " fill-rule="evenodd" fill="rgb(0,128,0)" stroke-width="5" stroke="rgb(0,0,0)" />
	<path d="M4606,3353 4606,2753 4306,2753 4306,3353 4606,3353 z " fill-rule="evenodd" fill="rgb(0,128,0)" stroke-width="5" stroke="rgb(0,0,0)" />
	<path d="M4606,2751 4606,2151 4306,2151 4306,2751 4606,2751 z " fill-rule="evenodd" fill="rgb(0,128,0)" stroke-width="5" stroke="rgb(0,0,0)" />
	<path d="M4606,2149 4606,1549 4306,1549 4306,2149 4606,2149 z " fill-rule="evenodd" fill="rgb(0,128,0)" stroke-width="5" stroke="rgb(0,0,0)" />
	<path d="M4304,1848 4304,1248 4004,1248 4004,1848 4304,1848 z " fill-rule="evenodd" fill="rgb(0,128,0)" stroke-width="5" stroke="rgb(0,0,0)" />
	<path d="M4002,1547 4002,947 3702,947 3702,1547 4002,1547 z " fill-rule="evenodd" fill="rgb(0,128,0)" stroke-width="5" stroke="rgb(0,0,0)" />
	<path d="M2794,3955 2794,3355 2494,3355 2494,3955 2794,3955 z " fill-rule="evenodd" fill="rgb(0,128,0)" stroke-width="5" stroke="rgb(0,0,0)" />
	<path d="M2794,3353 2794,2753 2494,2753 2494,3353 2794,3353 z " fill-rule="evenodd" fill="rgb(0,128,0)" stroke-width="5" stroke="rgb(0,0,0)" />
	<path d="M2794,2751 2794,2151 2494,2151 2494,2751 2794,2751 z " fill-rule="evenodd" fill="rgb(0,128,0)" stroke-width="5" stroke="rgb(0,0,0)" />
	<path d="M2794,2149 2794,1549 2494,1549 2494,2149 2794,2149 z " fill-rule="evenodd" fill="rgb(0,128,0)" stroke-width="5" stroke="rgb(0,0,0)" />
	<path d="M2794,1547 2794,947 2494,947 2494,1547 2794,1547 z " fill-rule="evenodd" fill="rgb(0,128,0)" stroke-width="5" stroke="rgb(0,0,0)" />
	<path d="M4908,4858 4908,4258 4608,4258 4608,4858 4908,4858 z " fill-rule="evenodd" fill="rgb(0,128,0)" stroke-width="5" stroke="rgb(0,0,0)" />
	<path d="M4908,4256 4908,3656 4608,3656 4608,4256 4908,4256 z " fill-rule="evenodd" fill="rgb(0,128,0)" stroke-width="5" stroke="rgb(0,0,0)" />
	<path d="M4908,3654 4908,3054 4608,3054 4608,3654 4908,3654 z " fill-rule="evenodd" fill="rgb(0,128,0)" stroke-width="5" stroke="rgb(0,0,0)" />
	<path d="M4908,2450 4908,1850 4608,1850 4608,2450 4908,2450 z " fill-rule="evenodd" fill="rgb(0,128,0)" stroke-width="5" stroke="rgb(0,0,0)" />
	<path d="M4908,1848 4908,1248 4608,1248 4608,1848 4908,1848 z " fill-rule="evenodd" fill="rgb(0,128,0)" stroke-width="5" stroke="rgb(0,0,0)" />
	<path d="M2794,4557 2794,3957 2494,3957 2494,4557 2794,4557 z " fill-rule="evenodd" fill="rgb(0,128,0)" stroke-width="5" stroke="rgb(0,0,0)" />
	<path d="M2492,4256 2492,3656 2192,3656 2192,4256 2492,4256 z " fill-rule="evenodd" fill="rgb(0,128,0)" stroke-width="5" stroke="rgb(0,0,0)" />
	<path d="M2492,3654 2492,3054 2192,3054 2192,3654 2492,3654 z " fill-rule="evenodd" fill="rgb(0,128,0)" stroke-width="5" stroke="rgb(0,0,0)" />
	<path d="M2492,3052 2492,2452 2192,2452 2192,3052 2492,3052 z " fill-rule="evenodd" fill="rgb(0,128,0)" stroke-width="5" stroke="rgb(0,0,0)" />
	<path d="M2492,2450 2492,1850 2192,1850 2192,2450 2492,2450 z " fill-rule="evenodd" fill="rgb(0,128,0)" stroke-width="5" stroke="rgb(0,0,0)" />
	<path d="M2492,1848 2492,1248 2192,1248 2192,1848 2492,1848 z " fill-rule="evenodd" fill="rgb(0,128,0)" stroke-width="5" stroke="rgb(0,0,0)" />
	<path d="M2492,1246 2492,646 2192,646 2192,1246 2492,1246 z " fill-rule="evenodd" fill="rgb(0,128,0)" stroke-width="5" stroke="rgb(0,0,0)" />
	<path d="M5210,2751 5210,2151 4910,2151 4910,2751 5210,2751 z " fill-rule="evenodd" fill="rgb(0,128,0)" stroke-width="5" stroke="rgb(0,0,0)" />
	<path d="M5210,2149 5210,1549 4910,1549 4910,2149 5210,2149 z " fill-rule="evenodd" fill="rgb(0,128,0)" stroke-width="5" stroke="rgb(0,0,0)" />
	<path d="M2794,5159 2794,4559 2494,4559 2494,5159 2794,5159 z " fill-rule="evenodd" fill="rgb(0,128,0)" stroke-width="5" stroke="rgb(0,0,0)" />
	<path d="M2492,4858 2492,4258 2192,4258 2192,4858 2492,4858 z " fill-rule="evenodd" fill="rgb(0,128,0)" stroke-width="5" stroke="rgb(0,0,0)" />
	<path d="M2190,4557 2190,3957 1890,3957 1890,4557 2190,4557 z " fill-rule="evenodd" fill="rgb(0,128,0)" stroke-width="5" stroke="rgb(0,0,0)" />
	<path d="M2190,3955 2190,3355 1890,3355 1890,3955 2190,3955 z " fill-rule="evenodd" fill="rgb(0,128,0)" stroke-width="5" stroke="rgb(0,0,0)" />
	<path d="M2190,2751 2190,2151 1890,2151 1890,2751 2190,2751 z " fill-rule="evenodd" fill="rgb(0,128,0)" stroke-width="5" stroke="rgb(0,0,0)" />
	<path d="M5512,5460 5512,4860 5212,4860 5212,5460 5512,5460 z " fill-rule="evenodd" fill="rgb(0,128,0)" stroke-width="5" stroke="rgb(0,0,0)" />
	<path d="M5512,4858 5512,4258 5212,4258 5212,4858 5512,4858 z " fill-rule="evenodd" fill="rgb(0,128,0)" stroke-width="5" stroke="rgb(0,0,0)" />
	<path d="M5512,4256 5512,3656 5212,3656 5212,4256 5512,4256 z " fill-rule="evenodd" fill="rgb(0,128,0)" stroke-width="5" stroke="rgb(0,0,0)" />
	<path d="M5512,3654 5512,3054 5212,3054 5212,3654 5512,3654 z " fill-rule="evenodd" fill="rgb(0,128,0)" stroke-width="5" stroke="rgb(0,0,0)" />
	<path d="M5512,3052 5512,2452 5212,2452 5212,3052 5512,3052 z " fill-rule="evenodd" fill="rgb(0,128,0)" stroke-width="5" stroke="rgb(0,0,0)" />
	<path d="M5512,2450 5512,1850 5212,1850 5212,2450 5512,2450 z " fill-rule="evenodd" fill="rgb(0,128,0)" stroke-width="5" stroke="rgb(0,0,0)" />
	<path d="M2794,5761 2794,5161 2494,5161 2494,5761 2794,5761 z " fill-rule="evenodd" fill="rgb(0,128,0)" stroke-width="5" stroke="rgb(0,0,0)" />
	<path d="M2492,5460 2492,4860 2192,4860 2192,5460 2492,5460 z " fill-rule="evenodd" fill="rgb(0,128,0)" stroke-width="5" stroke="rgb(0,0,0)" />
	<path d="M2190,5159 2190,4559 1890,4559 1890,5159 2190,5159 z " fill-rule="evenodd" fill="rgb(0,128,0)" stroke-width="5" stroke="rgb(0,0,0)" />
	<path d="M1888,4858 1888,4258 1588,4258 1588,4858 1888,4858 z " fill-rule="evenodd" fill="rgb(0,128,0)" stroke-width="5" stroke="rgb(0,0,0)" />
	<path d="M1888,4256 1888,3656 1588,3656 1588,4256 1888,4256 z " fill-rule="evenodd" fill="rgb(0,128,0)" stroke-width="5" stroke="rgb(0,0,0)" />
	<path d="M1888,2450 1888,1850 1588,1850 1588,2450 1888,2450 z " fill-rule="evenodd" fill="rgb(0,128,0)" stroke-width="5" stroke="rgb(0,0,0)" />
	<path d="M5814,5159 5814,4559 5514,4559 5514,5159 5814,5159 z " fill-rule="evenodd" fill="rgb(0,128,0)" stroke-width="5" stroke="rgb(0,0,0)" />
	<path d="M5814,4557 5814,3957 5514,3957 5514,4557 5814,4557 z " fill-rule="evenodd" fill="rgb(0,128,0)" stroke-width="5" stroke="rgb(0,0,0)" />
	<path d="M5814,3955 5814,3355 5514,3355 5514,3955 5814,3955 z " fill-rule="evenodd" fill="rgb(0,128,0)" stroke-width="5" stroke="rgb(0,0,0)" />
	<path d="M5814,3353 5814,2753 5514,2753 5514,3353 5814,3353 z " fill-rule="evenodd" fill="rgb(0,128,0)" stroke-width="5" stroke="rgb(0,0,0)" />
	<path d="M5814,2751 5814,2151 5514,2151 5514,2751 5814,2751 z " fill-rule="evenodd" fill="rgb(0,128,0)" stroke-width="5" stroke="rgb(0,0,0)" />
	<path d="M3096,6664 3096,6064 2796,6064 2796,6664 3096,6664 z " fill-rule="evenodd" fill="rgb(0,128,0)" stroke-width="5" stroke="rgb(0,0,0)" />
	<path d="M2794,6363 2794,5763 2494,5763 2494,6363 2794,6363 z " fill-rule="evenodd" fill="rgb(0,128,0)" stroke-width="5" stroke="rgb(0,0,0)" />
	<path d="M2492,6062 2492,5462 2192,5462 2192,6062 2492,6062 z " fill-rule="evenodd" fill="rgb(0,128,0)" stroke-width="5" stroke="rgb(0,0,0)" />
	<path d="M2190,5761 2190,5161 1890,5161 1890,5761 2190,5761 z " fill-rule="evenodd" fill="rgb(0,128,0)" stroke-width="5" stroke="rgb(0,0,0)" />
	<path d="M1888,5460 1888,4860 1588,4860 1588,5460 1888,5460 z " fill-rule="evenodd" fill="rgb(0,128,0)" stroke-width="5" stroke="rgb(0,0,0)" />
	<path d="M1586,5159 1586,4559 1286,4559 1286,5159 1586,5159 z " fill-rule="evenodd" fill="rgb(0,128,0)" stroke-width="5" stroke="rgb(0,0,0)" />
	<path d="M1586,4557 1586,3957 1286,3957 1286,4557 1586,4557 z " fill-rule="evenodd" fill="rgb(0,128,0)" stroke-width="5" stroke="rgb(0,0,0)" />
	<path d="M1586,3955 1586,3355 1286,3355 1286,3955 1586,3955 z " fill-rule="evenodd" fill="rgb(0,128,0)" stroke-width="5" stroke="rgb(0,0,0)" />
	<path d="M1586,2751 1586,2151 1286,2151 1286,2751 1586,2751 z " fill-rule="evenodd" fill="rgb(0,128,0)" stroke-width="5" stroke="rgb(0,0,0)" />
	<path d="M6116,5460 6116,4860 5816,4860 5816,5460 6116,5460 z " fill-rule="evenodd" fill="rgb(0,128,0)" stroke-width="5" stroke="rgb(0,0,0)" />
	<path d="M6116,4858 6116,4258 5816,4258 5816,4858 6116,4858 z " fill-rule="evenodd" fill="rgb(0,128,0)" stroke-width="5" stroke="rgb(0,0,0)" />
	<path d="M6116,4256 6116,3656 5816,3656 5816,4256 6116,4256 z " fill-rule="evenodd" fill="rgb(0,128,0)" stroke-width="5" stroke="rgb(0,0,0)" />
	<path d="M6116,3654 6116,3054 5816,3054 5816,3654 6116,3654 z " fill-rule="evenodd" fill="rgb(0,128,0)" stroke-width="5" stroke="rgb(0,0,0)" />
	<path d="M6116,3052 6116,2452 5816,2452 5816,3052 6116,3052 z " fill-rule="evenodd" fill="rgb(0,128,0)" stroke-width="5" stroke="rgb(0,0,0)" />
	<path d="M6116,2450 6116,1850 5816,1850 5816,2450 6116,2450 z " fill-rule="evenodd" fill="rgb(0,128,0)" stroke-width="5" stroke="rgb(0,0,0)" />
	<path d="M2492,6664 2492,6064 2192,6064 2192,6664 2492,6664 z " fill-rule="evenodd" fill="rgb(0,128,0)" stroke-width="5" stroke="rgb(0,0,0)" />
	<path d="M2190,6363 2190,5763 1890,5763 1890,6363 2190,6363 z " fill-rule="evenodd" fill="rgb(0,128,0)" stroke-width="5" stroke="rgb(0,0,0)" />
	<path d="M1888,6062 1888,5462 1588,5462 1588,6062 1888,6062 z " fill-rule="evenodd" fill="rgb(0,128,0)" stroke-width="5" stroke="rgb(0,0,0)" />
	<path d="M1586,5761 1586,5161 1286,5161 1286,5761 1586,5761 z " fill-rule="evenodd" fill="rgb(0,128,0)" stroke-width="5" stroke="rgb(0,0,0)" />
	<path d="M1284,5460 1284,4860 984,4860 984,5460 1284,5460 z " fill-rule="evenodd" fill="rgb(0,128,0)" stroke-width="5" stroke="rgb(0,0,0)" />
	<path d="M1284,4858 1284,4258 984,4258 984,4858 1284,4858 z " fill-rule="evenodd" fill="rgb(0,128,0)" stroke-width="5" stroke="rgb(0,0,0)" />
	<path d="M1284,4256 1284,3656 984,3656 984,4256 1284,4256 z " fill-rule="evenodd" fill="rgb(0,128,0)" stroke-width="5" stroke="rgb(0,0,0)" />
	<path d="M1284,2450 1284,1850 984,1850 984,2450 1284,2450 z " fill-rule="evenodd" fill="rgb(0,128,0)" stroke-width="5" stroke="rgb(0,0,0)" />
	<path d="M6418,5159 6418,4559 6118,4559 6118,5159 6418,5159 z " fill-rule="evenodd" fill="rgb(0,128,0)" stroke-width="5" stroke="rgb(0,0,0)" />
	<path d="M6418,4557 6418,3957 6118,3957 6118,4557 6418,4557 z " fill-rule="evenodd" fill="rgb(0,128,0)" stroke-width="5" stroke="rgb(0,0,0)" />
	<path d="M6418,3955 6418,3355 6118,3355 6118,3955 6418,3955 z " fill-rule="evenodd" fill="rgb(0,128,0)" stroke-width="5" stroke="rgb(0,0,0)" />
	<path d="M6418,3353 6418,2753 6118,2753 6118,3353 6418,3353 z " fill-rule="evenodd" fill="rgb(0,128,0)" stroke-width="5" stroke="rgb(0,0,0)" />
	<path d="M6418,2751 6418,2151 6118,2151 6118,2751 6418,2751 z " fill-rule="evenodd" fill="rgb(0,128,0)" stroke-width="5" stroke="rgb(0,0,0)" />
	<path d="M1888,6664 1888,6064 1588,6064 1588,6664 1888,6664 z " fill-rule="evenodd" fill="rgb(0,128,0)" stroke-width="5" stroke="rgb(0,0,0)" />
	<path d="M1586,6363 1586,5763 1286,5763 1286,6363 1586,6363 z " fill-rule="evenodd" fill="rgb(0,128,0)" stroke-width="5" stroke="rgb(0,0,0)" />
	<path d="M1284,6062 1284,5462 984,5462 984,6062 1284,6062 z " fill-rule="evenodd" fill="rgb(0,128,0)" stroke-width="5" stroke="rgb(0,0,0)" />
	<path d="M982,5761 982,5161 682,5161 682,5761 982,5761 z " fill-rule="evenodd" fill="rgb(0,128,0)" stroke-width="5" stroke="rgb(0,0,0)" />
	<path d="M982,5159 982,4559 682,4559 682,5159 982,5159 z " fill-rule="evenodd" fill="rgb(0,128,0)" stroke-width="5" stroke="rgb(0,0,0)" />
	<path d="M982,4557 982,3957 682,3957 682,4557 982,4557 z " fill-rule="evenodd" fill="rgb(0,128,0)" stroke-width="5" stroke="rgb(0,0,0)" />
	<path d="M982,3955 982,3355 682,3355 682,3955 982,3955 z " fill-rule="evenodd" fill="rgb(0,128,0)" stroke-width="5" stroke="rgb(0,0,0)" />
	<path d="M982,2751 982,2151 682,2151 682,2751 982,2751 z " fill-rule="evenodd" fill="rgb(0,128,0)" stroke-width="5" stroke="rgb(0,0,0)" />
	<path d="M6720,5460 6720,4860 6420,4860 6420,5460 6720,5460 z " fill-rule="evenodd" fill="rgb(0,128,0)" stroke-width="5" stroke="rgb(0,0,0)" />
	<path d="M6720,4858 6720,4258 6420,4258 6420,4858 6720,4858 z " fill-rule="evenodd" fill="rgb(0,128,0)" stroke-width="5" stroke="rgb(0,0,0)" />
	<path d="M6720,4256 6720,3656 6420,3656 6420,4256 6720,4256 z " fill-rule="evenodd" fill="rgb(0,128,0)" stroke-width="5" stroke="rgb(0,0,0)" />
	<path d="M6720,3654 6720,3054 6420,3054 6420,3654 6720,3654 z " fill-rule="evenodd" fill="rgb(0,128,0)" stroke-width="5" stroke="rgb(0,0,0)" />
	<path d="M6720,3052 6720,2452 6420,2452 6420,3052 6720,3052 z " fill-rule="evenodd" fill="rgb(0,128,0)" stroke-width="5" stroke="rgb(0,0,0)" />
	<path d="M1284,6664 1284,6064 984,6064 984,6664 1284,6664 z " fill-rule="evenodd" fill="rgb(0,128,0)" stroke-width="5" stroke="rgb(0,0,0)" />
	<path d="M982,6363 982,5763 682,5763 682,6363 982,6363 z " fill-rule="evenodd" fill="rgb(0,128,0)" stroke-width="5" stroke="rgb(0,0,0)" />
	<path d="M680,6062 680,5462 380,5462 380,6062 680,6062 z " fill-rule="evenodd" fill="rgb(0,128,0)" stroke-width="5" stroke="rgb(0,0,0)" />
	<path d="M680,5460 680,4860 380,4860 380,5460 680,5460 z " fill-rule="evenodd" fill="rgb(0,128,0)" stroke-width="5" stroke="rgb(0,0,0)" />
	<path d="M680,4858 680,4258 380,4258 380,4858 680,4858 z " fill-rule="evenodd" fill="rgb(0,128,0)" stroke-width="5" stroke="rgb(0,0,0)" />
	<path d="M680,4256 680,3656 380,3656 380,4256 680,4256 z " fill-rule="evenodd" fill="rgb(0,128,0)" stroke-width="5" stroke="rgb(0,0,0)" />
	<path d="M680,2450 680,1850 380,1850 380,2450 680,2450 z " fill-rule="evenodd" fill="rgb(0,128,0)" stroke-width="5" stroke="rgb(0,0,0)" />
	<path d="M7022,5159 7022,4559 6722,4559 6722,5159 7022,5159 z " fill-rule="evenodd" fill="rgb(0,128,0)" stroke-width="5" stroke="rgb(0,0,0)" />
	<path d="M7022,4557 7022,3957 6722,3957 6722,4557 7022,4557 z " fill-rule="evenodd" fill="rgb(0,128,0)" stroke-width="5" stroke="rgb(0,0,0)" />
	<path d="M7022,3955 7022,3355 6722,3355 6722,3955 7022,3955 z " fill-rule="evenodd" fill="rgb(0,128,0)" stroke-width="5" stroke="rgb(0,0,0)" />
	<path d="M7022,3353 7022,2753 6722,2753 6722,3353 7022,3353 z " fill-rule="evenodd" fill="rgb(0,128,0)" stroke-width="5" stroke="rgb(0,0,0)" />
	<path d="M7022,2751 7022,2151 6722,2151 6722,2751 7022,2751 z " fill-rule="evenodd" fill="rgb(0,128,0)" stroke-width="5" stroke="rgb(0,0,0)" />
	<path d="M680,6664 680,6064 380,6064 380,6664 680,6664 z " fill-rule="evenodd" fill="rgb(0,128,0)" stroke-width="5" stroke="rgb(0,0,0)" />
	<path d="M7324,5460 7324,4860 7024,4860 7024,5460 7324,5460 z " fill-rule="evenodd" fill="rgb(0,128,0)" stroke-width="5" stroke="rgb(0,0,0)" />
	<path d="M7324,4858 7324,4258 7024,4258 7024,4858 7324,4858 z " fill-rule="evenodd" fill="rgb(0,128,0)" stroke-width="5" stroke="rgb(0,0,0)" />
	<path d="M7324,4256 7324,3656 7024,3656 7024,4256 7324,4256 z " fill-rule="evenodd" fill="rgb(0,128,0)" stroke-width="5" stroke="rgb(0,0,0)" />
	<path d="M7324,3654 7324,3054 7024,3054 7024,3654 7324,3654 z " fill-rule="evenodd" fill="rgb(0,128,0)" stroke-width="5" stroke="rgb(0,0,0)" />
	<path d="M7324,3052 7324,2452 7024,2452 7024,3052 7324,3052 z " fill-rule="evenodd" fill="rgb(0,128,0)" stroke-width="5" stroke="rgb(0,0,0)" />
	<path d="M7626,5159 7626,4559 7326,4559 7326,5159 7626,5159 z " fill-rule="evenodd" fill="rgb(0,128,0)" stroke-width="5" stroke="rgb(0,0,0)" />
	<path d="M7626,4557 7626,3957 7326,3957 7326,4557 7626,4557 z " fill-rule="evenodd" fill="rgb(0,128,0)" stroke-width="5" stroke="rgb(0,0,0)" />
	<path d="M7626,3955 7626,3355 7326,3355 7326,3955 7626,3955 z " fill-rule="evenodd" fill="rgb(0,128,0)" stroke-width="5" stroke="rgb(0,0,0)" />
	<path d="M7626,3353 7626,2753 7326,2753 7326,3353 7626,3353 z " fill-rule="evenodd" fill="rgb(0,128,0)" stroke-width="5" stroke="rgb(0,0,0)" />
	<path d="M7928,5460 7928,4860 7628,4860 7628,5460 7928,5460 z " fill-rule="evenodd" fill="rgb(0,128,0)" stroke-width="5" stroke="rgb(0,0,0)" />
	<path d="M7928,4858 7928,4258 7628,4258 7628,4858 7928,4858 z " fill-rule="evenodd" fill="rgb(0,128,0)" stroke-width="5" stroke="rgb(0,0,0)" />
	<path d="M7928,4256 7928,3656 7628,3656 7628,4256 7928,4256 z " fill-rule="evenodd" fill="rgb(0,128,0)" stroke-width="5" stroke="rgb(0,0,0)" />
	<path d="M7928,3654 7928,3054 7628,3054 7628,3654 7928,3654 z " fill-rule="evenodd" fill="rgb(0,128,0)" stroke-width="5" stroke="rgb(0,0,0)" />
	<path d="M7928,3052 7928,2452 7628,2452 7628,3052 7928,3052 z " fill-rule="evenodd" fill="rgb(0,128,0)" stroke-width="5" stroke="rgb(0,0,0)" />
	<path d="M8230,5159 8230,4559 7930,4559 7930,5159 8230,5159 z " fill-rule="evenodd" fill="rgb(0,128,0)" stroke-width="5" stroke="rgb(0,0,0)" />
	<path d="M8230,4557 8230,3957 7930,3957 7930,4557 8230,4557 z " fill-rule="evenodd" fill="rgb(0,128,0)" stroke-width="5" stroke="rgb(0,0,0)" />
	<path d="M8230,3955 8230,3355 7930,3355 7930,3955 8230,3955 z " fill-rule="evenodd" fill="rgb(0,128,0)" stroke-width="5" stroke="rgb(0,0,0)" />
	<path d="M8230,3353 8230,2753 7930,2753 7930,3353 8230,3353 z " fill-rule="evenodd" fill="rgb(0,128,0)" stroke-width="5" stroke="rgb(0,0,0)" />
	<path d="M8532,5460 8532,4860 8232,4860 8232,5460 8532,5460 z " fill-rule="evenodd" fill="rgb(0,128,0)" stroke-width="5" stroke="rgb(0,0,0)" />
	<path d="M8532,4858 8532,4258 8232,4258 8232,4858 8532,4858 z " fill-rule="evenodd" fill="rgb(0,128,0)" stroke-width="5" stroke="rgb(0,0,0)" />
	<path d="M8532,4256 8532,3656 8232,3656 8232,4256 8532,4256 z " fill-rule="evenodd" fill="rgb(0,128,0)" stroke-width="5" stroke="rgb(0,0,0)" />
	<path d="M8532,3654 8532,3054 8232,3054 8232,3654 8532,3654 z " fill-rule="evenodd" fill="rgb(0,128,0)" stroke-width="5" stroke="rgb(0,0,0)" />
	<path d="M4002,3353 3702,3353 3702,3052 4002,3052 4002,3353 z " fill-rule="evenodd" fill="rgb(255,0,0)" stroke-width="5" stroke="rgb(0,0,0)" />
	<path d="M3702,2753 4002,2753 4002,2952 3702,2952 3702,2753 z " fill-rule="evenodd" fill="rgb(255,0,0)" stroke-width="5" stroke="rgb(0,0,0)" />
	<path d="M3400,2452 3700,2452 3700,2952 3400,2952 3400,2452 z " fill-rule="evenodd" fill="rgb(255,0,0)" stroke-width="5" stroke="rgb(0,0,0)" />
	<path d="M3098,2753 3398,2753 3398,2952 3098,2952 3098,2753 z " fill-rule="evenodd" fill="rgb(255,0,0)" stroke-width="5" stroke="rgb(0,0,0)" />
	<path d="M3398,1549 3398,2149 3098,2149 3098,1602 3147,1602 3168.49,1549 3398,1549 z " fill-rule="evenodd" fill="rgb(255,0,0)" stroke-width="5" stroke="rgb(0,0,0)" />
	<path d="M4004,2452 4304,2452 4304,3052 4200,3052 4200,2952 4004,2952 4004,2452 z " fill-rule="evenodd" fill="rgb(255,0,0)" stroke-width="5" stroke="rgb(0,0,0)" />
	<path d="M3398,1547 3169.3,1547 3398,983.042 3398,1547 z " fill-rule="evenodd" fill="rgb(255,0,0)" stroke-width="5" stroke="rgb(0,0,0)" />
	<path d="M3098,947 3305.15,947 3098,1457.63 3098,947 z " fill-rule="evenodd" fill="rgb(255,0,0)" stroke-width="5" stroke="rgb(0,0,0)" />
	<path d="M2796,3654 2796,3054 2850,3054 2850,3152 2900,3152 2900,3654 2796,3654 z " fill-rule="evenodd" fill="rgb(255,0,0)" stroke-width="5" stroke="rgb(0,0,0)" />
	<path d="M2796,3052 2796,2452 3096,2452 3096,2952 2850,2952 2850,3052 2796,3052 z " fill-rule="evenodd" fill="rgb(255,0,0)" stroke-width="5" stroke="rgb(0,0,0)" />
	<path d="M3096,1848 2796,1848 2796,1248 3096,1248 3096,1462.56 3080,1502 2950,1502 2950,1602 3096,1602 3096,1848 z " fill-rule="evenodd" fill="rgb(255,0,0)" stroke-width="5" stroke="rgb(0,0,0)" />
	<path d="M4306,4559 4606,4559 4606,4952 4306,4952 4306,4559 z " fill-rule="evenodd" fill="rgb(255,0,0)" stroke-width="5" stroke="rgb(0,0,0)" />
	<path d="M4004,4860 4304,4860 4304,4952 4004,4952 4004,4860 z " fill-rule="evenodd" fill="rgb(255,0,0)" stroke-width="5" stroke="rgb(0,0,0)" />
	<path d="M3702,4559 4002,4559 4002,4952 3702,4952 3702,4559 z " fill-rule="evenodd" fill="rgb(255,0,0)" stroke-width="5" stroke="rgb(0,0,0)" />
	<path d="M3700,1246 3400,1246 3400,978.11 3529,660 3700,729.432 3700,1246 z " fill-rule="evenodd" fill="rgb(255,0,0)" stroke-width="5" stroke="rgb(0,0,0)" />
	<path d="M3400,646 3427.26,646 3400,713.204 3400,646 z " fill-rule="evenodd" fill="rgb(255,0,0)" stroke-width="5" stroke="rgb(0,0,0)" />
	<path d="M3398,718.134 3305.96,945 3098,945 3098,484.503 3398,606.182 3398,718.134 z " fill-rule="evenodd" fill="rgb(255,0,0)" stroke-width="5" stroke="rgb(0,0,0)" />
	<path d="M3096,644 2796,644 2796,362.014 3096,483.692 3096,644 z " fill-rule="evenodd" fill="rgb(255,0,0)" stroke-width="5" stroke="rgb(0,0,0)" />
	<path d="M2796,4256 2796,3656 2900,3656 2900,4256 2796,4256 z " fill-rule="evenodd" fill="rgb(255,0,0)" stroke-width="5" stroke="rgb(0,0,0)" />
	<path d="M2794,945 2494,945 2494,345 2754.05,345 2794,361.203 2794,945 z " fill-rule="evenodd" fill="rgb(255,0,0)" stroke-width="5" stroke="rgb(0,0,0)" />
	<path d="M2494,343 2494,239.524 2749.12,343 2494,343 z " fill-rule="evenodd" fill="rgb(255,0,0)" stroke-width="5" stroke="rgb(0,0,0)" />
	<path d="M4608,4860 4908,4860 4908,4952 4608,4952 4608,4860 z " fill-rule="evenodd" fill="rgb(255,0,0)" stroke-width="5" stroke="rgb(0,0,0)" />
	<path d="M4608,3052 4608,2452 4908,2452 4908,2952 4900,2952 4900,3052 4608,3052 z " fill-rule="evenodd" fill="rgb(255,0,0)" stroke-width="5" stroke="rgb(0,0,0)" />
	<path d="M4606,1547 4306,1547 4306,975.489 4606,1097.3 4606,1547 z " fill-rule="evenodd" fill="rgb(255,0,0)" stroke-width="5" stroke="rgb(0,0,0)" />
	<path d="M4304,1246 4004,1246 4004,852.866 4304,974.677 4304,1246 z " fill-rule="evenodd" fill="rgb(255,0,0)" stroke-width="5" stroke="rgb(0,0,0)" />
	<path d="M4002,945 3702,945 3702,730.244 4002,852.054 4002,945 z " fill-rule="evenodd" fill="rgb(255,0,0)" stroke-width="5" stroke="rgb(0,0,0)" />
	<path d="M3400,644 3400,606.993 3437,622 3428.08,644 3400,644 z " fill-rule="evenodd" fill="rgb(255,0,0)" stroke-width="5" stroke="rgb(0,0,0)" />
	<path d="M2796,4858 2796,4258 2900,4258 2900,4858 2796,4858 z " fill-rule="evenodd" fill="rgb(255,0,0)" stroke-width="5" stroke="rgb(0,0,0)" />
	<path d="M2492,644 2192,644 2192,117.035 2492,238.713 2492,644 z " fill-rule="evenodd" fill="rgb(255,0,0)" stroke-width="5" stroke="rgb(0,0,0)" />
	<path d="M5210,5161 5210,5552 5050,5552 5050,5161 5210,5161 z " fill-rule="evenodd" fill="rgb(255,0,0)" stroke-width="5" stroke="rgb(0,0,0)" />
	<path d="M5210,4559 5210,5159 5050,5159 5050,4559 5210,4559 z " fill-rule="evenodd" fill="rgb(255,0,0)" stroke-width="5" stroke="rgb(0,0,0)" />
	<path d="M4910,4559 4950,4559 4950,4952 4910,4952 4910,4559 z " fill-rule="evenodd" fill="rgb(255,0,0)" stroke-width="5" stroke="rgb(0,0,0)" />
	<path d="M5210,3957 5210,4557 5050,4557 5050,3957 5210,3957 z " fill-rule="evenodd" fill="rgb(255,0,0)" stroke-width="5" stroke="rgb(0,0,0)" />
	<path d="M4910,4557 4910,3957 4950,3957 4950,4557 4910,4557 z " fill-rule="evenodd" fill="rgb(255,0,0)" stroke-width="5" stroke="rgb(0,0,0)" />
	<path d="M5210,3355 5210,3955 5050,3955 5050,3355 5210,3355 z " fill-rule="evenodd" fill="rgb(255,0,0)" stroke-width="5" stroke="rgb(0,0,0)" />
	<path d="M4910,3955 4910,3355 4950,3355 4950,3955 4910,3955 z " fill-rule="evenodd" fill="rgb(255,0,0)" stroke-width="5" stroke="rgb(0,0,0)" />
	<path d="M4910,2753 5210,2753 5210,3353 5050,3353 5050,2952 4910,2952 4910,2753 z " fill-rule="evenodd" fill="rgb(255,0,0)" stroke-width="5" stroke="rgb(0,0,0)" />
	<path d="M4910,3353 4910,3052 4950,3052 4950,3353 4910,3353 z " fill-rule="evenodd" fill="rgb(255,0,0)" stroke-width="5" stroke="rgb(0,0,0)" />
	<path d="M5210,1547 4910,1547 4910,1220.73 5210,1342.54 5210,1547 z " fill-rule="evenodd" fill="rgb(255,0,0)" stroke-width="5" stroke="rgb(0,0,0)" />
	<path d="M4908,1246 4608,1246 4608,1098.11 4908,1219.92 4908,1246 z " fill-rule="evenodd" fill="rgb(255,0,0)" stroke-width="5" stroke="rgb(0,0,0)" />
	<path d="M2796,5460 2796,4860 2900,4860 2900,5460 2796,5460 z " fill-rule="evenodd" fill="rgb(255,0,0)" stroke-width="5" stroke="rgb(0,0,0)" />
	<path d="M1890,2753 2190,2753 2190,3353 1890,3353 1890,3152 2050,3152 2050,2952 1890,2952 1890,2753 z " fill-rule="evenodd" fill="rgb(255,0,0)" stroke-width="5" stroke="rgb(0,0,0)" />
	<path d="M2190,1549 2190,2149 1890,2149 1890,1602 2150,1602 2150,1549 2190,1549 z " fill-rule="evenodd" fill="rgb(255,0,0)" stroke-width="5" stroke="rgb(0,0,0)" />
	<path d="M2190,947 2190,1547 2150,1547 2150,947 2190,947 z " fill-rule="evenodd" fill="rgb(255,0,0)" stroke-width="5" stroke="rgb(0,0,0)" />
	<path d="M2190,345 2190,945 2150,945 2150,345 2190,345 z " fill-rule="evenodd" fill="rgb(255,0,0)" stroke-width="5" stroke="rgb(0,0,0)" />
	<path d="M2190,343 2150,343 2150,100 2190,116.224 2190,343 z " fill-rule="evenodd" fill="rgb(255,0,0)" stroke-width="5" stroke="rgb(0,0,0)" />
	<path d="M5212,5462 5512,5462 5512,5552 5212,5552 5212,5462 z " fill-rule="evenodd" fill="rgb(255,0,0)" stroke-width="5" stroke="rgb(0,0,0)" />
	<path d="M5512,1848 5212,1848 5212,1343.36 5512,1465.17 5512,1848 z " fill-rule="evenodd" fill="rgb(255,0,0)" stroke-width="5" stroke="rgb(0,0,0)" />
	<path d="M3098,6363 3098,6052 3100,6052 3100,6363 3098,6363 z " fill-rule="evenodd" fill="rgb(255,0,0)" stroke-width="5" stroke="rgb(0,0,0)" />
	<path d="M3096,6062 2796,6062 2796,5462 2900,5462 2900,6052 3096,6052 3096,6062 z " fill-rule="evenodd" fill="rgb(255,0,0)" stroke-width="5" stroke="rgb(0,0,0)" />
	<path d="M1888,3654 1588,3654 1588,3152 1888,3152 1888,3654 z " fill-rule="evenodd" fill="rgb(255,0,0)" stroke-width="5" stroke="rgb(0,0,0)" />
	<path d="M1588,2452 1888,2452 1888,2952 1588,2952 1588,2452 z " fill-rule="evenodd" fill="rgb(255,0,0)" stroke-width="5" stroke="rgb(0,0,0)" />
	<path d="M1888,1848 1588,1848 1588,1602 1888,1602 1888,1848 z " fill-rule="evenodd" fill="rgb(255,0,0)" stroke-width="5" stroke="rgb(0,0,0)" />
	<path d="M5514,5161 5814,5161 5814,5552 5514,5552 5514,5161 z " fill-rule="evenodd" fill="rgb(255,0,0)" stroke-width="5" stroke="rgb(0,0,0)" />
	<path d="M5814,2149 5514,2149 5514,1549 5718.47,1549 5814,1587.79 5814,2149 z " fill-rule="evenodd" fill="rgb(255,0,0)" stroke-width="5" stroke="rgb(0,0,0)" />
	<path d="M5514,1547 5514,1465.98 5713.54,1547 5514,1547 z " fill-rule="evenodd" fill="rgb(255,0,0)" stroke-width="5" stroke="rgb(0,0,0)" />
	<path d="M3098,6365 3100,6365 3100,6852 3098,6852 3098,6365 z " fill-rule="evenodd" fill="rgb(255,0,0)" stroke-width="5" stroke="rgb(0,0,0)" />
	<path d="M1586,3353 1286,3353 1286,3152 1586,3152 1586,3353 z " fill-rule="evenodd" fill="rgb(255,0,0)" stroke-width="5" stroke="rgb(0,0,0)" />
	<path d="M1286,2753 1586,2753 1586,2952 1286,2952 1286,2753 z " fill-rule="evenodd" fill="rgb(255,0,0)" stroke-width="5" stroke="rgb(0,0,0)" />
	<path d="M1586,2149 1286,2149 1286,1549 1400,1549 1400,1602 1586,1602 1586,2149 z " fill-rule="evenodd" fill="rgb(255,0,0)" stroke-width="5" stroke="rgb(0,0,0)" />
	<path d="M1286,1547 1286,1502 1400,1502 1400,1547 1286,1547 z " fill-rule="evenodd" fill="rgb(255,0,0)" stroke-width="5" stroke="rgb(0,0,0)" />
	<path d="M5816,5462 6116,5462 6116,5552 5816,5552 5816,5462 z " fill-rule="evenodd" fill="rgb(255,0,0)" stroke-width="5" stroke="rgb(0,0,0)" />
	<path d="M6116,1848 5816,1848 5816,1588.6 6116,1710.41 6116,1848 z " fill-rule="evenodd" fill="rgb(255,0,0)" stroke-width="5" stroke="rgb(0,0,0)" />
	<path d="M2796,6666 3096,6666 3096,6852 2900,6852 2900,6952 2796,6952 2796,6666 z " fill-rule="evenodd" fill="rgb(255,0,0)" stroke-width="5" stroke="rgb(0,0,0)" />
	<path d="M2494,6365 2794,6365 2794,6952 2494,6952 2494,6365 z " fill-rule="evenodd" fill="rgb(255,0,0)" stroke-width="5" stroke="rgb(0,0,0)" />
	<path d="M1284,3654 984,3654 984,3152 1284,3152 1284,3654 z " fill-rule="evenodd" fill="rgb(255,0,0)" stroke-width="5" stroke="rgb(0,0,0)" />
	<path d="M984,2452 1284,2452 1284,2952 984,2952 984,2452 z " fill-rule="evenodd" fill="rgb(255,0,0)" stroke-width="5" stroke="rgb(0,0,0)" />
	<path d="M1284,1848 984,1848 984,1502 1284,1502 1284,1848 z " fill-rule="evenodd" fill="rgb(255,0,0)" stroke-width="5" stroke="rgb(0,0,0)" />
	<path d="M6118,5161 6418,5161 6418,5552 6118,5552 6118,5161 z " fill-rule="evenodd" fill="rgb(255,0,0)" stroke-width="5" stroke="rgb(0,0,0)" />
	<path d="M6418,2149 6118,2149 6118,1711.22 6418,1833.03 6418,2149 z " fill-rule="evenodd" fill="rgb(255,0,0)" stroke-width="5" stroke="rgb(0,0,0)" />
	<path d="M2192,6666 2492,6666 2492,6952 2192,6952 2192,6666 z " fill-rule="evenodd" fill="rgb(255,0,0)" stroke-width="5" stroke="rgb(0,0,0)" />
	<path d="M1890,6365 2190,6365 2190,6952 1890,6952 1890,6365 z " fill-rule="evenodd" fill="rgb(255,0,0)" stroke-width="5" stroke="rgb(0,0,0)" />
	<path d="M982,3353 682,3353 682,3152 982,3152 982,3353 z " fill-rule="evenodd" fill="rgb(255,0,0)" stroke-width="5" stroke="rgb(0,0,0)" />
	<path d="M682,2753 982,2753 982,2952 682,2952 682,2753 z " fill-rule="evenodd" fill="rgb(255,0,0)" stroke-width="5" stroke="rgb(0,0,0)" />
	<path d="M982,1549 982,2149 682,2149 682,1602 700,1602 700,1549 982,1549 z " fill-rule="evenodd" fill="rgb(255,0,0)" stroke-width="5" stroke="rgb(0,0,0)" />
	<path d="M982,1547 700,1547 700,1502 982,1502 982,1547 z " fill-rule="evenodd" fill="rgb(255,0,0)" stroke-width="5" stroke="rgb(0,0,0)" />
	<path d="M6420,5462 6720,5462 6720,5552 6420,5552 6420,5462 z " fill-rule="evenodd" fill="rgb(255,0,0)" stroke-width="5" stroke="rgb(0,0,0)" />
	<path d="M6720,2450 6420,2450 6420,1850 6459.79,1850 6720,1955.66 6720,2450 z " fill-rule="evenodd" fill="rgb(255,0,0)" stroke-width="5" stroke="rgb(0,0,0)" />
	<path d="M6420,1848 6420,1833.85 6454.86,1848 6420,1848 z " fill-rule="evenodd" fill="rgb(255,0,0)" stroke-width="5" stroke="rgb(0,0,0)" />
	<path d="M1588,6666 1888,6666 1888,6952 1588,6952 1588,6666 z " fill-rule="evenodd" fill="rgb(255,0,0)" stroke-width="5" stroke="rgb(0,0,0)" />
	<path d="M1286,6365 1586,6365 1586,6952 1286,6952 1286,6365 z " fill-rule="evenodd" fill="rgb(255,0,0)" stroke-width="5" stroke="rgb(0,0,0)" />
	<path d="M680,3654 380,3654 380,3152 680,3152 680,3654 z " fill-rule="evenodd" fill="rgb(255,0,0)" stroke-width="5" stroke="rgb(0,0,0)" />
	<path d="M380,2452 680,2452 680,2952 380,2952 380,2452 z " fill-rule="evenodd" fill="rgb(255,0,0)" stroke-width="5" stroke="rgb(0,0,0)" />
	<path d="M680,1848 380,1848 380,1602 680,1602 680,1848 z " fill-rule="evenodd" fill="rgb(255,0,0)" stroke-width="5" stroke="rgb(0,0,0)" />
	<path d="M6722,5161 7022,5161 7022,5552 6722,5552 6722,5161 z " fill-rule="evenodd" fill="rgb(255,0,0)" stroke-width="5" stroke="rgb(0,0,0)" />
	<path d="M7022,2149 6722,2149 6722,1956.47 7022,2078.28 7022,2149 z " fill-rule="evenodd" fill="rgb(255,0,0)" stroke-width="5" stroke="rgb(0,0,0)" />
	<path d="M984,6666 1284,6666 1284,6952 984,6952 984,6666 z " fill-rule="evenodd" fill="rgb(255,0,0)" stroke-width="5" stroke="rgb(0,0,0)" />
	<path d="M682,6365 982,6365 982,6952 682,6952 682,6365 z " fill-rule="evenodd" fill="rgb(255,0,0)" stroke-width="5" stroke="rgb(0,0,0)" />
	<path d="M378,5763 378,6363 100,6363 100,5763 378,5763 z " fill-rule="evenodd" fill="rgb(255,0,0)" stroke-width="5" stroke="rgb(0,0,0)" />
	<path d="M378,5161 378,5761 100,5761 100,5161 378,5161 z " fill-rule="evenodd" fill="rgb(255,0,0)" stroke-width="5" stroke="rgb(0,0,0)" />
	<path d="M378,4559 378,5159 100,5159 100,4559 378,4559 z " fill-rule="evenodd" fill="rgb(255,0,0)" stroke-width="5" stroke="rgb(0,0,0)" />
	<path d="M378,3957 378,4557 100,4557 100,3957 378,3957 z " fill-rule="evenodd" fill="rgb(255,0,0)" stroke-width="5" stroke="rgb(0,0,0)" />
	<path d="M378,3355 378,3955 100,3955 100,3355 378,3355 z " fill-rule="evenodd" fill="rgb(255,0,0)" stroke-width="5" stroke="rgb(0,0,0)" />
	<path d="M378,3353 100,3353 100,3152 378,3152 378,3353 z " fill-rule="evenodd" fill="rgb(255,0,0)" stroke-width="5" stroke="rgb(0,0,0)" />
	<path d="M378,2753 378,2952 100,2952 100,2753 378,2753 z " fill-rule="evenodd" fill="rgb(255,0,0)" stroke-width="5" stroke="rgb(0,0,0)" />
	<path d="M378,2151 378,2751 100,2751 100,2151 378,2151 z " fill-rule="evenodd" fill="rgb(255,0,0)" stroke-width="5" stroke="rgb(0,0,0)" />
	<path d="M378,2149 100,2149 100,1602 378,1602 378,2149 z " fill-rule="evenodd" fill="rgb(255,0,0)" stroke-width="5" stroke="rgb(0,0,0)" />
	<path d="M7024,5462 7324,5462 7324,5552 7024,5552 7024,5462 z " fill-rule="evenodd" fill="rgb(255,0,0)" stroke-width="5" stroke="rgb(0,0,0)" />
	<path d="M7324,2450 7024,2450 7024,2079.09 7324,2200.9 7324,2450 z " fill-rule="evenodd" fill="rgb(255,0,0)" stroke-width="5" stroke="rgb(0,0,0)" />
	<path d="M380,6666 680,6666 680,6952 380,6952 380,6666 z " fill-rule="evenodd" fill="rgb(255,0,0)" stroke-width="5" stroke="rgb(0,0,0)" />
	<path d="M378,6365 378,6952 100,6952 100,6365 378,6365 z " fill-rule="evenodd" fill="rgb(255,0,0)" stroke-width="5" stroke="rgb(0,0,0)" />
	<path d="M7326,5161 7626,5161 7626,5552 7326,5552 7326,5161 z " fill-rule="evenodd" fill="rgb(255,0,0)" stroke-width="5" stroke="rgb(0,0,0)" />
	<path d="M7626,2751 7326,2751 7326,2201.71 7626,2323.52 7626,2751 z " fill-rule="evenodd" fill="rgb(255,0,0)" stroke-width="5" stroke="rgb(0,0,0)" />
	<path d="M7628,5462 7928,5462 7928,5552 7628,5552 7628,5462 z " fill-rule="evenodd" fill="rgb(255,0,0)" stroke-width="5" stroke="rgb(0,0,0)" />
	<path d="M7928,2450 7628,2450 7628,2324.33 7928,2446.14 7928,2450 z " fill-rule="evenodd" fill="rgb(255,0,0)" stroke-width="5" stroke="rgb(0,0,0)" />
	<path d="M7930,5161 8230,5161 8230,5552 7930,5552 7930,5161 z " fill-rule="evenodd" fill="rgb(255,0,0)" stroke-width="5" stroke="rgb(0,0,0)" />
	<path d="M8230,2751 7930,2751 7930,2446.96 8230,2568.77 8230,2751 z " fill-rule="evenodd" fill="rgb(255,0,0)" stroke-width="5" stroke="rgb(0,0,0)" />
	<path d="M8232,5462 8532,5462 8532,5552 8232,5552 8232,5462 z " fill-rule="evenodd" fill="rgb(255,0,0)" stroke-width="5" stroke="rgb(0,0,0)" />
	<path d="M8532,3052 8232,3052 8232,2569.58 8532,2691.39 8532,3052 z " fill-rule="evenodd" fill="rgb(255,0,0)" stroke-width="5" stroke="rgb(0,0,0)" />
	<path d="M8534,5161 8600,5161 8600,5552 8534,5552 8534,5161 z " fill-rule="evenodd" fill="rgb(255,0,0)" stroke-width="5" stroke="rgb(0,0,0)" />
	<path d="M8534,5159 8534,4559 8600,4559 8600,5159 8534,5159 z " fill-rule="evenodd" fill="rgb(255,0,0)" stroke-width="5" stroke="rgb(0,0,0)" />
	<path d="M8534,4557 8534,3957 8600,3957 8600,4557 8534,4557 z " fill-rule="evenodd" fill="rgb(255,0,0)" stroke-width="5" stroke="rgb(0,0,0)" />
	<path d="M8534,3955 8534,3355 8600,3355 8600,3955 8534,3955 z " fill-rule="evenodd" fill="rgb(255,0,0)" stroke-width="5" stroke="rgb(0,0,0)" />
	<path d="M8534,3353 8534,2753 8600,2753 8600,3353 8534,3353 z " fill-rule="evenodd" fill="rgb(255,0,0)" stroke-width="5" stroke="rgb(0,0,0)" />
	<path d="M8534,2751 8534,2692.2 8600,2719 8600,2751 8534,2751 z " fill-rule="evenodd" fill="rgb(255,0,0)" stroke-width="5" stroke="rgb(0,0,0)" />
	<polyline points="3695,3057 3695,2457 3695,3057 3095,3057 3695,3057 " fill="none" stroke-width="100" stroke="rgb(0,0,0)" />
	<circle cx="3695" cy="3057" r="-10" fill="rgb(0,0,0)" />
	<circle cx="3695" cy="2457" r="-10" fill="rgb(0,0,0)" />
	<circle cx="3695" cy="3057" r="-10" fill="rgb(0,0,0)" />
	<circle cx="3095" cy="3057" r="-10" fill="rgb(0,0,0)" />
	<circle cx="3695" cy="3057" r="-10" fill="rgb(0,0,0)" />
	<polyline points="3695,3717 3695,3057 3035,3057 " fill="none" stroke-width="0.5" stroke="rgb(128,0,128)" />
</svg>
