<?xml version="1.0" standalone="no" ?>
<!DOCTYPE svg PUBLIC "-//W3C//DTD SVG 1.1//EN" "http://www.w3.org/Graphics/SVG/1.1/DTD/svg11.dtd">
<svg width="8700px" height="7052px" xmlns="http://www.w3.org/2000/svg" version="1.1" >
	<path d="M100,3152 100,4052 400,4052 400,3152 100,3152 z " fill-rule="evenodd" fill="rgb(0,128,0)" stroke-width="5" stroke="rgb(0,0,0)" />
	<path d="M100,4054 100,4954 400,4954 400,4054 100,4054 z " fill-rule="evenodd" fill="rgb(0,128,0)" stroke-width="5" stroke="rgb(0,0,0)" />
	<path d="M402,3452.67 402,4352.67 702,4352.67 702,3452.67 402,3452.67 z " fill-rule="evenodd" fill="rgb(0,128,0)" stroke-width="5" stroke="rgb(0,0,0)" />
	<path d="M402,4354.67 402,5254.67 702,5254.67 702,4354.67 402,4354.67 z " fill-rule="evenodd" fill="rgb(0,128,0)" stroke-width="5" stroke="rgb(0,0,0)" />
	<path d="M402,1648.67 402,2548.67 702,2548.67 702,1648.67 402,1648.67 z " fill-rule="evenodd" fill="rgb(0,128,0)" stroke-width="5" stroke="rgb(0,0,0)" />
	<path d="M100,4956 100,5856 400,5856 400,4956 100,4956 z " fill-rule="evenodd" fill="rgb(0,128,0)" stroke-width="5" stroke="rgb(0,0,0)" />
	<path d="M402,5256.67 402,6156.67 702,6156.67 702,5256.67 402,5256.67 z " fill-rule="evenodd" fill="rgb(0,128,0)" stroke-width="5" stroke="rgb(0,0,0)" />
	<path d="M704,1949.33 704,2849.33 1004,2849.33 1004,1949.33 704,1949.33 z " fill-rule="evenodd" fill="rgb(0,128,0)" stroke-width="5" stroke="rgb(0,0,0)" />
	<path d="M704,3753.33 704,4653.33 1004,4653.33 1004,3753.33 704,3753.33 z " fill-rule="evenodd" fill="rgb(0,128,0)" stroke-width="5" stroke="rgb(0,0,0)" />
	<path d="M704,4655.33 704,5555.33 1004,5555.33 1004,4655.33 704,4655.33 z " fill-rule="evenodd" fill="rgb(0,128,0)" stroke-width="5" stroke="rgb(0,0,0)" />
	<path d="M704,5557.33 704,6457.33 1004,6457.33 1004,5557.33 704,5557.33 z " fill-rule="evenodd" fill="rgb(0,128,0)" stroke-width="5" stroke="rgb(0,0,0)" />
	<path d="M100,5858 100,6758 400,6758 400,5858 100,5858 z " fill-rule="evenodd" fill="rgb(0,128,0)" stroke-width="5" stroke="rgb(0,0,0)" />
	<path d="M1006,3152 1006,4052 1306,4052 1306,3152 1006,3152 z " fill-rule="evenodd" fill="rgb(0,128,0)" stroke-width="5" stroke="rgb(0,0,0)" />
	<path d="M1006,4054 1006,4954 1306,4954 1306,4054 1006,4054 z " fill-rule="evenodd" fill="rgb(0,128,0)" stroke-width="5" stroke="rgb(0,0,0)" />
	<path d="M1006,4956 1006,5856 1306,5856 1306,4956 1006,4956 z " fill-rule="evenodd" fill="rgb(0,128,0)" stroke-width="5" stroke="rgb(0,0,0)" />
	<path d="M1006,5858 1006,6758 1306,6758 1306,5858 1006,5858 z " fill-rule="evenodd" fill="rgb(0,128,0)" stroke-width="5" stroke="rgb(0,0,0)" />
	<path d="M1308,1648.67 1308,2548.67 1608,2548.67 1608,1648.67 1308,1648.67 z " fill-rule="evenodd" fill="rgb(0,128,0)" stroke-width="5" stroke="rgb(0,0,0)" />
	<path d="M1308,3452.67 1308,4352.67 1608,4352.67 1608,3452.67 1308,3452.67 z " fill-rule="evenodd" fill="rgb(0,128,0)" stroke-width="5" stroke="rgb(0,0,0)" />
	<path d="M1308,4354.67 1308,5254.67 1608,5254.67 1608,4354.67 1308,4354.67 z " fill-rule="evenodd" fill="rgb(0,128,0)" stroke-width="5" stroke="rgb(0,0,0)" />
	<path d="M1308,5256.67 1308,6156.67 1608,6156.67 1608,5256.67 1308,5256.67 z " fill-rule="evenodd" fill="rgb(0,128,0)" stroke-width="5" stroke="rgb(0,0,0)" />
	<path d="M1610,1949.33 1610,2849.33 1910,2849.33 1910,1949.33 1610,1949.33 z " fill-rule="evenodd" fill="rgb(0,128,0)" stroke-width="5" stroke="rgb(0,0,0)" />
	<path d="M1610,3753.33 1610,4653.33 1910,4653.33 1910,3753.33 1610,3753.33 z " fill-rule="evenodd" fill="rgb(0,128,0)" stroke-width="5" stroke="rgb(0,0,0)" />
	<path d="M1610,4655.33 1610,5555.33 1910,5555.33 1910,4655.33 1610,4655.33 z " fill-rule="evenodd" fill="rgb(0,128,0)" stroke-width="5" stroke="rgb(0,0,0)" />
	<path d="M1610,5557.33 1610,6457.33 1910,6457.33 1910,5557.33 1610,5557.33 z " fill-rule="evenodd" fill="rgb(0,128,0)" stroke-width="5" stroke="rgb(0,0,0)" />
	<path d="M1912,3152 1912,4052 2212,4052 2212,3152 1912,3152 z " fill-rule="evenodd" fill="rgb(0,128,0)" stroke-width="5" stroke="rgb(0,0,0)" />
	<path d="M1912,4054 1912,4954 2212,4954 2212,4054 1912,4054 z " fill-rule="evenodd" fill="rgb(0,128,0)" stroke-width="5" stroke="rgb(0,0,0)" />
	<path d="M1912,4956 1912,5856 2212,5856 2212,4956 1912,4956 z " fill-rule="evenodd" fill="rgb(0,128,0)" stroke-width="5" stroke="rgb(0,0,0)" />
	<path d="M1912,5858 1912,6758 2212,6758 2212,5858 1912,5858 z " fill-rule="evenodd" fill="rgb(0,128,0)" stroke-width="5" stroke="rgb(0,0,0)" />
	<path d="M2214,746.667 2214,1646.67 2514,1646.67 2514,746.667 2214,746.667 z " fill-rule="evenodd" fill="rgb(0,128,0)" stroke-width="5" stroke="rgb(0,0,0)" />
	<path d="M2214,1648.67 2214,2548.67 2514,2548.67 2514,1648.67 2214,1648.67 z " fill-rule="evenodd" fill="rgb(0,128,0)" stroke-width="5" stroke="rgb(0,0,0)" />
	<path d="M2214,2550.67 2214,3450.67 2514,3450.67 2514,2550.67 2214,2550.67 z " fill-rule="evenodd" fill="rgb(0,128,0)" stroke-width="5" stroke="rgb(0,0,0)" />
	<path d="M2214,3452.67 2214,4352.67 2514,4352.67 2514,3452.67 2214,3452.67 z " fill-rule="evenodd" fill="rgb(0,128,0)" stroke-width="5" stroke="rgb(0,0,0)" />
	<path d="M2214,4354.67 2214,5254.67 2514,5254.67 2514,4354.67 2214,4354.67 z " fill-rule="evenodd" fill="rgb(0,128,0)" stroke-width="5" stroke="rgb(0,0,0)" />
	<path d="M2214,5256.67 2214,6156.67 2514,6156.67 2514,5256.67 2214,5256.67 z " fill-rule="evenodd" fill="rgb(0,128,0)" stroke-width="5" stroke="rgb(0,0,0)" />
	<path d="M2516,1047.33 2516,1947.33 2816,1947.33 2816,1047.33 2516,1047.33 z " fill-rule="evenodd" fill="rgb(0,128,0)" stroke-width="5" stroke="rgb(0,0,0)" />
	<path d="M2516,1949.33 2516,2849.33 2816,2849.33 2816,1949.33 2516,1949.33 z " fill-rule="evenodd" fill="rgb(0,128,0)" stroke-width="5" stroke="rgb(0,0,0)" />
	<path d="M2516,2851.33 2516,3751.33 2816,3751.33 2816,2851.33 2516,2851.33 z " fill-rule="evenodd" fill="rgb(0,128,0)" stroke-width="5" stroke="rgb(0,0,0)" />
	<path d="M2516,3753.33 2516,4653.33 2816,4653.33 2816,3753.33 2516,3753.33 z " fill-rule="evenodd" fill="rgb(0,128,0)" stroke-width="5" stroke="rgb(0,0,0)" />
	<path d="M2516,4655.33 2516,5555.33 2816,5555.33 2816,4655.33 2516,4655.33 z " fill-rule="evenodd" fill="rgb(0,128,0)" stroke-width="5" stroke="rgb(0,0,0)" />
	<path d="M2516,5557.33 2516,6457.33 2816,6457.33 2816,5557.33 2516,5557.33 z " fill-rule="evenodd" fill="rgb(0,128,0)" stroke-width="5" stroke="rgb(0,0,0)" />
	<path d="M3120,1648.67 3120,2548.67 3420,2548.67 3420,1648.67 3120,1648.67 z " fill-rule="evenodd" fill="rgb(0,128,0)" stroke-width="5" stroke="rgb(0,0,0)" />
	<path d="M3422,1047.33 3422,1947.33 3722,1947.33 3722,1047.33 3422,1047.33 z " fill-rule="evenodd" fill="rgb(0,128,0)" stroke-width="5" stroke="rgb(0,0,0)" />
	<path d="M3422,1949.33 3422,2849.33 3722,2849.33 3722,1949.33 3422,1949.33 z " fill-rule="evenodd" fill="rgb(0,128,0)" stroke-width="5" stroke="rgb(0,0,0)" />
	<path d="M3724,1348 3724,2248 4024,2248 4024,1348 3724,1348 z " fill-rule="evenodd" fill="rgb(0,128,0)" stroke-width="5" stroke="rgb(0,0,0)" />
	<path d="M3724,3152 3724,4052 4024,4052 4024,3152 3724,3152 z " fill-rule="evenodd" fill="rgb(0,128,0)" stroke-width="5" stroke="rgb(0,0,0)" />
	<path d="M4026,1648.67 4026,2548.67 4326,2548.67 4326,1648.67 4026,1648.67 z " fill-rule="evenodd" fill="rgb(0,128,0)" stroke-width="5" stroke="rgb(0,0,0)" />
	<path d="M4026,3452.67 4026,4352.67 4326,4352.67 4326,3452.67 4026,3452.67 z " fill-rule="evenodd" fill="rgb(0,128,0)" stroke-width="5" stroke="rgb(0,0,0)" />
	<path d="M4328,1949.33 4328,2849.33 4628,2849.33 4628,1949.33 4328,1949.33 z " fill-rule="evenodd" fill="rgb(0,128,0)" stroke-width="5" stroke="rgb(0,0,0)" />
	<path d="M4328,2851.33 4328,3751.33 4628,3751.33 4628,2851.33 4328,2851.33 z " fill-rule="evenodd" fill="rgb(0,128,0)" stroke-width="5" stroke="rgb(0,0,0)" />
	<path d="M4328,3753.33 4328,4653.33 4628,4653.33 4628,3753.33 4328,3753.33 z " fill-rule="evenodd" fill="rgb(0,128,0)" stroke-width="5" stroke="rgb(0,0,0)" />
	<path d="M4630,1348 4630,2248 4930,2248 4930,1348 4630,1348 z " fill-rule="evenodd" fill="rgb(0,128,0)" stroke-width="5" stroke="rgb(0,0,0)" />
	<path d="M4630,3152 4630,4052 4930,4052 4930,3152 4630,3152 z " fill-rule="evenodd" fill="rgb(0,128,0)" stroke-width="5" stroke="rgb(0,0,0)" />
	<path d="M4932,1648.67 4932,2548.67 5232,2548.67 5232,1648.67 4932,1648.67 z " fill-rule="evenodd" fill="rgb(0,128,0)" stroke-width="5" stroke="rgb(0,0,0)" />
	<path d="M5234,1949.33 5234,2849.33 5534,2849.33 5534,1949.33 5234,1949.33 z " fill-rule="evenodd" fill="rgb(0,128,0)" stroke-width="5" stroke="rgb(0,0,0)" />
	<path d="M5234,2851.33 5234,3751.33 5534,3751.33 5534,2851.33 5234,2851.33 z " fill-rule="evenodd" fill="rgb(0,128,0)" stroke-width="5" stroke="rgb(0,0,0)" />
	<path d="M5234,3753.33 5234,4653.33 5534,4653.33 5534,3753.33 5234,3753.33 z " fill-rule="evenodd" fill="rgb(0,128,0)" stroke-width="5" stroke="rgb(0,0,0)" />
	<path d="M5536,2250 5536,3150 5836,3150 5836,2250 5536,2250 z " fill-rule="evenodd" fill="rgb(0,128,0)" stroke-width="5" stroke="rgb(0,0,0)" />
	<path d="M5536,3152 5536,4052 5836,4052 5836,3152 5536,3152 z " fill-rule="evenodd" fill="rgb(0,128,0)" stroke-width="5" stroke="rgb(0,0,0)" />
	<path d="M5536,4054 5536,4954 5836,4954 5836,4054 5536,4054 z " fill-rule="evenodd" fill="rgb(0,128,0)" stroke-width="5" stroke="rgb(0,0,0)" />
	<path d="M5838,2550.67 5838,3450.67 6138,3450.67 6138,2550.67 5838,2550.67 z " fill-rule="evenodd" fill="rgb(0,128,0)" stroke-width="5" stroke="rgb(0,0,0)" />
	<path d="M5838,3452.67 5838,4352.67 6138,4352.67 6138,3452.67 5838,3452.67 z " fill-rule="evenodd" fill="rgb(0,128,0)" stroke-width="5" stroke="rgb(0,0,0)" />
	<path d="M5838,4354.67 5838,5254.67 6138,5254.67 6138,4354.67 5838,4354.67 z " fill-rule="evenodd" fill="rgb(0,128,0)" stroke-width="5" stroke="rgb(0,0,0)" />
	<path d="M6140,1949.33 6140,2849.33 6440,2849.33 6440,1949.33 6140,1949.33 z " fill-rule="evenodd" fill="rgb(0,128,0)" stroke-width="5" stroke="rgb(0,0,0)" />
	<path d="M6140,2851.33 6140,3751.33 6440,3751.33 6440,2851.33 6140,2851.33 z " fill-rule="evenodd" fill="rgb(0,128,0)" stroke-width="5" stroke="rgb(0,0,0)" />
	<path d="M6140,3753.33 6140,4653.33 6440,4653.33 6440,3753.33 6140,3753.33 z " fill-rule="evenodd" fill="rgb(0,128,0)" stroke-width="5" stroke="rgb(0,0,0)" />
	<path d="M6442,2250 6442,3150 6742,3150 6742,2250 6442,2250 z " fill-rule="evenodd" fill="rgb(0,128,0)" stroke-width="5" stroke="rgb(0,0,0)" />
	<path d="M6442,3152 6442,4052 6742,4052 6742,3152 6442,3152 z " fill-rule="evenodd" fill="rgb(0,128,0)" stroke-width="5" stroke="rgb(0,0,0)" />
	<path d="M6442,4054 6442,4954 6742,4954 6742,4054 6442,4054 z " fill-rule="evenodd" fill="rgb(0,128,0)" stroke-width="5" stroke="rgb(0,0,0)" />
	<path d="M6744,2550.67 6744,3450.67 7044,3450.67 7044,2550.67 6744,2550.67 z " fill-rule="evenodd" fill="rgb(0,128,0)" stroke-width="5" stroke="rgb(0,0,0)" />
	<path d="M6744,3452.67 6744,4352.67 7044,4352.67 7044,3452.67 6744,3452.67 z " fill-rule="evenodd" fill="rgb(0,128,0)" stroke-width="5" stroke="rgb(0,0,0)" />
	<path d="M6744,4354.67 6744,5254.67 7044,5254.67 7044,4354.67 6744,4354.67 z " fill-rule="evenodd" fill="rgb(0,128,0)" stroke-width="5" stroke="rgb(0,0,0)" />
	<path d="M7046,2851.33 7046,3751.33 7346,3751.33 7346,2851.33 7046,2851.33 z " fill-rule="evenodd" fill="rgb(0,128,0)" stroke-width="5" stroke="rgb(0,0,0)" />
	<path d="M7046,3753.33 7046,4653.33 7346,4653.33 7346,3753.33 7046,3753.33 z " fill-rule="evenodd" fill="rgb(0,128,0)" stroke-width="5" stroke="rgb(0,0,0)" />
	<path d="M7348,3152 7348,4052 7648,4052 7648,3152 7348,3152 z " fill-rule="evenodd" fill="rgb(0,128,0)" stroke-width="5" stroke="rgb(0,0,0)" />
	<path d="M7348,4054 7348,4954 7648,4954 7648,4054 7348,4054 z " fill-rule="evenodd" fill="rgb(0,128,0)" stroke-width="5" stroke="rgb(0,0,0)" />
	<path d="M7650,2550.67 7650,3450.67 7950,3450.67 7950,2550.67 7650,2550.67 z " fill-rule="evenodd" fill="rgb(0,128,0)" stroke-width="5" stroke="rgb(0,0,0)" />
	<path d="M7650,3452.67 7650,4352.67 7950,4352.67 7950,3452.67 7650,3452.67 z " fill-rule="evenodd" fill="rgb(0,128,0)" stroke-width="5" stroke="rgb(0,0,0)" />
	<path d="M7650,4354.67 7650,5254.67 7950,5254.67 7950,4354.67 7650,4354.67 z " fill-rule="evenodd" fill="rgb(0,128,0)" stroke-width="5" stroke="rgb(0,0,0)" />
	<path d="M7952,2851.33 7952,3751.33 8252,3751.33 8252,2851.33 7952,2851.33 z " fill-rule="evenodd" fill="rgb(0,128,0)" stroke-width="5" stroke="rgb(0,0,0)" />
	<path d="M7952,3753.33 7952,4653.33 8252,4653.33 8252,3753.33 7952,3753.33 z " fill-rule="evenodd" fill="rgb(0,128,0)" stroke-width="5" stroke="rgb(0,0,0)" />
	<path d="M8254,3152 8254,4052 8554,4052 8554,3152 8254,3152 z " fill-rule="evenodd" fill="rgb(0,128,0)" stroke-width="5" stroke="rgb(0,0,0)" />
	<path d="M8254,4054 8254,4954 8554,4954 8554,4054 8254,4054 z " fill-rule="evenodd" fill="rgb(0,128,0)" stroke-width="5" stroke="rgb(0,0,0)" />
	<path d="M400,2250 400,2952 100,2952 100,2250 400,2250 z " fill-rule="evenodd" fill="rgb(255,0,0)" stroke-width="5" stroke="rgb(0,0,0)" />
	<path d="M402,2550.67 702,2550.67 702,2952 402,2952 402,2550.67 z " fill-rule="evenodd" fill="rgb(255,0,0)" stroke-width="5" stroke="rgb(0,0,0)" />
	<path d="M702,3450.67 402,3450.67 402,3152 702,3152 702,3450.67 z " fill-rule="evenodd" fill="rgb(255,0,0)" stroke-width="5" stroke="rgb(0,0,0)" />
	<path d="M400,2248 100,2248 100,1602 400,1602 400,2248 z " fill-rule="evenodd" fill="rgb(255,0,0)" stroke-width="5" stroke="rgb(0,0,0)" />
	<path d="M704,2851.33 1004,2851.33 1004,2952 704,2952 704,2851.33 z " fill-rule="evenodd" fill="rgb(255,0,0)" stroke-width="5" stroke="rgb(0,0,0)" />
	<path d="M1004,3751.33 704,3751.33 704,3152 1004,3152 1004,3751.33 z " fill-rule="evenodd" fill="rgb(255,0,0)" stroke-width="5" stroke="rgb(0,0,0)" />
	<path d="M702,1646.67 402,1646.67 402,1602 700,1602 700,1502 702,1502 702,1646.67 z " fill-rule="evenodd" fill="rgb(255,0,0)" stroke-width="5" stroke="rgb(0,0,0)" />
	<path d="M1004,1947.33 704,1947.33 704,1502 1004,1502 1004,1947.33 z " fill-rule="evenodd" fill="rgb(255,0,0)" stroke-width="5" stroke="rgb(0,0,0)" />
	<path d="M402,6158.67 702,6158.67 702,6952 402,6952 402,6158.67 z " fill-rule="evenodd" fill="rgb(255,0,0)" stroke-width="5" stroke="rgb(0,0,0)" />
	<path d="M704,6459.33 1004,6459.33 1004,6952 704,6952 704,6459.33 z " fill-rule="evenodd" fill="rgb(255,0,0)" stroke-width="5" stroke="rgb(0,0,0)" />
	<path d="M1306,2248 1006,2248 1006,1502 1306,1502 1306,2248 z " fill-rule="evenodd" fill="rgb(255,0,0)" stroke-width="5" stroke="rgb(0,0,0)" />
	<path d="M1006,2250 1306,2250 1306,2952 1006,2952 1006,2250 z " fill-rule="evenodd" fill="rgb(255,0,0)" stroke-width="5" stroke="rgb(0,0,0)" />
	<path d="M1006,6760 1306,6760 1306,6952 1006,6952 1006,6760 z " fill-rule="evenodd" fill="rgb(255,0,0)" stroke-width="5" stroke="rgb(0,0,0)" />
	<path d="M100,6760 400,6760 400,6952 100,6952 100,6760 z " fill-rule="evenodd" fill="rgb(255,0,0)" stroke-width="5" stroke="rgb(0,0,0)" />
	<path d="M1608,1646.67 1308,1646.67 1308,1502 1400,1502 1400,1602 1608,1602 1608,1646.67 z " fill-rule="evenodd" fill="rgb(255,0,0)" stroke-width="5" stroke="rgb(0,0,0)" />
	<path d="M1308,2550.67 1608,2550.67 1608,2952 1308,2952 1308,2550.67 z " fill-rule="evenodd" fill="rgb(255,0,0)" stroke-width="5" stroke="rgb(0,0,0)" />
	<path d="M1608,3450.67 1308,3450.67 1308,3152 1608,3152 1608,3450.67 z " fill-rule="evenodd" fill="rgb(255,0,0)" stroke-width="5" stroke="rgb(0,0,0)" />
	<path d="M1308,6158.67 1608,6158.67 1608,6952 1308,6952 1308,6158.67 z " fill-rule="evenodd" fill="rgb(255,0,0)" stroke-width="5" stroke="rgb(0,0,0)" />
	<path d="M1910,1947.33 1610,1947.33 1610,1602 1910,1602 1910,1947.33 z " fill-rule="evenodd" fill="rgb(255,0,0)" stroke-width="5" stroke="rgb(0,0,0)" />
	<path d="M1610,2851.33 1910,2851.33 1910,2952 1610,2952 1610,2851.33 z " fill-rule="evenodd" fill="rgb(255,0,0)" stroke-width="5" stroke="rgb(0,0,0)" />
	<path d="M1910,3751.33 1610,3751.33 1610,3152 1910,3152 1910,3751.33 z " fill-rule="evenodd" fill="rgb(255,0,0)" stroke-width="5" stroke="rgb(0,0,0)" />
	<path d="M1610,6459.33 1910,6459.33 1910,6952 1610,6952 1610,6459.33 z " fill-rule="evenodd" fill="rgb(255,0,0)" stroke-width="5" stroke="rgb(0,0,0)" />
	<path d="M2212,446 2212,1346 2150,1346 2150,446 2212,446 z " fill-rule="evenodd" fill="rgb(255,0,0)" stroke-width="5" stroke="rgb(0,0,0)" />
	<path d="M2212,1348 2212,2248 1912,2248 1912,1602 2150,1602 2150,1348 2212,1348 z " fill-rule="evenodd" fill="rgb(255,0,0)" stroke-width="5" stroke="rgb(0,0,0)" />
	<path d="M1912,2250 2212,2250 2212,3150 2050,3150 2050,2952 1912,2952 1912,2250 z " fill-rule="evenodd" fill="rgb(255,0,0)" stroke-width="5" stroke="rgb(0,0,0)" />
	<path d="M1912,6760 2212,6760 2212,6952 1912,6952 1912,6760 z " fill-rule="evenodd" fill="rgb(255,0,0)" stroke-width="5" stroke="rgb(0,0,0)" />
	<path d="M2212,444 2150,444 2150,100 2212,125.147 2212,444 z " fill-rule="evenodd" fill="rgb(255,0,0)" stroke-width="5" stroke="rgb(0,0,0)" />
	<path d="M2514,744.667 2214,744.667 2214,125.958 2514,247.636 2514,744.667 z " fill-rule="evenodd" fill="rgb(255,0,0)" stroke-width="5" stroke="rgb(0,0,0)" />
	<path d="M2214,6158.67 2514,6158.67 2514,6952 2214,6952 2214,6158.67 z " fill-rule="evenodd" fill="rgb(255,0,0)" stroke-width="5" stroke="rgb(0,0,0)" />
	<path d="M2816,1045.33 2516,1045.33 2516,248.448 2816,370.126 2816,1045.33 z " fill-rule="evenodd" fill="rgb(255,0,0)" stroke-width="5" stroke="rgb(0,0,0)" />
	<path d="M2516,6459.33 2816,6459.33 2816,6952 2516,6952 2516,6459.33 z " fill-rule="evenodd" fill="rgb(255,0,0)" stroke-width="5" stroke="rgb(0,0,0)" />
	<path d="M2818,444 2818,370.937 2998.14,444 2818,444 z " fill-rule="evenodd" fill="rgb(255,0,0)" stroke-width="5" stroke="rgb(0,0,0)" />
	<path d="M3118,1346 2818,1346 2818,446 3003.07,446 3118,492.615 3118,1346 z " fill-rule="evenodd" fill="rgb(255,0,0)" stroke-width="5" stroke="rgb(0,0,0)" />
	<path d="M3118,2248 2818,2248 2818,1348 3118,1348 3118,1408.33 3080,1502 2950,1502 2950,1602 3118,1602 3118,2248 z " fill-rule="evenodd" fill="rgb(255,0,0)" stroke-width="5" stroke="rgb(0,0,0)" />
	<path d="M2818,3150 2818,2250 3118,2250 3118,2952 2850,2952 2850,3150 2818,3150 z " fill-rule="evenodd" fill="rgb(255,0,0)" stroke-width="5" stroke="rgb(0,0,0)" />
	<path d="M2818,4052 2818,3152 2850,3152 2850,3152 2900,3152 2900,4052 2818,4052 z " fill-rule="evenodd" fill="rgb(255,0,0)" stroke-width="5" stroke="rgb(0,0,0)" />
	<path d="M2818,4954 2818,4054 2900,4054 2900,4954 2818,4954 z " fill-rule="evenodd" fill="rgb(255,0,0)" stroke-width="5" stroke="rgb(0,0,0)" />
	<path d="M2818,5856 2818,4956 2900,4956 2900,5856 2818,5856 z " fill-rule="evenodd" fill="rgb(255,0,0)" stroke-width="5" stroke="rgb(0,0,0)" />
	<path d="M2818,6758 2818,5858 2900,5858 2900,6052 3100,6052 3100,6758 2818,6758 z " fill-rule="evenodd" fill="rgb(255,0,0)" stroke-width="5" stroke="rgb(0,0,0)" />
	<path d="M2818,6760 3100,6760 3100,6852 2900,6852 2900,6952 2818,6952 2818,6760 z " fill-rule="evenodd" fill="rgb(255,0,0)" stroke-width="5" stroke="rgb(0,0,0)" />
	<path d="M3120,744.667 3120,493.427 3420,615.105 3420,663.905 3387.24,744.667 3120,744.667 z " fill-rule="evenodd" fill="rgb(255,0,0)" stroke-width="5" stroke="rgb(0,0,0)" />
	<path d="M3120,746.667 3386.43,746.667 3120,1403.4 3120,746.667 z " fill-rule="evenodd" fill="rgb(255,0,0)" stroke-width="5" stroke="rgb(0,0,0)" />
	<path d="M3420,1646.67 3120,1646.67 3120,1602 3147,1602 3420,928.791 3420,1646.67 z " fill-rule="evenodd" fill="rgb(255,0,0)" stroke-width="5" stroke="rgb(0,0,0)" />
	<path d="M3120,2550.67 3420,2550.67 3420,2952 3120,2952 3120,2550.67 z " fill-rule="evenodd" fill="rgb(255,0,0)" stroke-width="5" stroke="rgb(0,0,0)" />
	<path d="M3422,615.916 3437,622 3422,658.975 3422,615.916 z " fill-rule="evenodd" fill="rgb(255,0,0)" stroke-width="5" stroke="rgb(0,0,0)" />
	<path d="M3722,1045.33 3422,1045.33 3422,923.859 3529,660 3722,738.365 3722,1045.33 z " fill-rule="evenodd" fill="rgb(255,0,0)" stroke-width="5" stroke="rgb(0,0,0)" />
	<path d="M3422,2851.33 3722,2851.33 3722,2952 3422,2952 3422,2851.33 z " fill-rule="evenodd" fill="rgb(255,0,0)" stroke-width="5" stroke="rgb(0,0,0)" />
	<path d="M3722,3751.33 3700,3751.33 3700,3052 3722,3052 3722,3751.33 z " fill-rule="evenodd" fill="rgb(255,0,0)" stroke-width="5" stroke="rgb(0,0,0)" />
	<path d="M3722,3753.33 3722,4653.33 3700,4653.33 3700,3753.33 3722,3753.33 z " fill-rule="evenodd" fill="rgb(255,0,0)" stroke-width="5" stroke="rgb(0,0,0)" />
	<path d="M4024,1346 3724,1346 3724,739.177 4024,860.987 4024,1346 z " fill-rule="evenodd" fill="rgb(255,0,0)" stroke-width="5" stroke="rgb(0,0,0)" />
	<path d="M3724,2250 4024,2250 4024,2952 3724,2952 3724,2250 z " fill-rule="evenodd" fill="rgb(255,0,0)" stroke-width="5" stroke="rgb(0,0,0)" />
	<path d="M4024,3150 3724,3150 3724,3052 4024,3052 4024,3150 z " fill-rule="evenodd" fill="rgb(255,0,0)" stroke-width="5" stroke="rgb(0,0,0)" />
	<path d="M3724,4054 4024,4054 4024,4952 3724,4952 3724,4054 z " fill-rule="evenodd" fill="rgb(255,0,0)" stroke-width="5" stroke="rgb(0,0,0)" />
	<path d="M3722,4655.33 3722,4952 3700,4952 3700,4655.33 3722,4655.33 z " fill-rule="evenodd" fill="rgb(255,0,0)" stroke-width="5" stroke="rgb(0,0,0)" />
	<path d="M4326,1646.67 4026,1646.67 4026,861.799 4326,983.609 4326,1646.67 z " fill-rule="evenodd" fill="rgb(255,0,0)" stroke-width="5" stroke="rgb(0,0,0)" />
	<path d="M4026,2550.67 4326,2550.67 4326,3450.67 4026,3450.67 4026,3052 4200,3052 4200,2952 4026,2952 4026,2550.67 z " fill-rule="evenodd" fill="rgb(255,0,0)" stroke-width="5" stroke="rgb(0,0,0)" />
	<path d="M4026,4354.67 4326,4354.67 4326,4952 4026,4952 4026,4354.67 z " fill-rule="evenodd" fill="rgb(255,0,0)" stroke-width="5" stroke="rgb(0,0,0)" />
	<path d="M4328,1045.33 4328,984.421 4478.02,1045.33 4328,1045.33 z " fill-rule="evenodd" fill="rgb(255,0,0)" stroke-width="5" stroke="rgb(0,0,0)" />
	<path d="M4628,1947.33 4328,1947.33 4328,1047.33 4482.94,1047.33 4628,1106.23 4628,1947.33 z " fill-rule="evenodd" fill="rgb(255,0,0)" stroke-width="5" stroke="rgb(0,0,0)" />
	<path d="M4328,4655.33 4628,4655.33 4628,4952 4328,4952 4328,4655.33 z " fill-rule="evenodd" fill="rgb(255,0,0)" stroke-width="5" stroke="rgb(0,0,0)" />
	<path d="M4930,1346 4630,1346 4630,1107.04 4930,1228.85 4930,1346 z " fill-rule="evenodd" fill="rgb(255,0,0)" stroke-width="5" stroke="rgb(0,0,0)" />
	<path d="M4930,3150 4630,3150 4630,2250 4930,2250 4930,2952 4900,2952 4900,3052 4930,3052 4930,3150 z " fill-rule="evenodd" fill="rgb(255,0,0)" stroke-width="5" stroke="rgb(0,0,0)" />
	<path d="M4630,4054 4930,4054 4930,4952 4630,4952 4630,4054 z " fill-rule="evenodd" fill="rgb(255,0,0)" stroke-width="5" stroke="rgb(0,0,0)" />
	<path d="M5232,1646.67 4932,1646.67 4932,1229.67 5232,1351.48 5232,1646.67 z " fill-rule="evenodd" fill="rgb(255,0,0)" stroke-width="5" stroke="rgb(0,0,0)" />
	<path d="M4932,2550.67 5232,2550.67 5232,3450.67 5050,3450.67 5050,2952 4932,2952 4932,2550.67 z " fill-rule="evenodd" fill="rgb(255,0,0)" stroke-width="5" stroke="rgb(0,0,0)" />
	<path d="M4932,3450.67 4932,3052 4950,3052 4950,3450.67 4932,3450.67 z " fill-rule="evenodd" fill="rgb(255,0,0)" stroke-width="5" stroke="rgb(0,0,0)" />
	<path d="M4932,4352.67 4932,3452.67 4950,3452.67 4950,4352.67 4932,4352.67 z " fill-rule="evenodd" fill="rgb(255,0,0)" stroke-width="5" stroke="rgb(0,0,0)" />
	<path d="M5232,3452.67 5232,4352.67 5050,4352.67 5050,3452.67 5232,3452.67 z " fill-rule="evenodd" fill="rgb(255,0,0)" stroke-width="5" stroke="rgb(0,0,0)" />
	<path d="M4932,4354.67 4950,4354.67 4950,4952 4932,4952 4932,4354.67 z " fill-rule="evenodd" fill="rgb(255,0,0)" stroke-width="5" stroke="rgb(0,0,0)" />
	<path d="M5232,4354.67 5232,5254.67 5050,5254.67 5050,4354.67 5232,4354.67 z " fill-rule="evenodd" fill="rgb(255,0,0)" stroke-width="5" stroke="rgb(0,0,0)" />
	<path d="M5232,5256.67 5232,5552 5050,5552 5050,5256.67 5232,5256.67 z " fill-rule="evenodd" fill="rgb(255,0,0)" stroke-width="5" stroke="rgb(0,0,0)" />
	<path d="M5534,1947.33 5234,1947.33 5234,1352.29 5534,1474.1 5534,1947.33 z " fill-rule="evenodd" fill="rgb(255,0,0)" stroke-width="5" stroke="rgb(0,0,0)" />
	<path d="M5234,4655.33 5534,4655.33 5534,5552 5234,5552 5234,4655.33 z " fill-rule="evenodd" fill="rgb(255,0,0)" stroke-width="5" stroke="rgb(0,0,0)" />
	<path d="M5836,2248 5536,2248 5536,1474.91 5836,1596.72 5836,2248 z " fill-rule="evenodd" fill="rgb(255,0,0)" stroke-width="5" stroke="rgb(0,0,0)" />
	<path d="M5536,4956 5836,4956 5836,5552 5536,5552 5536,4956 z " fill-rule="evenodd" fill="rgb(255,0,0)" stroke-width="5" stroke="rgb(0,0,0)" />
	<path d="M5838,1646.67 5838,1597.53 5959.01,1646.67 5838,1646.67 z " fill-rule="evenodd" fill="rgb(255,0,0)" stroke-width="5" stroke="rgb(0,0,0)" />
	<path d="M6138,2548.67 5838,2548.67 5838,1648.67 5963.93,1648.67 6138,1719.34 6138,2548.67 z " fill-rule="evenodd" fill="rgb(255,0,0)" stroke-width="5" stroke="rgb(0,0,0)" />
	<path d="M5838,5256.67 6138,5256.67 6138,5552 5838,5552 5838,5256.67 z " fill-rule="evenodd" fill="rgb(255,0,0)" stroke-width="5" stroke="rgb(0,0,0)" />
	<path d="M6440,1947.33 6140,1947.33 6140,1720.16 6440,1841.97 6440,1947.33 z " fill-rule="evenodd" fill="rgb(255,0,0)" stroke-width="5" stroke="rgb(0,0,0)" />
	<path d="M6140,4655.33 6440,4655.33 6440,5552 6140,5552 6140,4655.33 z " fill-rule="evenodd" fill="rgb(255,0,0)" stroke-width="5" stroke="rgb(0,0,0)" />
	<path d="M6742,2248 6442,2248 6442,1842.78 6742,1964.59 6742,2248 z " fill-rule="evenodd" fill="rgb(255,0,0)" stroke-width="5" stroke="rgb(0,0,0)" />
	<path d="M6442,4956 6742,4956 6742,5552 6442,5552 6442,4956 z " fill-rule="evenodd" fill="rgb(255,0,0)" stroke-width="5" stroke="rgb(0,0,0)" />
	<path d="M7044,2548.67 6744,2548.67 6744,1965.4 7044,2087.21 7044,2548.67 z " fill-rule="evenodd" fill="rgb(255,0,0)" stroke-width="5" stroke="rgb(0,0,0)" />
	<path d="M6744,5256.67 7044,5256.67 7044,5552 6744,5552 6744,5256.67 z " fill-rule="evenodd" fill="rgb(255,0,0)" stroke-width="5" stroke="rgb(0,0,0)" />
	<path d="M7346,2849.33 7046,2849.33 7046,2088.02 7346,2209.83 7346,2849.33 z " fill-rule="evenodd" fill="rgb(255,0,0)" stroke-width="5" stroke="rgb(0,0,0)" />
	<path d="M7046,4655.33 7346,4655.33 7346,5552 7046,5552 7046,4655.33 z " fill-rule="evenodd" fill="rgb(255,0,0)" stroke-width="5" stroke="rgb(0,0,0)" />
	<path d="M7348,2248 7348,2210.65 7440,2248 7348,2248 z " fill-rule="evenodd" fill="rgb(255,0,0)" stroke-width="5" stroke="rgb(0,0,0)" />
	<path d="M7648,3150 7348,3150 7348,2250 7444.93,2250 7648,2332.46 7648,3150 z " fill-rule="evenodd" fill="rgb(255,0,0)" stroke-width="5" stroke="rgb(0,0,0)" />
	<path d="M7348,4956 7648,4956 7648,5552 7348,5552 7348,4956 z " fill-rule="evenodd" fill="rgb(255,0,0)" stroke-width="5" stroke="rgb(0,0,0)" />
	<path d="M7950,2548.67 7650,2548.67 7650,2333.27 7950,2455.08 7950,2548.67 z " fill-rule="evenodd" fill="rgb(255,0,0)" stroke-width="5" stroke="rgb(0,0,0)" />
	<path d="M7650,5256.67 7950,5256.67 7950,5552 7650,5552 7650,5256.67 z " fill-rule="evenodd" fill="rgb(255,0,0)" stroke-width="5" stroke="rgb(0,0,0)" />
	<path d="M8252,2849.33 7952,2849.33 7952,2455.89 8252,2577.7 8252,2849.33 z " fill-rule="evenodd" fill="rgb(255,0,0)" stroke-width="5" stroke="rgb(0,0,0)" />
	<path d="M7952,4655.33 8252,4655.33 8252,5552 7952,5552 7952,4655.33 z " fill-rule="evenodd" fill="rgb(255,0,0)" stroke-width="5" stroke="rgb(0,0,0)" />
	<path d="M8554,3150 8254,3150 8254,2578.51 8554,2700.32 8554,3150 z " fill-rule="evenodd" fill="rgb(255,0,0)" stroke-width="5" stroke="rgb(0,0,0)" />
	<path d="M8254,4956 8554,4956 8554,5552 8254,5552 8254,4956 z " fill-rule="evenodd" fill="rgb(255,0,0)" stroke-width="5" stroke="rgb(0,0,0)" />
	<path d="M8556,3450.67 8556,2701.13 8600,2719 8600,3450.67 8556,3450.67 z " fill-rule="evenodd" fill="rgb(255,0,0)" stroke-width="5" stroke="rgb(0,0,0)" />
	<path d="M8556,4352.67 8556,3452.67 8600,3452.67 8600,4352.67 8556,4352.67 z " fill-rule="evenodd" fill="rgb(255,0,0)" stroke-width="5" stroke="rgb(0,0,0)" />
	<path d="M8556,5254.67 8556,4354.67 8600,4354.67 8600,5254.67 8556,5254.67 z " fill-rule="evenodd" fill="rgb(255,0,0)" stroke-width="5" stroke="rgb(0,0,0)" />
	<path d="M8556,5256.67 8600,5256.67 8600,5552 8556,5552 8556,5256.67 z " fill-rule="evenodd" fill="rgb(255,0,0)" stroke-width="5" stroke="rgb(0,0,0)" />
	<polyline points="95,3157 95,4057 95,3157 995,3157 95,3157 " fill="none" stroke-width="100" stroke="rgb(0,0,0)" />
	<circle cx="95" cy="3157" r="-15" fill="rgb(0,0,0)" />
	<circle cx="95" cy="4057" r="-15" fill="rgb(0,0,0)" />
	<circle cx="95" cy="3157" r="-15" fill="rgb(0,0,0)" />
	<circle cx="995" cy="3157" r="-15" fill="rgb(0,0,0)" />
	<circle cx="95" cy="3157" r="-15" fill="rgb(0,0,0)" />
	<polyline points="95,4147 95,3157 -895,3157 " fill="none" stroke-width="0.5" stroke="rgb(128,0,128)" />
</svg>
