<?xml version="1.0" standalone="no" ?>
<!DOCTYPE svg PUBLIC "-//W3C//DTD SVG 1.1//EN" "http://www.w3.org/Graphics/SVG/1.1/DTD/svg11.dtd">
<svg width="8700px" height="7052px" xmlns="http://www.w3.org/2000/svg" version="1.1" >
	<path d="M1747.33,1904 2647.33,1904 2647.33,1604 1747.33,1604 1747.33,1904 z " fill-rule="evenodd" fill="rgb(0,128,0)" stroke-width="5" stroke="rgb(0,0,0)" />
	<path d="M2649.33,1904 3549.33,1904 3549.33,1604 2649.33,1604 2649.33,1904 z " fill-rule="evenodd" fill="rgb(0,128,0)" stroke-width="5" stroke="rgb(0,0,0)" />
	<path d="M3551.33,1904 4451.33,1904 4451.33,1604 3551.33,1604 3551.33,1904 z " fill-rule="evenodd" fill="rgb(0,128,0)" stroke-width="5" stroke="rgb(0,0,0)" />
	<path d="M3852,1602 4752,1602 4752,1302 3852,1302 3852,1602 z " fill-rule="evenodd" fill="rgb(0,128,0)" stroke-width="5" stroke="rgb(0,0,0)" />
	<path d="M544.667,2206 1444.67,2206 1444.67,1906 544.667,1906 544.667,2206 z " fill-rule="evenodd" fill="rgb(0,128,0)" stroke-width="5" stroke="rgb(0,0,0)" />
	<path d="M1446.67,2206 2346.67,2206 2346.67,1906 1446.67,1906 1446.67,2206 z " fill-rule="evenodd" fill="rgb(0,128,0)" stroke-width="5" stroke="rgb(0,0,0)" />
	<path d="M2348.67,2206 3248.67,2206 3248.67,1906 2348.67,1906 2348.67,2206 z " fill-rule="evenodd" fill="rgb(0,128,0)" stroke-width="5" stroke="rgb(0,0,0)" />
	<path d="M845.333,1904 1745.33,1904 1745.33,1604 845.333,1604 845.333,1904 z " fill-rule="evenodd" fill="rgb(0,128,0)" stroke-width="5" stroke="rgb(0,0,0)" />
	<path d="M3250.67,2206 4150.67,2206 4150.67,1906 3250.67,1906 3250.67,2206 z " fill-rule="evenodd" fill="rgb(0,128,0)" stroke-width="5" stroke="rgb(0,0,0)" />
	<path d="M4152.67,2206 5052.67,2206 5052.67,1906 4152.67,1906 4152.67,2206 z " fill-rule="evenodd" fill="rgb(0,128,0)" stroke-width="5" stroke="rgb(0,0,0)" />
	<path d="M4453.33,1904 5353.33,1904 5353.33,1604 4453.33,1604 4453.33,1904 z " fill-rule="evenodd" fill="rgb(0,128,0)" stroke-width="5" stroke="rgb(0,0,0)" />
	<path d="M244,2508 1144,2508 1144,2208 244,2208 244,2508 z " fill-rule="evenodd" fill="rgb(0,128,0)" stroke-width="5" stroke="rgb(0,0,0)" />
	<path d="M1146,2508 2046,2508 2046,2208 1146,2208 1146,2508 z " fill-rule="evenodd" fill="rgb(0,128,0)" stroke-width="5" stroke="rgb(0,0,0)" />
	<path d="M2048,2508 2948,2508 2948,2208 2048,2208 2048,2508 z " fill-rule="evenodd" fill="rgb(0,128,0)" stroke-width="5" stroke="rgb(0,0,0)" />
	<path d="M2950,2508 3850,2508 3850,2208 2950,2208 2950,2508 z " fill-rule="evenodd" fill="rgb(0,128,0)" stroke-width="5" stroke="rgb(0,0,0)" />
	<path d="M3852,2508 4752,2508 4752,2208 3852,2208 3852,2508 z " fill-rule="evenodd" fill="rgb(0,128,0)" stroke-width="5" stroke="rgb(0,0,0)" />
	<path d="M4754,2508 5654,2508 5654,2208 4754,2208 4754,2508 z " fill-rule="evenodd" fill="rgb(0,128,0)" stroke-width="5" stroke="rgb(0,0,0)" />
	<path d="M5054.67,2206 5954.67,2206 5954.67,1906 5054.67,1906 5054.67,2206 z " fill-rule="evenodd" fill="rgb(0,128,0)" stroke-width="5" stroke="rgb(0,0,0)" />
	<path d="M845.333,2810 1745.33,2810 1745.33,2510 845.333,2510 845.333,2810 z " fill-rule="evenodd" fill="rgb(0,128,0)" stroke-width="5" stroke="rgb(0,0,0)" />
	<path d="M1747.33,2810 2647.33,2810 2647.33,2510 1747.33,2510 1747.33,2810 z " fill-rule="evenodd" fill="rgb(0,128,0)" stroke-width="5" stroke="rgb(0,0,0)" />
	<path d="M2649.33,2810 3549.33,2810 3549.33,2510 2649.33,2510 2649.33,2810 z " fill-rule="evenodd" fill="rgb(0,128,0)" stroke-width="5" stroke="rgb(0,0,0)" />
	<path d="M3551.33,2810 4451.33,2810 4451.33,2510 3551.33,2510 3551.33,2810 z " fill-rule="evenodd" fill="rgb(0,128,0)" stroke-width="5" stroke="rgb(0,0,0)" />
	<path d="M4453.33,2810 5353.33,2810 5353.33,2510 4453.33,2510 4453.33,2810 z " fill-rule="evenodd" fill="rgb(0,128,0)" stroke-width="5" stroke="rgb(0,0,0)" />
	<path d="M5355.33,2810 6255.33,2810 6255.33,2510 5355.33,2510 5355.33,2810 z " fill-rule="evenodd" fill="rgb(0,128,0)" stroke-width="5" stroke="rgb(0,0,0)" />
	<path d="M5656,2508 6556,2508 6556,2208 5656,2208 5656,2508 z " fill-rule="evenodd" fill="rgb(0,128,0)" stroke-width="5" stroke="rgb(0,0,0)" />
	<path d="M5054.67,3112 5954.67,3112 5954.67,2812 5054.67,2812 5054.67,3112 z " fill-rule="evenodd" fill="rgb(0,128,0)" stroke-width="5" stroke="rgb(0,0,0)" />
	<path d="M5956.67,3112 6856.67,3112 6856.67,2812 5956.67,2812 5956.67,3112 z " fill-rule="evenodd" fill="rgb(0,128,0)" stroke-width="5" stroke="rgb(0,0,0)" />
	<path d="M6257.33,2810 7157.33,2810 7157.33,2510 6257.33,2510 6257.33,2810 z " fill-rule="evenodd" fill="rgb(0,128,0)" stroke-width="5" stroke="rgb(0,0,0)" />
	<path d="M3852,3414 4752,3414 4752,3114 3852,3114 3852,3414 z " fill-rule="evenodd" fill="rgb(0,128,0)" stroke-width="5" stroke="rgb(0,0,0)" />
	<path d="M5656,3414 6556,3414 6556,3114 5656,3114 5656,3414 z " fill-rule="evenodd" fill="rgb(0,128,0)" stroke-width="5" stroke="rgb(0,0,0)" />
	<path d="M6558,3414 7458,3414 7458,3114 6558,3114 6558,3414 z " fill-rule="evenodd" fill="rgb(0,128,0)" stroke-width="5" stroke="rgb(0,0,0)" />
	<path d="M6858.67,3112 7758.67,3112 7758.67,2812 6858.67,2812 6858.67,3112 z " fill-rule="evenodd" fill="rgb(0,128,0)" stroke-width="5" stroke="rgb(0,0,0)" />
	<path d="M7159.33,2810 8059.33,2810 8059.33,2510 7159.33,2510 7159.33,2810 z " fill-rule="evenodd" fill="rgb(0,128,0)" stroke-width="5" stroke="rgb(0,0,0)" />
	<path d="M845.333,3716 1745.33,3716 1745.33,3416 845.333,3416 845.333,3716 z " fill-rule="evenodd" fill="rgb(0,128,0)" stroke-width="5" stroke="rgb(0,0,0)" />
	<path d="M1747.33,3716 2647.33,3716 2647.33,3416 1747.33,3416 1747.33,3716 z " fill-rule="evenodd" fill="rgb(0,128,0)" stroke-width="5" stroke="rgb(0,0,0)" />
	<path d="M5355.33,3716 6255.33,3716 6255.33,3416 5355.33,3416 5355.33,3716 z " fill-rule="evenodd" fill="rgb(0,128,0)" stroke-width="5" stroke="rgb(0,0,0)" />
	<path d="M6257.33,3716 7157.33,3716 7157.33,3416 6257.33,3416 6257.33,3716 z " fill-rule="evenodd" fill="rgb(0,128,0)" stroke-width="5" stroke="rgb(0,0,0)" />
	<path d="M7159.33,3716 8059.33,3716 8059.33,3416 7159.33,3416 7159.33,3716 z " fill-rule="evenodd" fill="rgb(0,128,0)" stroke-width="5" stroke="rgb(0,0,0)" />
	<path d="M7460,3414 8360,3414 8360,3114 7460,3114 7460,3414 z " fill-rule="evenodd" fill="rgb(0,128,0)" stroke-width="5" stroke="rgb(0,0,0)" />
	<path d="M544.667,4018 1444.67,4018 1444.67,3718 544.667,3718 544.667,4018 z " fill-rule="evenodd" fill="rgb(0,128,0)" stroke-width="5" stroke="rgb(0,0,0)" />
	<path d="M1446.67,4018 2346.67,4018 2346.67,3718 1446.67,3718 1446.67,4018 z " fill-rule="evenodd" fill="rgb(0,128,0)" stroke-width="5" stroke="rgb(0,0,0)" />
	<path d="M5054.67,4018 5954.67,4018 5954.67,3718 5054.67,3718 5054.67,4018 z " fill-rule="evenodd" fill="rgb(0,128,0)" stroke-width="5" stroke="rgb(0,0,0)" />
	<path d="M5956.67,4018 6856.67,4018 6856.67,3718 5956.67,3718 5956.67,4018 z " fill-rule="evenodd" fill="rgb(0,128,0)" stroke-width="5" stroke="rgb(0,0,0)" />
	<path d="M6858.67,4018 7758.67,4018 7758.67,3718 6858.67,3718 6858.67,4018 z " fill-rule="evenodd" fill="rgb(0,128,0)" stroke-width="5" stroke="rgb(0,0,0)" />
	<path d="M244,4320 1144,4320 1144,4020 244,4020 244,4320 z " fill-rule="evenodd" fill="rgb(0,128,0)" stroke-width="5" stroke="rgb(0,0,0)" />
	<path d="M1146,4320 2046,4320 2046,4020 1146,4020 1146,4320 z " fill-rule="evenodd" fill="rgb(0,128,0)" stroke-width="5" stroke="rgb(0,0,0)" />
	<path d="M3852,4320 4752,4320 4752,4020 3852,4020 3852,4320 z " fill-rule="evenodd" fill="rgb(0,128,0)" stroke-width="5" stroke="rgb(0,0,0)" />
	<path d="M5656,4320 6556,4320 6556,4020 5656,4020 5656,4320 z " fill-rule="evenodd" fill="rgb(0,128,0)" stroke-width="5" stroke="rgb(0,0,0)" />
	<path d="M6558,4320 7458,4320 7458,4020 6558,4020 6558,4320 z " fill-rule="evenodd" fill="rgb(0,128,0)" stroke-width="5" stroke="rgb(0,0,0)" />
	<path d="M7460,4320 8360,4320 8360,4020 7460,4020 7460,4320 z " fill-rule="evenodd" fill="rgb(0,128,0)" stroke-width="5" stroke="rgb(0,0,0)" />
	<path d="M845.333,4622 1745.33,4622 1745.33,4322 845.333,4322 845.333,4622 z " fill-rule="evenodd" fill="rgb(0,128,0)" stroke-width="5" stroke="rgb(0,0,0)" />
	<path d="M1747.33,4622 2647.33,4622 2647.33,4322 1747.33,4322 1747.33,4622 z " fill-rule="evenodd" fill="rgb(0,128,0)" stroke-width="5" stroke="rgb(0,0,0)" />
	<path d="M5355.33,4622 6255.33,4622 6255.33,4322 5355.33,4322 5355.33,4622 z " fill-rule="evenodd" fill="rgb(0,128,0)" stroke-width="5" stroke="rgb(0,0,0)" />
	<path d="M6257.33,4622 7157.33,4622 7157.33,4322 6257.33,4322 6257.33,4622 z " fill-rule="evenodd" fill="rgb(0,128,0)" stroke-width="5" stroke="rgb(0,0,0)" />
	<path d="M7159.33,4622 8059.33,4622 8059.33,4322 7159.33,4322 7159.33,4622 z " fill-rule="evenodd" fill="rgb(0,128,0)" stroke-width="5" stroke="rgb(0,0,0)" />
	<path d="M544.667,4924 1444.67,4924 1444.67,4624 544.667,4624 544.667,4924 z " fill-rule="evenodd" fill="rgb(0,128,0)" stroke-width="5" stroke="rgb(0,0,0)" />
	<path d="M1446.67,4924 2346.67,4924 2346.67,4624 1446.67,4624 1446.67,4924 z " fill-rule="evenodd" fill="rgb(0,128,0)" stroke-width="5" stroke="rgb(0,0,0)" />
	<path d="M5054.67,4924 5954.67,4924 5954.67,4624 5054.67,4624 5054.67,4924 z " fill-rule="evenodd" fill="rgb(0,128,0)" stroke-width="5" stroke="rgb(0,0,0)" />
	<path d="M5956.67,4924 6856.67,4924 6856.67,4624 5956.67,4624 5956.67,4924 z " fill-rule="evenodd" fill="rgb(0,128,0)" stroke-width="5" stroke="rgb(0,0,0)" />
	<path d="M6858.67,4924 7758.67,4924 7758.67,4624 6858.67,4624 6858.67,4924 z " fill-rule="evenodd" fill="rgb(0,128,0)" stroke-width="5" stroke="rgb(0,0,0)" />
	<path d="M244,5226 1144,5226 1144,4926 244,4926 244,5226 z " fill-rule="evenodd" fill="rgb(0,128,0)" stroke-width="5" stroke="rgb(0,0,0)" />
	<path d="M1146,5226 2046,5226 2046,4926 1146,4926 1146,5226 z " fill-rule="evenodd" fill="rgb(0,128,0)" stroke-width="5" stroke="rgb(0,0,0)" />
	<path d="M5656,5226 6556,5226 6556,4926 5656,4926 5656,5226 z " fill-rule="evenodd" fill="rgb(0,128,0)" stroke-width="5" stroke="rgb(0,0,0)" />
	<path d="M6558,5226 7458,5226 7458,4926 6558,4926 6558,5226 z " fill-rule="evenodd" fill="rgb(0,128,0)" stroke-width="5" stroke="rgb(0,0,0)" />
	<path d="M7460,5226 8360,5226 8360,4926 7460,4926 7460,5226 z " fill-rule="evenodd" fill="rgb(0,128,0)" stroke-width="5" stroke="rgb(0,0,0)" />
	<path d="M845.333,5528 1745.33,5528 1745.33,5228 845.333,5228 845.333,5528 z " fill-rule="evenodd" fill="rgb(0,128,0)" stroke-width="5" stroke="rgb(0,0,0)" />
	<path d="M1747.33,5528 2647.33,5528 2647.33,5228 1747.33,5228 1747.33,5528 z " fill-rule="evenodd" fill="rgb(0,128,0)" stroke-width="5" stroke="rgb(0,0,0)" />
	<path d="M5355.33,5528 6255.33,5528 6255.33,5228 5355.33,5228 5355.33,5528 z " fill-rule="evenodd" fill="rgb(0,128,0)" stroke-width="5" stroke="rgb(0,0,0)" />
	<path d="M6257.33,5528 7157.33,5528 7157.33,5228 6257.33,5228 6257.33,5528 z " fill-rule="evenodd" fill="rgb(0,128,0)" stroke-width="5" stroke="rgb(0,0,0)" />
	<path d="M7159.33,5528 8059.33,5528 8059.33,5228 7159.33,5228 7159.33,5528 z " fill-rule="evenodd" fill="rgb(0,128,0)" stroke-width="5" stroke="rgb(0,0,0)" />
	<path d="M544.667,5830 1444.67,5830 1444.67,5530 544.667,5530 544.667,5830 z " fill-rule="evenodd" fill="rgb(0,128,0)" stroke-width="5" stroke="rgb(0,0,0)" />
	<path d="M1446.67,5830 2346.67,5830 2346.67,5530 1446.67,5530 1446.67,5830 z " fill-rule="evenodd" fill="rgb(0,128,0)" stroke-width="5" stroke="rgb(0,0,0)" />
	<path d="M244,6132 1144,6132 1144,5832 244,5832 244,6132 z " fill-rule="evenodd" fill="rgb(0,128,0)" stroke-width="5" stroke="rgb(0,0,0)" />
	<path d="M1146,6132 2046,6132 2046,5832 1146,5832 1146,6132 z " fill-rule="evenodd" fill="rgb(0,128,0)" stroke-width="5" stroke="rgb(0,0,0)" />
	<path d="M845.333,6434 1745.33,6434 1745.33,6134 845.333,6134 845.333,6434 z " fill-rule="evenodd" fill="rgb(0,128,0)" stroke-width="5" stroke="rgb(0,0,0)" />
	<path d="M1747.33,6434 2647.33,6434 2647.33,6134 1747.33,6134 1747.33,6434 z " fill-rule="evenodd" fill="rgb(0,128,0)" stroke-width="5" stroke="rgb(0,0,0)" />
	<path d="M544.667,6736 1444.67,6736 1444.67,6436 544.667,6436 544.667,6736 z " fill-rule="evenodd" fill="rgb(0,128,0)" stroke-width="5" stroke="rgb(0,0,0)" />
	<path d="M1446.67,6736 2346.67,6736 2346.67,6436 1446.67,6436 1446.67,6736 z " fill-rule="evenodd" fill="rgb(0,128,0)" stroke-width="5" stroke="rgb(0,0,0)" />
	<path d="M2948,1302 2948,1602 2150,1602 2150,1302 2948,1302 z " fill-rule="evenodd" fill="rgb(255,0,0)" stroke-width="5" stroke="rgb(0,0,0)" />
	<path d="M3850,1302 3850,1602 3147,1602 3268.66,1302 3850,1302 z " fill-rule="evenodd" fill="rgb(255,0,0)" stroke-width="5" stroke="rgb(0,0,0)" />
	<path d="M2950,1302 3161.14,1302 3080,1502 2950,1502 2950,1302 z " fill-rule="evenodd" fill="rgb(255,0,0)" stroke-width="5" stroke="rgb(0,0,0)" />
	<path d="M2348.67,1300 2348.67,1000 3248.67,1000 3248.67,1086.24 3161.95,1300 2348.67,1300 z " fill-rule="evenodd" fill="rgb(255,0,0)" stroke-width="5" stroke="rgb(0,0,0)" />
	<path d="M4150.67,1000 4150.67,1300 3269.47,1300 3391.12,1000 4150.67,1000 z " fill-rule="evenodd" fill="rgb(255,0,0)" stroke-width="5" stroke="rgb(0,0,0)" />
	<path d="M3250.67,1000 3283.65,1000 3250.67,1081.31 3250.67,1000 z " fill-rule="evenodd" fill="rgb(255,0,0)" stroke-width="5" stroke="rgb(0,0,0)" />
	<path d="M5052.67,1300 4152.67,1300 4152.67,1000 4366.37,1000 5052.67,1278.66 5052.67,1300 z " fill-rule="evenodd" fill="rgb(255,0,0)" stroke-width="5" stroke="rgb(0,0,0)" />
	<path d="M1146,1602 1146,1502 1400,1502 1400,1602 1146,1602 z " fill-rule="evenodd" fill="rgb(255,0,0)" stroke-width="5" stroke="rgb(0,0,0)" />
	<path d="M5654,1602 4754,1602 4754,1302 5110.15,1302 5654,1522.82 5654,1602 z " fill-rule="evenodd" fill="rgb(255,0,0)" stroke-width="5" stroke="rgb(0,0,0)" />
	<path d="M2346.67,1000 2346.67,1300 2150,1300 2150,1000 2346.67,1000 z " fill-rule="evenodd" fill="rgb(255,0,0)" stroke-width="5" stroke="rgb(0,0,0)" />
	<path d="M5054.67,1300 5054.67,1279.47 5105.22,1300 5054.67,1300 z " fill-rule="evenodd" fill="rgb(255,0,0)" stroke-width="5" stroke="rgb(0,0,0)" />
	<path d="M2647.33,698 2647.33,998 2150,998 2150,698 2647.33,698 z " fill-rule="evenodd" fill="rgb(255,0,0)" stroke-width="5" stroke="rgb(0,0,0)" />
	<path d="M2649.33,998 2649.33,698 3406.17,698 3284.46,998 2649.33,998 z " fill-rule="evenodd" fill="rgb(255,0,0)" stroke-width="5" stroke="rgb(0,0,0)" />
	<path d="M3549.33,698 3549.33,998 3391.93,998 3513.59,698 3549.33,698 z " fill-rule="evenodd" fill="rgb(255,0,0)" stroke-width="5" stroke="rgb(0,0,0)" />
	<path d="M3551.33,998 3551.33,698 3622.59,698 4361.44,998 3551.33,998 z " fill-rule="evenodd" fill="rgb(255,0,0)" stroke-width="5" stroke="rgb(0,0,0)" />
	<path d="M242,2208 242,2508 100,2508 100,2208 242,2208 z " fill-rule="evenodd" fill="rgb(255,0,0)" stroke-width="5" stroke="rgb(0,0,0)" />
	<path d="M542.667,1906 542.667,2206 100,2206 100,1906 542.667,1906 z " fill-rule="evenodd" fill="rgb(255,0,0)" stroke-width="5" stroke="rgb(0,0,0)" />
	<path d="M843.333,1604 843.333,1904 100,1904 100,1604 843.333,1604 z " fill-rule="evenodd" fill="rgb(255,0,0)" stroke-width="5" stroke="rgb(0,0,0)" />
	<path d="M1144,1602 700,1602 700,1502 1144,1502 1144,1602 z " fill-rule="evenodd" fill="rgb(255,0,0)" stroke-width="5" stroke="rgb(0,0,0)" />
	<path d="M6255.33,1904 5355.33,1904 5355.33,1604 5853.93,1604 6255.33,1766.98 6255.33,1904 z " fill-rule="evenodd" fill="rgb(255,0,0)" stroke-width="5" stroke="rgb(0,0,0)" />
	<path d="M5656,1602 5656,1523.63 5849,1602 5656,1602 z " fill-rule="evenodd" fill="rgb(255,0,0)" stroke-width="5" stroke="rgb(0,0,0)" />
	<path d="M2948,696 2150,696 2150,396 2879.79,396 2948,423.664 2948,696 z " fill-rule="evenodd" fill="rgb(255,0,0)" stroke-width="5" stroke="rgb(0,0,0)" />
	<path d="M2950,696 2950,424.476 3437,622 3406.98,696 2950,696 z " fill-rule="evenodd" fill="rgb(255,0,0)" stroke-width="5" stroke="rgb(0,0,0)" />
	<path d="M3514.4,696 3529,660 3617.66,696 3514.4,696 z " fill-rule="evenodd" fill="rgb(255,0,0)" stroke-width="5" stroke="rgb(0,0,0)" />
	<path d="M843.333,2510 843.333,2810 100,2810 100,2510 843.333,2510 z " fill-rule="evenodd" fill="rgb(255,0,0)" stroke-width="5" stroke="rgb(0,0,0)" />
	<path d="M6856.67,2206 5956.67,2206 5956.67,1906 6597.71,1906 6856.67,2011.15 6856.67,2206 z " fill-rule="evenodd" fill="rgb(255,0,0)" stroke-width="5" stroke="rgb(0,0,0)" />
	<path d="M6257.33,1904 6257.33,1767.8 6592.78,1904 6257.33,1904 z " fill-rule="evenodd" fill="rgb(255,0,0)" stroke-width="5" stroke="rgb(0,0,0)" />
	<path d="M2346.67,394 2150,394 2150,100 2346.67,179.767 2346.67,394 z " fill-rule="evenodd" fill="rgb(255,0,0)" stroke-width="5" stroke="rgb(0,0,0)" />
	<path d="M2348.67,394 2348.67,180.578 2874.86,394 2348.67,394 z " fill-rule="evenodd" fill="rgb(255,0,0)" stroke-width="5" stroke="rgb(0,0,0)" />
	<path d="M542.667,2812 542.667,2952 100,2952 100,2812 542.667,2812 z " fill-rule="evenodd" fill="rgb(255,0,0)" stroke-width="5" stroke="rgb(0,0,0)" />
	<path d="M544.667,2812 1444.67,2812 1444.67,2952 544.667,2952 544.667,2812 z " fill-rule="evenodd" fill="rgb(255,0,0)" stroke-width="5" stroke="rgb(0,0,0)" />
	<path d="M1446.67,2812 2346.67,2812 2346.67,3112 2050,3112 2050,2952 1446.67,2952 1446.67,2812 z " fill-rule="evenodd" fill="rgb(255,0,0)" stroke-width="5" stroke="rgb(0,0,0)" />
	<path d="M2348.67,3112 2348.67,2812 3248.67,2812 3248.67,2952 2850,2952 2850,3112 2348.67,3112 z " fill-rule="evenodd" fill="rgb(255,0,0)" stroke-width="5" stroke="rgb(0,0,0)" />
	<path d="M4150.67,3112 3700,3112 3700,3052 4150.67,3052 4150.67,3112 z " fill-rule="evenodd" fill="rgb(255,0,0)" stroke-width="5" stroke="rgb(0,0,0)" />
	<path d="M3250.67,2812 4150.67,2812 4150.67,2952 3250.67,2952 3250.67,2812 z " fill-rule="evenodd" fill="rgb(255,0,0)" stroke-width="5" stroke="rgb(0,0,0)" />
	<path d="M4152.67,3112 4152.67,3052 4200,3052 4200,2952 4152.67,2952 4152.67,2812 5052.67,2812 5052.67,3112 5050,3112 5050,2952 4900,2952 4900,3052 4950,3052 4950,3112 4152.67,3112 z " fill-rule="evenodd" fill="rgb(255,0,0)" stroke-width="5" stroke="rgb(0,0,0)" />
	<path d="M7458,2508 6558,2508 6558,2208 7341.49,2208 7458,2255.31 7458,2508 z " fill-rule="evenodd" fill="rgb(255,0,0)" stroke-width="5" stroke="rgb(0,0,0)" />
	<path d="M6858.67,2206 6858.67,2011.96 7336.56,2206 6858.67,2206 z " fill-rule="evenodd" fill="rgb(255,0,0)" stroke-width="5" stroke="rgb(0,0,0)" />
	<path d="M242,3414 100,3414 100,3152 242,3152 242,3414 z " fill-rule="evenodd" fill="rgb(255,0,0)" stroke-width="5" stroke="rgb(0,0,0)" />
	<path d="M1144,3414 244,3414 244,3152 1144,3152 1144,3414 z " fill-rule="evenodd" fill="rgb(255,0,0)" stroke-width="5" stroke="rgb(0,0,0)" />
	<path d="M2046,3414 1146,3414 1146,3152 2046,3152 2046,3414 z " fill-rule="evenodd" fill="rgb(255,0,0)" stroke-width="5" stroke="rgb(0,0,0)" />
	<path d="M2048,3414 2048,3152 2050,3152 2050,3114 2850,3114 2850,3152 2900,3152 2900,3414 2048,3414 z " fill-rule="evenodd" fill="rgb(255,0,0)" stroke-width="5" stroke="rgb(0,0,0)" />
	<path d="M3850,3114 3850,3414 3700,3414 3700,3114 3850,3114 z " fill-rule="evenodd" fill="rgb(255,0,0)" stroke-width="5" stroke="rgb(0,0,0)" />
	<path d="M4754,3414 4754,3114 4950,3114 4950,3414 4754,3414 z " fill-rule="evenodd" fill="rgb(255,0,0)" stroke-width="5" stroke="rgb(0,0,0)" />
	<path d="M5654,3114 5654,3414 5050,3414 5050,3114 5654,3114 z " fill-rule="evenodd" fill="rgb(255,0,0)" stroke-width="5" stroke="rgb(0,0,0)" />
	<path d="M7460,2508 7460,2256.12 8080.34,2508 7460,2508 z " fill-rule="evenodd" fill="rgb(255,0,0)" stroke-width="5" stroke="rgb(0,0,0)" />
	<path d="M843.333,3416 843.333,3716 100,3716 100,3416 843.333,3416 z " fill-rule="evenodd" fill="rgb(255,0,0)" stroke-width="5" stroke="rgb(0,0,0)" />
	<path d="M2649.33,3716 2649.33,3416 2900,3416 2900,3716 2649.33,3716 z " fill-rule="evenodd" fill="rgb(255,0,0)" stroke-width="5" stroke="rgb(0,0,0)" />
	<path d="M4451.33,3416 4451.33,3716 3700,3716 3700,3416 4451.33,3416 z " fill-rule="evenodd" fill="rgb(255,0,0)" stroke-width="5" stroke="rgb(0,0,0)" />
	<path d="M4453.33,3716 4453.33,3416 4950,3416 4950,3716 4453.33,3716 z " fill-rule="evenodd" fill="rgb(255,0,0)" stroke-width="5" stroke="rgb(0,0,0)" />
	<path d="M5353.33,3416 5353.33,3716 5050,3716 5050,3416 5353.33,3416 z " fill-rule="evenodd" fill="rgb(255,0,0)" stroke-width="5" stroke="rgb(0,0,0)" />
	<path d="M7760.67,3112 7760.67,2812 8600,2812 8600,3112 7760.67,3112 z " fill-rule="evenodd" fill="rgb(255,0,0)" stroke-width="5" stroke="rgb(0,0,0)" />
	<path d="M8061.33,2810 8061.33,2510 8085.27,2510 8600,2719 8600,2810 8061.33,2810 z " fill-rule="evenodd" fill="rgb(255,0,0)" stroke-width="5" stroke="rgb(0,0,0)" />
	<path d="M542.667,3718 542.667,4018 100,4018 100,3718 542.667,3718 z " fill-rule="evenodd" fill="rgb(255,0,0)" stroke-width="5" stroke="rgb(0,0,0)" />
	<path d="M2348.67,4018 2348.67,3718 2900,3718 2900,4018 2348.67,4018 z " fill-rule="evenodd" fill="rgb(255,0,0)" stroke-width="5" stroke="rgb(0,0,0)" />
	<path d="M4150.67,3718 4150.67,4018 3700,4018 3700,3718 4150.67,3718 z " fill-rule="evenodd" fill="rgb(255,0,0)" stroke-width="5" stroke="rgb(0,0,0)" />
	<path d="M4152.67,4018 4152.67,3718 4950,3718 4950,4018 4152.67,4018 z " fill-rule="evenodd" fill="rgb(255,0,0)" stroke-width="5" stroke="rgb(0,0,0)" />
	<path d="M5052.67,3718 5052.67,4018 5050,4018 5050,3718 5052.67,3718 z " fill-rule="evenodd" fill="rgb(255,0,0)" stroke-width="5" stroke="rgb(0,0,0)" />
	<path d="M7760.67,4018 7760.67,3718 8600,3718 8600,4018 7760.67,4018 z " fill-rule="evenodd" fill="rgb(255,0,0)" stroke-width="5" stroke="rgb(0,0,0)" />
	<path d="M8061.33,3716 8061.33,3416 8600,3416 8600,3716 8061.33,3716 z " fill-rule="evenodd" fill="rgb(255,0,0)" stroke-width="5" stroke="rgb(0,0,0)" />
	<path d="M8362,3414 8362,3114 8600,3114 8600,3414 8362,3414 z " fill-rule="evenodd" fill="rgb(255,0,0)" stroke-width="5" stroke="rgb(0,0,0)" />
	<path d="M242,4020 242,4320 100,4320 100,4020 242,4020 z " fill-rule="evenodd" fill="rgb(255,0,0)" stroke-width="5" stroke="rgb(0,0,0)" />
	<path d="M2048,4320 2048,4020 2900,4020 2900,4320 2048,4320 z " fill-rule="evenodd" fill="rgb(255,0,0)" stroke-width="5" stroke="rgb(0,0,0)" />
	<path d="M3850,4020 3850,4320 3700,4320 3700,4020 3850,4020 z " fill-rule="evenodd" fill="rgb(255,0,0)" stroke-width="5" stroke="rgb(0,0,0)" />
	<path d="M4754,4320 4754,4020 4950,4020 4950,4320 4754,4320 z " fill-rule="evenodd" fill="rgb(255,0,0)" stroke-width="5" stroke="rgb(0,0,0)" />
	<path d="M5654,4020 5654,4320 5050,4320 5050,4020 5654,4020 z " fill-rule="evenodd" fill="rgb(255,0,0)" stroke-width="5" stroke="rgb(0,0,0)" />
	<path d="M8362,4320 8362,4020 8600,4020 8600,4320 8362,4320 z " fill-rule="evenodd" fill="rgb(255,0,0)" stroke-width="5" stroke="rgb(0,0,0)" />
	<path d="M843.333,4322 843.333,4622 100,4622 100,4322 843.333,4322 z " fill-rule="evenodd" fill="rgb(255,0,0)" stroke-width="5" stroke="rgb(0,0,0)" />
	<path d="M2649.33,4622 2649.33,4322 2900,4322 2900,4622 2649.33,4622 z " fill-rule="evenodd" fill="rgb(255,0,0)" stroke-width="5" stroke="rgb(0,0,0)" />
	<path d="M4451.33,4322 4451.33,4622 3700,4622 3700,4322 4451.33,4322 z " fill-rule="evenodd" fill="rgb(255,0,0)" stroke-width="5" stroke="rgb(0,0,0)" />
	<path d="M4453.33,4622 4453.33,4322 4950,4322 4950,4622 4453.33,4622 z " fill-rule="evenodd" fill="rgb(255,0,0)" stroke-width="5" stroke="rgb(0,0,0)" />
	<path d="M5353.33,4322 5353.33,4622 5050,4622 5050,4322 5353.33,4322 z " fill-rule="evenodd" fill="rgb(255,0,0)" stroke-width="5" stroke="rgb(0,0,0)" />
	<path d="M8061.33,4622 8061.33,4322 8600,4322 8600,4622 8061.33,4622 z " fill-rule="evenodd" fill="rgb(255,0,0)" stroke-width="5" stroke="rgb(0,0,0)" />
	<path d="M542.667,4624 542.667,4924 100,4924 100,4624 542.667,4624 z " fill-rule="evenodd" fill="rgb(255,0,0)" stroke-width="5" stroke="rgb(0,0,0)" />
	<path d="M2348.67,4924 2348.67,4624 2900,4624 2900,4924 2348.67,4924 z " fill-rule="evenodd" fill="rgb(255,0,0)" stroke-width="5" stroke="rgb(0,0,0)" />
	<path d="M4150.67,4624 4150.67,4924 3700,4924 3700,4624 4150.67,4624 z " fill-rule="evenodd" fill="rgb(255,0,0)" stroke-width="5" stroke="rgb(0,0,0)" />
	<path d="M4152.67,4924 4152.67,4624 4950,4624 4950,4924 4152.67,4924 z " fill-rule="evenodd" fill="rgb(255,0,0)" stroke-width="5" stroke="rgb(0,0,0)" />
	<path d="M5052.67,4624 5052.67,4924 5050,4924 5050,4624 5052.67,4624 z " fill-rule="evenodd" fill="rgb(255,0,0)" stroke-width="5" stroke="rgb(0,0,0)" />
	<path d="M7760.67,4924 7760.67,4624 8600,4624 8600,4924 7760.67,4924 z " fill-rule="evenodd" fill="rgb(255,0,0)" stroke-width="5" stroke="rgb(0,0,0)" />
	<path d="M242,4926 242,5226 100,5226 100,4926 242,4926 z " fill-rule="evenodd" fill="rgb(255,0,0)" stroke-width="5" stroke="rgb(0,0,0)" />
	<path d="M2048,5226 2048,4926 2900,4926 2900,5226 2048,5226 z " fill-rule="evenodd" fill="rgb(255,0,0)" stroke-width="5" stroke="rgb(0,0,0)" />
	<path d="M3850,4926 3850,4952 3700,4952 3700,4926 3850,4926 z " fill-rule="evenodd" fill="rgb(255,0,0)" stroke-width="5" stroke="rgb(0,0,0)" />
	<path d="M3852,4926 4752,4926 4752,4952 3852,4952 3852,4926 z " fill-rule="evenodd" fill="rgb(255,0,0)" stroke-width="5" stroke="rgb(0,0,0)" />
	<path d="M5654,4926 5654,5226 5050,5226 5050,4926 5654,4926 z " fill-rule="evenodd" fill="rgb(255,0,0)" stroke-width="5" stroke="rgb(0,0,0)" />
	<path d="M4754,4926 4950,4926 4950,4952 4754,4952 4754,4926 z " fill-rule="evenodd" fill="rgb(255,0,0)" stroke-width="5" stroke="rgb(0,0,0)" />
	<path d="M8362,5226 8362,4926 8600,4926 8600,5226 8362,5226 z " fill-rule="evenodd" fill="rgb(255,0,0)" stroke-width="5" stroke="rgb(0,0,0)" />
	<path d="M843.333,5228 843.333,5528 100,5528 100,5228 843.333,5228 z " fill-rule="evenodd" fill="rgb(255,0,0)" stroke-width="5" stroke="rgb(0,0,0)" />
	<path d="M2649.33,5528 2649.33,5228 2900,5228 2900,5528 2649.33,5528 z " fill-rule="evenodd" fill="rgb(255,0,0)" stroke-width="5" stroke="rgb(0,0,0)" />
	<path d="M5353.33,5228 5353.33,5528 5050,5528 5050,5228 5353.33,5228 z " fill-rule="evenodd" fill="rgb(255,0,0)" stroke-width="5" stroke="rgb(0,0,0)" />
	<path d="M8061.33,5528 8061.33,5228 8600,5228 8600,5528 8061.33,5528 z " fill-rule="evenodd" fill="rgb(255,0,0)" stroke-width="5" stroke="rgb(0,0,0)" />
	<path d="M542.667,5530 542.667,5830 100,5830 100,5530 542.667,5530 z " fill-rule="evenodd" fill="rgb(255,0,0)" stroke-width="5" stroke="rgb(0,0,0)" />
	<path d="M2348.67,5830 2348.67,5530 2900,5530 2900,5830 2348.67,5830 z " fill-rule="evenodd" fill="rgb(255,0,0)" stroke-width="5" stroke="rgb(0,0,0)" />
	<path d="M5052.67,5530 5052.67,5552 5050,5552 5050,5530 5052.67,5530 z " fill-rule="evenodd" fill="rgb(255,0,0)" stroke-width="5" stroke="rgb(0,0,0)" />
	<path d="M5054.67,5530 5954.67,5530 5954.67,5552 5054.67,5552 5054.67,5530 z " fill-rule="evenodd" fill="rgb(255,0,0)" stroke-width="5" stroke="rgb(0,0,0)" />
	<path d="M5956.67,5530 6856.67,5530 6856.67,5552 5956.67,5552 5956.67,5530 z " fill-rule="evenodd" fill="rgb(255,0,0)" stroke-width="5" stroke="rgb(0,0,0)" />
	<path d="M6858.67,5530 7758.67,5530 7758.67,5552 6858.67,5552 6858.67,5530 z " fill-rule="evenodd" fill="rgb(255,0,0)" stroke-width="5" stroke="rgb(0,0,0)" />
	<path d="M7760.67,5530 8600,5530 8600,5552 7760.67,5552 7760.67,5530 z " fill-rule="evenodd" fill="rgb(255,0,0)" stroke-width="5" stroke="rgb(0,0,0)" />
	<path d="M242,5832 242,6132 100,6132 100,5832 242,5832 z " fill-rule="evenodd" fill="rgb(255,0,0)" stroke-width="5" stroke="rgb(0,0,0)" />
	<path d="M2948,6132 2048,6132 2048,5832 2900,5832 2900,6052 2948,6052 2948,6132 z " fill-rule="evenodd" fill="rgb(255,0,0)" stroke-width="5" stroke="rgb(0,0,0)" />
	<path d="M2950,6132 2950,6052 3100,6052 3100,6132 2950,6132 z " fill-rule="evenodd" fill="rgb(255,0,0)" stroke-width="5" stroke="rgb(0,0,0)" />
	<path d="M843.333,6134 843.333,6434 100,6434 100,6134 843.333,6134 z " fill-rule="evenodd" fill="rgb(255,0,0)" stroke-width="5" stroke="rgb(0,0,0)" />
	<path d="M2649.33,6434 2649.33,6134 3100,6134 3100,6434 2649.33,6434 z " fill-rule="evenodd" fill="rgb(255,0,0)" stroke-width="5" stroke="rgb(0,0,0)" />
	<path d="M542.667,6436 542.667,6736 100,6736 100,6436 542.667,6436 z " fill-rule="evenodd" fill="rgb(255,0,0)" stroke-width="5" stroke="rgb(0,0,0)" />
	<path d="M2348.67,6736 2348.67,6436 3100,6436 3100,6736 2348.67,6736 z " fill-rule="evenodd" fill="rgb(255,0,0)" stroke-width="5" stroke="rgb(0,0,0)" />
	<path d="M242,6738 242,6952 100,6952 100,6738 242,6738 z " fill-rule="evenodd" fill="rgb(255,0,0)" stroke-width="5" stroke="rgb(0,0,0)" />
	<path d="M244,6738 1144,6738 1144,6952 244,6952 244,6738 z " fill-rule="evenodd" fill="rgb(255,0,0)" stroke-width="5" stroke="rgb(0,0,0)" />
	<path d="M1146,6738 2046,6738 2046,6952 1146,6952 1146,6738 z " fill-rule="evenodd" fill="rgb(255,0,0)" stroke-width="5" stroke="rgb(0,0,0)" />
	<path d="M2048,6738 2948,6738 2948,6852 2900,6852 2900,6952 2048,6952 2048,6738 z " fill-rule="evenodd" fill="rgb(255,0,0)" stroke-width="5" stroke="rgb(0,0,0)" />
	<path d="M2950,6738 3100,6738 3100,6852 2950,6852 2950,6738 z " fill-rule="evenodd" fill="rgb(255,0,0)" stroke-width="5" stroke="rgb(0,0,0)" />
	<polyline points="2945,1607 3845,1607 2945,1607 2945,707 2945,1607 " fill="none" stroke-width="100" stroke="rgb(0,0,0)" />
	<circle cx="2945" cy="1607" r="-15" fill="rgb(0,0,0)" />
	<circle cx="3845" cy="1607" r="-15" fill="rgb(0,0,0)" />
	<circle cx="2945" cy="1607" r="-15" fill="rgb(0,0,0)" />
	<circle cx="2945" cy="707" r="-15" fill="rgb(0,0,0)" />
	<circle cx="2945" cy="1607" r="-15" fill="rgb(0,0,0)" />
	<polyline points="2945,2597 2945,1607 1955,1607 " fill="none" stroke-width="0.5" stroke="rgb(128,0,128)" />
</svg>
