<?xml version="1.0" standalone="no" ?>
<!DOCTYPE svg PUBLIC "-//W3C//DTD SVG 1.1//EN" "http://www.w3.org/Graphics/SVG/1.1/DTD/svg11.dtd">
<svg width="8700px" height="7052px" xmlns="http://www.w3.org/2000/svg" version="1.1" >
	<path d="M3382,2704.67 3382,1804.67 3082,1804.67 3082,2704.67 3382,2704.67 z " fill-rule="evenodd" fill="rgb(0,128,0)" stroke-width="5" stroke="rgb(0,0,0)" />
	<path d="M3080,1502 3080,602 2780,602 2780,1502 3080,1502 z " fill-rule="evenodd" fill="rgb(0,128,0)" stroke-width="5" stroke="rgb(0,0,0)" />
	<path d="M2778,2103.33 2778,1203.33 2478,1203.33 2478,2103.33 2778,2103.33 z " fill-rule="evenodd" fill="rgb(0,128,0)" stroke-width="5" stroke="rgb(0,0,0)" />
	<path d="M3684,2103.33 3684,1203.33 3384,1203.33 3384,2103.33 3684,2103.33 z " fill-rule="evenodd" fill="rgb(0,128,0)" stroke-width="5" stroke="rgb(0,0,0)" />
	<path d="M2778,3005.33 2778,2105.33 2478,2105.33 2478,3005.33 2778,3005.33 z " fill-rule="evenodd" fill="rgb(0,128,0)" stroke-width="5" stroke="rgb(0,0,0)" />
	<path d="M2476,2704.67 2476,1804.67 2176,1804.67 2176,2704.67 2476,2704.67 z " fill-rule="evenodd" fill="rgb(0,128,0)" stroke-width="5" stroke="rgb(0,0,0)" />
	<path d="M2476,1802.67 2476,902.667 2176,902.667 2176,1802.67 2476,1802.67 z " fill-rule="evenodd" fill="rgb(0,128,0)" stroke-width="5" stroke="rgb(0,0,0)" />
	<path d="M3986,2404 3986,1504 3686,1504 3686,2404 3986,2404 z " fill-rule="evenodd" fill="rgb(0,128,0)" stroke-width="5" stroke="rgb(0,0,0)" />
	<path d="M2778,3907.33 2778,3007.33 2478,3007.33 2478,3907.33 2778,3907.33 z " fill-rule="evenodd" fill="rgb(0,128,0)" stroke-width="5" stroke="rgb(0,0,0)" />
	<path d="M2476,3606.67 2476,2706.67 2176,2706.67 2176,3606.67 2476,3606.67 z " fill-rule="evenodd" fill="rgb(0,128,0)" stroke-width="5" stroke="rgb(0,0,0)" />
	<path d="M4288,4508.67 4288,3608.67 3988,3608.67 3988,4508.67 4288,4508.67 z " fill-rule="evenodd" fill="rgb(0,128,0)" stroke-width="5" stroke="rgb(0,0,0)" />
	<path d="M4288,2704.67 4288,1804.67 3988,1804.67 3988,2704.67 4288,2704.67 z " fill-rule="evenodd" fill="rgb(0,128,0)" stroke-width="5" stroke="rgb(0,0,0)" />
	<path d="M2778,4809.33 2778,3909.33 2478,3909.33 2478,4809.33 2778,4809.33 z " fill-rule="evenodd" fill="rgb(0,128,0)" stroke-width="5" stroke="rgb(0,0,0)" />
	<path d="M2476,4508.67 2476,3608.67 2176,3608.67 2176,4508.67 2476,4508.67 z " fill-rule="evenodd" fill="rgb(0,128,0)" stroke-width="5" stroke="rgb(0,0,0)" />
	<path d="M2174,4208 2174,3308 1874,3308 1874,4208 2174,4208 z " fill-rule="evenodd" fill="rgb(0,128,0)" stroke-width="5" stroke="rgb(0,0,0)" />
	<path d="M4590,4809.33 4590,3909.33 4290,3909.33 4290,4809.33 4590,4809.33 z " fill-rule="evenodd" fill="rgb(0,128,0)" stroke-width="5" stroke="rgb(0,0,0)" />
	<path d="M4590,3907.33 4590,3007.33 4290,3007.33 4290,3907.33 4590,3907.33 z " fill-rule="evenodd" fill="rgb(0,128,0)" stroke-width="5" stroke="rgb(0,0,0)" />
	<path d="M4590,3005.33 4590,2105.33 4290,2105.33 4290,3005.33 4590,3005.33 z " fill-rule="evenodd" fill="rgb(0,128,0)" stroke-width="5" stroke="rgb(0,0,0)" />
	<path d="M4590,2103.33 4590,1203.33 4290,1203.33 4290,2103.33 4590,2103.33 z " fill-rule="evenodd" fill="rgb(0,128,0)" stroke-width="5" stroke="rgb(0,0,0)" />
	<path d="M2778,5711.33 2778,4811.33 2478,4811.33 2478,5711.33 2778,5711.33 z " fill-rule="evenodd" fill="rgb(0,128,0)" stroke-width="5" stroke="rgb(0,0,0)" />
	<path d="M2476,5410.67 2476,4510.67 2176,4510.67 2176,5410.67 2476,5410.67 z " fill-rule="evenodd" fill="rgb(0,128,0)" stroke-width="5" stroke="rgb(0,0,0)" />
	<path d="M2174,5110 2174,4210 1874,4210 1874,5110 2174,5110 z " fill-rule="evenodd" fill="rgb(0,128,0)" stroke-width="5" stroke="rgb(0,0,0)" />
	<path d="M1872,4809.33 1872,3909.33 1572,3909.33 1572,4809.33 1872,4809.33 z " fill-rule="evenodd" fill="rgb(0,128,0)" stroke-width="5" stroke="rgb(0,0,0)" />
	<path d="M1570,4508.67 1570,3608.67 1270,3608.67 1270,4508.67 1570,4508.67 z " fill-rule="evenodd" fill="rgb(0,128,0)" stroke-width="5" stroke="rgb(0,0,0)" />
	<path d="M1570,2704.67 1570,1804.67 1270,1804.67 1270,2704.67 1570,2704.67 z " fill-rule="evenodd" fill="rgb(0,128,0)" stroke-width="5" stroke="rgb(0,0,0)" />
	<path d="M4892,4208 4892,3308 4592,3308 4592,4208 4892,4208 z " fill-rule="evenodd" fill="rgb(0,128,0)" stroke-width="5" stroke="rgb(0,0,0)" />
	<path d="M4892,3306 4892,2406 4592,2406 4592,3306 4892,3306 z " fill-rule="evenodd" fill="rgb(0,128,0)" stroke-width="5" stroke="rgb(0,0,0)" />
	<path d="M4892,2404 4892,1504 4592,1504 4592,2404 4892,2404 z " fill-rule="evenodd" fill="rgb(0,128,0)" stroke-width="5" stroke="rgb(0,0,0)" />
	<path d="M2778,6613.33 2778,5713.33 2478,5713.33 2478,6613.33 2778,6613.33 z " fill-rule="evenodd" fill="rgb(0,128,0)" stroke-width="5" stroke="rgb(0,0,0)" />
	<path d="M2476,6312.67 2476,5412.67 2176,5412.67 2176,6312.67 2476,6312.67 z " fill-rule="evenodd" fill="rgb(0,128,0)" stroke-width="5" stroke="rgb(0,0,0)" />
	<path d="M2174,6012 2174,5112 1874,5112 1874,6012 2174,6012 z " fill-rule="evenodd" fill="rgb(0,128,0)" stroke-width="5" stroke="rgb(0,0,0)" />
	<path d="M1872,5711.33 1872,4811.33 1572,4811.33 1572,5711.33 1872,5711.33 z " fill-rule="evenodd" fill="rgb(0,128,0)" stroke-width="5" stroke="rgb(0,0,0)" />
	<path d="M1570,5410.67 1570,4510.67 1270,4510.67 1270,5410.67 1570,5410.67 z " fill-rule="evenodd" fill="rgb(0,128,0)" stroke-width="5" stroke="rgb(0,0,0)" />
	<path d="M1268,5110 1268,4210 968,4210 968,5110 1268,5110 z " fill-rule="evenodd" fill="rgb(0,128,0)" stroke-width="5" stroke="rgb(0,0,0)" />
	<path d="M1268,4208 1268,3308 968,3308 968,4208 1268,4208 z " fill-rule="evenodd" fill="rgb(0,128,0)" stroke-width="5" stroke="rgb(0,0,0)" />
	<path d="M1268,2404 1268,1504 968,1504 968,2404 1268,2404 z " fill-rule="evenodd" fill="rgb(0,128,0)" stroke-width="5" stroke="rgb(0,0,0)" />
	<path d="M5194,2704.67 5194,1804.67 4894,1804.67 4894,2704.67 5194,2704.67 z " fill-rule="evenodd" fill="rgb(0,128,0)" stroke-width="5" stroke="rgb(0,0,0)" />
	<path d="M2174,6914 2174,6014 1874,6014 1874,6914 2174,6914 z " fill-rule="evenodd" fill="rgb(0,128,0)" stroke-width="5" stroke="rgb(0,0,0)" />
	<path d="M1872,6613.33 1872,5713.33 1572,5713.33 1572,6613.33 1872,6613.33 z " fill-rule="evenodd" fill="rgb(0,128,0)" stroke-width="5" stroke="rgb(0,0,0)" />
	<path d="M1570,6312.67 1570,5412.67 1270,5412.67 1270,6312.67 1570,6312.67 z " fill-rule="evenodd" fill="rgb(0,128,0)" stroke-width="5" stroke="rgb(0,0,0)" />
	<path d="M1268,6012 1268,5112 968,5112 968,6012 1268,6012 z " fill-rule="evenodd" fill="rgb(0,128,0)" stroke-width="5" stroke="rgb(0,0,0)" />
	<path d="M966,5711.33 966,4811.33 666,4811.33 666,5711.33 966,5711.33 z " fill-rule="evenodd" fill="rgb(0,128,0)" stroke-width="5" stroke="rgb(0,0,0)" />
	<path d="M966,4809.33 966,3909.33 666,3909.33 666,4809.33 966,4809.33 z " fill-rule="evenodd" fill="rgb(0,128,0)" stroke-width="5" stroke="rgb(0,0,0)" />
	<path d="M5496,4809.33 5496,3909.33 5196,3909.33 5196,4809.33 5496,4809.33 z " fill-rule="evenodd" fill="rgb(0,128,0)" stroke-width="5" stroke="rgb(0,0,0)" />
	<path d="M5496,3907.33 5496,3007.33 5196,3007.33 5196,3907.33 5496,3907.33 z " fill-rule="evenodd" fill="rgb(0,128,0)" stroke-width="5" stroke="rgb(0,0,0)" />
	<path d="M5496,3005.33 5496,2105.33 5196,2105.33 5196,3005.33 5496,3005.33 z " fill-rule="evenodd" fill="rgb(0,128,0)" stroke-width="5" stroke="rgb(0,0,0)" />
	<path d="M1268,6914 1268,6014 968,6014 968,6914 1268,6914 z " fill-rule="evenodd" fill="rgb(0,128,0)" stroke-width="5" stroke="rgb(0,0,0)" />
	<path d="M966,6613.33 966,5713.33 666,5713.33 666,6613.33 966,6613.33 z " fill-rule="evenodd" fill="rgb(0,128,0)" stroke-width="5" stroke="rgb(0,0,0)" />
	<path d="M664,6312.67 664,5412.67 364,5412.67 364,6312.67 664,6312.67 z " fill-rule="evenodd" fill="rgb(0,128,0)" stroke-width="5" stroke="rgb(0,0,0)" />
	<path d="M664,5410.67 664,4510.67 364,4510.67 364,5410.67 664,5410.67 z " fill-rule="evenodd" fill="rgb(0,128,0)" stroke-width="5" stroke="rgb(0,0,0)" />
	<path d="M664,4508.67 664,3608.67 364,3608.67 364,4508.67 664,4508.67 z " fill-rule="evenodd" fill="rgb(0,128,0)" stroke-width="5" stroke="rgb(0,0,0)" />
	<path d="M664,2704.67 664,1804.67 364,1804.67 364,2704.67 664,2704.67 z " fill-rule="evenodd" fill="rgb(0,128,0)" stroke-width="5" stroke="rgb(0,0,0)" />
	<path d="M5798,5110 5798,4210 5498,4210 5498,5110 5798,5110 z " fill-rule="evenodd" fill="rgb(0,128,0)" stroke-width="5" stroke="rgb(0,0,0)" />
	<path d="M5798,4208 5798,3308 5498,3308 5498,4208 5798,4208 z " fill-rule="evenodd" fill="rgb(0,128,0)" stroke-width="5" stroke="rgb(0,0,0)" />
	<path d="M5798,3306 5798,2406 5498,2406 5498,3306 5798,3306 z " fill-rule="evenodd" fill="rgb(0,128,0)" stroke-width="5" stroke="rgb(0,0,0)" />
	<path d="M6100,5410.67 6100,4510.67 5800,4510.67 5800,5410.67 6100,5410.67 z " fill-rule="evenodd" fill="rgb(0,128,0)" stroke-width="5" stroke="rgb(0,0,0)" />
	<path d="M6100,4508.67 6100,3608.67 5800,3608.67 5800,4508.67 6100,4508.67 z " fill-rule="evenodd" fill="rgb(0,128,0)" stroke-width="5" stroke="rgb(0,0,0)" />
	<path d="M6100,3606.67 6100,2706.67 5800,2706.67 5800,3606.67 6100,3606.67 z " fill-rule="evenodd" fill="rgb(0,128,0)" stroke-width="5" stroke="rgb(0,0,0)" />
	<path d="M6100,2704.67 6100,1804.67 5800,1804.67 5800,2704.67 6100,2704.67 z " fill-rule="evenodd" fill="rgb(0,128,0)" stroke-width="5" stroke="rgb(0,0,0)" />
	<path d="M6402,4809.33 6402,3909.33 6102,3909.33 6102,4809.33 6402,4809.33 z " fill-rule="evenodd" fill="rgb(0,128,0)" stroke-width="5" stroke="rgb(0,0,0)" />
	<path d="M6402,3907.33 6402,3007.33 6102,3007.33 6102,3907.33 6402,3907.33 z " fill-rule="evenodd" fill="rgb(0,128,0)" stroke-width="5" stroke="rgb(0,0,0)" />
	<path d="M6402,3005.33 6402,2105.33 6102,2105.33 6102,3005.33 6402,3005.33 z " fill-rule="evenodd" fill="rgb(0,128,0)" stroke-width="5" stroke="rgb(0,0,0)" />
	<path d="M6704,5110 6704,4210 6404,4210 6404,5110 6704,5110 z " fill-rule="evenodd" fill="rgb(0,128,0)" stroke-width="5" stroke="rgb(0,0,0)" />
	<path d="M6704,4208 6704,3308 6404,3308 6404,4208 6704,4208 z " fill-rule="evenodd" fill="rgb(0,128,0)" stroke-width="5" stroke="rgb(0,0,0)" />
	<path d="M6704,3306 6704,2406 6404,2406 6404,3306 6704,3306 z " fill-rule="evenodd" fill="rgb(0,128,0)" stroke-width="5" stroke="rgb(0,0,0)" />
	<path d="M7006,5410.67 7006,4510.67 6706,4510.67 6706,5410.67 7006,5410.67 z " fill-rule="evenodd" fill="rgb(0,128,0)" stroke-width="5" stroke="rgb(0,0,0)" />
	<path d="M7006,4508.67 7006,3608.67 6706,3608.67 6706,4508.67 7006,4508.67 z " fill-rule="evenodd" fill="rgb(0,128,0)" stroke-width="5" stroke="rgb(0,0,0)" />
	<path d="M7006,3606.67 7006,2706.67 6706,2706.67 6706,3606.67 7006,3606.67 z " fill-rule="evenodd" fill="rgb(0,128,0)" stroke-width="5" stroke="rgb(0,0,0)" />
	<path d="M7308,4809.33 7308,3909.33 7008,3909.33 7008,4809.33 7308,4809.33 z " fill-rule="evenodd" fill="rgb(0,128,0)" stroke-width="5" stroke="rgb(0,0,0)" />
	<path d="M7308,3907.33 7308,3007.33 7008,3007.33 7008,3907.33 7308,3907.33 z " fill-rule="evenodd" fill="rgb(0,128,0)" stroke-width="5" stroke="rgb(0,0,0)" />
	<path d="M7610,5110 7610,4210 7310,4210 7310,5110 7610,5110 z " fill-rule="evenodd" fill="rgb(0,128,0)" stroke-width="5" stroke="rgb(0,0,0)" />
	<path d="M7610,4208 7610,3308 7310,3308 7310,4208 7610,4208 z " fill-rule="evenodd" fill="rgb(0,128,0)" stroke-width="5" stroke="rgb(0,0,0)" />
	<path d="M7610,3306 7610,2406 7310,2406 7310,3306 7610,3306 z " fill-rule="evenodd" fill="rgb(0,128,0)" stroke-width="5" stroke="rgb(0,0,0)" />
	<path d="M7912,5410.67 7912,4510.67 7612,4510.67 7612,5410.67 7912,5410.67 z " fill-rule="evenodd" fill="rgb(0,128,0)" stroke-width="5" stroke="rgb(0,0,0)" />
	<path d="M7912,4508.67 7912,3608.67 7612,3608.67 7612,4508.67 7912,4508.67 z " fill-rule="evenodd" fill="rgb(0,128,0)" stroke-width="5" stroke="rgb(0,0,0)" />
	<path d="M7912,3606.67 7912,2706.67 7612,2706.67 7612,3606.67 7912,3606.67 z " fill-rule="evenodd" fill="rgb(0,128,0)" stroke-width="5" stroke="rgb(0,0,0)" />
	<path d="M8214,4809.33 8214,3909.33 7914,3909.33 7914,4809.33 8214,4809.33 z " fill-rule="evenodd" fill="rgb(0,128,0)" stroke-width="5" stroke="rgb(0,0,0)" />
	<path d="M8214,3907.33 8214,3007.33 7914,3007.33 7914,3907.33 8214,3907.33 z " fill-rule="evenodd" fill="rgb(0,128,0)" stroke-width="5" stroke="rgb(0,0,0)" />
	<path d="M8516,5110 8516,4210 8216,4210 8216,5110 8516,5110 z " fill-rule="evenodd" fill="rgb(0,128,0)" stroke-width="5" stroke="rgb(0,0,0)" />
	<path d="M8516,4208 8516,3308 8216,3308 8216,4208 8516,4208 z " fill-rule="evenodd" fill="rgb(0,128,0)" stroke-width="5" stroke="rgb(0,0,0)" />
	<path d="M3382,1802.67 3082,1802.67 3082,1602 3147,1602 3382,1022.5 3382,1802.67 z " fill-rule="evenodd" fill="rgb(255,0,0)" stroke-width="5" stroke="rgb(0,0,0)" />
	<path d="M3082,902.667 3323.14,902.667 3082,1497.07 3082,902.667 z " fill-rule="evenodd" fill="rgb(255,0,0)" stroke-width="5" stroke="rgb(0,0,0)" />
	<path d="M3382,757.574 3323.95,900.667 3082,900.667 3082,478.014 3382,599.692 3382,757.574 z " fill-rule="evenodd" fill="rgb(255,0,0)" stroke-width="5" stroke="rgb(0,0,0)" />
	<path d="M3080,2404 2780,2404 2780,1504 2950,1504 2950,1602 3080,1602 3080,2404 z " fill-rule="evenodd" fill="rgb(255,0,0)" stroke-width="5" stroke="rgb(0,0,0)" />
	<path d="M3080,600 2780,600 2780,355.524 3080,477.203 3080,600 z " fill-rule="evenodd" fill="rgb(255,0,0)" stroke-width="5" stroke="rgb(0,0,0)" />
	<path d="M2778,1201.33 2478,1201.33 2478,301.333 2646.39,301.333 2778,354.713 2778,1201.33 z " fill-rule="evenodd" fill="rgb(255,0,0)" stroke-width="5" stroke="rgb(0,0,0)" />
	<path d="M2478,299.333 2478,233.035 2641.46,299.333 2478,299.333 z " fill-rule="evenodd" fill="rgb(255,0,0)" stroke-width="5" stroke="rgb(0,0,0)" />
	<path d="M3384,2105.33 3684,2105.33 3684,2952 3384,2952 3384,2105.33 z " fill-rule="evenodd" fill="rgb(255,0,0)" stroke-width="5" stroke="rgb(0,0,0)" />
	<path d="M3082,2706.67 3382,2706.67 3382,2952 3082,2952 3082,2706.67 z " fill-rule="evenodd" fill="rgb(255,0,0)" stroke-width="5" stroke="rgb(0,0,0)" />
	<path d="M2780,3306 2780,2406 3080,2406 3080,2952 2850,2952 2850,3152 2900,3152 2900,3306 2780,3306 z " fill-rule="evenodd" fill="rgb(255,0,0)" stroke-width="5" stroke="rgb(0,0,0)" />
	<path d="M3684,1201.33 3384,1201.33 3384,1017.57 3529,660 3684,722.935 3684,1201.33 z " fill-rule="evenodd" fill="rgb(255,0,0)" stroke-width="5" stroke="rgb(0,0,0)" />
	<path d="M3384,600.503 3437,622 3384,752.644 3384,600.503 z " fill-rule="evenodd" fill="rgb(255,0,0)" stroke-width="5" stroke="rgb(0,0,0)" />
	<path d="M2476,900.667 2176,900.667 2176,110.545 2476,232.224 2476,900.667 z " fill-rule="evenodd" fill="rgb(255,0,0)" stroke-width="5" stroke="rgb(0,0,0)" />
	<path d="M3986,3308 3986,4208 3700,4208 3700,3308 3986,3308 z " fill-rule="evenodd" fill="rgb(255,0,0)" stroke-width="5" stroke="rgb(0,0,0)" />
	<path d="M3986,3306 3700,3306 3700,3052 3986,3052 3986,3306 z " fill-rule="evenodd" fill="rgb(255,0,0)" stroke-width="5" stroke="rgb(0,0,0)" />
	<path d="M3686,2406 3986,2406 3986,2952 3686,2952 3686,2406 z " fill-rule="evenodd" fill="rgb(255,0,0)" stroke-width="5" stroke="rgb(0,0,0)" />
	<path d="M3986,1502 3686,1502 3686,723.747 3986,845.558 3986,1502 z " fill-rule="evenodd" fill="rgb(255,0,0)" stroke-width="5" stroke="rgb(0,0,0)" />
	<path d="M2780,4208 2780,3308 2900,3308 2900,4208 2780,4208 z " fill-rule="evenodd" fill="rgb(255,0,0)" stroke-width="5" stroke="rgb(0,0,0)" />
	<path d="M1874,2406 2174,2406 2174,3306 1874,3306 1874,3152 2050,3152 2050,2952 1874,2952 1874,2406 z " fill-rule="evenodd" fill="rgb(255,0,0)" stroke-width="5" stroke="rgb(0,0,0)" />
	<path d="M2174,1504 2174,2404 1874,2404 1874,1602 2150,1602 2150,1504 2174,1504 z " fill-rule="evenodd" fill="rgb(255,0,0)" stroke-width="5" stroke="rgb(0,0,0)" />
	<path d="M2174,602 2174,1502 2150,1502 2150,602 2174,602 z " fill-rule="evenodd" fill="rgb(255,0,0)" stroke-width="5" stroke="rgb(0,0,0)" />
	<path d="M2174,600 2150,600 2150,100 2174,109.734 2174,600 z " fill-rule="evenodd" fill="rgb(255,0,0)" stroke-width="5" stroke="rgb(0,0,0)" />
	<path d="M3988,4510.67 4288,4510.67 4288,4952 3988,4952 3988,4510.67 z " fill-rule="evenodd" fill="rgb(255,0,0)" stroke-width="5" stroke="rgb(0,0,0)" />
	<path d="M3988,2706.67 4288,2706.67 4288,3606.67 3988,3606.67 3988,3052 4200,3052 4200,2952 3988,2952 3988,2706.67 z " fill-rule="evenodd" fill="rgb(255,0,0)" stroke-width="5" stroke="rgb(0,0,0)" />
	<path d="M3986,4210 3986,4952 3700,4952 3700,4210 3986,4210 z " fill-rule="evenodd" fill="rgb(255,0,0)" stroke-width="5" stroke="rgb(0,0,0)" />
	<path d="M4288,1802.67 3988,1802.67 3988,902.667 4126.65,902.667 4288,968.18 4288,1802.67 z " fill-rule="evenodd" fill="rgb(255,0,0)" stroke-width="5" stroke="rgb(0,0,0)" />
	<path d="M3988,900.667 3988,846.37 4121.72,900.667 3988,900.667 z " fill-rule="evenodd" fill="rgb(255,0,0)" stroke-width="5" stroke="rgb(0,0,0)" />
	<path d="M2780,5110 2780,4210 2900,4210 2900,5110 2780,5110 z " fill-rule="evenodd" fill="rgb(255,0,0)" stroke-width="5" stroke="rgb(0,0,0)" />
	<path d="M1872,3907.33 1572,3907.33 1572,3152 1872,3152 1872,3907.33 z " fill-rule="evenodd" fill="rgb(255,0,0)" stroke-width="5" stroke="rgb(0,0,0)" />
	<path d="M1572,2105.33 1872,2105.33 1872,2952 1572,2952 1572,2105.33 z " fill-rule="evenodd" fill="rgb(255,0,0)" stroke-width="5" stroke="rgb(0,0,0)" />
	<path d="M1872,2103.33 1572,2103.33 1572,1602 1872,1602 1872,2103.33 z " fill-rule="evenodd" fill="rgb(255,0,0)" stroke-width="5" stroke="rgb(0,0,0)" />
	<path d="M4290,4811.33 4590,4811.33 4590,4952 4290,4952 4290,4811.33 z " fill-rule="evenodd" fill="rgb(255,0,0)" stroke-width="5" stroke="rgb(0,0,0)" />
	<path d="M4590,1201.33 4290,1201.33 4290,968.992 4590,1090.8 4590,1201.33 z " fill-rule="evenodd" fill="rgb(255,0,0)" stroke-width="5" stroke="rgb(0,0,0)" />
	<path d="M3082,6312.67 3082,6052 3100,6052 3100,6312.67 3082,6312.67 z " fill-rule="evenodd" fill="rgb(255,0,0)" stroke-width="5" stroke="rgb(0,0,0)" />
	<path d="M2780,6012 2780,5112 2900,5112 2900,6012 2780,6012 z " fill-rule="evenodd" fill="rgb(255,0,0)" stroke-width="5" stroke="rgb(0,0,0)" />
	<path d="M1570,3606.67 1270,3606.67 1270,3152 1570,3152 1570,3606.67 z " fill-rule="evenodd" fill="rgb(255,0,0)" stroke-width="5" stroke="rgb(0,0,0)" />
	<path d="M1270,2706.67 1570,2706.67 1570,2952 1270,2952 1270,2706.67 z " fill-rule="evenodd" fill="rgb(255,0,0)" stroke-width="5" stroke="rgb(0,0,0)" />
	<path d="M1570,1802.67 1270,1802.67 1270,1502 1400,1502 1400,1602 1570,1602 1570,1802.67 z " fill-rule="evenodd" fill="rgb(255,0,0)" stroke-width="5" stroke="rgb(0,0,0)" />
	<path d="M4592,4210 4892,4210 4892,4952 4592,4952 4592,4210 z " fill-rule="evenodd" fill="rgb(255,0,0)" stroke-width="5" stroke="rgb(0,0,0)" />
	<path d="M4892,1502 4592,1502 4592,1091.61 4892,1213.42 4892,1502 z " fill-rule="evenodd" fill="rgb(255,0,0)" stroke-width="5" stroke="rgb(0,0,0)" />
	<path d="M3082,6314.67 3100,6314.67 3100,6852 3082,6852 3082,6314.67 z " fill-rule="evenodd" fill="rgb(255,0,0)" stroke-width="5" stroke="rgb(0,0,0)" />
	<path d="M3080,6852 2900,6852 2900,6914 2780,6914 2780,6014 2900,6014 2900,6052 3080,6052 3080,6852 z " fill-rule="evenodd" fill="rgb(255,0,0)" stroke-width="5" stroke="rgb(0,0,0)" />
	<path d="M1268,3306 968,3306 968,3152 1268,3152 1268,3306 z " fill-rule="evenodd" fill="rgb(255,0,0)" stroke-width="5" stroke="rgb(0,0,0)" />
	<path d="M968,2406 1268,2406 1268,2952 968,2952 968,2406 z " fill-rule="evenodd" fill="rgb(255,0,0)" stroke-width="5" stroke="rgb(0,0,0)" />
	<path d="M5194,5412.67 5194,5552 5050,5552 5050,5412.67 5194,5412.67 z " fill-rule="evenodd" fill="rgb(255,0,0)" stroke-width="5" stroke="rgb(0,0,0)" />
	<path d="M5194,4510.67 5194,5410.67 5050,5410.67 5050,4510.67 5194,4510.67 z " fill-rule="evenodd" fill="rgb(255,0,0)" stroke-width="5" stroke="rgb(0,0,0)" />
	<path d="M4894,4510.67 4950,4510.67 4950,4952 4894,4952 4894,4510.67 z " fill-rule="evenodd" fill="rgb(255,0,0)" stroke-width="5" stroke="rgb(0,0,0)" />
	<path d="M5194,3608.67 5194,4508.67 5050,4508.67 5050,3608.67 5194,3608.67 z " fill-rule="evenodd" fill="rgb(255,0,0)" stroke-width="5" stroke="rgb(0,0,0)" />
	<path d="M4894,4508.67 4894,3608.67 4950,3608.67 4950,4508.67 4894,4508.67 z " fill-rule="evenodd" fill="rgb(255,0,0)" stroke-width="5" stroke="rgb(0,0,0)" />
	<path d="M4894,3606.67 4894,2706.67 5194,2706.67 5194,3606.67 5050,3606.67 5050,2952 4900,2952 4900,3052 4950,3052 4950,3606.67 4894,3606.67 z " fill-rule="evenodd" fill="rgb(255,0,0)" stroke-width="5" stroke="rgb(0,0,0)" />
	<path d="M5194,1802.67 4894,1802.67 4894,1214.24 5194,1336.05 5194,1802.67 z " fill-rule="evenodd" fill="rgb(255,0,0)" stroke-width="5" stroke="rgb(0,0,0)" />
	<path d="M2780,6916 2900,6916 2900,6952 2780,6952 2780,6916 z " fill-rule="evenodd" fill="rgb(255,0,0)" stroke-width="5" stroke="rgb(0,0,0)" />
	<path d="M2478,6615.33 2778,6615.33 2778,6952 2478,6952 2478,6615.33 z " fill-rule="evenodd" fill="rgb(255,0,0)" stroke-width="5" stroke="rgb(0,0,0)" />
	<path d="M2176,6314.67 2476,6314.67 2476,6952 2176,6952 2176,6314.67 z " fill-rule="evenodd" fill="rgb(255,0,0)" stroke-width="5" stroke="rgb(0,0,0)" />
	<path d="M966,3907.33 666,3907.33 666,3152 966,3152 966,3907.33 z " fill-rule="evenodd" fill="rgb(255,0,0)" stroke-width="5" stroke="rgb(0,0,0)" />
	<path d="M666,2105.33 966,2105.33 966,2952 666,2952 666,2105.33 z " fill-rule="evenodd" fill="rgb(255,0,0)" stroke-width="5" stroke="rgb(0,0,0)" />
	<path d="M966,2103.33 666,2103.33 666,1602 700,1602 700,1502 966,1502 966,2103.33 z " fill-rule="evenodd" fill="rgb(255,0,0)" stroke-width="5" stroke="rgb(0,0,0)" />
	<path d="M5196,4811.33 5496,4811.33 5496,5552 5196,5552 5196,4811.33 z " fill-rule="evenodd" fill="rgb(255,0,0)" stroke-width="5" stroke="rgb(0,0,0)" />
	<path d="M5496,2103.33 5196,2103.33 5196,1336.86 5496,1458.67 5496,2103.33 z " fill-rule="evenodd" fill="rgb(255,0,0)" stroke-width="5" stroke="rgb(0,0,0)" />
	<path d="M1874,6916 2174,6916 2174,6952 1874,6952 1874,6916 z " fill-rule="evenodd" fill="rgb(255,0,0)" stroke-width="5" stroke="rgb(0,0,0)" />
	<path d="M1572,6615.33 1872,6615.33 1872,6952 1572,6952 1572,6615.33 z " fill-rule="evenodd" fill="rgb(255,0,0)" stroke-width="5" stroke="rgb(0,0,0)" />
	<path d="M1270,6314.67 1570,6314.67 1570,6952 1270,6952 1270,6314.67 z " fill-rule="evenodd" fill="rgb(255,0,0)" stroke-width="5" stroke="rgb(0,0,0)" />
	<path d="M664,3606.67 364,3606.67 364,3152 664,3152 664,3606.67 z " fill-rule="evenodd" fill="rgb(255,0,0)" stroke-width="5" stroke="rgb(0,0,0)" />
	<path d="M364,2706.67 664,2706.67 664,2952 364,2952 364,2706.67 z " fill-rule="evenodd" fill="rgb(255,0,0)" stroke-width="5" stroke="rgb(0,0,0)" />
	<path d="M664,1802.67 364,1802.67 364,1602 664,1602 664,1802.67 z " fill-rule="evenodd" fill="rgb(255,0,0)" stroke-width="5" stroke="rgb(0,0,0)" />
	<path d="M5498,5112 5798,5112 5798,5552 5498,5552 5498,5112 z " fill-rule="evenodd" fill="rgb(255,0,0)" stroke-width="5" stroke="rgb(0,0,0)" />
	<path d="M5798,2404 5498,2404 5498,1504 5607.64,1504 5798,1581.29 5798,2404 z " fill-rule="evenodd" fill="rgb(255,0,0)" stroke-width="5" stroke="rgb(0,0,0)" />
	<path d="M5498,1502 5498,1459.48 5602.72,1502 5498,1502 z " fill-rule="evenodd" fill="rgb(255,0,0)" stroke-width="5" stroke="rgb(0,0,0)" />
	<path d="M968,6916 1268,6916 1268,6952 968,6952 968,6916 z " fill-rule="evenodd" fill="rgb(255,0,0)" stroke-width="5" stroke="rgb(0,0,0)" />
	<path d="M666,6615.33 966,6615.33 966,6952 666,6952 666,6615.33 z " fill-rule="evenodd" fill="rgb(255,0,0)" stroke-width="5" stroke="rgb(0,0,0)" />
	<path d="M364,6314.67 664,6314.67 664,6952 364,6952 364,6314.67 z " fill-rule="evenodd" fill="rgb(255,0,0)" stroke-width="5" stroke="rgb(0,0,0)" />
	<path d="M362,6014 362,6914 100,6914 100,6014 362,6014 z " fill-rule="evenodd" fill="rgb(255,0,0)" stroke-width="5" stroke="rgb(0,0,0)" />
	<path d="M362,5112 362,6012 100,6012 100,5112 362,5112 z " fill-rule="evenodd" fill="rgb(255,0,0)" stroke-width="5" stroke="rgb(0,0,0)" />
	<path d="M362,4210 362,5110 100,5110 100,4210 362,4210 z " fill-rule="evenodd" fill="rgb(255,0,0)" stroke-width="5" stroke="rgb(0,0,0)" />
	<path d="M362,3308 362,4208 100,4208 100,3308 362,3308 z " fill-rule="evenodd" fill="rgb(255,0,0)" stroke-width="5" stroke="rgb(0,0,0)" />
	<path d="M362,3306 100,3306 100,3152 362,3152 362,3306 z " fill-rule="evenodd" fill="rgb(255,0,0)" stroke-width="5" stroke="rgb(0,0,0)" />
	<path d="M362,2406 362,2952 100,2952 100,2406 362,2406 z " fill-rule="evenodd" fill="rgb(255,0,0)" stroke-width="5" stroke="rgb(0,0,0)" />
	<path d="M362,2404 100,2404 100,1602 362,1602 362,2404 z " fill-rule="evenodd" fill="rgb(255,0,0)" stroke-width="5" stroke="rgb(0,0,0)" />
	<path d="M5800,5412.67 6100,5412.67 6100,5552 5800,5552 5800,5412.67 z " fill-rule="evenodd" fill="rgb(255,0,0)" stroke-width="5" stroke="rgb(0,0,0)" />
	<path d="M6100,1802.67 5800,1802.67 5800,1582.1 6100,1703.91 6100,1802.67 z " fill-rule="evenodd" fill="rgb(255,0,0)" stroke-width="5" stroke="rgb(0,0,0)" />
	<path d="M362,6916 362,6952 100,6952 100,6916 362,6916 z " fill-rule="evenodd" fill="rgb(255,0,0)" stroke-width="5" stroke="rgb(0,0,0)" />
	<path d="M6102,4811.33 6402,4811.33 6402,5552 6102,5552 6102,4811.33 z " fill-rule="evenodd" fill="rgb(255,0,0)" stroke-width="5" stroke="rgb(0,0,0)" />
	<path d="M6402,2103.33 6102,2103.33 6102,1704.73 6402,1826.54 6402,2103.33 z " fill-rule="evenodd" fill="rgb(255,0,0)" stroke-width="5" stroke="rgb(0,0,0)" />
	<path d="M6404,5112 6704,5112 6704,5552 6404,5552 6404,5112 z " fill-rule="evenodd" fill="rgb(255,0,0)" stroke-width="5" stroke="rgb(0,0,0)" />
	<path d="M6704,2404 6404,2404 6404,1827.35 6704,1949.16 6704,2404 z " fill-rule="evenodd" fill="rgb(255,0,0)" stroke-width="5" stroke="rgb(0,0,0)" />
	<path d="M6706,5412.67 7006,5412.67 7006,5552 6706,5552 6706,5412.67 z " fill-rule="evenodd" fill="rgb(255,0,0)" stroke-width="5" stroke="rgb(0,0,0)" />
	<path d="M7006,2704.67 6706,2704.67 6706,1949.97 7006,2071.78 7006,2704.67 z " fill-rule="evenodd" fill="rgb(255,0,0)" stroke-width="5" stroke="rgb(0,0,0)" />
	<path d="M7008,4811.33 7308,4811.33 7308,5552 7008,5552 7008,4811.33 z " fill-rule="evenodd" fill="rgb(255,0,0)" stroke-width="5" stroke="rgb(0,0,0)" />
	<path d="M7308,3005.33 7008,3005.33 7008,2105.33 7088.63,2105.33 7308,2194.4 7308,3005.33 z " fill-rule="evenodd" fill="rgb(255,0,0)" stroke-width="5" stroke="rgb(0,0,0)" />
	<path d="M7008,2103.33 7008,2072.59 7083.71,2103.33 7008,2103.33 z " fill-rule="evenodd" fill="rgb(255,0,0)" stroke-width="5" stroke="rgb(0,0,0)" />
	<path d="M7310,5112 7610,5112 7610,5552 7310,5552 7310,5112 z " fill-rule="evenodd" fill="rgb(255,0,0)" stroke-width="5" stroke="rgb(0,0,0)" />
	<path d="M7610,2404 7310,2404 7310,2195.22 7610,2317.03 7610,2404 z " fill-rule="evenodd" fill="rgb(255,0,0)" stroke-width="5" stroke="rgb(0,0,0)" />
	<path d="M7612,5412.67 7912,5412.67 7912,5552 7612,5552 7612,5412.67 z " fill-rule="evenodd" fill="rgb(255,0,0)" stroke-width="5" stroke="rgb(0,0,0)" />
	<path d="M7912,2704.67 7612,2704.67 7612,2317.84 7912,2439.65 7912,2704.67 z " fill-rule="evenodd" fill="rgb(255,0,0)" stroke-width="5" stroke="rgb(0,0,0)" />
	<path d="M7914,4811.33 8214,4811.33 8214,5552 7914,5552 7914,4811.33 z " fill-rule="evenodd" fill="rgb(255,0,0)" stroke-width="5" stroke="rgb(0,0,0)" />
	<path d="M8214,3005.33 7914,3005.33 7914,2440.46 8214,2562.27 8214,3005.33 z " fill-rule="evenodd" fill="rgb(255,0,0)" stroke-width="5" stroke="rgb(0,0,0)" />
	<path d="M8216,5112 8516,5112 8516,5552 8216,5552 8216,5112 z " fill-rule="evenodd" fill="rgb(255,0,0)" stroke-width="5" stroke="rgb(0,0,0)" />
	<path d="M8516,3306 8216,3306 8216,2563.08 8516,2684.89 8516,3306 z " fill-rule="evenodd" fill="rgb(255,0,0)" stroke-width="5" stroke="rgb(0,0,0)" />
	<path d="M8518,5412.67 8600,5412.67 8600,5552 8518,5552 8518,5412.67 z " fill-rule="evenodd" fill="rgb(255,0,0)" stroke-width="5" stroke="rgb(0,0,0)" />
	<path d="M8518,5410.67 8518,4510.67 8600,4510.67 8600,5410.67 8518,5410.67 z " fill-rule="evenodd" fill="rgb(255,0,0)" stroke-width="5" stroke="rgb(0,0,0)" />
	<path d="M8518,4508.67 8518,3608.67 8600,3608.67 8600,4508.67 8518,4508.67 z " fill-rule="evenodd" fill="rgb(255,0,0)" stroke-width="5" stroke="rgb(0,0,0)" />
	<path d="M8518,3606.67 8518,2706.67 8569.62,2706.67 8600,2719 8600,3606.67 8518,3606.67 z " fill-rule="evenodd" fill="rgb(255,0,0)" stroke-width="5" stroke="rgb(0,0,0)" />
	<path d="M8518,2704.67 8518,2685.71 8564.7,2704.67 8518,2704.67 z " fill-rule="evenodd" fill="rgb(255,0,0)" stroke-width="5" stroke="rgb(0,0,0)" />
	<polyline points="3075,1507 3075,607 3075,1507 2175,1507 3075,1507 " fill="none" stroke-width="100" stroke="rgb(0,0,0)" />
	<circle cx="3075" cy="1507" r="-15" fill="rgb(0,0,0)" />
	<circle cx="3075" cy="607" r="-15" fill="rgb(0,0,0)" />
	<circle cx="3075" cy="1507" r="-15" fill="rgb(0,0,0)" />
	<circle cx="2175" cy="1507" r="-15" fill="rgb(0,0,0)" />
	<circle cx="3075" cy="1507" r="-15" fill="rgb(0,0,0)" />
	<polyline points="3075,2497 3075,1507 2085,1507 " fill="none" stroke-width="0.5" stroke="rgb(128,0,128)" />
</svg>
