<?xml version="1.0" standalone="no" ?>
<!DOCTYPE svg PUBLIC "-//W3C//DTD SVG 1.1//EN" "http://www.w3.org/Graphics/SVG/1.1/DTD/svg11.dtd">
<svg width="8700px" height="7052px" xmlns="http://www.w3.org/2000/svg" version="1.1" >
	<path d="M5202,2450.67 5202,1550.67 4902,1550.67 4902,2450.67 5202,2450.67 z " fill-rule="evenodd" fill="rgb(0,128,0)" stroke-width="5" stroke="rgb(0,0,0)" />
	<path d="M4900,3954 4900,3054 4600,3054 4600,3954 4900,3954 z " fill-rule="evenodd" fill="rgb(0,128,0)" stroke-width="5" stroke="rgb(0,0,0)" />
	<path d="M4900,3052 4900,2152 4600,2152 4600,3052 4900,3052 z " fill-rule="evenodd" fill="rgb(0,128,0)" stroke-width="5" stroke="rgb(0,0,0)" />
	<path d="M4900,2150 4900,1250 4600,1250 4600,2150 4900,2150 z " fill-rule="evenodd" fill="rgb(0,128,0)" stroke-width="5" stroke="rgb(0,0,0)" />
	<path d="M4598,3653.33 4598,2753.33 4298,2753.33 4298,3653.33 4598,3653.33 z " fill-rule="evenodd" fill="rgb(0,128,0)" stroke-width="5" stroke="rgb(0,0,0)" />
	<path d="M4598,2751.33 4598,1851.33 4298,1851.33 4298,2751.33 4598,2751.33 z " fill-rule="evenodd" fill="rgb(0,128,0)" stroke-width="5" stroke="rgb(0,0,0)" />
	<path d="M5504,5457.33 5504,4557.33 5204,4557.33 5204,5457.33 5504,5457.33 z " fill-rule="evenodd" fill="rgb(0,128,0)" stroke-width="5" stroke="rgb(0,0,0)" />
	<path d="M5504,4555.33 5504,3655.33 5204,3655.33 5204,4555.33 5504,4555.33 z " fill-rule="evenodd" fill="rgb(0,128,0)" stroke-width="5" stroke="rgb(0,0,0)" />
	<path d="M5504,3653.33 5504,2753.33 5204,2753.33 5204,3653.33 5504,3653.33 z " fill-rule="evenodd" fill="rgb(0,128,0)" stroke-width="5" stroke="rgb(0,0,0)" />
	<path d="M4900,4856 4900,3956 4600,3956 4600,4856 4900,4856 z " fill-rule="evenodd" fill="rgb(0,128,0)" stroke-width="5" stroke="rgb(0,0,0)" />
	<path d="M5504,2751.33 5504,1851.33 5204,1851.33 5204,2751.33 5504,2751.33 z " fill-rule="evenodd" fill="rgb(0,128,0)" stroke-width="5" stroke="rgb(0,0,0)" />
	<path d="M4598,4555.33 4598,3655.33 4298,3655.33 4298,4555.33 4598,4555.33 z " fill-rule="evenodd" fill="rgb(0,128,0)" stroke-width="5" stroke="rgb(0,0,0)" />
	<path d="M4296,4254.67 4296,3354.67 3996,3354.67 3996,4254.67 4296,4254.67 z " fill-rule="evenodd" fill="rgb(0,128,0)" stroke-width="5" stroke="rgb(0,0,0)" />
	<path d="M4296,2450.67 4296,1550.67 3996,1550.67 3996,2450.67 4296,2450.67 z " fill-rule="evenodd" fill="rgb(0,128,0)" stroke-width="5" stroke="rgb(0,0,0)" />
	<path d="M5806,4856 5806,3956 5506,3956 5506,4856 5806,4856 z " fill-rule="evenodd" fill="rgb(0,128,0)" stroke-width="5" stroke="rgb(0,0,0)" />
	<path d="M5806,3954 5806,3054 5506,3054 5506,3954 5806,3954 z " fill-rule="evenodd" fill="rgb(0,128,0)" stroke-width="5" stroke="rgb(0,0,0)" />
	<path d="M5806,3052 5806,2152 5506,2152 5506,3052 5806,3052 z " fill-rule="evenodd" fill="rgb(0,128,0)" stroke-width="5" stroke="rgb(0,0,0)" />
	<path d="M3994,2150 3994,1250 3694,1250 3694,2150 3994,2150 z " fill-rule="evenodd" fill="rgb(0,128,0)" stroke-width="5" stroke="rgb(0,0,0)" />
	<path d="M6108,5156.67 6108,4256.67 5808,4256.67 5808,5156.67 6108,5156.67 z " fill-rule="evenodd" fill="rgb(0,128,0)" stroke-width="5" stroke="rgb(0,0,0)" />
	<path d="M6108,4254.67 6108,3354.67 5808,3354.67 5808,4254.67 6108,4254.67 z " fill-rule="evenodd" fill="rgb(0,128,0)" stroke-width="5" stroke="rgb(0,0,0)" />
	<path d="M6108,3352.67 6108,2452.67 5808,2452.67 5808,3352.67 6108,3352.67 z " fill-rule="evenodd" fill="rgb(0,128,0)" stroke-width="5" stroke="rgb(0,0,0)" />
	<path d="M3692,2751.33 3692,1851.33 3392,1851.33 3392,2751.33 3692,2751.33 z " fill-rule="evenodd" fill="rgb(0,128,0)" stroke-width="5" stroke="rgb(0,0,0)" />
	<path d="M6410,5457.33 6410,4557.33 6110,4557.33 6110,5457.33 6410,5457.33 z " fill-rule="evenodd" fill="rgb(0,128,0)" stroke-width="5" stroke="rgb(0,0,0)" />
	<path d="M6410,4555.33 6410,3655.33 6110,3655.33 6110,4555.33 6410,4555.33 z " fill-rule="evenodd" fill="rgb(0,128,0)" stroke-width="5" stroke="rgb(0,0,0)" />
	<path d="M6410,3653.33 6410,2753.33 6110,2753.33 6110,3653.33 6410,3653.33 z " fill-rule="evenodd" fill="rgb(0,128,0)" stroke-width="5" stroke="rgb(0,0,0)" />
	<path d="M6410,2751.33 6410,1851.33 6110,1851.33 6110,2751.33 6410,2751.33 z " fill-rule="evenodd" fill="rgb(0,128,0)" stroke-width="5" stroke="rgb(0,0,0)" />
	<path d="M6712,4856 6712,3956 6412,3956 6412,4856 6712,4856 z " fill-rule="evenodd" fill="rgb(0,128,0)" stroke-width="5" stroke="rgb(0,0,0)" />
	<path d="M6712,3954 6712,3054 6412,3054 6412,3954 6712,3954 z " fill-rule="evenodd" fill="rgb(0,128,0)" stroke-width="5" stroke="rgb(0,0,0)" />
	<path d="M6712,3052 6712,2152 6412,2152 6412,3052 6712,3052 z " fill-rule="evenodd" fill="rgb(0,128,0)" stroke-width="5" stroke="rgb(0,0,0)" />
	<path d="M7014,5156.67 7014,4256.67 6714,4256.67 6714,5156.67 7014,5156.67 z " fill-rule="evenodd" fill="rgb(0,128,0)" stroke-width="5" stroke="rgb(0,0,0)" />
	<path d="M7014,4254.67 7014,3354.67 6714,3354.67 6714,4254.67 7014,4254.67 z " fill-rule="evenodd" fill="rgb(0,128,0)" stroke-width="5" stroke="rgb(0,0,0)" />
	<path d="M7014,3352.67 7014,2452.67 6714,2452.67 6714,3352.67 7014,3352.67 z " fill-rule="evenodd" fill="rgb(0,128,0)" stroke-width="5" stroke="rgb(0,0,0)" />
	<path d="M2786,4555.33 2786,3655.33 2486,3655.33 2486,4555.33 2786,4555.33 z " fill-rule="evenodd" fill="rgb(0,128,0)" stroke-width="5" stroke="rgb(0,0,0)" />
	<path d="M2786,3653.33 2786,2753.33 2486,2753.33 2486,3653.33 2786,3653.33 z " fill-rule="evenodd" fill="rgb(0,128,0)" stroke-width="5" stroke="rgb(0,0,0)" />
	<path d="M2786,2751.33 2786,1851.33 2486,1851.33 2486,2751.33 2786,2751.33 z " fill-rule="evenodd" fill="rgb(0,128,0)" stroke-width="5" stroke="rgb(0,0,0)" />
	<path d="M2786,1849.33 2786,949.333 2486,949.333 2486,1849.33 2786,1849.33 z " fill-rule="evenodd" fill="rgb(0,128,0)" stroke-width="5" stroke="rgb(0,0,0)" />
	<path d="M7316,5457.33 7316,4557.33 7016,4557.33 7016,5457.33 7316,5457.33 z " fill-rule="evenodd" fill="rgb(0,128,0)" stroke-width="5" stroke="rgb(0,0,0)" />
	<path d="M7316,4555.33 7316,3655.33 7016,3655.33 7016,4555.33 7316,4555.33 z " fill-rule="evenodd" fill="rgb(0,128,0)" stroke-width="5" stroke="rgb(0,0,0)" />
	<path d="M7316,3653.33 7316,2753.33 7016,2753.33 7016,3653.33 7316,3653.33 z " fill-rule="evenodd" fill="rgb(0,128,0)" stroke-width="5" stroke="rgb(0,0,0)" />
	<path d="M2786,5457.33 2786,4557.33 2486,4557.33 2486,5457.33 2786,5457.33 z " fill-rule="evenodd" fill="rgb(0,128,0)" stroke-width="5" stroke="rgb(0,0,0)" />
	<path d="M2484,5156.67 2484,4256.67 2184,4256.67 2184,5156.67 2484,5156.67 z " fill-rule="evenodd" fill="rgb(0,128,0)" stroke-width="5" stroke="rgb(0,0,0)" />
	<path d="M2484,4254.67 2484,3354.67 2184,3354.67 2184,4254.67 2484,4254.67 z " fill-rule="evenodd" fill="rgb(0,128,0)" stroke-width="5" stroke="rgb(0,0,0)" />
	<path d="M2484,3352.67 2484,2452.67 2184,2452.67 2184,3352.67 2484,3352.67 z " fill-rule="evenodd" fill="rgb(0,128,0)" stroke-width="5" stroke="rgb(0,0,0)" />
	<path d="M2484,2450.67 2484,1550.67 2184,1550.67 2184,2450.67 2484,2450.67 z " fill-rule="evenodd" fill="rgb(0,128,0)" stroke-width="5" stroke="rgb(0,0,0)" />
	<path d="M2484,1548.67 2484,648.667 2184,648.667 2184,1548.67 2484,1548.67 z " fill-rule="evenodd" fill="rgb(0,128,0)" stroke-width="5" stroke="rgb(0,0,0)" />
	<path d="M7618,4856 7618,3956 7318,3956 7318,4856 7618,4856 z " fill-rule="evenodd" fill="rgb(0,128,0)" stroke-width="5" stroke="rgb(0,0,0)" />
	<path d="M7618,3954 7618,3054 7318,3054 7318,3954 7618,3954 z " fill-rule="evenodd" fill="rgb(0,128,0)" stroke-width="5" stroke="rgb(0,0,0)" />
	<path d="M2786,6359.33 2786,5459.33 2486,5459.33 2486,6359.33 2786,6359.33 z " fill-rule="evenodd" fill="rgb(0,128,0)" stroke-width="5" stroke="rgb(0,0,0)" />
	<path d="M2484,6058.67 2484,5158.67 2184,5158.67 2184,6058.67 2484,6058.67 z " fill-rule="evenodd" fill="rgb(0,128,0)" stroke-width="5" stroke="rgb(0,0,0)" />
	<path d="M2182,5758 2182,4858 1882,4858 1882,5758 2182,5758 z " fill-rule="evenodd" fill="rgb(0,128,0)" stroke-width="5" stroke="rgb(0,0,0)" />
	<path d="M2182,4856 2182,3956 1882,3956 1882,4856 2182,4856 z " fill-rule="evenodd" fill="rgb(0,128,0)" stroke-width="5" stroke="rgb(0,0,0)" />
	<path d="M7920,5156.67 7920,4256.67 7620,4256.67 7620,5156.67 7920,5156.67 z " fill-rule="evenodd" fill="rgb(0,128,0)" stroke-width="5" stroke="rgb(0,0,0)" />
	<path d="M7920,4254.67 7920,3354.67 7620,3354.67 7620,4254.67 7920,4254.67 z " fill-rule="evenodd" fill="rgb(0,128,0)" stroke-width="5" stroke="rgb(0,0,0)" />
	<path d="M7920,3352.67 7920,2452.67 7620,2452.67 7620,3352.67 7920,3352.67 z " fill-rule="evenodd" fill="rgb(0,128,0)" stroke-width="5" stroke="rgb(0,0,0)" />
	<path d="M2182,6660 2182,5760 1882,5760 1882,6660 2182,6660 z " fill-rule="evenodd" fill="rgb(0,128,0)" stroke-width="5" stroke="rgb(0,0,0)" />
	<path d="M1880,6359.33 1880,5459.33 1580,5459.33 1580,6359.33 1880,6359.33 z " fill-rule="evenodd" fill="rgb(0,128,0)" stroke-width="5" stroke="rgb(0,0,0)" />
	<path d="M1880,5457.33 1880,4557.33 1580,4557.33 1580,5457.33 1880,5457.33 z " fill-rule="evenodd" fill="rgb(0,128,0)" stroke-width="5" stroke="rgb(0,0,0)" />
	<path d="M1880,4555.33 1880,3655.33 1580,3655.33 1580,4555.33 1880,4555.33 z " fill-rule="evenodd" fill="rgb(0,128,0)" stroke-width="5" stroke="rgb(0,0,0)" />
	<path d="M1880,2751.33 1880,1851.33 1580,1851.33 1580,2751.33 1880,2751.33 z " fill-rule="evenodd" fill="rgb(0,128,0)" stroke-width="5" stroke="rgb(0,0,0)" />
	<path d="M8222,5457.33 8222,4557.33 7922,4557.33 7922,5457.33 8222,5457.33 z " fill-rule="evenodd" fill="rgb(0,128,0)" stroke-width="5" stroke="rgb(0,0,0)" />
	<path d="M8222,4555.33 8222,3655.33 7922,3655.33 7922,4555.33 8222,4555.33 z " fill-rule="evenodd" fill="rgb(0,128,0)" stroke-width="5" stroke="rgb(0,0,0)" />
	<path d="M8222,3653.33 8222,2753.33 7922,2753.33 7922,3653.33 8222,3653.33 z " fill-rule="evenodd" fill="rgb(0,128,0)" stroke-width="5" stroke="rgb(0,0,0)" />
	<path d="M1578,6058.67 1578,5158.67 1278,5158.67 1278,6058.67 1578,6058.67 z " fill-rule="evenodd" fill="rgb(0,128,0)" stroke-width="5" stroke="rgb(0,0,0)" />
	<path d="M1578,5156.67 1578,4256.67 1278,4256.67 1278,5156.67 1578,5156.67 z " fill-rule="evenodd" fill="rgb(0,128,0)" stroke-width="5" stroke="rgb(0,0,0)" />
	<path d="M1578,4254.67 1578,3354.67 1278,3354.67 1278,4254.67 1578,4254.67 z " fill-rule="evenodd" fill="rgb(0,128,0)" stroke-width="5" stroke="rgb(0,0,0)" />
	<path d="M8524,4856 8524,3956 8224,3956 8224,4856 8524,4856 z " fill-rule="evenodd" fill="rgb(0,128,0)" stroke-width="5" stroke="rgb(0,0,0)" />
	<path d="M8524,3954 8524,3054 8224,3054 8224,3954 8524,3954 z " fill-rule="evenodd" fill="rgb(0,128,0)" stroke-width="5" stroke="rgb(0,0,0)" />
	<path d="M1276,6660 1276,5760 976,5760 976,6660 1276,6660 z " fill-rule="evenodd" fill="rgb(0,128,0)" stroke-width="5" stroke="rgb(0,0,0)" />
	<path d="M1276,5758 1276,4858 976,4858 976,5758 1276,5758 z " fill-rule="evenodd" fill="rgb(0,128,0)" stroke-width="5" stroke="rgb(0,0,0)" />
	<path d="M1276,4856 1276,3956 976,3956 976,4856 1276,4856 z " fill-rule="evenodd" fill="rgb(0,128,0)" stroke-width="5" stroke="rgb(0,0,0)" />
	<path d="M974,6359.33 974,5459.33 674,5459.33 674,6359.33 974,6359.33 z " fill-rule="evenodd" fill="rgb(0,128,0)" stroke-width="5" stroke="rgb(0,0,0)" />
	<path d="M974,5457.33 974,4557.33 674,4557.33 674,5457.33 974,5457.33 z " fill-rule="evenodd" fill="rgb(0,128,0)" stroke-width="5" stroke="rgb(0,0,0)" />
	<path d="M974,4555.33 974,3655.33 674,3655.33 674,4555.33 974,4555.33 z " fill-rule="evenodd" fill="rgb(0,128,0)" stroke-width="5" stroke="rgb(0,0,0)" />
	<path d="M974,2751.33 974,1851.33 674,1851.33 674,2751.33 974,2751.33 z " fill-rule="evenodd" fill="rgb(0,128,0)" stroke-width="5" stroke="rgb(0,0,0)" />
	<path d="M672,6058.67 672,5158.67 372,5158.67 372,6058.67 672,6058.67 z " fill-rule="evenodd" fill="rgb(0,128,0)" stroke-width="5" stroke="rgb(0,0,0)" />
	<path d="M672,5156.67 672,4256.67 372,4256.67 372,5156.67 672,5156.67 z " fill-rule="evenodd" fill="rgb(0,128,0)" stroke-width="5" stroke="rgb(0,0,0)" />
	<path d="M672,4254.67 672,3354.67 372,3354.67 372,4254.67 672,4254.67 z " fill-rule="evenodd" fill="rgb(0,128,0)" stroke-width="5" stroke="rgb(0,0,0)" />
	<path d="M5202,3354.67 5202,4254.67 5050,4254.67 5050,3354.67 5202,3354.67 z " fill-rule="evenodd" fill="rgb(255,0,0)" stroke-width="5" stroke="rgb(0,0,0)" />
	<path d="M4902,4254.67 4902,3354.67 4950,3354.67 4950,4254.67 4902,4254.67 z " fill-rule="evenodd" fill="rgb(255,0,0)" stroke-width="5" stroke="rgb(0,0,0)" />
	<path d="M4902,2452.67 5202,2452.67 5202,3352.67 5050,3352.67 5050,2952 4902,2952 4902,2452.67 z " fill-rule="evenodd" fill="rgb(255,0,0)" stroke-width="5" stroke="rgb(0,0,0)" />
	<path d="M4902,3352.67 4902,3052 4950,3052 4950,3352.67 4902,3352.67 z " fill-rule="evenodd" fill="rgb(255,0,0)" stroke-width="5" stroke="rgb(0,0,0)" />
	<path d="M4598,1849.33 4298,1849.33 4298,972.24 4598,1094.05 4598,1849.33 z " fill-rule="evenodd" fill="rgb(255,0,0)" stroke-width="5" stroke="rgb(0,0,0)" />
	<path d="M5202,4256.67 5202,5156.67 5050,5156.67 5050,4256.67 5202,4256.67 z " fill-rule="evenodd" fill="rgb(255,0,0)" stroke-width="5" stroke="rgb(0,0,0)" />
	<path d="M4902,4256.67 4950,4256.67 4950,4952 4902,4952 4902,4256.67 z " fill-rule="evenodd" fill="rgb(255,0,0)" stroke-width="5" stroke="rgb(0,0,0)" />
	<path d="M5504,1849.33 5204,1849.33 5204,1340.11 5504,1461.92 5504,1849.33 z " fill-rule="evenodd" fill="rgb(255,0,0)" stroke-width="5" stroke="rgb(0,0,0)" />
	<path d="M5202,1548.67 4902,1548.67 4902,1217.49 5202,1339.3 5202,1548.67 z " fill-rule="evenodd" fill="rgb(255,0,0)" stroke-width="5" stroke="rgb(0,0,0)" />
	<path d="M4900,1248 4600,1248 4600,1094.86 4900,1216.67 4900,1248 z " fill-rule="evenodd" fill="rgb(255,0,0)" stroke-width="5" stroke="rgb(0,0,0)" />
	<path d="M3996,2452.67 4296,2452.67 4296,3352.67 3996,3352.67 3996,3052 4200,3052 4200,2952 3996,2952 3996,2452.67 z " fill-rule="evenodd" fill="rgb(255,0,0)" stroke-width="5" stroke="rgb(0,0,0)" />
	<path d="M4296,1548.67 3996,1548.67 3996,849.618 4296,971.428 4296,1548.67 z " fill-rule="evenodd" fill="rgb(255,0,0)" stroke-width="5" stroke="rgb(0,0,0)" />
	<path d="M5506,4858 5806,4858 5806,5552 5506,5552 5506,4858 z " fill-rule="evenodd" fill="rgb(255,0,0)" stroke-width="5" stroke="rgb(0,0,0)" />
	<path d="M5204,5459.33 5504,5459.33 5504,5552 5204,5552 5204,5459.33 z " fill-rule="evenodd" fill="rgb(255,0,0)" stroke-width="5" stroke="rgb(0,0,0)" />
	<path d="M5202,5158.67 5202,5552 5050,5552 5050,5158.67 5202,5158.67 z " fill-rule="evenodd" fill="rgb(255,0,0)" stroke-width="5" stroke="rgb(0,0,0)" />
	<path d="M4600,4858 4900,4858 4900,4952 4600,4952 4600,4858 z " fill-rule="evenodd" fill="rgb(255,0,0)" stroke-width="5" stroke="rgb(0,0,0)" />
	<path d="M4298,4557.33 4598,4557.33 4598,4952 4298,4952 4298,4557.33 z " fill-rule="evenodd" fill="rgb(255,0,0)" stroke-width="5" stroke="rgb(0,0,0)" />
	<path d="M5806,2150 5506,2150 5506,1462.73 5806,1584.54 5806,2150 z " fill-rule="evenodd" fill="rgb(255,0,0)" stroke-width="5" stroke="rgb(0,0,0)" />
	<path d="M3996,4256.67 4296,4256.67 4296,4952 3996,4952 3996,4256.67 z " fill-rule="evenodd" fill="rgb(255,0,0)" stroke-width="5" stroke="rgb(0,0,0)" />
	<path d="M3994,3956 3994,4856 3700,4856 3700,3956 3994,3956 z " fill-rule="evenodd" fill="rgb(255,0,0)" stroke-width="5" stroke="rgb(0,0,0)" />
	<path d="M3994,3054 3994,3954 3700,3954 3700,3054 3994,3054 z " fill-rule="evenodd" fill="rgb(255,0,0)" stroke-width="5" stroke="rgb(0,0,0)" />
	<path d="M3694,2152 3994,2152 3994,2952 3694,2952 3694,2152 z " fill-rule="evenodd" fill="rgb(255,0,0)" stroke-width="5" stroke="rgb(0,0,0)" />
	<path d="M3994,1248 3694,1248 3694,726.996 3994,848.806 3994,1248 z " fill-rule="evenodd" fill="rgb(255,0,0)" stroke-width="5" stroke="rgb(0,0,0)" />
	<path d="M5808,5158.67 6108,5158.67 6108,5552 5808,5552 5808,5158.67 z " fill-rule="evenodd" fill="rgb(255,0,0)" stroke-width="5" stroke="rgb(0,0,0)" />
	<path d="M6108,2450.67 5808,2450.67 5808,1585.35 6108,1707.16 6108,2450.67 z " fill-rule="evenodd" fill="rgb(255,0,0)" stroke-width="5" stroke="rgb(0,0,0)" />
	<path d="M3994,4858 3994,4952 3700,4952 3700,4858 3994,4858 z " fill-rule="evenodd" fill="rgb(255,0,0)" stroke-width="5" stroke="rgb(0,0,0)" />
	<path d="M3392,2753.33 3692,2753.33 3692,2952 3392,2952 3392,2753.33 z " fill-rule="evenodd" fill="rgb(255,0,0)" stroke-width="5" stroke="rgb(0,0,0)" />
	<path d="M3692,949.333 3692,1849.33 3392,1849.33 3392,997.838 3411.67,949.333 3692,949.333 z " fill-rule="evenodd" fill="rgb(255,0,0)" stroke-width="5" stroke="rgb(0,0,0)" />
	<path d="M3692,947.333 3412.48,947.333 3529,660 3692,726.184 3692,947.333 z " fill-rule="evenodd" fill="rgb(255,0,0)" stroke-width="5" stroke="rgb(0,0,0)" />
	<path d="M3392,603.748 3437,622 3392,732.924 3392,603.748 z " fill-rule="evenodd" fill="rgb(255,0,0)" stroke-width="5" stroke="rgb(0,0,0)" />
	<path d="M6110,5459.33 6410,5459.33 6410,5552 6110,5552 6110,5459.33 z " fill-rule="evenodd" fill="rgb(255,0,0)" stroke-width="5" stroke="rgb(0,0,0)" />
	<path d="M6410,1849.33 6110,1849.33 6110,1707.97 6410,1829.78 6410,1849.33 z " fill-rule="evenodd" fill="rgb(255,0,0)" stroke-width="5" stroke="rgb(0,0,0)" />
	<path d="M3090,2452.67 3390,2452.67 3390,2952 3090,2952 3090,2452.67 z " fill-rule="evenodd" fill="rgb(255,0,0)" stroke-width="5" stroke="rgb(0,0,0)" />
	<path d="M3390,1550.67 3390,2450.67 3090,2450.67 3090,1602 3147,1602 3167.82,1550.67 3390,1550.67 z " fill-rule="evenodd" fill="rgb(255,0,0)" stroke-width="5" stroke="rgb(0,0,0)" />
	<path d="M3390,1548.67 3168.63,1548.67 3390,1002.77 3390,1548.67 z " fill-rule="evenodd" fill="rgb(255,0,0)" stroke-width="5" stroke="rgb(0,0,0)" />
	<path d="M3090,648.667 3390,648.667 3390,737.854 3090,1477.35 3090,648.667 z " fill-rule="evenodd" fill="rgb(255,0,0)" stroke-width="5" stroke="rgb(0,0,0)" />
	<path d="M3390,646.667 3090,646.667 3090,481.259 3390,602.937 3390,646.667 z " fill-rule="evenodd" fill="rgb(255,0,0)" stroke-width="5" stroke="rgb(0,0,0)" />
	<path d="M6412,4858 6712,4858 6712,5552 6412,5552 6412,4858 z " fill-rule="evenodd" fill="rgb(255,0,0)" stroke-width="5" stroke="rgb(0,0,0)" />
	<path d="M6712,2150 6412,2150 6412,1830.6 6712,1952.41 6712,2150 z " fill-rule="evenodd" fill="rgb(255,0,0)" stroke-width="5" stroke="rgb(0,0,0)" />
	<path d="M2788,3954 2788,3054 2850,3054 2850,3152 2900,3152 2900,3954 2788,3954 z " fill-rule="evenodd" fill="rgb(255,0,0)" stroke-width="5" stroke="rgb(0,0,0)" />
	<path d="M2788,3052 2788,2152 3088,2152 3088,2952 2850,2952 2850,3052 2788,3052 z " fill-rule="evenodd" fill="rgb(255,0,0)" stroke-width="5" stroke="rgb(0,0,0)" />
	<path d="M3088,2150 2788,2150 2788,1250 3088,1250 3088,1482.28 3080,1502 2950,1502 2950,1602 3088,1602 3088,2150 z " fill-rule="evenodd" fill="rgb(255,0,0)" stroke-width="5" stroke="rgb(0,0,0)" />
	<path d="M3088,1248 2788,1248 2788,358.769 3088,480.448 3088,1248 z " fill-rule="evenodd" fill="rgb(255,0,0)" stroke-width="5" stroke="rgb(0,0,0)" />
	<path d="M6714,5158.67 7014,5158.67 7014,5552 6714,5552 6714,5158.67 z " fill-rule="evenodd" fill="rgb(255,0,0)" stroke-width="5" stroke="rgb(0,0,0)" />
	<path d="M7014,2450.67 6714,2450.67 6714,1953.22 7014,2075.03 7014,2450.67 z " fill-rule="evenodd" fill="rgb(255,0,0)" stroke-width="5" stroke="rgb(0,0,0)" />
	<path d="M2788,4856 2788,3956 2900,3956 2900,4856 2788,4856 z " fill-rule="evenodd" fill="rgb(255,0,0)" stroke-width="5" stroke="rgb(0,0,0)" />
	<path d="M2786,947.333 2486,947.333 2486,236.28 2786,357.958 2786,947.333 z " fill-rule="evenodd" fill="rgb(255,0,0)" stroke-width="5" stroke="rgb(0,0,0)" />
	<path d="M7016,5459.33 7316,5459.33 7316,5552 7016,5552 7016,5459.33 z " fill-rule="evenodd" fill="rgb(255,0,0)" stroke-width="5" stroke="rgb(0,0,0)" />
	<path d="M7316,2751.33 7016,2751.33 7016,2075.84 7316,2197.65 7316,2751.33 z " fill-rule="evenodd" fill="rgb(255,0,0)" stroke-width="5" stroke="rgb(0,0,0)" />
	<path d="M3090,6058.67 3090,6052 3100,6052 3100,6058.67 3090,6058.67 z " fill-rule="evenodd" fill="rgb(255,0,0)" stroke-width="5" stroke="rgb(0,0,0)" />
	<path d="M2788,5758 2788,4858 2900,4858 2900,5758 2788,5758 z " fill-rule="evenodd" fill="rgb(255,0,0)" stroke-width="5" stroke="rgb(0,0,0)" />
	<path d="M2484,646.667 2184,646.667 2184,113.79 2484,235.469 2484,646.667 z " fill-rule="evenodd" fill="rgb(255,0,0)" stroke-width="5" stroke="rgb(0,0,0)" />
	<path d="M7318,4858 7618,4858 7618,5552 7318,5552 7318,4858 z " fill-rule="evenodd" fill="rgb(255,0,0)" stroke-width="5" stroke="rgb(0,0,0)" />
	<path d="M7618,3052 7318,3052 7318,2198.46 7618,2320.27 7618,3052 z " fill-rule="evenodd" fill="rgb(255,0,0)" stroke-width="5" stroke="rgb(0,0,0)" />
	<path d="M3090,6060.67 3100,6060.67 3100,6852 3090,6852 3090,6060.67 z " fill-rule="evenodd" fill="rgb(255,0,0)" stroke-width="5" stroke="rgb(0,0,0)" />
	<path d="M3088,6660 2788,6660 2788,5760 2900,5760 2900,6052 3088,6052 3088,6660 z " fill-rule="evenodd" fill="rgb(255,0,0)" stroke-width="5" stroke="rgb(0,0,0)" />
	<path d="M2182,3054 2182,3954 1882,3954 1882,3152 2050,3152 2050,3054 2182,3054 z " fill-rule="evenodd" fill="rgb(255,0,0)" stroke-width="5" stroke="rgb(0,0,0)" />
	<path d="M1882,2152 2182,2152 2182,3052 2050,3052 2050,2952 1882,2952 1882,2152 z " fill-rule="evenodd" fill="rgb(255,0,0)" stroke-width="5" stroke="rgb(0,0,0)" />
	<path d="M2182,1250 2182,2150 1882,2150 1882,1602 2150,1602 2150,1250 2182,1250 z " fill-rule="evenodd" fill="rgb(255,0,0)" stroke-width="5" stroke="rgb(0,0,0)" />
	<path d="M2182,348 2182,1248 2150,1248 2150,348 2182,348 z " fill-rule="evenodd" fill="rgb(255,0,0)" stroke-width="5" stroke="rgb(0,0,0)" />
	<path d="M2182,346 2150,346 2150,100 2182,112.979 2182,346 z " fill-rule="evenodd" fill="rgb(255,0,0)" stroke-width="5" stroke="rgb(0,0,0)" />
	<path d="M7620,5158.67 7920,5158.67 7920,5552 7620,5552 7620,5158.67 z " fill-rule="evenodd" fill="rgb(255,0,0)" stroke-width="5" stroke="rgb(0,0,0)" />
	<path d="M7920,2450.67 7620,2450.67 7620,2321.09 7920,2442.9 7920,2450.67 z " fill-rule="evenodd" fill="rgb(255,0,0)" stroke-width="5" stroke="rgb(0,0,0)" />
	<path d="M2788,6662 3088,6662 3088,6852 2900,6852 2900,6952 2788,6952 2788,6662 z " fill-rule="evenodd" fill="rgb(255,0,0)" stroke-width="5" stroke="rgb(0,0,0)" />
	<path d="M2486,6361.33 2786,6361.33 2786,6952 2486,6952 2486,6361.33 z " fill-rule="evenodd" fill="rgb(255,0,0)" stroke-width="5" stroke="rgb(0,0,0)" />
	<path d="M2184,6060.67 2484,6060.67 2484,6952 2184,6952 2184,6060.67 z " fill-rule="evenodd" fill="rgb(255,0,0)" stroke-width="5" stroke="rgb(0,0,0)" />
	<path d="M1880,3653.33 1580,3653.33 1580,3152 1880,3152 1880,3653.33 z " fill-rule="evenodd" fill="rgb(255,0,0)" stroke-width="5" stroke="rgb(0,0,0)" />
	<path d="M1580,2753.33 1880,2753.33 1880,2952 1580,2952 1580,2753.33 z " fill-rule="evenodd" fill="rgb(255,0,0)" stroke-width="5" stroke="rgb(0,0,0)" />
	<path d="M1880,1849.33 1580,1849.33 1580,1602 1880,1602 1880,1849.33 z " fill-rule="evenodd" fill="rgb(255,0,0)" stroke-width="5" stroke="rgb(0,0,0)" />
	<path d="M7922,5459.33 8222,5459.33 8222,5552 7922,5552 7922,5459.33 z " fill-rule="evenodd" fill="rgb(255,0,0)" stroke-width="5" stroke="rgb(0,0,0)" />
	<path d="M8222,2751.33 7922,2751.33 7922,2443.71 8222,2565.52 8222,2751.33 z " fill-rule="evenodd" fill="rgb(255,0,0)" stroke-width="5" stroke="rgb(0,0,0)" />
	<path d="M1882,6662 2182,6662 2182,6952 1882,6952 1882,6662 z " fill-rule="evenodd" fill="rgb(255,0,0)" stroke-width="5" stroke="rgb(0,0,0)" />
	<path d="M1580,6361.33 1880,6361.33 1880,6952 1580,6952 1580,6361.33 z " fill-rule="evenodd" fill="rgb(255,0,0)" stroke-width="5" stroke="rgb(0,0,0)" />
	<path d="M1278,6060.67 1578,6060.67 1578,6952 1278,6952 1278,6060.67 z " fill-rule="evenodd" fill="rgb(255,0,0)" stroke-width="5" stroke="rgb(0,0,0)" />
	<path d="M1578,3352.67 1278,3352.67 1278,3152 1578,3152 1578,3352.67 z " fill-rule="evenodd" fill="rgb(255,0,0)" stroke-width="5" stroke="rgb(0,0,0)" />
	<path d="M1278,2452.67 1578,2452.67 1578,2952 1278,2952 1278,2452.67 z " fill-rule="evenodd" fill="rgb(255,0,0)" stroke-width="5" stroke="rgb(0,0,0)" />
	<path d="M1578,2450.67 1278,2450.67 1278,1550.67 1400,1550.67 1400,1602 1578,1602 1578,2450.67 z " fill-rule="evenodd" fill="rgb(255,0,0)" stroke-width="5" stroke="rgb(0,0,0)" />
	<path d="M1278,1548.67 1278,1502 1400,1502 1400,1548.67 1278,1548.67 z " fill-rule="evenodd" fill="rgb(255,0,0)" stroke-width="5" stroke="rgb(0,0,0)" />
	<path d="M8224,4858 8524,4858 8524,5552 8224,5552 8224,4858 z " fill-rule="evenodd" fill="rgb(255,0,0)" stroke-width="5" stroke="rgb(0,0,0)" />
	<path d="M8524,3052 8224,3052 8224,2566.33 8524,2688.14 8524,3052 z " fill-rule="evenodd" fill="rgb(255,0,0)" stroke-width="5" stroke="rgb(0,0,0)" />
	<path d="M976,6662 1276,6662 1276,6952 976,6952 976,6662 z " fill-rule="evenodd" fill="rgb(255,0,0)" stroke-width="5" stroke="rgb(0,0,0)" />
	<path d="M1276,3954 976,3954 976,3152 1276,3152 1276,3954 z " fill-rule="evenodd" fill="rgb(255,0,0)" stroke-width="5" stroke="rgb(0,0,0)" />
	<path d="M976,2152 1276,2152 1276,2952 976,2952 976,2152 z " fill-rule="evenodd" fill="rgb(255,0,0)" stroke-width="5" stroke="rgb(0,0,0)" />
	<path d="M1276,2150 976,2150 976,1502 1276,1502 1276,2150 z " fill-rule="evenodd" fill="rgb(255,0,0)" stroke-width="5" stroke="rgb(0,0,0)" />
	<path d="M8526,5158.67 8600,5158.67 8600,5552 8526,5552 8526,5158.67 z " fill-rule="evenodd" fill="rgb(255,0,0)" stroke-width="5" stroke="rgb(0,0,0)" />
	<path d="M8526,5156.67 8526,4256.67 8600,4256.67 8600,5156.67 8526,5156.67 z " fill-rule="evenodd" fill="rgb(255,0,0)" stroke-width="5" stroke="rgb(0,0,0)" />
	<path d="M8526,4254.67 8526,3354.67 8600,3354.67 8600,4254.67 8526,4254.67 z " fill-rule="evenodd" fill="rgb(255,0,0)" stroke-width="5" stroke="rgb(0,0,0)" />
	<path d="M8526,3352.67 8526,2688.95 8600,2719 8600,3352.67 8526,3352.67 z " fill-rule="evenodd" fill="rgb(255,0,0)" stroke-width="5" stroke="rgb(0,0,0)" />
	<path d="M674,6361.33 974,6361.33 974,6952 674,6952 674,6361.33 z " fill-rule="evenodd" fill="rgb(255,0,0)" stroke-width="5" stroke="rgb(0,0,0)" />
	<path d="M974,3653.33 674,3653.33 674,3152 974,3152 974,3653.33 z " fill-rule="evenodd" fill="rgb(255,0,0)" stroke-width="5" stroke="rgb(0,0,0)" />
	<path d="M674,2753.33 974,2753.33 974,2952 674,2952 674,2753.33 z " fill-rule="evenodd" fill="rgb(255,0,0)" stroke-width="5" stroke="rgb(0,0,0)" />
	<path d="M974,1849.33 674,1849.33 674,1602 700,1602 700,1502 974,1502 974,1849.33 z " fill-rule="evenodd" fill="rgb(255,0,0)" stroke-width="5" stroke="rgb(0,0,0)" />
	<path d="M372,6060.67 672,6060.67 672,6952 372,6952 372,6060.67 z " fill-rule="evenodd" fill="rgb(255,0,0)" stroke-width="5" stroke="rgb(0,0,0)" />
	<path d="M672,3352.67 372,3352.67 372,3152 672,3152 672,3352.67 z " fill-rule="evenodd" fill="rgb(255,0,0)" stroke-width="5" stroke="rgb(0,0,0)" />
	<path d="M372,2452.67 672,2452.67 672,2952 372,2952 372,2452.67 z " fill-rule="evenodd" fill="rgb(255,0,0)" stroke-width="5" stroke="rgb(0,0,0)" />
	<path d="M672,2450.67 372,2450.67 372,1602 672,1602 672,2450.67 z " fill-rule="evenodd" fill="rgb(255,0,0)" stroke-width="5" stroke="rgb(0,0,0)" />
	<path d="M370,6662 370,6952 100,6952 100,6662 370,6662 z " fill-rule="evenodd" fill="rgb(255,0,0)" stroke-width="5" stroke="rgb(0,0,0)" />
	<path d="M370,5760 370,6660 100,6660 100,5760 370,5760 z " fill-rule="evenodd" fill="rgb(255,0,0)" stroke-width="5" stroke="rgb(0,0,0)" />
	<path d="M370,4858 370,5758 100,5758 100,4858 370,4858 z " fill-rule="evenodd" fill="rgb(255,0,0)" stroke-width="5" stroke="rgb(0,0,0)" />
	<path d="M370,3956 370,4856 100,4856 100,3956 370,3956 z " fill-rule="evenodd" fill="rgb(255,0,0)" stroke-width="5" stroke="rgb(0,0,0)" />
	<path d="M370,3954 100,3954 100,3152 370,3152 370,3954 z " fill-rule="evenodd" fill="rgb(255,0,0)" stroke-width="5" stroke="rgb(0,0,0)" />
	<path d="M370,2152 370,2952 100,2952 100,2152 370,2152 z " fill-rule="evenodd" fill="rgb(255,0,0)" stroke-width="5" stroke="rgb(0,0,0)" />
	<path d="M370,2150 100,2150 100,1602 370,1602 370,2150 z " fill-rule="evenodd" fill="rgb(255,0,0)" stroke-width="5" stroke="rgb(0,0,0)" />
	<polyline points="4895,3057 4895,2157 4895,3057 3995,3057 4895,3057 " fill="none" stroke-width="100" stroke="rgb(0,0,0)" />
	<circle cx="4895" cy="3057" r="-15" fill="rgb(0,0,0)" />
	<circle cx="4895" cy="2157" r="-15" fill="rgb(0,0,0)" />
	<circle cx="4895" cy="3057" r="-15" fill="rgb(0,0,0)" />
	<circle cx="3995" cy="3057" r="-15" fill="rgb(0,0,0)" />
	<circle cx="4895" cy="3057" r="-15" fill="rgb(0,0,0)" />
	<polyline points="4895,4047 4895,3057 3905,3057 " fill="none" stroke-width="0.5" stroke="rgb(128,0,128)" />
</svg>
