<?xml version="1.0" standalone="no" ?>
<!DOCTYPE svg PUBLIC "-//W3C//DTD SVG 1.1//EN" "http://www.w3.org/Graphics/SVG/1.1/DTD/svg11.dtd">
<svg width="8700px" height="7052px" xmlns="http://www.w3.org/2000/svg" version="1.1" >
	<path d="M5252,2450.67 5252,1550.67 4952,1550.67 4952,2450.67 5252,2450.67 z " fill-rule="evenodd" fill="rgb(0,128,0)" stroke-width="5" stroke="rgb(0,0,0)" />
	<path d="M4950,3954 4950,3054 4650,3054 4650,3954 4950,3954 z " fill-rule="evenodd" fill="rgb(0,128,0)" stroke-width="5" stroke="rgb(0,0,0)" />
	<path d="M4950,2150 4950,1250 4650,1250 4650,2150 4950,2150 z " fill-rule="evenodd" fill="rgb(0,128,0)" stroke-width="5" stroke="rgb(0,0,0)" />
	<path d="M4648,3653.33 4648,2753.33 4348,2753.33 4348,3653.33 4648,3653.33 z " fill-rule="evenodd" fill="rgb(0,128,0)" stroke-width="5" stroke="rgb(0,0,0)" />
	<path d="M4648,2751.33 4648,1851.33 4348,1851.33 4348,2751.33 4648,2751.33 z " fill-rule="evenodd" fill="rgb(0,128,0)" stroke-width="5" stroke="rgb(0,0,0)" />
	<path d="M5554,5457.33 5554,4557.33 5254,4557.33 5254,5457.33 5554,5457.33 z " fill-rule="evenodd" fill="rgb(0,128,0)" stroke-width="5" stroke="rgb(0,0,0)" />
	<path d="M5554,4555.33 5554,3655.33 5254,3655.33 5254,4555.33 5554,4555.33 z " fill-rule="evenodd" fill="rgb(0,128,0)" stroke-width="5" stroke="rgb(0,0,0)" />
	<path d="M5554,3653.33 5554,2753.33 5254,2753.33 5254,3653.33 5554,3653.33 z " fill-rule="evenodd" fill="rgb(0,128,0)" stroke-width="5" stroke="rgb(0,0,0)" />
	<path d="M4950,4856 4950,3956 4650,3956 4650,4856 4950,4856 z " fill-rule="evenodd" fill="rgb(0,128,0)" stroke-width="5" stroke="rgb(0,0,0)" />
	<path d="M5554,2751.33 5554,1851.33 5254,1851.33 5254,2751.33 5554,2751.33 z " fill-rule="evenodd" fill="rgb(0,128,0)" stroke-width="5" stroke="rgb(0,0,0)" />
	<path d="M4648,4555.33 4648,3655.33 4348,3655.33 4348,4555.33 4648,4555.33 z " fill-rule="evenodd" fill="rgb(0,128,0)" stroke-width="5" stroke="rgb(0,0,0)" />
	<path d="M4346,4254.67 4346,3354.67 4046,3354.67 4046,4254.67 4346,4254.67 z " fill-rule="evenodd" fill="rgb(0,128,0)" stroke-width="5" stroke="rgb(0,0,0)" />
	<path d="M4346,2450.67 4346,1550.67 4046,1550.67 4046,2450.67 4346,2450.67 z " fill-rule="evenodd" fill="rgb(0,128,0)" stroke-width="5" stroke="rgb(0,0,0)" />
	<path d="M5856,4856 5856,3956 5556,3956 5556,4856 5856,4856 z " fill-rule="evenodd" fill="rgb(0,128,0)" stroke-width="5" stroke="rgb(0,0,0)" />
	<path d="M5856,3954 5856,3054 5556,3054 5556,3954 5856,3954 z " fill-rule="evenodd" fill="rgb(0,128,0)" stroke-width="5" stroke="rgb(0,0,0)" />
	<path d="M5856,3052 5856,2152 5556,2152 5556,3052 5856,3052 z " fill-rule="evenodd" fill="rgb(0,128,0)" stroke-width="5" stroke="rgb(0,0,0)" />
	<path d="M4044,4856 4044,3956 3744,3956 3744,4856 4044,4856 z " fill-rule="evenodd" fill="rgb(0,128,0)" stroke-width="5" stroke="rgb(0,0,0)" />
	<path d="M4044,3954 4044,3054 3744,3054 3744,3954 4044,3954 z " fill-rule="evenodd" fill="rgb(0,128,0)" stroke-width="5" stroke="rgb(0,0,0)" />
	<path d="M4044,2150 4044,1250 3744,1250 3744,2150 4044,2150 z " fill-rule="evenodd" fill="rgb(0,128,0)" stroke-width="5" stroke="rgb(0,0,0)" />
	<path d="M6158,5156.67 6158,4256.67 5858,4256.67 5858,5156.67 6158,5156.67 z " fill-rule="evenodd" fill="rgb(0,128,0)" stroke-width="5" stroke="rgb(0,0,0)" />
	<path d="M6158,4254.67 6158,3354.67 5858,3354.67 5858,4254.67 6158,4254.67 z " fill-rule="evenodd" fill="rgb(0,128,0)" stroke-width="5" stroke="rgb(0,0,0)" />
	<path d="M6158,3352.67 6158,2452.67 5858,2452.67 5858,3352.67 6158,3352.67 z " fill-rule="evenodd" fill="rgb(0,128,0)" stroke-width="5" stroke="rgb(0,0,0)" />
	<path d="M3742,2751.33 3742,1851.33 3442,1851.33 3442,2751.33 3742,2751.33 z " fill-rule="evenodd" fill="rgb(0,128,0)" stroke-width="5" stroke="rgb(0,0,0)" />
	<path d="M3742,1849.33 3742,949.333 3442,949.333 3442,1849.33 3742,1849.33 z " fill-rule="evenodd" fill="rgb(0,128,0)" stroke-width="5" stroke="rgb(0,0,0)" />
	<path d="M6460,5457.33 6460,4557.33 6160,4557.33 6160,5457.33 6460,5457.33 z " fill-rule="evenodd" fill="rgb(0,128,0)" stroke-width="5" stroke="rgb(0,0,0)" />
	<path d="M6460,4555.33 6460,3655.33 6160,3655.33 6160,4555.33 6460,4555.33 z " fill-rule="evenodd" fill="rgb(0,128,0)" stroke-width="5" stroke="rgb(0,0,0)" />
	<path d="M6460,3653.33 6460,2753.33 6160,2753.33 6160,3653.33 6460,3653.33 z " fill-rule="evenodd" fill="rgb(0,128,0)" stroke-width="5" stroke="rgb(0,0,0)" />
	<path d="M6460,2751.33 6460,1851.33 6160,1851.33 6160,2751.33 6460,2751.33 z " fill-rule="evenodd" fill="rgb(0,128,0)" stroke-width="5" stroke="rgb(0,0,0)" />
	<path d="M6762,4856 6762,3956 6462,3956 6462,4856 6762,4856 z " fill-rule="evenodd" fill="rgb(0,128,0)" stroke-width="5" stroke="rgb(0,0,0)" />
	<path d="M6762,3954 6762,3054 6462,3054 6462,3954 6762,3954 z " fill-rule="evenodd" fill="rgb(0,128,0)" stroke-width="5" stroke="rgb(0,0,0)" />
	<path d="M6762,3052 6762,2152 6462,2152 6462,3052 6762,3052 z " fill-rule="evenodd" fill="rgb(0,128,0)" stroke-width="5" stroke="rgb(0,0,0)" />
	<path d="M7064,5156.67 7064,4256.67 6764,4256.67 6764,5156.67 7064,5156.67 z " fill-rule="evenodd" fill="rgb(0,128,0)" stroke-width="5" stroke="rgb(0,0,0)" />
	<path d="M7064,4254.67 7064,3354.67 6764,3354.67 6764,4254.67 7064,4254.67 z " fill-rule="evenodd" fill="rgb(0,128,0)" stroke-width="5" stroke="rgb(0,0,0)" />
	<path d="M7064,3352.67 7064,2452.67 6764,2452.67 6764,3352.67 7064,3352.67 z " fill-rule="evenodd" fill="rgb(0,128,0)" stroke-width="5" stroke="rgb(0,0,0)" />
	<path d="M2836,4555.33 2836,3655.33 2536,3655.33 2536,4555.33 2836,4555.33 z " fill-rule="evenodd" fill="rgb(0,128,0)" stroke-width="5" stroke="rgb(0,0,0)" />
	<path d="M2836,3653.33 2836,2753.33 2536,2753.33 2536,3653.33 2836,3653.33 z " fill-rule="evenodd" fill="rgb(0,128,0)" stroke-width="5" stroke="rgb(0,0,0)" />
	<path d="M2836,2751.33 2836,1851.33 2536,1851.33 2536,2751.33 2836,2751.33 z " fill-rule="evenodd" fill="rgb(0,128,0)" stroke-width="5" stroke="rgb(0,0,0)" />
	<path d="M2836,1849.33 2836,949.333 2536,949.333 2536,1849.33 2836,1849.33 z " fill-rule="evenodd" fill="rgb(0,128,0)" stroke-width="5" stroke="rgb(0,0,0)" />
	<path d="M7366,5457.33 7366,4557.33 7066,4557.33 7066,5457.33 7366,5457.33 z " fill-rule="evenodd" fill="rgb(0,128,0)" stroke-width="5" stroke="rgb(0,0,0)" />
	<path d="M7366,4555.33 7366,3655.33 7066,3655.33 7066,4555.33 7366,4555.33 z " fill-rule="evenodd" fill="rgb(0,128,0)" stroke-width="5" stroke="rgb(0,0,0)" />
	<path d="M7366,3653.33 7366,2753.33 7066,2753.33 7066,3653.33 7366,3653.33 z " fill-rule="evenodd" fill="rgb(0,128,0)" stroke-width="5" stroke="rgb(0,0,0)" />
	<path d="M2836,5457.33 2836,4557.33 2536,4557.33 2536,5457.33 2836,5457.33 z " fill-rule="evenodd" fill="rgb(0,128,0)" stroke-width="5" stroke="rgb(0,0,0)" />
	<path d="M2534,5156.67 2534,4256.67 2234,4256.67 2234,5156.67 2534,5156.67 z " fill-rule="evenodd" fill="rgb(0,128,0)" stroke-width="5" stroke="rgb(0,0,0)" />
	<path d="M2534,4254.67 2534,3354.67 2234,3354.67 2234,4254.67 2534,4254.67 z " fill-rule="evenodd" fill="rgb(0,128,0)" stroke-width="5" stroke="rgb(0,0,0)" />
	<path d="M2534,3352.67 2534,2452.67 2234,2452.67 2234,3352.67 2534,3352.67 z " fill-rule="evenodd" fill="rgb(0,128,0)" stroke-width="5" stroke="rgb(0,0,0)" />
	<path d="M2534,2450.67 2534,1550.67 2234,1550.67 2234,2450.67 2534,2450.67 z " fill-rule="evenodd" fill="rgb(0,128,0)" stroke-width="5" stroke="rgb(0,0,0)" />
	<path d="M2534,1548.67 2534,648.667 2234,648.667 2234,1548.67 2534,1548.67 z " fill-rule="evenodd" fill="rgb(0,128,0)" stroke-width="5" stroke="rgb(0,0,0)" />
	<path d="M7668,4856 7668,3956 7368,3956 7368,4856 7668,4856 z " fill-rule="evenodd" fill="rgb(0,128,0)" stroke-width="5" stroke="rgb(0,0,0)" />
	<path d="M7668,3954 7668,3054 7368,3054 7368,3954 7668,3954 z " fill-rule="evenodd" fill="rgb(0,128,0)" stroke-width="5" stroke="rgb(0,0,0)" />
	<path d="M2836,6359.33 2836,5459.33 2536,5459.33 2536,6359.33 2836,6359.33 z " fill-rule="evenodd" fill="rgb(0,128,0)" stroke-width="5" stroke="rgb(0,0,0)" />
	<path d="M2534,6058.67 2534,5158.67 2234,5158.67 2234,6058.67 2534,6058.67 z " fill-rule="evenodd" fill="rgb(0,128,0)" stroke-width="5" stroke="rgb(0,0,0)" />
	<path d="M2232,5758 2232,4858 1932,4858 1932,5758 2232,5758 z " fill-rule="evenodd" fill="rgb(0,128,0)" stroke-width="5" stroke="rgb(0,0,0)" />
	<path d="M2232,4856 2232,3956 1932,3956 1932,4856 2232,4856 z " fill-rule="evenodd" fill="rgb(0,128,0)" stroke-width="5" stroke="rgb(0,0,0)" />
	<path d="M7970,5156.67 7970,4256.67 7670,4256.67 7670,5156.67 7970,5156.67 z " fill-rule="evenodd" fill="rgb(0,128,0)" stroke-width="5" stroke="rgb(0,0,0)" />
	<path d="M7970,4254.67 7970,3354.67 7670,3354.67 7670,4254.67 7970,4254.67 z " fill-rule="evenodd" fill="rgb(0,128,0)" stroke-width="5" stroke="rgb(0,0,0)" />
	<path d="M2232,6660 2232,5760 1932,5760 1932,6660 2232,6660 z " fill-rule="evenodd" fill="rgb(0,128,0)" stroke-width="5" stroke="rgb(0,0,0)" />
	<path d="M1930,6359.33 1930,5459.33 1630,5459.33 1630,6359.33 1930,6359.33 z " fill-rule="evenodd" fill="rgb(0,128,0)" stroke-width="5" stroke="rgb(0,0,0)" />
	<path d="M1930,5457.33 1930,4557.33 1630,4557.33 1630,5457.33 1930,5457.33 z " fill-rule="evenodd" fill="rgb(0,128,0)" stroke-width="5" stroke="rgb(0,0,0)" />
	<path d="M1930,4555.33 1930,3655.33 1630,3655.33 1630,4555.33 1930,4555.33 z " fill-rule="evenodd" fill="rgb(0,128,0)" stroke-width="5" stroke="rgb(0,0,0)" />
	<path d="M1930,2751.33 1930,1851.33 1630,1851.33 1630,2751.33 1930,2751.33 z " fill-rule="evenodd" fill="rgb(0,128,0)" stroke-width="5" stroke="rgb(0,0,0)" />
	<path d="M8272,5457.33 8272,4557.33 7972,4557.33 7972,5457.33 8272,5457.33 z " fill-rule="evenodd" fill="rgb(0,128,0)" stroke-width="5" stroke="rgb(0,0,0)" />
	<path d="M8272,4555.33 8272,3655.33 7972,3655.33 7972,4555.33 8272,4555.33 z " fill-rule="evenodd" fill="rgb(0,128,0)" stroke-width="5" stroke="rgb(0,0,0)" />
	<path d="M8272,3653.33 8272,2753.33 7972,2753.33 7972,3653.33 8272,3653.33 z " fill-rule="evenodd" fill="rgb(0,128,0)" stroke-width="5" stroke="rgb(0,0,0)" />
	<path d="M1628,6058.67 1628,5158.67 1328,5158.67 1328,6058.67 1628,6058.67 z " fill-rule="evenodd" fill="rgb(0,128,0)" stroke-width="5" stroke="rgb(0,0,0)" />
	<path d="M1628,5156.67 1628,4256.67 1328,4256.67 1328,5156.67 1628,5156.67 z " fill-rule="evenodd" fill="rgb(0,128,0)" stroke-width="5" stroke="rgb(0,0,0)" />
	<path d="M1628,4254.67 1628,3354.67 1328,3354.67 1328,4254.67 1628,4254.67 z " fill-rule="evenodd" fill="rgb(0,128,0)" stroke-width="5" stroke="rgb(0,0,0)" />
	<path d="M8574,4856 8574,3956 8274,3956 8274,4856 8574,4856 z " fill-rule="evenodd" fill="rgb(0,128,0)" stroke-width="5" stroke="rgb(0,0,0)" />
	<path d="M8574,3954 8574,3054 8274,3054 8274,3954 8574,3954 z " fill-rule="evenodd" fill="rgb(0,128,0)" stroke-width="5" stroke="rgb(0,0,0)" />
	<path d="M1326,6660 1326,5760 1026,5760 1026,6660 1326,6660 z " fill-rule="evenodd" fill="rgb(0,128,0)" stroke-width="5" stroke="rgb(0,0,0)" />
	<path d="M1326,5758 1326,4858 1026,4858 1026,5758 1326,5758 z " fill-rule="evenodd" fill="rgb(0,128,0)" stroke-width="5" stroke="rgb(0,0,0)" />
	<path d="M1326,4856 1326,3956 1026,3956 1026,4856 1326,4856 z " fill-rule="evenodd" fill="rgb(0,128,0)" stroke-width="5" stroke="rgb(0,0,0)" />
	<path d="M1024,6359.33 1024,5459.33 724,5459.33 724,6359.33 1024,6359.33 z " fill-rule="evenodd" fill="rgb(0,128,0)" stroke-width="5" stroke="rgb(0,0,0)" />
	<path d="M1024,5457.33 1024,4557.33 724,4557.33 724,5457.33 1024,5457.33 z " fill-rule="evenodd" fill="rgb(0,128,0)" stroke-width="5" stroke="rgb(0,0,0)" />
	<path d="M1024,4555.33 1024,3655.33 724,3655.33 724,4555.33 1024,4555.33 z " fill-rule="evenodd" fill="rgb(0,128,0)" stroke-width="5" stroke="rgb(0,0,0)" />
	<path d="M1024,2751.33 1024,1851.33 724,1851.33 724,2751.33 1024,2751.33 z " fill-rule="evenodd" fill="rgb(0,128,0)" stroke-width="5" stroke="rgb(0,0,0)" />
	<path d="M722,6058.67 722,5158.67 422,5158.67 422,6058.67 722,6058.67 z " fill-rule="evenodd" fill="rgb(0,128,0)" stroke-width="5" stroke="rgb(0,0,0)" />
	<path d="M722,5156.67 722,4256.67 422,4256.67 422,5156.67 722,5156.67 z " fill-rule="evenodd" fill="rgb(0,128,0)" stroke-width="5" stroke="rgb(0,0,0)" />
	<path d="M722,4254.67 722,3354.67 422,3354.67 422,4254.67 722,4254.67 z " fill-rule="evenodd" fill="rgb(0,128,0)" stroke-width="5" stroke="rgb(0,0,0)" />
	<path d="M420,6660 420,5760 120,5760 120,6660 420,6660 z " fill-rule="evenodd" fill="rgb(0,128,0)" stroke-width="5" stroke="rgb(0,0,0)" />
	<path d="M420,5758 420,4858 120,4858 120,5758 420,5758 z " fill-rule="evenodd" fill="rgb(0,128,0)" stroke-width="5" stroke="rgb(0,0,0)" />
	<path d="M420,4856 420,3956 120,3956 120,4856 420,4856 z " fill-rule="evenodd" fill="rgb(0,128,0)" stroke-width="5" stroke="rgb(0,0,0)" />
	<path d="M5252,3354.67 5252,4254.67 5050,4254.67 5050,3354.67 5252,3354.67 z " fill-rule="evenodd" fill="rgb(255,0,0)" stroke-width="5" stroke="rgb(0,0,0)" />
	<path d="M4952,2452.67 5252,2452.67 5252,3352.67 5050,3352.67 5050,2952 4952,2952 4952,2452.67 z " fill-rule="evenodd" fill="rgb(255,0,0)" stroke-width="5" stroke="rgb(0,0,0)" />
	<path d="M4650,3052 4650,2152 4950,2152 4950,2952 4900,2952 4900,3052 4950,3052 4650,3052 z " fill-rule="evenodd" fill="rgb(255,0,0)" stroke-width="5" stroke="rgb(0,0,0)" />
	<path d="M4648,1849.33 4348,1849.33 4348,992.542 4648,1114.35 4648,1849.33 z " fill-rule="evenodd" fill="rgb(255,0,0)" stroke-width="5" stroke="rgb(0,0,0)" />
	<path d="M5252,4256.67 5252,5156.67 5050,5156.67 5050,4256.67 5252,4256.67 z " fill-rule="evenodd" fill="rgb(255,0,0)" stroke-width="5" stroke="rgb(0,0,0)" />
	<path d="M5554,1849.33 5254,1849.33 5254,1360.41 5554,1482.22 5554,1849.33 z " fill-rule="evenodd" fill="rgb(255,0,0)" stroke-width="5" stroke="rgb(0,0,0)" />
	<path d="M5252,1548.67 4952,1548.67 4952,1237.79 5252,1359.6 5252,1548.67 z " fill-rule="evenodd" fill="rgb(255,0,0)" stroke-width="5" stroke="rgb(0,0,0)" />
	<path d="M4950,1248 4650,1248 4650,1115.16 4950,1236.97 4950,1248 z " fill-rule="evenodd" fill="rgb(255,0,0)" stroke-width="5" stroke="rgb(0,0,0)" />
	<path d="M4046,2452.67 4346,2452.67 4346,3352.67 4046,3352.67 4046,3052 4200,3052 4200,2952 4046,2952 4046,2452.67 z " fill-rule="evenodd" fill="rgb(255,0,0)" stroke-width="5" stroke="rgb(0,0,0)" />
	<path d="M4346,1548.67 4046,1548.67 4046,869.92 4346,991.73 4346,1548.67 z " fill-rule="evenodd" fill="rgb(255,0,0)" stroke-width="5" stroke="rgb(0,0,0)" />
	<path d="M5556,4858 5856,4858 5856,5552 5556,5552 5556,4858 z " fill-rule="evenodd" fill="rgb(255,0,0)" stroke-width="5" stroke="rgb(0,0,0)" />
	<path d="M5254,5459.33 5554,5459.33 5554,5552 5254,5552 5254,5459.33 z " fill-rule="evenodd" fill="rgb(255,0,0)" stroke-width="5" stroke="rgb(0,0,0)" />
	<path d="M5252,5158.67 5252,5552 5050,5552 5050,5158.67 5252,5158.67 z " fill-rule="evenodd" fill="rgb(255,0,0)" stroke-width="5" stroke="rgb(0,0,0)" />
	<path d="M4650,4858 4950,4858 4950,4952 4650,4952 4650,4858 z " fill-rule="evenodd" fill="rgb(255,0,0)" stroke-width="5" stroke="rgb(0,0,0)" />
	<path d="M4348,4557.33 4648,4557.33 4648,4952 4348,4952 4348,4557.33 z " fill-rule="evenodd" fill="rgb(255,0,0)" stroke-width="5" stroke="rgb(0,0,0)" />
	<path d="M5856,2150 5556,2150 5556,1483.03 5856,1604.84 5856,2150 z " fill-rule="evenodd" fill="rgb(255,0,0)" stroke-width="5" stroke="rgb(0,0,0)" />
	<path d="M4046,4256.67 4346,4256.67 4346,4952 4046,4952 4046,4256.67 z " fill-rule="evenodd" fill="rgb(255,0,0)" stroke-width="5" stroke="rgb(0,0,0)" />
	<path d="M3744,2152 4044,2152 4044,2952 3744,2952 3744,2152 z " fill-rule="evenodd" fill="rgb(255,0,0)" stroke-width="5" stroke="rgb(0,0,0)" />
	<path d="M4044,1248 3744,1248 3744,747.297 4044,869.108 4044,1248 z " fill-rule="evenodd" fill="rgb(255,0,0)" stroke-width="5" stroke="rgb(0,0,0)" />
	<path d="M5858,5158.67 6158,5158.67 6158,5552 5858,5552 5858,5158.67 z " fill-rule="evenodd" fill="rgb(255,0,0)" stroke-width="5" stroke="rgb(0,0,0)" />
	<path d="M6158,2450.67 5858,2450.67 5858,1605.65 6158,1727.46 6158,2450.67 z " fill-rule="evenodd" fill="rgb(255,0,0)" stroke-width="5" stroke="rgb(0,0,0)" />
	<path d="M3744,4858 4044,4858 4044,4952 3744,4952 3744,4858 z " fill-rule="evenodd" fill="rgb(255,0,0)" stroke-width="5" stroke="rgb(0,0,0)" />
	<path d="M3742,4557.33 3742,4952 3700,4952 3700,4557.33 3742,4557.33 z " fill-rule="evenodd" fill="rgb(255,0,0)" stroke-width="5" stroke="rgb(0,0,0)" />
	<path d="M3742,3655.33 3742,4555.33 3700,4555.33 3700,3655.33 3742,3655.33 z " fill-rule="evenodd" fill="rgb(255,0,0)" stroke-width="5" stroke="rgb(0,0,0)" />
	<path d="M3742,3653.33 3700,3653.33 3700,3052 3742,3052 3742,3653.33 z " fill-rule="evenodd" fill="rgb(255,0,0)" stroke-width="5" stroke="rgb(0,0,0)" />
	<path d="M3442,2753.33 3742,2753.33 3742,2952 3442,2952 3442,2753.33 z " fill-rule="evenodd" fill="rgb(255,0,0)" stroke-width="5" stroke="rgb(0,0,0)" />
	<path d="M3742,947.333 3442,947.333 3442,874.539 3529,660 3742,746.485 3742,947.333 z " fill-rule="evenodd" fill="rgb(255,0,0)" stroke-width="5" stroke="rgb(0,0,0)" />
	<path d="M6160,5459.33 6460,5459.33 6460,5552 6160,5552 6160,5459.33 z " fill-rule="evenodd" fill="rgb(255,0,0)" stroke-width="5" stroke="rgb(0,0,0)" />
	<path d="M6160,1849.33 6160,1728.28 6458.14,1849.33 6160,1849.33 z " fill-rule="evenodd" fill="rgb(255,0,0)" stroke-width="5" stroke="rgb(0,0,0)" />
	<path d="M3140,2452.67 3440,2452.67 3440,2952 3140,2952 3140,2452.67 z " fill-rule="evenodd" fill="rgb(255,0,0)" stroke-width="5" stroke="rgb(0,0,0)" />
	<path d="M3440,1550.67 3440,2450.67 3140,2450.67 3140,1602 3147,1602 3167.82,1550.67 3440,1550.67 z " fill-rule="evenodd" fill="rgb(255,0,0)" stroke-width="5" stroke="rgb(0,0,0)" />
	<path d="M3440,1548.67 3168.63,1548.67 3440,879.471 3440,1548.67 z " fill-rule="evenodd" fill="rgb(255,0,0)" stroke-width="5" stroke="rgb(0,0,0)" />
	<path d="M3140,648.667 3426.18,648.667 3140,1354.1 3140,648.667 z " fill-rule="evenodd" fill="rgb(255,0,0)" stroke-width="5" stroke="rgb(0,0,0)" />
	<path d="M3140,646.667 3140,501.538 3437,622 3426.99,646.667 3140,646.667 z " fill-rule="evenodd" fill="rgb(255,0,0)" stroke-width="5" stroke="rgb(0,0,0)" />
	<path d="M6462,4858 6762,4858 6762,5552 6462,5552 6462,4858 z " fill-rule="evenodd" fill="rgb(255,0,0)" stroke-width="5" stroke="rgb(0,0,0)" />
	<path d="M6762,2150 6462,2150 6462,1850.9 6762,1972.71 6762,2150 z " fill-rule="evenodd" fill="rgb(255,0,0)" stroke-width="5" stroke="rgb(0,0,0)" />
	<path d="M2838,3954 2838,3054 2850,3054 2850,3152 2900,3152 2900,3954 2838,3954 z " fill-rule="evenodd" fill="rgb(255,0,0)" stroke-width="5" stroke="rgb(0,0,0)" />
	<path d="M2838,3052 2838,2152 3138,2152 3138,2952 2850,2952 2850,3052 2838,3052 z " fill-rule="evenodd" fill="rgb(255,0,0)" stroke-width="5" stroke="rgb(0,0,0)" />
	<path d="M3138,2150 2838,2150 2838,1250 3138,1250 3138,1359.03 3080,1502 2950,1502 2950,1602 3138,1602 3138,2150 z " fill-rule="evenodd" fill="rgb(255,0,0)" stroke-width="5" stroke="rgb(0,0,0)" />
	<path d="M3138,1248 2838,1248 2838,379.049 3138,500.727 3138,1248 z " fill-rule="evenodd" fill="rgb(255,0,0)" stroke-width="5" stroke="rgb(0,0,0)" />
	<path d="M6764,5158.67 7064,5158.67 7064,5552 6764,5552 6764,5158.67 z " fill-rule="evenodd" fill="rgb(255,0,0)" stroke-width="5" stroke="rgb(0,0,0)" />
	<path d="M7064,2450.67 6764,2450.67 6764,1973.52 7064,2095.33 7064,2450.67 z " fill-rule="evenodd" fill="rgb(255,0,0)" stroke-width="5" stroke="rgb(0,0,0)" />
	<path d="M2838,4856 2838,3956 2900,3956 2900,4856 2838,4856 z " fill-rule="evenodd" fill="rgb(255,0,0)" stroke-width="5" stroke="rgb(0,0,0)" />
	<path d="M2836,947.333 2536,947.333 2536,256.559 2836,378.238 2836,947.333 z " fill-rule="evenodd" fill="rgb(255,0,0)" stroke-width="5" stroke="rgb(0,0,0)" />
	<path d="M7066,5459.33 7366,5459.33 7366,5552 7066,5552 7066,5459.33 z " fill-rule="evenodd" fill="rgb(255,0,0)" stroke-width="5" stroke="rgb(0,0,0)" />
	<path d="M7366,2751.33 7066,2751.33 7066,2096.14 7366,2217.95 7366,2751.33 z " fill-rule="evenodd" fill="rgb(255,0,0)" stroke-width="5" stroke="rgb(0,0,0)" />
	<path d="M2838,5758 2838,4858 2900,4858 2900,5758 2838,5758 z " fill-rule="evenodd" fill="rgb(255,0,0)" stroke-width="5" stroke="rgb(0,0,0)" />
	<path d="M2534,646.667 2234,646.667 2234,134.07 2534,255.748 2534,646.667 z " fill-rule="evenodd" fill="rgb(255,0,0)" stroke-width="5" stroke="rgb(0,0,0)" />
	<path d="M7368,4858 7668,4858 7668,5552 7368,5552 7368,4858 z " fill-rule="evenodd" fill="rgb(255,0,0)" stroke-width="5" stroke="rgb(0,0,0)" />
	<path d="M7668,3052 7368,3052 7368,2218.77 7668,2340.58 7668,3052 z " fill-rule="evenodd" fill="rgb(255,0,0)" stroke-width="5" stroke="rgb(0,0,0)" />
	<path d="M2838,6660 2838,5760 2900,5760 2900,6052 3100,6052 3100,6660 2838,6660 z " fill-rule="evenodd" fill="rgb(255,0,0)" stroke-width="5" stroke="rgb(0,0,0)" />
	<path d="M2232,3054 2232,3954 1932,3954 1932,3152 2050,3152 2050,3054 2232,3054 z " fill-rule="evenodd" fill="rgb(255,0,0)" stroke-width="5" stroke="rgb(0,0,0)" />
	<path d="M1932,2152 2232,2152 2232,3052 2050,3052 2050,2952 1932,2952 1932,2152 z " fill-rule="evenodd" fill="rgb(255,0,0)" stroke-width="5" stroke="rgb(0,0,0)" />
	<path d="M2232,1250 2232,2150 1932,2150 1932,1602 2150,1602 2150,1250 2232,1250 z " fill-rule="evenodd" fill="rgb(255,0,0)" stroke-width="5" stroke="rgb(0,0,0)" />
	<path d="M2232,348 2232,1248 2150,1248 2150,348 2232,348 z " fill-rule="evenodd" fill="rgb(255,0,0)" stroke-width="5" stroke="rgb(0,0,0)" />
	<path d="M2232,346 2150,346 2150,100 2232,133.259 2232,346 z " fill-rule="evenodd" fill="rgb(255,0,0)" stroke-width="5" stroke="rgb(0,0,0)" />
	<path d="M7670,5158.67 7970,5158.67 7970,5552 7670,5552 7670,5158.67 z " fill-rule="evenodd" fill="rgb(255,0,0)" stroke-width="5" stroke="rgb(0,0,0)" />
	<path d="M7970,3352.67 7670,3352.67 7670,2452.67 7944.06,2452.67 7970,2463.2 7970,3352.67 z " fill-rule="evenodd" fill="rgb(255,0,0)" stroke-width="5" stroke="rgb(0,0,0)" />
	<path d="M7670,2450.67 7670,2341.39 7939.14,2450.67 7670,2450.67 z " fill-rule="evenodd" fill="rgb(255,0,0)" stroke-width="5" stroke="rgb(0,0,0)" />
	<path d="M2838,6662 3100,6662 3100,6852 2900,6852 2900,6952 2838,6952 2838,6662 z " fill-rule="evenodd" fill="rgb(255,0,0)" stroke-width="5" stroke="rgb(0,0,0)" />
	<path d="M2536,6361.33 2836,6361.33 2836,6952 2536,6952 2536,6361.33 z " fill-rule="evenodd" fill="rgb(255,0,0)" stroke-width="5" stroke="rgb(0,0,0)" />
	<path d="M2234,6060.67 2534,6060.67 2534,6952 2234,6952 2234,6060.67 z " fill-rule="evenodd" fill="rgb(255,0,0)" stroke-width="5" stroke="rgb(0,0,0)" />
	<path d="M1930,3653.33 1630,3653.33 1630,3152 1930,3152 1930,3653.33 z " fill-rule="evenodd" fill="rgb(255,0,0)" stroke-width="5" stroke="rgb(0,0,0)" />
	<path d="M1630,2753.33 1930,2753.33 1930,2952 1630,2952 1630,2753.33 z " fill-rule="evenodd" fill="rgb(255,0,0)" stroke-width="5" stroke="rgb(0,0,0)" />
	<path d="M1930,1849.33 1630,1849.33 1630,1602 1930,1602 1930,1849.33 z " fill-rule="evenodd" fill="rgb(255,0,0)" stroke-width="5" stroke="rgb(0,0,0)" />
	<path d="M7972,5459.33 8272,5459.33 8272,5552 7972,5552 7972,5459.33 z " fill-rule="evenodd" fill="rgb(255,0,0)" stroke-width="5" stroke="rgb(0,0,0)" />
	<path d="M8272,2751.33 7972,2751.33 7972,2464.01 8272,2585.82 8272,2751.33 z " fill-rule="evenodd" fill="rgb(255,0,0)" stroke-width="5" stroke="rgb(0,0,0)" />
	<path d="M1932,6662 2232,6662 2232,6952 1932,6952 1932,6662 z " fill-rule="evenodd" fill="rgb(255,0,0)" stroke-width="5" stroke="rgb(0,0,0)" />
	<path d="M1630,6361.33 1930,6361.33 1930,6952 1630,6952 1630,6361.33 z " fill-rule="evenodd" fill="rgb(255,0,0)" stroke-width="5" stroke="rgb(0,0,0)" />
	<path d="M1328,6060.67 1628,6060.67 1628,6952 1328,6952 1328,6060.67 z " fill-rule="evenodd" fill="rgb(255,0,0)" stroke-width="5" stroke="rgb(0,0,0)" />
	<path d="M1628,3352.67 1328,3352.67 1328,3152 1628,3152 1628,3352.67 z " fill-rule="evenodd" fill="rgb(255,0,0)" stroke-width="5" stroke="rgb(0,0,0)" />
	<path d="M1328,2452.67 1628,2452.67 1628,2952 1328,2952 1328,2452.67 z " fill-rule="evenodd" fill="rgb(255,0,0)" stroke-width="5" stroke="rgb(0,0,0)" />
	<path d="M1628,2450.67 1328,2450.67 1328,1550.67 1400,1550.67 1400,1602 1628,1602 1628,2450.67 z " fill-rule="evenodd" fill="rgb(255,0,0)" stroke-width="5" stroke="rgb(0,0,0)" />
	<path d="M1328,1548.67 1328,1502 1400,1502 1400,1548.67 1328,1548.67 z " fill-rule="evenodd" fill="rgb(255,0,0)" stroke-width="5" stroke="rgb(0,0,0)" />
	<path d="M8274,4858 8574,4858 8574,5552 8274,5552 8274,4858 z " fill-rule="evenodd" fill="rgb(255,0,0)" stroke-width="5" stroke="rgb(0,0,0)" />
	<path d="M8574,3052 8274,3052 8274,2586.63 8574,2708.44 8574,3052 z " fill-rule="evenodd" fill="rgb(255,0,0)" stroke-width="5" stroke="rgb(0,0,0)" />
	<path d="M1026,6662 1326,6662 1326,6952 1026,6952 1026,6662 z " fill-rule="evenodd" fill="rgb(255,0,0)" stroke-width="5" stroke="rgb(0,0,0)" />
	<path d="M1326,3954 1026,3954 1026,3152 1326,3152 1326,3954 z " fill-rule="evenodd" fill="rgb(255,0,0)" stroke-width="5" stroke="rgb(0,0,0)" />
	<path d="M1026,2152 1326,2152 1326,2952 1026,2952 1026,2152 z " fill-rule="evenodd" fill="rgb(255,0,0)" stroke-width="5" stroke="rgb(0,0,0)" />
	<path d="M1326,2150 1026,2150 1026,1502 1326,1502 1326,2150 z " fill-rule="evenodd" fill="rgb(255,0,0)" stroke-width="5" stroke="rgb(0,0,0)" />
	<path d="M8576,5158.67 8600,5158.67 8600,5552 8576,5552 8576,5158.67 z " fill-rule="evenodd" fill="rgb(255,0,0)" stroke-width="5" stroke="rgb(0,0,0)" />
	<path d="M8576,5156.67 8576,4256.67 8600,4256.67 8600,5156.67 8576,5156.67 z " fill-rule="evenodd" fill="rgb(255,0,0)" stroke-width="5" stroke="rgb(0,0,0)" />
	<path d="M8576,4254.67 8576,3354.67 8600,3354.67 8600,4254.67 8576,4254.67 z " fill-rule="evenodd" fill="rgb(255,0,0)" stroke-width="5" stroke="rgb(0,0,0)" />
	<path d="M8576,3352.67 8576,2709.26 8600,2719 8600,3352.67 8576,3352.67 z " fill-rule="evenodd" fill="rgb(255,0,0)" stroke-width="5" stroke="rgb(0,0,0)" />
	<path d="M724,6361.33 1024,6361.33 1024,6952 724,6952 724,6361.33 z " fill-rule="evenodd" fill="rgb(255,0,0)" stroke-width="5" stroke="rgb(0,0,0)" />
	<path d="M1024,3653.33 724,3653.33 724,3152 1024,3152 1024,3653.33 z " fill-rule="evenodd" fill="rgb(255,0,0)" stroke-width="5" stroke="rgb(0,0,0)" />
	<path d="M724,2753.33 1024,2753.33 1024,2952 724,2952 724,2753.33 z " fill-rule="evenodd" fill="rgb(255,0,0)" stroke-width="5" stroke="rgb(0,0,0)" />
	<path d="M1024,1849.33 724,1849.33 724,1502 1024,1502 1024,1849.33 z " fill-rule="evenodd" fill="rgb(255,0,0)" stroke-width="5" stroke="rgb(0,0,0)" />
	<path d="M422,6060.67 722,6060.67 722,6952 422,6952 422,6060.67 z " fill-rule="evenodd" fill="rgb(255,0,0)" stroke-width="5" stroke="rgb(0,0,0)" />
	<path d="M722,3352.67 422,3352.67 422,3152 722,3152 722,3352.67 z " fill-rule="evenodd" fill="rgb(255,0,0)" stroke-width="5" stroke="rgb(0,0,0)" />
	<path d="M422,2452.67 722,2452.67 722,2952 422,2952 422,2452.67 z " fill-rule="evenodd" fill="rgb(255,0,0)" stroke-width="5" stroke="rgb(0,0,0)" />
	<path d="M722,1550.67 722,2450.67 422,2450.67 422,1602 700,1602 700,1550.67 722,1550.67 z " fill-rule="evenodd" fill="rgb(255,0,0)" stroke-width="5" stroke="rgb(0,0,0)" />
	<path d="M722,1548.67 700,1548.67 700,1502 722,1502 722,1548.67 z " fill-rule="evenodd" fill="rgb(255,0,0)" stroke-width="5" stroke="rgb(0,0,0)" />
	<path d="M120,6662 420,6662 420,6952 120,6952 120,6662 z " fill-rule="evenodd" fill="rgb(255,0,0)" stroke-width="5" stroke="rgb(0,0,0)" />
	<path d="M420,3954 120,3954 120,3152 420,3152 420,3954 z " fill-rule="evenodd" fill="rgb(255,0,0)" stroke-width="5" stroke="rgb(0,0,0)" />
	<path d="M120,2152 420,2152 420,2952 120,2952 120,2152 z " fill-rule="evenodd" fill="rgb(255,0,0)" stroke-width="5" stroke="rgb(0,0,0)" />
	<path d="M420,2150 120,2150 120,1602 420,1602 420,2150 z " fill-rule="evenodd" fill="rgb(255,0,0)" stroke-width="5" stroke="rgb(0,0,0)" />
	<path d="M118,6361.33 118,6952 100,6952 100,6361.33 118,6361.33 z " fill-rule="evenodd" fill="rgb(255,0,0)" stroke-width="5" stroke="rgb(0,0,0)" />
	<path d="M118,5459.33 118,6359.33 100,6359.33 100,5459.33 118,5459.33 z " fill-rule="evenodd" fill="rgb(255,0,0)" stroke-width="5" stroke="rgb(0,0,0)" />
	<path d="M118,4557.33 118,5457.33 100,5457.33 100,4557.33 118,4557.33 z " fill-rule="evenodd" fill="rgb(255,0,0)" stroke-width="5" stroke="rgb(0,0,0)" />
	<path d="M118,3655.33 118,4555.33 100,4555.33 100,3655.33 118,3655.33 z " fill-rule="evenodd" fill="rgb(255,0,0)" stroke-width="5" stroke="rgb(0,0,0)" />
	<path d="M118,3653.33 100,3653.33 100,3152 118,3152 118,3653.33 z " fill-rule="evenodd" fill="rgb(255,0,0)" stroke-width="5" stroke="rgb(0,0,0)" />
	<path d="M118,2753.33 118,2952 100,2952 100,2753.33 118,2753.33 z " fill-rule="evenodd" fill="rgb(255,0,0)" stroke-width="5" stroke="rgb(0,0,0)" />
	<path d="M118,1851.33 118,2751.33 100,2751.33 100,1851.33 118,1851.33 z " fill-rule="evenodd" fill="rgb(255,0,0)" stroke-width="5" stroke="rgb(0,0,0)" />
	<path d="M118,1849.33 100,1849.33 100,1602 118,1602 118,1849.33 z " fill-rule="evenodd" fill="rgb(255,0,0)" stroke-width="5" stroke="rgb(0,0,0)" />
	<polyline points="4945,3057 4945,2157 4945,3057 4045,3057 4945,3057 " fill="none" stroke-width="100" stroke="rgb(0,0,0)" />
	<circle cx="4945" cy="3057" r="-15" fill="rgb(0,0,0)" />
	<circle cx="4945" cy="2157" r="-15" fill="rgb(0,0,0)" />
	<circle cx="4945" cy="3057" r="-15" fill="rgb(0,0,0)" />
	<circle cx="4045" cy="3057" r="-15" fill="rgb(0,0,0)" />
	<circle cx="4945" cy="3057" r="-15" fill="rgb(0,0,0)" />
	<polyline points="4945,4047 4945,3057 3955,3057 " fill="none" stroke-width="0.5" stroke="rgb(128,0,128)" />
</svg>
