<?xml version="1.0" standalone="no" ?>
<!DOCTYPE svg PUBLIC "-//W3C//DTD SVG 1.1//EN" "http://www.w3.org/Graphics/SVG/1.1/DTD/svg11.dtd">
<svg width="8700px" height="7052px" xmlns="http://www.w3.org/2000/svg" version="1.1" >
	<path d="M100,2346 100,2946 700,2946 700,2346 100,2346 z " fill-rule="evenodd" fill="rgb(0,128,0)" stroke-width="5" stroke="rgb(0,0,0)" />
	<path d="M100,3558 100,4158 700,4158 700,3558 100,3558 z " fill-rule="evenodd" fill="rgb(0,128,0)" stroke-width="5" stroke="rgb(0,0,0)" />
	<path d="M706,3558 706,4158 1306,4158 1306,3558 706,3558 z " fill-rule="evenodd" fill="rgb(0,128,0)" stroke-width="5" stroke="rgb(0,0,0)" />
	<path d="M706,4164 706,4764 1306,4764 1306,4164 706,4164 z " fill-rule="evenodd" fill="rgb(0,128,0)" stroke-width="5" stroke="rgb(0,0,0)" />
	<path d="M100,1740 100,2340 700,2340 700,1740 100,1740 z " fill-rule="evenodd" fill="rgb(0,128,0)" stroke-width="5" stroke="rgb(0,0,0)" />
	<path d="M706,2346 706,2946 1306,2946 1306,2346 706,2346 z " fill-rule="evenodd" fill="rgb(0,128,0)" stroke-width="5" stroke="rgb(0,0,0)" />
	<path d="M100,4164 100,4764 700,4764 700,4164 100,4164 z " fill-rule="evenodd" fill="rgb(0,128,0)" stroke-width="5" stroke="rgb(0,0,0)" />
	<path d="M706,4770 706,5370 1306,5370 1306,4770 706,4770 z " fill-rule="evenodd" fill="rgb(0,128,0)" stroke-width="5" stroke="rgb(0,0,0)" />
	<path d="M1312,3558 1312,4158 1912,4158 1912,3558 1312,3558 z " fill-rule="evenodd" fill="rgb(0,128,0)" stroke-width="5" stroke="rgb(0,0,0)" />
	<path d="M1312,4164 1312,4764 1912,4764 1912,4164 1312,4164 z " fill-rule="evenodd" fill="rgb(0,128,0)" stroke-width="5" stroke="rgb(0,0,0)" />
	<path d="M1312,4770 1312,5370 1912,5370 1912,4770 1312,4770 z " fill-rule="evenodd" fill="rgb(0,128,0)" stroke-width="5" stroke="rgb(0,0,0)" />
	<path d="M1312,5376 1312,5976 1912,5976 1912,5376 1312,5376 z " fill-rule="evenodd" fill="rgb(0,128,0)" stroke-width="5" stroke="rgb(0,0,0)" />
	<path d="M706,1740 706,2340 1306,2340 1306,1740 706,1740 z " fill-rule="evenodd" fill="rgb(0,128,0)" stroke-width="5" stroke="rgb(0,0,0)" />
	<path d="M1312,2346 1312,2946 1912,2946 1912,2346 1312,2346 z " fill-rule="evenodd" fill="rgb(0,128,0)" stroke-width="5" stroke="rgb(0,0,0)" />
	<path d="M100,4770 100,5370 700,5370 700,4770 100,4770 z " fill-rule="evenodd" fill="rgb(0,128,0)" stroke-width="5" stroke="rgb(0,0,0)" />
	<path d="M706,5376 706,5976 1306,5976 1306,5376 706,5376 z " fill-rule="evenodd" fill="rgb(0,128,0)" stroke-width="5" stroke="rgb(0,0,0)" />
	<path d="M1312,5982 1312,6582 1912,6582 1912,5982 1312,5982 z " fill-rule="evenodd" fill="rgb(0,128,0)" stroke-width="5" stroke="rgb(0,0,0)" />
	<path d="M1918,3558 1918,4158 2518,4158 2518,3558 1918,3558 z " fill-rule="evenodd" fill="rgb(0,128,0)" stroke-width="5" stroke="rgb(0,0,0)" />
	<path d="M1918,4164 1918,4764 2518,4764 2518,4164 1918,4164 z " fill-rule="evenodd" fill="rgb(0,128,0)" stroke-width="5" stroke="rgb(0,0,0)" />
	<path d="M1918,4770 1918,5370 2518,5370 2518,4770 1918,4770 z " fill-rule="evenodd" fill="rgb(0,128,0)" stroke-width="5" stroke="rgb(0,0,0)" />
	<path d="M1918,5376 1918,5976 2518,5976 2518,5376 1918,5376 z " fill-rule="evenodd" fill="rgb(0,128,0)" stroke-width="5" stroke="rgb(0,0,0)" />
	<path d="M1918,5982 1918,6582 2518,6582 2518,5982 1918,5982 z " fill-rule="evenodd" fill="rgb(0,128,0)" stroke-width="5" stroke="rgb(0,0,0)" />
	<path d="M1312,1740 1312,2340 1912,2340 1912,1740 1312,1740 z " fill-rule="evenodd" fill="rgb(0,128,0)" stroke-width="5" stroke="rgb(0,0,0)" />
	<path d="M1918,2346 1918,2946 2518,2946 2518,2346 1918,2346 z " fill-rule="evenodd" fill="rgb(0,128,0)" stroke-width="5" stroke="rgb(0,0,0)" />
	<path d="M100,5376 100,5976 700,5976 700,5376 100,5376 z " fill-rule="evenodd" fill="rgb(0,128,0)" stroke-width="5" stroke="rgb(0,0,0)" />
	<path d="M706,5982 706,6582 1306,6582 1306,5982 706,5982 z " fill-rule="evenodd" fill="rgb(0,128,0)" stroke-width="5" stroke="rgb(0,0,0)" />
	<path d="M1918,1740 1918,2340 2518,2340 2518,1740 1918,1740 z " fill-rule="evenodd" fill="rgb(0,128,0)" stroke-width="5" stroke="rgb(0,0,0)" />
	<path d="M2524,2346 2524,2946 3124,2946 3124,2346 2524,2346 z " fill-rule="evenodd" fill="rgb(0,128,0)" stroke-width="5" stroke="rgb(0,0,0)" />
	<path d="M100,5982 100,6582 700,6582 700,5982 100,5982 z " fill-rule="evenodd" fill="rgb(0,128,0)" stroke-width="5" stroke="rgb(0,0,0)" />
	<path d="M2524,1740 2524,2340 3124,2340 3124,1740 2524,1740 z " fill-rule="evenodd" fill="rgb(0,128,0)" stroke-width="5" stroke="rgb(0,0,0)" />
	<path d="M3130,2346 3130,2946 3730,2946 3730,2346 3130,2346 z " fill-rule="evenodd" fill="rgb(0,128,0)" stroke-width="5" stroke="rgb(0,0,0)" />
	<path d="M3736,3558 3736,4158 4336,4158 4336,3558 3736,3558 z " fill-rule="evenodd" fill="rgb(0,128,0)" stroke-width="5" stroke="rgb(0,0,0)" />
	<path d="M3736,4164 3736,4764 4336,4764 4336,4164 3736,4164 z " fill-rule="evenodd" fill="rgb(0,128,0)" stroke-width="5" stroke="rgb(0,0,0)" />
	<path d="M3130,1740 3130,2340 3730,2340 3730,1740 3130,1740 z " fill-rule="evenodd" fill="rgb(0,128,0)" stroke-width="5" stroke="rgb(0,0,0)" />
	<path d="M3736,2346 3736,2946 4336,2946 4336,2346 3736,2346 z " fill-rule="evenodd" fill="rgb(0,128,0)" stroke-width="5" stroke="rgb(0,0,0)" />
	<path d="M4342,3558 4342,4158 4942,4158 4942,3558 4342,3558 z " fill-rule="evenodd" fill="rgb(0,128,0)" stroke-width="5" stroke="rgb(0,0,0)" />
	<path d="M4342,4164 4342,4764 4942,4764 4942,4164 4342,4164 z " fill-rule="evenodd" fill="rgb(0,128,0)" stroke-width="5" stroke="rgb(0,0,0)" />
	<path d="M2524,528 2524,1128 3124,1128 3124,528 2524,528 z " fill-rule="evenodd" fill="rgb(0,128,0)" stroke-width="5" stroke="rgb(0,0,0)" />
	<path d="M3736,1740 3736,2340 4336,2340 4336,1740 3736,1740 z " fill-rule="evenodd" fill="rgb(0,128,0)" stroke-width="5" stroke="rgb(0,0,0)" />
	<path d="M4342,2346 4342,2946 4942,2946 4942,2346 4342,2346 z " fill-rule="evenodd" fill="rgb(0,128,0)" stroke-width="5" stroke="rgb(0,0,0)" />
	<path d="M3736,1134 3736,1734 4336,1734 4336,1134 3736,1134 z " fill-rule="evenodd" fill="rgb(0,128,0)" stroke-width="5" stroke="rgb(0,0,0)" />
	<path d="M4342,1740 4342,2340 4942,2340 4942,1740 4342,1740 z " fill-rule="evenodd" fill="rgb(0,128,0)" stroke-width="5" stroke="rgb(0,0,0)" />
	<path d="M4948,2346 4948,2946 5548,2946 5548,2346 4948,2346 z " fill-rule="evenodd" fill="rgb(0,128,0)" stroke-width="5" stroke="rgb(0,0,0)" />
	<path d="M5554,2952 5554,3552 6154,3552 6154,2952 5554,2952 z " fill-rule="evenodd" fill="rgb(0,128,0)" stroke-width="5" stroke="rgb(0,0,0)" />
	<path d="M5554,3558 5554,4158 6154,4158 6154,3558 5554,3558 z " fill-rule="evenodd" fill="rgb(0,128,0)" stroke-width="5" stroke="rgb(0,0,0)" />
	<path d="M5554,4164 5554,4764 6154,4764 6154,4164 5554,4164 z " fill-rule="evenodd" fill="rgb(0,128,0)" stroke-width="5" stroke="rgb(0,0,0)" />
	<path d="M5554,4770 5554,5370 6154,5370 6154,4770 5554,4770 z " fill-rule="evenodd" fill="rgb(0,128,0)" stroke-width="5" stroke="rgb(0,0,0)" />
	<path d="M4948,1740 4948,2340 5548,2340 5548,1740 4948,1740 z " fill-rule="evenodd" fill="rgb(0,128,0)" stroke-width="5" stroke="rgb(0,0,0)" />
	<path d="M5554,2346 5554,2946 6154,2946 6154,2346 5554,2346 z " fill-rule="evenodd" fill="rgb(0,128,0)" stroke-width="5" stroke="rgb(0,0,0)" />
	<path d="M6160,2952 6160,3552 6760,3552 6760,2952 6160,2952 z " fill-rule="evenodd" fill="rgb(0,128,0)" stroke-width="5" stroke="rgb(0,0,0)" />
	<path d="M6160,3558 6160,4158 6760,4158 6760,3558 6160,3558 z " fill-rule="evenodd" fill="rgb(0,128,0)" stroke-width="5" stroke="rgb(0,0,0)" />
	<path d="M6160,4164 6160,4764 6760,4764 6760,4164 6160,4164 z " fill-rule="evenodd" fill="rgb(0,128,0)" stroke-width="5" stroke="rgb(0,0,0)" />
	<path d="M6160,4770 6160,5370 6760,5370 6760,4770 6160,4770 z " fill-rule="evenodd" fill="rgb(0,128,0)" stroke-width="5" stroke="rgb(0,0,0)" />
	<path d="M5554,1740 5554,2340 6154,2340 6154,1740 5554,1740 z " fill-rule="evenodd" fill="rgb(0,128,0)" stroke-width="5" stroke="rgb(0,0,0)" />
	<path d="M6160,2346 6160,2946 6760,2946 6760,2346 6160,2346 z " fill-rule="evenodd" fill="rgb(0,128,0)" stroke-width="5" stroke="rgb(0,0,0)" />
	<path d="M6766,2952 6766,3552 7366,3552 7366,2952 6766,2952 z " fill-rule="evenodd" fill="rgb(0,128,0)" stroke-width="5" stroke="rgb(0,0,0)" />
	<path d="M6766,3558 6766,4158 7366,4158 7366,3558 6766,3558 z " fill-rule="evenodd" fill="rgb(0,128,0)" stroke-width="5" stroke="rgb(0,0,0)" />
	<path d="M6766,4164 6766,4764 7366,4764 7366,4164 6766,4164 z " fill-rule="evenodd" fill="rgb(0,128,0)" stroke-width="5" stroke="rgb(0,0,0)" />
	<path d="M6766,4770 6766,5370 7366,5370 7366,4770 6766,4770 z " fill-rule="evenodd" fill="rgb(0,128,0)" stroke-width="5" stroke="rgb(0,0,0)" />
	<path d="M6766,2346 6766,2946 7366,2946 7366,2346 6766,2346 z " fill-rule="evenodd" fill="rgb(0,128,0)" stroke-width="5" stroke="rgb(0,0,0)" />
	<path d="M7372,2952 7372,3552 7972,3552 7972,2952 7372,2952 z " fill-rule="evenodd" fill="rgb(0,128,0)" stroke-width="5" stroke="rgb(0,0,0)" />
	<path d="M7372,3558 7372,4158 7972,4158 7972,3558 7372,3558 z " fill-rule="evenodd" fill="rgb(0,128,0)" stroke-width="5" stroke="rgb(0,0,0)" />
	<path d="M7372,4164 7372,4764 7972,4764 7972,4164 7372,4164 z " fill-rule="evenodd" fill="rgb(0,128,0)" stroke-width="5" stroke="rgb(0,0,0)" />
	<path d="M7372,4770 7372,5370 7972,5370 7972,4770 7372,4770 z " fill-rule="evenodd" fill="rgb(0,128,0)" stroke-width="5" stroke="rgb(0,0,0)" />
	<path d="M7978,2952 7978,3552 8578,3552 8578,2952 7978,2952 z " fill-rule="evenodd" fill="rgb(0,128,0)" stroke-width="5" stroke="rgb(0,0,0)" />
	<path d="M7978,3558 7978,4158 8578,4158 8578,3558 7978,3558 z " fill-rule="evenodd" fill="rgb(0,128,0)" stroke-width="5" stroke="rgb(0,0,0)" />
	<path d="M7978,4164 7978,4764 8578,4764 8578,4164 7978,4164 z " fill-rule="evenodd" fill="rgb(0,128,0)" stroke-width="5" stroke="rgb(0,0,0)" />
	<path d="M7978,4770 7978,5370 8578,5370 8578,4770 7978,4770 z " fill-rule="evenodd" fill="rgb(0,128,0)" stroke-width="5" stroke="rgb(0,0,0)" />
	<path d="M700,3552 100,3552 100,3152 700,3152 700,3552 z " fill-rule="evenodd" fill="rgb(255,0,0)" stroke-width="5" stroke="rgb(0,0,0)" />
	<path d="M1306,3552 706,3552 706,3152 1306,3152 1306,3552 z " fill-rule="evenodd" fill="rgb(255,0,0)" stroke-width="5" stroke="rgb(0,0,0)" />
	<path d="M1912,3552 1312,3552 1312,3152 1912,3152 1912,3552 z " fill-rule="evenodd" fill="rgb(255,0,0)" stroke-width="5" stroke="rgb(0,0,0)" />
	<path d="M700,1734 100,1734 100,1602 700,1602 700,1734 z " fill-rule="evenodd" fill="rgb(255,0,0)" stroke-width="5" stroke="rgb(0,0,0)" />
	<path d="M1918,2952 2518,2952 2518,3552 1918,3552 1918,3152 2050,3152 2050,2952 1918,2952 1918,2952 z " fill-rule="evenodd" fill="rgb(255,0,0)" stroke-width="5" stroke="rgb(0,0,0)" />
	<path d="M1918,6588 2518,6588 2518,6952 1918,6952 1918,6588 z " fill-rule="evenodd" fill="rgb(255,0,0)" stroke-width="5" stroke="rgb(0,0,0)" />
	<path d="M1306,1734 706,1734 706,1502 1306,1502 1306,1734 z " fill-rule="evenodd" fill="rgb(255,0,0)" stroke-width="5" stroke="rgb(0,0,0)" />
	<path d="M1312,6588 1912,6588 1912,6952 1312,6952 1312,6588 z " fill-rule="evenodd" fill="rgb(255,0,0)" stroke-width="5" stroke="rgb(0,0,0)" />
	<path d="M2524,3552 2524,2952 3124,2952 3124,2952 2850,2952 2850,3152 2900,3152 2900,3552 2524,3552 z " fill-rule="evenodd" fill="rgb(255,0,0)" stroke-width="5" stroke="rgb(0,0,0)" />
	<path d="M2524,4158 2524,3558 2900,3558 2900,4158 2524,4158 z " fill-rule="evenodd" fill="rgb(255,0,0)" stroke-width="5" stroke="rgb(0,0,0)" />
	<path d="M2524,4764 2524,4164 2900,4164 2900,4764 2524,4764 z " fill-rule="evenodd" fill="rgb(255,0,0)" stroke-width="5" stroke="rgb(0,0,0)" />
	<path d="M2524,5370 2524,4770 2900,4770 2900,5370 2524,5370 z " fill-rule="evenodd" fill="rgb(255,0,0)" stroke-width="5" stroke="rgb(0,0,0)" />
	<path d="M2524,5976 2524,5376 2900,5376 2900,5976 2524,5976 z " fill-rule="evenodd" fill="rgb(255,0,0)" stroke-width="5" stroke="rgb(0,0,0)" />
	<path d="M2524,6582 2524,5982 2900,5982 2900,6052 3100,6052 3100,6582 2524,6582 z " fill-rule="evenodd" fill="rgb(255,0,0)" stroke-width="5" stroke="rgb(0,0,0)" />
	<path d="M2524,6588 3100,6588 3100,6852 2900,6852 2900,6952 2524,6952 2524,6588 z " fill-rule="evenodd" fill="rgb(255,0,0)" stroke-width="5" stroke="rgb(0,0,0)" />
	<path d="M1912,1734 1312,1734 1312,1502 1400,1502 1400,1602 1912,1602 1912,1734 z " fill-rule="evenodd" fill="rgb(255,0,0)" stroke-width="5" stroke="rgb(0,0,0)" />
	<path d="M706,6588 1306,6588 1306,6952 706,6952 706,6588 z " fill-rule="evenodd" fill="rgb(255,0,0)" stroke-width="5" stroke="rgb(0,0,0)" />
	<path d="M3730,3552 3700,3552 3700,3052 3730,3052 3730,3552 z " fill-rule="evenodd" fill="rgb(255,0,0)" stroke-width="5" stroke="rgb(0,0,0)" />
	<path d="M3730,3558 3730,4158 3700,4158 3700,3558 3730,3558 z " fill-rule="evenodd" fill="rgb(255,0,0)" stroke-width="5" stroke="rgb(0,0,0)" />
	<path d="M3730,4164 3730,4764 3700,4764 3700,4164 3730,4164 z " fill-rule="evenodd" fill="rgb(255,0,0)" stroke-width="5" stroke="rgb(0,0,0)" />
	<path d="M3730,4770 3730,4952 3700,4952 3700,4770 3730,4770 z " fill-rule="evenodd" fill="rgb(255,0,0)" stroke-width="5" stroke="rgb(0,0,0)" />
	<path d="M2518,1134 2518,1734 1918,1734 1918,1602 2150,1602 2150,1134 2518,1134 z " fill-rule="evenodd" fill="rgb(255,0,0)" stroke-width="5" stroke="rgb(0,0,0)" />
	<path d="M100,6588 700,6588 700,6952 100,6952 100,6588 z " fill-rule="evenodd" fill="rgb(255,0,0)" stroke-width="5" stroke="rgb(0,0,0)" />
	<path d="M3736,2952 4336,2952 4336,3552 3736,3552 3736,3052 4200,3052 4200,2952 3736,2952 3736,2952 z " fill-rule="evenodd" fill="rgb(255,0,0)" stroke-width="5" stroke="rgb(0,0,0)" />
	<path d="M3736,4770 4336,4770 4336,4952 3736,4952 3736,4770 z " fill-rule="evenodd" fill="rgb(255,0,0)" stroke-width="5" stroke="rgb(0,0,0)" />
	<path d="M2518,528 2518,1128 2150,1128 2150,528 2518,528 z " fill-rule="evenodd" fill="rgb(255,0,0)" stroke-width="5" stroke="rgb(0,0,0)" />
	<path d="M3124,1734 2524,1734 2524,1134 3124,1134 3124,1393.54 3080,1502 2950,1502 2950,1602 3124,1602 3124,1734 z " fill-rule="evenodd" fill="rgb(255,0,0)" stroke-width="5" stroke="rgb(0,0,0)" />
	<path d="M4942,3552 4342,3552 4342,2952 4942,2952 4942,2952 4900,2952 4900,3052 4942,3052 4942,3552 z " fill-rule="evenodd" fill="rgb(255,0,0)" stroke-width="5" stroke="rgb(0,0,0)" />
	<path d="M4342,4770 4942,4770 4942,4952 4342,4952 4342,4770 z " fill-rule="evenodd" fill="rgb(255,0,0)" stroke-width="5" stroke="rgb(0,0,0)" />
	<path d="M2518,522 2150,522 2150,100 2518,249.259 2518,522 z " fill-rule="evenodd" fill="rgb(255,0,0)" stroke-width="5" stroke="rgb(0,0,0)" />
	<path d="M3130,1134 3229.29,1134 3130,1378.75 3130,1134 z " fill-rule="evenodd" fill="rgb(255,0,0)" stroke-width="5" stroke="rgb(0,0,0)" />
	<path d="M3730,1134 3730,1734 3130,1734 3130,1602 3147,1602 3336.78,1134 3730,1134 z " fill-rule="evenodd" fill="rgb(255,0,0)" stroke-width="5" stroke="rgb(0,0,0)" />
	<path d="M4948,2952 5548,2952 5548,3552 5050,3552 5050,2952 4948,2952 4948,2952 z " fill-rule="evenodd" fill="rgb(255,0,0)" stroke-width="5" stroke="rgb(0,0,0)" />
	<path d="M4948,3552 4948,3052 4950,3052 4950,3552 4948,3552 z " fill-rule="evenodd" fill="rgb(255,0,0)" stroke-width="5" stroke="rgb(0,0,0)" />
	<path d="M4948,4158 4948,3558 4950,3558 4950,4158 4948,4158 z " fill-rule="evenodd" fill="rgb(255,0,0)" stroke-width="5" stroke="rgb(0,0,0)" />
	<path d="M5548,3558 5548,4158 5050,4158 5050,3558 5548,3558 z " fill-rule="evenodd" fill="rgb(255,0,0)" stroke-width="5" stroke="rgb(0,0,0)" />
	<path d="M4948,4764 4948,4164 4950,4164 4950,4764 4948,4764 z " fill-rule="evenodd" fill="rgb(255,0,0)" stroke-width="5" stroke="rgb(0,0,0)" />
	<path d="M5548,4164 5548,4764 5050,4764 5050,4164 5548,4164 z " fill-rule="evenodd" fill="rgb(255,0,0)" stroke-width="5" stroke="rgb(0,0,0)" />
	<path d="M4948,4770 4950,4770 4950,4952 4948,4952 4948,4770 z " fill-rule="evenodd" fill="rgb(255,0,0)" stroke-width="5" stroke="rgb(0,0,0)" />
	<path d="M5548,4770 5548,5370 5050,5370 5050,4770 5548,4770 z " fill-rule="evenodd" fill="rgb(255,0,0)" stroke-width="5" stroke="rgb(0,0,0)" />
	<path d="M5548,5376 5548,5552 5050,5552 5050,5376 5548,5376 z " fill-rule="evenodd" fill="rgb(255,0,0)" stroke-width="5" stroke="rgb(0,0,0)" />
	<path d="M3124,522 2524,522 2524,251.692 3124,495.049 3124,522 z " fill-rule="evenodd" fill="rgb(255,0,0)" stroke-width="5" stroke="rgb(0,0,0)" />
	<path d="M3130,1128 3130,528 3205.24,528 3437,622 3231.73,1128 3130,1128 z " fill-rule="evenodd" fill="rgb(255,0,0)" stroke-width="5" stroke="rgb(0,0,0)" />
	<path d="M3730,1128 3339.22,1128 3529,660 3730,741.613 3730,1128 z " fill-rule="evenodd" fill="rgb(255,0,0)" stroke-width="5" stroke="rgb(0,0,0)" />
	<path d="M5554,5376 6154,5376 6154,5552 5554,5552 5554,5376 z " fill-rule="evenodd" fill="rgb(255,0,0)" stroke-width="5" stroke="rgb(0,0,0)" />
	<path d="M3130,522 3130,497.483 3190.45,522 3130,522 z " fill-rule="evenodd" fill="rgb(255,0,0)" stroke-width="5" stroke="rgb(0,0,0)" />
	<path d="M4336,1128 3736,1128 3736,744.049 4336,987.67 4336,1128 z " fill-rule="evenodd" fill="rgb(255,0,0)" stroke-width="5" stroke="rgb(0,0,0)" />
	<path d="M4942,1734 4342,1734 4342,1134 4696.39,1134 4942,1233.73 4942,1734 z " fill-rule="evenodd" fill="rgb(255,0,0)" stroke-width="5" stroke="rgb(0,0,0)" />
	<path d="M6160,5376 6760,5376 6760,5552 6160,5552 6160,5376 z " fill-rule="evenodd" fill="rgb(255,0,0)" stroke-width="5" stroke="rgb(0,0,0)" />
	<path d="M4342,1128 4342,990.106 4681.61,1128 4342,1128 z " fill-rule="evenodd" fill="rgb(255,0,0)" stroke-width="5" stroke="rgb(0,0,0)" />
	<path d="M5548,1734 4948,1734 4948,1236.16 5548,1479.78 5548,1734 z " fill-rule="evenodd" fill="rgb(255,0,0)" stroke-width="5" stroke="rgb(0,0,0)" />
	<path d="M6766,5376 7366,5376 7366,5552 6766,5552 6766,5376 z " fill-rule="evenodd" fill="rgb(255,0,0)" stroke-width="5" stroke="rgb(0,0,0)" />
	<path d="M6154,1734 5554,1734 5554,1482.22 6154,1725.84 6154,1734 z " fill-rule="evenodd" fill="rgb(255,0,0)" stroke-width="5" stroke="rgb(0,0,0)" />
	<path d="M6760,2340 6160,2340 6160,1740 6188.87,1740 6760,1971.9 6760,2340 z " fill-rule="evenodd" fill="rgb(255,0,0)" stroke-width="5" stroke="rgb(0,0,0)" />
	<path d="M7372,5376 7972,5376 7972,5552 7372,5552 7372,5376 z " fill-rule="evenodd" fill="rgb(255,0,0)" stroke-width="5" stroke="rgb(0,0,0)" />
	<path d="M6160,1734 6160,1728.28 6174.1,1734 6160,1734 z " fill-rule="evenodd" fill="rgb(255,0,0)" stroke-width="5" stroke="rgb(0,0,0)" />
	<path d="M7366,2340 6766,2340 6766,1974.33 7366,2217.95 7366,2340 z " fill-rule="evenodd" fill="rgb(255,0,0)" stroke-width="5" stroke="rgb(0,0,0)" />
	<path d="M7972,2946 7372,2946 7372,2346 7681.36,2346 7972,2464.01 7972,2946 z " fill-rule="evenodd" fill="rgb(255,0,0)" stroke-width="5" stroke="rgb(0,0,0)" />
	<path d="M7978,5376 8578,5376 8578,5552 7978,5552 7978,5376 z " fill-rule="evenodd" fill="rgb(255,0,0)" stroke-width="5" stroke="rgb(0,0,0)" />
	<path d="M7372,2340 7372,2220.39 7666.58,2340 7372,2340 z " fill-rule="evenodd" fill="rgb(255,0,0)" stroke-width="5" stroke="rgb(0,0,0)" />
	<path d="M8578,2946 7978,2946 7978,2466.45 8578,2710.07 8578,2946 z " fill-rule="evenodd" fill="rgb(255,0,0)" stroke-width="5" stroke="rgb(0,0,0)" />
	<path d="M8584,3552 8584,2952 8600,2952 8600,3552 8584,3552 z " fill-rule="evenodd" fill="rgb(255,0,0)" stroke-width="5" stroke="rgb(0,0,0)" />
	<path d="M8584,4158 8584,3558 8600,3558 8600,4158 8584,4158 z " fill-rule="evenodd" fill="rgb(255,0,0)" stroke-width="5" stroke="rgb(0,0,0)" />
	<path d="M8584,4764 8584,4164 8600,4164 8600,4764 8584,4764 z " fill-rule="evenodd" fill="rgb(255,0,0)" stroke-width="5" stroke="rgb(0,0,0)" />
	<path d="M8584,5370 8584,4770 8600,4770 8600,5370 8584,5370 z " fill-rule="evenodd" fill="rgb(255,0,0)" stroke-width="5" stroke="rgb(0,0,0)" />
	<path d="M8584,5376 8600,5376 8600,5552 8584,5552 8584,5376 z " fill-rule="evenodd" fill="rgb(255,0,0)" stroke-width="5" stroke="rgb(0,0,0)" />
	<path d="M8584,2946 8584,2712.5 8600,2719 8600,2946 8584,2946 z " fill-rule="evenodd" fill="rgb(255,0,0)" stroke-width="5" stroke="rgb(0,0,0)" />
	<polyline points="95,2957 95,3557 95,2957 695,2957 95,2957 " fill="none" stroke-width="100" stroke="rgb(0,0,0)" />
	<circle cx="95" cy="2957" r="-10" fill="rgb(0,0,0)" />
	<circle cx="95" cy="3557" r="-10" fill="rgb(0,0,0)" />
	<circle cx="95" cy="2957" r="-10" fill="rgb(0,0,0)" />
	<circle cx="695" cy="2957" r="-10" fill="rgb(0,0,0)" />
	<circle cx="95" cy="2957" r="-10" fill="rgb(0,0,0)" />
	<polyline points="95,3617 95,2957 -565,2957 " fill="none" stroke-width="0.5" stroke="rgb(128,0,128)" />
</svg>
