<?xml version="1.0" standalone="no" ?>
<!DOCTYPE svg PUBLIC "-//W3C//DTD SVG 1.1//EN" "http://www.w3.org/Graphics/SVG/1.1/DTD/svg11.dtd">
<svg width="8700px" height="7052px" xmlns="http://www.w3.org/2000/svg" version="1.1" >
	<path d="M2656,4364 2656,3764 2056,3764 2056,4364 2656,4364 z " fill-rule="evenodd" fill="rgb(0,128,0)" stroke-width="5" stroke="rgb(0,0,0)" />
	<path d="M2656,3758 2656,3158 2056,3158 2056,3758 2656,3758 z " fill-rule="evenodd" fill="rgb(0,128,0)" stroke-width="5" stroke="rgb(0,0,0)" />
	<path d="M2656,3152 2656,2552 2056,2552 2056,3152 2656,3152 z " fill-rule="evenodd" fill="rgb(0,128,0)" stroke-width="5" stroke="rgb(0,0,0)" />
	<path d="M2050,3758 2050,3158 1450,3158 1450,3758 2050,3758 z " fill-rule="evenodd" fill="rgb(0,128,0)" stroke-width="5" stroke="rgb(0,0,0)" />
	<path d="M2050,2546 2050,1946 1450,1946 1450,2546 2050,2546 z " fill-rule="evenodd" fill="rgb(0,128,0)" stroke-width="5" stroke="rgb(0,0,0)" />
	<path d="M1444,2546 1444,1946 844,1946 844,2546 1444,2546 z " fill-rule="evenodd" fill="rgb(0,128,0)" stroke-width="5" stroke="rgb(0,0,0)" />
	<path d="M2656,4970 2656,4370 2056,4370 2056,4970 2656,4970 z " fill-rule="evenodd" fill="rgb(0,128,0)" stroke-width="5" stroke="rgb(0,0,0)" />
	<path d="M2050,4364 2050,3764 1450,3764 1450,4364 2050,4364 z " fill-rule="evenodd" fill="rgb(0,128,0)" stroke-width="5" stroke="rgb(0,0,0)" />
	<path d="M2656,2546 2656,1946 2056,1946 2056,2546 2656,2546 z " fill-rule="evenodd" fill="rgb(0,128,0)" stroke-width="5" stroke="rgb(0,0,0)" />
	<path d="M1444,3758 1444,3158 844,3158 844,3758 1444,3758 z " fill-rule="evenodd" fill="rgb(0,128,0)" stroke-width="5" stroke="rgb(0,0,0)" />
	<path d="M838,2546 838,1946 238,1946 238,2546 838,2546 z " fill-rule="evenodd" fill="rgb(0,128,0)" stroke-width="5" stroke="rgb(0,0,0)" />
	<path d="M2656,5576 2656,4976 2056,4976 2056,5576 2656,5576 z " fill-rule="evenodd" fill="rgb(0,128,0)" stroke-width="5" stroke="rgb(0,0,0)" />
	<path d="M2050,4970 2050,4370 1450,4370 1450,4970 2050,4970 z " fill-rule="evenodd" fill="rgb(0,128,0)" stroke-width="5" stroke="rgb(0,0,0)" />
	<path d="M1444,4364 1444,3764 844,3764 844,4364 1444,4364 z " fill-rule="evenodd" fill="rgb(0,128,0)" stroke-width="5" stroke="rgb(0,0,0)" />
	<path d="M3262,2546 3262,1946 2662,1946 2662,2546 3262,2546 z " fill-rule="evenodd" fill="rgb(0,128,0)" stroke-width="5" stroke="rgb(0,0,0)" />
	<path d="M838,3758 838,3158 238,3158 238,3758 838,3758 z " fill-rule="evenodd" fill="rgb(0,128,0)" stroke-width="5" stroke="rgb(0,0,0)" />
	<path d="M2656,6182 2656,5582 2056,5582 2056,6182 2656,6182 z " fill-rule="evenodd" fill="rgb(0,128,0)" stroke-width="5" stroke="rgb(0,0,0)" />
	<path d="M2050,5576 2050,4976 1450,4976 1450,5576 2050,5576 z " fill-rule="evenodd" fill="rgb(0,128,0)" stroke-width="5" stroke="rgb(0,0,0)" />
	<path d="M4474,4364 4474,3764 3874,3764 3874,4364 4474,4364 z " fill-rule="evenodd" fill="rgb(0,128,0)" stroke-width="5" stroke="rgb(0,0,0)" />
	<path d="M1444,4970 1444,4370 844,4370 844,4970 1444,4970 z " fill-rule="evenodd" fill="rgb(0,128,0)" stroke-width="5" stroke="rgb(0,0,0)" />
	<path d="M838,4364 838,3764 238,3764 238,4364 838,4364 z " fill-rule="evenodd" fill="rgb(0,128,0)" stroke-width="5" stroke="rgb(0,0,0)" />
	<path d="M4474,3758 4474,3158 3874,3158 3874,3758 4474,3758 z " fill-rule="evenodd" fill="rgb(0,128,0)" stroke-width="5" stroke="rgb(0,0,0)" />
	<path d="M3868,2546 3868,1946 3268,1946 3268,2546 3868,2546 z " fill-rule="evenodd" fill="rgb(0,128,0)" stroke-width="5" stroke="rgb(0,0,0)" />
	<path d="M2656,6788 2656,6188 2056,6188 2056,6788 2656,6788 z " fill-rule="evenodd" fill="rgb(0,128,0)" stroke-width="5" stroke="rgb(0,0,0)" />
	<path d="M2050,6182 2050,5582 1450,5582 1450,6182 2050,6182 z " fill-rule="evenodd" fill="rgb(0,128,0)" stroke-width="5" stroke="rgb(0,0,0)" />
	<path d="M1444,5576 1444,4976 844,4976 844,5576 1444,5576 z " fill-rule="evenodd" fill="rgb(0,128,0)" stroke-width="5" stroke="rgb(0,0,0)" />
	<path d="M838,4970 838,4370 238,4370 238,4970 838,4970 z " fill-rule="evenodd" fill="rgb(0,128,0)" stroke-width="5" stroke="rgb(0,0,0)" />
	<path d="M4474,2546 4474,1946 3874,1946 3874,2546 4474,2546 z " fill-rule="evenodd" fill="rgb(0,128,0)" stroke-width="5" stroke="rgb(0,0,0)" />
	<path d="M3868,1940 3868,1340 3268,1340 3268,1940 3868,1940 z " fill-rule="evenodd" fill="rgb(0,128,0)" stroke-width="5" stroke="rgb(0,0,0)" />
	<path d="M2050,6788 2050,6188 1450,6188 1450,6788 2050,6788 z " fill-rule="evenodd" fill="rgb(0,128,0)" stroke-width="5" stroke="rgb(0,0,0)" />
	<path d="M1444,6182 1444,5582 844,5582 844,6182 1444,6182 z " fill-rule="evenodd" fill="rgb(0,128,0)" stroke-width="5" stroke="rgb(0,0,0)" />
	<path d="M838,5576 838,4976 238,4976 238,5576 838,5576 z " fill-rule="evenodd" fill="rgb(0,128,0)" stroke-width="5" stroke="rgb(0,0,0)" />
	<path d="M5686,4970 5686,4370 5086,4370 5086,4970 5686,4970 z " fill-rule="evenodd" fill="rgb(0,128,0)" stroke-width="5" stroke="rgb(0,0,0)" />
	<path d="M5686,4364 5686,3764 5086,3764 5086,4364 5686,4364 z " fill-rule="evenodd" fill="rgb(0,128,0)" stroke-width="5" stroke="rgb(0,0,0)" />
	<path d="M5686,3758 5686,3158 5086,3158 5086,3758 5686,3758 z " fill-rule="evenodd" fill="rgb(0,128,0)" stroke-width="5" stroke="rgb(0,0,0)" />
	<path d="M5686,3152 5686,2552 5086,2552 5086,3152 5686,3152 z " fill-rule="evenodd" fill="rgb(0,128,0)" stroke-width="5" stroke="rgb(0,0,0)" />
	<path d="M5080,2546 5080,1946 4480,1946 4480,2546 5080,2546 z " fill-rule="evenodd" fill="rgb(0,128,0)" stroke-width="5" stroke="rgb(0,0,0)" />
	<path d="M4474,1940 4474,1340 3874,1340 3874,1940 4474,1940 z " fill-rule="evenodd" fill="rgb(0,128,0)" stroke-width="5" stroke="rgb(0,0,0)" />
	<path d="M1444,6788 1444,6188 844,6188 844,6788 1444,6788 z " fill-rule="evenodd" fill="rgb(0,128,0)" stroke-width="5" stroke="rgb(0,0,0)" />
	<path d="M838,6182 838,5582 238,5582 238,6182 838,6182 z " fill-rule="evenodd" fill="rgb(0,128,0)" stroke-width="5" stroke="rgb(0,0,0)" />
	<path d="M6292,4970 6292,4370 5692,4370 5692,4970 6292,4970 z " fill-rule="evenodd" fill="rgb(0,128,0)" stroke-width="5" stroke="rgb(0,0,0)" />
	<path d="M6292,4364 6292,3764 5692,3764 5692,4364 6292,4364 z " fill-rule="evenodd" fill="rgb(0,128,0)" stroke-width="5" stroke="rgb(0,0,0)" />
	<path d="M6292,3758 6292,3158 5692,3158 5692,3758 6292,3758 z " fill-rule="evenodd" fill="rgb(0,128,0)" stroke-width="5" stroke="rgb(0,0,0)" />
	<path d="M6292,3152 6292,2552 5692,2552 5692,3152 6292,3152 z " fill-rule="evenodd" fill="rgb(0,128,0)" stroke-width="5" stroke="rgb(0,0,0)" />
	<path d="M5686,2546 5686,1946 5086,1946 5086,2546 5686,2546 z " fill-rule="evenodd" fill="rgb(0,128,0)" stroke-width="5" stroke="rgb(0,0,0)" />
	<path d="M5080,1940 5080,1340 4480,1340 4480,1940 5080,1940 z " fill-rule="evenodd" fill="rgb(0,128,0)" stroke-width="5" stroke="rgb(0,0,0)" />
	<path d="M838,6788 838,6188 238,6188 238,6788 838,6788 z " fill-rule="evenodd" fill="rgb(0,128,0)" stroke-width="5" stroke="rgb(0,0,0)" />
	<path d="M6898,4970 6898,4370 6298,4370 6298,4970 6898,4970 z " fill-rule="evenodd" fill="rgb(0,128,0)" stroke-width="5" stroke="rgb(0,0,0)" />
	<path d="M6898,4364 6898,3764 6298,3764 6298,4364 6898,4364 z " fill-rule="evenodd" fill="rgb(0,128,0)" stroke-width="5" stroke="rgb(0,0,0)" />
	<path d="M6898,3758 6898,3158 6298,3158 6298,3758 6898,3758 z " fill-rule="evenodd" fill="rgb(0,128,0)" stroke-width="5" stroke="rgb(0,0,0)" />
	<path d="M6898,3152 6898,2552 6298,2552 6298,3152 6898,3152 z " fill-rule="evenodd" fill="rgb(0,128,0)" stroke-width="5" stroke="rgb(0,0,0)" />
	<path d="M6292,2546 6292,1946 5692,1946 5692,2546 6292,2546 z " fill-rule="evenodd" fill="rgb(0,128,0)" stroke-width="5" stroke="rgb(0,0,0)" />
	<path d="M7504,4970 7504,4370 6904,4370 6904,4970 7504,4970 z " fill-rule="evenodd" fill="rgb(0,128,0)" stroke-width="5" stroke="rgb(0,0,0)" />
	<path d="M7504,4364 7504,3764 6904,3764 6904,4364 7504,4364 z " fill-rule="evenodd" fill="rgb(0,128,0)" stroke-width="5" stroke="rgb(0,0,0)" />
	<path d="M7504,3758 7504,3158 6904,3158 6904,3758 7504,3758 z " fill-rule="evenodd" fill="rgb(0,128,0)" stroke-width="5" stroke="rgb(0,0,0)" />
	<path d="M7504,3152 7504,2552 6904,2552 6904,3152 7504,3152 z " fill-rule="evenodd" fill="rgb(0,128,0)" stroke-width="5" stroke="rgb(0,0,0)" />
	<path d="M8110,4970 8110,4370 7510,4370 7510,4970 8110,4970 z " fill-rule="evenodd" fill="rgb(0,128,0)" stroke-width="5" stroke="rgb(0,0,0)" />
	<path d="M8110,4364 8110,3764 7510,3764 7510,4364 8110,4364 z " fill-rule="evenodd" fill="rgb(0,128,0)" stroke-width="5" stroke="rgb(0,0,0)" />
	<path d="M8110,3758 8110,3158 7510,3158 7510,3758 8110,3758 z " fill-rule="evenodd" fill="rgb(0,128,0)" stroke-width="5" stroke="rgb(0,0,0)" />
	<path d="M8110,3152 8110,2552 7510,2552 7510,3152 8110,3152 z " fill-rule="evenodd" fill="rgb(0,128,0)" stroke-width="5" stroke="rgb(0,0,0)" />
	<path d="M1450,2552 2050,2552 2050,2952 1450,2952 1450,2552 z " fill-rule="evenodd" fill="rgb(255,0,0)" stroke-width="5" stroke="rgb(0,0,0)" />
	<path d="M844,2552 1444,2552 1444,2952 844,2952 844,2552 z " fill-rule="evenodd" fill="rgb(255,0,0)" stroke-width="5" stroke="rgb(0,0,0)" />
	<path d="M1444,1940 844,1940 844,1502 1400,1502 1400,1602 1444,1602 1444,1940 z " fill-rule="evenodd" fill="rgb(255,0,0)" stroke-width="5" stroke="rgb(0,0,0)" />
	<path d="M2662,5576 2662,4976 2900,4976 2900,5576 2662,5576 z " fill-rule="evenodd" fill="rgb(255,0,0)" stroke-width="5" stroke="rgb(0,0,0)" />
	<path d="M2662,4970 2662,4370 2900,4370 2900,4970 2662,4970 z " fill-rule="evenodd" fill="rgb(255,0,0)" stroke-width="5" stroke="rgb(0,0,0)" />
	<path d="M2662,4364 2662,3764 2900,3764 2900,4364 2662,4364 z " fill-rule="evenodd" fill="rgb(255,0,0)" stroke-width="5" stroke="rgb(0,0,0)" />
	<path d="M2662,3758 2662,3158 2900,3158 2900,3758 2662,3758 z " fill-rule="evenodd" fill="rgb(255,0,0)" stroke-width="5" stroke="rgb(0,0,0)" />
	<path d="M2662,3152 2662,2552 3262,2552 3262,2952 2850,2952 2850,3152 2662,3152 z " fill-rule="evenodd" fill="rgb(255,0,0)" stroke-width="5" stroke="rgb(0,0,0)" />
	<path d="M2050,1940 1450,1940 1450,1602 2050,1602 2050,1940 z " fill-rule="evenodd" fill="rgb(255,0,0)" stroke-width="5" stroke="rgb(0,0,0)" />
	<path d="M238,2552 838,2552 838,2952 238,2952 238,2552 z " fill-rule="evenodd" fill="rgb(255,0,0)" stroke-width="5" stroke="rgb(0,0,0)" />
	<path d="M838,1940 238,1940 238,1602 700,1602 700,1502 838,1502 838,1940 z " fill-rule="evenodd" fill="rgb(255,0,0)" stroke-width="5" stroke="rgb(0,0,0)" />
	<path d="M2662,6182 2662,5582 2900,5582 2900,6052 3100,6052 3100,6182 2662,6182 z " fill-rule="evenodd" fill="rgb(255,0,0)" stroke-width="5" stroke="rgb(0,0,0)" />
	<path d="M3868,4370 3868,4952 3700,4952 3700,4370 3868,4370 z " fill-rule="evenodd" fill="rgb(255,0,0)" stroke-width="5" stroke="rgb(0,0,0)" />
	<path d="M3868,3764 3868,4364 3700,4364 3700,3764 3868,3764 z " fill-rule="evenodd" fill="rgb(255,0,0)" stroke-width="5" stroke="rgb(0,0,0)" />
	<path d="M3868,3158 3868,3758 3700,3758 3700,3158 3868,3158 z " fill-rule="evenodd" fill="rgb(255,0,0)" stroke-width="5" stroke="rgb(0,0,0)" />
	<path d="M3868,3152 3700,3152 3700,3052 3868,3052 3868,3152 z " fill-rule="evenodd" fill="rgb(255,0,0)" stroke-width="5" stroke="rgb(0,0,0)" />
	<path d="M3268,2552 3868,2552 3868,2952 3268,2952 3268,2552 z " fill-rule="evenodd" fill="rgb(255,0,0)" stroke-width="5" stroke="rgb(0,0,0)" />
	<path d="M2656,1340 2656,1940 2056,1940 2056,1602 2150,1602 2150,1340 2656,1340 z " fill-rule="evenodd" fill="rgb(255,0,0)" stroke-width="5" stroke="rgb(0,0,0)" />
	<path d="M232,2552 232,2952 100,2952 100,2552 232,2552 z " fill-rule="evenodd" fill="rgb(255,0,0)" stroke-width="5" stroke="rgb(0,0,0)" />
	<path d="M232,1946 232,2546 100,2546 100,1946 232,1946 z " fill-rule="evenodd" fill="rgb(255,0,0)" stroke-width="5" stroke="rgb(0,0,0)" />
	<path d="M232,1940 100,1940 100,1602 232,1602 232,1940 z " fill-rule="evenodd" fill="rgb(255,0,0)" stroke-width="5" stroke="rgb(0,0,0)" />
	<path d="M2662,6788 2662,6188 3100,6188 3100,6788 2662,6788 z " fill-rule="evenodd" fill="rgb(255,0,0)" stroke-width="5" stroke="rgb(0,0,0)" />
	<path d="M3874,4370 4474,4370 4474,4952 3874,4952 3874,4370 z " fill-rule="evenodd" fill="rgb(255,0,0)" stroke-width="5" stroke="rgb(0,0,0)" />
	<path d="M3874,2552 4474,2552 4474,3152 3874,3152 3874,3052 4200,3052 4200,2952 3874,2952 3874,2552 z " fill-rule="evenodd" fill="rgb(255,0,0)" stroke-width="5" stroke="rgb(0,0,0)" />
	<path d="M3262,1340 3262,1940 2662,1940 2662,1340 3145.72,1340 3080,1502 2950,1502 2950,1602 3147,1602 3253.25,1340 3262,1340 z " fill-rule="evenodd" fill="rgb(255,0,0)" stroke-width="5" stroke="rgb(0,0,0)" />
	<path d="M2656,734 2656,1334 2150,1334 2150,734 2656,734 z " fill-rule="evenodd" fill="rgb(255,0,0)" stroke-width="5" stroke="rgb(0,0,0)" />
	<path d="M232,3158 232,3758 100,3758 100,3158 232,3158 z " fill-rule="evenodd" fill="rgb(255,0,0)" stroke-width="5" stroke="rgb(0,0,0)" />
	<path d="M2662,6794 3100,6794 3100,6852 2900,6852 2900,6952 2662,6952 2662,6794 z " fill-rule="evenodd" fill="rgb(255,0,0)" stroke-width="5" stroke="rgb(0,0,0)" />
	<path d="M5080,4976 5080,5552 5050,5552 5050,4976 5080,4976 z " fill-rule="evenodd" fill="rgb(255,0,0)" stroke-width="5" stroke="rgb(0,0,0)" />
	<path d="M5080,4370 5080,4970 5050,4970 5050,4370 5080,4370 z " fill-rule="evenodd" fill="rgb(255,0,0)" stroke-width="5" stroke="rgb(0,0,0)" />
	<path d="M4480,4370 4950,4370 4950,4952 4480,4952 4480,4370 z " fill-rule="evenodd" fill="rgb(255,0,0)" stroke-width="5" stroke="rgb(0,0,0)" />
	<path d="M5080,3764 5080,4364 5050,4364 5050,3764 5080,3764 z " fill-rule="evenodd" fill="rgb(255,0,0)" stroke-width="5" stroke="rgb(0,0,0)" />
	<path d="M4480,4364 4480,3764 4950,3764 4950,4364 4480,4364 z " fill-rule="evenodd" fill="rgb(255,0,0)" stroke-width="5" stroke="rgb(0,0,0)" />
	<path d="M232,3764 232,4364 100,4364 100,3764 232,3764 z " fill-rule="evenodd" fill="rgb(255,0,0)" stroke-width="5" stroke="rgb(0,0,0)" />
	<path d="M5080,3158 5080,3758 5050,3758 5050,3158 5080,3158 z " fill-rule="evenodd" fill="rgb(255,0,0)" stroke-width="5" stroke="rgb(0,0,0)" />
	<path d="M4480,3758 4480,3158 4950,3158 4950,3758 4480,3758 z " fill-rule="evenodd" fill="rgb(255,0,0)" stroke-width="5" stroke="rgb(0,0,0)" />
	<path d="M4480,3152 4480,2552 5080,2552 5080,3152 5050,3152 5050,2952 4900,2952 4900,3052 4950,3052 4950,3152 4480,3152 z " fill-rule="evenodd" fill="rgb(255,0,0)" stroke-width="5" stroke="rgb(0,0,0)" />
	<path d="M3262,1334 3255.68,1334 3262,1318.41 3262,1334 z " fill-rule="evenodd" fill="rgb(255,0,0)" stroke-width="5" stroke="rgb(0,0,0)" />
	<path d="M2662,1334 2662,734 3262,734 3262,1053.37 3148.15,1334 2662,1334 z " fill-rule="evenodd" fill="rgb(255,0,0)" stroke-width="5" stroke="rgb(0,0,0)" />
	<path d="M2656,728 2150,728 2150,128 2219.03,128 2656,305.231 2656,728 z " fill-rule="evenodd" fill="rgb(255,0,0)" stroke-width="5" stroke="rgb(0,0,0)" />
	<path d="M2056,6794 2656,6794 2656,6952 2056,6952 2056,6794 z " fill-rule="evenodd" fill="rgb(255,0,0)" stroke-width="5" stroke="rgb(0,0,0)" />
	<path d="M5086,4976 5686,4976 5686,5552 5086,5552 5086,4976 z " fill-rule="evenodd" fill="rgb(255,0,0)" stroke-width="5" stroke="rgb(0,0,0)" />
	<path d="M232,4370 232,4970 100,4970 100,4370 232,4370 z " fill-rule="evenodd" fill="rgb(255,0,0)" stroke-width="5" stroke="rgb(0,0,0)" />
	<path d="M3868,1334 3268,1334 3268,1303.62 3498.99,734 3711.25,734 3868,797.646 3868,1334 z " fill-rule="evenodd" fill="rgb(255,0,0)" stroke-width="5" stroke="rgb(0,0,0)" />
	<path d="M3268,734 3391.56,734 3268,1038.58 3268,734 z " fill-rule="evenodd" fill="rgb(255,0,0)" stroke-width="5" stroke="rgb(0,0,0)" />
	<path d="M3262,728 2662,728 2662,307.664 3262,551.021 3262,728 z " fill-rule="evenodd" fill="rgb(255,0,0)" stroke-width="5" stroke="rgb(0,0,0)" />
	<path d="M2150,122 2150,100 2204.24,122 2150,122 z " fill-rule="evenodd" fill="rgb(255,0,0)" stroke-width="5" stroke="rgb(0,0,0)" />
	<path d="M1450,6794 2050,6794 2050,6952 1450,6952 1450,6794 z " fill-rule="evenodd" fill="rgb(255,0,0)" stroke-width="5" stroke="rgb(0,0,0)" />
	<path d="M232,4976 232,5576 100,5576 100,4976 232,4976 z " fill-rule="evenodd" fill="rgb(255,0,0)" stroke-width="5" stroke="rgb(0,0,0)" />
	<path d="M5692,4976 6292,4976 6292,5552 5692,5552 5692,4976 z " fill-rule="evenodd" fill="rgb(255,0,0)" stroke-width="5" stroke="rgb(0,0,0)" />
	<path d="M4474,1334 3874,1334 3874,800.082 4474,1043.7 4474,1334 z " fill-rule="evenodd" fill="rgb(255,0,0)" stroke-width="5" stroke="rgb(0,0,0)" />
	<path d="M3268,728 3268,553.455 3437,622 3394,728 3268,728 z " fill-rule="evenodd" fill="rgb(255,0,0)" stroke-width="5" stroke="rgb(0,0,0)" />
	<path d="M3501.42,728 3529,660 3696.47,728 3501.42,728 z " fill-rule="evenodd" fill="rgb(255,0,0)" stroke-width="5" stroke="rgb(0,0,0)" />
	<path d="M844,6794 1444,6794 1444,6952 844,6952 844,6794 z " fill-rule="evenodd" fill="rgb(255,0,0)" stroke-width="5" stroke="rgb(0,0,0)" />
	<path d="M232,5582 232,6182 100,6182 100,5582 232,5582 z " fill-rule="evenodd" fill="rgb(255,0,0)" stroke-width="5" stroke="rgb(0,0,0)" />
	<path d="M6298,4976 6898,4976 6898,5552 6298,5552 6298,4976 z " fill-rule="evenodd" fill="rgb(255,0,0)" stroke-width="5" stroke="rgb(0,0,0)" />
	<path d="M5686,1940 5086,1940 5086,1340 5203.74,1340 5686,1535.82 5686,1940 z " fill-rule="evenodd" fill="rgb(255,0,0)" stroke-width="5" stroke="rgb(0,0,0)" />
	<path d="M5080,1334 4480,1334 4480,1046.14 5080,1289.76 5080,1334 z " fill-rule="evenodd" fill="rgb(255,0,0)" stroke-width="5" stroke="rgb(0,0,0)" />
	<path d="M238,6794 838,6794 838,6952 238,6952 238,6794 z " fill-rule="evenodd" fill="rgb(255,0,0)" stroke-width="5" stroke="rgb(0,0,0)" />
	<path d="M232,6188 232,6788 100,6788 100,6188 232,6188 z " fill-rule="evenodd" fill="rgb(255,0,0)" stroke-width="5" stroke="rgb(0,0,0)" />
	<path d="M6904,4976 7504,4976 7504,5552 6904,5552 6904,4976 z " fill-rule="evenodd" fill="rgb(255,0,0)" stroke-width="5" stroke="rgb(0,0,0)" />
	<path d="M6898,2546 6298,2546 6298,1946 6696.22,1946 6898,2027.93 6898,2546 z " fill-rule="evenodd" fill="rgb(255,0,0)" stroke-width="5" stroke="rgb(0,0,0)" />
	<path d="M6292,1940 5692,1940 5692,1538.25 6292,1781.87 6292,1940 z " fill-rule="evenodd" fill="rgb(255,0,0)" stroke-width="5" stroke="rgb(0,0,0)" />
	<path d="M5086,1334 5086,1292.2 5188.96,1334 5086,1334 z " fill-rule="evenodd" fill="rgb(255,0,0)" stroke-width="5" stroke="rgb(0,0,0)" />
	<path d="M232,6794 232,6952 100,6952 100,6794 232,6794 z " fill-rule="evenodd" fill="rgb(255,0,0)" stroke-width="5" stroke="rgb(0,0,0)" />
	<path d="M7510,4976 8110,4976 8110,5552 7510,5552 7510,4976 z " fill-rule="evenodd" fill="rgb(255,0,0)" stroke-width="5" stroke="rgb(0,0,0)" />
	<path d="M7504,2546 6904,2546 6904,2030.37 7504,2273.99 7504,2546 z " fill-rule="evenodd" fill="rgb(255,0,0)" stroke-width="5" stroke="rgb(0,0,0)" />
	<path d="M6298,1940 6298,1784.31 6681.44,1940 6298,1940 z " fill-rule="evenodd" fill="rgb(255,0,0)" stroke-width="5" stroke="rgb(0,0,0)" />
	<path d="M8116,4976 8600,4976 8600,5552 8116,5552 8116,4976 z " fill-rule="evenodd" fill="rgb(255,0,0)" stroke-width="5" stroke="rgb(0,0,0)" />
	<path d="M8116,4970 8116,4370 8600,4370 8600,4970 8116,4970 z " fill-rule="evenodd" fill="rgb(255,0,0)" stroke-width="5" stroke="rgb(0,0,0)" />
	<path d="M8116,4364 8116,3764 8600,3764 8600,4364 8116,4364 z " fill-rule="evenodd" fill="rgb(255,0,0)" stroke-width="5" stroke="rgb(0,0,0)" />
	<path d="M8116,3758 8116,3158 8600,3158 8600,3758 8116,3758 z " fill-rule="evenodd" fill="rgb(255,0,0)" stroke-width="5" stroke="rgb(0,0,0)" />
	<path d="M8116,3152 8116,2552 8188.7,2552 8600,2719 8600,3152 8116,3152 z " fill-rule="evenodd" fill="rgb(255,0,0)" stroke-width="5" stroke="rgb(0,0,0)" />
	<path d="M8110,2546 7510,2546 7510,2276.42 8110,2520.04 8110,2546 z " fill-rule="evenodd" fill="rgb(255,0,0)" stroke-width="5" stroke="rgb(0,0,0)" />
	<path d="M8116,2546 8116,2522.48 8173.93,2546 8116,2546 z " fill-rule="evenodd" fill="rgb(255,0,0)" stroke-width="5" stroke="rgb(0,0,0)" />
	<polyline points="2045,3157 2045,2557 2045,3157 1445,3157 2045,3157 " fill="none" stroke-width="100" stroke="rgb(0,0,0)" />
	<circle cx="2045" cy="3157" r="-10" fill="rgb(0,0,0)" />
	<circle cx="2045" cy="2557" r="-10" fill="rgb(0,0,0)" />
	<circle cx="2045" cy="3157" r="-10" fill="rgb(0,0,0)" />
	<circle cx="1445" cy="3157" r="-10" fill="rgb(0,0,0)" />
	<circle cx="2045" cy="3157" r="-10" fill="rgb(0,0,0)" />
	<polyline points="2045,3817 2045,3157 1385,3157 " fill="none" stroke-width="0.5" stroke="rgb(128,0,128)" />
</svg>
