<?xml version="1.0" standalone="no" ?>
<!DOCTYPE svg PUBLIC "-//W3C//DTD SVG 1.1//EN" "http://www.w3.org/Graphics/SVG/1.1/DTD/svg11.dtd">
<svg width="8700px" height="7052px" xmlns="http://www.w3.org/2000/svg" version="1.1" >
	<path d="M3700,3658 4300,3658 4300,3058 3700,3058 3700,3658 z " fill-rule="evenodd" fill="rgb(0,128,0)" stroke-width="5" stroke="rgb(0,0,0)" />
	<path d="M3700,2446 4300,2446 4300,1846 3700,1846 3700,2446 z " fill-rule="evenodd" fill="rgb(0,128,0)" stroke-width="5" stroke="rgb(0,0,0)" />
	<path d="M4306,2446 4906,2446 4906,1846 4306,1846 4306,2446 z " fill-rule="evenodd" fill="rgb(0,128,0)" stroke-width="5" stroke="rgb(0,0,0)" />
	<path d="M4912,2446 5512,2446 5512,1846 4912,1846 4912,2446 z " fill-rule="evenodd" fill="rgb(0,128,0)" stroke-width="5" stroke="rgb(0,0,0)" />
	<path d="M1276,4264 1876,4264 1876,3664 1276,3664 1276,4264 z " fill-rule="evenodd" fill="rgb(0,128,0)" stroke-width="5" stroke="rgb(0,0,0)" />
	<path d="M1882,4264 2482,4264 2482,3664 1882,3664 1882,4264 z " fill-rule="evenodd" fill="rgb(0,128,0)" stroke-width="5" stroke="rgb(0,0,0)" />
	<path d="M3700,4264 4300,4264 4300,3664 3700,3664 3700,4264 z " fill-rule="evenodd" fill="rgb(0,128,0)" stroke-width="5" stroke="rgb(0,0,0)" />
	<path d="M4306,3658 4906,3658 4906,3058 4306,3058 4306,3658 z " fill-rule="evenodd" fill="rgb(0,128,0)" stroke-width="5" stroke="rgb(0,0,0)" />
	<path d="M3094,2446 3694,2446 3694,1846 3094,1846 3094,2446 z " fill-rule="evenodd" fill="rgb(0,128,0)" stroke-width="5" stroke="rgb(0,0,0)" />
	<path d="M5518,2446 6118,2446 6118,1846 5518,1846 5518,2446 z " fill-rule="evenodd" fill="rgb(0,128,0)" stroke-width="5" stroke="rgb(0,0,0)" />
	<path d="M3700,1840 4300,1840 4300,1240 3700,1240 3700,1840 z " fill-rule="evenodd" fill="rgb(0,128,0)" stroke-width="5" stroke="rgb(0,0,0)" />
	<path d="M4306,1840 4906,1840 4906,1240 4306,1240 4306,1840 z " fill-rule="evenodd" fill="rgb(0,128,0)" stroke-width="5" stroke="rgb(0,0,0)" />
	<path d="M670,4870 1270,4870 1270,4270 670,4270 670,4870 z " fill-rule="evenodd" fill="rgb(0,128,0)" stroke-width="5" stroke="rgb(0,0,0)" />
	<path d="M1276,4870 1876,4870 1876,4270 1276,4270 1276,4870 z " fill-rule="evenodd" fill="rgb(0,128,0)" stroke-width="5" stroke="rgb(0,0,0)" />
	<path d="M670,4264 1270,4264 1270,3664 670,3664 670,4264 z " fill-rule="evenodd" fill="rgb(0,128,0)" stroke-width="5" stroke="rgb(0,0,0)" />
	<path d="M1882,4870 2482,4870 2482,4270 1882,4270 1882,4870 z " fill-rule="evenodd" fill="rgb(0,128,0)" stroke-width="5" stroke="rgb(0,0,0)" />
	<path d="M2488,2446 3088,2446 3088,1846 2488,1846 2488,2446 z " fill-rule="evenodd" fill="rgb(0,128,0)" stroke-width="5" stroke="rgb(0,0,0)" />
	<path d="M3700,4870 4300,4870 4300,4270 3700,4270 3700,4870 z " fill-rule="evenodd" fill="rgb(0,128,0)" stroke-width="5" stroke="rgb(0,0,0)" />
	<path d="M4306,4264 4906,4264 4906,3664 4306,3664 4306,4264 z " fill-rule="evenodd" fill="rgb(0,128,0)" stroke-width="5" stroke="rgb(0,0,0)" />
	<path d="M5518,3052 6118,3052 6118,2452 5518,2452 5518,3052 z " fill-rule="evenodd" fill="rgb(0,128,0)" stroke-width="5" stroke="rgb(0,0,0)" />
	<path d="M670,5476 1270,5476 1270,4876 670,4876 670,5476 z " fill-rule="evenodd" fill="rgb(0,128,0)" stroke-width="5" stroke="rgb(0,0,0)" />
	<path d="M1276,5476 1876,5476 1876,4876 1276,4876 1276,5476 z " fill-rule="evenodd" fill="rgb(0,128,0)" stroke-width="5" stroke="rgb(0,0,0)" />
	<path d="M1882,5476 2482,5476 2482,4876 1882,4876 1882,5476 z " fill-rule="evenodd" fill="rgb(0,128,0)" stroke-width="5" stroke="rgb(0,0,0)" />
	<path d="M1882,2446 2482,2446 2482,1846 1882,1846 1882,2446 z " fill-rule="evenodd" fill="rgb(0,128,0)" stroke-width="5" stroke="rgb(0,0,0)" />
	<path d="M4306,4870 4906,4870 4906,4270 4306,4270 4306,4870 z " fill-rule="evenodd" fill="rgb(0,128,0)" stroke-width="5" stroke="rgb(0,0,0)" />
	<path d="M5518,3658 6118,3658 6118,3058 5518,3058 5518,3658 z " fill-rule="evenodd" fill="rgb(0,128,0)" stroke-width="5" stroke="rgb(0,0,0)" />
	<path d="M6124,3052 6724,3052 6724,2452 6124,2452 6124,3052 z " fill-rule="evenodd" fill="rgb(0,128,0)" stroke-width="5" stroke="rgb(0,0,0)" />
	<path d="M670,6082 1270,6082 1270,5482 670,5482 670,6082 z " fill-rule="evenodd" fill="rgb(0,128,0)" stroke-width="5" stroke="rgb(0,0,0)" />
	<path d="M1276,6082 1876,6082 1876,5482 1276,5482 1276,6082 z " fill-rule="evenodd" fill="rgb(0,128,0)" stroke-width="5" stroke="rgb(0,0,0)" />
	<path d="M1276,2446 1876,2446 1876,1846 1276,1846 1276,2446 z " fill-rule="evenodd" fill="rgb(0,128,0)" stroke-width="5" stroke="rgb(0,0,0)" />
	<path d="M1882,6082 2482,6082 2482,5482 1882,5482 1882,6082 z " fill-rule="evenodd" fill="rgb(0,128,0)" stroke-width="5" stroke="rgb(0,0,0)" />
	<path d="M2488,1234 3088,1234 3088,634 2488,634 2488,1234 z " fill-rule="evenodd" fill="rgb(0,128,0)" stroke-width="5" stroke="rgb(0,0,0)" />
	<path d="M5518,4264 6118,4264 6118,3664 5518,3664 5518,4264 z " fill-rule="evenodd" fill="rgb(0,128,0)" stroke-width="5" stroke="rgb(0,0,0)" />
	<path d="M6124,3658 6724,3658 6724,3058 6124,3058 6124,3658 z " fill-rule="evenodd" fill="rgb(0,128,0)" stroke-width="5" stroke="rgb(0,0,0)" />
	<path d="M6730,3052 7330,3052 7330,2452 6730,2452 6730,3052 z " fill-rule="evenodd" fill="rgb(0,128,0)" stroke-width="5" stroke="rgb(0,0,0)" />
	<path d="M670,6688 1270,6688 1270,6088 670,6088 670,6688 z " fill-rule="evenodd" fill="rgb(0,128,0)" stroke-width="5" stroke="rgb(0,0,0)" />
	<path d="M1276,6688 1876,6688 1876,6088 1276,6088 1276,6688 z " fill-rule="evenodd" fill="rgb(0,128,0)" stroke-width="5" stroke="rgb(0,0,0)" />
	<path d="M670,2446 1270,2446 1270,1846 670,1846 670,2446 z " fill-rule="evenodd" fill="rgb(0,128,0)" stroke-width="5" stroke="rgb(0,0,0)" />
	<path d="M1882,6688 2482,6688 2482,6088 1882,6088 1882,6688 z " fill-rule="evenodd" fill="rgb(0,128,0)" stroke-width="5" stroke="rgb(0,0,0)" />
	<path d="M2488,6688 3088,6688 3088,6088 2488,6088 2488,6688 z " fill-rule="evenodd" fill="rgb(0,128,0)" stroke-width="5" stroke="rgb(0,0,0)" />
	<path d="M5518,4870 6118,4870 6118,4270 5518,4270 5518,4870 z " fill-rule="evenodd" fill="rgb(0,128,0)" stroke-width="5" stroke="rgb(0,0,0)" />
	<path d="M6124,4264 6724,4264 6724,3664 6124,3664 6124,4264 z " fill-rule="evenodd" fill="rgb(0,128,0)" stroke-width="5" stroke="rgb(0,0,0)" />
	<path d="M6730,3658 7330,3658 7330,3058 6730,3058 6730,3658 z " fill-rule="evenodd" fill="rgb(0,128,0)" stroke-width="5" stroke="rgb(0,0,0)" />
	<path d="M7336,3052 7936,3052 7936,2452 7336,2452 7336,3052 z " fill-rule="evenodd" fill="rgb(0,128,0)" stroke-width="5" stroke="rgb(0,0,0)" />
	<path d="M5518,5476 6118,5476 6118,4876 5518,4876 5518,5476 z " fill-rule="evenodd" fill="rgb(0,128,0)" stroke-width="5" stroke="rgb(0,0,0)" />
	<path d="M6124,4870 6724,4870 6724,4270 6124,4270 6124,4870 z " fill-rule="evenodd" fill="rgb(0,128,0)" stroke-width="5" stroke="rgb(0,0,0)" />
	<path d="M6730,4264 7330,4264 7330,3664 6730,3664 6730,4264 z " fill-rule="evenodd" fill="rgb(0,128,0)" stroke-width="5" stroke="rgb(0,0,0)" />
	<path d="M7336,3658 7936,3658 7936,3058 7336,3058 7336,3658 z " fill-rule="evenodd" fill="rgb(0,128,0)" stroke-width="5" stroke="rgb(0,0,0)" />
	<path d="M6124,5476 6724,5476 6724,4876 6124,4876 6124,5476 z " fill-rule="evenodd" fill="rgb(0,128,0)" stroke-width="5" stroke="rgb(0,0,0)" />
	<path d="M6730,4870 7330,4870 7330,4270 6730,4270 6730,4870 z " fill-rule="evenodd" fill="rgb(0,128,0)" stroke-width="5" stroke="rgb(0,0,0)" />
	<path d="M7336,4264 7936,4264 7936,3664 7336,3664 7336,4264 z " fill-rule="evenodd" fill="rgb(0,128,0)" stroke-width="5" stroke="rgb(0,0,0)" />
	<path d="M7942,3658 8542,3658 8542,3058 7942,3058 7942,3658 z " fill-rule="evenodd" fill="rgb(0,128,0)" stroke-width="5" stroke="rgb(0,0,0)" />
	<path d="M6730,5476 7330,5476 7330,4876 6730,4876 6730,5476 z " fill-rule="evenodd" fill="rgb(0,128,0)" stroke-width="5" stroke="rgb(0,0,0)" />
	<path d="M7336,4870 7936,4870 7936,4270 7336,4270 7336,4870 z " fill-rule="evenodd" fill="rgb(0,128,0)" stroke-width="5" stroke="rgb(0,0,0)" />
	<path d="M7942,4264 8542,4264 8542,3664 7942,3664 7942,4264 z " fill-rule="evenodd" fill="rgb(0,128,0)" stroke-width="5" stroke="rgb(0,0,0)" />
	<path d="M7336,5476 7936,5476 7936,4876 7336,4876 7336,5476 z " fill-rule="evenodd" fill="rgb(0,128,0)" stroke-width="5" stroke="rgb(0,0,0)" />
	<path d="M7942,4870 8542,4870 8542,4270 7942,4270 7942,4870 z " fill-rule="evenodd" fill="rgb(0,128,0)" stroke-width="5" stroke="rgb(0,0,0)" />
	<path d="M7942,5476 8542,5476 8542,4876 7942,4876 7942,5476 z " fill-rule="evenodd" fill="rgb(0,128,0)" stroke-width="5" stroke="rgb(0,0,0)" />
	<path d="M2488,3658 2488,3058 2850,3058 2850,3152 2900,3152 2900,3658 2488,3658 z " fill-rule="evenodd" fill="rgb(255,0,0)" stroke-width="5" stroke="rgb(0,0,0)" />
	<path d="M3094,2452 3694,2452 3694,2952 3094,2952 3094,2452 z " fill-rule="evenodd" fill="rgb(255,0,0)" stroke-width="5" stroke="rgb(0,0,0)" />
	<path d="M3700,2452 4300,2452 4300,3052 4200,3052 4200,2952 3700,2952 3700,2452 z " fill-rule="evenodd" fill="rgb(255,0,0)" stroke-width="5" stroke="rgb(0,0,0)" />
	<path d="M4306,3052 4306,2452 4906,2452 4906,2952 4900,2952 4900,3052 4306,3052 z " fill-rule="evenodd" fill="rgb(255,0,0)" stroke-width="5" stroke="rgb(0,0,0)" />
	<path d="M2488,4264 2488,3664 2900,3664 2900,4264 2488,4264 z " fill-rule="evenodd" fill="rgb(255,0,0)" stroke-width="5" stroke="rgb(0,0,0)" />
	<path d="M2482,3058 2482,3658 1882,3658 1882,3152 2050,3152 2050,3058 2482,3058 z " fill-rule="evenodd" fill="rgb(255,0,0)" stroke-width="5" stroke="rgb(0,0,0)" />
	<path d="M2488,3052 2488,2452 3088,2452 3088,2952 2850,2952 2850,3052 2488,3052 z " fill-rule="evenodd" fill="rgb(255,0,0)" stroke-width="5" stroke="rgb(0,0,0)" />
	<path d="M4912,2452 5512,2452 5512,3052 5050,3052 5050,2952 4912,2952 4912,2452 z " fill-rule="evenodd" fill="rgb(255,0,0)" stroke-width="5" stroke="rgb(0,0,0)" />
	<path d="M5512,1840 4912,1840 4912,1240 4957.45,1240 5512,1465.17 5512,1840 z " fill-rule="evenodd" fill="rgb(255,0,0)" stroke-width="5" stroke="rgb(0,0,0)" />
	<path d="M6118,1840 5518,1840 5518,1467.6 6118,1711.22 6118,1840 z " fill-rule="evenodd" fill="rgb(255,0,0)" stroke-width="5" stroke="rgb(0,0,0)" />
	<path d="M6124,1840 6124,1713.66 6435.16,1840 6124,1840 z " fill-rule="evenodd" fill="rgb(255,0,0)" stroke-width="5" stroke="rgb(0,0,0)" />
	<path d="M664,4270 664,4870 100,4870 100,4270 664,4270 z " fill-rule="evenodd" fill="rgb(255,0,0)" stroke-width="5" stroke="rgb(0,0,0)" />
	<path d="M1876,3658 1276,3658 1276,3152 1876,3152 1876,3658 z " fill-rule="evenodd" fill="rgb(255,0,0)" stroke-width="5" stroke="rgb(0,0,0)" />
	<path d="M2488,4870 2488,4270 2900,4270 2900,4870 2488,4870 z " fill-rule="evenodd" fill="rgb(255,0,0)" stroke-width="5" stroke="rgb(0,0,0)" />
	<path d="M1882,2452 2482,2452 2482,3052 2050,3052 2050,2952 1882,2952 1882,2452 z " fill-rule="evenodd" fill="rgb(255,0,0)" stroke-width="5" stroke="rgb(0,0,0)" />
	<path d="M4912,3658 4912,3058 4950,3058 4950,3658 4912,3658 z " fill-rule="evenodd" fill="rgb(255,0,0)" stroke-width="5" stroke="rgb(0,0,0)" />
	<path d="M5512,3058 5512,3658 5050,3658 5050,3058 5512,3058 z " fill-rule="evenodd" fill="rgb(255,0,0)" stroke-width="5" stroke="rgb(0,0,0)" />
	<path d="M6724,2446 6124,2446 6124,1846 6449.94,1846 6724,1957.28 6724,2446 z " fill-rule="evenodd" fill="rgb(255,0,0)" stroke-width="5" stroke="rgb(0,0,0)" />
	<path d="M3694,1240 3694,1840 3094,1840 3094,1602 3147,1602 3293.8,1240 3694,1240 z " fill-rule="evenodd" fill="rgb(255,0,0)" stroke-width="5" stroke="rgb(0,0,0)" />
	<path d="M3094,1240 3186.29,1240 3094,1467.49 3094,1240 z " fill-rule="evenodd" fill="rgb(255,0,0)" stroke-width="5" stroke="rgb(0,0,0)" />
	<path d="M4300,1234 3700,1234 3700,729.432 4300,973.052 4300,1234 z " fill-rule="evenodd" fill="rgb(255,0,0)" stroke-width="5" stroke="rgb(0,0,0)" />
	<path d="M4906,1234 4306,1234 4306,975.489 4906,1219.11 4906,1234 z " fill-rule="evenodd" fill="rgb(255,0,0)" stroke-width="5" stroke="rgb(0,0,0)" />
	<path d="M4912,1234 4912,1221.55 4942.67,1234 4912,1234 z " fill-rule="evenodd" fill="rgb(255,0,0)" stroke-width="5" stroke="rgb(0,0,0)" />
	<path d="M664,4876 664,5476 100,5476 100,4876 664,4876 z " fill-rule="evenodd" fill="rgb(255,0,0)" stroke-width="5" stroke="rgb(0,0,0)" />
	<path d="M664,3664 664,4264 100,4264 100,3664 664,3664 z " fill-rule="evenodd" fill="rgb(255,0,0)" stroke-width="5" stroke="rgb(0,0,0)" />
	<path d="M1270,3658 670,3658 670,3152 1270,3152 1270,3658 z " fill-rule="evenodd" fill="rgb(255,0,0)" stroke-width="5" stroke="rgb(0,0,0)" />
	<path d="M1276,2452 1876,2452 1876,2952 1276,2952 1276,2452 z " fill-rule="evenodd" fill="rgb(255,0,0)" stroke-width="5" stroke="rgb(0,0,0)" />
	<path d="M2488,5476 2488,4876 2900,4876 2900,5476 2488,5476 z " fill-rule="evenodd" fill="rgb(255,0,0)" stroke-width="5" stroke="rgb(0,0,0)" />
	<path d="M3088,1840 2488,1840 2488,1240 3088,1240 3088,1482.28 3080,1502 2950,1502 2950,1602 3088,1602 3088,1840 z " fill-rule="evenodd" fill="rgb(255,0,0)" stroke-width="5" stroke="rgb(0,0,0)" />
	<path d="M4300,4876 4300,4952 3700,4952 3700,4876 4300,4876 z " fill-rule="evenodd" fill="rgb(255,0,0)" stroke-width="5" stroke="rgb(0,0,0)" />
	<path d="M4912,4264 4912,3664 4950,3664 4950,4264 4912,4264 z " fill-rule="evenodd" fill="rgb(255,0,0)" stroke-width="5" stroke="rgb(0,0,0)" />
	<path d="M5512,3664 5512,4264 5050,4264 5050,3664 5512,3664 z " fill-rule="evenodd" fill="rgb(255,0,0)" stroke-width="5" stroke="rgb(0,0,0)" />
	<path d="M7330,2446 6730,2446 6730,1959.72 7330,2203.34 7330,2446 z " fill-rule="evenodd" fill="rgb(255,0,0)" stroke-width="5" stroke="rgb(0,0,0)" />
	<path d="M3094,1234 3094,634 3432.13,634 3188.72,1234 3094,1234 z " fill-rule="evenodd" fill="rgb(255,0,0)" stroke-width="5" stroke="rgb(0,0,0)" />
	<path d="M3694,1234 3296.23,1234 3529,660 3694,726.996 3694,1234 z " fill-rule="evenodd" fill="rgb(255,0,0)" stroke-width="5" stroke="rgb(0,0,0)" />
	<path d="M664,5482 664,6082 100,6082 100,5482 664,5482 z " fill-rule="evenodd" fill="rgb(255,0,0)" stroke-width="5" stroke="rgb(0,0,0)" />
	<path d="M664,3658 100,3658 100,3152 664,3152 664,3658 z " fill-rule="evenodd" fill="rgb(255,0,0)" stroke-width="5" stroke="rgb(0,0,0)" />
	<path d="M670,2452 1270,2452 1270,2952 670,2952 670,2452 z " fill-rule="evenodd" fill="rgb(255,0,0)" stroke-width="5" stroke="rgb(0,0,0)" />
	<path d="M3088,6082 2488,6082 2488,5482 2900,5482 2900,6052 3088,6052 3088,6082 z " fill-rule="evenodd" fill="rgb(255,0,0)" stroke-width="5" stroke="rgb(0,0,0)" />
	<path d="M2482,1240 2482,1840 1882,1840 1882,1602 2150,1602 2150,1240 2482,1240 z " fill-rule="evenodd" fill="rgb(255,0,0)" stroke-width="5" stroke="rgb(0,0,0)" />
	<path d="M3094,6082 3094,6052 3100,6052 3100,6082 3094,6082 z " fill-rule="evenodd" fill="rgb(255,0,0)" stroke-width="5" stroke="rgb(0,0,0)" />
	<path d="M4306,4876 4906,4876 4906,4952 4306,4952 4306,4876 z " fill-rule="evenodd" fill="rgb(255,0,0)" stroke-width="5" stroke="rgb(0,0,0)" />
	<path d="M4912,4870 4912,4270 4950,4270 4950,4870 4912,4870 z " fill-rule="evenodd" fill="rgb(255,0,0)" stroke-width="5" stroke="rgb(0,0,0)" />
	<path d="M5512,4270 5512,4870 5050,4870 5050,4270 5512,4270 z " fill-rule="evenodd" fill="rgb(255,0,0)" stroke-width="5" stroke="rgb(0,0,0)" />
	<path d="M7336,2446 7336,2205.77 7927.64,2446 7336,2446 z " fill-rule="evenodd" fill="rgb(255,0,0)" stroke-width="5" stroke="rgb(0,0,0)" />
	<path d="M3094,628 3094,482.881 3437,622 3434.57,628 3094,628 z " fill-rule="evenodd" fill="rgb(255,0,0)" stroke-width="5" stroke="rgb(0,0,0)" />
	<path d="M664,6088 664,6688 100,6688 100,6088 664,6088 z " fill-rule="evenodd" fill="rgb(255,0,0)" stroke-width="5" stroke="rgb(0,0,0)" />
	<path d="M664,2452 664,2952 100,2952 100,2452 664,2452 z " fill-rule="evenodd" fill="rgb(255,0,0)" stroke-width="5" stroke="rgb(0,0,0)" />
	<path d="M1876,1840 1276,1840 1276,1502 1400,1502 1400,1602 1876,1602 1876,1840 z " fill-rule="evenodd" fill="rgb(255,0,0)" stroke-width="5" stroke="rgb(0,0,0)" />
	<path d="M2482,634 2482,1234 2150,1234 2150,634 2482,634 z " fill-rule="evenodd" fill="rgb(255,0,0)" stroke-width="5" stroke="rgb(0,0,0)" />
	<path d="M3088,628 2488,628 2488,237.091 3088,480.448 3088,628 z " fill-rule="evenodd" fill="rgb(255,0,0)" stroke-width="5" stroke="rgb(0,0,0)" />
	<path d="M3094,6688 3094,6088 3100,6088 3100,6688 3094,6688 z " fill-rule="evenodd" fill="rgb(255,0,0)" stroke-width="5" stroke="rgb(0,0,0)" />
	<path d="M5512,4876 5512,5476 5050,5476 5050,4876 5512,4876 z " fill-rule="evenodd" fill="rgb(255,0,0)" stroke-width="5" stroke="rgb(0,0,0)" />
	<path d="M4912,4876 4950,4876 4950,4952 4912,4952 4912,4876 z " fill-rule="evenodd" fill="rgb(255,0,0)" stroke-width="5" stroke="rgb(0,0,0)" />
	<path d="M664,6694 664,6952 100,6952 100,6694 664,6694 z " fill-rule="evenodd" fill="rgb(255,0,0)" stroke-width="5" stroke="rgb(0,0,0)" />
	<path d="M664,1846 664,2446 100,2446 100,1846 664,1846 z " fill-rule="evenodd" fill="rgb(255,0,0)" stroke-width="5" stroke="rgb(0,0,0)" />
	<path d="M670,6694 1270,6694 1270,6952 670,6952 670,6694 z " fill-rule="evenodd" fill="rgb(255,0,0)" stroke-width="5" stroke="rgb(0,0,0)" />
	<path d="M1276,6694 1876,6694 1876,6952 1276,6952 1276,6694 z " fill-rule="evenodd" fill="rgb(255,0,0)" stroke-width="5" stroke="rgb(0,0,0)" />
	<path d="M1270,1840 670,1840 670,1602 700,1602 700,1502 1270,1502 1270,1840 z " fill-rule="evenodd" fill="rgb(255,0,0)" stroke-width="5" stroke="rgb(0,0,0)" />
	<path d="M1882,6694 2482,6694 2482,6952 1882,6952 1882,6694 z " fill-rule="evenodd" fill="rgb(255,0,0)" stroke-width="5" stroke="rgb(0,0,0)" />
	<path d="M2488,6694 3088,6694 3088,6852 2900,6852 2900,6952 2488,6952 2488,6694 z " fill-rule="evenodd" fill="rgb(255,0,0)" stroke-width="5" stroke="rgb(0,0,0)" />
	<path d="M2482,628 2150,628 2150,100 2482,234.657 2482,628 z " fill-rule="evenodd" fill="rgb(255,0,0)" stroke-width="5" stroke="rgb(0,0,0)" />
	<path d="M3094,6694 3100,6694 3100,6852 3094,6852 3094,6694 z " fill-rule="evenodd" fill="rgb(255,0,0)" stroke-width="5" stroke="rgb(0,0,0)" />
	<path d="M5512,5482 5512,5552 5050,5552 5050,5482 5512,5482 z " fill-rule="evenodd" fill="rgb(255,0,0)" stroke-width="5" stroke="rgb(0,0,0)" />
	<path d="M8542,3052 7942,3052 7942,2452 7942.42,2452 8542,2695.45 8542,3052 z " fill-rule="evenodd" fill="rgb(255,0,0)" stroke-width="5" stroke="rgb(0,0,0)" />
	<path d="M664,1840 100,1840 100,1602 664,1602 664,1840 z " fill-rule="evenodd" fill="rgb(255,0,0)" stroke-width="5" stroke="rgb(0,0,0)" />
	<path d="M5518,5482 6118,5482 6118,5552 5518,5552 5518,5482 z " fill-rule="evenodd" fill="rgb(255,0,0)" stroke-width="5" stroke="rgb(0,0,0)" />
	<path d="M8548,3052 8548,2697.89 8600,2719 8600,3052 8548,3052 z " fill-rule="evenodd" fill="rgb(255,0,0)" stroke-width="5" stroke="rgb(0,0,0)" />
	<path d="M6124,5482 6724,5482 6724,5552 6124,5552 6124,5482 z " fill-rule="evenodd" fill="rgb(255,0,0)" stroke-width="5" stroke="rgb(0,0,0)" />
	<path d="M8548,3658 8548,3058 8600,3058 8600,3658 8548,3658 z " fill-rule="evenodd" fill="rgb(255,0,0)" stroke-width="5" stroke="rgb(0,0,0)" />
	<path d="M6730,5482 7330,5482 7330,5552 6730,5552 6730,5482 z " fill-rule="evenodd" fill="rgb(255,0,0)" stroke-width="5" stroke="rgb(0,0,0)" />
	<path d="M8548,4264 8548,3664 8600,3664 8600,4264 8548,4264 z " fill-rule="evenodd" fill="rgb(255,0,0)" stroke-width="5" stroke="rgb(0,0,0)" />
	<path d="M7336,5482 7936,5482 7936,5552 7336,5552 7336,5482 z " fill-rule="evenodd" fill="rgb(255,0,0)" stroke-width="5" stroke="rgb(0,0,0)" />
	<path d="M8548,4870 8548,4270 8600,4270 8600,4870 8548,4870 z " fill-rule="evenodd" fill="rgb(255,0,0)" stroke-width="5" stroke="rgb(0,0,0)" />
	<path d="M7942,5482 8542,5482 8542,5552 7942,5552 7942,5482 z " fill-rule="evenodd" fill="rgb(255,0,0)" stroke-width="5" stroke="rgb(0,0,0)" />
	<path d="M8548,5476 8548,4876 8600,4876 8600,5476 8548,5476 z " fill-rule="evenodd" fill="rgb(255,0,0)" stroke-width="5" stroke="rgb(0,0,0)" />
	<path d="M8548,5482 8600,5482 8600,5552 8548,5552 8548,5482 z " fill-rule="evenodd" fill="rgb(255,0,0)" stroke-width="5" stroke="rgb(0,0,0)" />
	<polyline points="3695,3057 4295,3057 3695,3057 3695,2457 3695,3057 " fill="none" stroke-width="100" stroke="rgb(0,0,0)" />
	<circle cx="3695" cy="3057" r="-10" fill="rgb(0,0,0)" />
	<circle cx="4295" cy="3057" r="-10" fill="rgb(0,0,0)" />
	<circle cx="3695" cy="3057" r="-10" fill="rgb(0,0,0)" />
	<circle cx="3695" cy="2457" r="-10" fill="rgb(0,0,0)" />
	<circle cx="3695" cy="3057" r="-10" fill="rgb(0,0,0)" />
	<polyline points="3695,3717 3695,3057 3035,3057 " fill="none" stroke-width="0.5" stroke="rgb(128,0,128)" />
</svg>
