<?xml version="1.0" standalone="no" ?>
<!DOCTYPE svg PUBLIC "-//W3C//DTD SVG 1.1//EN" "http://www.w3.org/Graphics/SVG/1.1/DTD/svg11.dtd">
<svg width="8700px" height="7052px" xmlns="http://www.w3.org/2000/svg" version="1.1" >
	<path d="M4950,3658 4950,3058 4350,3058 4350,3658 4950,3658 z " fill-rule="evenodd" fill="rgb(0,128,0)" stroke-width="5" stroke="rgb(0,0,0)" />
	<path d="M4950,2446 4950,1846 4350,1846 4350,2446 4950,2446 z " fill-rule="evenodd" fill="rgb(0,128,0)" stroke-width="5" stroke="rgb(0,0,0)" />
	<path d="M4344,2446 4344,1846 3744,1846 3744,2446 4344,2446 z " fill-rule="evenodd" fill="rgb(0,128,0)" stroke-width="5" stroke="rgb(0,0,0)" />
	<path d="M4344,1840 4344,1240 3744,1240 3744,1840 4344,1840 z " fill-rule="evenodd" fill="rgb(0,128,0)" stroke-width="5" stroke="rgb(0,0,0)" />
	<path d="M6162,5476 6162,4876 5562,4876 5562,5476 6162,5476 z " fill-rule="evenodd" fill="rgb(0,128,0)" stroke-width="5" stroke="rgb(0,0,0)" />
	<path d="M6162,4870 6162,4270 5562,4270 5562,4870 6162,4870 z " fill-rule="evenodd" fill="rgb(0,128,0)" stroke-width="5" stroke="rgb(0,0,0)" />
	<path d="M6162,4264 6162,3664 5562,3664 5562,4264 6162,4264 z " fill-rule="evenodd" fill="rgb(0,128,0)" stroke-width="5" stroke="rgb(0,0,0)" />
	<path d="M4950,4264 4950,3664 4350,3664 4350,4264 4950,4264 z " fill-rule="evenodd" fill="rgb(0,128,0)" stroke-width="5" stroke="rgb(0,0,0)" />
	<path d="M6162,3658 6162,3058 5562,3058 5562,3658 6162,3658 z " fill-rule="evenodd" fill="rgb(0,128,0)" stroke-width="5" stroke="rgb(0,0,0)" />
	<path d="M6162,3052 6162,2452 5562,2452 5562,3052 6162,3052 z " fill-rule="evenodd" fill="rgb(0,128,0)" stroke-width="5" stroke="rgb(0,0,0)" />
	<path d="M5556,2446 5556,1846 4956,1846 4956,2446 5556,2446 z " fill-rule="evenodd" fill="rgb(0,128,0)" stroke-width="5" stroke="rgb(0,0,0)" />
	<path d="M4950,1840 4950,1240 4350,1240 4350,1840 4950,1840 z " fill-rule="evenodd" fill="rgb(0,128,0)" stroke-width="5" stroke="rgb(0,0,0)" />
	<path d="M4344,3658 4344,3058 3744,3058 3744,3658 4344,3658 z " fill-rule="evenodd" fill="rgb(0,128,0)" stroke-width="5" stroke="rgb(0,0,0)" />
	<path d="M3738,2446 3738,1846 3138,1846 3138,2446 3738,2446 z " fill-rule="evenodd" fill="rgb(0,128,0)" stroke-width="5" stroke="rgb(0,0,0)" />
	<path d="M6768,5476 6768,4876 6168,4876 6168,5476 6768,5476 z " fill-rule="evenodd" fill="rgb(0,128,0)" stroke-width="5" stroke="rgb(0,0,0)" />
	<path d="M6768,4870 6768,4270 6168,4270 6168,4870 6768,4870 z " fill-rule="evenodd" fill="rgb(0,128,0)" stroke-width="5" stroke="rgb(0,0,0)" />
	<path d="M6768,4264 6768,3664 6168,3664 6168,4264 6768,4264 z " fill-rule="evenodd" fill="rgb(0,128,0)" stroke-width="5" stroke="rgb(0,0,0)" />
	<path d="M4950,4870 4950,4270 4350,4270 4350,4870 4950,4870 z " fill-rule="evenodd" fill="rgb(0,128,0)" stroke-width="5" stroke="rgb(0,0,0)" />
	<path d="M4344,4264 4344,3664 3744,3664 3744,4264 4344,4264 z " fill-rule="evenodd" fill="rgb(0,128,0)" stroke-width="5" stroke="rgb(0,0,0)" />
	<path d="M6768,3658 6768,3058 6168,3058 6168,3658 6768,3658 z " fill-rule="evenodd" fill="rgb(0,128,0)" stroke-width="5" stroke="rgb(0,0,0)" />
	<path d="M6768,3052 6768,2452 6168,2452 6168,3052 6768,3052 z " fill-rule="evenodd" fill="rgb(0,128,0)" stroke-width="5" stroke="rgb(0,0,0)" />
	<path d="M6162,2446 6162,1846 5562,1846 5562,2446 6162,2446 z " fill-rule="evenodd" fill="rgb(0,128,0)" stroke-width="5" stroke="rgb(0,0,0)" />
	<path d="M3132,2446 3132,1846 2532,1846 2532,2446 3132,2446 z " fill-rule="evenodd" fill="rgb(0,128,0)" stroke-width="5" stroke="rgb(0,0,0)" />
	<path d="M3132,1234 3132,634 2532,634 2532,1234 3132,1234 z " fill-rule="evenodd" fill="rgb(0,128,0)" stroke-width="5" stroke="rgb(0,0,0)" />
	<path d="M7374,5476 7374,4876 6774,4876 6774,5476 7374,5476 z " fill-rule="evenodd" fill="rgb(0,128,0)" stroke-width="5" stroke="rgb(0,0,0)" />
	<path d="M7374,4870 7374,4270 6774,4270 6774,4870 7374,4870 z " fill-rule="evenodd" fill="rgb(0,128,0)" stroke-width="5" stroke="rgb(0,0,0)" />
	<path d="M7374,4264 7374,3664 6774,3664 6774,4264 7374,4264 z " fill-rule="evenodd" fill="rgb(0,128,0)" stroke-width="5" stroke="rgb(0,0,0)" />
	<path d="M4344,4870 4344,4270 3744,4270 3744,4870 4344,4870 z " fill-rule="evenodd" fill="rgb(0,128,0)" stroke-width="5" stroke="rgb(0,0,0)" />
	<path d="M7374,3658 7374,3058 6774,3058 6774,3658 7374,3658 z " fill-rule="evenodd" fill="rgb(0,128,0)" stroke-width="5" stroke="rgb(0,0,0)" />
	<path d="M7374,3052 7374,2452 6774,2452 6774,3052 7374,3052 z " fill-rule="evenodd" fill="rgb(0,128,0)" stroke-width="5" stroke="rgb(0,0,0)" />
	<path d="M2526,2446 2526,1846 1926,1846 1926,2446 2526,2446 z " fill-rule="evenodd" fill="rgb(0,128,0)" stroke-width="5" stroke="rgb(0,0,0)" />
	<path d="M7980,5476 7980,4876 7380,4876 7380,5476 7980,5476 z " fill-rule="evenodd" fill="rgb(0,128,0)" stroke-width="5" stroke="rgb(0,0,0)" />
	<path d="M7980,4870 7980,4270 7380,4270 7380,4870 7980,4870 z " fill-rule="evenodd" fill="rgb(0,128,0)" stroke-width="5" stroke="rgb(0,0,0)" />
	<path d="M7980,4264 7980,3664 7380,3664 7380,4264 7980,4264 z " fill-rule="evenodd" fill="rgb(0,128,0)" stroke-width="5" stroke="rgb(0,0,0)" />
	<path d="M7980,3658 7980,3058 7380,3058 7380,3658 7980,3658 z " fill-rule="evenodd" fill="rgb(0,128,0)" stroke-width="5" stroke="rgb(0,0,0)" />
	<path d="M1920,2446 1920,1846 1320,1846 1320,2446 1920,2446 z " fill-rule="evenodd" fill="rgb(0,128,0)" stroke-width="5" stroke="rgb(0,0,0)" />
	<path d="M8586,5476 8586,4876 7986,4876 7986,5476 8586,5476 z " fill-rule="evenodd" fill="rgb(0,128,0)" stroke-width="5" stroke="rgb(0,0,0)" />
	<path d="M8586,4870 8586,4270 7986,4270 7986,4870 8586,4870 z " fill-rule="evenodd" fill="rgb(0,128,0)" stroke-width="5" stroke="rgb(0,0,0)" />
	<path d="M8586,4264 8586,3664 7986,3664 7986,4264 8586,4264 z " fill-rule="evenodd" fill="rgb(0,128,0)" stroke-width="5" stroke="rgb(0,0,0)" />
	<path d="M2526,4264 2526,3664 1926,3664 1926,4264 2526,4264 z " fill-rule="evenodd" fill="rgb(0,128,0)" stroke-width="5" stroke="rgb(0,0,0)" />
	<path d="M8586,3658 8586,3058 7986,3058 7986,3658 8586,3658 z " fill-rule="evenodd" fill="rgb(0,128,0)" stroke-width="5" stroke="rgb(0,0,0)" />
	<path d="M1314,2446 1314,1846 714,1846 714,2446 1314,2446 z " fill-rule="evenodd" fill="rgb(0,128,0)" stroke-width="5" stroke="rgb(0,0,0)" />
	<path d="M2526,4870 2526,4270 1926,4270 1926,4870 2526,4870 z " fill-rule="evenodd" fill="rgb(0,128,0)" stroke-width="5" stroke="rgb(0,0,0)" />
	<path d="M1920,4264 1920,3664 1320,3664 1320,4264 1920,4264 z " fill-rule="evenodd" fill="rgb(0,128,0)" stroke-width="5" stroke="rgb(0,0,0)" />
	<path d="M708,2446 708,1846 108,1846 108,2446 708,2446 z " fill-rule="evenodd" fill="rgb(0,128,0)" stroke-width="5" stroke="rgb(0,0,0)" />
	<path d="M2526,5476 2526,4876 1926,4876 1926,5476 2526,5476 z " fill-rule="evenodd" fill="rgb(0,128,0)" stroke-width="5" stroke="rgb(0,0,0)" />
	<path d="M1920,4870 1920,4270 1320,4270 1320,4870 1920,4870 z " fill-rule="evenodd" fill="rgb(0,128,0)" stroke-width="5" stroke="rgb(0,0,0)" />
	<path d="M1314,4264 1314,3664 714,3664 714,4264 1314,4264 z " fill-rule="evenodd" fill="rgb(0,128,0)" stroke-width="5" stroke="rgb(0,0,0)" />
	<path d="M2526,6082 2526,5482 1926,5482 1926,6082 2526,6082 z " fill-rule="evenodd" fill="rgb(0,128,0)" stroke-width="5" stroke="rgb(0,0,0)" />
	<path d="M1920,5476 1920,4876 1320,4876 1320,5476 1920,5476 z " fill-rule="evenodd" fill="rgb(0,128,0)" stroke-width="5" stroke="rgb(0,0,0)" />
	<path d="M1314,4870 1314,4270 714,4270 714,4870 1314,4870 z " fill-rule="evenodd" fill="rgb(0,128,0)" stroke-width="5" stroke="rgb(0,0,0)" />
	<path d="M708,4264 708,3664 108,3664 108,4264 708,4264 z " fill-rule="evenodd" fill="rgb(0,128,0)" stroke-width="5" stroke="rgb(0,0,0)" />
	<path d="M2526,6688 2526,6088 1926,6088 1926,6688 2526,6688 z " fill-rule="evenodd" fill="rgb(0,128,0)" stroke-width="5" stroke="rgb(0,0,0)" />
	<path d="M1920,6082 1920,5482 1320,5482 1320,6082 1920,6082 z " fill-rule="evenodd" fill="rgb(0,128,0)" stroke-width="5" stroke="rgb(0,0,0)" />
	<path d="M1314,5476 1314,4876 714,4876 714,5476 1314,5476 z " fill-rule="evenodd" fill="rgb(0,128,0)" stroke-width="5" stroke="rgb(0,0,0)" />
	<path d="M708,4870 708,4270 108,4270 108,4870 708,4870 z " fill-rule="evenodd" fill="rgb(0,128,0)" stroke-width="5" stroke="rgb(0,0,0)" />
	<path d="M1920,6688 1920,6088 1320,6088 1320,6688 1920,6688 z " fill-rule="evenodd" fill="rgb(0,128,0)" stroke-width="5" stroke="rgb(0,0,0)" />
	<path d="M1314,6082 1314,5482 714,5482 714,6082 1314,6082 z " fill-rule="evenodd" fill="rgb(0,128,0)" stroke-width="5" stroke="rgb(0,0,0)" />
	<path d="M708,5476 708,4876 108,4876 108,5476 708,5476 z " fill-rule="evenodd" fill="rgb(0,128,0)" stroke-width="5" stroke="rgb(0,0,0)" />
	<path d="M1314,6688 1314,6088 714,6088 714,6688 1314,6688 z " fill-rule="evenodd" fill="rgb(0,128,0)" stroke-width="5" stroke="rgb(0,0,0)" />
	<path d="M708,6082 708,5482 108,5482 108,6082 708,6082 z " fill-rule="evenodd" fill="rgb(0,128,0)" stroke-width="5" stroke="rgb(0,0,0)" />
	<path d="M708,6688 708,6088 108,6088 108,6688 708,6688 z " fill-rule="evenodd" fill="rgb(0,128,0)" stroke-width="5" stroke="rgb(0,0,0)" />
	<path d="M5556,3664 5556,4264 5050,4264 5050,3664 5556,3664 z " fill-rule="evenodd" fill="rgb(255,0,0)" stroke-width="5" stroke="rgb(0,0,0)" />
	<path d="M5556,3058 5556,3658 5050,3658 5050,3058 5556,3058 z " fill-rule="evenodd" fill="rgb(255,0,0)" stroke-width="5" stroke="rgb(0,0,0)" />
	<path d="M4956,2452 5556,2452 5556,3052 5050,3052 5050,2952 4956,2952 4956,2452 z " fill-rule="evenodd" fill="rgb(255,0,0)" stroke-width="5" stroke="rgb(0,0,0)" />
	<path d="M4350,3052 4350,2452 4950,2452 4950,2952 4900,2952 4900,3052 4950,3052 4350,3052 z " fill-rule="evenodd" fill="rgb(255,0,0)" stroke-width="5" stroke="rgb(0,0,0)" />
	<path d="M3744,2452 4344,2452 4344,3052 3744,3052 3744,3052 4200,3052 4200,2952 3744,2952 3744,2452 z " fill-rule="evenodd" fill="rgb(255,0,0)" stroke-width="5" stroke="rgb(0,0,0)" />
	<path d="M5556,4270 5556,4870 5050,4870 5050,4270 5556,4270 z " fill-rule="evenodd" fill="rgb(255,0,0)" stroke-width="5" stroke="rgb(0,0,0)" />
	<path d="M4344,1234 3744,1234 3744,747.297 4344,990.918 4344,1234 z " fill-rule="evenodd" fill="rgb(255,0,0)" stroke-width="5" stroke="rgb(0,0,0)" />
	<path d="M3138,2452 3738,2452 3738,2952 3138,2952 3138,2452 z " fill-rule="evenodd" fill="rgb(255,0,0)" stroke-width="5" stroke="rgb(0,0,0)" />
	<path d="M3738,1240 3738,1840 3138,1840 3138,1602 3147,1602 3293.8,1240 3738,1240 z " fill-rule="evenodd" fill="rgb(255,0,0)" stroke-width="5" stroke="rgb(0,0,0)" />
	<path d="M3138,1240 3186.29,1240 3138,1359.03 3138,1240 z " fill-rule="evenodd" fill="rgb(255,0,0)" stroke-width="5" stroke="rgb(0,0,0)" />
	<path d="M3738,1234 3296.23,1234 3529,660 3738,744.861 3738,1234 z " fill-rule="evenodd" fill="rgb(255,0,0)" stroke-width="5" stroke="rgb(0,0,0)" />
	<path d="M3138,1234 3138,634 3432.13,634 3188.72,1234 3138,1234 z " fill-rule="evenodd" fill="rgb(255,0,0)" stroke-width="5" stroke="rgb(0,0,0)" />
	<path d="M3138,628 3138,500.727 3437,622 3434.57,628 3138,628 z " fill-rule="evenodd" fill="rgb(255,0,0)" stroke-width="5" stroke="rgb(0,0,0)" />
	<path d="M6168,5482 6768,5482 6768,5552 6168,5552 6168,5482 z " fill-rule="evenodd" fill="rgb(255,0,0)" stroke-width="5" stroke="rgb(0,0,0)" />
	<path d="M5562,5482 6162,5482 6162,5552 5562,5552 5562,5482 z " fill-rule="evenodd" fill="rgb(255,0,0)" stroke-width="5" stroke="rgb(0,0,0)" />
	<path d="M5556,4876 5556,5476 5050,5476 5050,4876 5556,4876 z " fill-rule="evenodd" fill="rgb(255,0,0)" stroke-width="5" stroke="rgb(0,0,0)" />
	<path d="M5556,1840 4956,1840 4956,1240 4957.45,1240 5556,1483.03 5556,1840 z " fill-rule="evenodd" fill="rgb(255,0,0)" stroke-width="5" stroke="rgb(0,0,0)" />
	<path d="M4350,1234 4350,993.354 4942.67,1234 4350,1234 z " fill-rule="evenodd" fill="rgb(255,0,0)" stroke-width="5" stroke="rgb(0,0,0)" />
	<path d="M3738,3058 3738,3658 3700,3658 3700,3058 3738,3058 z " fill-rule="evenodd" fill="rgb(255,0,0)" stroke-width="5" stroke="rgb(0,0,0)" />
	<path d="M2532,3052 2532,2452 3132,2452 3132,2952 2850,2952 2850,3052 2532,3052 z " fill-rule="evenodd" fill="rgb(255,0,0)" stroke-width="5" stroke="rgb(0,0,0)" />
	<path d="M3132,1840 2532,1840 2532,1240 3132,1240 3132,1373.82 3080,1502 2950,1502 2950,1602 3132,1602 3132,1840 z " fill-rule="evenodd" fill="rgb(255,0,0)" stroke-width="5" stroke="rgb(0,0,0)" />
	<path d="M3132,628 2532,628 2532,254.937 3132,498.294 3132,628 z " fill-rule="evenodd" fill="rgb(255,0,0)" stroke-width="5" stroke="rgb(0,0,0)" />
	<path d="M6774,5482 7374,5482 7374,5552 6774,5552 6774,5482 z " fill-rule="evenodd" fill="rgb(255,0,0)" stroke-width="5" stroke="rgb(0,0,0)" />
	<path d="M5556,5482 5556,5552 5050,5552 5050,5482 5556,5482 z " fill-rule="evenodd" fill="rgb(255,0,0)" stroke-width="5" stroke="rgb(0,0,0)" />
	<path d="M4350,4876 4950,4876 4950,4952 4350,4952 4350,4876 z " fill-rule="evenodd" fill="rgb(255,0,0)" stroke-width="5" stroke="rgb(0,0,0)" />
	<path d="M3738,3664 3738,4264 3700,4264 3700,3664 3738,3664 z " fill-rule="evenodd" fill="rgb(255,0,0)" stroke-width="5" stroke="rgb(0,0,0)" />
	<path d="M6768,2446 6168,2446 6168,1846 6449.94,1846 6768,1975.15 6768,2446 z " fill-rule="evenodd" fill="rgb(255,0,0)" stroke-width="5" stroke="rgb(0,0,0)" />
	<path d="M6162,1840 5562,1840 5562,1485.47 6162,1729.09 6162,1840 z " fill-rule="evenodd" fill="rgb(255,0,0)" stroke-width="5" stroke="rgb(0,0,0)" />
	<path d="M2532,3658 2532,3058 2850,3058 2850,3152 2900,3152 2900,3658 2532,3658 z " fill-rule="evenodd" fill="rgb(255,0,0)" stroke-width="5" stroke="rgb(0,0,0)" />
	<path d="M1926,2452 2526,2452 2526,3052 2050,3052 2050,2952 1926,2952 1926,2452 z " fill-rule="evenodd" fill="rgb(255,0,0)" stroke-width="5" stroke="rgb(0,0,0)" />
	<path d="M2526,1240 2526,1840 1926,1840 1926,1602 2150,1602 2150,1240 2526,1240 z " fill-rule="evenodd" fill="rgb(255,0,0)" stroke-width="5" stroke="rgb(0,0,0)" />
	<path d="M2526,634 2526,1234 2150,1234 2150,634 2526,634 z " fill-rule="evenodd" fill="rgb(255,0,0)" stroke-width="5" stroke="rgb(0,0,0)" />
	<path d="M2526,628 2150,628 2150,100 2526,252.503 2526,628 z " fill-rule="evenodd" fill="rgb(255,0,0)" stroke-width="5" stroke="rgb(0,0,0)" />
	<path d="M7380,5482 7980,5482 7980,5552 7380,5552 7380,5482 z " fill-rule="evenodd" fill="rgb(255,0,0)" stroke-width="5" stroke="rgb(0,0,0)" />
	<path d="M3744,4876 4344,4876 4344,4952 3744,4952 3744,4876 z " fill-rule="evenodd" fill="rgb(255,0,0)" stroke-width="5" stroke="rgb(0,0,0)" />
	<path d="M3738,4270 3738,4870 3700,4870 3700,4270 3738,4270 z " fill-rule="evenodd" fill="rgb(255,0,0)" stroke-width="5" stroke="rgb(0,0,0)" />
	<path d="M2532,4264 2532,3664 2900,3664 2900,4264 2532,4264 z " fill-rule="evenodd" fill="rgb(255,0,0)" stroke-width="5" stroke="rgb(0,0,0)" />
	<path d="M7980,3052 7380,3052 7380,2452 7942.42,2452 7980,2467.26 7980,3052 z " fill-rule="evenodd" fill="rgb(255,0,0)" stroke-width="5" stroke="rgb(0,0,0)" />
	<path d="M7374,2446 6774,2446 6774,1977.58 7374,2221.2 7374,2446 z " fill-rule="evenodd" fill="rgb(255,0,0)" stroke-width="5" stroke="rgb(0,0,0)" />
	<path d="M6168,1840 6168,1731.52 6435.16,1840 6168,1840 z " fill-rule="evenodd" fill="rgb(255,0,0)" stroke-width="5" stroke="rgb(0,0,0)" />
	<path d="M2526,3058 2526,3658 1926,3658 1926,3152 2050,3152 2050,3058 2526,3058 z " fill-rule="evenodd" fill="rgb(255,0,0)" stroke-width="5" stroke="rgb(0,0,0)" />
	<path d="M1320,2452 1920,2452 1920,2952 1320,2952 1320,2452 z " fill-rule="evenodd" fill="rgb(255,0,0)" stroke-width="5" stroke="rgb(0,0,0)" />
	<path d="M1920,1840 1320,1840 1320,1502 1400,1502 1400,1602 1920,1602 1920,1840 z " fill-rule="evenodd" fill="rgb(255,0,0)" stroke-width="5" stroke="rgb(0,0,0)" />
	<path d="M7986,5482 8586,5482 8586,5552 7986,5552 7986,5482 z " fill-rule="evenodd" fill="rgb(255,0,0)" stroke-width="5" stroke="rgb(0,0,0)" />
	<path d="M3738,4876 3738,4952 3700,4952 3700,4876 3738,4876 z " fill-rule="evenodd" fill="rgb(255,0,0)" stroke-width="5" stroke="rgb(0,0,0)" />
	<path d="M2532,4870 2532,4270 2900,4270 2900,4870 2532,4870 z " fill-rule="evenodd" fill="rgb(255,0,0)" stroke-width="5" stroke="rgb(0,0,0)" />
	<path d="M8586,3052 7986,3052 7986,2469.69 8586,2713.32 8586,3052 z " fill-rule="evenodd" fill="rgb(255,0,0)" stroke-width="5" stroke="rgb(0,0,0)" />
	<path d="M7380,2446 7380,2223.64 7927.64,2446 7380,2446 z " fill-rule="evenodd" fill="rgb(255,0,0)" stroke-width="5" stroke="rgb(0,0,0)" />
	<path d="M1920,3658 1320,3658 1320,3152 1920,3152 1920,3658 z " fill-rule="evenodd" fill="rgb(255,0,0)" stroke-width="5" stroke="rgb(0,0,0)" />
	<path d="M714,2452 1314,2452 1314,2952 714,2952 714,2452 z " fill-rule="evenodd" fill="rgb(255,0,0)" stroke-width="5" stroke="rgb(0,0,0)" />
	<path d="M1314,1840 714,1840 714,1502 1314,1502 1314,1840 z " fill-rule="evenodd" fill="rgb(255,0,0)" stroke-width="5" stroke="rgb(0,0,0)" />
	<path d="M8592,5482 8600,5482 8600,5552 8592,5552 8592,5482 z " fill-rule="evenodd" fill="rgb(255,0,0)" stroke-width="5" stroke="rgb(0,0,0)" />
	<path d="M8592,5476 8592,4876 8600,4876 8600,5476 8592,5476 z " fill-rule="evenodd" fill="rgb(255,0,0)" stroke-width="5" stroke="rgb(0,0,0)" />
	<path d="M2532,5476 2532,4876 2900,4876 2900,5476 2532,5476 z " fill-rule="evenodd" fill="rgb(255,0,0)" stroke-width="5" stroke="rgb(0,0,0)" />
	<path d="M8592,4870 8592,4270 8600,4270 8600,4870 8592,4870 z " fill-rule="evenodd" fill="rgb(255,0,0)" stroke-width="5" stroke="rgb(0,0,0)" />
	<path d="M8592,4264 8592,3664 8600,3664 8600,4264 8592,4264 z " fill-rule="evenodd" fill="rgb(255,0,0)" stroke-width="5" stroke="rgb(0,0,0)" />
	<path d="M8592,3658 8592,3058 8600,3058 8600,3658 8592,3658 z " fill-rule="evenodd" fill="rgb(255,0,0)" stroke-width="5" stroke="rgb(0,0,0)" />
	<path d="M8592,3052 8592,2715.75 8600,2719 8600,3052 8592,3052 z " fill-rule="evenodd" fill="rgb(255,0,0)" stroke-width="5" stroke="rgb(0,0,0)" />
	<path d="M1314,3658 714,3658 714,3152 1314,3152 1314,3658 z " fill-rule="evenodd" fill="rgb(255,0,0)" stroke-width="5" stroke="rgb(0,0,0)" />
	<path d="M108,2452 708,2452 708,2952 108,2952 108,2452 z " fill-rule="evenodd" fill="rgb(255,0,0)" stroke-width="5" stroke="rgb(0,0,0)" />
	<path d="M708,1840 108,1840 108,1602 700,1602 700,1502 708,1502 708,1840 z " fill-rule="evenodd" fill="rgb(255,0,0)" stroke-width="5" stroke="rgb(0,0,0)" />
	<path d="M2532,6082 2532,5482 2900,5482 2900,6052 3100,6052 3100,6082 2532,6082 z " fill-rule="evenodd" fill="rgb(255,0,0)" stroke-width="5" stroke="rgb(0,0,0)" />
	<path d="M708,3658 108,3658 108,3152 708,3152 708,3658 z " fill-rule="evenodd" fill="rgb(255,0,0)" stroke-width="5" stroke="rgb(0,0,0)" />
	<path d="M102,2452 102,2952 100,2952 100,2452 102,2452 z " fill-rule="evenodd" fill="rgb(255,0,0)" stroke-width="5" stroke="rgb(0,0,0)" />
	<path d="M102,1846 102,2446 100,2446 100,1846 102,1846 z " fill-rule="evenodd" fill="rgb(255,0,0)" stroke-width="5" stroke="rgb(0,0,0)" />
	<path d="M102,1840 100,1840 100,1602 102,1602 102,1840 z " fill-rule="evenodd" fill="rgb(255,0,0)" stroke-width="5" stroke="rgb(0,0,0)" />
	<path d="M2532,6688 2532,6088 3100,6088 3100,6688 2532,6688 z " fill-rule="evenodd" fill="rgb(255,0,0)" stroke-width="5" stroke="rgb(0,0,0)" />
	<path d="M102,3658 100,3658 100,3152 102,3152 102,3658 z " fill-rule="evenodd" fill="rgb(255,0,0)" stroke-width="5" stroke="rgb(0,0,0)" />
	<path d="M2532,6694 3100,6694 3100,6852 2900,6852 2900,6952 2532,6952 2532,6694 z " fill-rule="evenodd" fill="rgb(255,0,0)" stroke-width="5" stroke="rgb(0,0,0)" />
	<path d="M102,3664 102,4264 100,4264 100,3664 102,3664 z " fill-rule="evenodd" fill="rgb(255,0,0)" stroke-width="5" stroke="rgb(0,0,0)" />
	<path d="M1926,6694 2526,6694 2526,6952 1926,6952 1926,6694 z " fill-rule="evenodd" fill="rgb(255,0,0)" stroke-width="5" stroke="rgb(0,0,0)" />
	<path d="M102,4270 102,4870 100,4870 100,4270 102,4270 z " fill-rule="evenodd" fill="rgb(255,0,0)" stroke-width="5" stroke="rgb(0,0,0)" />
	<path d="M1320,6694 1920,6694 1920,6952 1320,6952 1320,6694 z " fill-rule="evenodd" fill="rgb(255,0,0)" stroke-width="5" stroke="rgb(0,0,0)" />
	<path d="M102,4876 102,5476 100,5476 100,4876 102,4876 z " fill-rule="evenodd" fill="rgb(255,0,0)" stroke-width="5" stroke="rgb(0,0,0)" />
	<path d="M714,6694 1314,6694 1314,6952 714,6952 714,6694 z " fill-rule="evenodd" fill="rgb(255,0,0)" stroke-width="5" stroke="rgb(0,0,0)" />
	<path d="M102,5482 102,6082 100,6082 100,5482 102,5482 z " fill-rule="evenodd" fill="rgb(255,0,0)" stroke-width="5" stroke="rgb(0,0,0)" />
	<path d="M108,6694 708,6694 708,6952 108,6952 108,6694 z " fill-rule="evenodd" fill="rgb(255,0,0)" stroke-width="5" stroke="rgb(0,0,0)" />
	<path d="M102,6088 102,6688 100,6688 100,6088 102,6088 z " fill-rule="evenodd" fill="rgb(255,0,0)" stroke-width="5" stroke="rgb(0,0,0)" />
	<path d="M102,6694 102,6952 100,6952 100,6694 102,6694 z " fill-rule="evenodd" fill="rgb(255,0,0)" stroke-width="5" stroke="rgb(0,0,0)" />
	<polyline points="4945,3057 4945,2457 4945,3057 4345,3057 4945,3057 " fill="none" stroke-width="100" stroke="rgb(0,0,0)" />
	<circle cx="4945" cy="3057" r="-10" fill="rgb(0,0,0)" />
	<circle cx="4945" cy="2457" r="-10" fill="rgb(0,0,0)" />
	<circle cx="4945" cy="3057" r="-10" fill="rgb(0,0,0)" />
	<circle cx="4345" cy="3057" r="-10" fill="rgb(0,0,0)" />
	<circle cx="4945" cy="3057" r="-10" fill="rgb(0,0,0)" />
	<polyline points="4945,3717 4945,3057 4285,3057 " fill="none" stroke-width="0.5" stroke="rgb(128,0,128)" />
</svg>
