<?xml version="1.0" standalone="no" ?>
<!DOCTYPE svg PUBLIC "-//W3C//DTD SVG 1.1//EN" "http://www.w3.org/Graphics/SVG/1.1/DTD/svg11.dtd">
<svg width="8700px" height="7048px" xmlns="http://www.w3.org/2000/svg" version="1.1" >
	<path d="M5050,5548 5650,5548 5650,4948 5050,4948 5050,5548 z " fill-rule="evenodd" fill="rgb(0,128,0)" stroke-width="5" stroke="rgb(0,0,0)" />
	<path d="M5656,5548 6256,5548 6256,4948 5656,4948 5656,5548 z " fill-rule="evenodd" fill="rgb(0,128,0)" stroke-width="5" stroke="rgb(0,0,0)" />
	<path d="M5050,4942 5650,4942 5650,4342 5050,4342 5050,4942 z " fill-rule="evenodd" fill="rgb(0,128,0)" stroke-width="5" stroke="rgb(0,0,0)" />
	<path d="M5656,4942 6256,4942 6256,4342 5656,4342 5656,4942 z " fill-rule="evenodd" fill="rgb(0,128,0)" stroke-width="5" stroke="rgb(0,0,0)" />
	<path d="M6262,4942 6862,4942 6862,4342 6262,4342 6262,4942 z " fill-rule="evenodd" fill="rgb(0,128,0)" stroke-width="5" stroke="rgb(0,0,0)" />
	<path d="M6262,5548 6862,5548 6862,4948 6262,4948 6262,5548 z " fill-rule="evenodd" fill="rgb(0,128,0)" stroke-width="5" stroke="rgb(0,0,0)" />
	<path d="M6868,4942 7468,4942 7468,4342 6868,4342 6868,4942 z " fill-rule="evenodd" fill="rgb(0,128,0)" stroke-width="5" stroke="rgb(0,0,0)" />
	<path d="M5050,4336 5650,4336 5650,3736 5050,3736 5050,4336 z " fill-rule="evenodd" fill="rgb(0,128,0)" stroke-width="5" stroke="rgb(0,0,0)" />
	<path d="M5656,4336 6256,4336 6256,3736 5656,3736 5656,4336 z " fill-rule="evenodd" fill="rgb(0,128,0)" stroke-width="5" stroke="rgb(0,0,0)" />
	<path d="M6262,4336 6862,4336 6862,3736 6262,3736 6262,4336 z " fill-rule="evenodd" fill="rgb(0,128,0)" stroke-width="5" stroke="rgb(0,0,0)" />
	<path d="M6868,4336 7468,4336 7468,3736 6868,3736 6868,4336 z " fill-rule="evenodd" fill="rgb(0,128,0)" stroke-width="5" stroke="rgb(0,0,0)" />
	<path d="M7474,4336 8074,4336 8074,3736 7474,3736 7474,4336 z " fill-rule="evenodd" fill="rgb(0,128,0)" stroke-width="5" stroke="rgb(0,0,0)" />
	<path d="M6868,5548 7468,5548 7468,4948 6868,4948 6868,5548 z " fill-rule="evenodd" fill="rgb(0,128,0)" stroke-width="5" stroke="rgb(0,0,0)" />
	<path d="M7474,4942 8074,4942 8074,4342 7474,4342 7474,4942 z " fill-rule="evenodd" fill="rgb(0,128,0)" stroke-width="5" stroke="rgb(0,0,0)" />
	<path d="M3838,4942 4438,4942 4438,4342 3838,4342 3838,4942 z " fill-rule="evenodd" fill="rgb(0,128,0)" stroke-width="5" stroke="rgb(0,0,0)" />
	<path d="M5050,3730 5650,3730 5650,3130 5050,3130 5050,3730 z " fill-rule="evenodd" fill="rgb(0,128,0)" stroke-width="5" stroke="rgb(0,0,0)" />
	<path d="M5656,3730 6256,3730 6256,3130 5656,3130 5656,3730 z " fill-rule="evenodd" fill="rgb(0,128,0)" stroke-width="5" stroke="rgb(0,0,0)" />
	<path d="M6262,3730 6862,3730 6862,3130 6262,3130 6262,3730 z " fill-rule="evenodd" fill="rgb(0,128,0)" stroke-width="5" stroke="rgb(0,0,0)" />
	<path d="M6868,3730 7468,3730 7468,3130 6868,3130 6868,3730 z " fill-rule="evenodd" fill="rgb(0,128,0)" stroke-width="5" stroke="rgb(0,0,0)" />
	<path d="M7474,3730 8074,3730 8074,3130 7474,3130 7474,3730 z " fill-rule="evenodd" fill="rgb(0,128,0)" stroke-width="5" stroke="rgb(0,0,0)" />
	<path d="M7474,5548 8074,5548 8074,4948 7474,4948 7474,5548 z " fill-rule="evenodd" fill="rgb(0,128,0)" stroke-width="5" stroke="rgb(0,0,0)" />
	<path d="M3838,4336 4438,4336 4438,3736 3838,3736 3838,4336 z " fill-rule="evenodd" fill="rgb(0,128,0)" stroke-width="5" stroke="rgb(0,0,0)" />
	<path d="M5050,3124 5650,3124 5650,2524 5050,2524 5050,3124 z " fill-rule="evenodd" fill="rgb(0,128,0)" stroke-width="5" stroke="rgb(0,0,0)" />
	<path d="M5656,3124 6256,3124 6256,2524 5656,2524 5656,3124 z " fill-rule="evenodd" fill="rgb(0,128,0)" stroke-width="5" stroke="rgb(0,0,0)" />
	<path d="M6262,3124 6862,3124 6862,2524 6262,2524 6262,3124 z " fill-rule="evenodd" fill="rgb(0,128,0)" stroke-width="5" stroke="rgb(0,0,0)" />
	<path d="M6868,3124 7468,3124 7468,2524 6868,2524 6868,3124 z " fill-rule="evenodd" fill="rgb(0,128,0)" stroke-width="5" stroke="rgb(0,0,0)" />
	<path d="M7474,3124 8074,3124 8074,2524 7474,2524 7474,3124 z " fill-rule="evenodd" fill="rgb(0,128,0)" stroke-width="5" stroke="rgb(0,0,0)" />
	<path d="M1414,6154 2014,6154 2014,5554 1414,5554 1414,6154 z " fill-rule="evenodd" fill="rgb(0,128,0)" stroke-width="5" stroke="rgb(0,0,0)" />
	<path d="M2020,6154 2620,6154 2620,5554 2020,5554 2020,6154 z " fill-rule="evenodd" fill="rgb(0,128,0)" stroke-width="5" stroke="rgb(0,0,0)" />
	<path d="M2020,5548 2620,5548 2620,4948 2020,4948 2020,5548 z " fill-rule="evenodd" fill="rgb(0,128,0)" stroke-width="5" stroke="rgb(0,0,0)" />
	<path d="M3838,3730 4438,3730 4438,3130 3838,3130 3838,3730 z " fill-rule="evenodd" fill="rgb(0,128,0)" stroke-width="5" stroke="rgb(0,0,0)" />
	<path d="M5050,2518 5650,2518 5650,1918 5050,1918 5050,2518 z " fill-rule="evenodd" fill="rgb(0,128,0)" stroke-width="5" stroke="rgb(0,0,0)" />
	<path d="M5656,2518 6256,2518 6256,1918 5656,1918 5656,2518 z " fill-rule="evenodd" fill="rgb(0,128,0)" stroke-width="5" stroke="rgb(0,0,0)" />
	<path d="M202,6760 802,6760 802,6160 202,6160 202,6760 z " fill-rule="evenodd" fill="rgb(0,128,0)" stroke-width="5" stroke="rgb(0,0,0)" />
	<path d="M808,6760 1408,6760 1408,6160 808,6160 808,6760 z " fill-rule="evenodd" fill="rgb(0,128,0)" stroke-width="5" stroke="rgb(0,0,0)" />
	<path d="M1414,6760 2014,6760 2014,6160 1414,6160 1414,6760 z " fill-rule="evenodd" fill="rgb(0,128,0)" stroke-width="5" stroke="rgb(0,0,0)" />
	<path d="M808,6154 1408,6154 1408,5554 808,5554 808,6154 z " fill-rule="evenodd" fill="rgb(0,128,0)" stroke-width="5" stroke="rgb(0,0,0)" />
	<path d="M1414,5548 2014,5548 2014,4948 1414,4948 1414,5548 z " fill-rule="evenodd" fill="rgb(0,128,0)" stroke-width="5" stroke="rgb(0,0,0)" />
	<path d="M2020,6760 2620,6760 2620,6160 2020,6160 2020,6760 z " fill-rule="evenodd" fill="rgb(0,128,0)" stroke-width="5" stroke="rgb(0,0,0)" />
	<path d="M2020,4942 2620,4942 2620,4342 2020,4342 2020,4942 z " fill-rule="evenodd" fill="rgb(0,128,0)" stroke-width="5" stroke="rgb(0,0,0)" />
	<path d="M4444,2518 5044,2518 5044,1918 4444,1918 4444,2518 z " fill-rule="evenodd" fill="rgb(0,128,0)" stroke-width="5" stroke="rgb(0,0,0)" />
	<path d="M202,6154 802,6154 802,5554 202,5554 202,6154 z " fill-rule="evenodd" fill="rgb(0,128,0)" stroke-width="5" stroke="rgb(0,0,0)" />
	<path d="M808,5548 1408,5548 1408,4948 808,4948 808,5548 z " fill-rule="evenodd" fill="rgb(0,128,0)" stroke-width="5" stroke="rgb(0,0,0)" />
	<path d="M1414,4942 2014,4942 2014,4342 1414,4342 1414,4942 z " fill-rule="evenodd" fill="rgb(0,128,0)" stroke-width="5" stroke="rgb(0,0,0)" />
	<path d="M2020,4336 2620,4336 2620,3736 2020,3736 2020,4336 z " fill-rule="evenodd" fill="rgb(0,128,0)" stroke-width="5" stroke="rgb(0,0,0)" />
	<path d="M3838,2518 4438,2518 4438,1918 3838,1918 3838,2518 z " fill-rule="evenodd" fill="rgb(0,128,0)" stroke-width="5" stroke="rgb(0,0,0)" />
	<path d="M4444,1912 5044,1912 5044,1312 4444,1312 4444,1912 z " fill-rule="evenodd" fill="rgb(0,128,0)" stroke-width="5" stroke="rgb(0,0,0)" />
	<path d="M202,5548 802,5548 802,4948 202,4948 202,5548 z " fill-rule="evenodd" fill="rgb(0,128,0)" stroke-width="5" stroke="rgb(0,0,0)" />
	<path d="M808,4942 1408,4942 1408,4342 808,4342 808,4942 z " fill-rule="evenodd" fill="rgb(0,128,0)" stroke-width="5" stroke="rgb(0,0,0)" />
	<path d="M1414,4336 2014,4336 2014,3736 1414,3736 1414,4336 z " fill-rule="evenodd" fill="rgb(0,128,0)" stroke-width="5" stroke="rgb(0,0,0)" />
	<path d="M3232,2518 3832,2518 3832,1918 3232,1918 3232,2518 z " fill-rule="evenodd" fill="rgb(0,128,0)" stroke-width="5" stroke="rgb(0,0,0)" />
	<path d="M3838,1912 4438,1912 4438,1312 3838,1312 3838,1912 z " fill-rule="evenodd" fill="rgb(0,128,0)" stroke-width="5" stroke="rgb(0,0,0)" />
	<path d="M202,4942 802,4942 802,4342 202,4342 202,4942 z " fill-rule="evenodd" fill="rgb(0,128,0)" stroke-width="5" stroke="rgb(0,0,0)" />
	<path d="M808,4336 1408,4336 1408,3736 808,3736 808,4336 z " fill-rule="evenodd" fill="rgb(0,128,0)" stroke-width="5" stroke="rgb(0,0,0)" />
	<path d="M2626,2518 3226,2518 3226,1918 2626,1918 2626,2518 z " fill-rule="evenodd" fill="rgb(0,128,0)" stroke-width="5" stroke="rgb(0,0,0)" />
	<path d="M202,4336 802,4336 802,3736 202,3736 202,4336 z " fill-rule="evenodd" fill="rgb(0,128,0)" stroke-width="5" stroke="rgb(0,0,0)" />
	<path d="M2020,2518 2620,2518 2620,1918 2020,1918 2020,2518 z " fill-rule="evenodd" fill="rgb(0,128,0)" stroke-width="5" stroke="rgb(0,0,0)" />
	<path d="M1414,2518 2014,2518 2014,1918 1414,1918 1414,2518 z " fill-rule="evenodd" fill="rgb(0,128,0)" stroke-width="5" stroke="rgb(0,0,0)" />
	<path d="M808,2518 1408,2518 1408,1918 808,1918 808,2518 z " fill-rule="evenodd" fill="rgb(0,128,0)" stroke-width="5" stroke="rgb(0,0,0)" />
	<path d="M202,2518 802,2518 802,1918 202,1918 202,2518 z " fill-rule="evenodd" fill="rgb(0,128,0)" stroke-width="5" stroke="rgb(0,0,0)" />
	<path d="M4444,4942 4444,4342 4950,4342 4950,4942 4444,4942 z " fill-rule="evenodd" fill="rgb(255,0,0)" stroke-width="5" stroke="rgb(0,0,0)" />
	<path d="M8080,4336 8080,3736 8600,3736 8600,4336 8080,4336 z " fill-rule="evenodd" fill="rgb(255,0,0)" stroke-width="5" stroke="rgb(0,0,0)" />
	<path d="M4444,4336 4444,3736 4950,3736 4950,4336 4444,4336 z " fill-rule="evenodd" fill="rgb(255,0,0)" stroke-width="5" stroke="rgb(0,0,0)" />
	<path d="M8080,3730 8080,3130 8600,3130 8600,3730 8080,3730 z " fill-rule="evenodd" fill="rgb(255,0,0)" stroke-width="5" stroke="rgb(0,0,0)" />
	<path d="M8080,4942 8080,4342 8600,4342 8600,4942 8080,4942 z " fill-rule="evenodd" fill="rgb(255,0,0)" stroke-width="5" stroke="rgb(0,0,0)" />
	<path d="M2626,5548 2626,4948 2900,4948 2900,5548 2626,5548 z " fill-rule="evenodd" fill="rgb(255,0,0)" stroke-width="5" stroke="rgb(0,0,0)" />
	<path d="M3832,4342 3832,4942 3700,4942 3700,4342 3832,4342 z " fill-rule="evenodd" fill="rgb(255,0,0)" stroke-width="5" stroke="rgb(0,0,0)" />
	<path d="M4444,3730 4444,3130 4950,3130 4950,3730 4444,3730 z " fill-rule="evenodd" fill="rgb(255,0,0)" stroke-width="5" stroke="rgb(0,0,0)" />
	<path d="M8080,3124 8080,2524 8129.6,2524 8600,2715 8600,3124 8080,3124 z " fill-rule="evenodd" fill="rgb(255,0,0)" stroke-width="5" stroke="rgb(0,0,0)" />
	<path d="M8080,5548 8080,4948 8600,4948 8600,5548 8080,5548 z " fill-rule="evenodd" fill="rgb(255,0,0)" stroke-width="5" stroke="rgb(0,0,0)" />
	<path d="M2626,6154 2626,5554 2900,5554 2900,6048 3100,6048 3100,6154 2626,6154 z " fill-rule="evenodd" fill="rgb(255,0,0)" stroke-width="5" stroke="rgb(0,0,0)" />
	<path d="M2626,4942 2626,4342 2900,4342 2900,4942 2626,4942 z " fill-rule="evenodd" fill="rgb(255,0,0)" stroke-width="5" stroke="rgb(0,0,0)" />
	<path d="M3832,3736 3832,4336 3700,4336 3700,3736 3832,3736 z " fill-rule="evenodd" fill="rgb(255,0,0)" stroke-width="5" stroke="rgb(0,0,0)" />
	<path d="M4444,3124 4444,2524 5044,2524 5044,2948 4900,2948 4900,3048 4950,3048 4950,3124 4444,3124 z " fill-rule="evenodd" fill="rgb(255,0,0)" stroke-width="5" stroke="rgb(0,0,0)" />
	<path d="M6862,2518 6262,2518 6262,1918 6637.11,1918 6862,2009.31 6862,2518 z " fill-rule="evenodd" fill="rgb(255,0,0)" stroke-width="5" stroke="rgb(0,0,0)" />
	<path d="M7468,2518 6868,2518 6868,2011.75 7468,2255.37 7468,2518 z " fill-rule="evenodd" fill="rgb(255,0,0)" stroke-width="5" stroke="rgb(0,0,0)" />
	<path d="M8074,2518 7474,2518 7474,2257.81 8074,2501.43 8074,2518 z " fill-rule="evenodd" fill="rgb(255,0,0)" stroke-width="5" stroke="rgb(0,0,0)" />
	<path d="M8080,2518 8080,2503.86 8114.82,2518 8080,2518 z " fill-rule="evenodd" fill="rgb(255,0,0)" stroke-width="5" stroke="rgb(0,0,0)" />
	<path d="M2626,6760 2626,6160 3100,6160 3100,6760 2626,6760 z " fill-rule="evenodd" fill="rgb(255,0,0)" stroke-width="5" stroke="rgb(0,0,0)" />
	<path d="M2626,4336 2626,3736 2900,3736 2900,4336 2626,4336 z " fill-rule="evenodd" fill="rgb(255,0,0)" stroke-width="5" stroke="rgb(0,0,0)" />
	<path d="M3832,3130 3832,3730 3700,3730 3700,3130 3832,3130 z " fill-rule="evenodd" fill="rgb(255,0,0)" stroke-width="5" stroke="rgb(0,0,0)" />
	<path d="M3838,2524 4438,2524 4438,3124 3838,3124 3838,3048 4200,3048 4200,2948 3838,2948 3838,2524 z " fill-rule="evenodd" fill="rgb(255,0,0)" stroke-width="5" stroke="rgb(0,0,0)" />
	<path d="M5650,1912 5050,1912 5050,1312 5144.63,1312 5650,1517.2 5650,1912 z " fill-rule="evenodd" fill="rgb(255,0,0)" stroke-width="5" stroke="rgb(0,0,0)" />
	<path d="M6256,1912 5656,1912 5656,1519.63 6256,1763.26 6256,1912 z " fill-rule="evenodd" fill="rgb(255,0,0)" stroke-width="5" stroke="rgb(0,0,0)" />
	<path d="M6262,1912 6262,1765.69 6622.33,1912 6262,1912 z " fill-rule="evenodd" fill="rgb(255,0,0)" stroke-width="5" stroke="rgb(0,0,0)" />
	<path d="M196,6766 196,6948 100,6948 100,6766 196,6766 z " fill-rule="evenodd" fill="rgb(255,0,0)" stroke-width="5" stroke="rgb(0,0,0)" />
	<path d="M202,6766 802,6766 802,6948 202,6948 202,6766 z " fill-rule="evenodd" fill="rgb(255,0,0)" stroke-width="5" stroke="rgb(0,0,0)" />
	<path d="M196,6160 196,6760 100,6760 100,6160 196,6160 z " fill-rule="evenodd" fill="rgb(255,0,0)" stroke-width="5" stroke="rgb(0,0,0)" />
	<path d="M808,6766 1408,6766 1408,6948 808,6948 808,6766 z " fill-rule="evenodd" fill="rgb(255,0,0)" stroke-width="5" stroke="rgb(0,0,0)" />
	<path d="M1414,6766 2014,6766 2014,6948 1414,6948 1414,6766 z " fill-rule="evenodd" fill="rgb(255,0,0)" stroke-width="5" stroke="rgb(0,0,0)" />
	<path d="M2020,6766 2620,6766 2620,6948 2020,6948 2020,6766 z " fill-rule="evenodd" fill="rgb(255,0,0)" stroke-width="5" stroke="rgb(0,0,0)" />
	<path d="M2626,6766 3100,6766 3100,6848 2900,6848 2900,6948 2626,6948 2626,6766 z " fill-rule="evenodd" fill="rgb(255,0,0)" stroke-width="5" stroke="rgb(0,0,0)" />
	<path d="M2626,3730 2626,3130 2850,3130 2850,3148 2900,3148 2900,3730 2626,3730 z " fill-rule="evenodd" fill="rgb(255,0,0)" stroke-width="5" stroke="rgb(0,0,0)" />
	<path d="M3832,3124 3700,3124 3700,3048 3832,3048 3832,3124 z " fill-rule="evenodd" fill="rgb(255,0,0)" stroke-width="5" stroke="rgb(0,0,0)" />
	<path d="M3232,2524 3832,2524 3832,2948 3232,2948 3232,2524 z " fill-rule="evenodd" fill="rgb(255,0,0)" stroke-width="5" stroke="rgb(0,0,0)" />
	<path d="M5050,1306 5050,1273.58 5129.85,1306 5050,1306 z " fill-rule="evenodd" fill="rgb(255,0,0)" stroke-width="5" stroke="rgb(0,0,0)" />
	<path d="M196,5554 196,6154 100,6154 100,5554 196,5554 z " fill-rule="evenodd" fill="rgb(255,0,0)" stroke-width="5" stroke="rgb(0,0,0)" />
	<path d="M2620,3130 2620,3730 2020,3730 2020,3148 2050,3148 2050,3130 2620,3130 z " fill-rule="evenodd" fill="rgb(255,0,0)" stroke-width="5" stroke="rgb(0,0,0)" />
	<path d="M2626,3124 2626,2524 3226,2524 3226,2948 2850,2948 2850,3124 2626,3124 z " fill-rule="evenodd" fill="rgb(255,0,0)" stroke-width="5" stroke="rgb(0,0,0)" />
	<path d="M5044,1306 4444,1306 4444,1027.52 5044,1271.14 5044,1306 z " fill-rule="evenodd" fill="rgb(255,0,0)" stroke-width="5" stroke="rgb(0,0,0)" />
	<path d="M196,4948 196,5548 100,5548 100,4948 196,4948 z " fill-rule="evenodd" fill="rgb(255,0,0)" stroke-width="5" stroke="rgb(0,0,0)" />
	<path d="M2014,3730 1414,3730 1414,3148 2014,3148 2014,3730 z " fill-rule="evenodd" fill="rgb(255,0,0)" stroke-width="5" stroke="rgb(0,0,0)" />
	<path d="M2020,2524 2620,2524 2620,3124 2050,3124 2050,2948 2020,2948 2020,2524 z " fill-rule="evenodd" fill="rgb(255,0,0)" stroke-width="5" stroke="rgb(0,0,0)" />
	<path d="M3832,1312 3832,1912 3232,1912 3232,1388.39 3262.98,1312 3832,1312 z " fill-rule="evenodd" fill="rgb(255,0,0)" stroke-width="5" stroke="rgb(0,0,0)" />
	<path d="M4438,1306 3838,1306 3838,781.465 4438,1025.09 4438,1306 z " fill-rule="evenodd" fill="rgb(255,0,0)" stroke-width="5" stroke="rgb(0,0,0)" />
	<path d="M196,4342 196,4942 100,4942 100,4342 196,4342 z " fill-rule="evenodd" fill="rgb(255,0,0)" stroke-width="5" stroke="rgb(0,0,0)" />
	<path d="M1408,3730 808,3730 808,3148 1408,3148 1408,3730 z " fill-rule="evenodd" fill="rgb(255,0,0)" stroke-width="5" stroke="rgb(0,0,0)" />
	<path d="M1414,2524 2014,2524 2014,2948 1414,2948 1414,2524 z " fill-rule="evenodd" fill="rgb(255,0,0)" stroke-width="5" stroke="rgb(0,0,0)" />
	<path d="M3226,1912 2626,1912 2626,1312 3155.46,1312 3080,1498 2950,1498 2950,1598 3147,1598 3226,1403.19 3226,1912 z " fill-rule="evenodd" fill="rgb(255,0,0)" stroke-width="5" stroke="rgb(0,0,0)" />
	<path d="M3832,1306 3265.41,1306 3508.72,706 3652.14,706 3832,779.028 3832,1306 z " fill-rule="evenodd" fill="rgb(255,0,0)" stroke-width="5" stroke="rgb(0,0,0)" />
	<path d="M3232,706 3401.3,706 3232,1123.32 3232,706 z " fill-rule="evenodd" fill="rgb(255,0,0)" stroke-width="5" stroke="rgb(0,0,0)" />
	<path d="M196,3736 196,4336 100,4336 100,3736 196,3736 z " fill-rule="evenodd" fill="rgb(255,0,0)" stroke-width="5" stroke="rgb(0,0,0)" />
	<path d="M802,3730 202,3730 202,3148 802,3148 802,3730 z " fill-rule="evenodd" fill="rgb(255,0,0)" stroke-width="5" stroke="rgb(0,0,0)" />
	<path d="M808,2524 1408,2524 1408,2948 808,2948 808,2524 z " fill-rule="evenodd" fill="rgb(255,0,0)" stroke-width="5" stroke="rgb(0,0,0)" />
	<path d="M2620,1312 2620,1912 2020,1912 2020,1598 2150,1598 2150,1312 2620,1312 z " fill-rule="evenodd" fill="rgb(255,0,0)" stroke-width="5" stroke="rgb(0,0,0)" />
	<path d="M2626,1306 2626,706 3226,706 3226,1138.11 3157.89,1306 2626,1306 z " fill-rule="evenodd" fill="rgb(255,0,0)" stroke-width="5" stroke="rgb(0,0,0)" />
	<path d="M3232,700 3232,534.853 3437,618 3403.73,700 3232,700 z " fill-rule="evenodd" fill="rgb(255,0,0)" stroke-width="5" stroke="rgb(0,0,0)" />
	<path d="M3511.16,700 3529,656 3637.37,700 3511.16,700 z " fill-rule="evenodd" fill="rgb(255,0,0)" stroke-width="5" stroke="rgb(0,0,0)" />
	<path d="M196,3730 100,3730 100,3148 196,3148 196,3730 z " fill-rule="evenodd" fill="rgb(255,0,0)" stroke-width="5" stroke="rgb(0,0,0)" />
	<path d="M202,2524 802,2524 802,2948 202,2948 202,2524 z " fill-rule="evenodd" fill="rgb(255,0,0)" stroke-width="5" stroke="rgb(0,0,0)" />
	<path d="M2014,1912 1414,1912 1414,1598 2014,1598 2014,1912 z " fill-rule="evenodd" fill="rgb(255,0,0)" stroke-width="5" stroke="rgb(0,0,0)" />
	<path d="M2620,706 2620,1306 2150,1306 2150,706 2620,706 z " fill-rule="evenodd" fill="rgb(255,0,0)" stroke-width="5" stroke="rgb(0,0,0)" />
	<path d="M3226,700 2626,700 2626,289.063 3226,532.42 3226,700 z " fill-rule="evenodd" fill="rgb(255,0,0)" stroke-width="5" stroke="rgb(0,0,0)" />
	<path d="M196,2524 196,2948 100,2948 100,2524 196,2524 z " fill-rule="evenodd" fill="rgb(255,0,0)" stroke-width="5" stroke="rgb(0,0,0)" />
	<path d="M1408,1912 808,1912 808,1498 1400,1498 1400,1598 1408,1598 1408,1912 z " fill-rule="evenodd" fill="rgb(255,0,0)" stroke-width="5" stroke="rgb(0,0,0)" />
	<path d="M2620,700 2150,700 2150,100 2159.86,100 2620,286.629 2620,700 z " fill-rule="evenodd" fill="rgb(255,0,0)" stroke-width="5" stroke="rgb(0,0,0)" />
	<path d="M196,1918 196,2518 100,2518 100,1918 196,1918 z " fill-rule="evenodd" fill="rgb(255,0,0)" stroke-width="5" stroke="rgb(0,0,0)" />
	<path d="M802,1912 202,1912 202,1598 700,1598 700,1498 802,1498 802,1912 z " fill-rule="evenodd" fill="rgb(255,0,0)" stroke-width="5" stroke="rgb(0,0,0)" />
	<path d="M196,1912 100,1912 100,1598 196,1598 196,1912 z " fill-rule="evenodd" fill="rgb(255,0,0)" stroke-width="5" stroke="rgb(0,0,0)" />
	<polyline points="5045,5553 5645,5553 5045,5553 5045,4953 5045,5553 " fill="none" stroke-width="100" stroke="rgb(0,0,0)" />
	<circle cx="5045" cy="5553" r="-10" fill="rgb(0,0,0)" />
	<circle cx="5645" cy="5553" r="-10" fill="rgb(0,0,0)" />
	<circle cx="5045" cy="5553" r="-10" fill="rgb(0,0,0)" />
	<circle cx="5045" cy="4953" r="-10" fill="rgb(0,0,0)" />
	<circle cx="5045" cy="5553" r="-10" fill="rgb(0,0,0)" />
	<polyline points="5045,6213 5045,5553 4385,5553 " fill="none" stroke-width="0.5" stroke="rgb(128,0,128)" />
</svg>
