<?xml version="1.0" standalone="no" ?>
<!DOCTYPE svg PUBLIC "-//W3C//DTD SVG 1.1//EN" "http://www.w3.org/Graphics/SVG/1.1/DTD/svg11.dtd">
<svg width="8700px" height="7052px" xmlns="http://www.w3.org/2000/svg" version="1.1" >
	<path d="M5328.51,1766.48 4904.24,2190.74 5328.51,2615.01 5752.77,2190.74 5328.51,1766.48 z " fill-rule="evenodd" fill="rgb(0,128,0)" stroke-width="5" stroke="rgb(0,0,0)" />
	<path d="M4471.49,3480.51 4047.23,3904.77 4471.49,4329.03 4895.76,3904.77 4471.49,3480.51 z " fill-rule="evenodd" fill="rgb(0,128,0)" stroke-width="5" stroke="rgb(0,0,0)" />
	<path d="M4900,1337.97 4475.74,1762.24 4900,2186.5 5324.26,1762.24 4900,1337.97 z " fill-rule="evenodd" fill="rgb(0,128,0)" stroke-width="5" stroke="rgb(0,0,0)" />
	<path d="M5757.01,2194.99 5332.75,2619.25 5757.01,3043.51 6181.28,2619.25 5757.01,2194.99 z " fill-rule="evenodd" fill="rgb(0,128,0)" stroke-width="5" stroke="rgb(0,0,0)" />
	<path d="M4471.49,1766.48 4047.23,2190.74 4471.49,2615.01 4895.76,2190.74 4471.49,1766.48 z " fill-rule="evenodd" fill="rgb(0,128,0)" stroke-width="5" stroke="rgb(0,0,0)" />
	<path d="M5757.01,3052 5332.75,3476.26 5757.01,3900.53 6181.28,3476.26 5757.01,3052 z " fill-rule="evenodd" fill="rgb(0,128,0)" stroke-width="5" stroke="rgb(0,0,0)" />
	<path d="M5757.01,3909.01 5332.75,4333.28 5757.01,4757.54 6181.28,4333.28 5757.01,3909.01 z " fill-rule="evenodd" fill="rgb(0,128,0)" stroke-width="5" stroke="rgb(0,0,0)" />
	<path d="M6185.52,1766.48 5761.26,2190.74 6185.52,2615.01 6609.78,2190.74 6185.52,1766.48 z " fill-rule="evenodd" fill="rgb(0,128,0)" stroke-width="5" stroke="rgb(0,0,0)" />
	<path d="M6185.52,2623.49 5761.26,3047.76 6185.52,3472.02 6609.78,3047.76 6185.52,2623.49 z " fill-rule="evenodd" fill="rgb(0,128,0)" stroke-width="5" stroke="rgb(0,0,0)" />
	<path d="M4042.99,1337.97 3618.72,1762.24 4042.99,2186.5 4467.25,1762.24 4042.99,1337.97 z " fill-rule="evenodd" fill="rgb(0,128,0)" stroke-width="5" stroke="rgb(0,0,0)" />
	<path d="M3614.48,1766.48 3190.22,2190.74 3614.48,2615.01 4038.74,2190.74 3614.48,1766.48 z " fill-rule="evenodd" fill="rgb(0,128,0)" stroke-width="5" stroke="rgb(0,0,0)" />
	<path d="M6185.52,3480.51 5761.26,3904.77 6185.52,4329.03 6609.78,3904.77 6185.52,3480.51 z " fill-rule="evenodd" fill="rgb(0,128,0)" stroke-width="5" stroke="rgb(0,0,0)" />
	<path d="M6185.52,4337.52 5761.26,4761.78 6185.52,5186.05 6609.78,4761.78 6185.52,4337.52 z " fill-rule="evenodd" fill="rgb(0,128,0)" stroke-width="5" stroke="rgb(0,0,0)" />
	<path d="M6614.03,2194.99 6189.76,2619.25 6614.03,3043.51 7038.29,2619.25 6614.03,2194.99 z " fill-rule="evenodd" fill="rgb(0,128,0)" stroke-width="5" stroke="rgb(0,0,0)" />
	<path d="M6614.03,3052 6189.76,3476.26 6614.03,3900.53 7038.29,3476.26 6614.03,3052 z " fill-rule="evenodd" fill="rgb(0,128,0)" stroke-width="5" stroke="rgb(0,0,0)" />
	<path d="M6614.03,3909.01 6189.76,4333.28 6614.03,4757.54 7038.29,4333.28 6614.03,3909.01 z " fill-rule="evenodd" fill="rgb(0,128,0)" stroke-width="5" stroke="rgb(0,0,0)" />
	<path d="M7042.53,2623.49 6618.27,3047.76 7042.53,3472.02 7466.8,3047.76 7042.53,2623.49 z " fill-rule="evenodd" fill="rgb(0,128,0)" stroke-width="5" stroke="rgb(0,0,0)" />
	<path d="M7042.53,3480.51 6618.27,3904.77 7042.53,4329.03 7466.8,3904.77 7042.53,3480.51 z " fill-rule="evenodd" fill="rgb(0,128,0)" stroke-width="5" stroke="rgb(0,0,0)" />
	<path d="M2757.47,1766.48 2333.2,2190.74 2757.47,2615.01 3181.73,2190.74 2757.47,1766.48 z " fill-rule="evenodd" fill="rgb(0,128,0)" stroke-width="5" stroke="rgb(0,0,0)" />
	<path d="M7042.53,4337.52 6618.27,4761.78 7042.53,5186.05 7466.8,4761.78 7042.53,4337.52 z " fill-rule="evenodd" fill="rgb(0,128,0)" stroke-width="5" stroke="rgb(0,0,0)" />
	<path d="M7471.04,3052 7046.78,3476.26 7471.04,3900.53 7895.3,3476.26 7471.04,3052 z " fill-rule="evenodd" fill="rgb(0,128,0)" stroke-width="5" stroke="rgb(0,0,0)" />
	<path d="M7471.04,3909.01 7046.78,4333.28 7471.04,4757.54 7895.3,4333.28 7471.04,3909.01 z " fill-rule="evenodd" fill="rgb(0,128,0)" stroke-width="5" stroke="rgb(0,0,0)" />
	<path d="M2328.96,2194.99 1904.7,2619.25 2328.96,3043.51 2753.22,2619.25 2328.96,2194.99 z " fill-rule="evenodd" fill="rgb(0,128,0)" stroke-width="5" stroke="rgb(0,0,0)" />
	<path d="M2328.96,3052 1904.7,3476.26 2328.96,3900.53 2753.22,3476.26 2328.96,3052 z " fill-rule="evenodd" fill="rgb(0,128,0)" stroke-width="5" stroke="rgb(0,0,0)" />
	<path d="M2328.96,3909.01 1904.7,4333.28 2328.96,4757.54 2753.22,4333.28 2328.96,3909.01 z " fill-rule="evenodd" fill="rgb(0,128,0)" stroke-width="5" stroke="rgb(0,0,0)" />
	<path d="M2328.96,4766.03 1904.7,5190.29 2328.96,5614.55 2753.22,5190.29 2328.96,4766.03 z " fill-rule="evenodd" fill="rgb(0,128,0)" stroke-width="5" stroke="rgb(0,0,0)" />
	<path d="M2328.96,5623.04 1904.7,6047.3 2328.96,6471.57 2753.22,6047.3 2328.96,5623.04 z " fill-rule="evenodd" fill="rgb(0,128,0)" stroke-width="5" stroke="rgb(0,0,0)" />
	<path d="M7899.55,2623.49 7475.28,3047.76 7899.55,3472.02 8323.81,3047.76 7899.55,2623.49 z " fill-rule="evenodd" fill="rgb(0,128,0)" stroke-width="5" stroke="rgb(0,0,0)" />
	<path d="M7899.55,3480.51 7475.28,3904.77 7899.55,4329.03 8323.81,3904.77 7899.55,3480.51 z " fill-rule="evenodd" fill="rgb(0,128,0)" stroke-width="5" stroke="rgb(0,0,0)" />
	<path d="M7899.55,4337.52 7475.28,4761.78 7899.55,5186.05 8323.81,4761.78 7899.55,4337.52 z " fill-rule="evenodd" fill="rgb(0,128,0)" stroke-width="5" stroke="rgb(0,0,0)" />
	<path d="M1900.45,1766.48 1476.19,2190.74 1900.45,2615.01 2324.72,2190.74 1900.45,1766.48 z " fill-rule="evenodd" fill="rgb(0,128,0)" stroke-width="5" stroke="rgb(0,0,0)" />
	<path d="M1900.45,3480.51 1476.19,3904.77 1900.45,4329.03 2324.72,3904.77 1900.45,3480.51 z " fill-rule="evenodd" fill="rgb(0,128,0)" stroke-width="5" stroke="rgb(0,0,0)" />
	<path d="M1900.45,4337.52 1476.19,4761.78 1900.45,5186.05 2324.72,4761.78 1900.45,4337.52 z " fill-rule="evenodd" fill="rgb(0,128,0)" stroke-width="5" stroke="rgb(0,0,0)" />
	<path d="M1900.45,5194.53 1476.19,5618.8 1900.45,6043.06 2324.72,5618.8 1900.45,5194.53 z " fill-rule="evenodd" fill="rgb(0,128,0)" stroke-width="5" stroke="rgb(0,0,0)" />
	<path d="M1900.45,6051.55 1476.19,6475.81 1900.45,6900.08 2324.72,6475.81 1900.45,6051.55 z " fill-rule="evenodd" fill="rgb(0,128,0)" stroke-width="5" stroke="rgb(0,0,0)" />
	<path d="M1471.95,3909.01 1047.68,4333.28 1471.95,4757.54 1896.21,4333.28 1471.95,3909.01 z " fill-rule="evenodd" fill="rgb(0,128,0)" stroke-width="5" stroke="rgb(0,0,0)" />
	<path d="M1471.95,4766.03 1047.68,5190.29 1471.95,5614.55 1896.21,5190.29 1471.95,4766.03 z " fill-rule="evenodd" fill="rgb(0,128,0)" stroke-width="5" stroke="rgb(0,0,0)" />
	<path d="M1471.95,5623.04 1047.68,6047.3 1471.95,6471.57 1896.21,6047.3 1471.95,5623.04 z " fill-rule="evenodd" fill="rgb(0,128,0)" stroke-width="5" stroke="rgb(0,0,0)" />
	<path d="M1043.44,1766.48 619.176,2190.74 1043.44,2615.01 1467.7,2190.74 1043.44,1766.48 z " fill-rule="evenodd" fill="rgb(0,128,0)" stroke-width="5" stroke="rgb(0,0,0)" />
	<path d="M1043.44,3480.51 619.176,3904.77 1043.44,4329.03 1467.7,3904.77 1043.44,3480.51 z " fill-rule="evenodd" fill="rgb(0,128,0)" stroke-width="5" stroke="rgb(0,0,0)" />
	<path d="M1043.44,4337.52 619.176,4761.78 1043.44,5186.05 1467.7,4761.78 1043.44,4337.52 z " fill-rule="evenodd" fill="rgb(0,128,0)" stroke-width="5" stroke="rgb(0,0,0)" />
	<path d="M1043.44,5194.53 619.176,5618.8 1043.44,6043.06 1467.7,5618.8 1043.44,5194.53 z " fill-rule="evenodd" fill="rgb(0,128,0)" stroke-width="5" stroke="rgb(0,0,0)" />
	<path d="M1043.44,6051.55 619.176,6475.81 1043.44,6900.08 1467.7,6475.81 1043.44,6051.55 z " fill-rule="evenodd" fill="rgb(0,128,0)" stroke-width="5" stroke="rgb(0,0,0)" />
	<path d="M614.933,3909.01 190.669,4333.28 614.933,4757.54 1039.2,4333.28 614.933,3909.01 z " fill-rule="evenodd" fill="rgb(0,128,0)" stroke-width="5" stroke="rgb(0,0,0)" />
	<path d="M614.933,4766.03 190.669,5190.29 614.933,5614.55 1039.2,5190.29 614.933,4766.03 z " fill-rule="evenodd" fill="rgb(0,128,0)" stroke-width="5" stroke="rgb(0,0,0)" />
	<path d="M614.933,5623.04 190.669,6047.3 614.933,6471.57 1039.2,6047.3 614.933,5623.04 z " fill-rule="evenodd" fill="rgb(0,128,0)" stroke-width="5" stroke="rgb(0,0,0)" />
	<path d="M4475.74,2619.25 4900,2194.99 5324.26,2619.25 4991.51,2952 4900,2952 4900,3043.51 4475.74,2619.25 z " fill-rule="evenodd" fill="rgb(255,0,0)" stroke-width="5" stroke="rgb(0,0,0)" />
	<path d="M4471.49,2623.49 4895.76,3047.76 4471.49,3472.02 4051.47,3052 4200,3052 4200,2952 4142.99,2952 4471.49,2623.49 z " fill-rule="evenodd" fill="rgb(255,0,0)" stroke-width="5" stroke="rgb(0,0,0)" />
	<path d="M5328.51,2623.49 5752.77,3047.76 5328.51,3472.02 5050,3193.51 5050,2952 5000,2952 5328.51,2623.49 z " fill-rule="evenodd" fill="rgb(255,0,0)" stroke-width="5" stroke="rgb(0,0,0)" />
	<path d="M4908.49,3052 4950,3052 4950,3093.51 4908.49,3052 z " fill-rule="evenodd" fill="rgb(255,0,0)" stroke-width="5" stroke="rgb(0,0,0)" />
	<path d="M4900,3900.53 4475.74,3476.26 4900,3052 4950,3102 4950,3850.53 4900,3900.53 z " fill-rule="evenodd" fill="rgb(255,0,0)" stroke-width="5" stroke="rgb(0,0,0)" />
	<path d="M5324.26,3476.26 5050,3750.53 5050,3202 5324.26,3476.26 z " fill-rule="evenodd" fill="rgb(255,0,0)" stroke-width="5" stroke="rgb(0,0,0)" />
	<path d="M5328.51,3480.51 5752.77,3904.77 5328.51,4329.03 5050,4050.53 5050,3759.01 5328.51,3480.51 z " fill-rule="evenodd" fill="rgb(255,0,0)" stroke-width="5" stroke="rgb(0,0,0)" />
	<path d="M4904.24,3904.77 4950,3859.01 4950,3950.53 4904.24,3904.77 z " fill-rule="evenodd" fill="rgb(255,0,0)" stroke-width="5" stroke="rgb(0,0,0)" />
	<path d="M4900,4757.54 4475.74,4333.28 4900,3909.01 4950,3959.01 4950,4707.54 4900,4757.54 z " fill-rule="evenodd" fill="rgb(255,0,0)" stroke-width="5" stroke="rgb(0,0,0)" />
	<path d="M5324.26,4333.28 5050,4607.54 5050,4059.01 5324.26,4333.28 z " fill-rule="evenodd" fill="rgb(255,0,0)" stroke-width="5" stroke="rgb(0,0,0)" />
	<path d="M4047.23,4761.78 4471.49,4337.52 4895.76,4761.78 4705.54,4952 4237.45,4952 4047.23,4761.78 z " fill-rule="evenodd" fill="rgb(255,0,0)" stroke-width="5" stroke="rgb(0,0,0)" />
	<path d="M5328.51,1757.99 4904.24,1333.73 4986.27,1251.7 5589.76,1496.74 5328.51,1757.99 z " fill-rule="evenodd" fill="rgb(255,0,0)" stroke-width="5" stroke="rgb(0,0,0)" />
	<path d="M6181.28,1762.24 5757.01,2186.5 5332.75,1762.24 5595.8,1499.19 6138.65,1719.61 6181.28,1762.24 z " fill-rule="evenodd" fill="rgb(255,0,0)" stroke-width="5" stroke="rgb(0,0,0)" />
	<path d="M3618.72,2619.25 4042.99,2194.99 4467.25,2619.25 4134.5,2952 3951.47,2952 3618.72,2619.25 z " fill-rule="evenodd" fill="rgb(255,0,0)" stroke-width="5" stroke="rgb(0,0,0)" />
	<path d="M4042.99,3052 4467.25,3476.26 4042.99,3900.53 3700,3557.54 3700,3394.99 4042.99,3052 z " fill-rule="evenodd" fill="rgb(255,0,0)" stroke-width="5" stroke="rgb(0,0,0)" />
	<path d="M4042.99,3909.01 4467.25,4333.28 4042.99,4757.54 3700,4414.55 3700,4252 4042.99,3909.01 z " fill-rule="evenodd" fill="rgb(255,0,0)" stroke-width="5" stroke="rgb(0,0,0)" />
	<path d="M4042.99,4766.03 4228.96,4952 3857.01,4952 4042.99,4766.03 z " fill-rule="evenodd" fill="rgb(255,0,0)" stroke-width="5" stroke="rgb(0,0,0)" />
	<path d="M5328.51,4337.52 5752.77,4761.78 5328.51,5186.05 5050,4907.54 5050,4616.03 5328.51,4337.52 z " fill-rule="evenodd" fill="rgb(255,0,0)" stroke-width="5" stroke="rgb(0,0,0)" />
	<path d="M4904.24,4761.78 4950,4716.03 4950,4807.54 4904.24,4761.78 z " fill-rule="evenodd" fill="rgb(255,0,0)" stroke-width="5" stroke="rgb(0,0,0)" />
	<path d="M4900,4766.03 4950,4816.03 4950,4952 4714.03,4952 4900,4766.03 z " fill-rule="evenodd" fill="rgb(255,0,0)" stroke-width="5" stroke="rgb(0,0,0)" />
	<path d="M5324.26,5190.29 5050,5464.55 5050,4916.03 5324.26,5190.29 z " fill-rule="evenodd" fill="rgb(255,0,0)" stroke-width="5" stroke="rgb(0,0,0)" />
	<path d="M4900,1329.49 4710.07,1139.55 4980.24,1249.25 4900,1329.49 z " fill-rule="evenodd" fill="rgb(255,0,0)" stroke-width="5" stroke="rgb(0,0,0)" />
	<path d="M4895.76,1333.73 4471.49,1757.99 4047.23,1333.73 4376.75,1004.21 4695.78,1133.75 4895.76,1333.73 z " fill-rule="evenodd" fill="rgb(255,0,0)" stroke-width="5" stroke="rgb(0,0,0)" />
	<path d="M6185.52,1757.99 6152.93,1725.41 6199.29,1744.23 6185.52,1757.99 z " fill-rule="evenodd" fill="rgb(255,0,0)" stroke-width="5" stroke="rgb(0,0,0)" />
	<path d="M3614.48,2623.49 3942.99,2952 3285.97,2952 3614.48,2623.49 z " fill-rule="evenodd" fill="rgb(255,0,0)" stroke-width="5" stroke="rgb(0,0,0)" />
	<path d="M3700,3386.5 3700,3052 4034.5,3052 3700,3386.5 z " fill-rule="evenodd" fill="rgb(255,0,0)" stroke-width="5" stroke="rgb(0,0,0)" />
	<path d="M4038.74,3904.77 3700,4243.51 3700,3566.03 4038.74,3904.77 z " fill-rule="evenodd" fill="rgb(255,0,0)" stroke-width="5" stroke="rgb(0,0,0)" />
	<path d="M4038.74,4761.78 3848.53,4952 3700,4952 3700,4423.04 4038.74,4761.78 z " fill-rule="evenodd" fill="rgb(255,0,0)" stroke-width="5" stroke="rgb(0,0,0)" />
	<path d="M5332.75,5190.29 5757.01,4766.03 6181.28,5190.29 5819.57,5552 5694.46,5552 5332.75,5190.29 z " fill-rule="evenodd" fill="rgb(255,0,0)" stroke-width="5" stroke="rgb(0,0,0)" />
	<path d="M5328.51,5194.53 5685.97,5552 5050,5552 5050,5473.04 5328.51,5194.53 z " fill-rule="evenodd" fill="rgb(255,0,0)" stroke-width="5" stroke="rgb(0,0,0)" />
	<path d="M4042.99,1329.49 3618.72,905.224 3767.22,756.726 4370.71,1001.76 4042.99,1329.49 z " fill-rule="evenodd" fill="rgb(255,0,0)" stroke-width="5" stroke="rgb(0,0,0)" />
	<path d="M6614.03,2186.5 6189.76,1762.24 6205.32,1746.68 6808.81,1991.72 6614.03,2186.5 z " fill-rule="evenodd" fill="rgb(255,0,0)" stroke-width="5" stroke="rgb(0,0,0)" />
	<path d="M3614.48,909.466 4038.74,1333.73 3614.48,1757.99 3236.87,1380.38 3300.52,1223.43 3614.48,909.466 z " fill-rule="evenodd" fill="rgb(255,0,0)" stroke-width="5" stroke="rgb(0,0,0)" />
	<path d="M3119.63,1404.32 3080,1502 3021.95,1502 3119.63,1404.32 z " fill-rule="evenodd" fill="rgb(255,0,0)" stroke-width="5" stroke="rgb(0,0,0)" />
	<path d="M3610.24,1762.24 3185.97,2186.5 2761.71,1762.24 2950,1573.95 2950,1602 3147,1602 3234.42,1386.42 3610.24,1762.24 z " fill-rule="evenodd" fill="rgb(255,0,0)" stroke-width="5" stroke="rgb(0,0,0)" />
	<path d="M2761.71,2619.25 3185.97,2194.99 3610.24,2619.25 3277.49,2952 3094.46,2952 2761.71,2619.25 z " fill-rule="evenodd" fill="rgb(255,0,0)" stroke-width="5" stroke="rgb(0,0,0)" />
	<path d="M2761.71,3476.26 2900,3337.97 2900,3614.55 2761.71,3476.26 z " fill-rule="evenodd" fill="rgb(255,0,0)" stroke-width="5" stroke="rgb(0,0,0)" />
	<path d="M2761.71,4333.28 2900,4194.99 2900,4471.57 2761.71,4333.28 z " fill-rule="evenodd" fill="rgb(255,0,0)" stroke-width="5" stroke="rgb(0,0,0)" />
	<path d="M2761.71,5190.29 2900,5052 2900,5328.58 2761.71,5190.29 z " fill-rule="evenodd" fill="rgb(255,0,0)" stroke-width="5" stroke="rgb(0,0,0)" />
	<path d="M2761.71,6047.3 2900,5909.01 2900,6052 3100,6052 3100,6385.6 2761.71,6047.3 z " fill-rule="evenodd" fill="rgb(255,0,0)" stroke-width="5" stroke="rgb(0,0,0)" />
	<path d="M6189.76,5190.29 6614.03,4766.03 7038.29,5190.29 6676.58,5552 6551.47,5552 6189.76,5190.29 z " fill-rule="evenodd" fill="rgb(255,0,0)" stroke-width="5" stroke="rgb(0,0,0)" />
	<path d="M6185.52,5194.53 6542.99,5552 5828.05,5552 6185.52,5194.53 z " fill-rule="evenodd" fill="rgb(255,0,0)" stroke-width="5" stroke="rgb(0,0,0)" />
	<path d="M3266.24,552.74 3437,622 3407.71,694.208 3266.24,552.74 z " fill-rule="evenodd" fill="rgb(255,0,0)" stroke-width="5" stroke="rgb(0,0,0)" />
	<path d="M3614.48,900.981 3484.13,770.636 3529,660 3761.19,754.275 3614.48,900.981 z " fill-rule="evenodd" fill="rgb(255,0,0)" stroke-width="5" stroke="rgb(0,0,0)" />
	<path d="M7042.53,2615.01 6618.27,2190.74 6814.85,1994.17 7418.34,2239.2 7042.53,2615.01 z " fill-rule="evenodd" fill="rgb(255,0,0)" stroke-width="5" stroke="rgb(0,0,0)" />
	<path d="M2761.71,905.224 3158.07,508.866 3251.96,546.95 3405.26,700.244 3160.37,1303.89 2761.71,905.224 z " fill-rule="evenodd" fill="rgb(255,0,0)" stroke-width="5" stroke="rgb(0,0,0)" />
	<path d="M3610.24,905.224 3306.31,1209.15 3481.69,776.673 3610.24,905.224 z " fill-rule="evenodd" fill="rgb(255,0,0)" stroke-width="5" stroke="rgb(0,0,0)" />
	<path d="M2757.47,1757.99 2333.2,1333.73 2757.47,909.466 3157.92,1309.92 3125.42,1390.04 3013.46,1502 2950,1502 2950,1565.46 2757.47,1757.99 z " fill-rule="evenodd" fill="rgb(255,0,0)" stroke-width="5" stroke="rgb(0,0,0)" />
	<path d="M2757.47,3472.02 2333.2,3047.76 2757.47,2623.49 3085.97,2952 2850,2952 2850,3152 2900,3152 2900,3329.49 2757.47,3472.02 z " fill-rule="evenodd" fill="rgb(255,0,0)" stroke-width="5" stroke="rgb(0,0,0)" />
	<path d="M2757.47,4329.03 2333.2,3904.77 2757.47,3480.51 2900,3623.04 2900,4186.5 2757.47,4329.03 z " fill-rule="evenodd" fill="rgb(255,0,0)" stroke-width="5" stroke="rgb(0,0,0)" />
	<path d="M2757.47,5186.05 2333.2,4761.78 2757.47,4337.52 2900,4480.05 2900,5043.51 2757.47,5186.05 z " fill-rule="evenodd" fill="rgb(255,0,0)" stroke-width="5" stroke="rgb(0,0,0)" />
	<path d="M2757.47,6043.06 2333.2,5618.8 2757.47,5194.53 2900,5337.07 2900,5900.53 2757.47,6043.06 z " fill-rule="evenodd" fill="rgb(255,0,0)" stroke-width="5" stroke="rgb(0,0,0)" />
	<path d="M2757.47,6900.08 2333.2,6475.81 2757.47,6051.55 3100,6394.08 3100,6557.54 2757.47,6900.08 z " fill-rule="evenodd" fill="rgb(255,0,0)" stroke-width="5" stroke="rgb(0,0,0)" />
	<path d="M2761.71,6904.32 3100,6566.03 3100,6852 2900,6852 2900,6952 2809.39,6952 2761.71,6904.32 z " fill-rule="evenodd" fill="rgb(255,0,0)" stroke-width="5" stroke="rgb(0,0,0)" />
	<path d="M2757.47,6908.56 2800.91,6952 2714.03,6952 2757.47,6908.56 z " fill-rule="evenodd" fill="rgb(255,0,0)" stroke-width="5" stroke="rgb(0,0,0)" />
	<path d="M7042.53,5194.53 7400,5552 6685.07,5552 7042.53,5194.53 z " fill-rule="evenodd" fill="rgb(255,0,0)" stroke-width="5" stroke="rgb(0,0,0)" />
	<path d="M7895.3,2619.25 7471.04,3043.51 7046.78,2619.25 7424.37,2241.65 7581.51,2305.46 7895.3,2619.25 z " fill-rule="evenodd" fill="rgb(255,0,0)" stroke-width="5" stroke="rgb(0,0,0)" />
	<path d="M2757.47,900.981 2333.2,476.717 2548.35,261.569 3152.03,506.418 2757.47,900.981 z " fill-rule="evenodd" fill="rgb(255,0,0)" stroke-width="5" stroke="rgb(0,0,0)" />
	<path d="M2328.96,480.96 2753.22,905.224 2328.96,1329.49 2150,1150.53 2150,659.919 2328.96,480.96 z " fill-rule="evenodd" fill="rgb(255,0,0)" stroke-width="5" stroke="rgb(0,0,0)" />
	<path d="M2328.96,1337.97 2753.22,1762.24 2328.96,2186.5 1904.7,1762.24 2064.93,1602 2150,1602 2150,1516.93 2328.96,1337.97 z " fill-rule="evenodd" fill="rgb(255,0,0)" stroke-width="5" stroke="rgb(0,0,0)" />
	<path d="M1904.7,6904.32 2328.96,6480.05 2753.22,6904.32 2705.54,6952 1952.38,6952 1904.7,6904.32 z " fill-rule="evenodd" fill="rgb(255,0,0)" stroke-width="5" stroke="rgb(0,0,0)" />
	<path d="M7046.78,5190.29 7471.04,4766.03 7895.3,5190.29 7533.6,5552 7408.49,5552 7046.78,5190.29 z " fill-rule="evenodd" fill="rgb(255,0,0)" stroke-width="5" stroke="rgb(0,0,0)" />
	<path d="M7899.55,2615.01 7595.8,2311.26 8027.86,2486.69 7899.55,2615.01 z " fill-rule="evenodd" fill="rgb(255,0,0)" stroke-width="5" stroke="rgb(0,0,0)" />
	<path d="M2328.96,472.474 2150,293.515 2150,100 2542.31,259.12 2328.96,472.474 z " fill-rule="evenodd" fill="rgb(255,0,0)" stroke-width="5" stroke="rgb(0,0,0)" />
	<path d="M2324.72,476.717 2150,651.434 2150,302 2324.72,476.717 z " fill-rule="evenodd" fill="rgb(255,0,0)" stroke-width="5" stroke="rgb(0,0,0)" />
	<path d="M1900.45,1757.99 1744.46,1602 2056.45,1602 1900.45,1757.99 z " fill-rule="evenodd" fill="rgb(255,0,0)" stroke-width="5" stroke="rgb(0,0,0)" />
	<path d="M2324.72,1333.73 2150,1508.45 2150,1159.01 2324.72,1333.73 z " fill-rule="evenodd" fill="rgb(255,0,0)" stroke-width="5" stroke="rgb(0,0,0)" />
	<path d="M1900.45,2623.49 2324.72,3047.76 1900.45,3472.02 1580.43,3152 2050,3152 2050,2952 1571.95,2952 1900.45,2623.49 z " fill-rule="evenodd" fill="rgb(255,0,0)" stroke-width="5" stroke="rgb(0,0,0)" />
	<path d="M1900.45,6908.56 1943.89,6952 1857.01,6952 1900.45,6908.56 z " fill-rule="evenodd" fill="rgb(255,0,0)" stroke-width="5" stroke="rgb(0,0,0)" />
	<path d="M7899.55,5194.53 8257.01,5552 7542.08,5552 7899.55,5194.53 z " fill-rule="evenodd" fill="rgb(255,0,0)" stroke-width="5" stroke="rgb(0,0,0)" />
	<path d="M8328.05,3043.51 7903.79,2619.25 8033.9,2489.14 8600,2719 8600,2771.57 8328.05,3043.51 z " fill-rule="evenodd" fill="rgb(255,0,0)" stroke-width="5" stroke="rgb(0,0,0)" />
	<path d="M8328.05,3900.53 7903.79,3476.26 8328.05,3052 8600,3323.95 8600,3628.58 8328.05,3900.53 z " fill-rule="evenodd" fill="rgb(255,0,0)" stroke-width="5" stroke="rgb(0,0,0)" />
	<path d="M8328.05,4757.54 7903.79,4333.28 8328.05,3909.01 8600,4180.96 8600,4485.6 8328.05,4757.54 z " fill-rule="evenodd" fill="rgb(255,0,0)" stroke-width="5" stroke="rgb(0,0,0)" />
	<path d="M7903.79,5190.29 8328.05,4766.03 8600,5037.97 8600,5342.61 8390.61,5552 8265.5,5552 7903.79,5190.29 z " fill-rule="evenodd" fill="rgb(255,0,0)" stroke-width="5" stroke="rgb(0,0,0)" />
	<path d="M1896.21,1762.24 1471.95,2186.5 1047.68,1762.24 1307.92,1502 1400,1502 1400,1602 1735.97,1602 1896.21,1762.24 z " fill-rule="evenodd" fill="rgb(255,0,0)" stroke-width="5" stroke="rgb(0,0,0)" />
	<path d="M1047.68,2619.25 1471.95,2194.99 1896.21,2619.25 1563.46,2952 1380.43,2952 1047.68,2619.25 z " fill-rule="evenodd" fill="rgb(255,0,0)" stroke-width="5" stroke="rgb(0,0,0)" />
	<path d="M1896.21,3476.26 1471.95,3900.53 1047.68,3476.26 1371.95,3152 1571.95,3152 1896.21,3476.26 z " fill-rule="evenodd" fill="rgb(255,0,0)" stroke-width="5" stroke="rgb(0,0,0)" />
	<path d="M1047.68,6904.32 1471.95,6480.05 1896.21,6904.32 1848.53,6952 1095.36,6952 1047.68,6904.32 z " fill-rule="evenodd" fill="rgb(255,0,0)" stroke-width="5" stroke="rgb(0,0,0)" />
	<path d="M8332.3,3047.76 8600,2780.05 8600,3315.46 8332.3,3047.76 z " fill-rule="evenodd" fill="rgb(255,0,0)" stroke-width="5" stroke="rgb(0,0,0)" />
	<path d="M8332.3,3904.77 8600,3637.07 8600,4172.47 8332.3,3904.77 z " fill-rule="evenodd" fill="rgb(255,0,0)" stroke-width="5" stroke="rgb(0,0,0)" />
	<path d="M8332.3,4761.78 8600,4494.08 8600,5029.49 8332.3,4761.78 z " fill-rule="evenodd" fill="rgb(255,0,0)" stroke-width="5" stroke="rgb(0,0,0)" />
	<path d="M8600,5351.09 8600,5552 8399.09,5552 8600,5351.09 z " fill-rule="evenodd" fill="rgb(255,0,0)" stroke-width="5" stroke="rgb(0,0,0)" />
	<path d="M1043.44,1757.99 787.445,1502 1299.43,1502 1043.44,1757.99 z " fill-rule="evenodd" fill="rgb(255,0,0)" stroke-width="5" stroke="rgb(0,0,0)" />
	<path d="M1043.44,2623.49 1371.95,2952 714.933,2952 1043.44,2623.49 z " fill-rule="evenodd" fill="rgb(255,0,0)" stroke-width="5" stroke="rgb(0,0,0)" />
	<path d="M1043.44,3472.02 723.418,3152 1363.46,3152 1043.44,3472.02 z " fill-rule="evenodd" fill="rgb(255,0,0)" stroke-width="5" stroke="rgb(0,0,0)" />
	<path d="M1043.44,6908.56 1086.88,6952 1000,6952 1043.44,6908.56 z " fill-rule="evenodd" fill="rgb(255,0,0)" stroke-width="5" stroke="rgb(0,0,0)" />
	<path d="M1039.2,1762.24 614.933,2186.5 190.669,1762.24 350.906,1602 700,1602 700,1502 778.96,1502 1039.2,1762.24 z " fill-rule="evenodd" fill="rgb(255,0,0)" stroke-width="5" stroke="rgb(0,0,0)" />
	<path d="M190.669,2619.25 614.933,2194.99 1039.2,2619.25 706.448,2952 523.418,2952 190.669,2619.25 z " fill-rule="evenodd" fill="rgb(255,0,0)" stroke-width="5" stroke="rgb(0,0,0)" />
	<path d="M1039.2,3476.26 614.933,3900.53 190.669,3476.26 514.933,3152 714.933,3152 1039.2,3476.26 z " fill-rule="evenodd" fill="rgb(255,0,0)" stroke-width="5" stroke="rgb(0,0,0)" />
	<path d="M190.669,6904.32 614.933,6480.05 1039.2,6904.32 991.515,6952 238.351,6952 190.669,6904.32 z " fill-rule="evenodd" fill="rgb(255,0,0)" stroke-width="5" stroke="rgb(0,0,0)" />
	<path d="M186.426,1757.99 100,1671.57 100,1602 342.421,1602 186.426,1757.99 z " fill-rule="evenodd" fill="rgb(255,0,0)" stroke-width="5" stroke="rgb(0,0,0)" />
	<path d="M186.426,1766.48 610.69,2190.74 186.426,2615.01 100,2528.58 100,1852.91 186.426,1766.48 z " fill-rule="evenodd" fill="rgb(255,0,0)" stroke-width="5" stroke="rgb(0,0,0)" />
	<path d="M186.426,2623.49 514.933,2952 100,2952 100,2709.92 186.426,2623.49 z " fill-rule="evenodd" fill="rgb(255,0,0)" stroke-width="5" stroke="rgb(0,0,0)" />
	<path d="M186.426,3472.02 100,3385.6 100,3152 506.448,3152 186.426,3472.02 z " fill-rule="evenodd" fill="rgb(255,0,0)" stroke-width="5" stroke="rgb(0,0,0)" />
	<path d="M186.426,3480.51 610.69,3904.77 186.426,4329.03 100,4242.61 100,3566.93 186.426,3480.51 z " fill-rule="evenodd" fill="rgb(255,0,0)" stroke-width="5" stroke="rgb(0,0,0)" />
	<path d="M186.426,4337.52 610.69,4761.78 186.426,5186.05 100,5099.62 100,4423.95 186.426,4337.52 z " fill-rule="evenodd" fill="rgb(255,0,0)" stroke-width="5" stroke="rgb(0,0,0)" />
	<path d="M186.426,5194.53 610.69,5618.8 186.426,6043.06 100,5956.64 100,5280.96 186.426,5194.53 z " fill-rule="evenodd" fill="rgb(255,0,0)" stroke-width="5" stroke="rgb(0,0,0)" />
	<path d="M186.426,6051.55 610.69,6475.81 186.426,6900.08 100,6813.65 100,6137.97 186.426,6051.55 z " fill-rule="evenodd" fill="rgb(255,0,0)" stroke-width="5" stroke="rgb(0,0,0)" />
	<path d="M186.426,6908.56 229.866,6952 142.987,6952 186.426,6908.56 z " fill-rule="evenodd" fill="rgb(255,0,0)" stroke-width="5" stroke="rgb(0,0,0)" />
	<path d="M182.184,1762.24 100,1844.42 100,1680.05 182.184,1762.24 z " fill-rule="evenodd" fill="rgb(255,0,0)" stroke-width="5" stroke="rgb(0,0,0)" />
	<path d="M182.184,2619.25 100,2701.43 100,2537.07 182.184,2619.25 z " fill-rule="evenodd" fill="rgb(255,0,0)" stroke-width="5" stroke="rgb(0,0,0)" />
	<path d="M182.184,3476.26 100,3558.45 100,3394.08 182.184,3476.26 z " fill-rule="evenodd" fill="rgb(255,0,0)" stroke-width="5" stroke="rgb(0,0,0)" />
	<path d="M182.184,4333.28 100,4415.46 100,4251.09 182.184,4333.28 z " fill-rule="evenodd" fill="rgb(255,0,0)" stroke-width="5" stroke="rgb(0,0,0)" />
	<path d="M182.184,5190.29 100,5272.47 100,5108.11 182.184,5190.29 z " fill-rule="evenodd" fill="rgb(255,0,0)" stroke-width="5" stroke="rgb(0,0,0)" />
	<path d="M182.184,6047.3 100,6129.49 100,5965.12 182.184,6047.3 z " fill-rule="evenodd" fill="rgb(255,0,0)" stroke-width="5" stroke="rgb(0,0,0)" />
	<path d="M182.184,6904.32 134.501,6952 100,6952 100,6822.13 182.184,6904.32 z " fill-rule="evenodd" fill="rgb(255,0,0)" stroke-width="5" stroke="rgb(0,0,0)" />
	<polyline points="4895,3057 4470.74,3481.26 4895,3057 5319.26,3481.26 4895,3057 " fill="none" stroke-width="100" stroke="rgb(0,0,0)" />
	<circle cx="4895" cy="3057" r="-7.07107" fill="rgb(0,0,0)" />
	<circle cx="4470.74" cy="3481.26" r="-7.07107" fill="rgb(0,0,0)" />
	<circle cx="4895" cy="3057" r="-7.07107" fill="rgb(0,0,0)" />
	<circle cx="5319.26" cy="3481.26" r="-7.07107" fill="rgb(0,0,0)" />
	<circle cx="4895" cy="3057" r="-7.07107" fill="rgb(0,0,0)" />
	<polyline points="4895,3523.69 4895,3057 3961.62,3057 " fill="none" stroke-width="0.5" stroke="rgb(128,0,128)" />
</svg>
