<?xml version="1.0" standalone="no" ?>
<!DOCTYPE svg PUBLIC "-//W3C//DTD SVG 1.1//EN" "http://www.w3.org/Graphics/SVG/1.1/DTD/svg11.dtd">
<svg width="1600px" height="31120px" xmlns="http://www.w3.org/2000/svg" version="1.1" >
	<path d="M100,31020 700,31020 700,30420 100,30420 z " fill-rule="evenodd" fill="rgb(255,255,255)" stroke-width="10" stroke="rgb(0,0,0)" />
	<path d="M100,30360 700,30360 700,29760 100,29760 z " fill-rule="evenodd" fill="rgb(255,255,255)" stroke-width="10" stroke="rgb(0,0,0)" />
	<path d="M100,29700 700,29700 700,29100 100,29100 z " fill-rule="evenodd" fill="rgb(255,255,255)" stroke-width="10" stroke="rgb(0,0,0)" />
	<path d="M100,29040 700,29040 700,28440 100,28440 z " fill-rule="evenodd" fill="rgb(255,255,255)" stroke-width="10" stroke="rgb(0,0,0)" />
	<path d="M100,28380 700,28380 700,27780 100,27780 z " fill-rule="evenodd" fill="rgb(255,255,255)" stroke-width="10" stroke="rgb(0,0,0)" />
	<path d="M100,27720 700,27720 700,27120 100,27120 z " fill-rule="evenodd" fill="rgb(255,255,255)" stroke-width="10" stroke="rgb(0,0,0)" />
	<path d="M100,27060 700,27060 700,26460 100,26460 z " fill-rule="evenodd" fill="rgb(255,255,255)" stroke-width="10" stroke="rgb(0,0,0)" />
	<path d="M100,26400 700,26400 700,25800 100,25800 z " fill-rule="evenodd" fill="rgb(255,255,255)" stroke-width="10" stroke="rgb(0,0,0)" />
	<path d="M100,25740 700,25740 700,25140 100,25140 z " fill-rule="evenodd" fill="rgb(255,255,255)" stroke-width="10" stroke="rgb(0,0,0)" />
	<path d="M100,25080 700,25080 700,24480 100,24480 z " fill-rule="evenodd" fill="rgb(255,255,255)" stroke-width="10" stroke="rgb(0,0,0)" />
	<path d="M100,24420 700,24420 700,23820 100,23820 z " fill-rule="evenodd" fill="rgb(255,255,255)" stroke-width="10" stroke="rgb(0,0,0)" />
	<path d="M100,23760 700,23760 700,23160 100,23160 z " fill-rule="evenodd" fill="rgb(255,255,255)" stroke-width="10" stroke="rgb(0,0,0)" />
	<path d="M100,23100 700,23100 700,22500 100,22500 z " fill-rule="evenodd" fill="rgb(255,255,255)" stroke-width="10" stroke="rgb(0,0,0)" />
	<path d="M100,22440 700,22440 700,21840 100,21840 z " fill-rule="evenodd" fill="rgb(255,255,255)" stroke-width="10" stroke="rgb(0,0,0)" />
	<path d="M100,21780 700,21780 700,21180 100,21180 z " fill-rule="evenodd" fill="rgb(255,255,255)" stroke-width="10" stroke="rgb(0,0,0)" />
	<path d="M100,21120 700,21120 700,20520 100,20520 z " fill-rule="evenodd" fill="rgb(255,255,255)" stroke-width="10" stroke="rgb(0,0,0)" />
	<path d="M100,20460 700,20460 700,19860 100,19860 z " fill-rule="evenodd" fill="rgb(255,255,255)" stroke-width="10" stroke="rgb(0,0,0)" />
	<path d="M100,19800 700,19800 700,19200 100,19200 z " fill-rule="evenodd" fill="rgb(255,255,255)" stroke-width="10" stroke="rgb(0,0,0)" />
	<path d="M100,19140 700,19140 700,18540 100,18540 z " fill-rule="evenodd" fill="rgb(255,255,255)" stroke-width="10" stroke="rgb(0,0,0)" />
	<path d="M100,18480 700,18480 700,17880 100,17880 z " fill-rule="evenodd" fill="rgb(255,255,255)" stroke-width="10" stroke="rgb(0,0,0)" />
	<path d="M100,17820 700,17820 700,17220 100,17220 z " fill-rule="evenodd" fill="rgb(255,255,255)" stroke-width="10" stroke="rgb(0,0,0)" />
	<path d="M100,17160 700,17160 700,16560 100,16560 z " fill-rule="evenodd" fill="rgb(255,255,255)" stroke-width="10" stroke="rgb(0,0,0)" />
	<path d="M100,16500 700,16500 700,15900 100,15900 z " fill-rule="evenodd" fill="rgb(255,255,255)" stroke-width="10" stroke="rgb(0,0,0)" />
	<path d="M100,15840 700,15840 700,15240 100,15240 z " fill-rule="evenodd" fill="rgb(255,255,255)" stroke-width="10" stroke="rgb(0,0,0)" />
	<path d="M100,15180 700,15180 700,14580 100,14580 z " fill-rule="evenodd" fill="rgb(255,255,255)" stroke-width="10" stroke="rgb(0,0,0)" />
	<path d="M100,14520 700,14520 700,13920 100,13920 z " fill-rule="evenodd" fill="rgb(255,255,255)" stroke-width="10" stroke="rgb(0,0,0)" />
	<path d="M100,13860 700,13860 700,13260 100,13260 z " fill-rule="evenodd" fill="rgb(255,255,255)" stroke-width="10" stroke="rgb(0,0,0)" />
	<path d="M100,13200 700,13200 700,12600 100,12600 z " fill-rule="evenodd" fill="rgb(255,255,255)" stroke-width="10" stroke="rgb(0,0,0)" />
	<path d="M100,12540 700,12540 700,11940 100,11940 z " fill-rule="evenodd" fill="rgb(255,255,255)" stroke-width="10" stroke="rgb(0,0,0)" />
	<path d="M100,11880 700,11880 700,11280 100,11280 z " fill-rule="evenodd" fill="rgb(255,255,255)" stroke-width="10" stroke="rgb(0,0,0)" />
	<path d="M100,11220 700,11220 700,10620 100,10620 z " fill-rule="evenodd" fill="rgb(255,255,255)" stroke-width="10" stroke="rgb(0,0,0)" />
	<path d="M100,10560 700,10560 700,9960 100,9960 z " fill-rule="evenodd" fill="rgb(255,255,255)" stroke-width="10" stroke="rgb(0,0,0)" />
	<path d="M100,9900 700,9900 700,9300 100,9300 z " fill-rule="evenodd" fill="rgb(255,255,255)" stroke-width="10" stroke="rgb(0,0,0)" />
	<path d="M100,9240 700,9240 700,8640 100,8640 z " fill-rule="evenodd" fill="rgb(255,255,255)" stroke-width="10" stroke="rgb(0,0,0)" />
	<path d="M100,8580 700,8580 700,7980 100,7980 z " fill-rule="evenodd" fill="rgb(255,255,255)" stroke-width="10" stroke="rgb(0,0,0)" />
	<path d="M100,7920 700,7920 700,7320 100,7320 z " fill-rule="evenodd" fill="rgb(255,255,255)" stroke-width="10" stroke="rgb(0,0,0)" />
	<path d="M100,7260 700,7260 700,6660 100,6660 z " fill-rule="evenodd" fill="rgb(255,255,255)" stroke-width="10" stroke="rgb(0,0,0)" />
	<path d="M100,6600 700,6600 700,6000 100,6000 z " fill-rule="evenodd" fill="rgb(255,255,255)" stroke-width="10" stroke="rgb(0,0,0)" />
	<path d="M100,5940 700,5940 700,5340 100,5340 z " fill-rule="evenodd" fill="rgb(255,255,255)" stroke-width="10" stroke="rgb(0,0,0)" />
	<path d="M100,5280 700,5280 700,4680 100,4680 z " fill-rule="evenodd" fill="rgb(255,255,255)" stroke-width="10" stroke="rgb(0,0,0)" />
	<path d="M100,4620 700,4620 700,4020 100,4020 z " fill-rule="evenodd" fill="rgb(255,255,255)" stroke-width="10" stroke="rgb(0,0,0)" />
	<path d="M100,3960 700,3960 700,3360 100,3360 z " fill-rule="evenodd" fill="rgb(255,255,255)" stroke-width="10" stroke="rgb(0,0,0)" />
	<path d="M100,3300 700,3300 700,2700 100,2700 z " fill-rule="evenodd" fill="rgb(255,255,255)" stroke-width="10" stroke="rgb(0,0,0)" />
	<path d="M100,2640 700,2640 700,2040 100,2040 z " fill-rule="evenodd" fill="rgb(255,255,255)" stroke-width="10" stroke="rgb(0,0,0)" />
	<path d="M100,1980 700,1980 700,1380 100,1380 z " fill-rule="evenodd" fill="rgb(255,255,255)" stroke-width="10" stroke="rgb(0,0,0)" />
	<path d="M100,1320 700,1320 700,720 100,720 z " fill-rule="evenodd" fill="rgb(255,255,255)" stroke-width="10" stroke="rgb(0,0,0)" />
	<path d="M100,660 700,660 700,60 100,60 z " fill-rule="evenodd" fill="rgb(255,255,255)" stroke-width="10" stroke="rgb(0,0,0)" />
	<path d="M100,3360 700,3360 700,3960 241.421,3960 281.736,3919.69 211.025,3848.97 100,3960 100,3360 z " fill-rule="evenodd" fill="rgb(255,0,0)" stroke-width="10" stroke="rgb(0,0,0)" />
	<path d="M700,31020 100,31020 100,30420 106,30420 170.711,30484.7 206.066,30449.4 700,30943.3 700,31020 z " fill-rule="evenodd" fill="rgb(255,0,0)" stroke-width="10" stroke="rgb(0,0,0)" />
	<path d="M689.441,29760 689.441,30141.9 307.573,29760 689.441,29760 z " fill-rule="evenodd" fill="rgb(255,0,0)" stroke-width="10" stroke="rgb(0,0,0)" />
	<path d="M100,2700 700,2700 700,3300 312.132,3300 206.066,3193.93 100,3300 100,2700 z " fill-rule="evenodd" fill="rgb(255,0,0)" stroke-width="10" stroke="rgb(0,0,0)" />
	<path d="M647.754,29700 481.937,29534.2 647.754,29368.4 647.754,29700 z " fill-rule="evenodd" fill="rgb(255,0,0)" stroke-width="10" stroke="rgb(0,0,0)" />
	<path d="M100,28440 700,28440 100,29040 100,28440 z " fill-rule="evenodd" fill="rgb(255,0,0)" stroke-width="10" stroke="rgb(0,0,0)" />
	<path d="M700,27780 700,28380 220.944,28380 100,28259.1 100,27915.4 235.421,27780 700,27780 z " fill-rule="evenodd" fill="rgb(255,0,0)" stroke-width="10" stroke="rgb(0,0,0)" />
	<path d="M575.138,27720 575.138,27649.3 645.848,27720 575.138,27720 z " fill-rule="evenodd" fill="rgb(255,0,0)" stroke-width="10" stroke="rgb(0,0,0)" />
	<path d="M100,26460 700,26460 700,27060 312.132,27060 100,26847.9 100,26460 z " fill-rule="evenodd" fill="rgb(255,0,0)" stroke-width="10" stroke="rgb(0,0,0)" />
	<path d="M700,25800 700,26400 100,26400 100,25866.6 257.604,25800 700,25800 z " fill-rule="evenodd" fill="rgb(255,0,0)" stroke-width="10" stroke="rgb(0,0,0)" />
	<path d="M700,25140 700,25740 100,25740 100,25507.4 235.821,25371.6 306.532,25442.3 608.812,25140 700,25140 z " fill-rule="evenodd" fill="rgb(255,0,0)" stroke-width="10" stroke="rgb(0,0,0)" />
	<path d="M100,2040 700,2040 700,2640 100,2640 100,2548.81 230.862,2417.95 100,2287.09 100,2040 z " fill-rule="evenodd" fill="rgb(255,0,0)" stroke-width="10" stroke="rgb(0,0,0)" />
	<path d="M700,1380 700,1980 100,1980 100,1380 103.681,1380 211.761,1635.63 119.837,1727.55 190.548,1798.26 329.848,1658.96 211.857,1380 700,1380 z " fill-rule="evenodd" fill="rgb(255,0,0)" stroke-width="10" stroke="rgb(0,0,0)" />
	<path d="M700,1320 100,1320 100,720 700,720 468.431,951.569 609.852,1092.99 645.208,1057.63 700,1112.43 700,1320 z " fill-rule="evenodd" fill="rgb(255,0,0)" stroke-width="10" stroke="rgb(0,0,0)" />
	<path d="M110.559,27060 110.559,26858.4 312.132,27060 110.559,27060 z " fill-rule="evenodd" fill="rgb(255,0,0)" stroke-width="10" stroke="rgb(0,0,0)" />
	<path d="M689.281,24480 689.281,24953.1 216.225,24480 689.281,24480 z " fill-rule="evenodd" fill="rgb(255,0,0)" stroke-width="10" stroke="rgb(0,0,0)" />
	<path d="M100,23820 700,23820 700,24420 220.944,24420 100,24299.1 100,23820 z " fill-rule="evenodd" fill="rgb(255,0,0)" stroke-width="10" stroke="rgb(0,0,0)" />
	<path d="M700,23760 100,23760 100,23160 176.711,23160 700,23683.3 700,23760 z " fill-rule="evenodd" fill="rgb(255,0,0)" stroke-width="10" stroke="rgb(0,0,0)" />
	<path d="M598.093,22500 598.093,22881.9 216.225,22500 598.093,22500 z " fill-rule="evenodd" fill="rgb(255,0,0)" stroke-width="10" stroke="rgb(0,0,0)" />
	<path d="M700,22440 100,22440 100,22162.6 700,21909.1 700,22440 z " fill-rule="evenodd" fill="rgb(255,0,0)" stroke-width="10" stroke="rgb(0,0,0)" />
	<path d="M700,21780 100,21780 100,21180 490.59,21180 700,21389.4 700,21780 z " fill-rule="evenodd" fill="rgb(255,0,0)" stroke-width="10" stroke="rgb(0,0,0)" />
	<path d="M587.111,21120 158.918,21120 587.111,20939.1 587.111,21120 z " fill-rule="evenodd" fill="rgb(255,0,0)" stroke-width="10" stroke="rgb(0,0,0)" />
	<path d="M700,20460 100,20460 100,20276.6 700,20023.1 700,20460 z " fill-rule="evenodd" fill="rgb(255,0,0)" stroke-width="10" stroke="rgb(0,0,0)" />
	<path d="M700,19200 700,19800 100,19800 100,19360.6 480.126,19200 700,19200 z " fill-rule="evenodd" fill="rgb(255,0,0)" stroke-width="10" stroke="rgb(0,0,0)" />
	<path d="M700,19140 100,19140 100,18540 490.59,18540 700,18749.4 700,19140 z " fill-rule="evenodd" fill="rgb(255,0,0)" stroke-width="10" stroke="rgb(0,0,0)" />
	<path d="M107.837,18480 107.837,18095.4 492.427,18480 107.837,18480 z " fill-rule="evenodd" fill="rgb(255,0,0)" stroke-width="10" stroke="rgb(0,0,0)" />
	<path d="M185.188,8725.59 100,8725.59 185.188,8640.4 185.188,8725.59 z " fill-rule="evenodd" fill="rgb(255,0,0)" stroke-width="10" stroke="rgb(0,0,0)" />
	<path d="M100,29700 100,29100 700,29100 700,29191.2 382.443,29508.7 453.153,29579.5 332.61,29700 100,29700 z " fill-rule="evenodd" fill="rgb(255,0,0)" stroke-width="10" stroke="rgb(0,0,0)" />
	<path d="M649.767,17820 423.157,17820 649.767,17593.4 649.767,17820 z " fill-rule="evenodd" fill="rgb(255,0,0)" stroke-width="10" stroke="rgb(0,0,0)" />
	<path d="M100,8640.4 185.188,8640.4 100,8725.59 100,8640.4 z " fill-rule="evenodd" fill="rgb(255,0,0)" stroke-width="10" stroke="rgb(0,0,0)" />
	<path d="M588.175,16560 588.175,16801.1 347.087,16560 588.175,16560 z " fill-rule="evenodd" fill="rgb(255,0,0)" stroke-width="10" stroke="rgb(0,0,0)" />
	<path d="M100,60 700,60 700,660 382.843,660 650.167,392.676 508.746,251.254 100,660 100,60 z " fill-rule="evenodd" fill="rgb(255,0,0)" stroke-width="10" stroke="rgb(0,0,0)" />
	<path d="M102.707,8640.4 100,8640.4 102.707,8639.26 102.707,8640.4 z " fill-rule="evenodd" fill="rgb(255,0,0)" stroke-width="10" stroke="rgb(0,0,0)" />
	<path d="M100,15900 700,15900 700,16500 209.319,16500 100,16241.5 100,15900 z " fill-rule="evenodd" fill="rgb(255,0,0)" stroke-width="10" stroke="rgb(0,0,0)" />
	<path d="M100,17880 700,17880 700,18480 492.427,18480 100,18087.6 100,17880 z " fill-rule="evenodd" fill="rgb(255,0,0)" stroke-width="10" stroke="rgb(0,0,0)" />
	<path d="M100,21120 100,20520 700,20520 700,20891.4 158.918,21120 100,21120 z " fill-rule="evenodd" fill="rgb(255,0,0)" stroke-width="10" stroke="rgb(0,0,0)" />
	<path d="M100,21887.7 700,21887.7 700,21909.1 100,22162.6 100,21887.7 z " fill-rule="evenodd" fill="rgb(255,0,0)" stroke-width="10" stroke="rgb(0,0,0)" />
	<path d="M110.559,15840 110.559,15638.4 312.132,15840 110.559,15840 z " fill-rule="evenodd" fill="rgb(255,0,0)" stroke-width="10" stroke="rgb(0,0,0)" />
	<path d="M689.281,14580 689.281,14984.4 654.967,15018.7 216.225,14580 689.281,14580 z " fill-rule="evenodd" fill="rgb(255,0,0)" stroke-width="10" stroke="rgb(0,0,0)" />
	<path d="M100,27720 100,27120 700,27120 700,27524.4 504.427,27720 100,27720 z " fill-rule="evenodd" fill="rgb(255,0,0)" stroke-width="10" stroke="rgb(0,0,0)" />
	<path d="M138.874,14520 138.874,14449.3 209.584,14520 138.874,14520 z " fill-rule="evenodd" fill="rgb(255,0,0)" stroke-width="10" stroke="rgb(0,0,0)" />
	<path d="M100,15240 700,15240 700,15840 312.132,15840 100,15627.9 100,15240 z " fill-rule="evenodd" fill="rgb(255,0,0)" stroke-width="10" stroke="rgb(0,0,0)" />
	<path d="M107.837,13860 107.837,13475.4 492.427,13860 107.837,13860 z " fill-rule="evenodd" fill="rgb(255,0,0)" stroke-width="10" stroke="rgb(0,0,0)" />
	<path d="M305.671,11521.9 100,11521.9 305.671,11435 305.671,11521.9 z " fill-rule="evenodd" fill="rgb(255,0,0)" stroke-width="10" stroke="rgb(0,0,0)" />
	<path d="M700,13200 100,13200 100,13110.6 700,12857.1 700,13200 z " fill-rule="evenodd" fill="rgb(255,0,0)" stroke-width="10" stroke="rgb(0,0,0)" />
	<path d="M199.185,12540 199.185,12194.6 226.724,12182.9 583.775,12540 199.185,12540 z " fill-rule="evenodd" fill="rgb(255,0,0)" stroke-width="10" stroke="rgb(0,0,0)" />
	<path d="M104.586,16500 104.586,16389.8 205.293,16490.5 195.775,16500 104.586,16500 z " fill-rule="evenodd" fill="rgb(255,0,0)" stroke-width="10" stroke="rgb(0,0,0)" />
	<path d="M700,23100 100,23100 100,22500 216.225,22500 700,22983.8 700,23100 z " fill-rule="evenodd" fill="rgb(255,0,0)" stroke-width="10" stroke="rgb(0,0,0)" />
	<path d="M700,17160 100,17160 100,16560 347.087,16560 700,16912.9 700,17160 z " fill-rule="evenodd" fill="rgb(255,0,0)" stroke-width="10" stroke="rgb(0,0,0)" />
	<path d="M659.045,11880 341.887,11880 659.045,11562.8 659.045,11880 z " fill-rule="evenodd" fill="rgb(255,0,0)" stroke-width="10" stroke="rgb(0,0,0)" />
	<path d="M700,29040 100,29040 700,28440 700,29040 z " fill-rule="evenodd" fill="rgb(255,0,0)" stroke-width="10" stroke="rgb(0,0,0)" />
	<path d="M700,10620 700,11220 100,11220 100,10896.8 376.843,10620 700,10620 z " fill-rule="evenodd" fill="rgb(255,0,0)" stroke-width="10" stroke="rgb(0,0,0)" />
	<path d="M700,10560 100,10560 100,10094.1 417.057,9960 453.466,9960 700,10543.1 700,10560 z " fill-rule="evenodd" fill="rgb(255,0,0)" stroke-width="10" stroke="rgb(0,0,0)" />
	<path d="M606.765,9572.65 606.765,9900 468.308,9572.65 606.765,9572.65 z " fill-rule="evenodd" fill="rgb(255,0,0)" stroke-width="10" stroke="rgb(0,0,0)" />
	<path d="M100,19907.7 700,19907.7 700,20023.1 100,20276.6 100,19907.7 z " fill-rule="evenodd" fill="rgb(255,0,0)" stroke-width="10" stroke="rgb(0,0,0)" />
	<path d="M212.889,25818.9 168.174,25818.9 212.889,25800 212.889,25818.9 z " fill-rule="evenodd" fill="rgb(255,0,0)" stroke-width="10" stroke="rgb(0,0,0)" />
	<path d="M100,13260 700,13260 700,13860 492.427,13860 100,13467.6 100,13260 z " fill-rule="evenodd" fill="rgb(255,0,0)" stroke-width="10" stroke="rgb(0,0,0)" />
	<path d="M692.163,21180 692.163,21381.6 490.59,21180 692.163,21180 z " fill-rule="evenodd" fill="rgb(255,0,0)" stroke-width="10" stroke="rgb(0,0,0)" />
	<path d="M175.029,8725.59 573.456,8725.59 175.029,9124.02 175.029,8725.59 z " fill-rule="evenodd" fill="rgb(255,0,0)" stroke-width="10" stroke="rgb(0,0,0)" />
	<path d="M598.093,7980 598.093,8361.87 216.225,7980 598.093,7980 z " fill-rule="evenodd" fill="rgb(255,0,0)" stroke-width="10" stroke="rgb(0,0,0)" />
	<path d="M260.618,7320 337.328,7320 498.187,7480.86 260.618,7718.43 260.618,7320 z " fill-rule="evenodd" fill="rgb(255,0,0)" stroke-width="10" stroke="rgb(0,0,0)" />
	<path d="M700,7260 100,7260 100,6660 490.59,6660 700,6869.41 700,7260 z " fill-rule="evenodd" fill="rgb(255,0,0)" stroke-width="10" stroke="rgb(0,0,0)" />
	<path d="M110.719,24420 110.719,24309.8 220.944,24420 110.719,24420 z " fill-rule="evenodd" fill="rgb(255,0,0)" stroke-width="10" stroke="rgb(0,0,0)" />
	<path d="M620.012,6600 503.786,6600 403.32,6499.53 620.012,6282.84 620.012,6600 z " fill-rule="evenodd" fill="rgb(255,0,0)" stroke-width="10" stroke="rgb(0,0,0)" />
	<path d="M100,11521.9 700,11521.9 341.887,11880 100,11638.1 100,11521.9 z " fill-rule="evenodd" fill="rgb(255,0,0)" stroke-width="10" stroke="rgb(0,0,0)" />
	<path d="M694.554,9960 694.554,10201.1 453.466,9960 694.554,9960 z " fill-rule="evenodd" fill="rgb(255,0,0)" stroke-width="10" stroke="rgb(0,0,0)" />
	<path d="M100,12647.2 700,12647.2 700,12856.9 100,13110.6 100,12647.2 z " fill-rule="evenodd" fill="rgb(255,0,0)" stroke-width="10" stroke="rgb(0,0,0)" />
	<path d="M100,17820 100,17220 700,17220 700,17543.2 423.157,17820 100,17820 z " fill-rule="evenodd" fill="rgb(255,0,0)" stroke-width="10" stroke="rgb(0,0,0)" />
	<path d="M100,21852.7 116.699,21845.7 119.684,21852.7 100,21852.7 z " fill-rule="evenodd" fill="rgb(255,0,0)" stroke-width="10" stroke="rgb(0,0,0)" />
	<path d="M212.889,19200 353.884,19200 373.021,19245.2 212.889,19312.9 212.889,19200 z " fill-rule="evenodd" fill="rgb(255,0,0)" stroke-width="10" stroke="rgb(0,0,0)" />
	<path d="M700,30360 100,30360 100,29760 307.573,29760 700,30152.4 700,30360 z " fill-rule="evenodd" fill="rgb(255,0,0)" stroke-width="10" stroke="rgb(0,0,0)" />
	<path d="M700,9240 100,9240 100,9199.04 573.456,8725.59 700,8852.13 700,9240 z " fill-rule="evenodd" fill="rgb(255,0,0)" stroke-width="10" stroke="rgb(0,0,0)" />
	<path d="M700,7320 700,7920 100,7920 100,7879.04 659.045,7320 700,7320 z " fill-rule="evenodd" fill="rgb(255,0,0)" stroke-width="10" stroke="rgb(0,0,0)" />
	<path d="M100,5940 100,5340 700,5340 700,5380.96 140.955,5940 100,5940 z " fill-rule="evenodd" fill="rgb(255,0,0)" stroke-width="10" stroke="rgb(0,0,0)" />
	<path d="M100,9900 100,9300 700,9300 700,9340.96 140.955,9900 100,9900 z " fill-rule="evenodd" fill="rgb(255,0,0)" stroke-width="10" stroke="rgb(0,0,0)" />
	<path d="M566.501,5555.41 566.501,5940 353.728,5727.23 525.545,5555.41 566.501,5555.41 z " fill-rule="evenodd" fill="rgb(255,0,0)" stroke-width="10" stroke="rgb(0,0,0)" />
	<path d="M110.719,28380 110.719,28269.8 220.944,28380 110.719,28380 z " fill-rule="evenodd" fill="rgb(255,0,0)" stroke-width="10" stroke="rgb(0,0,0)" />
	<path d="M694.191,5280 447.104,5280 374.979,5207.88 694.191,5072.88 694.191,5280 z " fill-rule="evenodd" fill="rgb(255,0,0)" stroke-width="10" stroke="rgb(0,0,0)" />
	<path d="M700,8580 100,8580 100,7980 216.225,7980 700,8463.77 700,8580 z " fill-rule="evenodd" fill="rgb(255,0,0)" stroke-width="10" stroke="rgb(0,0,0)" />
	<path d="M661.126,23160 661.126,23361.6 489.309,23189.8 347.887,23331.2 176.711,23160 661.126,23160 z " fill-rule="evenodd" fill="rgb(255,0,0)" stroke-width="10" stroke="rgb(0,0,0)" />
	<path d="M100,21852.7 134.955,21852.7 100,21887.7 100,21852.7 z " fill-rule="evenodd" fill="rgb(255,0,0)" stroke-width="10" stroke="rgb(0,0,0)" />
	<path d="M134.955,21852.7 169.911,21852.7 134.955,21887.7 134.955,21852.7 z " fill-rule="evenodd" fill="rgb(255,0,0)" stroke-width="10" stroke="rgb(0,0,0)" />
	<path d="M169.911,21887.7 134.955,21887.7 169.911,21852.7 169.911,21887.7 z " fill-rule="evenodd" fill="rgb(255,0,0)" stroke-width="10" stroke="rgb(0,0,0)" />
	<path d="M134.955,21887.7 100,21887.7 134.955,21852.7 134.955,21887.7 z " fill-rule="evenodd" fill="rgb(255,0,0)" stroke-width="10" stroke="rgb(0,0,0)" />
	<path d="M600.815,6660 600.815,6770.23 490.59,6660 600.815,6660 z " fill-rule="evenodd" fill="rgb(255,0,0)" stroke-width="10" stroke="rgb(0,0,0)" />
	<path d="M100,11940 700,11940 700,12540 583.775,12540 100,12056.2 100,11940 z " fill-rule="evenodd" fill="rgb(255,0,0)" stroke-width="10" stroke="rgb(0,0,0)" />
	<path d="M100,13920 700,13920 700,14520 209.584,14520 100,14410.4 100,13920 z " fill-rule="evenodd" fill="rgb(255,0,0)" stroke-width="10" stroke="rgb(0,0,0)" />
	<path d="M600.815,18540 600.815,18650.2 490.59,18540 600.815,18540 z " fill-rule="evenodd" fill="rgb(255,0,0)" stroke-width="10" stroke="rgb(0,0,0)" />
	<path d="M700,15180 100,15180 100,14580 216.225,14580 700,15063.8 700,15180 z " fill-rule="evenodd" fill="rgb(255,0,0)" stroke-width="10" stroke="rgb(0,0,0)" />
	<path d="M100,5280 100,4680 700,4680 700,4882.85 302.854,5280 100,5280 z " fill-rule="evenodd" fill="rgb(255,0,0)" stroke-width="10" stroke="rgb(0,0,0)" />
	<path d="M100,6600 100,6000 700,6000 700,6202.85 302.854,6600 100,6600 z " fill-rule="evenodd" fill="rgb(255,0,0)" stroke-width="10" stroke="rgb(0,0,0)" />
	<path d="M661.126,30420 661.126,30904.4 388.202,30631.5 529.623,30490.1 459.553,30420 661.126,30420 z " fill-rule="evenodd" fill="rgb(255,0,0)" stroke-width="10" stroke="rgb(0,0,0)" />
	<path d="M415.896,11411.7 415.896,11521.9 305.671,11411.7 415.896,11411.7 z " fill-rule="evenodd" fill="rgb(255,0,0)" stroke-width="10" stroke="rgb(0,0,0)" />
	<path d="M700,25080 100,25080 100,24480 216.225,24480 700,24963.8 700,25080 z " fill-rule="evenodd" fill="rgb(255,0,0)" stroke-width="10" stroke="rgb(0,0,0)" />
	<path d="M100,4620 100,4020 700,4020 700,4222.85 302.854,4620 100,4620 z " fill-rule="evenodd" fill="rgb(255,0,0)" stroke-width="10" stroke="rgb(0,0,0)" />
	<path d="M179.988,10620 376.843,10620 179.988,10816.9 179.988,10620 z " fill-rule="evenodd" fill="rgb(255,0,0)" stroke-width="10" stroke="rgb(0,0,0)" />
	<path d="M499.708,4423.15 696.563,4423.15 499.708,4620 499.708,4423.15 z " fill-rule="evenodd" fill="rgb(255,0,0)" stroke-width="10" stroke="rgb(0,0,0)" />
	<path d="M291.737,25140 488.591,25140 291.737,25336.9 291.737,25140 z " fill-rule="evenodd" fill="rgb(255,0,0)" stroke-width="10" stroke="rgb(0,0,0)" />
	<path d="M305.671,11521.9 305.671,11411.7 415.896,11521.9 305.671,11521.9 z " fill-rule="evenodd" fill="rgb(255,0,0)" stroke-width="10" stroke="rgb(0,0,0)" />
	<path d="M100,11348.3 296.854,11348.3 140.315,11504.9 100,11464.5 100,11348.3 z " fill-rule="evenodd" fill="rgb(255,0,0)" stroke-width="10" stroke="rgb(0,0,0)" />
</svg>
