<?xml version="1.0" standalone="no" ?>
<!DOCTYPE svg PUBLIC "-//W3C//DTD SVG 1.1//EN" "http://www.w3.org/Graphics/SVG/1.1/DTD/svg11.dtd">
<svg width="8700px" height="7052px" xmlns="http://www.w3.org/2000/svg" version="1.1" >
	<path d="M3614.48,2523.49 4038.74,2947.76 4463.01,2523.49 4038.74,2099.23 3614.48,2523.49 z " fill-rule="evenodd" fill="rgb(0,128,0)" stroke-width="5" stroke="rgb(0,0,0)" />
	<path d="M4471.49,2523.49 4895.76,2947.76 5320.02,2523.49 4895.76,2099.23 4471.49,2523.49 z " fill-rule="evenodd" fill="rgb(0,128,0)" stroke-width="5" stroke="rgb(0,0,0)" />
	<path d="M5328.51,3380.51 5752.77,3804.77 6177.03,3380.51 5752.77,2956.24 5328.51,3380.51 z " fill-rule="evenodd" fill="rgb(0,128,0)" stroke-width="5" stroke="rgb(0,0,0)" />
	<path d="M5328.51,2523.49 5752.77,2947.76 6177.03,2523.49 5752.77,2099.23 5328.51,2523.49 z " fill-rule="evenodd" fill="rgb(0,128,0)" stroke-width="5" stroke="rgb(0,0,0)" />
	<path d="M5757.01,2952 6181.28,3376.26 6605.54,2952 6181.28,2527.74 5757.01,2952 z " fill-rule="evenodd" fill="rgb(0,128,0)" stroke-width="5" stroke="rgb(0,0,0)" />
	<path d="M6185.52,3380.51 6609.78,3804.77 7034.05,3380.51 6609.78,2956.24 6185.52,3380.51 z " fill-rule="evenodd" fill="rgb(0,128,0)" stroke-width="5" stroke="rgb(0,0,0)" />
	<path d="M2328.96,2094.99 2753.22,2519.25 3177.49,2094.99 2753.22,1670.72 2328.96,2094.99 z " fill-rule="evenodd" fill="rgb(0,128,0)" stroke-width="5" stroke="rgb(0,0,0)" />
	<path d="M2757.47,2523.49 3181.73,2947.76 3605.99,2523.49 3181.73,2099.23 2757.47,2523.49 z " fill-rule="evenodd" fill="rgb(0,128,0)" stroke-width="5" stroke="rgb(0,0,0)" />
	<path d="M3185.97,2094.99 3610.24,2519.25 4034.5,2094.99 3610.24,1670.72 3185.97,2094.99 z " fill-rule="evenodd" fill="rgb(0,128,0)" stroke-width="5" stroke="rgb(0,0,0)" />
	<path d="M4042.99,2094.99 4467.25,2519.25 4891.51,2094.99 4467.25,1670.72 4042.99,2094.99 z " fill-rule="evenodd" fill="rgb(0,128,0)" stroke-width="5" stroke="rgb(0,0,0)" />
	<path d="M4042.99,3809.01 4467.25,4233.28 4891.51,3809.01 4467.25,3384.75 4042.99,3809.01 z " fill-rule="evenodd" fill="rgb(0,128,0)" stroke-width="5" stroke="rgb(0,0,0)" />
	<path d="M5757.01,3809.01 6181.28,4233.28 6605.54,3809.01 6181.28,3384.75 5757.01,3809.01 z " fill-rule="evenodd" fill="rgb(0,128,0)" stroke-width="5" stroke="rgb(0,0,0)" />
	<path d="M4900,2094.99 5324.26,2519.25 5748.53,2094.99 5324.26,1670.72 4900,2094.99 z " fill-rule="evenodd" fill="rgb(0,128,0)" stroke-width="5" stroke="rgb(0,0,0)" />
	<path d="M6614.03,3809.01 7038.29,4233.28 7462.55,3809.01 7038.29,3384.75 6614.03,3809.01 z " fill-rule="evenodd" fill="rgb(0,128,0)" stroke-width="5" stroke="rgb(0,0,0)" />
	<path d="M6185.52,2523.49 6609.78,2947.76 7034.05,2523.49 6609.78,2099.23 6185.52,2523.49 z " fill-rule="evenodd" fill="rgb(0,128,0)" stroke-width="5" stroke="rgb(0,0,0)" />
	<path d="M6614.03,2952 7038.29,3376.26 7462.55,2952 7038.29,2527.74 6614.03,2952 z " fill-rule="evenodd" fill="rgb(0,128,0)" stroke-width="5" stroke="rgb(0,0,0)" />
	<path d="M7042.53,3380.51 7466.8,3804.77 7891.06,3380.51 7466.8,2956.24 7042.53,3380.51 z " fill-rule="evenodd" fill="rgb(0,128,0)" stroke-width="5" stroke="rgb(0,0,0)" />
	<path d="M7471.04,3809.01 7895.3,4233.28 8319.57,3809.01 7895.3,3384.75 7471.04,3809.01 z " fill-rule="evenodd" fill="rgb(0,128,0)" stroke-width="5" stroke="rgb(0,0,0)" />
	<path d="M1471.95,2094.99 1896.21,2519.25 2320.47,2094.99 1896.21,1670.72 1471.95,2094.99 z " fill-rule="evenodd" fill="rgb(0,128,0)" stroke-width="5" stroke="rgb(0,0,0)" />
	<path d="M1900.45,2523.49 2324.72,2947.76 2748.98,2523.49 2324.72,2099.23 1900.45,2523.49 z " fill-rule="evenodd" fill="rgb(0,128,0)" stroke-width="5" stroke="rgb(0,0,0)" />
	<path d="M3614.48,1666.48 4038.74,2090.74 4463.01,1666.48 4038.74,1242.22 3614.48,1666.48 z " fill-rule="evenodd" fill="rgb(0,128,0)" stroke-width="5" stroke="rgb(0,0,0)" />
	<path d="M4471.49,1666.48 4895.76,2090.74 5320.02,1666.48 4895.76,1242.22 4471.49,1666.48 z " fill-rule="evenodd" fill="rgb(0,128,0)" stroke-width="5" stroke="rgb(0,0,0)" />
	<path d="M5328.51,4237.52 5752.77,4661.78 6177.03,4237.52 5752.77,3813.26 5328.51,4237.52 z " fill-rule="evenodd" fill="rgb(0,128,0)" stroke-width="5" stroke="rgb(0,0,0)" />
	<path d="M6185.52,4237.52 6609.78,4661.78 7034.05,4237.52 6609.78,3813.26 6185.52,4237.52 z " fill-rule="evenodd" fill="rgb(0,128,0)" stroke-width="5" stroke="rgb(0,0,0)" />
	<path d="M7042.53,4237.52 7466.8,4661.78 7891.06,4237.52 7466.8,3813.26 7042.53,4237.52 z " fill-rule="evenodd" fill="rgb(0,128,0)" stroke-width="5" stroke="rgb(0,0,0)" />
	<path d="M7471.04,2952 7895.3,3376.26 8319.57,2952 7895.3,2527.74 7471.04,2952 z " fill-rule="evenodd" fill="rgb(0,128,0)" stroke-width="5" stroke="rgb(0,0,0)" />
	<path d="M614.933,2094.99 1039.2,2519.25 1463.46,2094.99 1039.2,1670.72 614.933,2094.99 z " fill-rule="evenodd" fill="rgb(0,128,0)" stroke-width="5" stroke="rgb(0,0,0)" />
	<path d="M1043.44,2523.49 1467.7,2947.76 1891.97,2523.49 1467.7,2099.23 1043.44,2523.49 z " fill-rule="evenodd" fill="rgb(0,128,0)" stroke-width="5" stroke="rgb(0,0,0)" />
	<path d="M2328.96,1237.97 2753.22,1662.24 3177.49,1237.97 2753.22,813.709 2328.96,1237.97 z " fill-rule="evenodd" fill="rgb(0,128,0)" stroke-width="5" stroke="rgb(0,0,0)" />
	<path d="M1900.45,3380.51 2324.72,3804.77 2748.98,3380.51 2324.72,2956.24 1900.45,3380.51 z " fill-rule="evenodd" fill="rgb(0,128,0)" stroke-width="5" stroke="rgb(0,0,0)" />
	<path d="M5757.01,4666.03 6181.28,5090.29 6605.54,4666.03 6181.28,4241.76 5757.01,4666.03 z " fill-rule="evenodd" fill="rgb(0,128,0)" stroke-width="5" stroke="rgb(0,0,0)" />
	<path d="M6614.03,4666.03 7038.29,5090.29 7462.55,4666.03 7038.29,4241.76 6614.03,4666.03 z " fill-rule="evenodd" fill="rgb(0,128,0)" stroke-width="5" stroke="rgb(0,0,0)" />
	<path d="M7471.04,4666.03 7895.3,5090.29 8319.57,4666.03 7895.3,4241.76 7471.04,4666.03 z " fill-rule="evenodd" fill="rgb(0,128,0)" stroke-width="5" stroke="rgb(0,0,0)" />
	<path d="M186.426,2523.49 610.69,2947.76 1034.95,2523.49 610.69,2099.23 186.426,2523.49 z " fill-rule="evenodd" fill="rgb(0,128,0)" stroke-width="5" stroke="rgb(0,0,0)" />
	<path d="M1471.95,3809.01 1896.21,4233.28 2320.47,3809.01 1896.21,3384.75 1471.95,3809.01 z " fill-rule="evenodd" fill="rgb(0,128,0)" stroke-width="5" stroke="rgb(0,0,0)" />
	<path d="M1900.45,4237.52 2324.72,4661.78 2748.98,4237.52 2324.72,3813.26 1900.45,4237.52 z " fill-rule="evenodd" fill="rgb(0,128,0)" stroke-width="5" stroke="rgb(0,0,0)" />
	<path d="M5328.51,5094.53 5752.77,5518.8 6177.03,5094.53 5752.77,4670.27 5328.51,5094.53 z " fill-rule="evenodd" fill="rgb(0,128,0)" stroke-width="5" stroke="rgb(0,0,0)" />
	<path d="M6185.52,5094.53 6609.78,5518.8 7034.05,5094.53 6609.78,4670.27 6185.52,5094.53 z " fill-rule="evenodd" fill="rgb(0,128,0)" stroke-width="5" stroke="rgb(0,0,0)" />
	<path d="M7042.53,5094.53 7466.8,5518.8 7891.06,5094.53 7466.8,4670.27 7042.53,5094.53 z " fill-rule="evenodd" fill="rgb(0,128,0)" stroke-width="5" stroke="rgb(0,0,0)" />
	<path d="M614.933,3809.01 1039.2,4233.28 1463.46,3809.01 1039.2,3384.75 614.933,3809.01 z " fill-rule="evenodd" fill="rgb(0,128,0)" stroke-width="5" stroke="rgb(0,0,0)" />
	<path d="M1043.44,4237.52 1467.7,4661.78 1891.97,4237.52 1467.7,3813.26 1043.44,4237.52 z " fill-rule="evenodd" fill="rgb(0,128,0)" stroke-width="5" stroke="rgb(0,0,0)" />
	<path d="M1471.95,4666.03 1896.21,5090.29 2320.47,4666.03 1896.21,4241.76 1471.95,4666.03 z " fill-rule="evenodd" fill="rgb(0,128,0)" stroke-width="5" stroke="rgb(0,0,0)" />
	<path d="M1900.45,5094.53 2324.72,5518.8 2748.98,5094.53 2324.72,4670.27 1900.45,5094.53 z " fill-rule="evenodd" fill="rgb(0,128,0)" stroke-width="5" stroke="rgb(0,0,0)" />
	<path d="M186.426,4237.52 610.69,4661.78 1034.95,4237.52 610.69,3813.26 186.426,4237.52 z " fill-rule="evenodd" fill="rgb(0,128,0)" stroke-width="5" stroke="rgb(0,0,0)" />
	<path d="M614.933,4666.03 1039.2,5090.29 1463.46,4666.03 1039.2,4241.76 614.933,4666.03 z " fill-rule="evenodd" fill="rgb(0,128,0)" stroke-width="5" stroke="rgb(0,0,0)" />
	<path d="M1043.44,5094.53 1467.7,5518.8 1891.97,5094.53 1467.7,4670.27 1043.44,5094.53 z " fill-rule="evenodd" fill="rgb(0,128,0)" stroke-width="5" stroke="rgb(0,0,0)" />
	<path d="M1471.95,5523.04 1896.21,5947.3 2320.47,5523.04 1896.21,5098.78 1471.95,5523.04 z " fill-rule="evenodd" fill="rgb(0,128,0)" stroke-width="5" stroke="rgb(0,0,0)" />
	<path d="M1900.45,5951.55 2324.72,6375.81 2748.98,5951.55 2324.72,5527.28 1900.45,5951.55 z " fill-rule="evenodd" fill="rgb(0,128,0)" stroke-width="5" stroke="rgb(0,0,0)" />
	<path d="M186.426,5094.53 610.69,5518.8 1034.95,5094.53 610.69,4670.27 186.426,5094.53 z " fill-rule="evenodd" fill="rgb(0,128,0)" stroke-width="5" stroke="rgb(0,0,0)" />
	<path d="M614.933,5523.04 1039.2,5947.3 1463.46,5523.04 1039.2,5098.78 614.933,5523.04 z " fill-rule="evenodd" fill="rgb(0,128,0)" stroke-width="5" stroke="rgb(0,0,0)" />
	<path d="M1043.44,5951.55 1467.7,6375.81 1891.97,5951.55 1467.7,5527.28 1043.44,5951.55 z " fill-rule="evenodd" fill="rgb(0,128,0)" stroke-width="5" stroke="rgb(0,0,0)" />
	<path d="M1471.95,6380.05 1896.21,6804.32 2320.47,6380.05 1896.21,5955.79 1471.95,6380.05 z " fill-rule="evenodd" fill="rgb(0,128,0)" stroke-width="5" stroke="rgb(0,0,0)" />
	<path d="M186.426,5951.55 610.69,6375.81 1034.95,5951.55 610.69,5527.28 186.426,5951.55 z " fill-rule="evenodd" fill="rgb(0,128,0)" stroke-width="5" stroke="rgb(0,0,0)" />
	<path d="M614.933,6380.05 1039.2,6804.32 1463.46,6380.05 1039.2,5955.79 614.933,6380.05 z " fill-rule="evenodd" fill="rgb(0,128,0)" stroke-width="5" stroke="rgb(0,0,0)" />
	<path d="M4467.25,2527.74 4891.51,2952 4467.25,3376.26 4142.99,3052 4200,3052 4200,2952 4042.99,2952 4467.25,2527.74 z " fill-rule="evenodd" fill="rgb(255,0,0)" stroke-width="5" stroke="rgb(0,0,0)" />
	<path d="M4895.76,3804.77 4471.49,3380.51 4895.76,2956.24 4900,2960.49 4900,3052 4950,3052 4950,3750.53 4895.76,3804.77 z " fill-rule="evenodd" fill="rgb(255,0,0)" stroke-width="5" stroke="rgb(0,0,0)" />
	<path d="M5320.02,3380.51 5050,3650.53 5050,3110.49 5320.02,3380.51 z " fill-rule="evenodd" fill="rgb(255,0,0)" stroke-width="5" stroke="rgb(0,0,0)" />
	<path d="M5324.26,2527.74 5748.53,2952 5324.26,3376.26 5050,3102 5050,2952 4900,2952 5324.26,2527.74 z " fill-rule="evenodd" fill="rgb(255,0,0)" stroke-width="5" stroke="rgb(0,0,0)" />
	<path d="M3700,3286.5 3700,3052 3934.5,3052 3700,3286.5 z " fill-rule="evenodd" fill="rgb(255,0,0)" stroke-width="5" stroke="rgb(0,0,0)" />
	<path d="M3610.24,2527.74 4034.5,2952 3185.97,2952 3610.24,2527.74 z " fill-rule="evenodd" fill="rgb(255,0,0)" stroke-width="5" stroke="rgb(0,0,0)" />
	<path d="M4463.01,3380.51 4038.74,3804.77 3700,3466.03 3700,3294.99 3942.99,3052 4134.5,3052 4463.01,3380.51 z " fill-rule="evenodd" fill="rgb(255,0,0)" stroke-width="5" stroke="rgb(0,0,0)" />
	<path d="M4900,3809.01 4950,3759.01 4950,3859.01 4900,3809.01 z " fill-rule="evenodd" fill="rgb(255,0,0)" stroke-width="5" stroke="rgb(0,0,0)" />
	<path d="M5324.26,3384.75 5748.53,3809.01 5324.26,4233.28 5050,3959.01 5050,3659.01 5324.26,3384.75 z " fill-rule="evenodd" fill="rgb(255,0,0)" stroke-width="5" stroke="rgb(0,0,0)" />
	<path d="M6605.54,2094.99 6181.28,2519.25 5757.01,2094.99 6134.2,1717.8 6292.72,1782.17 6605.54,2094.99 z " fill-rule="evenodd" fill="rgb(255,0,0)" stroke-width="5" stroke="rgb(0,0,0)" />
	<path d="M1891.97,1666.48 1467.7,2090.74 1043.44,1666.48 1207.92,1502 1400,1502 1400,1602 1827.49,1602 1891.97,1666.48 z " fill-rule="evenodd" fill="rgb(255,0,0)" stroke-width="5" stroke="rgb(0,0,0)" />
	<path d="M2324.72,1242.22 2748.98,1666.48 2324.72,2090.74 1900.45,1666.48 1964.93,1602 2150,1602 2150,1416.93 2324.72,1242.22 z " fill-rule="evenodd" fill="rgb(255,0,0)" stroke-width="5" stroke="rgb(0,0,0)" />
	<path d="M3605.99,1666.48 3181.73,2090.74 2757.47,1666.48 3181.73,1242.22 3184.33,1244.82 3080,1502 2950,1502 2950,1602 3147,1602 3260.83,1321.31 3605.99,1666.48 z " fill-rule="evenodd" fill="rgb(255,0,0)" stroke-width="5" stroke="rgb(0,0,0)" />
	<path d="M2753.22,3376.26 2328.96,2952 2753.22,2527.74 3177.49,2952 2850,2952 2850,3152 2900,3152 2900,3229.49 2753.22,3376.26 z " fill-rule="evenodd" fill="rgb(255,0,0)" stroke-width="5" stroke="rgb(0,0,0)" />
	<path d="M2757.47,3380.51 2900,3237.97 2900,3523.04 2757.47,3380.51 z " fill-rule="evenodd" fill="rgb(255,0,0)" stroke-width="5" stroke="rgb(0,0,0)" />
	<path d="M4034.5,3809.01 3700,4143.51 3700,3474.51 4034.5,3809.01 z " fill-rule="evenodd" fill="rgb(255,0,0)" stroke-width="5" stroke="rgb(0,0,0)" />
	<path d="M4038.74,3813.26 4463.01,4237.52 4038.74,4661.78 3700,4323.04 3700,4152 4038.74,3813.26 z " fill-rule="evenodd" fill="rgb(255,0,0)" stroke-width="5" stroke="rgb(0,0,0)" />
	<path d="M4895.76,4661.78 4471.49,4237.52 4895.76,3813.26 4950,3867.5 4950,4607.54 4895.76,4661.78 z " fill-rule="evenodd" fill="rgb(255,0,0)" stroke-width="5" stroke="rgb(0,0,0)" />
	<path d="M5320.02,4237.52 5050,4507.54 5050,3967.5 5320.02,4237.52 z " fill-rule="evenodd" fill="rgb(255,0,0)" stroke-width="5" stroke="rgb(0,0,0)" />
	<path d="M5752.77,2090.74 5328.51,1666.48 5524.67,1470.31 6128.16,1715.35 5752.77,2090.74 z " fill-rule="evenodd" fill="rgb(255,0,0)" stroke-width="5" stroke="rgb(0,0,0)" />
	<path d="M8323.81,4661.78 7899.55,4237.52 8323.81,3813.26 8600,4089.45 8600,4385.6 8323.81,4661.78 z " fill-rule="evenodd" fill="rgb(255,0,0)" stroke-width="5" stroke="rgb(0,0,0)" />
	<path d="M6609.78,2090.74 6307.01,1787.97 6737.69,1962.84 6609.78,2090.74 z " fill-rule="evenodd" fill="rgb(255,0,0)" stroke-width="5" stroke="rgb(0,0,0)" />
	<path d="M7038.29,2519.25 6614.03,2094.99 6743.72,1965.29 7347.22,2210.33 7038.29,2519.25 z " fill-rule="evenodd" fill="rgb(255,0,0)" stroke-width="5" stroke="rgb(0,0,0)" />
	<path d="M7891.06,2523.49 7466.8,2947.76 7042.53,2523.49 7353.25,2212.78 7735.59,2368.02 7891.06,2523.49 z " fill-rule="evenodd" fill="rgb(255,0,0)" stroke-width="5" stroke="rgb(0,0,0)" />
	<path d="M8323.81,3804.77 7899.55,3380.51 8323.81,2956.24 8600,3232.43 8600,3528.58 8323.81,3804.77 z " fill-rule="evenodd" fill="rgb(255,0,0)" stroke-width="5" stroke="rgb(0,0,0)" />
	<path d="M8328.05,3809.01 8600,3537.07 8600,4080.96 8328.05,3809.01 z " fill-rule="evenodd" fill="rgb(255,0,0)" stroke-width="5" stroke="rgb(0,0,0)" />
	<path d="M182.184,1662.24 121.946,1602 242.421,1602 182.184,1662.24 z " fill-rule="evenodd" fill="rgb(255,0,0)" stroke-width="5" stroke="rgb(0,0,0)" />
	<path d="M1034.95,1666.48 610.69,2090.74 186.426,1666.48 250.906,1602 700,1602 700,1502 870.474,1502 1034.95,1666.48 z " fill-rule="evenodd" fill="rgb(255,0,0)" stroke-width="5" stroke="rgb(0,0,0)" />
	<path d="M1039.2,1662.24 878.96,1502 1199.43,1502 1039.2,1662.24 z " fill-rule="evenodd" fill="rgb(255,0,0)" stroke-width="5" stroke="rgb(0,0,0)" />
	<path d="M1896.21,1662.24 1835.97,1602 1956.45,1602 1896.21,1662.24 z " fill-rule="evenodd" fill="rgb(255,0,0)" stroke-width="5" stroke="rgb(0,0,0)" />
	<path d="M2320.47,1237.97 2150,1408.45 2150,1067.5 2320.47,1237.97 z " fill-rule="evenodd" fill="rgb(255,0,0)" stroke-width="5" stroke="rgb(0,0,0)" />
	<path d="M1896.21,2527.74 2320.47,2952 1896.21,3376.26 1671.95,3152 2050,3152 2050,2952 1471.95,2952 1896.21,2527.74 z " fill-rule="evenodd" fill="rgb(255,0,0)" stroke-width="5" stroke="rgb(0,0,0)" />
	<path d="M3185.97,1237.97 3187.89,1236.06 3186.78,1238.78 3185.97,1237.97 z " fill-rule="evenodd" fill="rgb(255,0,0)" stroke-width="5" stroke="rgb(0,0,0)" />
	<path d="M3610.24,813.709 4034.5,1237.97 3610.24,1662.24 3263.27,1315.27 3368.73,1055.21 3610.24,813.709 z " fill-rule="evenodd" fill="rgb(255,0,0)" stroke-width="5" stroke="rgb(0,0,0)" />
	<path d="M2753.22,4233.28 2328.96,3809.01 2753.22,3384.75 2900,3531.53 2900,4086.5 2753.22,4233.28 z " fill-rule="evenodd" fill="rgb(255,0,0)" stroke-width="5" stroke="rgb(0,0,0)" />
	<path d="M4891.51,1237.97 4467.25,1662.24 4042.99,1237.97 4305.62,975.336 4849.85,1196.31 4891.51,1237.97 z " fill-rule="evenodd" fill="rgb(255,0,0)" stroke-width="5" stroke="rgb(0,0,0)" />
	<path d="M5324.26,1662.24 4900,1237.97 4915.15,1222.82 5518.64,1467.86 5324.26,1662.24 z " fill-rule="evenodd" fill="rgb(255,0,0)" stroke-width="5" stroke="rgb(0,0,0)" />
	<path d="M2757.47,4237.52 2900,4094.99 2900,4380.05 2757.47,4237.52 z " fill-rule="evenodd" fill="rgb(255,0,0)" stroke-width="5" stroke="rgb(0,0,0)" />
	<path d="M4034.5,4666.03 3748.53,4952 3700,4952 3700,4331.53 4034.5,4666.03 z " fill-rule="evenodd" fill="rgb(255,0,0)" stroke-width="5" stroke="rgb(0,0,0)" />
	<path d="M4042.99,4666.03 4467.25,4241.76 4891.51,4666.03 4605.54,4952 4328.96,4952 4042.99,4666.03 z " fill-rule="evenodd" fill="rgb(255,0,0)" stroke-width="5" stroke="rgb(0,0,0)" />
	<path d="M4900,4666.03 4950,4616.03 4950,4716.03 4900,4666.03 z " fill-rule="evenodd" fill="rgb(255,0,0)" stroke-width="5" stroke="rgb(0,0,0)" />
	<path d="M5324.26,4241.76 5748.53,4666.03 5324.26,5090.29 5050,4816.03 5050,4516.03 5324.26,4241.76 z " fill-rule="evenodd" fill="rgb(255,0,0)" stroke-width="5" stroke="rgb(0,0,0)" />
	<path d="M8328.05,4666.03 8600,4394.08 8600,4937.97 8328.05,4666.03 z " fill-rule="evenodd" fill="rgb(255,0,0)" stroke-width="5" stroke="rgb(0,0,0)" />
	<path d="M7895.3,2519.25 7749.87,2373.82 7956.74,2457.81 7895.3,2519.25 z " fill-rule="evenodd" fill="rgb(255,0,0)" stroke-width="5" stroke="rgb(0,0,0)" />
	<path d="M8323.81,2947.76 7899.55,2523.49 7962.78,2460.26 8566.27,2705.3 8323.81,2947.76 z " fill-rule="evenodd" fill="rgb(255,0,0)" stroke-width="5" stroke="rgb(0,0,0)" />
	<path d="M8328.05,2952 8572.3,2707.75 8600,2719 8600,3223.95 8328.05,2952 z " fill-rule="evenodd" fill="rgb(255,0,0)" stroke-width="5" stroke="rgb(0,0,0)" />
	<path d="M177.941,1666.48 100,1744.42 100,1602 113.461,1602 177.941,1666.48 z " fill-rule="evenodd" fill="rgb(255,0,0)" stroke-width="5" stroke="rgb(0,0,0)" />
	<path d="M182.184,1670.72 606.448,2094.99 182.184,2519.25 100,2437.07 100,1752.91 182.184,1670.72 z " fill-rule="evenodd" fill="rgb(255,0,0)" stroke-width="5" stroke="rgb(0,0,0)" />
	<path d="M2324.72,385.202 2748.98,809.466 2324.72,1233.73 2150,1059.01 2150,559.919 2324.72,385.202 z " fill-rule="evenodd" fill="rgb(255,0,0)" stroke-width="5" stroke="rgb(0,0,0)" />
	<path d="M1039.2,3376.26 814.933,3152 1263.46,3152 1039.2,3376.26 z " fill-rule="evenodd" fill="rgb(255,0,0)" stroke-width="5" stroke="rgb(0,0,0)" />
	<path d="M1039.2,2527.74 1463.46,2952 614.933,2952 1039.2,2527.74 z " fill-rule="evenodd" fill="rgb(255,0,0)" stroke-width="5" stroke="rgb(0,0,0)" />
	<path d="M1891.97,3380.51 1467.7,3804.77 1043.44,3380.51 1271.95,3152 1663.46,3152 1891.97,3380.51 z " fill-rule="evenodd" fill="rgb(255,0,0)" stroke-width="5" stroke="rgb(0,0,0)" />
	<path d="M3181.73,1233.73 2757.47,809.466 3086.92,480.01 3405.92,609.396 3431.67,635.141 3193.68,1221.78 3181.73,1233.73 z " fill-rule="evenodd" fill="rgb(255,0,0)" stroke-width="5" stroke="rgb(0,0,0)" />
	<path d="M3605.99,809.466 3374.52,1040.94 3508.09,711.562 3605.99,809.466 z " fill-rule="evenodd" fill="rgb(255,0,0)" stroke-width="5" stroke="rgb(0,0,0)" />
	<path d="M4038.74,1233.73 3614.48,809.466 3696.1,727.848 4299.59,972.886 4038.74,1233.73 z " fill-rule="evenodd" fill="rgb(255,0,0)" stroke-width="5" stroke="rgb(0,0,0)" />
	<path d="M4895.76,1233.73 4864.14,1202.11 4909.11,1220.37 4895.76,1233.73 z " fill-rule="evenodd" fill="rgb(255,0,0)" stroke-width="5" stroke="rgb(0,0,0)" />
	<path d="M2753.22,5090.29 2328.96,4666.03 2753.22,4241.76 2900,4388.54 2900,4943.51 2753.22,5090.29 z " fill-rule="evenodd" fill="rgb(255,0,0)" stroke-width="5" stroke="rgb(0,0,0)" />
	<path d="M2757.47,5094.53 2900,4952 2900,5237.07 2757.47,5094.53 z " fill-rule="evenodd" fill="rgb(255,0,0)" stroke-width="5" stroke="rgb(0,0,0)" />
	<path d="M4038.74,4670.27 4320.47,4952 3757.01,4952 4038.74,4670.27 z " fill-rule="evenodd" fill="rgb(255,0,0)" stroke-width="5" stroke="rgb(0,0,0)" />
	<path d="M5320.02,5094.53 5050,5364.55 5050,4824.51 5320.02,5094.53 z " fill-rule="evenodd" fill="rgb(255,0,0)" stroke-width="5" stroke="rgb(0,0,0)" />
	<path d="M4895.76,4670.27 4950,4724.51 4950,4952 4614.03,4952 4895.76,4670.27 z " fill-rule="evenodd" fill="rgb(255,0,0)" stroke-width="5" stroke="rgb(0,0,0)" />
	<path d="M8323.81,5518.8 7899.55,5094.53 8323.81,4670.27 8600,4946.46 8600,5242.61 8323.81,5518.8 z " fill-rule="evenodd" fill="rgb(255,0,0)" stroke-width="5" stroke="rgb(0,0,0)" />
	<path d="M177.941,2523.49 100,2601.43 100,2445.55 177.941,2523.49 z " fill-rule="evenodd" fill="rgb(255,0,0)" stroke-width="5" stroke="rgb(0,0,0)" />
	<path d="M182.184,3376.26 100,3294.08 100,3152 406.448,3152 182.184,3376.26 z " fill-rule="evenodd" fill="rgb(255,0,0)" stroke-width="5" stroke="rgb(0,0,0)" />
	<path d="M182.184,2527.74 606.448,2952 100,2952 100,2609.92 182.184,2527.74 z " fill-rule="evenodd" fill="rgb(255,0,0)" stroke-width="5" stroke="rgb(0,0,0)" />
	<path d="M2320.47,380.96 2150,551.434 2150,210.485 2320.47,380.96 z " fill-rule="evenodd" fill="rgb(255,0,0)" stroke-width="5" stroke="rgb(0,0,0)" />
	<path d="M2753.22,805.224 2328.96,380.96 2477.21,232.713 3080.89,477.562 2753.22,805.224 z " fill-rule="evenodd" fill="rgb(255,0,0)" stroke-width="5" stroke="rgb(0,0,0)" />
	<path d="M1034.95,3380.51 610.69,3804.77 186.426,3380.51 414.933,3152 806.448,3152 1034.95,3380.51 z " fill-rule="evenodd" fill="rgb(255,0,0)" stroke-width="5" stroke="rgb(0,0,0)" />
	<path d="M3420.2,615.186 3437,622 3434.12,629.104 3420.2,615.186 z " fill-rule="evenodd" fill="rgb(255,0,0)" stroke-width="5" stroke="rgb(0,0,0)" />
	<path d="M3610.24,805.224 3510.54,705.525 3529,660 3690.06,725.397 3610.24,805.224 z " fill-rule="evenodd" fill="rgb(255,0,0)" stroke-width="5" stroke="rgb(0,0,0)" />
	<path d="M2753.22,5947.3 2328.96,5523.04 2753.22,5098.78 2900,5245.55 2900,5800.53 2753.22,5947.3 z " fill-rule="evenodd" fill="rgb(255,0,0)" stroke-width="5" stroke="rgb(0,0,0)" />
	<path d="M5324.26,5098.78 5748.53,5523.04 5719.57,5552 5050,5552 5050,5373.04 5324.26,5098.78 z " fill-rule="evenodd" fill="rgb(255,0,0)" stroke-width="5" stroke="rgb(0,0,0)" />
	<path d="M5757.01,5523.04 6181.28,5098.78 6605.54,5523.04 6576.58,5552 5785.97,5552 5757.01,5523.04 z " fill-rule="evenodd" fill="rgb(255,0,0)" stroke-width="5" stroke="rgb(0,0,0)" />
	<path d="M6614.03,5523.04 7038.29,5098.78 7462.55,5523.04 7433.6,5552 6642.99,5552 6614.03,5523.04 z " fill-rule="evenodd" fill="rgb(255,0,0)" stroke-width="5" stroke="rgb(0,0,0)" />
	<path d="M7471.04,5523.04 7895.3,5098.78 8319.57,5523.04 8290.61,5552 7500,5552 7471.04,5523.04 z " fill-rule="evenodd" fill="rgb(255,0,0)" stroke-width="5" stroke="rgb(0,0,0)" />
	<path d="M8328.05,5523.04 8600,5251.09 8600,5552 8357.01,5552 8328.05,5523.04 z " fill-rule="evenodd" fill="rgb(255,0,0)" stroke-width="5" stroke="rgb(0,0,0)" />
	<path d="M177.941,3380.51 100,3458.45 100,3302.57 177.941,3380.51 z " fill-rule="evenodd" fill="rgb(255,0,0)" stroke-width="5" stroke="rgb(0,0,0)" />
	<path d="M2324.72,376.717 2150,202 2150,100 2471.17,230.265 2324.72,376.717 z " fill-rule="evenodd" fill="rgb(255,0,0)" stroke-width="5" stroke="rgb(0,0,0)" />
	<path d="M182.184,3384.75 606.448,3809.01 182.184,4233.28 100,4151.09 100,3466.93 182.184,3384.75 z " fill-rule="evenodd" fill="rgb(255,0,0)" stroke-width="5" stroke="rgb(0,0,0)" />
	<path d="M2757.47,5951.55 2900,5809.01 2900,6052 3100,6052 3100,6294.08 2757.47,5951.55 z " fill-rule="evenodd" fill="rgb(255,0,0)" stroke-width="5" stroke="rgb(0,0,0)" />
	<path d="M5752.77,5527.28 5777.49,5552 5728.05,5552 5752.77,5527.28 z " fill-rule="evenodd" fill="rgb(255,0,0)" stroke-width="5" stroke="rgb(0,0,0)" />
	<path d="M6609.78,5527.28 6634.5,5552 6585.07,5552 6609.78,5527.28 z " fill-rule="evenodd" fill="rgb(255,0,0)" stroke-width="5" stroke="rgb(0,0,0)" />
	<path d="M7466.8,5527.28 7491.51,5552 7442.08,5552 7466.8,5527.28 z " fill-rule="evenodd" fill="rgb(255,0,0)" stroke-width="5" stroke="rgb(0,0,0)" />
	<path d="M8323.81,5527.28 8348.53,5552 8299.09,5552 8323.81,5527.28 z " fill-rule="evenodd" fill="rgb(255,0,0)" stroke-width="5" stroke="rgb(0,0,0)" />
	<path d="M177.941,4237.52 100,4315.46 100,4159.58 177.941,4237.52 z " fill-rule="evenodd" fill="rgb(255,0,0)" stroke-width="5" stroke="rgb(0,0,0)" />
	<path d="M182.184,4241.76 606.448,4666.03 182.184,5090.29 100,5008.11 100,4323.95 182.184,4241.76 z " fill-rule="evenodd" fill="rgb(255,0,0)" stroke-width="5" stroke="rgb(0,0,0)" />
	<path d="M2753.22,6804.32 2328.96,6380.05 2753.22,5955.79 3100,6302.57 3100,6457.54 2753.22,6804.32 z " fill-rule="evenodd" fill="rgb(255,0,0)" stroke-width="5" stroke="rgb(0,0,0)" />
	<path d="M177.941,5094.53 100,5172.47 100,5016.59 177.941,5094.53 z " fill-rule="evenodd" fill="rgb(255,0,0)" stroke-width="5" stroke="rgb(0,0,0)" />
	<path d="M182.184,5098.78 606.448,5523.04 182.184,5947.3 100,5865.12 100,5180.96 182.184,5098.78 z " fill-rule="evenodd" fill="rgb(255,0,0)" stroke-width="5" stroke="rgb(0,0,0)" />
	<path d="M1043.44,6808.56 1467.7,6384.3 1891.97,6808.56 1748.53,6952 1186.88,6952 1043.44,6808.56 z " fill-rule="evenodd" fill="rgb(255,0,0)" stroke-width="5" stroke="rgb(0,0,0)" />
	<path d="M1900.45,6808.56 2324.72,6384.3 2748.98,6808.56 2605.54,6952 2043.89,6952 1900.45,6808.56 z " fill-rule="evenodd" fill="rgb(255,0,0)" stroke-width="5" stroke="rgb(0,0,0)" />
	<path d="M2757.47,6808.56 3100,6466.03 3100,6852 2900,6852 2900,6951.09 2757.47,6808.56 z " fill-rule="evenodd" fill="rgb(255,0,0)" stroke-width="5" stroke="rgb(0,0,0)" />
	<path d="M177.941,5951.55 100,6029.49 100,5873.61 177.941,5951.55 z " fill-rule="evenodd" fill="rgb(255,0,0)" stroke-width="5" stroke="rgb(0,0,0)" />
	<path d="M182.184,5955.79 606.448,6380.05 182.184,6804.32 100,6722.13 100,6037.97 182.184,5955.79 z " fill-rule="evenodd" fill="rgb(255,0,0)" stroke-width="5" stroke="rgb(0,0,0)" />
	<path d="M186.426,6808.56 610.69,6384.3 1034.95,6808.56 891.515,6952 329.866,6952 186.426,6808.56 z " fill-rule="evenodd" fill="rgb(255,0,0)" stroke-width="5" stroke="rgb(0,0,0)" />
	<path d="M1039.2,6812.8 1178.39,6952 900,6952 1039.2,6812.8 z " fill-rule="evenodd" fill="rgb(255,0,0)" stroke-width="5" stroke="rgb(0,0,0)" />
	<path d="M1896.21,6812.8 2035.41,6952 1757.01,6952 1896.21,6812.8 z " fill-rule="evenodd" fill="rgb(255,0,0)" stroke-width="5" stroke="rgb(0,0,0)" />
	<path d="M2753.22,6812.8 2892.42,6952 2614.03,6952 2753.22,6812.8 z " fill-rule="evenodd" fill="rgb(255,0,0)" stroke-width="5" stroke="rgb(0,0,0)" />
	<path d="M177.941,6808.56 100,6886.5 100,6730.62 177.941,6808.56 z " fill-rule="evenodd" fill="rgb(255,0,0)" stroke-width="5" stroke="rgb(0,0,0)" />
	<path d="M182.184,6812.8 321.381,6952 100,6952 100,6894.99 182.184,6812.8 z " fill-rule="evenodd" fill="rgb(255,0,0)" stroke-width="5" stroke="rgb(0,0,0)" />
	<polyline points="4895,2957 5319.26,3381.26 4895,2957 5319.26,2532.74 4895,2957 " fill="none" stroke-width="100" stroke="rgb(0,0,0)" />
	<circle cx="4895" cy="2957" r="-14.1421" fill="rgb(0,0,0)" />
	<circle cx="5319.26" cy="3381.26" r="-14.1421" fill="rgb(0,0,0)" />
	<circle cx="4895" cy="2957" r="-14.1421" fill="rgb(0,0,0)" />
	<circle cx="5319.26" cy="2532.74" r="-14.1421" fill="rgb(0,0,0)" />
	<circle cx="4895" cy="2957" r="-14.1421" fill="rgb(0,0,0)" />
	<polyline points="4895,3890.38 4895,2957 4428.31,2957 " fill="none" stroke-width="0.5" stroke="rgb(128,0,128)" />
</svg>
