<?xml version="1.0" standalone="no" ?>
<!DOCTYPE svg PUBLIC "-//W3C//DTD SVG 1.1//EN" "http://www.w3.org/Graphics/SVG/1.1/DTD/svg11.dtd">
<svg width="1600px" height="36400px" xmlns="http://www.w3.org/2000/svg" version="1.1" >
	<path d="M100,36300 700,36300 700,35700 100,35700 z " fill-rule="evenodd" fill="rgb(255,255,255)" stroke-width="10" stroke="rgb(0,0,0)" />
	<path d="M100,35640 700,35640 700,35040 100,35040 z " fill-rule="evenodd" fill="rgb(255,255,255)" stroke-width="10" stroke="rgb(0,0,0)" />
	<path d="M100,34980 700,34980 700,34380 100,34380 z " fill-rule="evenodd" fill="rgb(255,255,255)" stroke-width="10" stroke="rgb(0,0,0)" />
	<path d="M100,34320 700,34320 700,33720 100,33720 z " fill-rule="evenodd" fill="rgb(255,255,255)" stroke-width="10" stroke="rgb(0,0,0)" />
	<path d="M100,33660 700,33660 700,33060 100,33060 z " fill-rule="evenodd" fill="rgb(255,255,255)" stroke-width="10" stroke="rgb(0,0,0)" />
	<path d="M100,33000 700,33000 700,32400 100,32400 z " fill-rule="evenodd" fill="rgb(255,255,255)" stroke-width="10" stroke="rgb(0,0,0)" />
	<path d="M100,32340 700,32340 700,31740 100,31740 z " fill-rule="evenodd" fill="rgb(255,255,255)" stroke-width="10" stroke="rgb(0,0,0)" />
	<path d="M100,31680 700,31680 700,31080 100,31080 z " fill-rule="evenodd" fill="rgb(255,255,255)" stroke-width="10" stroke="rgb(0,0,0)" />
	<path d="M100,31020 700,31020 700,30420 100,30420 z " fill-rule="evenodd" fill="rgb(255,255,255)" stroke-width="10" stroke="rgb(0,0,0)" />
	<path d="M100,30360 700,30360 700,29760 100,29760 z " fill-rule="evenodd" fill="rgb(255,255,255)" stroke-width="10" stroke="rgb(0,0,0)" />
	<path d="M100,29700 700,29700 700,29100 100,29100 z " fill-rule="evenodd" fill="rgb(255,255,255)" stroke-width="10" stroke="rgb(0,0,0)" />
	<path d="M100,29040 700,29040 700,28440 100,28440 z " fill-rule="evenodd" fill="rgb(255,255,255)" stroke-width="10" stroke="rgb(0,0,0)" />
	<path d="M100,28380 700,28380 700,27780 100,27780 z " fill-rule="evenodd" fill="rgb(255,255,255)" stroke-width="10" stroke="rgb(0,0,0)" />
	<path d="M100,27720 700,27720 700,27120 100,27120 z " fill-rule="evenodd" fill="rgb(255,255,255)" stroke-width="10" stroke="rgb(0,0,0)" />
	<path d="M100,27060 700,27060 700,26460 100,26460 z " fill-rule="evenodd" fill="rgb(255,255,255)" stroke-width="10" stroke="rgb(0,0,0)" />
	<path d="M100,26400 700,26400 700,25800 100,25800 z " fill-rule="evenodd" fill="rgb(255,255,255)" stroke-width="10" stroke="rgb(0,0,0)" />
	<path d="M100,25740 700,25740 700,25140 100,25140 z " fill-rule="evenodd" fill="rgb(255,255,255)" stroke-width="10" stroke="rgb(0,0,0)" />
	<path d="M100,25080 700,25080 700,24480 100,24480 z " fill-rule="evenodd" fill="rgb(255,255,255)" stroke-width="10" stroke="rgb(0,0,0)" />
	<path d="M100,24420 700,24420 700,23820 100,23820 z " fill-rule="evenodd" fill="rgb(255,255,255)" stroke-width="10" stroke="rgb(0,0,0)" />
	<path d="M100,23760 700,23760 700,23160 100,23160 z " fill-rule="evenodd" fill="rgb(255,255,255)" stroke-width="10" stroke="rgb(0,0,0)" />
	<path d="M100,23100 700,23100 700,22500 100,22500 z " fill-rule="evenodd" fill="rgb(255,255,255)" stroke-width="10" stroke="rgb(0,0,0)" />
	<path d="M100,22440 700,22440 700,21840 100,21840 z " fill-rule="evenodd" fill="rgb(255,255,255)" stroke-width="10" stroke="rgb(0,0,0)" />
	<path d="M100,21780 700,21780 700,21180 100,21180 z " fill-rule="evenodd" fill="rgb(255,255,255)" stroke-width="10" stroke="rgb(0,0,0)" />
	<path d="M100,21120 700,21120 700,20520 100,20520 z " fill-rule="evenodd" fill="rgb(255,255,255)" stroke-width="10" stroke="rgb(0,0,0)" />
	<path d="M100,20460 700,20460 700,19860 100,19860 z " fill-rule="evenodd" fill="rgb(255,255,255)" stroke-width="10" stroke="rgb(0,0,0)" />
	<path d="M100,19800 700,19800 700,19200 100,19200 z " fill-rule="evenodd" fill="rgb(255,255,255)" stroke-width="10" stroke="rgb(0,0,0)" />
	<path d="M100,19140 700,19140 700,18540 100,18540 z " fill-rule="evenodd" fill="rgb(255,255,255)" stroke-width="10" stroke="rgb(0,0,0)" />
	<path d="M100,18480 700,18480 700,17880 100,17880 z " fill-rule="evenodd" fill="rgb(255,255,255)" stroke-width="10" stroke="rgb(0,0,0)" />
	<path d="M100,17820 700,17820 700,17220 100,17220 z " fill-rule="evenodd" fill="rgb(255,255,255)" stroke-width="10" stroke="rgb(0,0,0)" />
	<path d="M100,17160 700,17160 700,16560 100,16560 z " fill-rule="evenodd" fill="rgb(255,255,255)" stroke-width="10" stroke="rgb(0,0,0)" />
	<path d="M100,16500 700,16500 700,15900 100,15900 z " fill-rule="evenodd" fill="rgb(255,255,255)" stroke-width="10" stroke="rgb(0,0,0)" />
	<path d="M100,15840 700,15840 700,15240 100,15240 z " fill-rule="evenodd" fill="rgb(255,255,255)" stroke-width="10" stroke="rgb(0,0,0)" />
	<path d="M100,15180 700,15180 700,14580 100,14580 z " fill-rule="evenodd" fill="rgb(255,255,255)" stroke-width="10" stroke="rgb(0,0,0)" />
	<path d="M100,14520 700,14520 700,13920 100,13920 z " fill-rule="evenodd" fill="rgb(255,255,255)" stroke-width="10" stroke="rgb(0,0,0)" />
	<path d="M100,13860 700,13860 700,13260 100,13260 z " fill-rule="evenodd" fill="rgb(255,255,255)" stroke-width="10" stroke="rgb(0,0,0)" />
	<path d="M100,13200 700,13200 700,12600 100,12600 z " fill-rule="evenodd" fill="rgb(255,255,255)" stroke-width="10" stroke="rgb(0,0,0)" />
	<path d="M100,12540 700,12540 700,11940 100,11940 z " fill-rule="evenodd" fill="rgb(255,255,255)" stroke-width="10" stroke="rgb(0,0,0)" />
	<path d="M100,11880 700,11880 700,11280 100,11280 z " fill-rule="evenodd" fill="rgb(255,255,255)" stroke-width="10" stroke="rgb(0,0,0)" />
	<path d="M100,11220 700,11220 700,10620 100,10620 z " fill-rule="evenodd" fill="rgb(255,255,255)" stroke-width="10" stroke="rgb(0,0,0)" />
	<path d="M100,10560 700,10560 700,9960 100,9960 z " fill-rule="evenodd" fill="rgb(255,255,255)" stroke-width="10" stroke="rgb(0,0,0)" />
	<path d="M100,9900 700,9900 700,9300 100,9300 z " fill-rule="evenodd" fill="rgb(255,255,255)" stroke-width="10" stroke="rgb(0,0,0)" />
	<path d="M100,9240 700,9240 700,8640 100,8640 z " fill-rule="evenodd" fill="rgb(255,255,255)" stroke-width="10" stroke="rgb(0,0,0)" />
	<path d="M100,8580 700,8580 700,7980 100,7980 z " fill-rule="evenodd" fill="rgb(255,255,255)" stroke-width="10" stroke="rgb(0,0,0)" />
	<path d="M100,7920 700,7920 700,7320 100,7320 z " fill-rule="evenodd" fill="rgb(255,255,255)" stroke-width="10" stroke="rgb(0,0,0)" />
	<path d="M100,7260 700,7260 700,6660 100,6660 z " fill-rule="evenodd" fill="rgb(255,255,255)" stroke-width="10" stroke="rgb(0,0,0)" />
	<path d="M100,6600 700,6600 700,6000 100,6000 z " fill-rule="evenodd" fill="rgb(255,255,255)" stroke-width="10" stroke="rgb(0,0,0)" />
	<path d="M100,5940 700,5940 700,5340 100,5340 z " fill-rule="evenodd" fill="rgb(255,255,255)" stroke-width="10" stroke="rgb(0,0,0)" />
	<path d="M100,5280 700,5280 700,4680 100,4680 z " fill-rule="evenodd" fill="rgb(255,255,255)" stroke-width="10" stroke="rgb(0,0,0)" />
	<path d="M100,4620 700,4620 700,4020 100,4020 z " fill-rule="evenodd" fill="rgb(255,255,255)" stroke-width="10" stroke="rgb(0,0,0)" />
	<path d="M100,3960 700,3960 700,3360 100,3360 z " fill-rule="evenodd" fill="rgb(255,255,255)" stroke-width="10" stroke="rgb(0,0,0)" />
	<path d="M100,3300 700,3300 700,2700 100,2700 z " fill-rule="evenodd" fill="rgb(255,255,255)" stroke-width="10" stroke="rgb(0,0,0)" />
	<path d="M100,2640 700,2640 700,2040 100,2040 z " fill-rule="evenodd" fill="rgb(255,255,255)" stroke-width="10" stroke="rgb(0,0,0)" />
	<path d="M100,1980 700,1980 700,1380 100,1380 z " fill-rule="evenodd" fill="rgb(255,255,255)" stroke-width="10" stroke="rgb(0,0,0)" />
	<path d="M100,1320 700,1320 700,720 100,720 z " fill-rule="evenodd" fill="rgb(255,255,255)" stroke-width="10" stroke="rgb(0,0,0)" />
	<path d="M100,660 700,660 700,60 100,60 z " fill-rule="evenodd" fill="rgb(255,255,255)" stroke-width="10" stroke="rgb(0,0,0)" />
	<path d="M700,13200 100,13200 100,12600 570.579,12600 670.645,12700.1 700,12670.7 700,13200 z " fill-rule="evenodd" fill="rgb(255,0,0)" stroke-width="10" stroke="rgb(0,0,0)" />
	<path d="M100,12540 100,12004.7 135.355,11969.4 106,11940 700,11940 700,12534 630.33,12464.3 559.619,12535 564.579,12540 100,12540 z " fill-rule="evenodd" fill="rgb(255,0,0)" stroke-width="10" stroke="rgb(0,0,0)" />
	<path d="M100,36300 100,35700 700,35700 700,36164.6 564.579,36300 564.579,36300 100,36300 z " fill-rule="evenodd" fill="rgb(255,0,0)" stroke-width="10" stroke="rgb(0,0,0)" />
	<path d="M700,35640 100,35640 700,35040 700,35640 z " fill-rule="evenodd" fill="rgb(255,0,0)" stroke-width="10" stroke="rgb(0,0,0)" />
	<path d="M110.559,34380 569.138,34380 110.559,34838.6 110.559,34380 z " fill-rule="evenodd" fill="rgb(255,0,0)" stroke-width="10" stroke="rgb(0,0,0)" />
	<path d="M100,11880 100,11280 700,11280 700,11744.6 564.579,11880 100,11880 z " fill-rule="evenodd" fill="rgb(255,0,0)" stroke-width="10" stroke="rgb(0,0,0)" />
	<path d="M100,35040 700,35040 100,35640 100,35040 z " fill-rule="evenodd" fill="rgb(255,0,0)" stroke-width="10" stroke="rgb(0,0,0)" />
	<path d="M110.559,33720 569.138,33720 110.559,34178.6 110.559,33720 z " fill-rule="evenodd" fill="rgb(255,0,0)" stroke-width="10" stroke="rgb(0,0,0)" />
	<path d="M700,33660 100,33660 100,33060 369.006,33060 700,33391 700,33660 z " fill-rule="evenodd" fill="rgb(255,0,0)" stroke-width="10" stroke="rgb(0,0,0)" />
	<path d="M638.638,32400 638.638,33000 543.052,33000 289.588,32400 638.638,32400 z " fill-rule="evenodd" fill="rgb(255,0,0)" stroke-width="10" stroke="rgb(0,0,0)" />
	<path d="M100,31740 700,31740 700,32340 348.415,32340 100,31752 100,31740 z " fill-rule="evenodd" fill="rgb(255,0,0)" stroke-width="10" stroke="rgb(0,0,0)" />
	<path d="M700,11220 100,11220 100,10620 570.579,10620 700,10749.4 700,11220 z " fill-rule="evenodd" fill="rgb(255,0,0)" stroke-width="10" stroke="rgb(0,0,0)" />
	<path d="M100,10560 100,9960 700,9960 700,10515.8 655.767,10560 100,10560 z " fill-rule="evenodd" fill="rgb(255,0,0)" stroke-width="10" stroke="rgb(0,0,0)" />
	<path d="M100,9900 100,9300 700,9300 700,9855.77 655.767,9900 100,9900 z " fill-rule="evenodd" fill="rgb(255,0,0)" stroke-width="10" stroke="rgb(0,0,0)" />
	<path d="M632.012,33060 632.012,33323 369.006,33060 632.012,33060 z " fill-rule="evenodd" fill="rgb(255,0,0)" stroke-width="10" stroke="rgb(0,0,0)" />
	<path d="M100,9240 100,8640 700,8640 700,9104.58 564.579,9240 100,9240 z " fill-rule="evenodd" fill="rgb(255,0,0)" stroke-width="10" stroke="rgb(0,0,0)" />
	<path d="M423.798,31680 555.301,31548.5 686.804,31680 423.798,31680 z " fill-rule="evenodd" fill="rgb(255,0,0)" stroke-width="10" stroke="rgb(0,0,0)" />
	<path d="M110.559,30420 569.138,30420 110.559,30878.6 110.559,30420 z " fill-rule="evenodd" fill="rgb(255,0,0)" stroke-width="10" stroke="rgb(0,0,0)" />
	<path d="M638.638,29760 638.638,29980.3 545.587,29760 638.638,29760 z " fill-rule="evenodd" fill="rgb(255,0,0)" stroke-width="10" stroke="rgb(0,0,0)" />
	<path d="M700,30360 100,30360 100,29760 545.587,29760 700,30125.5 700,30360 z " fill-rule="evenodd" fill="rgb(255,0,0)" stroke-width="10" stroke="rgb(0,0,0)" />
	<path d="M100,1320 100,855.421 564.579,1320 100,1320 z " fill-rule="evenodd" fill="rgb(255,0,0)" stroke-width="10" stroke="rgb(0,0,0)" />
	<path d="M643.767,2277.97 371.883,2549.85 100,2277.97 643.767,2277.97 z " fill-rule="evenodd" fill="rgb(255,0,0)" stroke-width="10" stroke="rgb(0,0,0)" />
	<path d="M100,2750.23 649.767,2750.23 100,3300 100,2750.23 z " fill-rule="evenodd" fill="rgb(255,0,0)" stroke-width="10" stroke="rgb(0,0,0)" />
	<path d="M649.767,3300 380.761,3300 240.381,3159.62 649.767,2750.23 649.767,3300 z " fill-rule="evenodd" fill="rgb(255,0,0)" stroke-width="10" stroke="rgb(0,0,0)" />
	<path d="M700,8580 100,8580 100,7980 611.534,7980 700,8068.47 700,8580 z " fill-rule="evenodd" fill="rgb(255,0,0)" stroke-width="10" stroke="rgb(0,0,0)" />
	<path d="M100,1980 100,1474.47 585.056,1959.52 564.579,1980 100,1980 z " fill-rule="evenodd" fill="rgb(255,0,0)" stroke-width="10" stroke="rgb(0,0,0)" />
	<path d="M100,33000 100,32400 289.588,32400 543.052,33000 100,33000 z " fill-rule="evenodd" fill="rgb(255,0,0)" stroke-width="10" stroke="rgb(0,0,0)" />
	<path d="M612.63,29100 612.63,29700 611.047,29700 357.583,29100 612.63,29100 z " fill-rule="evenodd" fill="rgb(255,0,0)" stroke-width="10" stroke="rgb(0,0,0)" />
	<path d="M100,29040 100,28440 700,28440 700,29024.3 662.954,29040 100,29040 z " fill-rule="evenodd" fill="rgb(255,0,0)" stroke-width="10" stroke="rgb(0,0,0)" />
	<path d="M662.954,29040 676.423,29034.3 682.118,29040 662.954,29040 z " fill-rule="evenodd" fill="rgb(255,0,0)" stroke-width="10" stroke="rgb(0,0,0)" />
	<path d="M100,7320 700,7320 700,7920 473.39,7920 349.609,7796.22 100,7901.79 100,7320 z " fill-rule="evenodd" fill="rgb(255,0,0)" stroke-width="10" stroke="rgb(0,0,0)" />
	<path d="M700,28380 100,28380 100,27780 570.579,27780 700,27909.4 700,28380 z " fill-rule="evenodd" fill="rgb(255,0,0)" stroke-width="10" stroke="rgb(0,0,0)" />
	<path d="M689.441,36300 564.579,36300 689.441,36175.1 689.441,36300 z " fill-rule="evenodd" fill="rgb(255,0,0)" stroke-width="10" stroke="rgb(0,0,0)" />
	<path d="M638.567,27720 513.705,27720 638.567,27595.1 638.567,27720 z " fill-rule="evenodd" fill="rgb(255,0,0)" stroke-width="10" stroke="rgb(0,0,0)" />
	<path d="M663.42,27060 538.558,27060 663.42,26935.1 663.42,27060 z " fill-rule="evenodd" fill="rgb(255,0,0)" stroke-width="10" stroke="rgb(0,0,0)" />
	<path d="M686.938,24313.3 562.076,24313.3 627.828,24247.5 486.406,24106.1 686.938,23905.6 686.938,24313.3 z " fill-rule="evenodd" fill="rgb(255,0,0)" stroke-width="10" stroke="rgb(0,0,0)" />
	<path d="M700,26400 100,26400 100,25800 611.534,25800 700,25888.5 700,26400 z " fill-rule="evenodd" fill="rgb(255,0,0)" stroke-width="10" stroke="rgb(0,0,0)" />
	<path d="M127.033,25740 127.033,25234.5 632.567,25740 127.033,25740 z " fill-rule="evenodd" fill="rgb(255,0,0)" stroke-width="10" stroke="rgb(0,0,0)" />
	<path d="M672.091,24581.5 635.674,24495.4 672.091,24480 672.091,24581.5 z " fill-rule="evenodd" fill="rgb(255,0,0)" stroke-width="10" stroke="rgb(0,0,0)" />
	<path d="M450.634,23820 450.634,24054.6 376.033,24086.2 263.58,23820 450.634,23820 z " fill-rule="evenodd" fill="rgb(255,0,0)" stroke-width="10" stroke="rgb(0,0,0)" />
	<path d="M100,29700 100,29100 357.583,29100 611.047,29700 100,29700 z " fill-rule="evenodd" fill="rgb(255,0,0)" stroke-width="10" stroke="rgb(0,0,0)" />
	<path d="M700,23760 159.87,23760 100,23618.4 100,23500.2 700,23246.5 700,23760 z " fill-rule="evenodd" fill="rgb(255,0,0)" stroke-width="10" stroke="rgb(0,0,0)" />
	<path d="M151.02,23246.5 699.788,23246.5 151.02,23478.6 151.02,23246.5 z " fill-rule="evenodd" fill="rgb(255,0,0)" stroke-width="10" stroke="rgb(0,0,0)" />
	<path d="M700,6660 700,7260 100,7260 100,6743.97 298.614,6660 337.969,6660 418.198,6740.23 488.909,6669.52 479.39,6660 700,6660 z " fill-rule="evenodd" fill="rgb(255,0,0)" stroke-width="10" stroke="rgb(0,0,0)" />
	<path d="M100,27060 100,26460 700,26460 700,26924.6 497.786,26722.4 356.365,26863.8 391.72,26899.1 230.862,27060 100,27060 z " fill-rule="evenodd" fill="rgb(255,0,0)" stroke-width="10" stroke="rgb(0,0,0)" />
	<path d="M700,33720 700,34320 100,34320 100,34189.1 569.138,33720 700,33720 z " fill-rule="evenodd" fill="rgb(255,0,0)" stroke-width="10" stroke="rgb(0,0,0)" />
	<path d="M700,34380 700,34980 100,34980 100,34849.1 569.138,34380 700,34380 z " fill-rule="evenodd" fill="rgb(255,0,0)" stroke-width="10" stroke="rgb(0,0,0)" />
	<path d="M700,30420 700,31020 100,31020 100,30889.1 569.138,30420 700,30420 z " fill-rule="evenodd" fill="rgb(255,0,0)" stroke-width="10" stroke="rgb(0,0,0)" />
	<path d="M100,27720 100,27120 700,27120 700,27533.7 513.705,27720 100,27720 z " fill-rule="evenodd" fill="rgb(255,0,0)" stroke-width="10" stroke="rgb(0,0,0)" />
	<path d="M507.705,2277.97 100,2277.97 266.858,2111.11 408.28,2252.53 478.99,2181.82 507.705,2210.54 507.705,2277.97 z " fill-rule="evenodd" fill="rgb(255,0,0)" stroke-width="10" stroke="rgb(0,0,0)" />
	<path d="M632.012,27841.4 632.012,27780 693.444,27841.4 632.012,27841.4 z " fill-rule="evenodd" fill="rgb(255,0,0)" stroke-width="10" stroke="rgb(0,0,0)" />
	<path d="M127.033,23100 127.033,22594.5 632.567,23100 127.033,23100 z " fill-rule="evenodd" fill="rgb(255,0,0)" stroke-width="10" stroke="rgb(0,0,0)" />
	<path d="M100,21840 700,21840 700,22440 186.419,22440 100,22235.4 100,21840 z " fill-rule="evenodd" fill="rgb(255,0,0)" stroke-width="10" stroke="rgb(0,0,0)" />
	<path d="M665.186,21180 665.186,21780 381.324,21780 127.593,21180 665.186,21180 z " fill-rule="evenodd" fill="rgb(255,0,0)" stroke-width="10" stroke="rgb(0,0,0)" />
	<path d="M100,31680 100,31080 700,31080 700,31403.8 423.798,31680 100,31680 z " fill-rule="evenodd" fill="rgb(255,0,0)" stroke-width="10" stroke="rgb(0,0,0)" />
	<path d="M100,6600 100,6000 700,6000 700,6600 473.39,6600 448.594,6575.2 423.798,6600 100,6600 z " fill-rule="evenodd" fill="rgb(255,0,0)" stroke-width="10" stroke="rgb(0,0,0)" />
	<path d="M700,21120 100,21120 100,20520 167.433,20520 700,21052.6 700,21120 z " fill-rule="evenodd" fill="rgb(255,0,0)" stroke-width="10" stroke="rgb(0,0,0)" />
	<path d="M700,5940 100,5940 100,5340 611.534,5340 700,5428.47 700,5940 z " fill-rule="evenodd" fill="rgb(255,0,0)" stroke-width="10" stroke="rgb(0,0,0)" />
	<path d="M187.37,32340 187.37,31958.8 348.415,32340 187.37,32340 z " fill-rule="evenodd" fill="rgb(255,0,0)" stroke-width="10" stroke="rgb(0,0,0)" />
	<path d="M100,21780 100,21456.2 201.48,21354.7 381.324,21780 100,21780 z " fill-rule="evenodd" fill="rgb(255,0,0)" stroke-width="10" stroke="rgb(0,0,0)" />
	<path d="M189.266,19860 507.064,19860 189.266,20177.8 189.266,19860 z " fill-rule="evenodd" fill="rgb(255,0,0)" stroke-width="10" stroke="rgb(0,0,0)" />
	<path d="M688.641,19200 688.641,19420.6 468.031,19200 688.641,19200 z " fill-rule="evenodd" fill="rgb(255,0,0)" stroke-width="10" stroke="rgb(0,0,0)" />
	<path d="M189.266,18540 507.064,18540 189.266,18857.8 189.266,18540 z " fill-rule="evenodd" fill="rgb(255,0,0)" stroke-width="10" stroke="rgb(0,0,0)" />
	<path d="M100,5280 100,4680 700,4680 700,5132.58 403.32,4835.9 261.899,4977.32 564.579,5280 100,5280 z " fill-rule="evenodd" fill="rgb(255,0,0)" stroke-width="10" stroke="rgb(0,0,0)" />
	<path d="M672.967,25800 672.967,25861.4 611.534,25800 672.967,25800 z " fill-rule="evenodd" fill="rgb(255,0,0)" stroke-width="10" stroke="rgb(0,0,0)" />
	<path d="M672.967,20520 672.967,21025.5 167.433,20520 672.967,20520 z " fill-rule="evenodd" fill="rgb(255,0,0)" stroke-width="10" stroke="rgb(0,0,0)" />
	<path d="M100,24420 100,23820 263.58,23820 486.406,24347.5 413.88,24420 100,24420 z " fill-rule="evenodd" fill="rgb(255,0,0)" stroke-width="10" stroke="rgb(0,0,0)" />
	<path d="M700,17880 700,18480 100,18480 100,18166.1 386.12,17880 700,17880 z " fill-rule="evenodd" fill="rgb(255,0,0)" stroke-width="10" stroke="rgb(0,0,0)" />
	<path d="M700,17220 700,17820 100,17820 100,17506.1 386.12,17220 700,17220 z " fill-rule="evenodd" fill="rgb(255,0,0)" stroke-width="10" stroke="rgb(0,0,0)" />
	<path d="M700,17160 100,17160 100,16846.1 386.12,16560 611.534,16560 700,16648.5 700,17160 z " fill-rule="evenodd" fill="rgb(255,0,0)" stroke-width="10" stroke="rgb(0,0,0)" />
	<path d="M700,19800 100,19800 100,19200 468.031,19200 497.786,19229.8 427.076,19300.5 700,19573.4 700,19800 z " fill-rule="evenodd" fill="rgb(255,0,0)" stroke-width="10" stroke="rgb(0,0,0)" />
	<path d="M700,4620 100,4620 100,4020 570.579,4020 700,4149.42 700,4620 z " fill-rule="evenodd" fill="rgb(255,0,0)" stroke-width="10" stroke="rgb(0,0,0)" />
	<path d="M100,3360 700,3360 700,3960 241.421,3960 100,3818.58 100,3360 z " fill-rule="evenodd" fill="rgb(255,0,0)" stroke-width="10" stroke="rgb(0,0,0)" />
	<path d="M100,25140 700,25140 700,25740 632.567,25740 100,25207.4 100,25140 z " fill-rule="evenodd" fill="rgb(255,0,0)" stroke-width="10" stroke="rgb(0,0,0)" />
	<path d="M600.815,16500 292.936,16500 600.815,16192.1 600.815,16500 z " fill-rule="evenodd" fill="rgb(255,0,0)" stroke-width="10" stroke="rgb(0,0,0)" />
	<path d="M600.815,15840 292.936,15840 600.815,15532.1 600.815,15840 z " fill-rule="evenodd" fill="rgb(255,0,0)" stroke-width="10" stroke="rgb(0,0,0)" />
	<path d="M600.815,15180 292.936,15180 600.815,14872.1 600.815,15180 z " fill-rule="evenodd" fill="rgb(255,0,0)" stroke-width="10" stroke="rgb(0,0,0)" />
	<path d="M486.406,24420 593.113,24313.3 699.82,24420 486.406,24420 z " fill-rule="evenodd" fill="rgb(255,0,0)" stroke-width="10" stroke="rgb(0,0,0)" />
	<path d="M100,2640 100,2277.97 462.031,2640 100,2640 z " fill-rule="evenodd" fill="rgb(255,0,0)" stroke-width="10" stroke="rgb(0,0,0)" />
	<path d="M564.579,1474.47 564.579,1939.04 100,1474.47 564.579,1474.47 z " fill-rule="evenodd" fill="rgb(255,0,0)" stroke-width="10" stroke="rgb(0,0,0)" />
	<path d="M552.579,207.421 552.579,660 100,207.421 552.579,207.421 z " fill-rule="evenodd" fill="rgb(255,0,0)" stroke-width="10" stroke="rgb(0,0,0)" />
	<path d="M124.986,22440 124.986,22378.6 186.419,22440 124.986,22440 z " fill-rule="evenodd" fill="rgb(255,0,0)" stroke-width="10" stroke="rgb(0,0,0)" />
	<path d="M100,13920 700,13920 700,14520 473.39,14520 261.899,14308.5 191.188,14379.2 100,14288 100,13920 z " fill-rule="evenodd" fill="rgb(255,0,0)" stroke-width="10" stroke="rgb(0,0,0)" />
	<path d="M700,25080 100,25080 100,24480 570.579,24480 700,24609.4 700,25080 z " fill-rule="evenodd" fill="rgb(255,0,0)" stroke-width="10" stroke="rgb(0,0,0)" />
	<path d="M100,13260 700,13260 700,13860 241.421,13860 100,13718.6 100,13260 z " fill-rule="evenodd" fill="rgb(255,0,0)" stroke-width="10" stroke="rgb(0,0,0)" />
	<path d="M100,22500 700,22500 700,23100 632.567,23100 100,22567.4 100,22500 z " fill-rule="evenodd" fill="rgb(255,0,0)" stroke-width="10" stroke="rgb(0,0,0)" />
	<path d="M111.359,14520 111.359,14327.1 125.196,14313.2 331.969,14520 111.359,14520 z " fill-rule="evenodd" fill="rgb(255,0,0)" stroke-width="10" stroke="rgb(0,0,0)" />
	<path d="M700,18540 700,19140 100,19140 100,18947.1 507.064,18540 700,18540 z " fill-rule="evenodd" fill="rgb(255,0,0)" stroke-width="10" stroke="rgb(0,0,0)" />
	<path d="M564.579,855.421 564.579,1320 235.821,991.243 371.643,855.421 564.579,855.421 z " fill-rule="evenodd" fill="rgb(255,0,0)" stroke-width="10" stroke="rgb(0,0,0)" />
	<path d="M100,660 100,467.064 229.821,337.243 552.579,660 100,660 z " fill-rule="evenodd" fill="rgb(255,0,0)" stroke-width="10" stroke="rgb(0,0,0)" />
	<path d="M100,16500 100,15900 700,15900 700,16092.9 292.936,16500 100,16500 z " fill-rule="evenodd" fill="rgb(255,0,0)" stroke-width="10" stroke="rgb(0,0,0)" />
	<path d="M100,15840 100,15240 700,15240 700,15432.9 292.936,15840 100,15840 z " fill-rule="evenodd" fill="rgb(255,0,0)" stroke-width="10" stroke="rgb(0,0,0)" />
	<path d="M700,19860 700,20460 100,20460 100,20267.1 507.064,19860 700,19860 z " fill-rule="evenodd" fill="rgb(255,0,0)" stroke-width="10" stroke="rgb(0,0,0)" />
	<path d="M100,15180 100,14580 700,14580 700,14772.9 292.936,15180 100,15180 z " fill-rule="evenodd" fill="rgb(255,0,0)" stroke-width="10" stroke="rgb(0,0,0)" />
	<path d="M179.988,13860 179.988,13798.6 241.421,13860 179.988,13860 z " fill-rule="evenodd" fill="rgb(255,0,0)" stroke-width="10" stroke="rgb(0,0,0)" />
	<path d="M100,2091.03 286.936,2091.03 100,2277.97 100,2091.03 z " fill-rule="evenodd" fill="rgb(255,0,0)" stroke-width="10" stroke="rgb(0,0,0)" />
	<path d="M507.705,2091.03 694.641,2091.03 507.705,2277.97 507.705,2091.03 z " fill-rule="evenodd" fill="rgb(255,0,0)" stroke-width="10" stroke="rgb(0,0,0)" />
	<path d="M199.185,16560 386.12,16560 199.185,16746.9 199.185,16560 z " fill-rule="evenodd" fill="rgb(255,0,0)" stroke-width="10" stroke="rgb(0,0,0)" />
	<path d="M199.185,17220 386.12,17220 199.185,17406.9 199.185,17220 z " fill-rule="evenodd" fill="rgb(255,0,0)" stroke-width="10" stroke="rgb(0,0,0)" />
	<path d="M694.641,2277.97 507.705,2277.97 694.641,2091.03 694.641,2277.97 z " fill-rule="evenodd" fill="rgb(255,0,0)" stroke-width="10" stroke="rgb(0,0,0)" />
	<path d="M199.185,17880 386.12,17880 199.185,18066.9 199.185,17880 z " fill-rule="evenodd" fill="rgb(255,0,0)" stroke-width="10" stroke="rgb(0,0,0)" />
	<path d="M500.003,23905.6 567.436,23905.6 627.187,23965.3 500.003,24092.5 500.003,23905.6 z " fill-rule="evenodd" fill="rgb(255,0,0)" stroke-width="10" stroke="rgb(0,0,0)" />
</svg>
