<?xml version="1.0" standalone="no" ?>
<!DOCTYPE svg PUBLIC "-//W3C//DTD SVG 1.1//EN" "http://www.w3.org/Graphics/SVG/1.1/DTD/svg11.dtd">
<svg width="8700px" height="7052px" xmlns="http://www.w3.org/2000/svg" version="1.1" >
	<path d="M5378.51,1766.48 4954.24,2190.74 5378.51,2615.01 5802.77,2190.74 5378.51,1766.48 z " fill-rule="evenodd" fill="rgb(0,128,0)" stroke-width="5" stroke="rgb(0,0,0)" />
	<path d="M4521.49,3480.51 4097.23,3904.77 4521.49,4329.03 4945.76,3904.77 4521.49,3480.51 z " fill-rule="evenodd" fill="rgb(0,128,0)" stroke-width="5" stroke="rgb(0,0,0)" />
	<path d="M4950,1337.97 4525.74,1762.24 4950,2186.5 5374.26,1762.24 4950,1337.97 z " fill-rule="evenodd" fill="rgb(0,128,0)" stroke-width="5" stroke="rgb(0,0,0)" />
	<path d="M5807.01,2194.99 5382.75,2619.25 5807.01,3043.51 6231.28,2619.25 5807.01,2194.99 z " fill-rule="evenodd" fill="rgb(0,128,0)" stroke-width="5" stroke="rgb(0,0,0)" />
	<path d="M4521.49,1766.48 4097.23,2190.74 4521.49,2615.01 4945.76,2190.74 4521.49,1766.48 z " fill-rule="evenodd" fill="rgb(0,128,0)" stroke-width="5" stroke="rgb(0,0,0)" />
	<path d="M5807.01,3052 5382.75,3476.26 5807.01,3900.53 6231.28,3476.26 5807.01,3052 z " fill-rule="evenodd" fill="rgb(0,128,0)" stroke-width="5" stroke="rgb(0,0,0)" />
	<path d="M5807.01,3909.01 5382.75,4333.28 5807.01,4757.54 6231.28,4333.28 5807.01,3909.01 z " fill-rule="evenodd" fill="rgb(0,128,0)" stroke-width="5" stroke="rgb(0,0,0)" />
	<path d="M6235.52,1766.48 5811.26,2190.74 6235.52,2615.01 6659.78,2190.74 6235.52,1766.48 z " fill-rule="evenodd" fill="rgb(0,128,0)" stroke-width="5" stroke="rgb(0,0,0)" />
	<path d="M6235.52,2623.49 5811.26,3047.76 6235.52,3472.02 6659.78,3047.76 6235.52,2623.49 z " fill-rule="evenodd" fill="rgb(0,128,0)" stroke-width="5" stroke="rgb(0,0,0)" />
	<path d="M4092.99,1337.97 3668.72,1762.24 4092.99,2186.5 4517.25,1762.24 4092.99,1337.97 z " fill-rule="evenodd" fill="rgb(0,128,0)" stroke-width="5" stroke="rgb(0,0,0)" />
	<path d="M3664.48,1766.48 3240.22,2190.74 3664.48,2615.01 4088.74,2190.74 3664.48,1766.48 z " fill-rule="evenodd" fill="rgb(0,128,0)" stroke-width="5" stroke="rgb(0,0,0)" />
	<path d="M6235.52,3480.51 5811.26,3904.77 6235.52,4329.03 6659.78,3904.77 6235.52,3480.51 z " fill-rule="evenodd" fill="rgb(0,128,0)" stroke-width="5" stroke="rgb(0,0,0)" />
	<path d="M6235.52,4337.52 5811.26,4761.78 6235.52,5186.05 6659.78,4761.78 6235.52,4337.52 z " fill-rule="evenodd" fill="rgb(0,128,0)" stroke-width="5" stroke="rgb(0,0,0)" />
	<path d="M6664.03,2194.99 6239.76,2619.25 6664.03,3043.51 7088.29,2619.25 6664.03,2194.99 z " fill-rule="evenodd" fill="rgb(0,128,0)" stroke-width="5" stroke="rgb(0,0,0)" />
	<path d="M6664.03,3052 6239.76,3476.26 6664.03,3900.53 7088.29,3476.26 6664.03,3052 z " fill-rule="evenodd" fill="rgb(0,128,0)" stroke-width="5" stroke="rgb(0,0,0)" />
	<path d="M6664.03,3909.01 6239.76,4333.28 6664.03,4757.54 7088.29,4333.28 6664.03,3909.01 z " fill-rule="evenodd" fill="rgb(0,128,0)" stroke-width="5" stroke="rgb(0,0,0)" />
	<path d="M7092.53,2623.49 6668.27,3047.76 7092.53,3472.02 7516.8,3047.76 7092.53,2623.49 z " fill-rule="evenodd" fill="rgb(0,128,0)" stroke-width="5" stroke="rgb(0,0,0)" />
	<path d="M7092.53,3480.51 6668.27,3904.77 7092.53,4329.03 7516.8,3904.77 7092.53,3480.51 z " fill-rule="evenodd" fill="rgb(0,128,0)" stroke-width="5" stroke="rgb(0,0,0)" />
	<path d="M2807.47,1766.48 2383.2,2190.74 2807.47,2615.01 3231.73,2190.74 2807.47,1766.48 z " fill-rule="evenodd" fill="rgb(0,128,0)" stroke-width="5" stroke="rgb(0,0,0)" />
	<path d="M7092.53,4337.52 6668.27,4761.78 7092.53,5186.05 7516.8,4761.78 7092.53,4337.52 z " fill-rule="evenodd" fill="rgb(0,128,0)" stroke-width="5" stroke="rgb(0,0,0)" />
	<path d="M7521.04,3052 7096.78,3476.26 7521.04,3900.53 7945.3,3476.26 7521.04,3052 z " fill-rule="evenodd" fill="rgb(0,128,0)" stroke-width="5" stroke="rgb(0,0,0)" />
	<path d="M7521.04,3909.01 7096.78,4333.28 7521.04,4757.54 7945.3,4333.28 7521.04,3909.01 z " fill-rule="evenodd" fill="rgb(0,128,0)" stroke-width="5" stroke="rgb(0,0,0)" />
	<path d="M2378.96,2194.99 1954.7,2619.25 2378.96,3043.51 2803.22,2619.25 2378.96,2194.99 z " fill-rule="evenodd" fill="rgb(0,128,0)" stroke-width="5" stroke="rgb(0,0,0)" />
	<path d="M2378.96,3052 1954.7,3476.26 2378.96,3900.53 2803.22,3476.26 2378.96,3052 z " fill-rule="evenodd" fill="rgb(0,128,0)" stroke-width="5" stroke="rgb(0,0,0)" />
	<path d="M2378.96,3909.01 1954.7,4333.28 2378.96,4757.54 2803.22,4333.28 2378.96,3909.01 z " fill-rule="evenodd" fill="rgb(0,128,0)" stroke-width="5" stroke="rgb(0,0,0)" />
	<path d="M2378.96,4766.03 1954.7,5190.29 2378.96,5614.55 2803.22,5190.29 2378.96,4766.03 z " fill-rule="evenodd" fill="rgb(0,128,0)" stroke-width="5" stroke="rgb(0,0,0)" />
	<path d="M2378.96,5623.04 1954.7,6047.3 2378.96,6471.57 2803.22,6047.3 2378.96,5623.04 z " fill-rule="evenodd" fill="rgb(0,128,0)" stroke-width="5" stroke="rgb(0,0,0)" />
	<path d="M7949.55,2623.49 7525.28,3047.76 7949.55,3472.02 8373.81,3047.76 7949.55,2623.49 z " fill-rule="evenodd" fill="rgb(0,128,0)" stroke-width="5" stroke="rgb(0,0,0)" />
	<path d="M7949.55,3480.51 7525.28,3904.77 7949.55,4329.03 8373.81,3904.77 7949.55,3480.51 z " fill-rule="evenodd" fill="rgb(0,128,0)" stroke-width="5" stroke="rgb(0,0,0)" />
	<path d="M7949.55,4337.52 7525.28,4761.78 7949.55,5186.05 8373.81,4761.78 7949.55,4337.52 z " fill-rule="evenodd" fill="rgb(0,128,0)" stroke-width="5" stroke="rgb(0,0,0)" />
	<path d="M1950.45,1766.48 1526.19,2190.74 1950.45,2615.01 2374.72,2190.74 1950.45,1766.48 z " fill-rule="evenodd" fill="rgb(0,128,0)" stroke-width="5" stroke="rgb(0,0,0)" />
	<path d="M1950.45,3480.51 1526.19,3904.77 1950.45,4329.03 2374.72,3904.77 1950.45,3480.51 z " fill-rule="evenodd" fill="rgb(0,128,0)" stroke-width="5" stroke="rgb(0,0,0)" />
	<path d="M1950.45,4337.52 1526.19,4761.78 1950.45,5186.05 2374.72,4761.78 1950.45,4337.52 z " fill-rule="evenodd" fill="rgb(0,128,0)" stroke-width="5" stroke="rgb(0,0,0)" />
	<path d="M1950.45,5194.53 1526.19,5618.8 1950.45,6043.06 2374.72,5618.8 1950.45,5194.53 z " fill-rule="evenodd" fill="rgb(0,128,0)" stroke-width="5" stroke="rgb(0,0,0)" />
	<path d="M1950.45,6051.55 1526.19,6475.81 1950.45,6900.08 2374.72,6475.81 1950.45,6051.55 z " fill-rule="evenodd" fill="rgb(0,128,0)" stroke-width="5" stroke="rgb(0,0,0)" />
	<path d="M1521.95,3909.01 1097.68,4333.28 1521.95,4757.54 1946.21,4333.28 1521.95,3909.01 z " fill-rule="evenodd" fill="rgb(0,128,0)" stroke-width="5" stroke="rgb(0,0,0)" />
	<path d="M1521.95,4766.03 1097.68,5190.29 1521.95,5614.55 1946.21,5190.29 1521.95,4766.03 z " fill-rule="evenodd" fill="rgb(0,128,0)" stroke-width="5" stroke="rgb(0,0,0)" />
	<path d="M1521.95,5623.04 1097.68,6047.3 1521.95,6471.57 1946.21,6047.3 1521.95,5623.04 z " fill-rule="evenodd" fill="rgb(0,128,0)" stroke-width="5" stroke="rgb(0,0,0)" />
	<path d="M1093.44,1766.48 669.176,2190.74 1093.44,2615.01 1517.7,2190.74 1093.44,1766.48 z " fill-rule="evenodd" fill="rgb(0,128,0)" stroke-width="5" stroke="rgb(0,0,0)" />
	<path d="M1093.44,3480.51 669.176,3904.77 1093.44,4329.03 1517.7,3904.77 1093.44,3480.51 z " fill-rule="evenodd" fill="rgb(0,128,0)" stroke-width="5" stroke="rgb(0,0,0)" />
	<path d="M1093.44,4337.52 669.176,4761.78 1093.44,5186.05 1517.7,4761.78 1093.44,4337.52 z " fill-rule="evenodd" fill="rgb(0,128,0)" stroke-width="5" stroke="rgb(0,0,0)" />
	<path d="M1093.44,5194.53 669.176,5618.8 1093.44,6043.06 1517.7,5618.8 1093.44,5194.53 z " fill-rule="evenodd" fill="rgb(0,128,0)" stroke-width="5" stroke="rgb(0,0,0)" />
	<path d="M1093.44,6051.55 669.176,6475.81 1093.44,6900.08 1517.7,6475.81 1093.44,6051.55 z " fill-rule="evenodd" fill="rgb(0,128,0)" stroke-width="5" stroke="rgb(0,0,0)" />
	<path d="M664.933,3909.01 240.669,4333.28 664.933,4757.54 1089.2,4333.28 664.933,3909.01 z " fill-rule="evenodd" fill="rgb(0,128,0)" stroke-width="5" stroke="rgb(0,0,0)" />
	<path d="M664.933,4766.03 240.669,5190.29 664.933,5614.55 1089.2,5190.29 664.933,4766.03 z " fill-rule="evenodd" fill="rgb(0,128,0)" stroke-width="5" stroke="rgb(0,0,0)" />
	<path d="M664.933,5623.04 240.669,6047.3 664.933,6471.57 1089.2,6047.3 664.933,5623.04 z " fill-rule="evenodd" fill="rgb(0,128,0)" stroke-width="5" stroke="rgb(0,0,0)" />
	<path d="M4525.74,2619.25 4950,2194.99 5374.26,2619.25 5041.51,2952 4900,2952 4900,2993.51 4525.74,2619.25 z " fill-rule="evenodd" fill="rgb(255,0,0)" stroke-width="5" stroke="rgb(0,0,0)" />
	<path d="M4521.49,2623.49 4900,3002 4900,3052 4941.51,3052 4521.49,3472.02 4101.47,3052 4200,3052 4200,2952 4192.99,2952 4521.49,2623.49 z " fill-rule="evenodd" fill="rgb(255,0,0)" stroke-width="5" stroke="rgb(0,0,0)" />
	<path d="M5378.51,2623.49 5802.77,3047.76 5378.51,3472.02 5050,3143.51 5050,2952 5050,2952 5378.51,2623.49 z " fill-rule="evenodd" fill="rgb(255,0,0)" stroke-width="5" stroke="rgb(0,0,0)" />
	<path d="M4525.74,3476.26 4950,3052 4950,3900.53 4525.74,3476.26 z " fill-rule="evenodd" fill="rgb(255,0,0)" stroke-width="5" stroke="rgb(0,0,0)" />
	<path d="M5374.26,3476.26 5050,3800.53 5050,3152 5374.26,3476.26 z " fill-rule="evenodd" fill="rgb(255,0,0)" stroke-width="5" stroke="rgb(0,0,0)" />
	<path d="M5378.51,3480.51 5802.77,3904.77 5378.51,4329.03 5050,4000.53 5050,3809.01 5378.51,3480.51 z " fill-rule="evenodd" fill="rgb(255,0,0)" stroke-width="5" stroke="rgb(0,0,0)" />
	<path d="M4525.74,4333.28 4950,3909.01 4950,4757.54 4525.74,4333.28 z " fill-rule="evenodd" fill="rgb(255,0,0)" stroke-width="5" stroke="rgb(0,0,0)" />
	<path d="M5374.26,4333.28 5050,4657.54 5050,4009.01 5374.26,4333.28 z " fill-rule="evenodd" fill="rgb(255,0,0)" stroke-width="5" stroke="rgb(0,0,0)" />
	<path d="M4097.23,4761.78 4521.49,4337.52 4945.76,4761.78 4755.54,4952 4287.45,4952 4097.23,4761.78 z " fill-rule="evenodd" fill="rgb(255,0,0)" stroke-width="5" stroke="rgb(0,0,0)" />
	<path d="M5378.51,1757.99 4954.24,1333.73 5021.83,1266.14 5625.32,1511.18 5378.51,1757.99 z " fill-rule="evenodd" fill="rgb(255,0,0)" stroke-width="5" stroke="rgb(0,0,0)" />
	<path d="M6231.28,1762.24 5807.01,2186.5 5382.75,1762.24 5631.36,1513.63 6222.83,1753.79 6231.28,1762.24 z " fill-rule="evenodd" fill="rgb(255,0,0)" stroke-width="5" stroke="rgb(0,0,0)" />
	<path d="M3668.72,2619.25 4092.99,2194.99 4517.25,2619.25 4184.5,2952 4001.47,2952 3668.72,2619.25 z " fill-rule="evenodd" fill="rgb(255,0,0)" stroke-width="5" stroke="rgb(0,0,0)" />
	<path d="M4092.99,3052 4517.25,3476.26 4092.99,3900.53 3700,3507.54 3700,3444.99 4092.99,3052 z " fill-rule="evenodd" fill="rgb(255,0,0)" stroke-width="5" stroke="rgb(0,0,0)" />
	<path d="M4092.99,3909.01 4517.25,4333.28 4092.99,4757.54 3700,4364.55 3700,4302 4092.99,3909.01 z " fill-rule="evenodd" fill="rgb(255,0,0)" stroke-width="5" stroke="rgb(0,0,0)" />
	<path d="M4092.99,4766.03 4278.96,4952 3907.01,4952 4092.99,4766.03 z " fill-rule="evenodd" fill="rgb(255,0,0)" stroke-width="5" stroke="rgb(0,0,0)" />
	<path d="M5378.51,4337.52 5802.77,4761.78 5378.51,5186.05 5050,4857.54 5050,4666.03 5378.51,4337.52 z " fill-rule="evenodd" fill="rgb(255,0,0)" stroke-width="5" stroke="rgb(0,0,0)" />
	<path d="M4950,4766.03 4950,4952 4764.03,4952 4950,4766.03 z " fill-rule="evenodd" fill="rgb(255,0,0)" stroke-width="5" stroke="rgb(0,0,0)" />
	<path d="M5374.26,5190.29 5050,5514.55 5050,4866.03 5374.26,5190.29 z " fill-rule="evenodd" fill="rgb(255,0,0)" stroke-width="5" stroke="rgb(0,0,0)" />
	<path d="M4950,1329.49 4794.25,1173.73 5015.8,1263.69 4950,1329.49 z " fill-rule="evenodd" fill="rgb(255,0,0)" stroke-width="5" stroke="rgb(0,0,0)" />
	<path d="M4945.76,1333.73 4521.49,1757.99 4097.23,1333.73 4412.31,1018.65 4779.96,1167.93 4945.76,1333.73 z " fill-rule="evenodd" fill="rgb(255,0,0)" stroke-width="5" stroke="rgb(0,0,0)" />
	<path d="M3664.48,2623.49 3992.99,2952 3335.97,2952 3664.48,2623.49 z " fill-rule="evenodd" fill="rgb(255,0,0)" stroke-width="5" stroke="rgb(0,0,0)" />
	<path d="M3700,3436.5 3700,3052 4084.5,3052 3700,3436.5 z " fill-rule="evenodd" fill="rgb(255,0,0)" stroke-width="5" stroke="rgb(0,0,0)" />
	<path d="M4088.74,3904.77 3700,4293.51 3700,3516.03 4088.74,3904.77 z " fill-rule="evenodd" fill="rgb(255,0,0)" stroke-width="5" stroke="rgb(0,0,0)" />
	<path d="M4088.74,4761.78 3898.53,4952 3700,4952 3700,4373.04 4088.74,4761.78 z " fill-rule="evenodd" fill="rgb(255,0,0)" stroke-width="5" stroke="rgb(0,0,0)" />
	<path d="M5382.75,5190.29 5807.01,4766.03 6231.28,5190.29 5869.57,5552 5744.46,5552 5382.75,5190.29 z " fill-rule="evenodd" fill="rgb(255,0,0)" stroke-width="5" stroke="rgb(0,0,0)" />
	<path d="M5378.51,5194.53 5735.97,5552 5050,5552 5050,5523.04 5378.51,5194.53 z " fill-rule="evenodd" fill="rgb(255,0,0)" stroke-width="5" stroke="rgb(0,0,0)" />
	<path d="M4092.99,1329.49 3668.72,905.224 3802.78,771.165 4406.27,1016.2 4092.99,1329.49 z " fill-rule="evenodd" fill="rgb(255,0,0)" stroke-width="5" stroke="rgb(0,0,0)" />
	<path d="M6664.03,2186.5 6239.76,1762.24 6240.88,1761.12 6844.37,2006.16 6664.03,2186.5 z " fill-rule="evenodd" fill="rgb(255,0,0)" stroke-width="5" stroke="rgb(0,0,0)" />
	<path d="M3664.48,909.466 4088.74,1333.73 3664.48,1757.99 3251.3,1344.81 3266.41,1307.53 3664.48,909.466 z " fill-rule="evenodd" fill="rgb(255,0,0)" stroke-width="5" stroke="rgb(0,0,0)" />
	<path d="M3085.5,1488.45 3080,1502 3071.95,1502 3085.5,1488.45 z " fill-rule="evenodd" fill="rgb(255,0,0)" stroke-width="5" stroke="rgb(0,0,0)" />
	<path d="M3660.24,1762.24 3235.97,2186.5 2811.71,1762.24 2971.95,1602 3147,1602 3248.85,1350.85 3660.24,1762.24 z " fill-rule="evenodd" fill="rgb(255,0,0)" stroke-width="5" stroke="rgb(0,0,0)" />
	<path d="M2811.71,2619.25 3235.97,2194.99 3660.24,2619.25 3327.49,2952 3144.46,2952 2811.71,2619.25 z " fill-rule="evenodd" fill="rgb(255,0,0)" stroke-width="5" stroke="rgb(0,0,0)" />
	<path d="M2811.71,3476.26 2900,3387.97 2900,3564.55 2811.71,3476.26 z " fill-rule="evenodd" fill="rgb(255,0,0)" stroke-width="5" stroke="rgb(0,0,0)" />
	<path d="M2811.71,4333.28 2900,4244.99 2900,4421.57 2811.71,4333.28 z " fill-rule="evenodd" fill="rgb(255,0,0)" stroke-width="5" stroke="rgb(0,0,0)" />
	<path d="M2811.71,5190.29 2900,5102 2900,5278.58 2811.71,5190.29 z " fill-rule="evenodd" fill="rgb(255,0,0)" stroke-width="5" stroke="rgb(0,0,0)" />
	<path d="M2811.71,6047.3 2900,5959.01 2900,6052 3100,6052 3100,6335.6 2811.71,6047.3 z " fill-rule="evenodd" fill="rgb(255,0,0)" stroke-width="5" stroke="rgb(0,0,0)" />
	<path d="M6239.76,5190.29 6664.03,4766.03 7088.29,5190.29 6726.58,5552 6601.47,5552 6239.76,5190.29 z " fill-rule="evenodd" fill="rgb(255,0,0)" stroke-width="5" stroke="rgb(0,0,0)" />
	<path d="M6235.52,5194.53 6592.99,5552 5878.05,5552 6235.52,5194.53 z " fill-rule="evenodd" fill="rgb(255,0,0)" stroke-width="5" stroke="rgb(0,0,0)" />
	<path d="M3350.36,586.858 3437,622 3422.14,658.638 3350.36,586.858 z " fill-rule="evenodd" fill="rgb(255,0,0)" stroke-width="5" stroke="rgb(0,0,0)" />
	<path d="M3664.48,900.981 3498.56,735.062 3529,660 3796.75,768.714 3664.48,900.981 z " fill-rule="evenodd" fill="rgb(255,0,0)" stroke-width="5" stroke="rgb(0,0,0)" />
	<path d="M7092.53,2615.01 6668.27,2190.74 6850.41,2008.61 7453.9,2253.64 7092.53,2615.01 z " fill-rule="evenodd" fill="rgb(255,0,0)" stroke-width="5" stroke="rgb(0,0,0)" />
	<path d="M2811.71,905.224 3193.64,523.294 3336.08,581.068 3419.69,664.674 3174.8,1268.32 2811.71,905.224 z " fill-rule="evenodd" fill="rgb(255,0,0)" stroke-width="5" stroke="rgb(0,0,0)" />
	<path d="M3660.24,905.224 3272.2,1293.26 3496.11,741.099 3660.24,905.224 z " fill-rule="evenodd" fill="rgb(255,0,0)" stroke-width="5" stroke="rgb(0,0,0)" />
	<path d="M2807.47,1757.99 2383.2,1333.73 2807.47,909.466 3172.35,1274.35 3091.29,1474.17 3063.46,1502 2950,1502 2950,1602 2963.46,1602 2807.47,1757.99 z " fill-rule="evenodd" fill="rgb(255,0,0)" stroke-width="5" stroke="rgb(0,0,0)" />
	<path d="M2807.47,3472.02 2383.2,3047.76 2807.47,2623.49 3135.97,2952 2850,2952 2850,3152 2900,3152 2900,3379.49 2807.47,3472.02 z " fill-rule="evenodd" fill="rgb(255,0,0)" stroke-width="5" stroke="rgb(0,0,0)" />
	<path d="M2807.47,4329.03 2383.2,3904.77 2807.47,3480.51 2900,3573.04 2900,4236.5 2807.47,4329.03 z " fill-rule="evenodd" fill="rgb(255,0,0)" stroke-width="5" stroke="rgb(0,0,0)" />
	<path d="M2807.47,5186.05 2383.2,4761.78 2807.47,4337.52 2900,4430.05 2900,5093.51 2807.47,5186.05 z " fill-rule="evenodd" fill="rgb(255,0,0)" stroke-width="5" stroke="rgb(0,0,0)" />
	<path d="M2807.47,6043.06 2383.2,5618.8 2807.47,5194.53 2900,5287.07 2900,5950.53 2807.47,6043.06 z " fill-rule="evenodd" fill="rgb(255,0,0)" stroke-width="5" stroke="rgb(0,0,0)" />
	<path d="M2807.47,6900.08 2383.2,6475.81 2807.47,6051.55 3100,6344.08 3100,6607.54 2807.47,6900.08 z " fill-rule="evenodd" fill="rgb(255,0,0)" stroke-width="5" stroke="rgb(0,0,0)" />
	<path d="M2811.71,6904.32 3100,6616.03 3100,6852 2900,6852 2900,6952 2859.39,6952 2811.71,6904.32 z " fill-rule="evenodd" fill="rgb(255,0,0)" stroke-width="5" stroke="rgb(0,0,0)" />
	<path d="M2807.47,6908.56 2850.91,6952 2764.03,6952 2807.47,6908.56 z " fill-rule="evenodd" fill="rgb(255,0,0)" stroke-width="5" stroke="rgb(0,0,0)" />
	<path d="M7092.53,5194.53 7450,5552 6735.07,5552 7092.53,5194.53 z " fill-rule="evenodd" fill="rgb(255,0,0)" stroke-width="5" stroke="rgb(0,0,0)" />
	<path d="M7945.3,2619.25 7521.04,3043.51 7096.78,2619.25 7459.93,2256.09 7665.69,2339.64 7945.3,2619.25 z " fill-rule="evenodd" fill="rgb(255,0,0)" stroke-width="5" stroke="rgb(0,0,0)" />
	<path d="M2807.47,900.981 2383.2,476.717 2583.92,275.997 3187.6,520.846 2807.47,900.981 z " fill-rule="evenodd" fill="rgb(255,0,0)" stroke-width="5" stroke="rgb(0,0,0)" />
	<path d="M2378.96,480.96 2803.22,905.224 2378.96,1329.49 2150,1100.53 2150,709.919 2378.96,480.96 z " fill-rule="evenodd" fill="rgb(255,0,0)" stroke-width="5" stroke="rgb(0,0,0)" />
	<path d="M2378.96,1337.97 2803.22,1762.24 2378.96,2186.5 1954.7,1762.24 2114.93,1602 2150,1602 2150,1566.93 2378.96,1337.97 z " fill-rule="evenodd" fill="rgb(255,0,0)" stroke-width="5" stroke="rgb(0,0,0)" />
	<path d="M1954.7,6904.32 2378.96,6480.05 2803.22,6904.32 2755.54,6952 2002.38,6952 1954.7,6904.32 z " fill-rule="evenodd" fill="rgb(255,0,0)" stroke-width="5" stroke="rgb(0,0,0)" />
	<path d="M7096.78,5190.29 7521.04,4766.03 7945.3,5190.29 7583.6,5552 7458.49,5552 7096.78,5190.29 z " fill-rule="evenodd" fill="rgb(255,0,0)" stroke-width="5" stroke="rgb(0,0,0)" />
	<path d="M7949.55,2615.01 7679.98,2345.44 8063.42,2501.13 7949.55,2615.01 z " fill-rule="evenodd" fill="rgb(255,0,0)" stroke-width="5" stroke="rgb(0,0,0)" />
	<path d="M2378.96,472.474 2150,243.515 2150,100 2577.89,273.548 2378.96,472.474 z " fill-rule="evenodd" fill="rgb(255,0,0)" stroke-width="5" stroke="rgb(0,0,0)" />
	<path d="M2374.72,476.717 2150,701.434 2150,252 2374.72,476.717 z " fill-rule="evenodd" fill="rgb(255,0,0)" stroke-width="5" stroke="rgb(0,0,0)" />
	<path d="M1950.45,1757.99 1794.46,1602 2106.45,1602 1950.45,1757.99 z " fill-rule="evenodd" fill="rgb(255,0,0)" stroke-width="5" stroke="rgb(0,0,0)" />
	<path d="M2374.72,1333.73 2150,1558.45 2150,1109.01 2374.72,1333.73 z " fill-rule="evenodd" fill="rgb(255,0,0)" stroke-width="5" stroke="rgb(0,0,0)" />
	<path d="M1950.45,2623.49 2374.72,3047.76 1950.45,3472.02 1630.43,3152 2050,3152 2050,2952 1621.95,2952 1950.45,2623.49 z " fill-rule="evenodd" fill="rgb(255,0,0)" stroke-width="5" stroke="rgb(0,0,0)" />
	<path d="M1950.45,6908.56 1993.89,6952 1907.01,6952 1950.45,6908.56 z " fill-rule="evenodd" fill="rgb(255,0,0)" stroke-width="5" stroke="rgb(0,0,0)" />
	<path d="M7949.55,5194.53 8307.01,5552 7592.08,5552 7949.55,5194.53 z " fill-rule="evenodd" fill="rgb(255,0,0)" stroke-width="5" stroke="rgb(0,0,0)" />
	<path d="M8378.05,3043.51 7953.79,2619.25 8069.46,2503.58 8600,2719 8600,2821.57 8378.05,3043.51 z " fill-rule="evenodd" fill="rgb(255,0,0)" stroke-width="5" stroke="rgb(0,0,0)" />
	<path d="M8378.05,3900.53 7953.79,3476.26 8378.05,3052 8600,3273.95 8600,3678.58 8378.05,3900.53 z " fill-rule="evenodd" fill="rgb(255,0,0)" stroke-width="5" stroke="rgb(0,0,0)" />
	<path d="M8378.05,4757.54 7953.79,4333.28 8378.05,3909.01 8600,4130.96 8600,4535.6 8378.05,4757.54 z " fill-rule="evenodd" fill="rgb(255,0,0)" stroke-width="5" stroke="rgb(0,0,0)" />
	<path d="M7953.79,5190.29 8378.05,4766.03 8600,4987.97 8600,5392.61 8440.61,5552 8315.5,5552 7953.79,5190.29 z " fill-rule="evenodd" fill="rgb(255,0,0)" stroke-width="5" stroke="rgb(0,0,0)" />
	<path d="M1946.21,1762.24 1521.95,2186.5 1097.68,1762.24 1357.92,1502 1400,1502 1400,1602 1785.97,1602 1946.21,1762.24 z " fill-rule="evenodd" fill="rgb(255,0,0)" stroke-width="5" stroke="rgb(0,0,0)" />
	<path d="M1097.68,2619.25 1521.95,2194.99 1946.21,2619.25 1613.46,2952 1430.43,2952 1097.68,2619.25 z " fill-rule="evenodd" fill="rgb(255,0,0)" stroke-width="5" stroke="rgb(0,0,0)" />
	<path d="M1946.21,3476.26 1521.95,3900.53 1097.68,3476.26 1421.95,3152 1621.95,3152 1946.21,3476.26 z " fill-rule="evenodd" fill="rgb(255,0,0)" stroke-width="5" stroke="rgb(0,0,0)" />
	<path d="M1097.68,6904.32 1521.95,6480.05 1946.21,6904.32 1898.53,6952 1145.36,6952 1097.68,6904.32 z " fill-rule="evenodd" fill="rgb(255,0,0)" stroke-width="5" stroke="rgb(0,0,0)" />
	<path d="M8382.3,3047.76 8600,2830.05 8600,3265.46 8382.3,3047.76 z " fill-rule="evenodd" fill="rgb(255,0,0)" stroke-width="5" stroke="rgb(0,0,0)" />
	<path d="M8382.3,3904.77 8600,3687.07 8600,4122.47 8382.3,3904.77 z " fill-rule="evenodd" fill="rgb(255,0,0)" stroke-width="5" stroke="rgb(0,0,0)" />
	<path d="M8382.3,4761.78 8600,4544.08 8600,4979.49 8382.3,4761.78 z " fill-rule="evenodd" fill="rgb(255,0,0)" stroke-width="5" stroke="rgb(0,0,0)" />
	<path d="M8600,5401.09 8600,5552 8449.09,5552 8600,5401.09 z " fill-rule="evenodd" fill="rgb(255,0,0)" stroke-width="5" stroke="rgb(0,0,0)" />
	<path d="M1093.44,1757.99 837.445,1502 1349.43,1502 1093.44,1757.99 z " fill-rule="evenodd" fill="rgb(255,0,0)" stroke-width="5" stroke="rgb(0,0,0)" />
	<path d="M1093.44,2623.49 1421.95,2952 764.933,2952 1093.44,2623.49 z " fill-rule="evenodd" fill="rgb(255,0,0)" stroke-width="5" stroke="rgb(0,0,0)" />
	<path d="M1093.44,3472.02 773.418,3152 1413.46,3152 1093.44,3472.02 z " fill-rule="evenodd" fill="rgb(255,0,0)" stroke-width="5" stroke="rgb(0,0,0)" />
	<path d="M1093.44,6908.56 1136.88,6952 1050,6952 1093.44,6908.56 z " fill-rule="evenodd" fill="rgb(255,0,0)" stroke-width="5" stroke="rgb(0,0,0)" />
	<path d="M1089.2,1762.24 664.933,2186.5 240.669,1762.24 400.906,1602 700,1602 700,1502 828.96,1502 1089.2,1762.24 z " fill-rule="evenodd" fill="rgb(255,0,0)" stroke-width="5" stroke="rgb(0,0,0)" />
	<path d="M240.669,2619.25 664.933,2194.99 1089.2,2619.25 756.448,2952 573.418,2952 240.669,2619.25 z " fill-rule="evenodd" fill="rgb(255,0,0)" stroke-width="5" stroke="rgb(0,0,0)" />
	<path d="M1089.2,3476.26 664.933,3900.53 240.669,3476.26 564.933,3152 764.933,3152 1089.2,3476.26 z " fill-rule="evenodd" fill="rgb(255,0,0)" stroke-width="5" stroke="rgb(0,0,0)" />
	<path d="M240.669,6904.32 664.933,6480.05 1089.2,6904.32 1041.51,6952 288.351,6952 240.669,6904.32 z " fill-rule="evenodd" fill="rgb(255,0,0)" stroke-width="5" stroke="rgb(0,0,0)" />
	<path d="M236.426,1757.99 100,1621.57 100,1602 392.421,1602 236.426,1757.99 z " fill-rule="evenodd" fill="rgb(255,0,0)" stroke-width="5" stroke="rgb(0,0,0)" />
	<path d="M236.426,1766.48 660.69,2190.74 236.426,2615.01 100,2478.58 100,1902.91 236.426,1766.48 z " fill-rule="evenodd" fill="rgb(255,0,0)" stroke-width="5" stroke="rgb(0,0,0)" />
	<path d="M236.426,2623.49 564.933,2952 100,2952 100,2759.92 236.426,2623.49 z " fill-rule="evenodd" fill="rgb(255,0,0)" stroke-width="5" stroke="rgb(0,0,0)" />
	<path d="M236.426,3472.02 100,3335.6 100,3152 556.448,3152 236.426,3472.02 z " fill-rule="evenodd" fill="rgb(255,0,0)" stroke-width="5" stroke="rgb(0,0,0)" />
	<path d="M236.426,3480.51 660.69,3904.77 236.426,4329.03 100,4192.61 100,3616.93 236.426,3480.51 z " fill-rule="evenodd" fill="rgb(255,0,0)" stroke-width="5" stroke="rgb(0,0,0)" />
	<path d="M236.426,4337.52 660.69,4761.78 236.426,5186.05 100,5049.62 100,4473.95 236.426,4337.52 z " fill-rule="evenodd" fill="rgb(255,0,0)" stroke-width="5" stroke="rgb(0,0,0)" />
	<path d="M236.426,5194.53 660.69,5618.8 236.426,6043.06 100,5906.64 100,5330.96 236.426,5194.53 z " fill-rule="evenodd" fill="rgb(255,0,0)" stroke-width="5" stroke="rgb(0,0,0)" />
	<path d="M236.426,6051.55 660.69,6475.81 236.426,6900.08 100,6763.65 100,6187.97 236.426,6051.55 z " fill-rule="evenodd" fill="rgb(255,0,0)" stroke-width="5" stroke="rgb(0,0,0)" />
	<path d="M236.426,6908.56 279.866,6952 192.987,6952 236.426,6908.56 z " fill-rule="evenodd" fill="rgb(255,0,0)" stroke-width="5" stroke="rgb(0,0,0)" />
	<path d="M232.184,1762.24 100,1894.42 100,1630.05 232.184,1762.24 z " fill-rule="evenodd" fill="rgb(255,0,0)" stroke-width="5" stroke="rgb(0,0,0)" />
	<path d="M232.184,2619.25 100,2751.43 100,2487.07 232.184,2619.25 z " fill-rule="evenodd" fill="rgb(255,0,0)" stroke-width="5" stroke="rgb(0,0,0)" />
	<path d="M232.184,3476.26 100,3608.45 100,3344.08 232.184,3476.26 z " fill-rule="evenodd" fill="rgb(255,0,0)" stroke-width="5" stroke="rgb(0,0,0)" />
	<path d="M232.184,4333.28 100,4465.46 100,4201.09 232.184,4333.28 z " fill-rule="evenodd" fill="rgb(255,0,0)" stroke-width="5" stroke="rgb(0,0,0)" />
	<path d="M232.184,5190.29 100,5322.47 100,5058.11 232.184,5190.29 z " fill-rule="evenodd" fill="rgb(255,0,0)" stroke-width="5" stroke="rgb(0,0,0)" />
	<path d="M232.184,6047.3 100,6179.49 100,5915.12 232.184,6047.3 z " fill-rule="evenodd" fill="rgb(255,0,0)" stroke-width="5" stroke="rgb(0,0,0)" />
	<path d="M232.184,6904.32 184.501,6952 100,6952 100,6772.13 232.184,6904.32 z " fill-rule="evenodd" fill="rgb(255,0,0)" stroke-width="5" stroke="rgb(0,0,0)" />
	<polyline points="4945,3057 4520.74,3481.26 4945,3057 5369.26,3481.26 4945,3057 " fill="none" stroke-width="100" stroke="rgb(0,0,0)" />
	<circle cx="4945" cy="3057" r="-7.07107" fill="rgb(0,0,0)" />
	<circle cx="4520.74" cy="3481.26" r="-7.07107" fill="rgb(0,0,0)" />
	<circle cx="4945" cy="3057" r="-7.07107" fill="rgb(0,0,0)" />
	<circle cx="5369.26" cy="3481.26" r="-7.07107" fill="rgb(0,0,0)" />
	<circle cx="4945" cy="3057" r="-7.07107" fill="rgb(0,0,0)" />
	<polyline points="4945,3523.69 4945,3057 4011.62,3057 " fill="none" stroke-width="0.5" stroke="rgb(128,0,128)" />
</svg>
