<?xml version="1.0" standalone="no" ?>
<!DOCTYPE svg PUBLIC "-//W3C//DTD SVG 1.1//EN" "http://www.w3.org/Graphics/SVG/1.1/DTD/svg11.dtd">
<svg width="8700px" height="7052px" xmlns="http://www.w3.org/2000/svg" version="1.1" >
	<path d="M5478.51,5123.49 5902.77,4699.23 5478.51,4274.97 5054.24,4699.23 5478.51,5123.49 z " fill-rule="evenodd" fill="rgb(0,128,0)" stroke-width="5" stroke="rgb(0,0,0)" />
	<path d="M5478.51,4266.48 5902.77,3842.22 5478.51,3417.95 5054.24,3842.22 5478.51,4266.48 z " fill-rule="evenodd" fill="rgb(0,128,0)" stroke-width="5" stroke="rgb(0,0,0)" />
	<path d="M5907.01,5552 6331.28,5127.74 5907.01,4703.47 5482.75,5127.74 5907.01,5552 z " fill-rule="evenodd" fill="rgb(0,128,0)" stroke-width="5" stroke="rgb(0,0,0)" />
	<path d="M5907.01,4694.99 6331.28,4270.72 5907.01,3846.46 5482.75,4270.72 5907.01,4694.99 z " fill-rule="evenodd" fill="rgb(0,128,0)" stroke-width="5" stroke="rgb(0,0,0)" />
	<path d="M5907.01,3837.97 6331.28,3413.71 5907.01,2989.45 5482.75,3413.71 5907.01,3837.97 z " fill-rule="evenodd" fill="rgb(0,128,0)" stroke-width="5" stroke="rgb(0,0,0)" />
	<path d="M4192.99,4694.99 4617.25,4270.72 4192.99,3846.46 3768.72,4270.72 4192.99,4694.99 z " fill-rule="evenodd" fill="rgb(0,128,0)" stroke-width="5" stroke="rgb(0,0,0)" />
	<path d="M5478.51,3409.47 5902.77,2985.2 5478.51,2560.94 5054.24,2985.2 5478.51,3409.47 z " fill-rule="evenodd" fill="rgb(0,128,0)" stroke-width="5" stroke="rgb(0,0,0)" />
	<path d="M5907.01,2980.96 6331.28,2556.7 5907.01,2132.43 5482.75,2556.7 5907.01,2980.96 z " fill-rule="evenodd" fill="rgb(0,128,0)" stroke-width="5" stroke="rgb(0,0,0)" />
	<path d="M6335.52,5123.49 6759.78,4699.23 6335.52,4274.97 5911.26,4699.23 6335.52,5123.49 z " fill-rule="evenodd" fill="rgb(0,128,0)" stroke-width="5" stroke="rgb(0,0,0)" />
	<path d="M6335.52,4266.48 6759.78,3842.22 6335.52,3417.95 5911.26,3842.22 6335.52,4266.48 z " fill-rule="evenodd" fill="rgb(0,128,0)" stroke-width="5" stroke="rgb(0,0,0)" />
	<path d="M6335.52,3409.47 6759.78,2985.2 6335.52,2560.94 5911.26,2985.2 6335.52,3409.47 z " fill-rule="evenodd" fill="rgb(0,128,0)" stroke-width="5" stroke="rgb(0,0,0)" />
	<path d="M5478.51,2552.45 5902.77,2128.19 5478.51,1703.92 5054.24,2128.19 5478.51,2552.45 z " fill-rule="evenodd" fill="rgb(0,128,0)" stroke-width="5" stroke="rgb(0,0,0)" />
	<path d="M6764.03,5552 7188.29,5127.74 6764.03,4703.47 6339.76,5127.74 6764.03,5552 z " fill-rule="evenodd" fill="rgb(0,128,0)" stroke-width="5" stroke="rgb(0,0,0)" />
	<path d="M6764.03,4694.99 7188.29,4270.72 6764.03,3846.46 6339.76,4270.72 6764.03,4694.99 z " fill-rule="evenodd" fill="rgb(0,128,0)" stroke-width="5" stroke="rgb(0,0,0)" />
	<path d="M6764.03,3837.97 7188.29,3413.71 6764.03,2989.45 6339.76,3413.71 6764.03,3837.97 z " fill-rule="evenodd" fill="rgb(0,128,0)" stroke-width="5" stroke="rgb(0,0,0)" />
	<path d="M6764.03,2980.96 7188.29,2556.7 6764.03,2132.43 6339.76,2556.7 6764.03,2980.96 z " fill-rule="evenodd" fill="rgb(0,128,0)" stroke-width="5" stroke="rgb(0,0,0)" />
	<path d="M4621.49,2552.45 5045.76,2128.19 4621.49,1703.92 4197.23,2128.19 4621.49,2552.45 z " fill-rule="evenodd" fill="rgb(0,128,0)" stroke-width="5" stroke="rgb(0,0,0)" />
	<path d="M7192.53,5123.49 7616.8,4699.23 7192.53,4274.97 6768.27,4699.23 7192.53,5123.49 z " fill-rule="evenodd" fill="rgb(0,128,0)" stroke-width="5" stroke="rgb(0,0,0)" />
	<path d="M7192.53,4266.48 7616.8,3842.22 7192.53,3417.95 6768.27,3842.22 7192.53,4266.48 z " fill-rule="evenodd" fill="rgb(0,128,0)" stroke-width="5" stroke="rgb(0,0,0)" />
	<path d="M7192.53,3409.47 7616.8,2985.2 7192.53,2560.94 6768.27,2985.2 7192.53,3409.47 z " fill-rule="evenodd" fill="rgb(0,128,0)" stroke-width="5" stroke="rgb(0,0,0)" />
	<path d="M3764.48,2552.45 4188.74,2128.19 3764.48,1703.92 3340.22,2128.19 3764.48,2552.45 z " fill-rule="evenodd" fill="rgb(0,128,0)" stroke-width="5" stroke="rgb(0,0,0)" />
	<path d="M4192.99,2123.95 4617.25,1699.68 4192.99,1275.42 3768.72,1699.68 4192.99,2123.95 z " fill-rule="evenodd" fill="rgb(0,128,0)" stroke-width="5" stroke="rgb(0,0,0)" />
	<path d="M7621.04,5552 8045.3,5127.74 7621.04,4703.47 7196.78,5127.74 7621.04,5552 z " fill-rule="evenodd" fill="rgb(0,128,0)" stroke-width="5" stroke="rgb(0,0,0)" />
	<path d="M7621.04,4694.99 8045.3,4270.72 7621.04,3846.46 7196.78,4270.72 7621.04,4694.99 z " fill-rule="evenodd" fill="rgb(0,128,0)" stroke-width="5" stroke="rgb(0,0,0)" />
	<path d="M7621.04,3837.97 8045.3,3413.71 7621.04,2989.45 7196.78,3413.71 7621.04,3837.97 z " fill-rule="evenodd" fill="rgb(0,128,0)" stroke-width="5" stroke="rgb(0,0,0)" />
	<path d="M2478.96,2980.96 2903.22,2556.7 2478.96,2132.43 2054.7,2556.7 2478.96,2980.96 z " fill-rule="evenodd" fill="rgb(0,128,0)" stroke-width="5" stroke="rgb(0,0,0)" />
	<path d="M2907.47,2552.45 3331.73,2128.19 2907.47,1703.92 2483.2,2128.19 2907.47,2552.45 z " fill-rule="evenodd" fill="rgb(0,128,0)" stroke-width="5" stroke="rgb(0,0,0)" />
	<path d="M3764.48,1695.44 4188.74,1271.18 3764.48,846.911 3340.22,1271.18 3764.48,1695.44 z " fill-rule="evenodd" fill="rgb(0,128,0)" stroke-width="5" stroke="rgb(0,0,0)" />
	<path d="M8049.55,5123.49 8473.81,4699.23 8049.55,4274.97 7625.28,4699.23 8049.55,5123.49 z " fill-rule="evenodd" fill="rgb(0,128,0)" stroke-width="5" stroke="rgb(0,0,0)" />
	<path d="M8049.55,4266.48 8473.81,3842.22 8049.55,3417.95 7625.28,3842.22 8049.55,4266.48 z " fill-rule="evenodd" fill="rgb(0,128,0)" stroke-width="5" stroke="rgb(0,0,0)" />
	<path d="M8049.55,3409.47 8473.81,2985.2 8049.55,2560.94 7625.28,2985.2 8049.55,3409.47 z " fill-rule="evenodd" fill="rgb(0,128,0)" stroke-width="5" stroke="rgb(0,0,0)" />
	<path d="M2050.45,6837.52 2474.72,6413.26 2050.45,5988.99 1626.19,6413.26 2050.45,6837.52 z " fill-rule="evenodd" fill="rgb(0,128,0)" stroke-width="5" stroke="rgb(0,0,0)" />
	<path d="M2050.45,5980.51 2474.72,5556.24 2050.45,5131.98 1626.19,5556.24 2050.45,5980.51 z " fill-rule="evenodd" fill="rgb(0,128,0)" stroke-width="5" stroke="rgb(0,0,0)" />
	<path d="M2050.45,5123.49 2474.72,4699.23 2050.45,4274.97 1626.19,4699.23 2050.45,5123.49 z " fill-rule="evenodd" fill="rgb(0,128,0)" stroke-width="5" stroke="rgb(0,0,0)" />
	<path d="M2050.45,4266.48 2474.72,3842.22 2050.45,3417.95 1626.19,3842.22 2050.45,4266.48 z " fill-rule="evenodd" fill="rgb(0,128,0)" stroke-width="5" stroke="rgb(0,0,0)" />
	<path d="M2050.45,2552.45 2474.72,2128.19 2050.45,1703.92 1626.19,2128.19 2050.45,2552.45 z " fill-rule="evenodd" fill="rgb(0,128,0)" stroke-width="5" stroke="rgb(0,0,0)" />
	<path d="M2478.96,2123.95 2903.22,1699.68 2478.96,1275.42 2054.7,1699.68 2478.96,2123.95 z " fill-rule="evenodd" fill="rgb(0,128,0)" stroke-width="5" stroke="rgb(0,0,0)" />
	<path d="M1621.95,6409.01 2046.21,5984.75 1621.95,5560.49 1197.68,5984.75 1621.95,6409.01 z " fill-rule="evenodd" fill="rgb(0,128,0)" stroke-width="5" stroke="rgb(0,0,0)" />
	<path d="M1621.95,5552 2046.21,5127.74 1621.95,4703.47 1197.68,5127.74 1621.95,5552 z " fill-rule="evenodd" fill="rgb(0,128,0)" stroke-width="5" stroke="rgb(0,0,0)" />
	<path d="M1621.95,4694.99 2046.21,4270.72 1621.95,3846.46 1197.68,4270.72 1621.95,4694.99 z " fill-rule="evenodd" fill="rgb(0,128,0)" stroke-width="5" stroke="rgb(0,0,0)" />
	<path d="M1193.44,6837.52 1617.7,6413.26 1193.44,5988.99 769.176,6413.26 1193.44,6837.52 z " fill-rule="evenodd" fill="rgb(0,128,0)" stroke-width="5" stroke="rgb(0,0,0)" />
	<path d="M1193.44,5980.51 1617.7,5556.24 1193.44,5131.98 769.176,5556.24 1193.44,5980.51 z " fill-rule="evenodd" fill="rgb(0,128,0)" stroke-width="5" stroke="rgb(0,0,0)" />
	<path d="M1193.44,5123.49 1617.7,4699.23 1193.44,4274.97 769.176,4699.23 1193.44,5123.49 z " fill-rule="evenodd" fill="rgb(0,128,0)" stroke-width="5" stroke="rgb(0,0,0)" />
	<path d="M1193.44,4266.48 1617.7,3842.22 1193.44,3417.95 769.176,3842.22 1193.44,4266.48 z " fill-rule="evenodd" fill="rgb(0,128,0)" stroke-width="5" stroke="rgb(0,0,0)" />
	<path d="M1193.44,2552.45 1617.7,2128.19 1193.44,1703.92 769.176,2128.19 1193.44,2552.45 z " fill-rule="evenodd" fill="rgb(0,128,0)" stroke-width="5" stroke="rgb(0,0,0)" />
	<path d="M764.933,6409.01 1189.2,5984.75 764.933,5560.49 340.669,5984.75 764.933,6409.01 z " fill-rule="evenodd" fill="rgb(0,128,0)" stroke-width="5" stroke="rgb(0,0,0)" />
	<path d="M764.933,5552 1189.2,5127.74 764.933,4703.47 340.669,5127.74 764.933,5552 z " fill-rule="evenodd" fill="rgb(0,128,0)" stroke-width="5" stroke="rgb(0,0,0)" />
	<path d="M764.933,4694.99 1189.2,4270.72 764.933,3846.46 340.669,4270.72 764.933,4694.99 z " fill-rule="evenodd" fill="rgb(0,128,0)" stroke-width="5" stroke="rgb(0,0,0)" />
	<path d="M5478.51,5131.98 5898.53,5552 5058.49,5552 5478.51,5131.98 z " fill-rule="evenodd" fill="rgb(255,0,0)" stroke-width="5" stroke="rgb(0,0,0)" />
	<path d="M5474.26,5127.74 5050,5552 5050,4703.47 5474.26,5127.74 z " fill-rule="evenodd" fill="rgb(255,0,0)" stroke-width="5" stroke="rgb(0,0,0)" />
	<path d="M4950,4803.47 4950,4952 4801.47,4952 4950,4803.47 z " fill-rule="evenodd" fill="rgb(255,0,0)" stroke-width="5" stroke="rgb(0,0,0)" />
	<path d="M4792.99,4952 4450,4952 4197.23,4699.23 4621.49,4274.97 4950,4603.47 4950,4794.99 4792.99,4952 z " fill-rule="evenodd" fill="rgb(255,0,0)" stroke-width="5" stroke="rgb(0,0,0)" />
	<path d="M5474.26,4270.72 5050,4694.99 5050,3846.46 5474.26,4270.72 z " fill-rule="evenodd" fill="rgb(255,0,0)" stroke-width="5" stroke="rgb(0,0,0)" />
	<path d="M4625.74,4270.72 4950,3946.46 4950,4594.99 4625.74,4270.72 z " fill-rule="evenodd" fill="rgb(255,0,0)" stroke-width="5" stroke="rgb(0,0,0)" />
	<path d="M4192.99,4703.47 4441.51,4952 3944.46,4952 4192.99,4703.47 z " fill-rule="evenodd" fill="rgb(255,0,0)" stroke-width="5" stroke="rgb(0,0,0)" />
	<path d="M4621.49,4266.48 4197.23,3842.22 4621.49,3417.95 4950,3746.46 4950,3937.97 4621.49,4266.48 z " fill-rule="evenodd" fill="rgb(255,0,0)" stroke-width="5" stroke="rgb(0,0,0)" />
	<path d="M5474.26,3413.71 5050,3837.97 5050,2989.45 5474.26,3413.71 z " fill-rule="evenodd" fill="rgb(255,0,0)" stroke-width="5" stroke="rgb(0,0,0)" />
	<path d="M4625.74,3413.71 4950,3089.45 4950,3737.97 4625.74,3413.71 z " fill-rule="evenodd" fill="rgb(255,0,0)" stroke-width="5" stroke="rgb(0,0,0)" />
	<path d="M6335.52,5131.98 6755.54,5552 5915.5,5552 6335.52,5131.98 z " fill-rule="evenodd" fill="rgb(255,0,0)" stroke-width="5" stroke="rgb(0,0,0)" />
	<path d="M6759.78,2128.19 6335.52,2552.45 5911.26,2128.19 6267.51,1771.93 6496.5,1864.91 6759.78,2128.19 z " fill-rule="evenodd" fill="rgb(255,0,0)" stroke-width="5" stroke="rgb(0,0,0)" />
	<path d="M3764.48,4274.97 4188.74,4699.23 3935.97,4952 3700,4952 3700,4339.45 3764.48,4274.97 z " fill-rule="evenodd" fill="rgb(255,0,0)" stroke-width="5" stroke="rgb(0,0,0)" />
	<path d="M3764.48,3417.95 4188.74,3842.22 3764.48,4266.48 3700,4202 3700,3482.43 3764.48,3417.95 z " fill-rule="evenodd" fill="rgb(255,0,0)" stroke-width="5" stroke="rgb(0,0,0)" />
	<path d="M4617.25,3413.71 4192.99,3837.97 3768.72,3413.71 4130.43,3052 4200,3052 4200,2996.46 4617.25,3413.71 z " fill-rule="evenodd" fill="rgb(255,0,0)" stroke-width="5" stroke="rgb(0,0,0)" />
	<path d="M4621.49,3409.47 4200,2987.97 4200,2982.43 4621.49,2560.94 5012.55,2952 4900,2952 4900,3052 4950,3052 4950,3080.96 4621.49,3409.47 z " fill-rule="evenodd" fill="rgb(255,0,0)" stroke-width="5" stroke="rgb(0,0,0)" />
	<path d="M4625.74,2556.7 5050,2132.43 5474.26,2556.7 5050,2980.96 5050,2952 5021.04,2952 4625.74,2556.7 z " fill-rule="evenodd" fill="rgb(255,0,0)" stroke-width="5" stroke="rgb(0,0,0)" />
	<path d="M5907.01,2123.95 5482.75,1699.68 5657.99,1524.44 6261.48,1769.48 5907.01,2123.95 z " fill-rule="evenodd" fill="rgb(255,0,0)" stroke-width="5" stroke="rgb(0,0,0)" />
	<path d="M6764.03,2123.95 6510.79,1870.71 6871,2016.97 6764.03,2123.95 z " fill-rule="evenodd" fill="rgb(255,0,0)" stroke-width="5" stroke="rgb(0,0,0)" />
	<path d="M2978.96,6052 3100,6052 3100,6173.04 2978.96,6052 z " fill-rule="evenodd" fill="rgb(255,0,0)" stroke-width="5" stroke="rgb(0,0,0)" />
	<path d="M3760.24,4270.72 3700,4330.96 3700,4210.49 3760.24,4270.72 z " fill-rule="evenodd" fill="rgb(255,0,0)" stroke-width="5" stroke="rgb(0,0,0)" />
	<path d="M3760.24,3413.71 3700,3473.95 3700,3353.47 3760.24,3413.71 z " fill-rule="evenodd" fill="rgb(255,0,0)" stroke-width="5" stroke="rgb(0,0,0)" />
	<path d="M3764.48,3409.47 3700,3344.99 3700,3052 4121.95,3052 3764.48,3409.47 z " fill-rule="evenodd" fill="rgb(255,0,0)" stroke-width="5" stroke="rgb(0,0,0)" />
	<path d="M3764.48,2560.94 4155.54,2952 3373.42,2952 3764.48,2560.94 z " fill-rule="evenodd" fill="rgb(255,0,0)" stroke-width="5" stroke="rgb(0,0,0)" />
	<path d="M3768.72,2556.7 4192.99,2132.43 4617.25,2556.7 4200,2973.95 4200,2952 4164.03,2952 3768.72,2556.7 z " fill-rule="evenodd" fill="rgb(255,0,0)" stroke-width="5" stroke="rgb(0,0,0)" />
	<path d="M5474.26,1699.68 5050,2123.95 4625.74,1699.68 5048.46,1276.95 5053.64,1279.05 5474.26,1699.68 z " fill-rule="evenodd" fill="rgb(255,0,0)" stroke-width="5" stroke="rgb(0,0,0)" />
	<path d="M5478.51,1695.44 5067.92,1284.86 5651.95,1521.99 5478.51,1695.44 z " fill-rule="evenodd" fill="rgb(255,0,0)" stroke-width="5" stroke="rgb(0,0,0)" />
	<path d="M7192.53,5131.98 7612.55,5552 6772.51,5552 7192.53,5131.98 z " fill-rule="evenodd" fill="rgb(255,0,0)" stroke-width="5" stroke="rgb(0,0,0)" />
	<path d="M7192.53,2552.45 6768.27,2128.19 6877.04,2019.42 7480.53,2264.46 7192.53,2552.45 z " fill-rule="evenodd" fill="rgb(255,0,0)" stroke-width="5" stroke="rgb(0,0,0)" />
	<path d="M2907.47,6846.01 2913.46,6852 2901.47,6852 2907.47,6846.01 z " fill-rule="evenodd" fill="rgb(255,0,0)" stroke-width="5" stroke="rgb(0,0,0)" />
	<path d="M2900,6853.47 2900,6952 2801.47,6952 2900,6853.47 z " fill-rule="evenodd" fill="rgb(255,0,0)" stroke-width="5" stroke="rgb(0,0,0)" />
	<path d="M2911.71,6841.76 3100,6653.47 3100,6852 2921.95,6852 2911.71,6841.76 z " fill-rule="evenodd" fill="rgb(255,0,0)" stroke-width="5" stroke="rgb(0,0,0)" />
	<path d="M2907.47,6837.52 2483.2,6413.26 2900,5996.46 2900,6052 2970.47,6052 3100,6181.53 3100,6644.99 2907.47,6837.52 z " fill-rule="evenodd" fill="rgb(255,0,0)" stroke-width="5" stroke="rgb(0,0,0)" />
	<path d="M2483.2,5556.24 2900,5139.45 2900,5973.04 2483.2,5556.24 z " fill-rule="evenodd" fill="rgb(255,0,0)" stroke-width="5" stroke="rgb(0,0,0)" />
	<path d="M2483.2,4699.23 2900,4282.43 2900,5116.03 2483.2,4699.23 z " fill-rule="evenodd" fill="rgb(255,0,0)" stroke-width="5" stroke="rgb(0,0,0)" />
	<path d="M2483.2,3842.22 2900,3425.42 2900,4259.01 2483.2,3842.22 z " fill-rule="evenodd" fill="rgb(255,0,0)" stroke-width="5" stroke="rgb(0,0,0)" />
	<path d="M2483.2,2985.2 2907.47,2560.94 3298.53,2952 2850,2952 2850,3152 2900,3152 2900,3402 2483.2,2985.2 z " fill-rule="evenodd" fill="rgb(255,0,0)" stroke-width="5" stroke="rgb(0,0,0)" />
	<path d="M2911.71,2556.7 3335.97,2132.43 3760.24,2556.7 3364.93,2952 3307.01,2952 2911.71,2556.7 z " fill-rule="evenodd" fill="rgb(255,0,0)" stroke-width="5" stroke="rgb(0,0,0)" />
	<path d="M4621.49,1695.44 4197.23,1271.18 4438.94,1029.47 5042.43,1274.5 4621.49,1695.44 z " fill-rule="evenodd" fill="rgb(255,0,0)" stroke-width="5" stroke="rgb(0,0,0)" />
	<path d="M8045.3,2556.7 7621.04,2980.96 7196.78,2556.7 7486.56,2266.91 7939.37,2450.76 8045.3,2556.7 z " fill-rule="evenodd" fill="rgb(255,0,0)" stroke-width="5" stroke="rgb(0,0,0)" />
	<path d="M2054.7,6841.76 2478.96,6417.5 2903.22,6841.76 2792.99,6952 2164.93,6952 2054.7,6841.76 z " fill-rule="evenodd" fill="rgb(255,0,0)" stroke-width="5" stroke="rgb(0,0,0)" />
	<path d="M2478.96,6409.01 2054.7,5984.75 2478.96,5560.49 2900,5981.53 2900,5987.97 2478.96,6409.01 z " fill-rule="evenodd" fill="rgb(255,0,0)" stroke-width="5" stroke="rgb(0,0,0)" />
	<path d="M2478.96,5552 2054.7,5127.74 2478.96,4703.47 2900,5124.51 2900,5130.96 2478.96,5552 z " fill-rule="evenodd" fill="rgb(255,0,0)" stroke-width="5" stroke="rgb(0,0,0)" />
	<path d="M2478.96,4694.99 2054.7,4270.72 2478.96,3846.46 2900,4267.5 2900,4273.95 2478.96,4694.99 z " fill-rule="evenodd" fill="rgb(255,0,0)" stroke-width="5" stroke="rgb(0,0,0)" />
	<path d="M2478.96,3837.97 2054.7,3413.71 2478.96,2989.45 2900,3410.49 2900,3416.93 2478.96,3837.97 z " fill-rule="evenodd" fill="rgb(255,0,0)" stroke-width="5" stroke="rgb(0,0,0)" />
	<path d="M3335.97,1275.42 3760.24,1699.68 3335.97,2123.95 2911.71,1699.68 3009.39,1602 3147,1602 3240.87,1370.52 3335.97,1275.42 z " fill-rule="evenodd" fill="rgb(255,0,0)" stroke-width="5" stroke="rgb(0,0,0)" />
	<path d="M4192.99,1266.93 3768.72,842.669 3829.41,781.978 4432.9,1027.02 4192.99,1266.93 z " fill-rule="evenodd" fill="rgb(255,0,0)" stroke-width="5" stroke="rgb(0,0,0)" />
	<path d="M8049.55,5131.98 8469.57,5552 7629.53,5552 8049.55,5131.98 z " fill-rule="evenodd" fill="rgb(255,0,0)" stroke-width="5" stroke="rgb(0,0,0)" />
	<path d="M8049.55,2552.45 7953.66,2456.56 8090.06,2511.94 8049.55,2552.45 z " fill-rule="evenodd" fill="rgb(255,0,0)" stroke-width="5" stroke="rgb(0,0,0)" />
	<path d="M2050.45,6846.01 2156.45,6952 1944.46,6952 2050.45,6846.01 z " fill-rule="evenodd" fill="rgb(255,0,0)" stroke-width="5" stroke="rgb(0,0,0)" />
	<path d="M2050.45,2560.94 2474.72,2985.2 2050.45,3409.47 1792.99,3152 2050,3152 2050,2952 1659.39,2952 2050.45,2560.94 z " fill-rule="evenodd" fill="rgb(255,0,0)" stroke-width="5" stroke="rgb(0,0,0)" />
	<path d="M2907.47,1695.44 2483.2,1271.18 2907.47,846.911 3219.27,1158.71 3080,1502 2950,1502 2950,1602 3000.91,1602 2907.47,1695.44 z " fill-rule="evenodd" fill="rgb(255,0,0)" stroke-width="5" stroke="rgb(0,0,0)" />
	<path d="M3331.73,1271.18 3246.66,1356.25 3295.75,1235.19 3331.73,1271.18 z " fill-rule="evenodd" fill="rgb(255,0,0)" stroke-width="5" stroke="rgb(0,0,0)" />
	<path d="M3760.24,842.669 3335.97,1266.93 3298.2,1229.16 3529,660 3610.77,693.201 3760.24,842.669 z " fill-rule="evenodd" fill="rgb(255,0,0)" stroke-width="5" stroke="rgb(0,0,0)" />
	<path d="M2911.71,842.669 3220.28,534.099 3437,622 3221.71,1152.67 2911.71,842.669 z " fill-rule="evenodd" fill="rgb(255,0,0)" stroke-width="5" stroke="rgb(0,0,0)" />
	<path d="M3764.48,838.426 3625.06,699.002 3823.38,779.528 3764.48,838.426 z " fill-rule="evenodd" fill="rgb(255,0,0)" stroke-width="5" stroke="rgb(0,0,0)" />
	<path d="M8478.05,5552 8053.79,5127.74 8478.05,4703.47 8600,4825.42 8600,5430.05 8478.05,5552 z " fill-rule="evenodd" fill="rgb(255,0,0)" stroke-width="5" stroke="rgb(0,0,0)" />
	<path d="M8478.05,4694.99 8053.79,4270.72 8478.05,3846.46 8600,3968.4 8600,4573.04 8478.05,4694.99 z " fill-rule="evenodd" fill="rgb(255,0,0)" stroke-width="5" stroke="rgb(0,0,0)" />
	<path d="M8478.05,3837.97 8053.79,3413.71 8478.05,2989.45 8600,3111.39 8600,3716.03 8478.05,3837.97 z " fill-rule="evenodd" fill="rgb(255,0,0)" stroke-width="5" stroke="rgb(0,0,0)" />
	<path d="M8478.05,2980.96 8053.79,2556.7 8096.09,2514.4 8600,2719 8600,2859.01 8478.05,2980.96 z " fill-rule="evenodd" fill="rgb(255,0,0)" stroke-width="5" stroke="rgb(0,0,0)" />
	<path d="M1197.68,6841.76 1621.95,6417.5 2046.21,6841.76 1935.97,6952 1307.92,6952 1197.68,6841.76 z " fill-rule="evenodd" fill="rgb(255,0,0)" stroke-width="5" stroke="rgb(0,0,0)" />
	<path d="M2046.21,3413.71 1621.95,3837.97 1197.68,3413.71 1459.39,3152 1784.5,3152 2046.21,3413.71 z " fill-rule="evenodd" fill="rgb(255,0,0)" stroke-width="5" stroke="rgb(0,0,0)" />
	<path d="M1197.68,2556.7 1621.95,2132.43 2046.21,2556.7 1650.91,2952 1592.99,2952 1197.68,2556.7 z " fill-rule="evenodd" fill="rgb(255,0,0)" stroke-width="5" stroke="rgb(0,0,0)" />
	<path d="M2046.21,1699.68 1621.95,2123.95 1197.68,1699.68 1395.36,1502 1400,1502 1400,1602 1948.53,1602 2046.21,1699.68 z " fill-rule="evenodd" fill="rgb(255,0,0)" stroke-width="5" stroke="rgb(0,0,0)" />
	<path d="M2050.45,1695.44 1957.01,1602 2143.89,1602 2050.45,1695.44 z " fill-rule="evenodd" fill="rgb(255,0,0)" stroke-width="5" stroke="rgb(0,0,0)" />
	<path d="M2474.72,1271.18 2150,1595.89 2150,946.458 2474.72,1271.18 z " fill-rule="evenodd" fill="rgb(255,0,0)" stroke-width="5" stroke="rgb(0,0,0)" />
	<path d="M2478.96,418.405 2903.22,842.669 2478.96,1266.93 2150,937.973 2150,747.365 2478.96,418.405 z " fill-rule="evenodd" fill="rgb(255,0,0)" stroke-width="5" stroke="rgb(0,0,0)" />
	<path d="M2907.47,838.426 2483.2,414.162 2610.56,286.802 3214.24,531.651 2907.47,838.426 z " fill-rule="evenodd" fill="rgb(255,0,0)" stroke-width="5" stroke="rgb(0,0,0)" />
	<path d="M8600,5438.54 8600,5552 8486.54,5552 8600,5438.54 z " fill-rule="evenodd" fill="rgb(255,0,0)" stroke-width="5" stroke="rgb(0,0,0)" />
	<path d="M8482.3,4699.23 8600,4581.53 8600,4816.93 8482.3,4699.23 z " fill-rule="evenodd" fill="rgb(255,0,0)" stroke-width="5" stroke="rgb(0,0,0)" />
	<path d="M8482.3,3842.22 8600,3724.51 8600,3959.92 8482.3,3842.22 z " fill-rule="evenodd" fill="rgb(255,0,0)" stroke-width="5" stroke="rgb(0,0,0)" />
	<path d="M8482.3,2985.2 8600,2867.5 8600,3102.91 8482.3,2985.2 z " fill-rule="evenodd" fill="rgb(255,0,0)" stroke-width="5" stroke="rgb(0,0,0)" />
	<path d="M1193.44,6846.01 1299.43,6952 1087.45,6952 1193.44,6846.01 z " fill-rule="evenodd" fill="rgb(255,0,0)" stroke-width="5" stroke="rgb(0,0,0)" />
	<path d="M1193.44,3409.47 935.973,3152 1450.91,3152 1193.44,3409.47 z " fill-rule="evenodd" fill="rgb(255,0,0)" stroke-width="5" stroke="rgb(0,0,0)" />
	<path d="M1193.44,2560.94 1584.5,2952 802.378,2952 1193.44,2560.94 z " fill-rule="evenodd" fill="rgb(255,0,0)" stroke-width="5" stroke="rgb(0,0,0)" />
	<path d="M1193.44,1695.44 1000,1502 1386.88,1502 1193.44,1695.44 z " fill-rule="evenodd" fill="rgb(255,0,0)" stroke-width="5" stroke="rgb(0,0,0)" />
	<path d="M2474.72,414.162 2150,738.879 2150,100 2167.76,107.202 2474.72,414.162 z " fill-rule="evenodd" fill="rgb(255,0,0)" stroke-width="5" stroke="rgb(0,0,0)" />
	<path d="M2478.96,409.919 2182.03,112.992 2604.53,284.353 2478.96,409.919 z " fill-rule="evenodd" fill="rgb(255,0,0)" stroke-width="5" stroke="rgb(0,0,0)" />
	<path d="M340.669,6841.76 764.933,6417.5 1189.2,6841.76 1078.96,6952 450.906,6952 340.669,6841.76 z " fill-rule="evenodd" fill="rgb(255,0,0)" stroke-width="5" stroke="rgb(0,0,0)" />
	<path d="M1189.2,3413.71 764.933,3837.97 340.669,3413.71 602.378,3152 927.488,3152 1189.2,3413.71 z " fill-rule="evenodd" fill="rgb(255,0,0)" stroke-width="5" stroke="rgb(0,0,0)" />
	<path d="M340.669,2556.7 764.933,2132.43 1189.2,2556.7 793.893,2952 735.973,2952 340.669,2556.7 z " fill-rule="evenodd" fill="rgb(255,0,0)" stroke-width="5" stroke="rgb(0,0,0)" />
	<path d="M1189.2,1699.68 764.933,2123.95 340.669,1699.68 438.351,1602 700,1602 700,1502 991.515,1502 1189.2,1699.68 z " fill-rule="evenodd" fill="rgb(255,0,0)" stroke-width="5" stroke="rgb(0,0,0)" />
	<path d="M336.426,6846.01 442.421,6952 230.432,6952 336.426,6846.01 z " fill-rule="evenodd" fill="rgb(255,0,0)" stroke-width="5" stroke="rgb(0,0,0)" />
	<path d="M336.426,5988.99 760.69,6413.26 336.426,6837.52 100,6601.09 100,6225.42 336.426,5988.99 z " fill-rule="evenodd" fill="rgb(255,0,0)" stroke-width="5" stroke="rgb(0,0,0)" />
	<path d="M336.426,5131.98 760.69,5556.24 336.426,5980.51 100,5744.08 100,5368.4 336.426,5131.98 z " fill-rule="evenodd" fill="rgb(255,0,0)" stroke-width="5" stroke="rgb(0,0,0)" />
	<path d="M336.426,4274.97 760.69,4699.23 336.426,5123.49 100,4887.07 100,4511.39 336.426,4274.97 z " fill-rule="evenodd" fill="rgb(255,0,0)" stroke-width="5" stroke="rgb(0,0,0)" />
	<path d="M336.426,3417.95 760.69,3842.22 336.426,4266.48 100,4030.05 100,3654.38 336.426,3417.95 z " fill-rule="evenodd" fill="rgb(255,0,0)" stroke-width="5" stroke="rgb(0,0,0)" />
	<path d="M336.426,3409.47 100,3173.04 100,3152 593.893,3152 336.426,3409.47 z " fill-rule="evenodd" fill="rgb(255,0,0)" stroke-width="5" stroke="rgb(0,0,0)" />
	<path d="M336.426,2560.94 727.488,2952 100,2952 100,2797.36 336.426,2560.94 z " fill-rule="evenodd" fill="rgb(255,0,0)" stroke-width="5" stroke="rgb(0,0,0)" />
	<path d="M336.426,1703.92 760.69,2128.19 336.426,2552.45 100,2316.03 100,1940.35 336.426,1703.92 z " fill-rule="evenodd" fill="rgb(255,0,0)" stroke-width="5" stroke="rgb(0,0,0)" />
	<path d="M336.426,1695.44 242.987,1602 429.866,1602 336.426,1695.44 z " fill-rule="evenodd" fill="rgb(255,0,0)" stroke-width="5" stroke="rgb(0,0,0)" />
	<path d="M332.184,6841.76 221.946,6952 100,6952 100,6609.58 332.184,6841.76 z " fill-rule="evenodd" fill="rgb(255,0,0)" stroke-width="5" stroke="rgb(0,0,0)" />
	<path d="M332.184,5984.75 100,6216.93 100,5752.57 332.184,5984.75 z " fill-rule="evenodd" fill="rgb(255,0,0)" stroke-width="5" stroke="rgb(0,0,0)" />
	<path d="M332.184,5127.74 100,5359.92 100,4895.55 332.184,5127.74 z " fill-rule="evenodd" fill="rgb(255,0,0)" stroke-width="5" stroke="rgb(0,0,0)" />
	<path d="M332.184,4270.72 100,4502.91 100,4038.54 332.184,4270.72 z " fill-rule="evenodd" fill="rgb(255,0,0)" stroke-width="5" stroke="rgb(0,0,0)" />
	<path d="M332.184,3413.71 100,3645.89 100,3181.53 332.184,3413.71 z " fill-rule="evenodd" fill="rgb(255,0,0)" stroke-width="5" stroke="rgb(0,0,0)" />
	<path d="M332.184,2556.7 100,2788.88 100,2324.51 332.184,2556.7 z " fill-rule="evenodd" fill="rgb(255,0,0)" stroke-width="5" stroke="rgb(0,0,0)" />
	<path d="M332.184,1699.68 100,1931.87 100,1602 234.501,1602 332.184,1699.68 z " fill-rule="evenodd" fill="rgb(255,0,0)" stroke-width="5" stroke="rgb(0,0,0)" />
	<polyline points="5045,5557 5469.26,5132.74 5045,5557 4620.74,5132.74 5045,5557 " fill="none" stroke-width="100" stroke="rgb(0,0,0)" />
	<circle cx="5045" cy="5557" r="-7.07107" fill="rgb(0,0,0)" />
	<circle cx="5469.26" cy="5132.74" r="-7.07107" fill="rgb(0,0,0)" />
	<circle cx="5045" cy="5557" r="-7.07107" fill="rgb(0,0,0)" />
	<circle cx="4620.74" cy="5132.74" r="-7.07107" fill="rgb(0,0,0)" />
	<circle cx="5045" cy="5557" r="-7.07107" fill="rgb(0,0,0)" />
	<polyline points="5045,6023.69 5045,5557 4111.62,5557 " fill="none" stroke-width="0.5" stroke="rgb(128,0,128)" />
</svg>
