<?xml version="1.0" standalone="no" ?>
<!DOCTYPE svg PUBLIC "-//W3C//DTD SVG 1.1//EN" "http://www.w3.org/Graphics/SVG/1.1/DTD/svg11.dtd">
<svg width="8700px" height="7052px" xmlns="http://www.w3.org/2000/svg" version="1.1" >
	<path d="M5478.51,5123.49 5902.77,5547.76 6327.03,5123.49 5902.77,4699.23 5478.51,5123.49 z " fill-rule="evenodd" fill="rgb(0,128,0)" stroke-width="5" stroke="rgb(0,0,0)" />
	<path d="M5050,4694.99 5474.26,5119.25 5898.53,4694.99 5474.26,4270.72 5050,4694.99 z " fill-rule="evenodd" fill="rgb(0,128,0)" stroke-width="5" stroke="rgb(0,0,0)" />
	<path d="M5907.01,4694.99 6331.28,5119.25 6755.54,4694.99 6331.28,4270.72 5907.01,4694.99 z " fill-rule="evenodd" fill="rgb(0,128,0)" stroke-width="5" stroke="rgb(0,0,0)" />
	<path d="M6335.52,5123.49 6759.78,5547.76 7184.05,5123.49 6759.78,4699.23 6335.52,5123.49 z " fill-rule="evenodd" fill="rgb(0,128,0)" stroke-width="5" stroke="rgb(0,0,0)" />
	<path d="M1193.44,4266.48 1617.7,4690.74 2041.97,4266.48 1617.7,3842.22 1193.44,4266.48 z " fill-rule="evenodd" fill="rgb(0,128,0)" stroke-width="5" stroke="rgb(0,0,0)" />
	<path d="M1621.95,4694.99 2046.21,5119.25 2470.47,4694.99 2046.21,4270.72 1621.95,4694.99 z " fill-rule="evenodd" fill="rgb(0,128,0)" stroke-width="5" stroke="rgb(0,0,0)" />
	<path d="M2050.45,5123.49 2474.72,5547.76 2898.98,5123.49 2474.72,4699.23 2050.45,5123.49 z " fill-rule="evenodd" fill="rgb(0,128,0)" stroke-width="5" stroke="rgb(0,0,0)" />
	<path d="M2050.45,4266.48 2474.72,4690.74 2898.98,4266.48 2474.72,3842.22 2050.45,4266.48 z " fill-rule="evenodd" fill="rgb(0,128,0)" stroke-width="5" stroke="rgb(0,0,0)" />
	<path d="M3764.48,4266.48 4188.74,4690.74 4613.01,4266.48 4188.74,3842.22 3764.48,4266.48 z " fill-rule="evenodd" fill="rgb(0,128,0)" stroke-width="5" stroke="rgb(0,0,0)" />
	<path d="M5478.51,4266.48 5902.77,4690.74 6327.03,4266.48 5902.77,3842.22 5478.51,4266.48 z " fill-rule="evenodd" fill="rgb(0,128,0)" stroke-width="5" stroke="rgb(0,0,0)" />
	<path d="M6335.52,4266.48 6759.78,4690.74 7184.05,4266.48 6759.78,3842.22 6335.52,4266.48 z " fill-rule="evenodd" fill="rgb(0,128,0)" stroke-width="5" stroke="rgb(0,0,0)" />
	<path d="M6764.03,4694.99 7188.29,5119.25 7612.55,4694.99 7188.29,4270.72 6764.03,4694.99 z " fill-rule="evenodd" fill="rgb(0,128,0)" stroke-width="5" stroke="rgb(0,0,0)" />
	<path d="M7192.53,5123.49 7616.8,5547.76 8041.06,5123.49 7616.8,4699.23 7192.53,5123.49 z " fill-rule="evenodd" fill="rgb(0,128,0)" stroke-width="5" stroke="rgb(0,0,0)" />
	<path d="M336.426,4266.48 760.69,4690.74 1184.95,4266.48 760.69,3842.22 336.426,4266.48 z " fill-rule="evenodd" fill="rgb(0,128,0)" stroke-width="5" stroke="rgb(0,0,0)" />
	<path d="M764.933,4694.99 1189.2,5119.25 1613.46,4694.99 1189.2,4270.72 764.933,4694.99 z " fill-rule="evenodd" fill="rgb(0,128,0)" stroke-width="5" stroke="rgb(0,0,0)" />
	<path d="M764.933,3837.97 1189.2,4262.24 1613.46,3837.97 1189.2,3413.71 764.933,3837.97 z " fill-rule="evenodd" fill="rgb(0,128,0)" stroke-width="5" stroke="rgb(0,0,0)" />
	<path d="M1621.95,3837.97 2046.21,4262.24 2470.47,3837.97 2046.21,3413.71 1621.95,3837.97 z " fill-rule="evenodd" fill="rgb(0,128,0)" stroke-width="5" stroke="rgb(0,0,0)" />
	<path d="M1193.44,5123.49 1617.7,5547.76 2041.97,5123.49 1617.7,4699.23 1193.44,5123.49 z " fill-rule="evenodd" fill="rgb(0,128,0)" stroke-width="5" stroke="rgb(0,0,0)" />
	<path d="M1621.95,5552 2046.21,5976.26 2470.47,5552 2046.21,5127.74 1621.95,5552 z " fill-rule="evenodd" fill="rgb(0,128,0)" stroke-width="5" stroke="rgb(0,0,0)" />
	<path d="M5050,3837.97 5474.26,4262.24 5898.53,3837.97 5474.26,3413.71 5050,3837.97 z " fill-rule="evenodd" fill="rgb(0,128,0)" stroke-width="5" stroke="rgb(0,0,0)" />
	<path d="M5907.01,3837.97 6331.28,4262.24 6755.54,3837.97 6331.28,3413.71 5907.01,3837.97 z " fill-rule="evenodd" fill="rgb(0,128,0)" stroke-width="5" stroke="rgb(0,0,0)" />
	<path d="M6764.03,3837.97 7188.29,4262.24 7612.55,3837.97 7188.29,3413.71 6764.03,3837.97 z " fill-rule="evenodd" fill="rgb(0,128,0)" stroke-width="5" stroke="rgb(0,0,0)" />
	<path d="M7192.53,4266.48 7616.8,4690.74 8041.06,4266.48 7616.8,3842.22 7192.53,4266.48 z " fill-rule="evenodd" fill="rgb(0,128,0)" stroke-width="5" stroke="rgb(0,0,0)" />
	<path d="M7621.04,4694.99 8045.3,5119.25 8469.57,4694.99 8045.3,4270.72 7621.04,4694.99 z " fill-rule="evenodd" fill="rgb(0,128,0)" stroke-width="5" stroke="rgb(0,0,0)" />
	<path d="M336.426,5123.49 760.69,5547.76 1184.95,5123.49 760.69,4699.23 336.426,5123.49 z " fill-rule="evenodd" fill="rgb(0,128,0)" stroke-width="5" stroke="rgb(0,0,0)" />
	<path d="M2050.45,3409.47 2474.72,3833.73 2898.98,3409.47 2474.72,2985.2 2050.45,3409.47 z " fill-rule="evenodd" fill="rgb(0,128,0)" stroke-width="5" stroke="rgb(0,0,0)" />
	<path d="M764.933,5552 1189.2,5976.26 1613.46,5552 1189.2,5127.74 764.933,5552 z " fill-rule="evenodd" fill="rgb(0,128,0)" stroke-width="5" stroke="rgb(0,0,0)" />
	<path d="M1193.44,5980.51 1617.7,6404.77 2041.97,5980.51 1617.7,5556.24 1193.44,5980.51 z " fill-rule="evenodd" fill="rgb(0,128,0)" stroke-width="5" stroke="rgb(0,0,0)" />
	<path d="M2050.45,5980.51 2474.72,6404.77 2898.98,5980.51 2474.72,5556.24 2050.45,5980.51 z " fill-rule="evenodd" fill="rgb(0,128,0)" stroke-width="5" stroke="rgb(0,0,0)" />
	<path d="M5478.51,3409.47 5902.77,3833.73 6327.03,3409.47 5902.77,2985.2 5478.51,3409.47 z " fill-rule="evenodd" fill="rgb(0,128,0)" stroke-width="5" stroke="rgb(0,0,0)" />
	<path d="M6335.52,3409.47 6759.78,3833.73 7184.05,3409.47 6759.78,2985.2 6335.52,3409.47 z " fill-rule="evenodd" fill="rgb(0,128,0)" stroke-width="5" stroke="rgb(0,0,0)" />
	<path d="M7192.53,3409.47 7616.8,3833.73 8041.06,3409.47 7616.8,2985.2 7192.53,3409.47 z " fill-rule="evenodd" fill="rgb(0,128,0)" stroke-width="5" stroke="rgb(0,0,0)" />
	<path d="M7621.04,3837.97 8045.3,4262.24 8469.57,3837.97 8045.3,3413.71 7621.04,3837.97 z " fill-rule="evenodd" fill="rgb(0,128,0)" stroke-width="5" stroke="rgb(0,0,0)" />
	<path d="M336.426,5980.51 760.69,6404.77 1184.95,5980.51 760.69,5556.24 336.426,5980.51 z " fill-rule="evenodd" fill="rgb(0,128,0)" stroke-width="5" stroke="rgb(0,0,0)" />
	<path d="M764.933,6409.01 1189.2,6833.28 1613.46,6409.01 1189.2,5984.75 764.933,6409.01 z " fill-rule="evenodd" fill="rgb(0,128,0)" stroke-width="5" stroke="rgb(0,0,0)" />
	<path d="M1621.95,6409.01 2046.21,6833.28 2470.47,6409.01 2046.21,5984.75 1621.95,6409.01 z " fill-rule="evenodd" fill="rgb(0,128,0)" stroke-width="5" stroke="rgb(0,0,0)" />
	<path d="M5050,2980.96 5474.26,3405.22 5898.53,2980.96 5474.26,2556.7 5050,2980.96 z " fill-rule="evenodd" fill="rgb(0,128,0)" stroke-width="5" stroke="rgb(0,0,0)" />
	<path d="M5907.01,2980.96 6331.28,3405.22 6755.54,2980.96 6331.28,2556.7 5907.01,2980.96 z " fill-rule="evenodd" fill="rgb(0,128,0)" stroke-width="5" stroke="rgb(0,0,0)" />
	<path d="M6764.03,2980.96 7188.29,3405.22 7612.55,2980.96 7188.29,2556.7 6764.03,2980.96 z " fill-rule="evenodd" fill="rgb(0,128,0)" stroke-width="5" stroke="rgb(0,0,0)" />
	<path d="M7621.04,2980.96 8045.3,3405.22 8469.57,2980.96 8045.3,2556.7 7621.04,2980.96 z " fill-rule="evenodd" fill="rgb(0,128,0)" stroke-width="5" stroke="rgb(0,0,0)" />
	<path d="M2050.45,2552.45 2474.72,2976.72 2898.98,2552.45 2474.72,2128.19 2050.45,2552.45 z " fill-rule="evenodd" fill="rgb(0,128,0)" stroke-width="5" stroke="rgb(0,0,0)" />
	<path d="M5478.51,2552.45 5902.77,2976.72 6327.03,2552.45 5902.77,2128.19 5478.51,2552.45 z " fill-rule="evenodd" fill="rgb(0,128,0)" stroke-width="5" stroke="rgb(0,0,0)" />
	<path d="M6335.52,2552.45 6759.78,2976.72 7184.05,2552.45 6759.78,2128.19 6335.52,2552.45 z " fill-rule="evenodd" fill="rgb(0,128,0)" stroke-width="5" stroke="rgb(0,0,0)" />
	<path d="M764.933,2123.95 1189.2,2548.21 1613.46,2123.95 1189.2,1699.68 764.933,2123.95 z " fill-rule="evenodd" fill="rgb(0,128,0)" stroke-width="5" stroke="rgb(0,0,0)" />
	<path d="M1621.95,2123.95 2046.21,2548.21 2470.47,2123.95 2046.21,1699.68 1621.95,2123.95 z " fill-rule="evenodd" fill="rgb(0,128,0)" stroke-width="5" stroke="rgb(0,0,0)" />
	<path d="M2478.96,2123.95 2903.22,2548.21 3327.49,2123.95 2903.22,1699.68 2478.96,2123.95 z " fill-rule="evenodd" fill="rgb(0,128,0)" stroke-width="5" stroke="rgb(0,0,0)" />
	<path d="M3335.97,2123.95 3760.24,2548.21 4184.5,2123.95 3760.24,1699.68 3335.97,2123.95 z " fill-rule="evenodd" fill="rgb(0,128,0)" stroke-width="5" stroke="rgb(0,0,0)" />
	<path d="M4192.99,2123.95 4617.25,2548.21 5041.51,2123.95 4617.25,1699.68 4192.99,2123.95 z " fill-rule="evenodd" fill="rgb(0,128,0)" stroke-width="5" stroke="rgb(0,0,0)" />
	<path d="M5050,2123.95 5474.26,2548.21 5898.53,2123.95 5474.26,1699.68 5050,2123.95 z " fill-rule="evenodd" fill="rgb(0,128,0)" stroke-width="5" stroke="rgb(0,0,0)" />
	<path d="M3764.48,1695.44 4188.74,2119.7 4613.01,1695.44 4188.74,1271.18 3764.48,1695.44 z " fill-rule="evenodd" fill="rgb(0,128,0)" stroke-width="5" stroke="rgb(0,0,0)" />
	<path d="M3335.97,1266.93 3760.24,1691.2 4184.5,1266.93 3760.24,842.669 3335.97,1266.93 z " fill-rule="evenodd" fill="rgb(0,128,0)" stroke-width="5" stroke="rgb(0,0,0)" />
	<path d="M4188.74,4699.23 4441.51,4952 3935.97,4952 4188.74,4699.23 z " fill-rule="evenodd" fill="rgb(255,0,0)" stroke-width="5" stroke="rgb(0,0,0)" />
	<path d="M5470.02,5123.49 5050,5543.51 5050,4703.47 5470.02,5123.49 z " fill-rule="evenodd" fill="rgb(255,0,0)" stroke-width="5" stroke="rgb(0,0,0)" />
	<path d="M4950,4794.99 4950,4952 4792.99,4952 4950,4794.99 z " fill-rule="evenodd" fill="rgb(255,0,0)" stroke-width="5" stroke="rgb(0,0,0)" />
	<path d="M5474.26,5127.74 5898.53,5552 5050,5552 5474.26,5127.74 z " fill-rule="evenodd" fill="rgb(255,0,0)" stroke-width="5" stroke="rgb(0,0,0)" />
	<path d="M5907.01,5552 6331.28,5127.74 6755.54,5552 6755.54,5552 5907.01,5552 5907.01,5552 z " fill-rule="evenodd" fill="rgb(255,0,0)" stroke-width="5" stroke="rgb(0,0,0)" />
	<path d="M2478.96,4694.99 2900,4273.95 2900,5116.03 2478.96,4694.99 z " fill-rule="evenodd" fill="rgb(255,0,0)" stroke-width="5" stroke="rgb(0,0,0)" />
	<path d="M3760.24,4270.72 4184.5,4694.99 3927.49,4952 3700,4952 3700,4330.96 3760.24,4270.72 z " fill-rule="evenodd" fill="rgb(255,0,0)" stroke-width="5" stroke="rgb(0,0,0)" />
	<path d="M4192.99,4694.99 4617.25,4270.72 4950,4603.47 4950,4786.5 4784.5,4952 4450,4952 4192.99,4694.99 z " fill-rule="evenodd" fill="rgb(255,0,0)" stroke-width="5" stroke="rgb(0,0,0)" />
	<path d="M6764.03,5552 7188.29,5127.74 7612.55,5552 7612.55,5552 6764.03,5552 6764.03,5552 z " fill-rule="evenodd" fill="rgb(255,0,0)" stroke-width="5" stroke="rgb(0,0,0)" />
	<path d="M3755.99,4266.48 3700,4322.47 3700,4210.49 3755.99,4266.48 z " fill-rule="evenodd" fill="rgb(255,0,0)" stroke-width="5" stroke="rgb(0,0,0)" />
	<path d="M4621.49,4266.48 4950,3937.97 4950,4594.99 4621.49,4266.48 z " fill-rule="evenodd" fill="rgb(255,0,0)" stroke-width="5" stroke="rgb(0,0,0)" />
	<path d="M5470.02,4266.48 5050,4686.5 5050,3846.46 5470.02,4266.48 z " fill-rule="evenodd" fill="rgb(255,0,0)" stroke-width="5" stroke="rgb(0,0,0)" />
	<path d="M7621.04,5552 8045.3,5127.74 8469.57,5552 8469.57,5552 7621.04,5552 7621.04,5552 z " fill-rule="evenodd" fill="rgb(255,0,0)" stroke-width="5" stroke="rgb(0,0,0)" />
	<path d="M332.184,3413.71 756.448,3837.97 332.184,4262.24 100,4030.05 100,3645.89 332.184,3413.71 z " fill-rule="evenodd" fill="rgb(255,0,0)" stroke-width="5" stroke="rgb(0,0,0)" />
	<path d="M2478.96,5552 2900,5130.96 2900,5973.04 2478.96,5552 z " fill-rule="evenodd" fill="rgb(255,0,0)" stroke-width="5" stroke="rgb(0,0,0)" />
	<path d="M2478.96,3837.97 2900,3416.93 2900,4259.01 2478.96,3837.97 z " fill-rule="evenodd" fill="rgb(255,0,0)" stroke-width="5" stroke="rgb(0,0,0)" />
	<path d="M3760.24,3413.71 4184.5,3837.97 3760.24,4262.24 3700,4202 3700,3473.95 3760.24,3413.71 z " fill-rule="evenodd" fill="rgb(255,0,0)" stroke-width="5" stroke="rgb(0,0,0)" />
	<path d="M4617.25,4262.24 4192.99,3837.97 4617.25,3413.71 4950,3746.46 4950,3929.49 4617.25,4262.24 z " fill-rule="evenodd" fill="rgb(255,0,0)" stroke-width="5" stroke="rgb(0,0,0)" />
	<path d="M8473.81,5547.76 8049.55,5123.49 8473.81,4699.23 8600,4825.42 8600,5421.57 8473.81,5547.76 z " fill-rule="evenodd" fill="rgb(255,0,0)" stroke-width="5" stroke="rgb(0,0,0)" />
	<path d="M8478.05,5552 8600,5430.05 8600,5552 8478.05,5552 8478.05,5552 z " fill-rule="evenodd" fill="rgb(255,0,0)" stroke-width="5" stroke="rgb(0,0,0)" />
	<path d="M327.941,4266.48 100,4494.42 100,4038.54 327.941,4266.48 z " fill-rule="evenodd" fill="rgb(255,0,0)" stroke-width="5" stroke="rgb(0,0,0)" />
	<path d="M327.941,3409.47 100,3637.41 100,3181.53 327.941,3409.47 z " fill-rule="evenodd" fill="rgb(255,0,0)" stroke-width="5" stroke="rgb(0,0,0)" />
	<path d="M1184.95,3409.47 760.69,3833.73 336.426,3409.47 593.893,3152 927.488,3152 1184.95,3409.47 z " fill-rule="evenodd" fill="rgb(255,0,0)" stroke-width="5" stroke="rgb(0,0,0)" />
	<path d="M332.184,4270.72 756.448,4694.99 332.184,5119.25 100,4887.07 100,4502.91 332.184,4270.72 z " fill-rule="evenodd" fill="rgb(255,0,0)" stroke-width="5" stroke="rgb(0,0,0)" />
	<path d="M2041.97,3409.47 1617.7,3833.73 1193.44,3409.47 1450.91,3152 1784.5,3152 2041.97,3409.47 z " fill-rule="evenodd" fill="rgb(255,0,0)" stroke-width="5" stroke="rgb(0,0,0)" />
	<path d="M2978.96,6052 3100,6052 3100,6173.04 2978.96,6052 z " fill-rule="evenodd" fill="rgb(255,0,0)" stroke-width="5" stroke="rgb(0,0,0)" />
	<path d="M3755.99,3409.47 3700,3465.46 3700,3353.47 3755.99,3409.47 z " fill-rule="evenodd" fill="rgb(255,0,0)" stroke-width="5" stroke="rgb(0,0,0)" />
	<path d="M4613.01,3409.47 4188.74,3833.73 3764.48,3409.47 4121.95,3052 4200,3052 4200,2996.46 4613.01,3409.47 z " fill-rule="evenodd" fill="rgb(255,0,0)" stroke-width="5" stroke="rgb(0,0,0)" />
	<path d="M4621.49,3409.47 4950,3080.96 4950,3737.97 4621.49,3409.47 z " fill-rule="evenodd" fill="rgb(255,0,0)" stroke-width="5" stroke="rgb(0,0,0)" />
	<path d="M5470.02,3409.47 5050,3829.49 5050,2989.45 5470.02,3409.47 z " fill-rule="evenodd" fill="rgb(255,0,0)" stroke-width="5" stroke="rgb(0,0,0)" />
	<path d="M8473.81,4690.74 8049.55,4266.48 8473.81,3842.22 8600,3968.4 8600,4564.55 8473.81,4690.74 z " fill-rule="evenodd" fill="rgb(255,0,0)" stroke-width="5" stroke="rgb(0,0,0)" />
	<path d="M8478.05,4694.99 8600,4573.04 8600,4816.93 8478.05,4694.99 z " fill-rule="evenodd" fill="rgb(255,0,0)" stroke-width="5" stroke="rgb(0,0,0)" />
	<path d="M332.184,3405.22 100,3173.04 100,3152 585.407,3152 332.184,3405.22 z " fill-rule="evenodd" fill="rgb(255,0,0)" stroke-width="5" stroke="rgb(0,0,0)" />
	<path d="M332.184,2556.7 727.488,2952 100,2952 100,2788.88 332.184,2556.7 z " fill-rule="evenodd" fill="rgb(255,0,0)" stroke-width="5" stroke="rgb(0,0,0)" />
	<path d="M1189.2,3405.22 935.973,3152 1442.42,3152 1189.2,3405.22 z " fill-rule="evenodd" fill="rgb(255,0,0)" stroke-width="5" stroke="rgb(0,0,0)" />
	<path d="M1189.2,2556.7 1584.5,2952 793.893,2952 1189.2,2556.7 z " fill-rule="evenodd" fill="rgb(255,0,0)" stroke-width="5" stroke="rgb(0,0,0)" />
	<path d="M327.941,5123.49 100,5351.43 100,4895.55 327.941,5123.49 z " fill-rule="evenodd" fill="rgb(255,0,0)" stroke-width="5" stroke="rgb(0,0,0)" />
	<path d="M332.184,5127.74 756.448,5552 332.184,5976.26 100,5744.08 100,5359.92 332.184,5127.74 z " fill-rule="evenodd" fill="rgb(255,0,0)" stroke-width="5" stroke="rgb(0,0,0)" />
	<path d="M2046.21,2556.7 2470.47,2980.96 2046.21,3405.22 1792.99,3152 2050,3152 2050,2952 1650.91,2952 2046.21,2556.7 z " fill-rule="evenodd" fill="rgb(255,0,0)" stroke-width="5" stroke="rgb(0,0,0)" />
	<path d="M2478.96,2980.96 2903.22,2556.7 3298.53,2952 2850,2952 2850,3152 2900,3152 2900,3402 2478.96,2980.96 z " fill-rule="evenodd" fill="rgb(255,0,0)" stroke-width="5" stroke="rgb(0,0,0)" />
	<path d="M2903.22,6833.28 2478.96,6409.01 2900,5987.97 2900,6052 2970.47,6052 3100,6181.53 3100,6636.5 2903.22,6833.28 z " fill-rule="evenodd" fill="rgb(255,0,0)" stroke-width="5" stroke="rgb(0,0,0)" />
	<path d="M3760.24,3405.22 3700,3344.99 3700,3052 4113.46,3052 3760.24,3405.22 z " fill-rule="evenodd" fill="rgb(255,0,0)" stroke-width="5" stroke="rgb(0,0,0)" />
	<path d="M3760.24,2556.7 4155.54,2952 3364.93,2952 3760.24,2556.7 z " fill-rule="evenodd" fill="rgb(255,0,0)" stroke-width="5" stroke="rgb(0,0,0)" />
	<path d="M4617.25,3405.22 4200,2987.97 4200,2973.95 4617.25,2556.7 5012.55,2952 4900,2952 4900,3052 4950,3052 4950,3072.47 4617.25,3405.22 z " fill-rule="evenodd" fill="rgb(255,0,0)" stroke-width="5" stroke="rgb(0,0,0)" />
	<path d="M8473.81,3833.73 8049.55,3409.47 8473.81,2985.2 8600,3111.39 8600,3707.54 8473.81,3833.73 z " fill-rule="evenodd" fill="rgb(255,0,0)" stroke-width="5" stroke="rgb(0,0,0)" />
	<path d="M8478.05,3837.97 8600,3716.03 8600,3959.92 8478.05,3837.97 z " fill-rule="evenodd" fill="rgb(255,0,0)" stroke-width="5" stroke="rgb(0,0,0)" />
	<path d="M327.941,2552.45 100,2780.39 100,2324.51 327.941,2552.45 z " fill-rule="evenodd" fill="rgb(255,0,0)" stroke-width="5" stroke="rgb(0,0,0)" />
	<path d="M336.426,2552.45 760.69,2128.19 1184.95,2552.45 785.407,2952 735.973,2952 336.426,2552.45 z " fill-rule="evenodd" fill="rgb(255,0,0)" stroke-width="5" stroke="rgb(0,0,0)" />
	<path d="M1193.44,2552.45 1617.7,2128.19 2041.97,2552.45 1642.42,2952 1592.99,2952 1193.44,2552.45 z " fill-rule="evenodd" fill="rgb(255,0,0)" stroke-width="5" stroke="rgb(0,0,0)" />
	<path d="M327.941,5980.51 100,6208.45 100,5752.57 327.941,5980.51 z " fill-rule="evenodd" fill="rgb(255,0,0)" stroke-width="5" stroke="rgb(0,0,0)" />
	<path d="M2907.47,2552.45 3331.73,2128.19 3755.99,2552.45 3356.45,2952 3307.01,2952 2907.47,2552.45 z " fill-rule="evenodd" fill="rgb(255,0,0)" stroke-width="5" stroke="rgb(0,0,0)" />
	<path d="M332.184,5984.75 756.448,6409.01 332.184,6833.28 100,6601.09 100,6216.93 332.184,5984.75 z " fill-rule="evenodd" fill="rgb(255,0,0)" stroke-width="5" stroke="rgb(0,0,0)" />
	<path d="M336.426,6837.52 760.69,6413.26 1184.95,6837.52 1070.47,6952 450.906,6952 336.426,6837.52 z " fill-rule="evenodd" fill="rgb(255,0,0)" stroke-width="5" stroke="rgb(0,0,0)" />
	<path d="M1193.44,6837.52 1617.7,6413.26 2041.97,6837.52 1927.49,6952 1307.92,6952 1193.44,6837.52 z " fill-rule="evenodd" fill="rgb(255,0,0)" stroke-width="5" stroke="rgb(0,0,0)" />
	<path d="M2050.45,6837.52 2474.72,6413.26 2898.98,6837.52 2784.5,6952 2164.93,6952 2050.45,6837.52 z " fill-rule="evenodd" fill="rgb(255,0,0)" stroke-width="5" stroke="rgb(0,0,0)" />
	<path d="M2907.47,6837.52 3100,6644.99 3100,6852 2921.95,6852 2907.47,6837.52 z " fill-rule="evenodd" fill="rgb(255,0,0)" stroke-width="5" stroke="rgb(0,0,0)" />
	<path d="M3764.48,2552.45 4188.74,2128.19 4613.01,2552.45 4200,2965.46 4200,2952 4164.03,2952 3764.48,2552.45 z " fill-rule="evenodd" fill="rgb(255,0,0)" stroke-width="5" stroke="rgb(0,0,0)" />
	<path d="M4621.49,2552.45 5045.76,2128.19 5470.02,2552.45 5050,2972.47 5050,2952 5021.04,2952 4621.49,2552.45 z " fill-rule="evenodd" fill="rgb(255,0,0)" stroke-width="5" stroke="rgb(0,0,0)" />
	<path d="M8041.06,2552.45 7616.8,2976.72 7192.53,2552.45 7480.53,2264.46 7939.37,2450.76 8041.06,2552.45 z " fill-rule="evenodd" fill="rgb(255,0,0)" stroke-width="5" stroke="rgb(0,0,0)" />
	<path d="M8473.81,2976.72 8049.55,2552.45 8090.06,2511.94 8600,2719 8600,2850.53 8473.81,2976.72 z " fill-rule="evenodd" fill="rgb(255,0,0)" stroke-width="5" stroke="rgb(0,0,0)" />
	<path d="M8478.05,2980.96 8600,2859.01 8600,3102.91 8478.05,2980.96 z " fill-rule="evenodd" fill="rgb(255,0,0)" stroke-width="5" stroke="rgb(0,0,0)" />
	<path d="M332.184,1699.68 756.448,2123.95 332.184,2548.21 100,2316.03 100,1931.87 332.184,1699.68 z " fill-rule="evenodd" fill="rgb(255,0,0)" stroke-width="5" stroke="rgb(0,0,0)" />
	<path d="M327.941,6837.52 213.461,6952 100,6952 100,6609.58 327.941,6837.52 z " fill-rule="evenodd" fill="rgb(255,0,0)" stroke-width="5" stroke="rgb(0,0,0)" />
	<path d="M332.184,6841.76 442.421,6952 221.946,6952 332.184,6841.76 z " fill-rule="evenodd" fill="rgb(255,0,0)" stroke-width="5" stroke="rgb(0,0,0)" />
	<path d="M1189.2,6841.76 1299.43,6952 1078.96,6952 1189.2,6841.76 z " fill-rule="evenodd" fill="rgb(255,0,0)" stroke-width="5" stroke="rgb(0,0,0)" />
	<path d="M2046.21,6841.76 2156.45,6952 1935.97,6952 2046.21,6841.76 z " fill-rule="evenodd" fill="rgb(255,0,0)" stroke-width="5" stroke="rgb(0,0,0)" />
	<path d="M2903.22,6841.76 2913.46,6852 2900,6852 2900,6952 2792.99,6952 2903.22,6841.76 z " fill-rule="evenodd" fill="rgb(255,0,0)" stroke-width="5" stroke="rgb(0,0,0)" />
	<path d="M6755.54,2123.95 6331.28,2548.21 5907.01,2123.95 6261.48,1769.48 6496.5,1864.91 6755.54,2123.95 z " fill-rule="evenodd" fill="rgb(255,0,0)" stroke-width="5" stroke="rgb(0,0,0)" />
	<path d="M7188.29,2548.21 6764.03,2123.95 6871,2016.97 7474.49,2262.01 7188.29,2548.21 z " fill-rule="evenodd" fill="rgb(255,0,0)" stroke-width="5" stroke="rgb(0,0,0)" />
	<path d="M8045.3,2548.21 7953.66,2456.56 8084.02,2509.49 8045.3,2548.21 z " fill-rule="evenodd" fill="rgb(255,0,0)" stroke-width="5" stroke="rgb(0,0,0)" />
	<path d="M327.941,1695.44 100,1923.38 100,1602 234.501,1602 327.941,1695.44 z " fill-rule="evenodd" fill="rgb(255,0,0)" stroke-width="5" stroke="rgb(0,0,0)" />
	<path d="M1184.95,1695.44 760.69,2119.7 336.426,1695.44 429.866,1602 700,1602 700,1502 991.515,1502 1184.95,1695.44 z " fill-rule="evenodd" fill="rgb(255,0,0)" stroke-width="5" stroke="rgb(0,0,0)" />
	<path d="M2041.97,1695.44 1617.7,2119.7 1193.44,1695.44 1386.88,1502 1400,1502 1400,1602 1948.53,1602 2041.97,1695.44 z " fill-rule="evenodd" fill="rgb(255,0,0)" stroke-width="5" stroke="rgb(0,0,0)" />
	<path d="M2474.72,1271.18 2898.98,1695.44 2474.72,2119.7 2050.45,1695.44 2143.89,1602 2150,1602 2150,1595.89 2474.72,1271.18 z " fill-rule="evenodd" fill="rgb(255,0,0)" stroke-width="5" stroke="rgb(0,0,0)" />
	<path d="M3331.73,1271.18 3755.99,1695.44 3331.73,2119.7 2907.47,1695.44 3000.91,1602 3147,1602 3246.66,1356.25 3331.73,1271.18 z " fill-rule="evenodd" fill="rgb(255,0,0)" stroke-width="5" stroke="rgb(0,0,0)" />
	<path d="M5470.02,1695.44 5045.76,2119.7 4621.49,1695.44 5042.43,1274.5 5053.64,1279.05 5470.02,1695.44 z " fill-rule="evenodd" fill="rgb(255,0,0)" stroke-width="5" stroke="rgb(0,0,0)" />
	<path d="M5902.77,2119.7 5478.51,1695.44 5651.95,1521.99 6255.44,1767.03 5902.77,2119.7 z " fill-rule="evenodd" fill="rgb(255,0,0)" stroke-width="5" stroke="rgb(0,0,0)" />
	<path d="M6759.78,2119.7 6510.79,1870.71 6864.97,2014.52 6759.78,2119.7 z " fill-rule="evenodd" fill="rgb(255,0,0)" stroke-width="5" stroke="rgb(0,0,0)" />
	<path d="M332.184,1691.2 242.987,1602 421.381,1602 332.184,1691.2 z " fill-rule="evenodd" fill="rgb(255,0,0)" stroke-width="5" stroke="rgb(0,0,0)" />
	<path d="M1189.2,1691.2 1000,1502 1378.39,1502 1189.2,1691.2 z " fill-rule="evenodd" fill="rgb(255,0,0)" stroke-width="5" stroke="rgb(0,0,0)" />
	<path d="M2046.21,1691.2 1957.01,1602 2135.41,1602 2046.21,1691.2 z " fill-rule="evenodd" fill="rgb(255,0,0)" stroke-width="5" stroke="rgb(0,0,0)" />
	<path d="M2470.47,1266.93 2150,1587.41 2150,946.458 2470.47,1266.93 z " fill-rule="evenodd" fill="rgb(255,0,0)" stroke-width="5" stroke="rgb(0,0,0)" />
	<path d="M2903.22,1691.2 2478.96,1266.93 2903.22,842.669 3219.27,1158.71 3080,1502 2950,1502 2950,1602 2992.42,1602 2903.22,1691.2 z " fill-rule="evenodd" fill="rgb(255,0,0)" stroke-width="5" stroke="rgb(0,0,0)" />
	<path d="M3327.49,1266.93 3252.45,1341.98 3295.75,1235.19 3327.49,1266.93 z " fill-rule="evenodd" fill="rgb(255,0,0)" stroke-width="5" stroke="rgb(0,0,0)" />
	<path d="M4617.25,1691.2 4192.99,1266.93 4432.9,1027.02 5036.39,1272.05 4617.25,1691.2 z " fill-rule="evenodd" fill="rgb(255,0,0)" stroke-width="5" stroke="rgb(0,0,0)" />
	<path d="M5474.26,1691.2 5067.92,1284.86 5645.92,1519.54 5474.26,1691.2 z " fill-rule="evenodd" fill="rgb(255,0,0)" stroke-width="5" stroke="rgb(0,0,0)" />
	<path d="M2474.72,414.162 2898.98,838.426 2474.72,1262.69 2150,937.973 2150,738.879 2474.72,414.162 z " fill-rule="evenodd" fill="rgb(255,0,0)" stroke-width="5" stroke="rgb(0,0,0)" />
	<path d="M2907.47,838.426 3214.24,531.651 3437,622 3221.71,1152.67 2907.47,838.426 z " fill-rule="evenodd" fill="rgb(255,0,0)" stroke-width="5" stroke="rgb(0,0,0)" />
	<path d="M3755.99,838.426 3331.73,1262.69 3298.2,1229.16 3529,660 3610.77,693.201 3755.99,838.426 z " fill-rule="evenodd" fill="rgb(255,0,0)" stroke-width="5" stroke="rgb(0,0,0)" />
	<path d="M4188.74,1262.69 3764.48,838.426 3823.38,779.528 4426.87,1024.57 4188.74,1262.69 z " fill-rule="evenodd" fill="rgb(255,0,0)" stroke-width="5" stroke="rgb(0,0,0)" />
	<path d="M2470.47,409.919 2150,730.394 2150,100 2167.76,107.202 2470.47,409.919 z " fill-rule="evenodd" fill="rgb(255,0,0)" stroke-width="5" stroke="rgb(0,0,0)" />
	<path d="M2903.22,834.184 2478.96,409.919 2604.53,284.353 3208.21,529.202 2903.22,834.184 z " fill-rule="evenodd" fill="rgb(255,0,0)" stroke-width="5" stroke="rgb(0,0,0)" />
	<path d="M3760.24,834.184 3625.06,699.002 3817.34,777.077 3760.24,834.184 z " fill-rule="evenodd" fill="rgb(255,0,0)" stroke-width="5" stroke="rgb(0,0,0)" />
	<path d="M2474.72,405.677 2182.03,112.992 2598.49,281.905 2474.72,405.677 z " fill-rule="evenodd" fill="rgb(255,0,0)" stroke-width="5" stroke="rgb(0,0,0)" />
	<polyline points="5045,5557 5469.26,5981.26 5045,5557 5469.26,5132.74 5045,5557 " fill="none" stroke-width="100" stroke="rgb(0,0,0)" />
	<circle cx="5045" cy="5557" r="-14.1421" fill="rgb(0,0,0)" />
	<circle cx="5469.26" cy="5981.26" r="-14.1421" fill="rgb(0,0,0)" />
	<circle cx="5045" cy="5557" r="-14.1421" fill="rgb(0,0,0)" />
	<circle cx="5469.26" cy="5132.74" r="-14.1421" fill="rgb(0,0,0)" />
	<circle cx="5045" cy="5557" r="-14.1421" fill="rgb(0,0,0)" />
	<polyline points="5045,6490.38 5045,5557 4578.31,5557 " fill="none" stroke-width="0.5" stroke="rgb(128,0,128)" />
</svg>
