<?xml version="1.0" standalone="no" ?>
<!DOCTYPE svg PUBLIC "-//W3C//DTD SVG 1.1//EN" "http://www.w3.org/Graphics/SVG/1.1/DTD/svg11.dtd">
<svg width="8700px" height="7052px" xmlns="http://www.w3.org/2000/svg" version="1.1" >
	<path d="M2002,2204 1402,2204 1402,2504 2002,2504 2002,2204 z " fill-rule="evenodd" fill="rgb(0,128,0)" stroke-width="5" stroke="rgb(0,0,0)" />
	<path d="M1700,2506 1100,2506 1100,2806 1700,2806 1700,2506 z " fill-rule="evenodd" fill="rgb(0,128,0)" stroke-width="5" stroke="rgb(0,0,0)" />
	<path d="M1400,1602 800,1602 800,1902 1400,1902 1400,1602 z " fill-rule="evenodd" fill="rgb(0,128,0)" stroke-width="5" stroke="rgb(0,0,0)" />
	<path d="M1098,1904 498,1904 498,2204 1098,2204 1098,1904 z " fill-rule="evenodd" fill="rgb(0,128,0)" stroke-width="5" stroke="rgb(0,0,0)" />
	<path d="M2000,3410 1400,3410 1400,3710 2000,3710 2000,3410 z " fill-rule="evenodd" fill="rgb(0,128,0)" stroke-width="5" stroke="rgb(0,0,0)" />
	<path d="M2304,1902 1704,1902 1704,2202 2304,2202 2304,1902 z " fill-rule="evenodd" fill="rgb(0,128,0)" stroke-width="5" stroke="rgb(0,0,0)" />
	<path d="M1698,3712 1098,3712 1098,4012 1698,4012 1698,3712 z " fill-rule="evenodd" fill="rgb(0,128,0)" stroke-width="5" stroke="rgb(0,0,0)" />
	<path d="M1396,4014 796,4014 796,4314 1396,4314 1396,4014 z " fill-rule="evenodd" fill="rgb(0,128,0)" stroke-width="5" stroke="rgb(0,0,0)" />
	<path d="M796,2206 196,2206 196,2506 796,2506 796,2206 z " fill-rule="evenodd" fill="rgb(0,128,0)" stroke-width="5" stroke="rgb(0,0,0)" />
	<path d="M2602,4012 2002,4012 2002,4312 2602,4312 2602,4012 z " fill-rule="evenodd" fill="rgb(0,128,0)" stroke-width="5" stroke="rgb(0,0,0)" />
	<path d="M2906,2504 2306,2504 2306,2804 2906,2804 2906,2504 z " fill-rule="evenodd" fill="rgb(0,128,0)" stroke-width="5" stroke="rgb(0,0,0)" />
	<path d="M2300,4314 1700,4314 1700,4614 2300,4614 2300,4314 z " fill-rule="evenodd" fill="rgb(0,128,0)" stroke-width="5" stroke="rgb(0,0,0)" />
	<path d="M1998,4616 1398,4616 1398,4916 1998,4916 1998,4616 z " fill-rule="evenodd" fill="rgb(0,128,0)" stroke-width="5" stroke="rgb(0,0,0)" />
	<path d="M1696,4918 1096,4918 1096,5218 1696,5218 1696,4918 z " fill-rule="evenodd" fill="rgb(0,128,0)" stroke-width="5" stroke="rgb(0,0,0)" />
	<path d="M1394,5220 794,5220 794,5520 1394,5520 1394,5220 z " fill-rule="evenodd" fill="rgb(0,128,0)" stroke-width="5" stroke="rgb(0,0,0)" />
	<path d="M1094,4316 494,4316 494,4616 1094,4616 1094,4316 z " fill-rule="evenodd" fill="rgb(0,128,0)" stroke-width="5" stroke="rgb(0,0,0)" />
	<path d="M794,3412 194,3412 194,3712 794,3712 794,3412 z " fill-rule="evenodd" fill="rgb(0,128,0)" stroke-width="5" stroke="rgb(0,0,0)" />
	<path d="M3208,2202 2608,2202 2608,2502 3208,2502 3208,2202 z " fill-rule="evenodd" fill="rgb(0,128,0)" stroke-width="5" stroke="rgb(0,0,0)" />
	<path d="M2600,5218 2000,5218 2000,5518 2600,5518 2600,5218 z " fill-rule="evenodd" fill="rgb(0,128,0)" stroke-width="5" stroke="rgb(0,0,0)" />
	<path d="M2908,1298 2308,1298 2308,1598 2908,1598 2908,1298 z " fill-rule="evenodd" fill="rgb(0,128,0)" stroke-width="5" stroke="rgb(0,0,0)" />
	<path d="M2298,5520 1698,5520 1698,5820 2298,5820 2298,5520 z " fill-rule="evenodd" fill="rgb(0,128,0)" stroke-width="5" stroke="rgb(0,0,0)" />
	<path d="M1996,5822 1396,5822 1396,6122 1996,6122 1996,5822 z " fill-rule="evenodd" fill="rgb(0,128,0)" stroke-width="5" stroke="rgb(0,0,0)" />
	<path d="M1694,6124 1094,6124 1094,6424 1694,6424 1694,6124 z " fill-rule="evenodd" fill="rgb(0,128,0)" stroke-width="5" stroke="rgb(0,0,0)" />
	<path d="M1392,6426 792,6426 792,6726 1392,6726 1392,6426 z " fill-rule="evenodd" fill="rgb(0,128,0)" stroke-width="5" stroke="rgb(0,0,0)" />
	<path d="M1092,5522 492,5522 492,5822 1092,5822 1092,5522 z " fill-rule="evenodd" fill="rgb(0,128,0)" stroke-width="5" stroke="rgb(0,0,0)" />
	<path d="M792,4618 192,4618 192,4918 792,4918 792,4618 z " fill-rule="evenodd" fill="rgb(0,128,0)" stroke-width="5" stroke="rgb(0,0,0)" />
	<path d="M4410,4612 3810,4612 3810,4912 4410,4912 4410,4612 z " fill-rule="evenodd" fill="rgb(0,128,0)" stroke-width="5" stroke="rgb(0,0,0)" />
	<path d="M3510,1900 2910,1900 2910,2200 3510,2200 3510,1900 z " fill-rule="evenodd" fill="rgb(0,128,0)" stroke-width="5" stroke="rgb(0,0,0)" />
	<path d="M2900,6122 2300,6122 2300,6422 2900,6422 2900,6122 z " fill-rule="evenodd" fill="rgb(0,128,0)" stroke-width="5" stroke="rgb(0,0,0)" />
	<path d="M2598,6424 1998,6424 1998,6724 2598,6724 2598,6424 z " fill-rule="evenodd" fill="rgb(0,128,0)" stroke-width="5" stroke="rgb(0,0,0)" />
	<path d="M790,5824 190,5824 190,6124 790,6124 790,5824 z " fill-rule="evenodd" fill="rgb(0,128,0)" stroke-width="5" stroke="rgb(0,0,0)" />
	<path d="M4712,4310 4112,4310 4112,4610 4712,4610 4712,4310 z " fill-rule="evenodd" fill="rgb(0,128,0)" stroke-width="5" stroke="rgb(0,0,0)" />
	<path d="M4412,3406 3812,3406 3812,3706 4412,3706 4412,3406 z " fill-rule="evenodd" fill="rgb(0,128,0)" stroke-width="5" stroke="rgb(0,0,0)" />
	<path d="M4112,2502 3512,2502 3512,2802 4112,2802 4112,2502 z " fill-rule="evenodd" fill="rgb(0,128,0)" stroke-width="5" stroke="rgb(0,0,0)" />
	<path d="M3812,1598 3212,1598 3212,1898 3812,1898 3812,1598 z " fill-rule="evenodd" fill="rgb(0,128,0)" stroke-width="5" stroke="rgb(0,0,0)" />
	<path d="M4714,3104 4114,3104 4114,3404 4714,3404 4714,3104 z " fill-rule="evenodd" fill="rgb(0,128,0)" stroke-width="5" stroke="rgb(0,0,0)" />
	<path d="M4414,2200 3814,2200 3814,2500 4414,2500 4414,2200 z " fill-rule="evenodd" fill="rgb(0,128,0)" stroke-width="5" stroke="rgb(0,0,0)" />
	<path d="M4114,1296 3514,1296 3514,1596 4114,1596 4114,1296 z " fill-rule="evenodd" fill="rgb(0,128,0)" stroke-width="5" stroke="rgb(0,0,0)" />
	<path d="M4716,1898 4116,1898 4116,2198 4716,2198 4716,1898 z " fill-rule="evenodd" fill="rgb(0,128,0)" stroke-width="5" stroke="rgb(0,0,0)" />
	<path d="M6218,5212 5618,5212 5618,5512 6218,5512 6218,5212 z " fill-rule="evenodd" fill="rgb(0,128,0)" stroke-width="5" stroke="rgb(0,0,0)" />
	<path d="M5918,4308 5318,4308 5318,4608 5918,4608 5918,4308 z " fill-rule="evenodd" fill="rgb(0,128,0)" stroke-width="5" stroke="rgb(0,0,0)" />
	<path d="M5318,2500 4718,2500 4718,2800 5318,2800 5318,2500 z " fill-rule="evenodd" fill="rgb(0,128,0)" stroke-width="5" stroke="rgb(0,0,0)" />
	<path d="M5018,1596 4418,1596 4418,1896 5018,1896 5018,1596 z " fill-rule="evenodd" fill="rgb(0,128,0)" stroke-width="5" stroke="rgb(0,0,0)" />
	<path d="M6520,4910 5920,4910 5920,5210 6520,5210 6520,4910 z " fill-rule="evenodd" fill="rgb(0,128,0)" stroke-width="5" stroke="rgb(0,0,0)" />
	<path d="M6220,4006 5620,4006 5620,4306 6220,4306 6220,4006 z " fill-rule="evenodd" fill="rgb(0,128,0)" stroke-width="5" stroke="rgb(0,0,0)" />
	<path d="M5920,3102 5320,3102 5320,3402 5920,3402 5920,3102 z " fill-rule="evenodd" fill="rgb(0,128,0)" stroke-width="5" stroke="rgb(0,0,0)" />
	<path d="M5620,2198 5020,2198 5020,2498 5620,2498 5620,2198 z " fill-rule="evenodd" fill="rgb(0,128,0)" stroke-width="5" stroke="rgb(0,0,0)" />
	<path d="M6822,4608 6222,4608 6222,4908 6822,4908 6822,4608 z " fill-rule="evenodd" fill="rgb(0,128,0)" stroke-width="5" stroke="rgb(0,0,0)" />
	<path d="M6522,3704 5922,3704 5922,4004 6522,4004 6522,3704 z " fill-rule="evenodd" fill="rgb(0,128,0)" stroke-width="5" stroke="rgb(0,0,0)" />
	<path d="M6222,2800 5622,2800 5622,3100 6222,3100 6222,2800 z " fill-rule="evenodd" fill="rgb(0,128,0)" stroke-width="5" stroke="rgb(0,0,0)" />
	<path d="M5922,1896 5322,1896 5322,2196 5922,2196 5922,1896 z " fill-rule="evenodd" fill="rgb(0,128,0)" stroke-width="5" stroke="rgb(0,0,0)" />
	<path d="M7424,5210 6824,5210 6824,5510 7424,5510 7424,5210 z " fill-rule="evenodd" fill="rgb(0,128,0)" stroke-width="5" stroke="rgb(0,0,0)" />
	<path d="M7124,4306 6524,4306 6524,4606 7124,4606 7124,4306 z " fill-rule="evenodd" fill="rgb(0,128,0)" stroke-width="5" stroke="rgb(0,0,0)" />
	<path d="M6824,3402 6224,3402 6224,3702 6824,3702 6824,3402 z " fill-rule="evenodd" fill="rgb(0,128,0)" stroke-width="5" stroke="rgb(0,0,0)" />
	<path d="M6524,2498 5924,2498 5924,2798 6524,2798 6524,2498 z " fill-rule="evenodd" fill="rgb(0,128,0)" stroke-width="5" stroke="rgb(0,0,0)" />
	<path d="M7726,4908 7126,4908 7126,5208 7726,5208 7726,4908 z " fill-rule="evenodd" fill="rgb(0,128,0)" stroke-width="5" stroke="rgb(0,0,0)" />
	<path d="M7426,4004 6826,4004 6826,4304 7426,4304 7426,4004 z " fill-rule="evenodd" fill="rgb(0,128,0)" stroke-width="5" stroke="rgb(0,0,0)" />
	<path d="M7126,3100 6526,3100 6526,3400 7126,3400 7126,3100 z " fill-rule="evenodd" fill="rgb(0,128,0)" stroke-width="5" stroke="rgb(0,0,0)" />
	<path d="M6826,2196 6226,2196 6226,2496 6826,2496 6826,2196 z " fill-rule="evenodd" fill="rgb(0,128,0)" stroke-width="5" stroke="rgb(0,0,0)" />
	<path d="M8028,4606 7428,4606 7428,4906 8028,4906 8028,4606 z " fill-rule="evenodd" fill="rgb(0,128,0)" stroke-width="5" stroke="rgb(0,0,0)" />
	<path d="M7728,3702 7128,3702 7128,4002 7728,4002 7728,3702 z " fill-rule="evenodd" fill="rgb(0,128,0)" stroke-width="5" stroke="rgb(0,0,0)" />
	<path d="M7428,2798 6828,2798 6828,3098 7428,3098 7428,2798 z " fill-rule="evenodd" fill="rgb(0,128,0)" stroke-width="5" stroke="rgb(0,0,0)" />
	<path d="M8330,4304 7730,4304 7730,4604 8330,4604 8330,4304 z " fill-rule="evenodd" fill="rgb(0,128,0)" stroke-width="5" stroke="rgb(0,0,0)" />
	<path d="M8030,3400 7430,3400 7430,3700 8030,3700 8030,3400 z " fill-rule="evenodd" fill="rgb(0,128,0)" stroke-width="5" stroke="rgb(0,0,0)" />
	<path d="M7730,2496 7130,2496 7130,2796 7730,2796 7730,2496 z " fill-rule="evenodd" fill="rgb(0,128,0)" stroke-width="5" stroke="rgb(0,0,0)" />
	<path d="M8332,3098 7732,3098 7732,3398 8332,3398 8332,3098 z " fill-rule="evenodd" fill="rgb(0,128,0)" stroke-width="5" stroke="rgb(0,0,0)" />
	<path d="M1702,1602 1402,1602 1402,2202 1702,2202 1702,1602 z " fill-rule="evenodd" fill="rgb(0,128,0)" stroke-width="5" stroke="rgb(0,0,0)" />
	<path d="M1400,1904 1100,1904 1100,2504 1400,2504 1400,1904 z " fill-rule="evenodd" fill="rgb(0,128,0)" stroke-width="5" stroke="rgb(0,0,0)" />
	<path d="M1098,2206 798,2206 798,2806 1098,2806 1098,2206 z " fill-rule="evenodd" fill="rgb(0,128,0)" stroke-width="5" stroke="rgb(0,0,0)" />
	<path d="M2604,3108 2304,3108 2304,3708 2604,3708 2604,3108 z " fill-rule="evenodd" fill="rgb(0,128,0)" stroke-width="5" stroke="rgb(0,0,0)" />
	<path d="M2302,3410 2002,3410 2002,4010 2302,4010 2302,3410 z " fill-rule="evenodd" fill="rgb(0,128,0)" stroke-width="5" stroke="rgb(0,0,0)" />
	<path d="M2000,3712 1700,3712 1700,4312 2000,4312 2000,3712 z " fill-rule="evenodd" fill="rgb(0,128,0)" stroke-width="5" stroke="rgb(0,0,0)" />
	<path d="M2304,2204 2004,2204 2004,2804 2304,2804 2304,2204 z " fill-rule="evenodd" fill="rgb(0,128,0)" stroke-width="5" stroke="rgb(0,0,0)" />
	<path d="M1698,4014 1398,4014 1398,4614 1698,4614 1698,4014 z " fill-rule="evenodd" fill="rgb(0,128,0)" stroke-width="5" stroke="rgb(0,0,0)" />
	<path d="M1396,4316 1096,4316 1096,4916 1396,4916 1396,4316 z " fill-rule="evenodd" fill="rgb(0,128,0)" stroke-width="5" stroke="rgb(0,0,0)" />
	<path d="M1096,3412 796,3412 796,4012 1096,4012 1096,3412 z " fill-rule="evenodd" fill="rgb(0,128,0)" stroke-width="5" stroke="rgb(0,0,0)" />
	<path d="M496,1604 196,1604 196,2204 496,2204 496,1604 z " fill-rule="evenodd" fill="rgb(0,128,0)" stroke-width="5" stroke="rgb(0,0,0)" />
	<path d="M2602,4314 2302,4314 2302,4914 2602,4914 2602,4314 z " fill-rule="evenodd" fill="rgb(0,128,0)" stroke-width="5" stroke="rgb(0,0,0)" />
	<path d="M2606,1902 2306,1902 2306,2502 2606,2502 2606,1902 z " fill-rule="evenodd" fill="rgb(0,128,0)" stroke-width="5" stroke="rgb(0,0,0)" />
	<path d="M2300,4616 2000,4616 2000,5216 2300,5216 2300,4616 z " fill-rule="evenodd" fill="rgb(0,128,0)" stroke-width="5" stroke="rgb(0,0,0)" />
	<path d="M1998,4918 1698,4918 1698,5518 1998,5518 1998,4918 z " fill-rule="evenodd" fill="rgb(0,128,0)" stroke-width="5" stroke="rgb(0,0,0)" />
	<path d="M1696,5220 1396,5220 1396,5820 1696,5820 1696,5220 z " fill-rule="evenodd" fill="rgb(0,128,0)" stroke-width="5" stroke="rgb(0,0,0)" />
	<path d="M1394,5522 1094,5522 1094,6122 1394,6122 1394,5522 z " fill-rule="evenodd" fill="rgb(0,128,0)" stroke-width="5" stroke="rgb(0,0,0)" />
	<path d="M1094,4618 794,4618 794,5218 1094,5218 1094,4618 z " fill-rule="evenodd" fill="rgb(0,128,0)" stroke-width="5" stroke="rgb(0,0,0)" />
	<path d="M794,3714 494,3714 494,4314 794,4314 794,3714 z " fill-rule="evenodd" fill="rgb(0,128,0)" stroke-width="5" stroke="rgb(0,0,0)" />
	<path d="M2600,5520 2300,5520 2300,6120 2600,6120 2600,5520 z " fill-rule="evenodd" fill="rgb(0,128,0)" stroke-width="5" stroke="rgb(0,0,0)" />
	<path d="M2908,1600 2608,1600 2608,2200 2908,2200 2908,1600 z " fill-rule="evenodd" fill="rgb(0,128,0)" stroke-width="5" stroke="rgb(0,0,0)" />
	<path d="M2608,696 2308,696 2308,1296 2608,1296 2608,696 z " fill-rule="evenodd" fill="rgb(0,128,0)" stroke-width="5" stroke="rgb(0,0,0)" />
	<path d="M2298,5822 1998,5822 1998,6422 2298,6422 2298,5822 z " fill-rule="evenodd" fill="rgb(0,128,0)" stroke-width="5" stroke="rgb(0,0,0)" />
	<path d="M1996,6124 1696,6124 1696,6724 1996,6724 1996,6124 z " fill-rule="evenodd" fill="rgb(0,128,0)" stroke-width="5" stroke="rgb(0,0,0)" />
	<path d="M1092,5824 792,5824 792,6424 1092,6424 1092,5824 z " fill-rule="evenodd" fill="rgb(0,128,0)" stroke-width="5" stroke="rgb(0,0,0)" />
	<path d="M792,4920 492,4920 492,5520 792,5520 792,4920 z " fill-rule="evenodd" fill="rgb(0,128,0)" stroke-width="5" stroke="rgb(0,0,0)" />
	<path d="M492,4016 192,4016 192,4616 492,4616 492,4016 z " fill-rule="evenodd" fill="rgb(0,128,0)" stroke-width="5" stroke="rgb(0,0,0)" />
	<path d="M3510,2202 3210,2202 3210,2802 3510,2802 3510,2202 z " fill-rule="evenodd" fill="rgb(0,128,0)" stroke-width="5" stroke="rgb(0,0,0)" />
	<path d="M790,6126 490,6126 490,6726 790,6726 790,6126 z " fill-rule="evenodd" fill="rgb(0,128,0)" stroke-width="5" stroke="rgb(0,0,0)" />
	<path d="M490,5222 190,5222 190,5822 490,5822 490,5222 z " fill-rule="evenodd" fill="rgb(0,128,0)" stroke-width="5" stroke="rgb(0,0,0)" />
	<path d="M4412,3708 4112,3708 4112,4308 4412,4308 4412,3708 z " fill-rule="evenodd" fill="rgb(0,128,0)" stroke-width="5" stroke="rgb(0,0,0)" />
	<path d="M4110,4010 3810,4010 3810,4610 4110,4610 4110,4010 z " fill-rule="evenodd" fill="rgb(0,128,0)" stroke-width="5" stroke="rgb(0,0,0)" />
	<path d="M3812,1900 3512,1900 3512,2500 3812,2500 3812,1900 z " fill-rule="evenodd" fill="rgb(0,128,0)" stroke-width="5" stroke="rgb(0,0,0)" />
	<path d="M4714,3406 4414,3406 4414,4006 4714,4006 4714,3406 z " fill-rule="evenodd" fill="rgb(0,128,0)" stroke-width="5" stroke="rgb(0,0,0)" />
	<path d="M4114,1598 3814,1598 3814,2198 4114,2198 4114,1598 z " fill-rule="evenodd" fill="rgb(0,128,0)" stroke-width="5" stroke="rgb(0,0,0)" />
	<path d="M5616,4912 5316,4912 5316,5512 5616,5512 5616,4912 z " fill-rule="evenodd" fill="rgb(0,128,0)" stroke-width="5" stroke="rgb(0,0,0)" />
	<path d="M4716,2200 4416,2200 4416,2800 4716,2800 4716,2200 z " fill-rule="evenodd" fill="rgb(0,128,0)" stroke-width="5" stroke="rgb(0,0,0)" />
	<path d="M4416,1296 4116,1296 4116,1896 4416,1896 4416,1296 z " fill-rule="evenodd" fill="rgb(0,128,0)" stroke-width="5" stroke="rgb(0,0,0)" />
	<path d="M5918,4610 5618,4610 5618,5210 5918,5210 5918,4610 z " fill-rule="evenodd" fill="rgb(0,128,0)" stroke-width="5" stroke="rgb(0,0,0)" />
	<path d="M5618,3706 5318,3706 5318,4306 5618,4306 5618,3706 z " fill-rule="evenodd" fill="rgb(0,128,0)" stroke-width="5" stroke="rgb(0,0,0)" />
	<path d="M5018,1898 4718,1898 4718,2498 5018,2498 5018,1898 z " fill-rule="evenodd" fill="rgb(0,128,0)" stroke-width="5" stroke="rgb(0,0,0)" />
	<path d="M6220,4308 5920,4308 5920,4908 6220,4908 6220,4308 z " fill-rule="evenodd" fill="rgb(0,128,0)" stroke-width="5" stroke="rgb(0,0,0)" />
	<path d="M5920,3404 5620,3404 5620,4004 5920,4004 5920,3404 z " fill-rule="evenodd" fill="rgb(0,128,0)" stroke-width="5" stroke="rgb(0,0,0)" />
	<path d="M5620,2500 5320,2500 5320,3100 5620,3100 5620,2500 z " fill-rule="evenodd" fill="rgb(0,128,0)" stroke-width="5" stroke="rgb(0,0,0)" />
	<path d="M5320,1596 5020,1596 5020,2196 5320,2196 5320,1596 z " fill-rule="evenodd" fill="rgb(0,128,0)" stroke-width="5" stroke="rgb(0,0,0)" />
	<path d="M6822,4910 6522,4910 6522,5510 6822,5510 6822,4910 z " fill-rule="evenodd" fill="rgb(0,128,0)" stroke-width="5" stroke="rgb(0,0,0)" />
	<path d="M6522,4006 6222,4006 6222,4606 6522,4606 6522,4006 z " fill-rule="evenodd" fill="rgb(0,128,0)" stroke-width="5" stroke="rgb(0,0,0)" />
	<path d="M6222,3102 5922,3102 5922,3702 6222,3702 6222,3102 z " fill-rule="evenodd" fill="rgb(0,128,0)" stroke-width="5" stroke="rgb(0,0,0)" />
	<path d="M5922,2198 5622,2198 5622,2798 5922,2798 5922,2198 z " fill-rule="evenodd" fill="rgb(0,128,0)" stroke-width="5" stroke="rgb(0,0,0)" />
	<path d="M7124,4608 6824,4608 6824,5208 7124,5208 7124,4608 z " fill-rule="evenodd" fill="rgb(0,128,0)" stroke-width="5" stroke="rgb(0,0,0)" />
	<path d="M6824,3704 6524,3704 6524,4304 6824,4304 6824,3704 z " fill-rule="evenodd" fill="rgb(0,128,0)" stroke-width="5" stroke="rgb(0,0,0)" />
	<path d="M6524,2800 6224,2800 6224,3400 6524,3400 6524,2800 z " fill-rule="evenodd" fill="rgb(0,128,0)" stroke-width="5" stroke="rgb(0,0,0)" />
	<path d="M6224,1896 5924,1896 5924,2496 6224,2496 6224,1896 z " fill-rule="evenodd" fill="rgb(0,128,0)" stroke-width="5" stroke="rgb(0,0,0)" />
	<path d="M7426,4306 7126,4306 7126,4906 7426,4906 7426,4306 z " fill-rule="evenodd" fill="rgb(0,128,0)" stroke-width="5" stroke="rgb(0,0,0)" />
	<path d="M7126,3402 6826,3402 6826,4002 7126,4002 7126,3402 z " fill-rule="evenodd" fill="rgb(0,128,0)" stroke-width="5" stroke="rgb(0,0,0)" />
	<path d="M6826,2498 6526,2498 6526,3098 6826,3098 6826,2498 z " fill-rule="evenodd" fill="rgb(0,128,0)" stroke-width="5" stroke="rgb(0,0,0)" />
	<path d="M8028,4908 7728,4908 7728,5508 8028,5508 8028,4908 z " fill-rule="evenodd" fill="rgb(0,128,0)" stroke-width="5" stroke="rgb(0,0,0)" />
	<path d="M7728,4004 7428,4004 7428,4604 7728,4604 7728,4004 z " fill-rule="evenodd" fill="rgb(0,128,0)" stroke-width="5" stroke="rgb(0,0,0)" />
	<path d="M7428,3100 7128,3100 7128,3700 7428,3700 7428,3100 z " fill-rule="evenodd" fill="rgb(0,128,0)" stroke-width="5" stroke="rgb(0,0,0)" />
	<path d="M7128,2196 6828,2196 6828,2796 7128,2796 7128,2196 z " fill-rule="evenodd" fill="rgb(0,128,0)" stroke-width="5" stroke="rgb(0,0,0)" />
	<path d="M8330,4606 8030,4606 8030,5206 8330,5206 8330,4606 z " fill-rule="evenodd" fill="rgb(0,128,0)" stroke-width="5" stroke="rgb(0,0,0)" />
	<path d="M8030,3702 7730,3702 7730,4302 8030,4302 8030,3702 z " fill-rule="evenodd" fill="rgb(0,128,0)" stroke-width="5" stroke="rgb(0,0,0)" />
	<path d="M7730,2798 7430,2798 7430,3398 7730,3398 7730,2798 z " fill-rule="evenodd" fill="rgb(0,128,0)" stroke-width="5" stroke="rgb(0,0,0)" />
	<path d="M8332,3400 8032,3400 8032,4000 8332,4000 8332,3400 z " fill-rule="evenodd" fill="rgb(0,128,0)" stroke-width="5" stroke="rgb(0,0,0)" />
	<path d="M8032,2496 7732,2496 7732,3096 8032,3096 8032,2496 z " fill-rule="evenodd" fill="rgb(0,128,0)" stroke-width="5" stroke="rgb(0,0,0)" />
	<path d="M798,2808 1398,2808 1398,2952 798,2952 798,2808 z " fill-rule="evenodd" fill="rgb(255,0,0)" stroke-width="5" stroke="rgb(0,0,0)" />
	<path d="M1102,1600 1102,1502 1400,1502 1400,1600 1102,1600 z " fill-rule="evenodd" fill="rgb(255,0,0)" stroke-width="5" stroke="rgb(0,0,0)" />
	<path d="M2004,2806 2604,2806 2604,3106 2050,3106 2050,2952 2004,2952 2004,2806 z " fill-rule="evenodd" fill="rgb(255,0,0)" stroke-width="5" stroke="rgb(0,0,0)" />
	<path d="M2302,3108 2302,3408 1702,3408 1702,3152 2050,3152 2050,3108 2302,3108 z " fill-rule="evenodd" fill="rgb(255,0,0)" stroke-width="5" stroke="rgb(0,0,0)" />
	<path d="M1096,3410 496,3410 496,3152 1096,3152 1096,3410 z " fill-rule="evenodd" fill="rgb(255,0,0)" stroke-width="5" stroke="rgb(0,0,0)" />
	<path d="M2606,3708 2606,3408 2900,3408 2900,3708 2606,3708 z " fill-rule="evenodd" fill="rgb(255,0,0)" stroke-width="5" stroke="rgb(0,0,0)" />
	<path d="M2304,4010 2304,3710 2900,3710 2900,4010 2304,4010 z " fill-rule="evenodd" fill="rgb(255,0,0)" stroke-width="5" stroke="rgb(0,0,0)" />
	<path d="M2606,1600 2606,1900 2006,1900 2006,1602 2150,1602 2150,1600 2606,1600 z " fill-rule="evenodd" fill="rgb(255,0,0)" stroke-width="5" stroke="rgb(0,0,0)" />
	<path d="M2306,696 2306,996 2150,996 2150,696 2306,696 z " fill-rule="evenodd" fill="rgb(255,0,0)" stroke-width="5" stroke="rgb(0,0,0)" />
	<path d="M494,2508 494,2808 100,2808 100,2508 494,2508 z " fill-rule="evenodd" fill="rgb(255,0,0)" stroke-width="5" stroke="rgb(0,0,0)" />
	<path d="M194,1604 194,1904 100,1904 100,1604 194,1604 z " fill-rule="evenodd" fill="rgb(255,0,0)" stroke-width="5" stroke="rgb(0,0,0)" />
	<path d="M3808,4010 3808,4310 3700,4310 3700,4010 3808,4010 z " fill-rule="evenodd" fill="rgb(255,0,0)" stroke-width="5" stroke="rgb(0,0,0)" />
	<path d="M2604,4914 2604,4614 2900,4614 2900,4914 2604,4914 z " fill-rule="evenodd" fill="rgb(255,0,0)" stroke-width="5" stroke="rgb(0,0,0)" />
	<path d="M2302,5216 2302,4916 2900,4916 2900,5216 2302,5216 z " fill-rule="evenodd" fill="rgb(255,0,0)" stroke-width="5" stroke="rgb(0,0,0)" />
	<path d="M2608,394 2608,694 2150,694 2150,394 2608,394 z " fill-rule="evenodd" fill="rgb(255,0,0)" stroke-width="5" stroke="rgb(0,0,0)" />
	<path d="M492,3714 492,4014 100,4014 100,3714 492,3714 z " fill-rule="evenodd" fill="rgb(255,0,0)" stroke-width="5" stroke="rgb(0,0,0)" />
	<path d="M192,2810 192,2952 100,2952 100,2810 192,2810 z " fill-rule="evenodd" fill="rgb(255,0,0)" stroke-width="5" stroke="rgb(0,0,0)" />
	<path d="M4108,4914 4108,4952 3700,4952 3700,4914 4108,4914 z " fill-rule="evenodd" fill="rgb(255,0,0)" stroke-width="5" stroke="rgb(0,0,0)" />
	<path d="M4110,3708 4110,4008 3700,4008 3700,3708 4110,3708 z " fill-rule="evenodd" fill="rgb(255,0,0)" stroke-width="5" stroke="rgb(0,0,0)" />
	<path d="M3210,2804 3810,2804 3810,2952 3210,2952 3210,2804 z " fill-rule="evenodd" fill="rgb(255,0,0)" stroke-width="5" stroke="rgb(0,0,0)" />
	<path d="M3810,3104 3700,3104 3700,3052 3810,3052 3810,3104 z " fill-rule="evenodd" fill="rgb(255,0,0)" stroke-width="5" stroke="rgb(0,0,0)" />
	<path d="M2602,6120 2602,5820 2900,5820 2900,6052 3100,6052 3100,6120 2602,6120 z " fill-rule="evenodd" fill="rgb(255,0,0)" stroke-width="5" stroke="rgb(0,0,0)" />
	<path d="M2610,1296 2610,996 3210,996 3210,1181.55 3163.57,1296 2610,1296 z " fill-rule="evenodd" fill="rgb(255,0,0)" stroke-width="5" stroke="rgb(0,0,0)" />
	<path d="M2310,392 2310,164.895 2869.93,392 2310,392 z " fill-rule="evenodd" fill="rgb(255,0,0)" stroke-width="5" stroke="rgb(0,0,0)" />
	<path d="M1696,6726 2296,6726 2296,6952 1696,6952 1696,6726 z " fill-rule="evenodd" fill="rgb(255,0,0)" stroke-width="5" stroke="rgb(0,0,0)" />
	<path d="M490,6728 1090,6728 1090,6952 490,6952 490,6728 z " fill-rule="evenodd" fill="rgb(255,0,0)" stroke-width="5" stroke="rgb(0,0,0)" />
	<path d="M490,4920 490,5220 100,5220 100,4920 490,4920 z " fill-rule="evenodd" fill="rgb(255,0,0)" stroke-width="5" stroke="rgb(0,0,0)" />
	<path d="M190,4016 190,4316 100,4316 100,4016 190,4016 z " fill-rule="evenodd" fill="rgb(255,0,0)" stroke-width="5" stroke="rgb(0,0,0)" />
	<path d="M2902,6724 3100,6724 3100,6852 2902,6852 2902,6724 z " fill-rule="evenodd" fill="rgb(255,0,0)" stroke-width="5" stroke="rgb(0,0,0)" />
	<path d="M2912,994 2912,694 3407.79,694 3286.09,994 2912,994 z " fill-rule="evenodd" fill="rgb(255,0,0)" stroke-width="5" stroke="rgb(0,0,0)" />
	<path d="M3512,994 3393.56,994 3512,701.921 3512,994 z " fill-rule="evenodd" fill="rgb(255,0,0)" stroke-width="5" stroke="rgb(0,0,0)" />
	<path d="M488,6126 488,6426 100,6426 100,6126 488,6126 z " fill-rule="evenodd" fill="rgb(255,0,0)" stroke-width="5" stroke="rgb(0,0,0)" />
	<path d="M188,5222 188,5522 100,5522 100,5222 188,5222 z " fill-rule="evenodd" fill="rgb(255,0,0)" stroke-width="5" stroke="rgb(0,0,0)" />
	<path d="M5314,4912 5314,5212 5050,5212 5050,4912 5314,4912 z " fill-rule="evenodd" fill="rgb(255,0,0)" stroke-width="5" stroke="rgb(0,0,0)" />
	<path d="M4714,4912 4950,4912 4950,4952 4714,4952 4714,4912 z " fill-rule="evenodd" fill="rgb(255,0,0)" stroke-width="5" stroke="rgb(0,0,0)" />
	<path d="M4414,4308 4414,4008 4950,4008 4950,4308 4414,4308 z " fill-rule="evenodd" fill="rgb(255,0,0)" stroke-width="5" stroke="rgb(0,0,0)" />
	<path d="M3214,692 3214,531.552 3437,622 3408.6,692 3214,692 z " fill-rule="evenodd" fill="rgb(255,0,0)" stroke-width="5" stroke="rgb(0,0,0)" />
	<path d="M3516.02,692 3529,660 3607.81,692 3516.02,692 z " fill-rule="evenodd" fill="rgb(255,0,0)" stroke-width="5" stroke="rgb(0,0,0)" />
	<path d="M186,6428 186,6728 100,6728 100,6428 186,6428 z " fill-rule="evenodd" fill="rgb(255,0,0)" stroke-width="5" stroke="rgb(0,0,0)" />
	<path d="M5316,5514 5916,5514 5916,5552 5316,5552 5316,5514 z " fill-rule="evenodd" fill="rgb(255,0,0)" stroke-width="5" stroke="rgb(0,0,0)" />
	<path d="M5616,4610 5616,4910 5050,4910 5050,4610 5616,4610 z " fill-rule="evenodd" fill="rgb(255,0,0)" stroke-width="5" stroke="rgb(0,0,0)" />
	<path d="M5316,3706 5316,4006 5050,4006 5050,3706 5316,3706 z " fill-rule="evenodd" fill="rgb(255,0,0)" stroke-width="5" stroke="rgb(0,0,0)" />
	<path d="M4716,4006 4716,3706 4950,3706 4950,4006 4716,4006 z " fill-rule="evenodd" fill="rgb(255,0,0)" stroke-width="5" stroke="rgb(0,0,0)" />
	<path d="M4416,3102 4416,2802 5016,2802 5016,2952 4900,2952 4900,3052 4950,3052 4950,3102 4416,3102 z " fill-rule="evenodd" fill="rgb(255,0,0)" stroke-width="5" stroke="rgb(0,0,0)" />
	<path d="M4416,1294 3816,1294 3816,994 4351.59,994 4416,1020.15 4416,1294 z " fill-rule="evenodd" fill="rgb(255,0,0)" stroke-width="5" stroke="rgb(0,0,0)" />
	<path d="M5618,3404 5618,3704 5050,3704 5050,3404 5618,3404 z " fill-rule="evenodd" fill="rgb(255,0,0)" stroke-width="5" stroke="rgb(0,0,0)" />
	<path d="M4118,992 4118,899.154 4346.66,992 4118,992 z " fill-rule="evenodd" fill="rgb(255,0,0)" stroke-width="5" stroke="rgb(0,0,0)" />
	<path d="M5320,1594 4720,1594 4720,1294 5090.44,1294 5320,1387.21 5320,1594 z " fill-rule="evenodd" fill="rgb(255,0,0)" stroke-width="5" stroke="rgb(0,0,0)" />
	<path d="M6522,5512 7122,5512 7122,5552 6522,5552 6522,5512 z " fill-rule="evenodd" fill="rgb(255,0,0)" stroke-width="5" stroke="rgb(0,0,0)" />
	<path d="M5022,1292 5022,1266.21 5085.52,1292 5022,1292 z " fill-rule="evenodd" fill="rgb(255,0,0)" stroke-width="5" stroke="rgb(0,0,0)" />
	<path d="M6224,1894 5624,1894 5624,1594 5829.3,1594 6224,1754.26 6224,1894 z " fill-rule="evenodd" fill="rgb(255,0,0)" stroke-width="5" stroke="rgb(0,0,0)" />
	<path d="M7728,5510 8328,5510 8328,5552 7728,5552 7728,5510 z " fill-rule="evenodd" fill="rgb(255,0,0)" stroke-width="5" stroke="rgb(0,0,0)" />
	<path d="M7128,2194 6528,2194 6528,1894 6568.15,1894 7128,2121.32 7128,2194 z " fill-rule="evenodd" fill="rgb(255,0,0)" stroke-width="5" stroke="rgb(0,0,0)" />
	<path d="M8030,5508 8030,5208 8600,5208 8600,5508 8030,5508 z " fill-rule="evenodd" fill="rgb(255,0,0)" stroke-width="5" stroke="rgb(0,0,0)" />
	<path d="M8332,5206 8332,4906 8600,4906 8600,5206 8332,5206 z " fill-rule="evenodd" fill="rgb(255,0,0)" stroke-width="5" stroke="rgb(0,0,0)" />
	<path d="M8032,4302 8032,4002 8600,4002 8600,4302 8032,4302 z " fill-rule="evenodd" fill="rgb(255,0,0)" stroke-width="5" stroke="rgb(0,0,0)" />
	<path d="M8032,2494 7432,2494 7432,2244.75 8032,2488.37 8032,2494 z " fill-rule="evenodd" fill="rgb(255,0,0)" stroke-width="5" stroke="rgb(0,0,0)" />
	<path d="M8334,4000 8334,3700 8600,3700 8600,4000 8334,4000 z " fill-rule="evenodd" fill="rgb(255,0,0)" stroke-width="5" stroke="rgb(0,0,0)" />
	<path d="M8034,3096 8034,2796 8600,2796 8600,3096 8034,3096 z " fill-rule="evenodd" fill="rgb(255,0,0)" stroke-width="5" stroke="rgb(0,0,0)" />
	<path d="M8336,2794 8336,2611.81 8600,2719 8600,2794 8336,2794 z " fill-rule="evenodd" fill="rgb(255,0,0)" stroke-width="5" stroke="rgb(0,0,0)" />
	<path d="M1702,2506 2002,2506 2002,2952 1702,2952 1702,2506 z " fill-rule="evenodd" fill="rgb(255,0,0)" stroke-width="5" stroke="rgb(0,0,0)" />
	<path d="M1400,2808 1700,2808 1700,2952 1400,2952 1400,2808 z " fill-rule="evenodd" fill="rgb(255,0,0)" stroke-width="5" stroke="rgb(0,0,0)" />
	<path d="M1700,3408 1400,3408 1400,3152 1700,3152 1700,3408 z " fill-rule="evenodd" fill="rgb(255,0,0)" stroke-width="5" stroke="rgb(0,0,0)" />
	<path d="M1398,3710 1098,3710 1098,3152 1398,3152 1398,3710 z " fill-rule="evenodd" fill="rgb(255,0,0)" stroke-width="5" stroke="rgb(0,0,0)" />
	<path d="M1100,1600 800,1600 800,1502 1100,1502 1100,1600 z " fill-rule="evenodd" fill="rgb(255,0,0)" stroke-width="5" stroke="rgb(0,0,0)" />
	<path d="M798,1902 498,1902 498,1602 700,1602 700,1502 798,1502 798,1902 z " fill-rule="evenodd" fill="rgb(255,0,0)" stroke-width="5" stroke="rgb(0,0,0)" />
	<path d="M2004,1900 1704,1900 1704,1602 2004,1602 2004,1900 z " fill-rule="evenodd" fill="rgb(255,0,0)" stroke-width="5" stroke="rgb(0,0,0)" />
	<path d="M496,2508 796,2508 796,2952 496,2952 496,2508 z " fill-rule="evenodd" fill="rgb(255,0,0)" stroke-width="5" stroke="rgb(0,0,0)" />
	<path d="M2604,4612 2604,4012 2900,4012 2900,4612 2604,4612 z " fill-rule="evenodd" fill="rgb(255,0,0)" stroke-width="5" stroke="rgb(0,0,0)" />
	<path d="M2606,3406 2606,2806 2906,2806 2906,2952 2850,2952 2850,3152 2900,3152 2900,3406 2606,3406 z " fill-rule="evenodd" fill="rgb(255,0,0)" stroke-width="5" stroke="rgb(0,0,0)" />
	<path d="M2306,998 2306,1598 2150,1598 2150,998 2306,998 z " fill-rule="evenodd" fill="rgb(255,0,0)" stroke-width="5" stroke="rgb(0,0,0)" />
	<path d="M194,2810 494,2810 494,2952 194,2952 194,2810 z " fill-rule="evenodd" fill="rgb(255,0,0)" stroke-width="5" stroke="rgb(0,0,0)" />
	<path d="M494,3410 194,3410 194,3152 494,3152 494,3410 z " fill-rule="evenodd" fill="rgb(255,0,0)" stroke-width="5" stroke="rgb(0,0,0)" />
	<path d="M194,1906 194,2506 100,2506 100,1906 194,1906 z " fill-rule="evenodd" fill="rgb(255,0,0)" stroke-width="5" stroke="rgb(0,0,0)" />
	<path d="M2602,5818 2602,5218 2900,5218 2900,5818 2602,5818 z " fill-rule="evenodd" fill="rgb(255,0,0)" stroke-width="5" stroke="rgb(0,0,0)" />
	<path d="M2908,2504 3208,2504 3208,2952 2908,2952 2908,2504 z " fill-rule="evenodd" fill="rgb(255,0,0)" stroke-width="5" stroke="rgb(0,0,0)" />
	<path d="M2308,392 2150,392 2150,100 2308,164.084 2308,392 z " fill-rule="evenodd" fill="rgb(255,0,0)" stroke-width="5" stroke="rgb(0,0,0)" />
	<path d="M1394,6426 1694,6426 1694,6952 1394,6952 1394,6426 z " fill-rule="evenodd" fill="rgb(255,0,0)" stroke-width="5" stroke="rgb(0,0,0)" />
	<path d="M1092,6728 1392,6728 1392,6952 1092,6952 1092,6728 z " fill-rule="evenodd" fill="rgb(255,0,0)" stroke-width="5" stroke="rgb(0,0,0)" />
	<path d="M192,3712 100,3712 100,3152 192,3152 192,3712 z " fill-rule="evenodd" fill="rgb(255,0,0)" stroke-width="5" stroke="rgb(0,0,0)" />
	<path d="M2902,6722 2902,6122 3100,6122 3100,6722 2902,6722 z " fill-rule="evenodd" fill="rgb(255,0,0)" stroke-width="5" stroke="rgb(0,0,0)" />
	<path d="M2600,6424 2900,6424 2900,6852 2900,6852 2900,6952 2600,6952 2600,6424 z " fill-rule="evenodd" fill="rgb(255,0,0)" stroke-width="5" stroke="rgb(0,0,0)" />
	<path d="M2298,6726 2598,6726 2598,6952 2298,6952 2298,6726 z " fill-rule="evenodd" fill="rgb(255,0,0)" stroke-width="5" stroke="rgb(0,0,0)" />
	<path d="M3810,3106 3810,3706 3700,3706 3700,3106 3810,3106 z " fill-rule="evenodd" fill="rgb(255,0,0)" stroke-width="5" stroke="rgb(0,0,0)" />
	<path d="M3210,1898 2910,1898 2910,1298 3162.76,1298 3080,1502 2950,1502 2950,1602 3147,1602 3210,1446.64 3210,1898 z " fill-rule="evenodd" fill="rgb(255,0,0)" stroke-width="5" stroke="rgb(0,0,0)" />
	<path d="M2910,994 2610,994 2610,394 2874.86,394 2910,408.252 2910,994 z " fill-rule="evenodd" fill="rgb(255,0,0)" stroke-width="5" stroke="rgb(0,0,0)" />
	<path d="M190,4318 190,4918 100,4918 100,4318 190,4318 z " fill-rule="evenodd" fill="rgb(255,0,0)" stroke-width="5" stroke="rgb(0,0,0)" />
	<path d="M3808,4312 3808,4912 3700,4912 3700,4312 3808,4312 z " fill-rule="evenodd" fill="rgb(255,0,0)" stroke-width="5" stroke="rgb(0,0,0)" />
	<path d="M3812,2804 4112,2804 4112,2952 3812,2952 3812,2804 z " fill-rule="evenodd" fill="rgb(255,0,0)" stroke-width="5" stroke="rgb(0,0,0)" />
	<path d="M4112,3404 3812,3404 3812,3052 4112,3052 4112,3404 z " fill-rule="evenodd" fill="rgb(255,0,0)" stroke-width="5" stroke="rgb(0,0,0)" />
	<path d="M3512,996 3512,1596 3212,1596 3212,1441.71 3392.75,996 3512,996 z " fill-rule="evenodd" fill="rgb(255,0,0)" stroke-width="5" stroke="rgb(0,0,0)" />
	<path d="M3212,996 3285.28,996 3212,1176.62 3212,996 z " fill-rule="evenodd" fill="rgb(255,0,0)" stroke-width="5" stroke="rgb(0,0,0)" />
	<path d="M3212,692 2912,692 2912,409.063 3212,530.741 3212,692 z " fill-rule="evenodd" fill="rgb(255,0,0)" stroke-width="5" stroke="rgb(0,0,0)" />
	<path d="M188,6428 488,6428 488,6952 188,6952 188,6428 z " fill-rule="evenodd" fill="rgb(255,0,0)" stroke-width="5" stroke="rgb(0,0,0)" />
	<path d="M188,5524 188,6124 100,6124 100,5524 188,5524 z " fill-rule="evenodd" fill="rgb(255,0,0)" stroke-width="5" stroke="rgb(0,0,0)" />
	<path d="M4714,4910 4714,4310 4950,4310 4950,4910 4714,4910 z " fill-rule="evenodd" fill="rgb(255,0,0)" stroke-width="5" stroke="rgb(0,0,0)" />
	<path d="M4412,4612 4712,4612 4712,4952 4412,4952 4412,4612 z " fill-rule="evenodd" fill="rgb(255,0,0)" stroke-width="5" stroke="rgb(0,0,0)" />
	<path d="M4110,4914 4410,4914 4410,4952 4110,4952 4110,4914 z " fill-rule="evenodd" fill="rgb(255,0,0)" stroke-width="5" stroke="rgb(0,0,0)" />
	<path d="M4114,2502 4414,2502 4414,3102 4114,3102 4114,3052 4200,3052 4200,2952 4114,2952 4114,2502 z " fill-rule="evenodd" fill="rgb(255,0,0)" stroke-width="5" stroke="rgb(0,0,0)" />
	<path d="M3612.74,694 3814,775.72 3814,1294 3514,1294 3514,696.99 3515.21,694 3612.74,694 z " fill-rule="evenodd" fill="rgb(255,0,0)" stroke-width="5" stroke="rgb(0,0,0)" />
	<path d="M186,6730 186,6952 100,6952 100,6730 186,6730 z " fill-rule="evenodd" fill="rgb(255,0,0)" stroke-width="5" stroke="rgb(0,0,0)" />
	<path d="M5314,5214 5314,5552 5050,5552 5050,5214 5314,5214 z " fill-rule="evenodd" fill="rgb(255,0,0)" stroke-width="5" stroke="rgb(0,0,0)" />
	<path d="M5316,4008 5316,4608 5050,4608 5050,4008 5316,4008 z " fill-rule="evenodd" fill="rgb(255,0,0)" stroke-width="5" stroke="rgb(0,0,0)" />
	<path d="M4716,3704 4716,3104 4950,3104 4950,3704 4716,3704 z " fill-rule="evenodd" fill="rgb(255,0,0)" stroke-width="5" stroke="rgb(0,0,0)" />
	<path d="M4116,992 3816,992 3816,776.532 4116,898.342 4116,992 z " fill-rule="evenodd" fill="rgb(255,0,0)" stroke-width="5" stroke="rgb(0,0,0)" />
	<path d="M5918,5514 6218,5514 6218,5552 5918,5552 5918,5514 z " fill-rule="evenodd" fill="rgb(255,0,0)" stroke-width="5" stroke="rgb(0,0,0)" />
	<path d="M5018,2802 5318,2802 5318,3402 5050,3402 5050,2952 5018,2952 5018,2802 z " fill-rule="evenodd" fill="rgb(255,0,0)" stroke-width="5" stroke="rgb(0,0,0)" />
	<path d="M4718,1594 4418,1594 4418,1020.96 4718,1142.77 4718,1594 z " fill-rule="evenodd" fill="rgb(255,0,0)" stroke-width="5" stroke="rgb(0,0,0)" />
	<path d="M6220,5212 6520,5212 6520,5552 6220,5552 6220,5212 z " fill-rule="evenodd" fill="rgb(255,0,0)" stroke-width="5" stroke="rgb(0,0,0)" />
	<path d="M5020,1292 4720,1292 4720,1143.59 5020,1265.4 5020,1292 z " fill-rule="evenodd" fill="rgb(255,0,0)" stroke-width="5" stroke="rgb(0,0,0)" />
	<path d="M5622,1894 5322,1894 5322,1388.02 5622,1509.83 5622,1894 z " fill-rule="evenodd" fill="rgb(255,0,0)" stroke-width="5" stroke="rgb(0,0,0)" />
	<path d="M7124,5512 7424,5512 7424,5552 7124,5552 7124,5512 z " fill-rule="evenodd" fill="rgb(255,0,0)" stroke-width="5" stroke="rgb(0,0,0)" />
	<path d="M5624,1592 5624,1510.64 5824.37,1592 5624,1592 z " fill-rule="evenodd" fill="rgb(255,0,0)" stroke-width="5" stroke="rgb(0,0,0)" />
	<path d="M7426,5210 7726,5210 7726,5552 7426,5552 7426,5210 z " fill-rule="evenodd" fill="rgb(255,0,0)" stroke-width="5" stroke="rgb(0,0,0)" />
	<path d="M6526,2194 6226,2194 6226,1755.07 6526,1876.88 6526,2194 z " fill-rule="evenodd" fill="rgb(255,0,0)" stroke-width="5" stroke="rgb(0,0,0)" />
	<path d="M6528,1892 6528,1877.7 6563.23,1892 6528,1892 z " fill-rule="evenodd" fill="rgb(255,0,0)" stroke-width="5" stroke="rgb(0,0,0)" />
	<path d="M8330,5510 8600,5510 8600,5552 8330,5552 8330,5510 z " fill-rule="evenodd" fill="rgb(255,0,0)" stroke-width="5" stroke="rgb(0,0,0)" />
	<path d="M7430,2494 7130,2494 7130,2122.13 7430,2243.94 7430,2494 z " fill-rule="evenodd" fill="rgb(255,0,0)" stroke-width="5" stroke="rgb(0,0,0)" />
	<path d="M8332,4904 8332,4304 8600,4304 8600,4904 8332,4904 z " fill-rule="evenodd" fill="rgb(255,0,0)" stroke-width="5" stroke="rgb(0,0,0)" />
	<path d="M8334,3698 8334,3098 8600,3098 8600,3698 8334,3698 z " fill-rule="evenodd" fill="rgb(255,0,0)" stroke-width="5" stroke="rgb(0,0,0)" />
	<path d="M8334,2794 8034,2794 8034,2489.18 8334,2610.99 8334,2794 z " fill-rule="evenodd" fill="rgb(255,0,0)" stroke-width="5" stroke="rgb(0,0,0)" />
	<polyline points="1395,1607 795,1607 1395,1607 1395,2207 1395,1607 " fill="none" stroke-width="100" stroke="rgb(0,0,0)" />
	<circle cx="1395" cy="1607" r="-10" fill="rgb(0,0,0)" />
	<circle cx="795" cy="1607" r="-10" fill="rgb(0,0,0)" />
	<circle cx="1395" cy="1607" r="-10" fill="rgb(0,0,0)" />
	<circle cx="1395" cy="2207" r="-10" fill="rgb(0,0,0)" />
	<circle cx="1395" cy="1607" r="-10" fill="rgb(0,0,0)" />
	<polyline points="1395,2267 1395,1607 735,1607 " fill="none" stroke-width="0.5" stroke="rgb(128,0,128)" />
</svg>
