<?xml version="1.0" standalone="no" ?>
<!DOCTYPE svg PUBLIC "-//W3C//DTD SVG 1.1//EN" "http://www.w3.org/Graphics/SVG/1.1/DTD/svg11.dtd">
<svg width="8700px" height="7052px" xmlns="http://www.w3.org/2000/svg" version="1.1" >
	<path d="M2002,2104 1402,2104 1402,2404 2002,2404 2002,2104 z " fill-rule="evenodd" fill="rgb(0,128,0)" stroke-width="5" stroke="rgb(0,0,0)" />
	<path d="M1700,2406 1100,2406 1100,2706 1700,2706 1700,2406 z " fill-rule="evenodd" fill="rgb(0,128,0)" stroke-width="5" stroke="rgb(0,0,0)" />
	<path d="M1400,1502 800,1502 800,1802 1400,1802 1400,1502 z " fill-rule="evenodd" fill="rgb(0,128,0)" stroke-width="5" stroke="rgb(0,0,0)" />
	<path d="M1098,1804 498,1804 498,2104 1098,2104 1098,1804 z " fill-rule="evenodd" fill="rgb(0,128,0)" stroke-width="5" stroke="rgb(0,0,0)" />
	<path d="M2000,3310 1400,3310 1400,3610 2000,3610 2000,3310 z " fill-rule="evenodd" fill="rgb(0,128,0)" stroke-width="5" stroke="rgb(0,0,0)" />
	<path d="M2304,1802 1704,1802 1704,2102 2304,2102 2304,1802 z " fill-rule="evenodd" fill="rgb(0,128,0)" stroke-width="5" stroke="rgb(0,0,0)" />
	<path d="M1698,3612 1098,3612 1098,3912 1698,3912 1698,3612 z " fill-rule="evenodd" fill="rgb(0,128,0)" stroke-width="5" stroke="rgb(0,0,0)" />
	<path d="M1396,3914 796,3914 796,4214 1396,4214 1396,3914 z " fill-rule="evenodd" fill="rgb(0,128,0)" stroke-width="5" stroke="rgb(0,0,0)" />
	<path d="M796,2106 196,2106 196,2406 796,2406 796,2106 z " fill-rule="evenodd" fill="rgb(0,128,0)" stroke-width="5" stroke="rgb(0,0,0)" />
	<path d="M2602,3912 2002,3912 2002,4212 2602,4212 2602,3912 z " fill-rule="evenodd" fill="rgb(0,128,0)" stroke-width="5" stroke="rgb(0,0,0)" />
	<path d="M2906,2404 2306,2404 2306,2704 2906,2704 2906,2404 z " fill-rule="evenodd" fill="rgb(0,128,0)" stroke-width="5" stroke="rgb(0,0,0)" />
	<path d="M2300,4214 1700,4214 1700,4514 2300,4514 2300,4214 z " fill-rule="evenodd" fill="rgb(0,128,0)" stroke-width="5" stroke="rgb(0,0,0)" />
	<path d="M1998,4516 1398,4516 1398,4816 1998,4816 1998,4516 z " fill-rule="evenodd" fill="rgb(0,128,0)" stroke-width="5" stroke="rgb(0,0,0)" />
	<path d="M1696,4818 1096,4818 1096,5118 1696,5118 1696,4818 z " fill-rule="evenodd" fill="rgb(0,128,0)" stroke-width="5" stroke="rgb(0,0,0)" />
	<path d="M1394,5120 794,5120 794,5420 1394,5420 1394,5120 z " fill-rule="evenodd" fill="rgb(0,128,0)" stroke-width="5" stroke="rgb(0,0,0)" />
	<path d="M1094,4216 494,4216 494,4516 1094,4516 1094,4216 z " fill-rule="evenodd" fill="rgb(0,128,0)" stroke-width="5" stroke="rgb(0,0,0)" />
	<path d="M794,3312 194,3312 194,3612 794,3612 794,3312 z " fill-rule="evenodd" fill="rgb(0,128,0)" stroke-width="5" stroke="rgb(0,0,0)" />
	<path d="M3208,2102 2608,2102 2608,2402 3208,2402 3208,2102 z " fill-rule="evenodd" fill="rgb(0,128,0)" stroke-width="5" stroke="rgb(0,0,0)" />
	<path d="M2600,5118 2000,5118 2000,5418 2600,5418 2600,5118 z " fill-rule="evenodd" fill="rgb(0,128,0)" stroke-width="5" stroke="rgb(0,0,0)" />
	<path d="M2908,1198 2308,1198 2308,1498 2908,1498 2908,1198 z " fill-rule="evenodd" fill="rgb(0,128,0)" stroke-width="5" stroke="rgb(0,0,0)" />
	<path d="M2298,5420 1698,5420 1698,5720 2298,5720 2298,5420 z " fill-rule="evenodd" fill="rgb(0,128,0)" stroke-width="5" stroke="rgb(0,0,0)" />
	<path d="M1996,5722 1396,5722 1396,6022 1996,6022 1996,5722 z " fill-rule="evenodd" fill="rgb(0,128,0)" stroke-width="5" stroke="rgb(0,0,0)" />
	<path d="M1694,6024 1094,6024 1094,6324 1694,6324 1694,6024 z " fill-rule="evenodd" fill="rgb(0,128,0)" stroke-width="5" stroke="rgb(0,0,0)" />
	<path d="M1392,6326 792,6326 792,6626 1392,6626 1392,6326 z " fill-rule="evenodd" fill="rgb(0,128,0)" stroke-width="5" stroke="rgb(0,0,0)" />
	<path d="M1092,5422 492,5422 492,5722 1092,5722 1092,5422 z " fill-rule="evenodd" fill="rgb(0,128,0)" stroke-width="5" stroke="rgb(0,0,0)" />
	<path d="M792,4518 192,4518 192,4818 792,4818 792,4518 z " fill-rule="evenodd" fill="rgb(0,128,0)" stroke-width="5" stroke="rgb(0,0,0)" />
	<path d="M4410,4512 3810,4512 3810,4812 4410,4812 4410,4512 z " fill-rule="evenodd" fill="rgb(0,128,0)" stroke-width="5" stroke="rgb(0,0,0)" />
	<path d="M3510,1800 2910,1800 2910,2100 3510,2100 3510,1800 z " fill-rule="evenodd" fill="rgb(0,128,0)" stroke-width="5" stroke="rgb(0,0,0)" />
	<path d="M2900,6022 2300,6022 2300,6322 2900,6322 2900,6022 z " fill-rule="evenodd" fill="rgb(0,128,0)" stroke-width="5" stroke="rgb(0,0,0)" />
	<path d="M2598,6324 1998,6324 1998,6624 2598,6624 2598,6324 z " fill-rule="evenodd" fill="rgb(0,128,0)" stroke-width="5" stroke="rgb(0,0,0)" />
	<path d="M2296,6626 1696,6626 1696,6926 2296,6926 2296,6626 z " fill-rule="evenodd" fill="rgb(0,128,0)" stroke-width="5" stroke="rgb(0,0,0)" />
	<path d="M1090,6628 490,6628 490,6928 1090,6928 1090,6628 z " fill-rule="evenodd" fill="rgb(0,128,0)" stroke-width="5" stroke="rgb(0,0,0)" />
	<path d="M790,5724 190,5724 190,6024 790,6024 790,5724 z " fill-rule="evenodd" fill="rgb(0,128,0)" stroke-width="5" stroke="rgb(0,0,0)" />
	<path d="M4712,4210 4112,4210 4112,4510 4712,4510 4712,4210 z " fill-rule="evenodd" fill="rgb(0,128,0)" stroke-width="5" stroke="rgb(0,0,0)" />
	<path d="M4412,3306 3812,3306 3812,3606 4412,3606 4412,3306 z " fill-rule="evenodd" fill="rgb(0,128,0)" stroke-width="5" stroke="rgb(0,0,0)" />
	<path d="M4112,2402 3512,2402 3512,2702 4112,2702 4112,2402 z " fill-rule="evenodd" fill="rgb(0,128,0)" stroke-width="5" stroke="rgb(0,0,0)" />
	<path d="M3812,1498 3212,1498 3212,1798 3812,1798 3812,1498 z " fill-rule="evenodd" fill="rgb(0,128,0)" stroke-width="5" stroke="rgb(0,0,0)" />
	<path d="M4414,2100 3814,2100 3814,2400 4414,2400 4414,2100 z " fill-rule="evenodd" fill="rgb(0,128,0)" stroke-width="5" stroke="rgb(0,0,0)" />
	<path d="M4114,1196 3514,1196 3514,1496 4114,1496 4114,1196 z " fill-rule="evenodd" fill="rgb(0,128,0)" stroke-width="5" stroke="rgb(0,0,0)" />
	<path d="M4716,1798 4116,1798 4116,2098 4716,2098 4716,1798 z " fill-rule="evenodd" fill="rgb(0,128,0)" stroke-width="5" stroke="rgb(0,0,0)" />
	<path d="M6218,5112 5618,5112 5618,5412 6218,5412 6218,5112 z " fill-rule="evenodd" fill="rgb(0,128,0)" stroke-width="5" stroke="rgb(0,0,0)" />
	<path d="M5918,4208 5318,4208 5318,4508 5918,4508 5918,4208 z " fill-rule="evenodd" fill="rgb(0,128,0)" stroke-width="5" stroke="rgb(0,0,0)" />
	<path d="M5318,2400 4718,2400 4718,2700 5318,2700 5318,2400 z " fill-rule="evenodd" fill="rgb(0,128,0)" stroke-width="5" stroke="rgb(0,0,0)" />
	<path d="M5018,1496 4418,1496 4418,1796 5018,1796 5018,1496 z " fill-rule="evenodd" fill="rgb(0,128,0)" stroke-width="5" stroke="rgb(0,0,0)" />
	<path d="M6520,4810 5920,4810 5920,5110 6520,5110 6520,4810 z " fill-rule="evenodd" fill="rgb(0,128,0)" stroke-width="5" stroke="rgb(0,0,0)" />
	<path d="M6220,3906 5620,3906 5620,4206 6220,4206 6220,3906 z " fill-rule="evenodd" fill="rgb(0,128,0)" stroke-width="5" stroke="rgb(0,0,0)" />
	<path d="M5920,3002 5320,3002 5320,3302 5920,3302 5920,3002 z " fill-rule="evenodd" fill="rgb(0,128,0)" stroke-width="5" stroke="rgb(0,0,0)" />
	<path d="M5620,2098 5020,2098 5020,2398 5620,2398 5620,2098 z " fill-rule="evenodd" fill="rgb(0,128,0)" stroke-width="5" stroke="rgb(0,0,0)" />
	<path d="M6822,4508 6222,4508 6222,4808 6822,4808 6822,4508 z " fill-rule="evenodd" fill="rgb(0,128,0)" stroke-width="5" stroke="rgb(0,0,0)" />
	<path d="M6522,3604 5922,3604 5922,3904 6522,3904 6522,3604 z " fill-rule="evenodd" fill="rgb(0,128,0)" stroke-width="5" stroke="rgb(0,0,0)" />
	<path d="M6222,2700 5622,2700 5622,3000 6222,3000 6222,2700 z " fill-rule="evenodd" fill="rgb(0,128,0)" stroke-width="5" stroke="rgb(0,0,0)" />
	<path d="M5922,1796 5322,1796 5322,2096 5922,2096 5922,1796 z " fill-rule="evenodd" fill="rgb(0,128,0)" stroke-width="5" stroke="rgb(0,0,0)" />
	<path d="M7424,5110 6824,5110 6824,5410 7424,5410 7424,5110 z " fill-rule="evenodd" fill="rgb(0,128,0)" stroke-width="5" stroke="rgb(0,0,0)" />
	<path d="M7124,4206 6524,4206 6524,4506 7124,4506 7124,4206 z " fill-rule="evenodd" fill="rgb(0,128,0)" stroke-width="5" stroke="rgb(0,0,0)" />
	<path d="M6824,3302 6224,3302 6224,3602 6824,3602 6824,3302 z " fill-rule="evenodd" fill="rgb(0,128,0)" stroke-width="5" stroke="rgb(0,0,0)" />
	<path d="M6524,2398 5924,2398 5924,2698 6524,2698 6524,2398 z " fill-rule="evenodd" fill="rgb(0,128,0)" stroke-width="5" stroke="rgb(0,0,0)" />
	<path d="M7726,4808 7126,4808 7126,5108 7726,5108 7726,4808 z " fill-rule="evenodd" fill="rgb(0,128,0)" stroke-width="5" stroke="rgb(0,0,0)" />
	<path d="M7426,3904 6826,3904 6826,4204 7426,4204 7426,3904 z " fill-rule="evenodd" fill="rgb(0,128,0)" stroke-width="5" stroke="rgb(0,0,0)" />
	<path d="M7126,3000 6526,3000 6526,3300 7126,3300 7126,3000 z " fill-rule="evenodd" fill="rgb(0,128,0)" stroke-width="5" stroke="rgb(0,0,0)" />
	<path d="M6826,2096 6226,2096 6226,2396 6826,2396 6826,2096 z " fill-rule="evenodd" fill="rgb(0,128,0)" stroke-width="5" stroke="rgb(0,0,0)" />
	<path d="M8028,4506 7428,4506 7428,4806 8028,4806 8028,4506 z " fill-rule="evenodd" fill="rgb(0,128,0)" stroke-width="5" stroke="rgb(0,0,0)" />
	<path d="M7728,3602 7128,3602 7128,3902 7728,3902 7728,3602 z " fill-rule="evenodd" fill="rgb(0,128,0)" stroke-width="5" stroke="rgb(0,0,0)" />
	<path d="M7428,2698 6828,2698 6828,2998 7428,2998 7428,2698 z " fill-rule="evenodd" fill="rgb(0,128,0)" stroke-width="5" stroke="rgb(0,0,0)" />
	<path d="M8330,4204 7730,4204 7730,4504 8330,4504 8330,4204 z " fill-rule="evenodd" fill="rgb(0,128,0)" stroke-width="5" stroke="rgb(0,0,0)" />
	<path d="M8030,3300 7430,3300 7430,3600 8030,3600 8030,3300 z " fill-rule="evenodd" fill="rgb(0,128,0)" stroke-width="5" stroke="rgb(0,0,0)" />
	<path d="M7730,2396 7130,2396 7130,2696 7730,2696 7730,2396 z " fill-rule="evenodd" fill="rgb(0,128,0)" stroke-width="5" stroke="rgb(0,0,0)" />
	<path d="M8332,2998 7732,2998 7732,3298 8332,3298 8332,2998 z " fill-rule="evenodd" fill="rgb(0,128,0)" stroke-width="5" stroke="rgb(0,0,0)" />
	<path d="M1400,1804 1100,1804 1100,2404 1400,2404 1400,1804 z " fill-rule="evenodd" fill="rgb(0,128,0)" stroke-width="5" stroke="rgb(0,0,0)" />
	<path d="M1098,2106 798,2106 798,2706 1098,2706 1098,2106 z " fill-rule="evenodd" fill="rgb(0,128,0)" stroke-width="5" stroke="rgb(0,0,0)" />
	<path d="M2604,3008 2304,3008 2304,3608 2604,3608 2604,3008 z " fill-rule="evenodd" fill="rgb(0,128,0)" stroke-width="5" stroke="rgb(0,0,0)" />
	<path d="M2302,3310 2002,3310 2002,3910 2302,3910 2302,3310 z " fill-rule="evenodd" fill="rgb(0,128,0)" stroke-width="5" stroke="rgb(0,0,0)" />
	<path d="M2000,3612 1700,3612 1700,4212 2000,4212 2000,3612 z " fill-rule="evenodd" fill="rgb(0,128,0)" stroke-width="5" stroke="rgb(0,0,0)" />
	<path d="M2304,2104 2004,2104 2004,2704 2304,2704 2304,2104 z " fill-rule="evenodd" fill="rgb(0,128,0)" stroke-width="5" stroke="rgb(0,0,0)" />
	<path d="M1698,3914 1398,3914 1398,4514 1698,4514 1698,3914 z " fill-rule="evenodd" fill="rgb(0,128,0)" stroke-width="5" stroke="rgb(0,0,0)" />
	<path d="M1396,4216 1096,4216 1096,4816 1396,4816 1396,4216 z " fill-rule="evenodd" fill="rgb(0,128,0)" stroke-width="5" stroke="rgb(0,0,0)" />
	<path d="M1096,3312 796,3312 796,3912 1096,3912 1096,3312 z " fill-rule="evenodd" fill="rgb(0,128,0)" stroke-width="5" stroke="rgb(0,0,0)" />
	<path d="M2602,4214 2302,4214 2302,4814 2602,4814 2602,4214 z " fill-rule="evenodd" fill="rgb(0,128,0)" stroke-width="5" stroke="rgb(0,0,0)" />
	<path d="M2606,1802 2306,1802 2306,2402 2606,2402 2606,1802 z " fill-rule="evenodd" fill="rgb(0,128,0)" stroke-width="5" stroke="rgb(0,0,0)" />
	<path d="M2300,4516 2000,4516 2000,5116 2300,5116 2300,4516 z " fill-rule="evenodd" fill="rgb(0,128,0)" stroke-width="5" stroke="rgb(0,0,0)" />
	<path d="M1998,4818 1698,4818 1698,5418 1998,5418 1998,4818 z " fill-rule="evenodd" fill="rgb(0,128,0)" stroke-width="5" stroke="rgb(0,0,0)" />
	<path d="M1696,5120 1396,5120 1396,5720 1696,5720 1696,5120 z " fill-rule="evenodd" fill="rgb(0,128,0)" stroke-width="5" stroke="rgb(0,0,0)" />
	<path d="M1394,5422 1094,5422 1094,6022 1394,6022 1394,5422 z " fill-rule="evenodd" fill="rgb(0,128,0)" stroke-width="5" stroke="rgb(0,0,0)" />
	<path d="M1094,4518 794,4518 794,5118 1094,5118 1094,4518 z " fill-rule="evenodd" fill="rgb(0,128,0)" stroke-width="5" stroke="rgb(0,0,0)" />
	<path d="M794,3614 494,3614 494,4214 794,4214 794,3614 z " fill-rule="evenodd" fill="rgb(0,128,0)" stroke-width="5" stroke="rgb(0,0,0)" />
	<path d="M2600,5420 2300,5420 2300,6020 2600,6020 2600,5420 z " fill-rule="evenodd" fill="rgb(0,128,0)" stroke-width="5" stroke="rgb(0,0,0)" />
	<path d="M2908,1500 2608,1500 2608,2100 2908,2100 2908,1500 z " fill-rule="evenodd" fill="rgb(0,128,0)" stroke-width="5" stroke="rgb(0,0,0)" />
	<path d="M2608,596 2308,596 2308,1196 2608,1196 2608,596 z " fill-rule="evenodd" fill="rgb(0,128,0)" stroke-width="5" stroke="rgb(0,0,0)" />
	<path d="M2298,5722 1998,5722 1998,6322 2298,6322 2298,5722 z " fill-rule="evenodd" fill="rgb(0,128,0)" stroke-width="5" stroke="rgb(0,0,0)" />
	<path d="M1996,6024 1696,6024 1696,6624 1996,6624 1996,6024 z " fill-rule="evenodd" fill="rgb(0,128,0)" stroke-width="5" stroke="rgb(0,0,0)" />
	<path d="M1694,6326 1394,6326 1394,6926 1694,6926 1694,6326 z " fill-rule="evenodd" fill="rgb(0,128,0)" stroke-width="5" stroke="rgb(0,0,0)" />
	<path d="M1092,5724 792,5724 792,6324 1092,6324 1092,5724 z " fill-rule="evenodd" fill="rgb(0,128,0)" stroke-width="5" stroke="rgb(0,0,0)" />
	<path d="M792,4820 492,4820 492,5420 792,5420 792,4820 z " fill-rule="evenodd" fill="rgb(0,128,0)" stroke-width="5" stroke="rgb(0,0,0)" />
	<path d="M492,3916 192,3916 192,4516 492,4516 492,3916 z " fill-rule="evenodd" fill="rgb(0,128,0)" stroke-width="5" stroke="rgb(0,0,0)" />
	<path d="M2900,6324 2600,6324 2600,6924 2900,6924 2900,6324 z " fill-rule="evenodd" fill="rgb(0,128,0)" stroke-width="5" stroke="rgb(0,0,0)" />
	<path d="M3510,2102 3210,2102 3210,2702 3510,2702 3510,2102 z " fill-rule="evenodd" fill="rgb(0,128,0)" stroke-width="5" stroke="rgb(0,0,0)" />
	<path d="M790,6026 490,6026 490,6626 790,6626 790,6026 z " fill-rule="evenodd" fill="rgb(0,128,0)" stroke-width="5" stroke="rgb(0,0,0)" />
	<path d="M490,5122 190,5122 190,5722 490,5722 490,5122 z " fill-rule="evenodd" fill="rgb(0,128,0)" stroke-width="5" stroke="rgb(0,0,0)" />
	<path d="M4412,3608 4112,3608 4112,4208 4412,4208 4412,3608 z " fill-rule="evenodd" fill="rgb(0,128,0)" stroke-width="5" stroke="rgb(0,0,0)" />
	<path d="M4110,3910 3810,3910 3810,4510 4110,4510 4110,3910 z " fill-rule="evenodd" fill="rgb(0,128,0)" stroke-width="5" stroke="rgb(0,0,0)" />
	<path d="M3812,1800 3512,1800 3512,2400 3812,2400 3812,1800 z " fill-rule="evenodd" fill="rgb(0,128,0)" stroke-width="5" stroke="rgb(0,0,0)" />
	<path d="M488,6328 188,6328 188,6928 488,6928 488,6328 z " fill-rule="evenodd" fill="rgb(0,128,0)" stroke-width="5" stroke="rgb(0,0,0)" />
	<path d="M4714,3306 4414,3306 4414,3906 4714,3906 4714,3306 z " fill-rule="evenodd" fill="rgb(0,128,0)" stroke-width="5" stroke="rgb(0,0,0)" />
	<path d="M4114,1498 3814,1498 3814,2098 4114,2098 4114,1498 z " fill-rule="evenodd" fill="rgb(0,128,0)" stroke-width="5" stroke="rgb(0,0,0)" />
	<path d="M5616,4812 5316,4812 5316,5412 5616,5412 5616,4812 z " fill-rule="evenodd" fill="rgb(0,128,0)" stroke-width="5" stroke="rgb(0,0,0)" />
	<path d="M4716,2100 4416,2100 4416,2700 4716,2700 4716,2100 z " fill-rule="evenodd" fill="rgb(0,128,0)" stroke-width="5" stroke="rgb(0,0,0)" />
	<path d="M4416,1196 4116,1196 4116,1796 4416,1796 4416,1196 z " fill-rule="evenodd" fill="rgb(0,128,0)" stroke-width="5" stroke="rgb(0,0,0)" />
	<path d="M5918,4510 5618,4510 5618,5110 5918,5110 5918,4510 z " fill-rule="evenodd" fill="rgb(0,128,0)" stroke-width="5" stroke="rgb(0,0,0)" />
	<path d="M5618,3606 5318,3606 5318,4206 5618,4206 5618,3606 z " fill-rule="evenodd" fill="rgb(0,128,0)" stroke-width="5" stroke="rgb(0,0,0)" />
	<path d="M5018,1798 4718,1798 4718,2398 5018,2398 5018,1798 z " fill-rule="evenodd" fill="rgb(0,128,0)" stroke-width="5" stroke="rgb(0,0,0)" />
	<path d="M6220,4208 5920,4208 5920,4808 6220,4808 6220,4208 z " fill-rule="evenodd" fill="rgb(0,128,0)" stroke-width="5" stroke="rgb(0,0,0)" />
	<path d="M5920,3304 5620,3304 5620,3904 5920,3904 5920,3304 z " fill-rule="evenodd" fill="rgb(0,128,0)" stroke-width="5" stroke="rgb(0,0,0)" />
	<path d="M5620,2400 5320,2400 5320,3000 5620,3000 5620,2400 z " fill-rule="evenodd" fill="rgb(0,128,0)" stroke-width="5" stroke="rgb(0,0,0)" />
	<path d="M5320,1496 5020,1496 5020,2096 5320,2096 5320,1496 z " fill-rule="evenodd" fill="rgb(0,128,0)" stroke-width="5" stroke="rgb(0,0,0)" />
	<path d="M6822,4810 6522,4810 6522,5410 6822,5410 6822,4810 z " fill-rule="evenodd" fill="rgb(0,128,0)" stroke-width="5" stroke="rgb(0,0,0)" />
	<path d="M6522,3906 6222,3906 6222,4506 6522,4506 6522,3906 z " fill-rule="evenodd" fill="rgb(0,128,0)" stroke-width="5" stroke="rgb(0,0,0)" />
	<path d="M6222,3002 5922,3002 5922,3602 6222,3602 6222,3002 z " fill-rule="evenodd" fill="rgb(0,128,0)" stroke-width="5" stroke="rgb(0,0,0)" />
	<path d="M5922,2098 5622,2098 5622,2698 5922,2698 5922,2098 z " fill-rule="evenodd" fill="rgb(0,128,0)" stroke-width="5" stroke="rgb(0,0,0)" />
	<path d="M7124,4508 6824,4508 6824,5108 7124,5108 7124,4508 z " fill-rule="evenodd" fill="rgb(0,128,0)" stroke-width="5" stroke="rgb(0,0,0)" />
	<path d="M6824,3604 6524,3604 6524,4204 6824,4204 6824,3604 z " fill-rule="evenodd" fill="rgb(0,128,0)" stroke-width="5" stroke="rgb(0,0,0)" />
	<path d="M6524,2700 6224,2700 6224,3300 6524,3300 6524,2700 z " fill-rule="evenodd" fill="rgb(0,128,0)" stroke-width="5" stroke="rgb(0,0,0)" />
	<path d="M6224,1796 5924,1796 5924,2396 6224,2396 6224,1796 z " fill-rule="evenodd" fill="rgb(0,128,0)" stroke-width="5" stroke="rgb(0,0,0)" />
	<path d="M7426,4206 7126,4206 7126,4806 7426,4806 7426,4206 z " fill-rule="evenodd" fill="rgb(0,128,0)" stroke-width="5" stroke="rgb(0,0,0)" />
	<path d="M7126,3302 6826,3302 6826,3902 7126,3902 7126,3302 z " fill-rule="evenodd" fill="rgb(0,128,0)" stroke-width="5" stroke="rgb(0,0,0)" />
	<path d="M6826,2398 6526,2398 6526,2998 6826,2998 6826,2398 z " fill-rule="evenodd" fill="rgb(0,128,0)" stroke-width="5" stroke="rgb(0,0,0)" />
	<path d="M8028,4808 7728,4808 7728,5408 8028,5408 8028,4808 z " fill-rule="evenodd" fill="rgb(0,128,0)" stroke-width="5" stroke="rgb(0,0,0)" />
	<path d="M7728,3904 7428,3904 7428,4504 7728,4504 7728,3904 z " fill-rule="evenodd" fill="rgb(0,128,0)" stroke-width="5" stroke="rgb(0,0,0)" />
	<path d="M7428,3000 7128,3000 7128,3600 7428,3600 7428,3000 z " fill-rule="evenodd" fill="rgb(0,128,0)" stroke-width="5" stroke="rgb(0,0,0)" />
	<path d="M8330,4506 8030,4506 8030,5106 8330,5106 8330,4506 z " fill-rule="evenodd" fill="rgb(0,128,0)" stroke-width="5" stroke="rgb(0,0,0)" />
	<path d="M8030,3602 7730,3602 7730,4202 8030,4202 8030,3602 z " fill-rule="evenodd" fill="rgb(0,128,0)" stroke-width="5" stroke="rgb(0,0,0)" />
	<path d="M7730,2698 7430,2698 7430,3298 7730,3298 7730,2698 z " fill-rule="evenodd" fill="rgb(0,128,0)" stroke-width="5" stroke="rgb(0,0,0)" />
	<path d="M8332,3300 8032,3300 8032,3900 8332,3900 8332,3300 z " fill-rule="evenodd" fill="rgb(0,128,0)" stroke-width="5" stroke="rgb(0,0,0)" />
	<path d="M798,2708 1398,2708 1398,2952 798,2952 798,2708 z " fill-rule="evenodd" fill="rgb(255,0,0)" stroke-width="5" stroke="rgb(0,0,0)" />
	<path d="M2004,2706 2604,2706 2604,3006 2050,3006 2050,2952 2004,2952 2004,2706 z " fill-rule="evenodd" fill="rgb(255,0,0)" stroke-width="5" stroke="rgb(0,0,0)" />
	<path d="M2302,3008 2302,3308 1702,3308 1702,3152 2050,3152 2050,3008 2302,3008 z " fill-rule="evenodd" fill="rgb(255,0,0)" stroke-width="5" stroke="rgb(0,0,0)" />
	<path d="M1096,3310 496,3310 496,3152 1096,3152 1096,3310 z " fill-rule="evenodd" fill="rgb(255,0,0)" stroke-width="5" stroke="rgb(0,0,0)" />
	<path d="M2606,3608 2606,3308 2900,3308 2900,3608 2606,3608 z " fill-rule="evenodd" fill="rgb(255,0,0)" stroke-width="5" stroke="rgb(0,0,0)" />
	<path d="M2304,3910 2304,3610 2900,3610 2900,3910 2304,3910 z " fill-rule="evenodd" fill="rgb(255,0,0)" stroke-width="5" stroke="rgb(0,0,0)" />
	<path d="M2606,1500 2606,1800 2006,1800 2006,1602 2150,1602 2150,1500 2606,1500 z " fill-rule="evenodd" fill="rgb(255,0,0)" stroke-width="5" stroke="rgb(0,0,0)" />
	<path d="M2306,596 2306,896 2150,896 2150,596 2306,596 z " fill-rule="evenodd" fill="rgb(255,0,0)" stroke-width="5" stroke="rgb(0,0,0)" />
	<path d="M494,2408 494,2708 100,2708 100,2408 494,2408 z " fill-rule="evenodd" fill="rgb(255,0,0)" stroke-width="5" stroke="rgb(0,0,0)" />
	<path d="M194,1804 100,1804 100,1602 194,1602 194,1804 z " fill-rule="evenodd" fill="rgb(255,0,0)" stroke-width="5" stroke="rgb(0,0,0)" />
	<path d="M3808,3910 3808,4210 3700,4210 3700,3910 3808,3910 z " fill-rule="evenodd" fill="rgb(255,0,0)" stroke-width="5" stroke="rgb(0,0,0)" />
	<path d="M2604,4814 2604,4514 2900,4514 2900,4814 2604,4814 z " fill-rule="evenodd" fill="rgb(255,0,0)" stroke-width="5" stroke="rgb(0,0,0)" />
	<path d="M2302,5116 2302,4816 2900,4816 2900,5116 2302,5116 z " fill-rule="evenodd" fill="rgb(255,0,0)" stroke-width="5" stroke="rgb(0,0,0)" />
	<path d="M2608,294 2608,594 2150,594 2150,294 2608,294 z " fill-rule="evenodd" fill="rgb(255,0,0)" stroke-width="5" stroke="rgb(0,0,0)" />
	<path d="M492,3614 492,3914 100,3914 100,3614 492,3614 z " fill-rule="evenodd" fill="rgb(255,0,0)" stroke-width="5" stroke="rgb(0,0,0)" />
	<path d="M192,2710 192,2952 100,2952 100,2710 192,2710 z " fill-rule="evenodd" fill="rgb(255,0,0)" stroke-width="5" stroke="rgb(0,0,0)" />
	<path d="M4108,4814 4108,4952 3700,4952 3700,4814 4108,4814 z " fill-rule="evenodd" fill="rgb(255,0,0)" stroke-width="5" stroke="rgb(0,0,0)" />
	<path d="M4110,3608 4110,3908 3700,3908 3700,3608 4110,3608 z " fill-rule="evenodd" fill="rgb(255,0,0)" stroke-width="5" stroke="rgb(0,0,0)" />
	<path d="M3210,2704 3810,2704 3810,2952 3210,2952 3210,2704 z " fill-rule="evenodd" fill="rgb(255,0,0)" stroke-width="5" stroke="rgb(0,0,0)" />
	<path d="M2602,6020 2602,5720 2900,5720 2900,6020 2602,6020 z " fill-rule="evenodd" fill="rgb(255,0,0)" stroke-width="5" stroke="rgb(0,0,0)" />
	<path d="M2610,1196 2610,896 3210,896 3210,1181.55 3204.14,1196 2610,1196 z " fill-rule="evenodd" fill="rgb(255,0,0)" stroke-width="5" stroke="rgb(0,0,0)" />
	<path d="M2310,292 2310,164.895 2623.38,292 2310,292 z " fill-rule="evenodd" fill="rgb(255,0,0)" stroke-width="5" stroke="rgb(0,0,0)" />
	<path d="M1394,6928 1994,6928 1994,6952 1394,6952 1394,6928 z " fill-rule="evenodd" fill="rgb(255,0,0)" stroke-width="5" stroke="rgb(0,0,0)" />
	<path d="M490,4820 490,5120 100,5120 100,4820 490,4820 z " fill-rule="evenodd" fill="rgb(255,0,0)" stroke-width="5" stroke="rgb(0,0,0)" />
	<path d="M190,3916 190,4216 100,4216 100,3916 190,3916 z " fill-rule="evenodd" fill="rgb(255,0,0)" stroke-width="5" stroke="rgb(0,0,0)" />
	<path d="M2902,6624 3100,6624 3100,6852 2902,6852 2902,6624 z " fill-rule="evenodd" fill="rgb(255,0,0)" stroke-width="5" stroke="rgb(0,0,0)" />
	<path d="M2600,6926 2900,6926 2900,6952 2600,6952 2600,6926 z " fill-rule="evenodd" fill="rgb(255,0,0)" stroke-width="5" stroke="rgb(0,0,0)" />
	<path d="M2912,894 2912,594 3367.97,594 3437,622 3326.65,894 2912,894 z " fill-rule="evenodd" fill="rgb(255,0,0)" stroke-width="5" stroke="rgb(0,0,0)" />
	<path d="M3512,894 3434.11,894 3512,701.921 3512,894 z " fill-rule="evenodd" fill="rgb(255,0,0)" stroke-width="5" stroke="rgb(0,0,0)" />
	<path d="M188,6930 788,6930 788,6952 188,6952 188,6930 z " fill-rule="evenodd" fill="rgb(255,0,0)" stroke-width="5" stroke="rgb(0,0,0)" />
	<path d="M488,6026 488,6326 100,6326 100,6026 488,6026 z " fill-rule="evenodd" fill="rgb(255,0,0)" stroke-width="5" stroke="rgb(0,0,0)" />
	<path d="M188,5122 188,5422 100,5422 100,5122 188,5122 z " fill-rule="evenodd" fill="rgb(255,0,0)" stroke-width="5" stroke="rgb(0,0,0)" />
	<path d="M5314,4812 5314,5112 5050,5112 5050,4812 5314,4812 z " fill-rule="evenodd" fill="rgb(255,0,0)" stroke-width="5" stroke="rgb(0,0,0)" />
	<path d="M4714,4812 4950,4812 4950,4952 4714,4952 4714,4812 z " fill-rule="evenodd" fill="rgb(255,0,0)" stroke-width="5" stroke="rgb(0,0,0)" />
	<path d="M4414,4208 4414,3908 4950,3908 4950,4208 4414,4208 z " fill-rule="evenodd" fill="rgb(255,0,0)" stroke-width="5" stroke="rgb(0,0,0)" />
	<path d="M4714,3004 4714,3304 4114,3304 4114,3052 4200,3052 4200,3004 4714,3004 z " fill-rule="evenodd" fill="rgb(255,0,0)" stroke-width="5" stroke="rgb(0,0,0)" />
	<path d="M3214,592 3214,531.552 3363.03,592 3214,592 z " fill-rule="evenodd" fill="rgb(255,0,0)" stroke-width="5" stroke="rgb(0,0,0)" />
	<path d="M186,6328 186,6628 100,6628 100,6328 186,6328 z " fill-rule="evenodd" fill="rgb(255,0,0)" stroke-width="5" stroke="rgb(0,0,0)" />
	<path d="M5316,5414 5916,5414 5916,5552 5316,5552 5316,5414 z " fill-rule="evenodd" fill="rgb(255,0,0)" stroke-width="5" stroke="rgb(0,0,0)" />
	<path d="M5616,4510 5616,4810 5050,4810 5050,4510 5616,4510 z " fill-rule="evenodd" fill="rgb(255,0,0)" stroke-width="5" stroke="rgb(0,0,0)" />
	<path d="M5316,3606 5316,3906 5050,3906 5050,3606 5316,3606 z " fill-rule="evenodd" fill="rgb(255,0,0)" stroke-width="5" stroke="rgb(0,0,0)" />
	<path d="M4716,3906 4716,3606 4950,3606 4950,3906 4716,3906 z " fill-rule="evenodd" fill="rgb(255,0,0)" stroke-width="5" stroke="rgb(0,0,0)" />
	<path d="M4416,3002 4416,2702 5016,2702 5016,2952 4900,2952 4900,3002 4416,3002 z " fill-rule="evenodd" fill="rgb(255,0,0)" stroke-width="5" stroke="rgb(0,0,0)" />
	<path d="M4416,1194 3816,1194 3816,894 4105.31,894 4416,1020.15 4416,1194 z " fill-rule="evenodd" fill="rgb(255,0,0)" stroke-width="5" stroke="rgb(0,0,0)" />
	<path d="M5618,3304 5618,3604 5050,3604 5050,3304 5618,3304 z " fill-rule="evenodd" fill="rgb(255,0,0)" stroke-width="5" stroke="rgb(0,0,0)" />
	<path d="M5320,1494 4720,1494 4720,1194 4844.16,1194 5320,1387.21 5320,1494 z " fill-rule="evenodd" fill="rgb(255,0,0)" stroke-width="5" stroke="rgb(0,0,0)" />
	<path d="M6522,5412 7122,5412 7122,5552 6522,5552 6522,5412 z " fill-rule="evenodd" fill="rgb(255,0,0)" stroke-width="5" stroke="rgb(0,0,0)" />
	<path d="M6224,1794 5624,1794 5624,1510.64 6224,1754.26 6224,1794 z " fill-rule="evenodd" fill="rgb(255,0,0)" stroke-width="5" stroke="rgb(0,0,0)" />
	<path d="M7728,5410 8328,5410 8328,5552 7728,5552 7728,5410 z " fill-rule="evenodd" fill="rgb(255,0,0)" stroke-width="5" stroke="rgb(0,0,0)" />
	<path d="M6528,2094 6528,1877.7 7060.72,2094 6528,2094 z " fill-rule="evenodd" fill="rgb(255,0,0)" stroke-width="5" stroke="rgb(0,0,0)" />
	<path d="M8030,5408 8030,5108 8600,5108 8600,5408 8030,5408 z " fill-rule="evenodd" fill="rgb(255,0,0)" stroke-width="5" stroke="rgb(0,0,0)" />
	<path d="M8332,5106 8332,4806 8600,4806 8600,5106 8332,5106 z " fill-rule="evenodd" fill="rgb(255,0,0)" stroke-width="5" stroke="rgb(0,0,0)" />
	<path d="M8032,4202 8032,3902 8600,3902 8600,4202 8032,4202 z " fill-rule="evenodd" fill="rgb(255,0,0)" stroke-width="5" stroke="rgb(0,0,0)" />
	<path d="M7432,2394 7432,2244.75 7799.58,2394 7432,2394 z " fill-rule="evenodd" fill="rgb(255,0,0)" stroke-width="5" stroke="rgb(0,0,0)" />
	<path d="M8334,3900 8334,3600 8600,3600 8600,3900 8334,3900 z " fill-rule="evenodd" fill="rgb(255,0,0)" stroke-width="5" stroke="rgb(0,0,0)" />
	<path d="M8034,2996 8034,2696 8543.35,2696 8600,2719 8600,2996 8034,2996 z " fill-rule="evenodd" fill="rgb(255,0,0)" stroke-width="5" stroke="rgb(0,0,0)" />
	<path d="M8336,2694 8336,2611.81 8538.43,2694 8336,2694 z " fill-rule="evenodd" fill="rgb(255,0,0)" stroke-width="5" stroke="rgb(0,0,0)" />
	<path d="M1702,2406 2002,2406 2002,2952 1702,2952 1702,2406 z " fill-rule="evenodd" fill="rgb(255,0,0)" stroke-width="5" stroke="rgb(0,0,0)" />
	<path d="M1400,2708 1700,2708 1700,2952 1400,2952 1400,2708 z " fill-rule="evenodd" fill="rgb(255,0,0)" stroke-width="5" stroke="rgb(0,0,0)" />
	<path d="M1700,3308 1400,3308 1400,3152 1700,3152 1700,3308 z " fill-rule="evenodd" fill="rgb(255,0,0)" stroke-width="5" stroke="rgb(0,0,0)" />
	<path d="M1398,3610 1098,3610 1098,3152 1398,3152 1398,3610 z " fill-rule="evenodd" fill="rgb(255,0,0)" stroke-width="5" stroke="rgb(0,0,0)" />
	<path d="M1702,2102 1402,2102 1402,1602 1702,1602 1702,2102 z " fill-rule="evenodd" fill="rgb(255,0,0)" stroke-width="5" stroke="rgb(0,0,0)" />
	<path d="M798,1802 498,1802 498,1602 700,1602 700,1502 798,1502 798,1802 z " fill-rule="evenodd" fill="rgb(255,0,0)" stroke-width="5" stroke="rgb(0,0,0)" />
	<path d="M2004,1800 1704,1800 1704,1602 2004,1602 2004,1800 z " fill-rule="evenodd" fill="rgb(255,0,0)" stroke-width="5" stroke="rgb(0,0,0)" />
	<path d="M496,2408 796,2408 796,2952 496,2952 496,2408 z " fill-rule="evenodd" fill="rgb(255,0,0)" stroke-width="5" stroke="rgb(0,0,0)" />
	<path d="M496,2104 196,2104 196,1602 496,1602 496,2104 z " fill-rule="evenodd" fill="rgb(255,0,0)" stroke-width="5" stroke="rgb(0,0,0)" />
	<path d="M2604,4512 2604,3912 2900,3912 2900,4512 2604,4512 z " fill-rule="evenodd" fill="rgb(255,0,0)" stroke-width="5" stroke="rgb(0,0,0)" />
	<path d="M2606,3306 2606,2706 2906,2706 2906,2952 2850,2952 2850,3152 2900,3152 2900,3306 2606,3306 z " fill-rule="evenodd" fill="rgb(255,0,0)" stroke-width="5" stroke="rgb(0,0,0)" />
	<path d="M2306,898 2306,1498 2150,1498 2150,898 2306,898 z " fill-rule="evenodd" fill="rgb(255,0,0)" stroke-width="5" stroke="rgb(0,0,0)" />
	<path d="M194,2710 494,2710 494,2952 194,2952 194,2710 z " fill-rule="evenodd" fill="rgb(255,0,0)" stroke-width="5" stroke="rgb(0,0,0)" />
	<path d="M494,3310 194,3310 194,3152 494,3152 494,3310 z " fill-rule="evenodd" fill="rgb(255,0,0)" stroke-width="5" stroke="rgb(0,0,0)" />
	<path d="M194,1806 194,2406 100,2406 100,1806 194,1806 z " fill-rule="evenodd" fill="rgb(255,0,0)" stroke-width="5" stroke="rgb(0,0,0)" />
	<path d="M2602,5718 2602,5118 2900,5118 2900,5718 2602,5718 z " fill-rule="evenodd" fill="rgb(255,0,0)" stroke-width="5" stroke="rgb(0,0,0)" />
	<path d="M2908,2404 3208,2404 3208,2952 2908,2952 2908,2404 z " fill-rule="evenodd" fill="rgb(255,0,0)" stroke-width="5" stroke="rgb(0,0,0)" />
	<path d="M2308,292 2150,292 2150,100 2308,164.084 2308,292 z " fill-rule="evenodd" fill="rgb(255,0,0)" stroke-width="5" stroke="rgb(0,0,0)" />
	<path d="M1092,6628 1392,6628 1392,6952 1092,6952 1092,6628 z " fill-rule="evenodd" fill="rgb(255,0,0)" stroke-width="5" stroke="rgb(0,0,0)" />
	<path d="M192,3612 100,3612 100,3152 192,3152 192,3612 z " fill-rule="evenodd" fill="rgb(255,0,0)" stroke-width="5" stroke="rgb(0,0,0)" />
	<path d="M2902,6622 2902,6052 3100,6052 3100,6622 2902,6622 z " fill-rule="evenodd" fill="rgb(255,0,0)" stroke-width="5" stroke="rgb(0,0,0)" />
	<path d="M2298,6626 2598,6626 2598,6952 2298,6952 2298,6626 z " fill-rule="evenodd" fill="rgb(255,0,0)" stroke-width="5" stroke="rgb(0,0,0)" />
	<path d="M3810,3606 3700,3606 3700,3052 3810,3052 3810,3606 z " fill-rule="evenodd" fill="rgb(255,0,0)" stroke-width="5" stroke="rgb(0,0,0)" />
	<path d="M3210,1798 2910,1798 2910,1198 3203.33,1198 3080,1502 2950,1502 2950,1602 3147,1602 3210,1446.64 3210,1798 z " fill-rule="evenodd" fill="rgb(255,0,0)" stroke-width="5" stroke="rgb(0,0,0)" />
	<path d="M2910,894 2610,894 2610,294 2628.31,294 2910,408.252 2910,894 z " fill-rule="evenodd" fill="rgb(255,0,0)" stroke-width="5" stroke="rgb(0,0,0)" />
	<path d="M1996,6928 2296,6928 2296,6952 1996,6952 1996,6928 z " fill-rule="evenodd" fill="rgb(255,0,0)" stroke-width="5" stroke="rgb(0,0,0)" />
	<path d="M790,6930 1090,6930 1090,6952 790,6952 790,6930 z " fill-rule="evenodd" fill="rgb(255,0,0)" stroke-width="5" stroke="rgb(0,0,0)" />
	<path d="M190,4218 190,4818 100,4818 100,4218 190,4218 z " fill-rule="evenodd" fill="rgb(255,0,0)" stroke-width="5" stroke="rgb(0,0,0)" />
	<path d="M3808,4212 3808,4812 3700,4812 3700,4212 3808,4212 z " fill-rule="evenodd" fill="rgb(255,0,0)" stroke-width="5" stroke="rgb(0,0,0)" />
	<path d="M3812,2704 4112,2704 4112,2952 3812,2952 3812,2704 z " fill-rule="evenodd" fill="rgb(255,0,0)" stroke-width="5" stroke="rgb(0,0,0)" />
	<path d="M4112,3304 3812,3304 3812,3052 4112,3052 4112,3304 z " fill-rule="evenodd" fill="rgb(255,0,0)" stroke-width="5" stroke="rgb(0,0,0)" />
	<path d="M3512,896 3512,1496 3212,1496 3212,1441.71 3433.3,896 3512,896 z " fill-rule="evenodd" fill="rgb(255,0,0)" stroke-width="5" stroke="rgb(0,0,0)" />
	<path d="M3212,896 3325.84,896 3212,1176.62 3212,896 z " fill-rule="evenodd" fill="rgb(255,0,0)" stroke-width="5" stroke="rgb(0,0,0)" />
	<path d="M3212,592 2912,592 2912,409.063 3212,530.741 3212,592 z " fill-rule="evenodd" fill="rgb(255,0,0)" stroke-width="5" stroke="rgb(0,0,0)" />
	<path d="M188,5424 188,6024 100,6024 100,5424 188,5424 z " fill-rule="evenodd" fill="rgb(255,0,0)" stroke-width="5" stroke="rgb(0,0,0)" />
	<path d="M4714,4810 4714,4210 4950,4210 4950,4810 4714,4810 z " fill-rule="evenodd" fill="rgb(255,0,0)" stroke-width="5" stroke="rgb(0,0,0)" />
	<path d="M4412,4512 4712,4512 4712,4952 4412,4952 4412,4512 z " fill-rule="evenodd" fill="rgb(255,0,0)" stroke-width="5" stroke="rgb(0,0,0)" />
	<path d="M4110,4814 4410,4814 4410,4952 4110,4952 4110,4814 z " fill-rule="evenodd" fill="rgb(255,0,0)" stroke-width="5" stroke="rgb(0,0,0)" />
	<path d="M4114,2402 4414,2402 4414,3002 4200,3002 4200,2952 4114,2952 4114,2402 z " fill-rule="evenodd" fill="rgb(255,0,0)" stroke-width="5" stroke="rgb(0,0,0)" />
	<path d="M3814,1194 3514,1194 3514,696.99 3529,660 3814,775.72 3814,1194 z " fill-rule="evenodd" fill="rgb(255,0,0)" stroke-width="5" stroke="rgb(0,0,0)" />
	<path d="M186,6630 186,6952 100,6952 100,6630 186,6630 z " fill-rule="evenodd" fill="rgb(255,0,0)" stroke-width="5" stroke="rgb(0,0,0)" />
	<path d="M5314,5114 5314,5552 5050,5552 5050,5114 5314,5114 z " fill-rule="evenodd" fill="rgb(255,0,0)" stroke-width="5" stroke="rgb(0,0,0)" />
	<path d="M5316,3908 5316,4508 5050,4508 5050,3908 5316,3908 z " fill-rule="evenodd" fill="rgb(255,0,0)" stroke-width="5" stroke="rgb(0,0,0)" />
	<path d="M4716,3604 4716,3004 4900,3004 4900,3052 4950,3052 4950,3604 4716,3604 z " fill-rule="evenodd" fill="rgb(255,0,0)" stroke-width="5" stroke="rgb(0,0,0)" />
	<path d="M3816,892 3816,776.532 4100.38,892 3816,892 z " fill-rule="evenodd" fill="rgb(255,0,0)" stroke-width="5" stroke="rgb(0,0,0)" />
	<path d="M5918,5414 6218,5414 6218,5552 5918,5552 5918,5414 z " fill-rule="evenodd" fill="rgb(255,0,0)" stroke-width="5" stroke="rgb(0,0,0)" />
	<path d="M5018,2702 5318,2702 5318,3302 5050,3302 5050,2952 5018,2952 5018,2702 z " fill-rule="evenodd" fill="rgb(255,0,0)" stroke-width="5" stroke="rgb(0,0,0)" />
	<path d="M4718,1494 4418,1494 4418,1020.96 4718,1142.77 4718,1494 z " fill-rule="evenodd" fill="rgb(255,0,0)" stroke-width="5" stroke="rgb(0,0,0)" />
	<path d="M6220,5112 6520,5112 6520,5552 6220,5552 6220,5112 z " fill-rule="evenodd" fill="rgb(255,0,0)" stroke-width="5" stroke="rgb(0,0,0)" />
	<path d="M4720,1192 4720,1143.59 4839.23,1192 4720,1192 z " fill-rule="evenodd" fill="rgb(255,0,0)" stroke-width="5" stroke="rgb(0,0,0)" />
	<path d="M5622,1794 5322,1794 5322,1388.02 5622,1509.83 5622,1794 z " fill-rule="evenodd" fill="rgb(255,0,0)" stroke-width="5" stroke="rgb(0,0,0)" />
	<path d="M7124,5412 7424,5412 7424,5552 7124,5552 7124,5412 z " fill-rule="evenodd" fill="rgb(255,0,0)" stroke-width="5" stroke="rgb(0,0,0)" />
	<path d="M7426,5110 7726,5110 7726,5552 7426,5552 7426,5110 z " fill-rule="evenodd" fill="rgb(255,0,0)" stroke-width="5" stroke="rgb(0,0,0)" />
	<path d="M6526,2094 6226,2094 6226,1755.07 6526,1876.88 6526,2094 z " fill-rule="evenodd" fill="rgb(255,0,0)" stroke-width="5" stroke="rgb(0,0,0)" />
	<path d="M7128,2696 6828,2696 6828,2096 7065.65,2096 7128,2121.32 7128,2696 z " fill-rule="evenodd" fill="rgb(255,0,0)" stroke-width="5" stroke="rgb(0,0,0)" />
	<path d="M8330,5410 8600,5410 8600,5552 8330,5552 8330,5410 z " fill-rule="evenodd" fill="rgb(255,0,0)" stroke-width="5" stroke="rgb(0,0,0)" />
	<path d="M7430,2394 7130,2394 7130,2122.13 7430,2243.94 7430,2394 z " fill-rule="evenodd" fill="rgb(255,0,0)" stroke-width="5" stroke="rgb(0,0,0)" />
	<path d="M8332,4804 8332,4204 8600,4204 8600,4804 8332,4804 z " fill-rule="evenodd" fill="rgb(255,0,0)" stroke-width="5" stroke="rgb(0,0,0)" />
	<path d="M8032,2996 7732,2996 7732,2396 7804.5,2396 8032,2488.37 8032,2996 z " fill-rule="evenodd" fill="rgb(255,0,0)" stroke-width="5" stroke="rgb(0,0,0)" />
	<path d="M8334,3598 8334,2998 8600,2998 8600,3598 8334,3598 z " fill-rule="evenodd" fill="rgb(255,0,0)" stroke-width="5" stroke="rgb(0,0,0)" />
	<path d="M8334,2694 8034,2694 8034,2489.18 8334,2610.99 8334,2694 z " fill-rule="evenodd" fill="rgb(255,0,0)" stroke-width="5" stroke="rgb(0,0,0)" />
	<polyline points="1395,1507 795,1507 1395,1507 1395,2107 1395,1507 " fill="none" stroke-width="100" stroke="rgb(0,0,0)" />
	<circle cx="1395" cy="1507" r="-10" fill="rgb(0,0,0)" />
	<circle cx="795" cy="1507" r="-10" fill="rgb(0,0,0)" />
	<circle cx="1395" cy="1507" r="-10" fill="rgb(0,0,0)" />
	<circle cx="1395" cy="2107" r="-10" fill="rgb(0,0,0)" />
	<circle cx="1395" cy="1507" r="-10" fill="rgb(0,0,0)" />
	<polyline points="1395,2167 1395,1507 735,1507 " fill="none" stroke-width="0.5" stroke="rgb(128,0,128)" />
</svg>
