<?xml version="1.0" standalone="no" ?>
<!DOCTYPE svg PUBLIC "-//W3C//DTD SVG 1.1//EN" "http://www.w3.org/Graphics/SVG/1.1/DTD/svg11.dtd">
<svg width="8700px" height="7052px" xmlns="http://www.w3.org/2000/svg" version="1.1" >
	<path d="M3100,6052 2500,6052 2500,6352 3100,6352 3100,6052 z " fill-rule="evenodd" fill="rgb(0,128,0)" stroke-width="5" stroke="rgb(0,0,0)" />
	<path d="M2798,6354 2198,6354 2198,6654 2798,6654 2798,6354 z " fill-rule="evenodd" fill="rgb(0,128,0)" stroke-width="5" stroke="rgb(0,0,0)" />
	<path d="M2800,5148 2200,5148 2200,5448 2800,5448 2800,5148 z " fill-rule="evenodd" fill="rgb(0,128,0)" stroke-width="5" stroke="rgb(0,0,0)" />
	<path d="M2498,5450 1898,5450 1898,5750 2498,5750 2498,5450 z " fill-rule="evenodd" fill="rgb(0,128,0)" stroke-width="5" stroke="rgb(0,0,0)" />
	<path d="M2196,5752 1596,5752 1596,6052 2196,6052 2196,5752 z " fill-rule="evenodd" fill="rgb(0,128,0)" stroke-width="5" stroke="rgb(0,0,0)" />
	<path d="M2802,3942 2202,3942 2202,4242 2802,4242 2802,3942 z " fill-rule="evenodd" fill="rgb(0,128,0)" stroke-width="5" stroke="rgb(0,0,0)" />
	<path d="M2500,4244 1900,4244 1900,4544 2500,4544 2500,4244 z " fill-rule="evenodd" fill="rgb(0,128,0)" stroke-width="5" stroke="rgb(0,0,0)" />
	<path d="M2198,4546 1598,4546 1598,4846 2198,4846 2198,4546 z " fill-rule="evenodd" fill="rgb(0,128,0)" stroke-width="5" stroke="rgb(0,0,0)" />
	<path d="M1896,4848 1296,4848 1296,5148 1896,5148 1896,4848 z " fill-rule="evenodd" fill="rgb(0,128,0)" stroke-width="5" stroke="rgb(0,0,0)" />
	<path d="M1894,6054 1294,6054 1294,6354 1894,6354 1894,6054 z " fill-rule="evenodd" fill="rgb(0,128,0)" stroke-width="5" stroke="rgb(0,0,0)" />
	<path d="M1594,5150 994,5150 994,5450 1594,5450 1594,5150 z " fill-rule="evenodd" fill="rgb(0,128,0)" stroke-width="5" stroke="rgb(0,0,0)" />
	<path d="M3106,2434 2506,2434 2506,2734 3106,2734 3106,2434 z " fill-rule="evenodd" fill="rgb(0,128,0)" stroke-width="5" stroke="rgb(0,0,0)" />
	<path d="M2804,2736 2204,2736 2204,3036 2804,3036 2804,2736 z " fill-rule="evenodd" fill="rgb(0,128,0)" stroke-width="5" stroke="rgb(0,0,0)" />
	<path d="M2200,3340 1600,3340 1600,3640 2200,3640 2200,3340 z " fill-rule="evenodd" fill="rgb(0,128,0)" stroke-width="5" stroke="rgb(0,0,0)" />
	<path d="M1898,3642 1298,3642 1298,3942 1898,3942 1898,3642 z " fill-rule="evenodd" fill="rgb(0,128,0)" stroke-width="5" stroke="rgb(0,0,0)" />
	<path d="M1596,3944 996,3944 996,4244 1596,4244 1596,3944 z " fill-rule="evenodd" fill="rgb(0,128,0)" stroke-width="5" stroke="rgb(0,0,0)" />
	<path d="M1294,4246 694,4246 694,4546 1294,4546 1294,4246 z " fill-rule="evenodd" fill="rgb(0,128,0)" stroke-width="5" stroke="rgb(0,0,0)" />
	<path d="M3408,2132 2808,2132 2808,2432 3408,2432 3408,2132 z " fill-rule="evenodd" fill="rgb(0,128,0)" stroke-width="5" stroke="rgb(0,0,0)" />
	<path d="M1592,6356 992,6356 992,6656 1592,6656 1592,6356 z " fill-rule="evenodd" fill="rgb(0,128,0)" stroke-width="5" stroke="rgb(0,0,0)" />
	<path d="M1292,5452 692,5452 692,5752 1292,5752 1292,5452 z " fill-rule="evenodd" fill="rgb(0,128,0)" stroke-width="5" stroke="rgb(0,0,0)" />
	<path d="M992,4548 392,4548 392,4848 992,4848 992,4548 z " fill-rule="evenodd" fill="rgb(0,128,0)" stroke-width="5" stroke="rgb(0,0,0)" />
	<path d="M2806,1530 2206,1530 2206,1830 2806,1830 2806,1530 z " fill-rule="evenodd" fill="rgb(0,128,0)" stroke-width="5" stroke="rgb(0,0,0)" />
	<path d="M2504,1832 1904,1832 1904,2132 2504,2132 2504,1832 z " fill-rule="evenodd" fill="rgb(0,128,0)" stroke-width="5" stroke="rgb(0,0,0)" />
	<path d="M2202,2134 1602,2134 1602,2434 2202,2434 2202,2134 z " fill-rule="evenodd" fill="rgb(0,128,0)" stroke-width="5" stroke="rgb(0,0,0)" />
	<path d="M1900,2436 1300,2436 1300,2736 1900,2736 1900,2436 z " fill-rule="evenodd" fill="rgb(0,128,0)" stroke-width="5" stroke="rgb(0,0,0)" />
	<path d="M994,3342 394,3342 394,3642 994,3642 994,3342 z " fill-rule="evenodd" fill="rgb(0,128,0)" stroke-width="5" stroke="rgb(0,0,0)" />
	<path d="M4610,4542 4010,4542 4010,4842 4610,4842 4610,4542 z " fill-rule="evenodd" fill="rgb(0,128,0)" stroke-width="5" stroke="rgb(0,0,0)" />
	<path d="M4310,3638 3710,3638 3710,3938 4310,3938 4310,3638 z " fill-rule="evenodd" fill="rgb(0,128,0)" stroke-width="5" stroke="rgb(0,0,0)" />
	<path d="M3710,1830 3110,1830 3110,2130 3710,2130 3710,1830 z " fill-rule="evenodd" fill="rgb(0,128,0)" stroke-width="5" stroke="rgb(0,0,0)" />
	<path d="M990,5754 390,5754 390,6054 990,6054 990,5754 z " fill-rule="evenodd" fill="rgb(0,128,0)" stroke-width="5" stroke="rgb(0,0,0)" />
	<path d="M1298,1834 698,1834 698,2134 1298,2134 1298,1834 z " fill-rule="evenodd" fill="rgb(0,128,0)" stroke-width="5" stroke="rgb(0,0,0)" />
	<path d="M996,2136 396,2136 396,2436 996,2436 996,2136 z " fill-rule="evenodd" fill="rgb(0,128,0)" stroke-width="5" stroke="rgb(0,0,0)" />
	<path d="M4912,4240 4312,4240 4312,4540 4912,4540 4912,4240 z " fill-rule="evenodd" fill="rgb(0,128,0)" stroke-width="5" stroke="rgb(0,0,0)" />
	<path d="M4612,3336 4012,3336 4012,3636 4612,3636 4612,3336 z " fill-rule="evenodd" fill="rgb(0,128,0)" stroke-width="5" stroke="rgb(0,0,0)" />
	<path d="M4312,2432 3712,2432 3712,2732 4312,2732 4312,2432 z " fill-rule="evenodd" fill="rgb(0,128,0)" stroke-width="5" stroke="rgb(0,0,0)" />
	<path d="M4012,1528 3412,1528 3412,1828 4012,1828 4012,1528 z " fill-rule="evenodd" fill="rgb(0,128,0)" stroke-width="5" stroke="rgb(0,0,0)" />
	<path d="M4614,2130 4014,2130 4014,2430 4614,2430 4614,2130 z " fill-rule="evenodd" fill="rgb(0,128,0)" stroke-width="5" stroke="rgb(0,0,0)" />
	<path d="M4314,1226 3714,1226 3714,1526 4314,1526 4314,1226 z " fill-rule="evenodd" fill="rgb(0,128,0)" stroke-width="5" stroke="rgb(0,0,0)" />
	<path d="M5816,4540 5216,4540 5216,4840 5816,4840 5816,4540 z " fill-rule="evenodd" fill="rgb(0,128,0)" stroke-width="5" stroke="rgb(0,0,0)" />
	<path d="M4916,1828 4316,1828 4316,2128 4916,2128 4916,1828 z " fill-rule="evenodd" fill="rgb(0,128,0)" stroke-width="5" stroke="rgb(0,0,0)" />
	<path d="M6418,5142 5818,5142 5818,5442 6418,5442 6418,5142 z " fill-rule="evenodd" fill="rgb(0,128,0)" stroke-width="5" stroke="rgb(0,0,0)" />
	<path d="M6118,4238 5518,4238 5518,4538 6118,4538 6118,4238 z " fill-rule="evenodd" fill="rgb(0,128,0)" stroke-width="5" stroke="rgb(0,0,0)" />
	<path d="M5818,3334 5218,3334 5218,3634 5818,3634 5818,3334 z " fill-rule="evenodd" fill="rgb(0,128,0)" stroke-width="5" stroke="rgb(0,0,0)" />
	<path d="M5518,2430 4918,2430 4918,2730 5518,2730 5518,2430 z " fill-rule="evenodd" fill="rgb(0,128,0)" stroke-width="5" stroke="rgb(0,0,0)" />
	<path d="M5218,1526 4618,1526 4618,1826 5218,1826 5218,1526 z " fill-rule="evenodd" fill="rgb(0,128,0)" stroke-width="5" stroke="rgb(0,0,0)" />
	<path d="M6720,4840 6120,4840 6120,5140 6720,5140 6720,4840 z " fill-rule="evenodd" fill="rgb(0,128,0)" stroke-width="5" stroke="rgb(0,0,0)" />
	<path d="M6420,3936 5820,3936 5820,4236 6420,4236 6420,3936 z " fill-rule="evenodd" fill="rgb(0,128,0)" stroke-width="5" stroke="rgb(0,0,0)" />
	<path d="M6120,3032 5520,3032 5520,3332 6120,3332 6120,3032 z " fill-rule="evenodd" fill="rgb(0,128,0)" stroke-width="5" stroke="rgb(0,0,0)" />
	<path d="M5820,2128 5220,2128 5220,2428 5820,2428 5820,2128 z " fill-rule="evenodd" fill="rgb(0,128,0)" stroke-width="5" stroke="rgb(0,0,0)" />
	<path d="M7022,4538 6422,4538 6422,4838 7022,4838 7022,4538 z " fill-rule="evenodd" fill="rgb(0,128,0)" stroke-width="5" stroke="rgb(0,0,0)" />
	<path d="M6722,3634 6122,3634 6122,3934 6722,3934 6722,3634 z " fill-rule="evenodd" fill="rgb(0,128,0)" stroke-width="5" stroke="rgb(0,0,0)" />
	<path d="M6422,2730 5822,2730 5822,3030 6422,3030 6422,2730 z " fill-rule="evenodd" fill="rgb(0,128,0)" stroke-width="5" stroke="rgb(0,0,0)" />
	<path d="M6122,1826 5522,1826 5522,2126 6122,2126 6122,1826 z " fill-rule="evenodd" fill="rgb(0,128,0)" stroke-width="5" stroke="rgb(0,0,0)" />
	<path d="M7624,5140 7024,5140 7024,5440 7624,5440 7624,5140 z " fill-rule="evenodd" fill="rgb(0,128,0)" stroke-width="5" stroke="rgb(0,0,0)" />
	<path d="M7324,4236 6724,4236 6724,4536 7324,4536 7324,4236 z " fill-rule="evenodd" fill="rgb(0,128,0)" stroke-width="5" stroke="rgb(0,0,0)" />
	<path d="M7024,3332 6424,3332 6424,3632 7024,3632 7024,3332 z " fill-rule="evenodd" fill="rgb(0,128,0)" stroke-width="5" stroke="rgb(0,0,0)" />
	<path d="M6724,2428 6124,2428 6124,2728 6724,2728 6724,2428 z " fill-rule="evenodd" fill="rgb(0,128,0)" stroke-width="5" stroke="rgb(0,0,0)" />
	<path d="M7926,4838 7326,4838 7326,5138 7926,5138 7926,4838 z " fill-rule="evenodd" fill="rgb(0,128,0)" stroke-width="5" stroke="rgb(0,0,0)" />
	<path d="M7626,3934 7026,3934 7026,4234 7626,4234 7626,3934 z " fill-rule="evenodd" fill="rgb(0,128,0)" stroke-width="5" stroke="rgb(0,0,0)" />
	<path d="M7326,3030 6726,3030 6726,3330 7326,3330 7326,3030 z " fill-rule="evenodd" fill="rgb(0,128,0)" stroke-width="5" stroke="rgb(0,0,0)" />
	<path d="M7026,2126 6426,2126 6426,2426 7026,2426 7026,2126 z " fill-rule="evenodd" fill="rgb(0,128,0)" stroke-width="5" stroke="rgb(0,0,0)" />
	<path d="M8228,4536 7628,4536 7628,4836 8228,4836 8228,4536 z " fill-rule="evenodd" fill="rgb(0,128,0)" stroke-width="5" stroke="rgb(0,0,0)" />
	<path d="M7928,3632 7328,3632 7328,3932 7928,3932 7928,3632 z " fill-rule="evenodd" fill="rgb(0,128,0)" stroke-width="5" stroke="rgb(0,0,0)" />
	<path d="M7628,2728 7028,2728 7028,3028 7628,3028 7628,2728 z " fill-rule="evenodd" fill="rgb(0,128,0)" stroke-width="5" stroke="rgb(0,0,0)" />
	<path d="M8530,4234 7930,4234 7930,4534 8530,4534 8530,4234 z " fill-rule="evenodd" fill="rgb(0,128,0)" stroke-width="5" stroke="rgb(0,0,0)" />
	<path d="M8230,3330 7630,3330 7630,3630 8230,3630 8230,3330 z " fill-rule="evenodd" fill="rgb(0,128,0)" stroke-width="5" stroke="rgb(0,0,0)" />
	<path d="M8532,3028 7932,3028 7932,3328 8532,3328 8532,3028 z " fill-rule="evenodd" fill="rgb(0,128,0)" stroke-width="5" stroke="rgb(0,0,0)" />
	<path d="M2800,5450 2500,5450 2500,6050 2800,6050 2800,5450 z " fill-rule="evenodd" fill="rgb(0,128,0)" stroke-width="5" stroke="rgb(0,0,0)" />
	<path d="M2498,5752 2198,5752 2198,6352 2498,6352 2498,5752 z " fill-rule="evenodd" fill="rgb(0,128,0)" stroke-width="5" stroke="rgb(0,0,0)" />
	<path d="M2196,6054 1896,6054 1896,6654 2196,6654 2196,6054 z " fill-rule="evenodd" fill="rgb(0,128,0)" stroke-width="5" stroke="rgb(0,0,0)" />
	<path d="M2802,4244 2502,4244 2502,4844 2802,4844 2802,4244 z " fill-rule="evenodd" fill="rgb(0,128,0)" stroke-width="5" stroke="rgb(0,0,0)" />
	<path d="M2500,4546 2200,4546 2200,5146 2500,5146 2500,4546 z " fill-rule="evenodd" fill="rgb(0,128,0)" stroke-width="5" stroke="rgb(0,0,0)" />
	<path d="M2198,4848 1898,4848 1898,5448 2198,5448 2198,4848 z " fill-rule="evenodd" fill="rgb(0,128,0)" stroke-width="5" stroke="rgb(0,0,0)" />
	<path d="M1896,5150 1596,5150 1596,5750 1896,5750 1896,5150 z " fill-rule="evenodd" fill="rgb(0,128,0)" stroke-width="5" stroke="rgb(0,0,0)" />
	<path d="M1594,5452 1294,5452 1294,6052 1594,6052 1594,5452 z " fill-rule="evenodd" fill="rgb(0,128,0)" stroke-width="5" stroke="rgb(0,0,0)" />
	<path d="M2804,3038 2504,3038 2504,3638 2804,3638 2804,3038 z " fill-rule="evenodd" fill="rgb(0,128,0)" stroke-width="5" stroke="rgb(0,0,0)" />
	<path d="M2502,3340 2202,3340 2202,3940 2502,3940 2502,3340 z " fill-rule="evenodd" fill="rgb(0,128,0)" stroke-width="5" stroke="rgb(0,0,0)" />
	<path d="M2200,3642 1900,3642 1900,4242 2200,4242 2200,3642 z " fill-rule="evenodd" fill="rgb(0,128,0)" stroke-width="5" stroke="rgb(0,0,0)" />
	<path d="M1898,3944 1598,3944 1598,4544 1898,4544 1898,3944 z " fill-rule="evenodd" fill="rgb(0,128,0)" stroke-width="5" stroke="rgb(0,0,0)" />
	<path d="M1596,4246 1296,4246 1296,4846 1596,4846 1596,4246 z " fill-rule="evenodd" fill="rgb(0,128,0)" stroke-width="5" stroke="rgb(0,0,0)" />
	<path d="M1294,4548 994,4548 994,5148 1294,5148 1294,4548 z " fill-rule="evenodd" fill="rgb(0,128,0)" stroke-width="5" stroke="rgb(0,0,0)" />
	<path d="M1292,5754 992,5754 992,6354 1292,6354 1292,5754 z " fill-rule="evenodd" fill="rgb(0,128,0)" stroke-width="5" stroke="rgb(0,0,0)" />
	<path d="M992,4850 692,4850 692,5450 992,5450 992,4850 z " fill-rule="evenodd" fill="rgb(0,128,0)" stroke-width="5" stroke="rgb(0,0,0)" />
	<path d="M4008,4242 3708,4242 3708,4842 4008,4842 4008,4242 z " fill-rule="evenodd" fill="rgb(0,128,0)" stroke-width="5" stroke="rgb(0,0,0)" />
	<path d="M2806,1832 2506,1832 2506,2432 2806,2432 2806,1832 z " fill-rule="evenodd" fill="rgb(0,128,0)" stroke-width="5" stroke="rgb(0,0,0)" />
	<path d="M2504,2134 2204,2134 2204,2734 2504,2734 2504,2134 z " fill-rule="evenodd" fill="rgb(0,128,0)" stroke-width="5" stroke="rgb(0,0,0)" />
	<path d="M1296,3342 996,3342 996,3942 1296,3942 1296,3342 z " fill-rule="evenodd" fill="rgb(0,128,0)" stroke-width="5" stroke="rgb(0,0,0)" />
	<path d="M994,3644 694,3644 694,4244 994,4244 994,3644 z " fill-rule="evenodd" fill="rgb(0,128,0)" stroke-width="5" stroke="rgb(0,0,0)" />
	<path d="M692,3946 392,3946 392,4546 692,4546 692,3946 z " fill-rule="evenodd" fill="rgb(0,128,0)" stroke-width="5" stroke="rgb(0,0,0)" />
	<path d="M990,6056 690,6056 690,6656 990,6656 990,6056 z " fill-rule="evenodd" fill="rgb(0,128,0)" stroke-width="5" stroke="rgb(0,0,0)" />
	<path d="M690,5152 390,5152 390,5752 690,5752 690,5152 z " fill-rule="evenodd" fill="rgb(0,128,0)" stroke-width="5" stroke="rgb(0,0,0)" />
	<path d="M4310,3940 4010,3940 4010,4540 4310,4540 4310,3940 z " fill-rule="evenodd" fill="rgb(0,128,0)" stroke-width="5" stroke="rgb(0,0,0)" />
	<path d="M3710,2132 3410,2132 3410,2732 3710,2732 3710,2132 z " fill-rule="evenodd" fill="rgb(0,128,0)" stroke-width="5" stroke="rgb(0,0,0)" />
	<path d="M2808,626 2508,626 2508,1226 2808,1226 2808,626 z " fill-rule="evenodd" fill="rgb(0,128,0)" stroke-width="5" stroke="rgb(0,0,0)" />
	<path d="M2506,928 2206,928 2206,1528 2506,1528 2506,928 z " fill-rule="evenodd" fill="rgb(0,128,0)" stroke-width="5" stroke="rgb(0,0,0)" />
	<path d="M1600,1834 1300,1834 1300,2434 1600,2434 1600,1834 z " fill-rule="evenodd" fill="rgb(0,128,0)" stroke-width="5" stroke="rgb(0,0,0)" />
	<path d="M1298,2136 998,2136 998,2736 1298,2736 1298,2136 z " fill-rule="evenodd" fill="rgb(0,128,0)" stroke-width="5" stroke="rgb(0,0,0)" />
	<path d="M4612,3638 4312,3638 4312,4238 4612,4238 4612,3638 z " fill-rule="evenodd" fill="rgb(0,128,0)" stroke-width="5" stroke="rgb(0,0,0)" />
	<path d="M4012,1830 3712,1830 3712,2430 4012,2430 4012,1830 z " fill-rule="evenodd" fill="rgb(0,128,0)" stroke-width="5" stroke="rgb(0,0,0)" />
	<path d="M4914,3336 4614,3336 4614,3936 4914,3936 4914,3336 z " fill-rule="evenodd" fill="rgb(0,128,0)" stroke-width="5" stroke="rgb(0,0,0)" />
	<path d="M4614,2432 4314,2432 4314,3032 4614,3032 4614,2432 z " fill-rule="evenodd" fill="rgb(0,128,0)" stroke-width="5" stroke="rgb(0,0,0)" />
	<path d="M4314,1528 4014,1528 4014,2128 4314,2128 4314,1528 z " fill-rule="evenodd" fill="rgb(0,128,0)" stroke-width="5" stroke="rgb(0,0,0)" />
	<path d="M5816,4842 5516,4842 5516,5442 5816,5442 5816,4842 z " fill-rule="evenodd" fill="rgb(0,128,0)" stroke-width="5" stroke="rgb(0,0,0)" />
	<path d="M5516,3938 5216,3938 5216,4538 5516,4538 5516,3938 z " fill-rule="evenodd" fill="rgb(0,128,0)" stroke-width="5" stroke="rgb(0,0,0)" />
	<path d="M4916,2130 4616,2130 4616,2730 4916,2730 4916,2130 z " fill-rule="evenodd" fill="rgb(0,128,0)" stroke-width="5" stroke="rgb(0,0,0)" />
	<path d="M4616,1226 4316,1226 4316,1826 4616,1826 4616,1226 z " fill-rule="evenodd" fill="rgb(0,128,0)" stroke-width="5" stroke="rgb(0,0,0)" />
	<path d="M6118,4540 5818,4540 5818,5140 6118,5140 6118,4540 z " fill-rule="evenodd" fill="rgb(0,128,0)" stroke-width="5" stroke="rgb(0,0,0)" />
	<path d="M5818,3636 5518,3636 5518,4236 5818,4236 5818,3636 z " fill-rule="evenodd" fill="rgb(0,128,0)" stroke-width="5" stroke="rgb(0,0,0)" />
	<path d="M5518,2732 5218,2732 5218,3332 5518,3332 5518,2732 z " fill-rule="evenodd" fill="rgb(0,128,0)" stroke-width="5" stroke="rgb(0,0,0)" />
	<path d="M5218,1828 4918,1828 4918,2428 5218,2428 5218,1828 z " fill-rule="evenodd" fill="rgb(0,128,0)" stroke-width="5" stroke="rgb(0,0,0)" />
	<path d="M6420,4238 6120,4238 6120,4838 6420,4838 6420,4238 z " fill-rule="evenodd" fill="rgb(0,128,0)" stroke-width="5" stroke="rgb(0,0,0)" />
	<path d="M6120,3334 5820,3334 5820,3934 6120,3934 6120,3334 z " fill-rule="evenodd" fill="rgb(0,128,0)" stroke-width="5" stroke="rgb(0,0,0)" />
	<path d="M5820,2430 5520,2430 5520,3030 5820,3030 5820,2430 z " fill-rule="evenodd" fill="rgb(0,128,0)" stroke-width="5" stroke="rgb(0,0,0)" />
	<path d="M5520,1526 5220,1526 5220,2126 5520,2126 5520,1526 z " fill-rule="evenodd" fill="rgb(0,128,0)" stroke-width="5" stroke="rgb(0,0,0)" />
	<path d="M7022,4840 6722,4840 6722,5440 7022,5440 7022,4840 z " fill-rule="evenodd" fill="rgb(0,128,0)" stroke-width="5" stroke="rgb(0,0,0)" />
	<path d="M6722,3936 6422,3936 6422,4536 6722,4536 6722,3936 z " fill-rule="evenodd" fill="rgb(0,128,0)" stroke-width="5" stroke="rgb(0,0,0)" />
	<path d="M6422,3032 6122,3032 6122,3632 6422,3632 6422,3032 z " fill-rule="evenodd" fill="rgb(0,128,0)" stroke-width="5" stroke="rgb(0,0,0)" />
	<path d="M6122,2128 5822,2128 5822,2728 6122,2728 6122,2128 z " fill-rule="evenodd" fill="rgb(0,128,0)" stroke-width="5" stroke="rgb(0,0,0)" />
	<path d="M7324,4538 7024,4538 7024,5138 7324,5138 7324,4538 z " fill-rule="evenodd" fill="rgb(0,128,0)" stroke-width="5" stroke="rgb(0,0,0)" />
	<path d="M7024,3634 6724,3634 6724,4234 7024,4234 7024,3634 z " fill-rule="evenodd" fill="rgb(0,128,0)" stroke-width="5" stroke="rgb(0,0,0)" />
	<path d="M6724,2730 6424,2730 6424,3330 6724,3330 6724,2730 z " fill-rule="evenodd" fill="rgb(0,128,0)" stroke-width="5" stroke="rgb(0,0,0)" />
	<path d="M7626,4236 7326,4236 7326,4836 7626,4836 7626,4236 z " fill-rule="evenodd" fill="rgb(0,128,0)" stroke-width="5" stroke="rgb(0,0,0)" />
	<path d="M7326,3332 7026,3332 7026,3932 7326,3932 7326,3332 z " fill-rule="evenodd" fill="rgb(0,128,0)" stroke-width="5" stroke="rgb(0,0,0)" />
	<path d="M7026,2428 6726,2428 6726,3028 7026,3028 7026,2428 z " fill-rule="evenodd" fill="rgb(0,128,0)" stroke-width="5" stroke="rgb(0,0,0)" />
	<path d="M8228,4838 7928,4838 7928,5438 8228,5438 8228,4838 z " fill-rule="evenodd" fill="rgb(0,128,0)" stroke-width="5" stroke="rgb(0,0,0)" />
	<path d="M7928,3934 7628,3934 7628,4534 7928,4534 7928,3934 z " fill-rule="evenodd" fill="rgb(0,128,0)" stroke-width="5" stroke="rgb(0,0,0)" />
	<path d="M7628,3030 7328,3030 7328,3630 7628,3630 7628,3030 z " fill-rule="evenodd" fill="rgb(0,128,0)" stroke-width="5" stroke="rgb(0,0,0)" />
	<path d="M8530,4536 8230,4536 8230,5136 8530,5136 8530,4536 z " fill-rule="evenodd" fill="rgb(0,128,0)" stroke-width="5" stroke="rgb(0,0,0)" />
	<path d="M8230,3632 7930,3632 7930,4232 8230,4232 8230,3632 z " fill-rule="evenodd" fill="rgb(0,128,0)" stroke-width="5" stroke="rgb(0,0,0)" />
	<path d="M7930,2728 7630,2728 7630,3328 7930,3328 7930,2728 z " fill-rule="evenodd" fill="rgb(0,128,0)" stroke-width="5" stroke="rgb(0,0,0)" />
	<path d="M8532,3330 8232,3330 8232,3930 8532,3930 8532,3330 z " fill-rule="evenodd" fill="rgb(0,128,0)" stroke-width="5" stroke="rgb(0,0,0)" />
	<path d="M2802,6050 2802,5750 2900,5750 2900,6050 2802,6050 z " fill-rule="evenodd" fill="rgb(255,0,0)" stroke-width="5" stroke="rgb(0,0,0)" />
	<path d="M2502,5146 2502,4846 2900,4846 2900,5146 2502,5146 z " fill-rule="evenodd" fill="rgb(255,0,0)" stroke-width="5" stroke="rgb(0,0,0)" />
	<path d="M2804,4844 2804,4544 2900,4544 2900,4844 2804,4844 z " fill-rule="evenodd" fill="rgb(255,0,0)" stroke-width="5" stroke="rgb(0,0,0)" />
	<path d="M1896,6656 2496,6656 2496,6952 1896,6952 1896,6656 z " fill-rule="evenodd" fill="rgb(255,0,0)" stroke-width="5" stroke="rgb(0,0,0)" />
	<path d="M2504,3940 2504,3640 2900,3640 2900,3940 2504,3940 z " fill-rule="evenodd" fill="rgb(255,0,0)" stroke-width="5" stroke="rgb(0,0,0)" />
	<path d="M3706,4242 3706,4542 3700,4542 3700,4242 3706,4242 z " fill-rule="evenodd" fill="rgb(255,0,0)" stroke-width="5" stroke="rgb(0,0,0)" />
	<path d="M2806,3638 2806,3338 2900,3338 2900,3638 2806,3638 z " fill-rule="evenodd" fill="rgb(255,0,0)" stroke-width="5" stroke="rgb(0,0,0)" />
	<path d="M2502,3038 2502,3338 1902,3338 1902,3152 2050,3152 2050,3038 2502,3038 z " fill-rule="evenodd" fill="rgb(255,0,0)" stroke-width="5" stroke="rgb(0,0,0)" />
	<path d="M3708,4844 4308,4844 4308,4952 3708,4952 3708,4844 z " fill-rule="evenodd" fill="rgb(255,0,0)" stroke-width="5" stroke="rgb(0,0,0)" />
	<path d="M4008,3940 4008,4240 3700,4240 3700,3940 4008,3940 z " fill-rule="evenodd" fill="rgb(255,0,0)" stroke-width="5" stroke="rgb(0,0,0)" />
	<path d="M3708,3336 3700,3336 3700,3052 3708,3052 3708,3336 z " fill-rule="evenodd" fill="rgb(255,0,0)" stroke-width="5" stroke="rgb(0,0,0)" />
	<path d="M2508,1528 2508,1228 3108,1228 3108,1432.98 3080,1502 2950,1502 2950,1528 2508,1528 z " fill-rule="evenodd" fill="rgb(255,0,0)" stroke-width="5" stroke="rgb(0,0,0)" />
	<path d="M998,2738 1598,2738 1598,2952 998,2952 998,2738 z " fill-rule="evenodd" fill="rgb(255,0,0)" stroke-width="5" stroke="rgb(0,0,0)" />
	<path d="M1296,3340 696,3340 696,3152 1296,3152 1296,3340 z " fill-rule="evenodd" fill="rgb(255,0,0)" stroke-width="5" stroke="rgb(0,0,0)" />
	<path d="M692,3644 692,3944 100,3944 100,3644 692,3644 z " fill-rule="evenodd" fill="rgb(255,0,0)" stroke-width="5" stroke="rgb(0,0,0)" />
	<path d="M3410,2734 4010,2734 4010,2952 3410,2952 3410,2734 z " fill-rule="evenodd" fill="rgb(255,0,0)" stroke-width="5" stroke="rgb(0,0,0)" />
	<path d="M2810,1226 2810,926 3313.67,926 3191.97,1226 2810,1226 z " fill-rule="evenodd" fill="rgb(255,0,0)" stroke-width="5" stroke="rgb(0,0,0)" />
	<path d="M3410,1226 3299.48,1226 3410,953.45 3410,1226 z " fill-rule="evenodd" fill="rgb(255,0,0)" stroke-width="5" stroke="rgb(0,0,0)" />
	<path d="M690,6658 1290,6658 1290,6952 690,6952 690,6658 z " fill-rule="evenodd" fill="rgb(255,0,0)" stroke-width="5" stroke="rgb(0,0,0)" />
	<path d="M690,4850 690,5150 100,5150 100,4850 690,4850 z " fill-rule="evenodd" fill="rgb(255,0,0)" stroke-width="5" stroke="rgb(0,0,0)" />
	<path d="M390,3946 390,4246 100,4246 100,3946 390,3946 z " fill-rule="evenodd" fill="rgb(255,0,0)" stroke-width="5" stroke="rgb(0,0,0)" />
	<path d="M2510,322 2510,246.014 2697.34,322 2510,322 z " fill-rule="evenodd" fill="rgb(255,0,0)" stroke-width="5" stroke="rgb(0,0,0)" />
	<path d="M2808,624 2208,624 2208,324 2702.28,324 2808,366.881 2808,624 z " fill-rule="evenodd" fill="rgb(255,0,0)" stroke-width="5" stroke="rgb(0,0,0)" />
	<path d="M2506,626 2506,926 2150,926 2150,626 2506,626 z " fill-rule="evenodd" fill="rgb(255,0,0)" stroke-width="5" stroke="rgb(0,0,0)" />
	<path d="M2204,928 2204,1228 2150,1228 2150,928 2204,928 z " fill-rule="evenodd" fill="rgb(255,0,0)" stroke-width="5" stroke="rgb(0,0,0)" />
	<path d="M1302,1530 1302,1502 1400,1502 1400,1530 1302,1530 z " fill-rule="evenodd" fill="rgb(255,0,0)" stroke-width="5" stroke="rgb(0,0,0)" />
	<path d="M1600,1832 1000,1832 1000,1532 1400,1532 1400,1602 1600,1602 1600,1832 z " fill-rule="evenodd" fill="rgb(255,0,0)" stroke-width="5" stroke="rgb(0,0,0)" />
	<path d="M694,2438 694,2738 100,2738 100,2438 694,2438 z " fill-rule="evenodd" fill="rgb(255,0,0)" stroke-width="5" stroke="rgb(0,0,0)" />
	<path d="M392,2740 392,2952 100,2952 100,2740 392,2740 z " fill-rule="evenodd" fill="rgb(255,0,0)" stroke-width="5" stroke="rgb(0,0,0)" />
	<path d="M5212,5144 5212,5444 5050,5444 5050,5144 5212,5144 z " fill-rule="evenodd" fill="rgb(255,0,0)" stroke-width="5" stroke="rgb(0,0,0)" />
	<path d="M3112,924 3112,624 3436.19,624 3314.48,924 3112,924 z " fill-rule="evenodd" fill="rgb(255,0,0)" stroke-width="5" stroke="rgb(0,0,0)" />
	<path d="M3712,924 3421.94,924 3529,660 3712,734.304 3712,924 z " fill-rule="evenodd" fill="rgb(255,0,0)" stroke-width="5" stroke="rgb(0,0,0)" />
	<path d="M688,6056 688,6356 100,6356 100,6056 688,6056 z " fill-rule="evenodd" fill="rgb(255,0,0)" stroke-width="5" stroke="rgb(0,0,0)" />
	<path d="M388,5152 388,5452 100,5452 100,5152 388,5152 z " fill-rule="evenodd" fill="rgb(255,0,0)" stroke-width="5" stroke="rgb(0,0,0)" />
	<path d="M394,1834 100,1834 100,1602 394,1602 394,1834 z " fill-rule="evenodd" fill="rgb(255,0,0)" stroke-width="5" stroke="rgb(0,0,0)" />
	<path d="M5514,4842 5514,5142 5050,5142 5050,4842 5514,4842 z " fill-rule="evenodd" fill="rgb(255,0,0)" stroke-width="5" stroke="rgb(0,0,0)" />
	<path d="M4914,4842 4950,4842 4950,4952 4914,4952 4914,4842 z " fill-rule="evenodd" fill="rgb(255,0,0)" stroke-width="5" stroke="rgb(0,0,0)" />
	<path d="M5214,3938 5214,4238 5050,4238 5050,3938 5214,3938 z " fill-rule="evenodd" fill="rgb(255,0,0)" stroke-width="5" stroke="rgb(0,0,0)" />
	<path d="M4614,4238 4614,3938 4950,3938 4950,4238 4614,4238 z " fill-rule="evenodd" fill="rgb(255,0,0)" stroke-width="5" stroke="rgb(0,0,0)" />
	<path d="M4914,3334 4314,3334 4314,3034 4900,3034 4900,3052 4914,3052 4914,3334 z " fill-rule="evenodd" fill="rgb(255,0,0)" stroke-width="5" stroke="rgb(0,0,0)" />
	<path d="M3414,622 3414,612.671 3437,622 3414,622 z " fill-rule="evenodd" fill="rgb(255,0,0)" stroke-width="5" stroke="rgb(0,0,0)" />
	<path d="M386,6358 386,6658 100,6658 100,6358 386,6358 z " fill-rule="evenodd" fill="rgb(255,0,0)" stroke-width="5" stroke="rgb(0,0,0)" />
	<path d="M5516,5444 6116,5444 6116,5552 5516,5552 5516,5444 z " fill-rule="evenodd" fill="rgb(255,0,0)" stroke-width="5" stroke="rgb(0,0,0)" />
	<path d="M5516,3636 5516,3936 5050,3936 5050,3636 5516,3636 z " fill-rule="evenodd" fill="rgb(255,0,0)" stroke-width="5" stroke="rgb(0,0,0)" />
	<path d="M4916,3936 4916,3636 4950,3636 4950,3936 4916,3936 z " fill-rule="evenodd" fill="rgb(255,0,0)" stroke-width="5" stroke="rgb(0,0,0)" />
	<path d="M4616,3032 4616,2732 5216,2732 5216,3032 5050,3032 5050,2952 4900,2952 4900,3032 4616,3032 z " fill-rule="evenodd" fill="rgb(255,0,0)" stroke-width="5" stroke="rgb(0,0,0)" />
	<path d="M4616,1224 4016,1224 4016,924 4179.19,924 4616,1101.36 4616,1224 z " fill-rule="evenodd" fill="rgb(255,0,0)" stroke-width="5" stroke="rgb(0,0,0)" />
	<path d="M5520,1524 4920,1524 4920,1224.79 5520,1468.41 5520,1524 z " fill-rule="evenodd" fill="rgb(255,0,0)" stroke-width="5" stroke="rgb(0,0,0)" />
	<path d="M6722,5442 7322,5442 7322,5552 6722,5552 6722,5442 z " fill-rule="evenodd" fill="rgb(255,0,0)" stroke-width="5" stroke="rgb(0,0,0)" />
	<path d="M5824,1824 5824,1591.85 6395.75,1824 5824,1824 z " fill-rule="evenodd" fill="rgb(255,0,0)" stroke-width="5" stroke="rgb(0,0,0)" />
	<path d="M7928,5440 8528,5440 8528,5552 7928,5552 7928,5440 z " fill-rule="evenodd" fill="rgb(255,0,0)" stroke-width="5" stroke="rgb(0,0,0)" />
	<path d="M6728,2124 6728,1958.9 7134.61,2124 6728,2124 z " fill-rule="evenodd" fill="rgb(255,0,0)" stroke-width="5" stroke="rgb(0,0,0)" />
	<path d="M8230,5438 8230,5138 8600,5138 8600,5438 8230,5438 z " fill-rule="evenodd" fill="rgb(255,0,0)" stroke-width="5" stroke="rgb(0,0,0)" />
	<path d="M7930,2726 7330,2726 7330,2426 7878.39,2426 7930,2446.96 7930,2726 z " fill-rule="evenodd" fill="rgb(255,0,0)" stroke-width="5" stroke="rgb(0,0,0)" />
	<path d="M8532,5136 8532,4836 8600,4836 8600,5136 8532,5136 z " fill-rule="evenodd" fill="rgb(255,0,0)" stroke-width="5" stroke="rgb(0,0,0)" />
	<path d="M8232,4232 8232,3932 8600,3932 8600,4232 8232,4232 z " fill-rule="evenodd" fill="rgb(255,0,0)" stroke-width="5" stroke="rgb(0,0,0)" />
	<path d="M7632,2424 7632,2325.96 7873.46,2424 7632,2424 z " fill-rule="evenodd" fill="rgb(255,0,0)" stroke-width="5" stroke="rgb(0,0,0)" />
	<path d="M8534,3930 8534,3630 8600,3630 8600,3930 8534,3930 z " fill-rule="evenodd" fill="rgb(255,0,0)" stroke-width="5" stroke="rgb(0,0,0)" />
	<path d="M8234,3026 8234,2726 8600,2726 8600,3026 8234,3026 z " fill-rule="evenodd" fill="rgb(255,0,0)" stroke-width="5" stroke="rgb(0,0,0)" />
	<path d="M8536,2724 8536,2693.01 8600,2719 8600,2724 8536,2724 z " fill-rule="evenodd" fill="rgb(255,0,0)" stroke-width="5" stroke="rgb(0,0,0)" />
	<path d="M2800,6354 3100,6354 3100,6852 2900,6852 2900,6952 2800,6952 2800,6354 z " fill-rule="evenodd" fill="rgb(255,0,0)" stroke-width="5" stroke="rgb(0,0,0)" />
	<path d="M2498,6656 2798,6656 2798,6952 2498,6952 2498,6656 z " fill-rule="evenodd" fill="rgb(255,0,0)" stroke-width="5" stroke="rgb(0,0,0)" />
	<path d="M2802,5748 2802,5148 2900,5148 2900,5748 2802,5748 z " fill-rule="evenodd" fill="rgb(255,0,0)" stroke-width="5" stroke="rgb(0,0,0)" />
	<path d="M2804,4542 2804,3942 2900,3942 2900,4542 2804,4542 z " fill-rule="evenodd" fill="rgb(255,0,0)" stroke-width="5" stroke="rgb(0,0,0)" />
	<path d="M1594,6356 1894,6356 1894,6952 1594,6952 1594,6356 z " fill-rule="evenodd" fill="rgb(255,0,0)" stroke-width="5" stroke="rgb(0,0,0)" />
	<path d="M3706,4544 3706,4952 3700,4952 3700,4544 3706,4544 z " fill-rule="evenodd" fill="rgb(255,0,0)" stroke-width="5" stroke="rgb(0,0,0)" />
	<path d="M2806,3336 2806,2736 3106,2736 3106,2952 2850,2952 2850,3152 2900,3152 2900,3336 2806,3336 z " fill-rule="evenodd" fill="rgb(255,0,0)" stroke-width="5" stroke="rgb(0,0,0)" />
	<path d="M1292,6658 1592,6658 1592,6952 1292,6952 1292,6658 z " fill-rule="evenodd" fill="rgb(255,0,0)" stroke-width="5" stroke="rgb(0,0,0)" />
	<path d="M3708,3338 3708,3938 3700,3938 3700,3338 3708,3338 z " fill-rule="evenodd" fill="rgb(255,0,0)" stroke-width="5" stroke="rgb(0,0,0)" />
	<path d="M3108,2434 3408,2434 3408,2952 3108,2952 3108,2434 z " fill-rule="evenodd" fill="rgb(255,0,0)" stroke-width="5" stroke="rgb(0,0,0)" />
	<path d="M3108,2130 2808,2130 2808,1530 2950,1530 2950,1602 3108,1602 3108,2130 z " fill-rule="evenodd" fill="rgb(255,0,0)" stroke-width="5" stroke="rgb(0,0,0)" />
	<path d="M1902,2436 2202,2436 2202,3036 2050,3036 2050,2952 1902,2952 1902,2436 z " fill-rule="evenodd" fill="rgb(255,0,0)" stroke-width="5" stroke="rgb(0,0,0)" />
	<path d="M1600,2738 1900,2738 1900,2952 1600,2952 1600,2738 z " fill-rule="evenodd" fill="rgb(255,0,0)" stroke-width="5" stroke="rgb(0,0,0)" />
	<path d="M1900,3338 1600,3338 1600,3152 1900,3152 1900,3338 z " fill-rule="evenodd" fill="rgb(255,0,0)" stroke-width="5" stroke="rgb(0,0,0)" />
	<path d="M1598,3640 1298,3640 1298,3152 1598,3152 1598,3640 z " fill-rule="evenodd" fill="rgb(255,0,0)" stroke-width="5" stroke="rgb(0,0,0)" />
	<path d="M390,4248 390,4848 100,4848 100,4248 390,4248 z " fill-rule="evenodd" fill="rgb(255,0,0)" stroke-width="5" stroke="rgb(0,0,0)" />
	<path d="M4310,4844 4610,4844 4610,4952 4310,4952 4310,4844 z " fill-rule="evenodd" fill="rgb(255,0,0)" stroke-width="5" stroke="rgb(0,0,0)" />
	<path d="M4010,3636 3710,3636 3710,3052 4010,3052 4010,3636 z " fill-rule="evenodd" fill="rgb(255,0,0)" stroke-width="5" stroke="rgb(0,0,0)" />
	<path d="M3410,1228 3410,1828 3110,1828 3110,1602 3147,1602 3298.66,1228 3410,1228 z " fill-rule="evenodd" fill="rgb(255,0,0)" stroke-width="5" stroke="rgb(0,0,0)" />
	<path d="M3110,1228 3191.16,1228 3110,1428.05 3110,1228 z " fill-rule="evenodd" fill="rgb(255,0,0)" stroke-width="5" stroke="rgb(0,0,0)" />
	<path d="M3110,924 2810,924 2810,367.692 3110,489.371 3110,924 z " fill-rule="evenodd" fill="rgb(255,0,0)" stroke-width="5" stroke="rgb(0,0,0)" />
	<path d="M2204,1230 2204,1830 1904,1830 1904,1602 2150,1602 2150,1230 2204,1230 z " fill-rule="evenodd" fill="rgb(255,0,0)" stroke-width="5" stroke="rgb(0,0,0)" />
	<path d="M1902,2132 1602,2132 1602,1602 1902,1602 1902,2132 z " fill-rule="evenodd" fill="rgb(255,0,0)" stroke-width="5" stroke="rgb(0,0,0)" />
	<path d="M696,2438 996,2438 996,2952 696,2952 696,2438 z " fill-rule="evenodd" fill="rgb(255,0,0)" stroke-width="5" stroke="rgb(0,0,0)" />
	<path d="M394,2740 694,2740 694,2952 394,2952 394,2740 z " fill-rule="evenodd" fill="rgb(255,0,0)" stroke-width="5" stroke="rgb(0,0,0)" />
	<path d="M694,3340 394,3340 394,3152 694,3152 694,3340 z " fill-rule="evenodd" fill="rgb(255,0,0)" stroke-width="5" stroke="rgb(0,0,0)" />
	<path d="M392,3642 100,3642 100,3152 392,3152 392,3642 z " fill-rule="evenodd" fill="rgb(255,0,0)" stroke-width="5" stroke="rgb(0,0,0)" />
	<path d="M388,6358 688,6358 688,6952 388,6952 388,6358 z " fill-rule="evenodd" fill="rgb(255,0,0)" stroke-width="5" stroke="rgb(0,0,0)" />
	<path d="M388,5454 388,6054 100,6054 100,5454 388,5454 z " fill-rule="evenodd" fill="rgb(255,0,0)" stroke-width="5" stroke="rgb(0,0,0)" />
	<path d="M5212,5446 5212,5552 5050,5552 5050,5446 5212,5446 z " fill-rule="evenodd" fill="rgb(255,0,0)" stroke-width="5" stroke="rgb(0,0,0)" />
	<path d="M4612,4542 4912,4542 4912,4952 4612,4952 4612,4542 z " fill-rule="evenodd" fill="rgb(255,0,0)" stroke-width="5" stroke="rgb(0,0,0)" />
	<path d="M4012,2734 4312,2734 4312,3334 4012,3334 4012,3052 4200,3052 4200,2952 4012,2952 4012,2734 z " fill-rule="evenodd" fill="rgb(255,0,0)" stroke-width="5" stroke="rgb(0,0,0)" />
	<path d="M3712,926 3712,1526 3412,1526 3412,948.518 3421.13,926 3712,926 z " fill-rule="evenodd" fill="rgb(255,0,0)" stroke-width="5" stroke="rgb(0,0,0)" />
	<path d="M3412,622 3112,622 3112,490.182 3412,611.86 3412,622 z " fill-rule="evenodd" fill="rgb(255,0,0)" stroke-width="5" stroke="rgb(0,0,0)" />
	<path d="M2508,322 2208,322 2208,123.524 2508,245.203 2508,322 z " fill-rule="evenodd" fill="rgb(255,0,0)" stroke-width="5" stroke="rgb(0,0,0)" />
	<path d="M2206,624 2150,624 2150,100 2206,122.713 2206,624 z " fill-rule="evenodd" fill="rgb(255,0,0)" stroke-width="5" stroke="rgb(0,0,0)" />
	<path d="M1300,1530 1000,1530 1000,1502 1300,1502 1300,1530 z " fill-rule="evenodd" fill="rgb(255,0,0)" stroke-width="5" stroke="rgb(0,0,0)" />
	<path d="M998,1832 698,1832 698,1602 700,1602 700,1502 998,1502 998,1832 z " fill-rule="evenodd" fill="rgb(255,0,0)" stroke-width="5" stroke="rgb(0,0,0)" />
	<path d="M696,2134 396,2134 396,1602 696,1602 696,2134 z " fill-rule="evenodd" fill="rgb(255,0,0)" stroke-width="5" stroke="rgb(0,0,0)" />
	<path d="M394,1836 394,2436 100,2436 100,1836 394,1836 z " fill-rule="evenodd" fill="rgb(255,0,0)" stroke-width="5" stroke="rgb(0,0,0)" />
	<path d="M386,6660 386,6952 100,6952 100,6660 386,6660 z " fill-rule="evenodd" fill="rgb(255,0,0)" stroke-width="5" stroke="rgb(0,0,0)" />
	<path d="M5214,5144 5514,5144 5514,5552 5214,5552 5214,5144 z " fill-rule="evenodd" fill="rgb(255,0,0)" stroke-width="5" stroke="rgb(0,0,0)" />
	<path d="M5214,4240 5214,4840 5050,4840 5050,4240 5214,4240 z " fill-rule="evenodd" fill="rgb(255,0,0)" stroke-width="5" stroke="rgb(0,0,0)" />
	<path d="M4914,4840 4914,4240 4950,4240 4950,4840 4914,4840 z " fill-rule="evenodd" fill="rgb(255,0,0)" stroke-width="5" stroke="rgb(0,0,0)" />
	<path d="M4014,1224 3714,1224 3714,735.116 4014,856.927 4014,1224 z " fill-rule="evenodd" fill="rgb(255,0,0)" stroke-width="5" stroke="rgb(0,0,0)" />
	<path d="M5216,3034 5216,3634 5050,3634 5050,3034 5216,3034 z " fill-rule="evenodd" fill="rgb(255,0,0)" stroke-width="5" stroke="rgb(0,0,0)" />
	<path d="M4916,3634 4916,3052 4950,3052 4950,3634 4916,3634 z " fill-rule="evenodd" fill="rgb(255,0,0)" stroke-width="5" stroke="rgb(0,0,0)" />
	<path d="M4016,922 4016,857.739 4174.27,922 4016,922 z " fill-rule="evenodd" fill="rgb(255,0,0)" stroke-width="5" stroke="rgb(0,0,0)" />
	<path d="M6118,5444 6418,5444 6418,5552 6118,5552 6118,5444 z " fill-rule="evenodd" fill="rgb(255,0,0)" stroke-width="5" stroke="rgb(0,0,0)" />
	<path d="M4918,1524 4618,1524 4618,1102.17 4918,1223.98 4918,1524 z " fill-rule="evenodd" fill="rgb(255,0,0)" stroke-width="5" stroke="rgb(0,0,0)" />
	<path d="M6420,5142 6720,5142 6720,5552 6420,5552 6420,5142 z " fill-rule="evenodd" fill="rgb(255,0,0)" stroke-width="5" stroke="rgb(0,0,0)" />
	<path d="M5822,1824 5522,1824 5522,1469.23 5822,1591.04 5822,1824 z " fill-rule="evenodd" fill="rgb(255,0,0)" stroke-width="5" stroke="rgb(0,0,0)" />
	<path d="M7324,5442 7624,5442 7624,5552 7324,5552 7324,5442 z " fill-rule="evenodd" fill="rgb(255,0,0)" stroke-width="5" stroke="rgb(0,0,0)" />
	<path d="M6424,2426 6124,2426 6124,1826 6400.68,1826 6424,1835.47 6424,2426 z " fill-rule="evenodd" fill="rgb(255,0,0)" stroke-width="5" stroke="rgb(0,0,0)" />
	<path d="M7626,5140 7926,5140 7926,5552 7626,5552 7626,5140 z " fill-rule="evenodd" fill="rgb(255,0,0)" stroke-width="5" stroke="rgb(0,0,0)" />
	<path d="M6726,2124 6426,2124 6426,1836.28 6726,1958.09 6726,2124 z " fill-rule="evenodd" fill="rgb(255,0,0)" stroke-width="5" stroke="rgb(0,0,0)" />
	<path d="M7328,2726 7028,2726 7028,2126 7139.53,2126 7328,2202.52 7328,2726 z " fill-rule="evenodd" fill="rgb(255,0,0)" stroke-width="5" stroke="rgb(0,0,0)" />
	<path d="M8530,5440 8600,5440 8600,5552 8530,5552 8530,5440 z " fill-rule="evenodd" fill="rgb(255,0,0)" stroke-width="5" stroke="rgb(0,0,0)" />
	<path d="M7630,2424 7330,2424 7330,2203.34 7630,2325.15 7630,2424 z " fill-rule="evenodd" fill="rgb(255,0,0)" stroke-width="5" stroke="rgb(0,0,0)" />
	<path d="M8532,4834 8532,4234 8600,4234 8600,4834 8532,4834 z " fill-rule="evenodd" fill="rgb(255,0,0)" stroke-width="5" stroke="rgb(0,0,0)" />
	<path d="M8232,3026 7932,3026 7932,2447.77 8232,2569.58 8232,3026 z " fill-rule="evenodd" fill="rgb(255,0,0)" stroke-width="5" stroke="rgb(0,0,0)" />
	<path d="M8534,3628 8534,3028 8600,3028 8600,3628 8534,3628 z " fill-rule="evenodd" fill="rgb(255,0,0)" stroke-width="5" stroke="rgb(0,0,0)" />
	<path d="M8534,2724 8234,2724 8234,2570.39 8534,2692.2 8534,2724 z " fill-rule="evenodd" fill="rgb(255,0,0)" stroke-width="5" stroke="rgb(0,0,0)" />
	<polyline points="3095,6057 2495,6057 3095,6057 3095,6657 3095,6057 " fill="none" stroke-width="100" stroke="rgb(0,0,0)" />
	<circle cx="3095" cy="6057" r="-10" fill="rgb(0,0,0)" />
	<circle cx="2495" cy="6057" r="-10" fill="rgb(0,0,0)" />
	<circle cx="3095" cy="6057" r="-10" fill="rgb(0,0,0)" />
	<circle cx="3095" cy="6657" r="-10" fill="rgb(0,0,0)" />
	<circle cx="3095" cy="6057" r="-10" fill="rgb(0,0,0)" />
	<polyline points="3095,6717 3095,6057 2435,6057 " fill="none" stroke-width="0.5" stroke="rgb(128,0,128)" />
</svg>
