<?xml version="1.0" standalone="no" ?>
<!DOCTYPE svg PUBLIC "-//W3C//DTD SVG 1.1//EN" "http://www.w3.org/Graphics/SVG/1.1/DTD/svg11.dtd">
<svg width="8700px" height="7052px" xmlns="http://www.w3.org/2000/svg" version="1.1" >
	<path d="M4131,1262 3531,1262 3531,1562 4131,1562 4131,1262 z " fill-rule="evenodd" fill="rgb(0,128,0)" stroke-width="5" stroke="rgb(0,0,0)" />
	<path d="M3829,1564 3229,1564 3229,1864 3829,1864 3829,1564 z " fill-rule="evenodd" fill="rgb(0,128,0)" stroke-width="5" stroke="rgb(0,0,0)" />
	<path d="M3527,1866 2927,1866 2927,2166 3527,2166 3527,1866 z " fill-rule="evenodd" fill="rgb(0,128,0)" stroke-width="5" stroke="rgb(0,0,0)" />
	<path d="M4733,1864 4133,1864 4133,2164 4733,2164 4733,1864 z " fill-rule="evenodd" fill="rgb(0,128,0)" stroke-width="5" stroke="rgb(0,0,0)" />
	<path d="M4431,2166 3831,2166 3831,2466 4431,2466 4431,2166 z " fill-rule="evenodd" fill="rgb(0,128,0)" stroke-width="5" stroke="rgb(0,0,0)" />
	<path d="M4129,2468 3529,2468 3529,2768 4129,2768 4129,2468 z " fill-rule="evenodd" fill="rgb(0,128,0)" stroke-width="5" stroke="rgb(0,0,0)" />
	<path d="M3225,2168 2625,2168 2625,2468 3225,2468 3225,2168 z " fill-rule="evenodd" fill="rgb(0,128,0)" stroke-width="5" stroke="rgb(0,0,0)" />
	<path d="M2925,1264 2325,1264 2325,1564 2925,1564 2925,1264 z " fill-rule="evenodd" fill="rgb(0,128,0)" stroke-width="5" stroke="rgb(0,0,0)" />
	<path d="M5335,2466 4735,2466 4735,2766 5335,2766 5335,2466 z " fill-rule="evenodd" fill="rgb(0,128,0)" stroke-width="5" stroke="rgb(0,0,0)" />
	<path d="M4731,3070 4131,3070 4131,3370 4731,3370 4731,3070 z " fill-rule="evenodd" fill="rgb(0,128,0)" stroke-width="5" stroke="rgb(0,0,0)" />
	<path d="M5035,1562 4435,1562 4435,1862 5035,1862 5035,1562 z " fill-rule="evenodd" fill="rgb(0,128,0)" stroke-width="5" stroke="rgb(0,0,0)" />
	<path d="M4429,3372 3829,3372 3829,3672 4429,3672 4429,3372 z " fill-rule="evenodd" fill="rgb(0,128,0)" stroke-width="5" stroke="rgb(0,0,0)" />
	<path d="M2923,2470 2323,2470 2323,2770 2923,2770 2923,2470 z " fill-rule="evenodd" fill="rgb(0,128,0)" stroke-width="5" stroke="rgb(0,0,0)" />
	<path d="M5937,3068 5337,3068 5337,3368 5937,3368 5937,3068 z " fill-rule="evenodd" fill="rgb(0,128,0)" stroke-width="5" stroke="rgb(0,0,0)" />
	<path d="M5637,2164 5037,2164 5037,2464 5637,2464 5637,2164 z " fill-rule="evenodd" fill="rgb(0,128,0)" stroke-width="5" stroke="rgb(0,0,0)" />
	<path d="M4729,4276 4129,4276 4129,4576 4729,4576 4729,4276 z " fill-rule="evenodd" fill="rgb(0,128,0)" stroke-width="5" stroke="rgb(0,0,0)" />
	<path d="M4427,4578 3827,4578 3827,4878 4427,4878 4427,4578 z " fill-rule="evenodd" fill="rgb(0,128,0)" stroke-width="5" stroke="rgb(0,0,0)" />
	<path d="M2321,1868 1721,1868 1721,2168 2321,2168 2321,1868 z " fill-rule="evenodd" fill="rgb(0,128,0)" stroke-width="5" stroke="rgb(0,0,0)" />
	<path d="M6539,3670 5939,3670 5939,3970 6539,3970 6539,3670 z " fill-rule="evenodd" fill="rgb(0,128,0)" stroke-width="5" stroke="rgb(0,0,0)" />
	<path d="M6237,3972 5637,3972 5637,4272 6237,4272 6237,3972 z " fill-rule="evenodd" fill="rgb(0,128,0)" stroke-width="5" stroke="rgb(0,0,0)" />
	<path d="M5935,4274 5335,4274 5335,4574 5935,4574 5935,4274 z " fill-rule="evenodd" fill="rgb(0,128,0)" stroke-width="5" stroke="rgb(0,0,0)" />
	<path d="M6239,2766 5639,2766 5639,3066 6239,3066 6239,2766 z " fill-rule="evenodd" fill="rgb(0,128,0)" stroke-width="5" stroke="rgb(0,0,0)" />
	<path d="M5939,1862 5339,1862 5339,2162 5939,2162 5939,1862 z " fill-rule="evenodd" fill="rgb(0,128,0)" stroke-width="5" stroke="rgb(0,0,0)" />
	<path d="M2619,3978 2019,3978 2019,4278 2619,4278 2619,3978 z " fill-rule="evenodd" fill="rgb(0,128,0)" stroke-width="5" stroke="rgb(0,0,0)" />
	<path d="M2019,2170 1419,2170 1419,2470 2019,2470 2019,2170 z " fill-rule="evenodd" fill="rgb(0,128,0)" stroke-width="5" stroke="rgb(0,0,0)" />
	<path d="M7141,4272 6541,4272 6541,4572 7141,4572 7141,4272 z " fill-rule="evenodd" fill="rgb(0,128,0)" stroke-width="5" stroke="rgb(0,0,0)" />
	<path d="M6839,4574 6239,4574 6239,4874 6839,4874 6839,4574 z " fill-rule="evenodd" fill="rgb(0,128,0)" stroke-width="5" stroke="rgb(0,0,0)" />
	<path d="M6537,4876 5937,4876 5937,5176 6537,5176 6537,4876 z " fill-rule="evenodd" fill="rgb(0,128,0)" stroke-width="5" stroke="rgb(0,0,0)" />
	<path d="M6841,3368 6241,3368 6241,3668 6841,3668 6841,3368 z " fill-rule="evenodd" fill="rgb(0,128,0)" stroke-width="5" stroke="rgb(0,0,0)" />
	<path d="M6541,2464 5941,2464 5941,2764 6541,2764 6541,2464 z " fill-rule="evenodd" fill="rgb(0,128,0)" stroke-width="5" stroke="rgb(0,0,0)" />
	<path d="M6235,5178 5635,5178 5635,5478 6235,5478 6235,5178 z " fill-rule="evenodd" fill="rgb(0,128,0)" stroke-width="5" stroke="rgb(0,0,0)" />
	<path d="M2917,6088 2317,6088 2317,6388 2917,6388 2917,6088 z " fill-rule="evenodd" fill="rgb(0,128,0)" stroke-width="5" stroke="rgb(0,0,0)" />
	<path d="M2617,5184 2017,5184 2017,5484 2617,5484 2617,5184 z " fill-rule="evenodd" fill="rgb(0,128,0)" stroke-width="5" stroke="rgb(0,0,0)" />
	<path d="M2317,4280 1717,4280 1717,4580 2317,4580 2317,4280 z " fill-rule="evenodd" fill="rgb(0,128,0)" stroke-width="5" stroke="rgb(0,0,0)" />
	<path d="M2017,3376 1417,3376 1417,3676 2017,3676 2017,3376 z " fill-rule="evenodd" fill="rgb(0,128,0)" stroke-width="5" stroke="rgb(0,0,0)" />
	<path d="M1717,2472 1117,2472 1117,2772 1717,2772 1717,2472 z " fill-rule="evenodd" fill="rgb(0,128,0)" stroke-width="5" stroke="rgb(0,0,0)" />
	<path d="M7743,4874 7143,4874 7143,5174 7743,5174 7743,4874 z " fill-rule="evenodd" fill="rgb(0,128,0)" stroke-width="5" stroke="rgb(0,0,0)" />
	<path d="M7441,5176 6841,5176 6841,5476 7441,5476 7441,5176 z " fill-rule="evenodd" fill="rgb(0,128,0)" stroke-width="5" stroke="rgb(0,0,0)" />
	<path d="M7443,3970 6843,3970 6843,4270 7443,4270 7443,3970 z " fill-rule="evenodd" fill="rgb(0,128,0)" stroke-width="5" stroke="rgb(0,0,0)" />
	<path d="M7143,3066 6543,3066 6543,3366 7143,3366 7143,3066 z " fill-rule="evenodd" fill="rgb(0,128,0)" stroke-width="5" stroke="rgb(0,0,0)" />
	<path d="M6843,2162 6243,2162 6243,2462 6843,2462 6843,2162 z " fill-rule="evenodd" fill="rgb(0,128,0)" stroke-width="5" stroke="rgb(0,0,0)" />
	<path d="M2615,6390 2015,6390 2015,6690 2615,6690 2615,6390 z " fill-rule="evenodd" fill="rgb(0,128,0)" stroke-width="5" stroke="rgb(0,0,0)" />
	<path d="M2315,5486 1715,5486 1715,5786 2315,5786 2315,5486 z " fill-rule="evenodd" fill="rgb(0,128,0)" stroke-width="5" stroke="rgb(0,0,0)" />
	<path d="M2015,4582 1415,4582 1415,4882 2015,4882 2015,4582 z " fill-rule="evenodd" fill="rgb(0,128,0)" stroke-width="5" stroke="rgb(0,0,0)" />
	<path d="M1715,3678 1115,3678 1115,3978 1715,3978 1715,3678 z " fill-rule="evenodd" fill="rgb(0,128,0)" stroke-width="5" stroke="rgb(0,0,0)" />
	<path d="M1115,1870 515,1870 515,2170 1115,2170 1115,1870 z " fill-rule="evenodd" fill="rgb(0,128,0)" stroke-width="5" stroke="rgb(0,0,0)" />
	<path d="M8045,4572 7445,4572 7445,4872 8045,4872 8045,4572 z " fill-rule="evenodd" fill="rgb(0,128,0)" stroke-width="5" stroke="rgb(0,0,0)" />
	<path d="M7745,3668 7145,3668 7145,3968 7745,3968 7745,3668 z " fill-rule="evenodd" fill="rgb(0,128,0)" stroke-width="5" stroke="rgb(0,0,0)" />
	<path d="M7445,2764 6845,2764 6845,3064 7445,3064 7445,2764 z " fill-rule="evenodd" fill="rgb(0,128,0)" stroke-width="5" stroke="rgb(0,0,0)" />
	<path d="M2013,5788 1413,5788 1413,6088 2013,6088 2013,5788 z " fill-rule="evenodd" fill="rgb(0,128,0)" stroke-width="5" stroke="rgb(0,0,0)" />
	<path d="M1713,4884 1113,4884 1113,5184 1713,5184 1713,4884 z " fill-rule="evenodd" fill="rgb(0,128,0)" stroke-width="5" stroke="rgb(0,0,0)" />
	<path d="M1413,3980 813,3980 813,4280 1413,4280 1413,3980 z " fill-rule="evenodd" fill="rgb(0,128,0)" stroke-width="5" stroke="rgb(0,0,0)" />
	<path d="M813,2172 213,2172 213,2472 813,2472 813,2172 z " fill-rule="evenodd" fill="rgb(0,128,0)" stroke-width="5" stroke="rgb(0,0,0)" />
	<path d="M8347,4270 7747,4270 7747,4570 8347,4570 8347,4270 z " fill-rule="evenodd" fill="rgb(0,128,0)" stroke-width="5" stroke="rgb(0,0,0)" />
	<path d="M8047,3366 7447,3366 7447,3666 8047,3666 8047,3366 z " fill-rule="evenodd" fill="rgb(0,128,0)" stroke-width="5" stroke="rgb(0,0,0)" />
	<path d="M7747,2462 7147,2462 7147,2762 7747,2762 7747,2462 z " fill-rule="evenodd" fill="rgb(0,128,0)" stroke-width="5" stroke="rgb(0,0,0)" />
	<path d="M1711,6090 1111,6090 1111,6390 1711,6390 1711,6090 z " fill-rule="evenodd" fill="rgb(0,128,0)" stroke-width="5" stroke="rgb(0,0,0)" />
	<path d="M1411,5186 811,5186 811,5486 1411,5486 1411,5186 z " fill-rule="evenodd" fill="rgb(0,128,0)" stroke-width="5" stroke="rgb(0,0,0)" />
	<path d="M1111,4282 511,4282 511,4582 1111,4582 1111,4282 z " fill-rule="evenodd" fill="rgb(0,128,0)" stroke-width="5" stroke="rgb(0,0,0)" />
	<path d="M811,3378 211,3378 211,3678 811,3678 811,3378 z " fill-rule="evenodd" fill="rgb(0,128,0)" stroke-width="5" stroke="rgb(0,0,0)" />
	<path d="M8349,3064 7749,3064 7749,3364 8349,3364 8349,3064 z " fill-rule="evenodd" fill="rgb(0,128,0)" stroke-width="5" stroke="rgb(0,0,0)" />
	<path d="M1409,6392 809,6392 809,6692 1409,6692 1409,6392 z " fill-rule="evenodd" fill="rgb(0,128,0)" stroke-width="5" stroke="rgb(0,0,0)" />
	<path d="M1109,5488 509,5488 509,5788 1109,5788 1109,5488 z " fill-rule="evenodd" fill="rgb(0,128,0)" stroke-width="5" stroke="rgb(0,0,0)" />
	<path d="M809,4584 209,4584 209,4884 809,4884 809,4584 z " fill-rule="evenodd" fill="rgb(0,128,0)" stroke-width="5" stroke="rgb(0,0,0)" />
	<path d="M807,5790 207,5790 207,6090 807,6090 807,5790 z " fill-rule="evenodd" fill="rgb(0,128,0)" stroke-width="5" stroke="rgb(0,0,0)" />
	<path d="M4131,1564 3831,1564 3831,2164 4131,2164 4131,1564 z " fill-rule="evenodd" fill="rgb(0,128,0)" stroke-width="5" stroke="rgb(0,0,0)" />
	<path d="M3829,1866 3529,1866 3529,2466 3829,2466 3829,1866 z " fill-rule="evenodd" fill="rgb(0,128,0)" stroke-width="5" stroke="rgb(0,0,0)" />
	<path d="M3527,2168 3227,2168 3227,2768 3527,2768 3527,2168 z " fill-rule="evenodd" fill="rgb(0,128,0)" stroke-width="5" stroke="rgb(0,0,0)" />
	<path d="M4733,2166 4433,2166 4433,2766 4733,2766 4733,2166 z " fill-rule="evenodd" fill="rgb(0,128,0)" stroke-width="5" stroke="rgb(0,0,0)" />
	<path d="M4433,1262 4133,1262 4133,1862 4433,1862 4433,1262 z " fill-rule="evenodd" fill="rgb(0,128,0)" stroke-width="5" stroke="rgb(0,0,0)" />
	<path d="M2925,1566 2625,1566 2625,2166 2925,2166 2925,1566 z " fill-rule="evenodd" fill="rgb(0,128,0)" stroke-width="5" stroke="rgb(0,0,0)" />
	<path d="M2625,662 2325,662 2325,1262 2625,1262 2625,662 z " fill-rule="evenodd" fill="rgb(0,128,0)" stroke-width="5" stroke="rgb(0,0,0)" />
	<path d="M4731,3372 4431,3372 4431,3972 4731,3972 4731,3372 z " fill-rule="evenodd" fill="rgb(0,128,0)" stroke-width="5" stroke="rgb(0,0,0)" />
	<path d="M5035,1864 4735,1864 4735,2464 5035,2464 5035,1864 z " fill-rule="evenodd" fill="rgb(0,128,0)" stroke-width="5" stroke="rgb(0,0,0)" />
	<path d="M4429,3674 4129,3674 4129,4274 4429,4274 4429,3674 z " fill-rule="evenodd" fill="rgb(0,128,0)" stroke-width="5" stroke="rgb(0,0,0)" />
	<path d="M4127,3976 3827,3976 3827,4576 4127,4576 4127,3976 z " fill-rule="evenodd" fill="rgb(0,128,0)" stroke-width="5" stroke="rgb(0,0,0)" />
	<path d="M2623,1868 2323,1868 2323,2468 2623,2468 2623,1868 z " fill-rule="evenodd" fill="rgb(0,128,0)" stroke-width="5" stroke="rgb(0,0,0)" />
	<path d="M5937,3370 5637,3370 5637,3970 5937,3970 5937,3370 z " fill-rule="evenodd" fill="rgb(0,128,0)" stroke-width="5" stroke="rgb(0,0,0)" />
	<path d="M5635,3672 5335,3672 5335,4272 5635,4272 5635,3672 z " fill-rule="evenodd" fill="rgb(0,128,0)" stroke-width="5" stroke="rgb(0,0,0)" />
	<path d="M5637,2466 5337,2466 5337,3066 5637,3066 5637,2466 z " fill-rule="evenodd" fill="rgb(0,128,0)" stroke-width="5" stroke="rgb(0,0,0)" />
	<path d="M5337,1562 5037,1562 5037,2162 5337,2162 5337,1562 z " fill-rule="evenodd" fill="rgb(0,128,0)" stroke-width="5" stroke="rgb(0,0,0)" />
	<path d="M2621,3074 2321,3074 2321,3674 2621,3674 2621,3074 z " fill-rule="evenodd" fill="rgb(0,128,0)" stroke-width="5" stroke="rgb(0,0,0)" />
	<path d="M2321,2170 2021,2170 2021,2770 2321,2770 2321,2170 z " fill-rule="evenodd" fill="rgb(0,128,0)" stroke-width="5" stroke="rgb(0,0,0)" />
	<path d="M6539,3972 6239,3972 6239,4572 6539,4572 6539,3972 z " fill-rule="evenodd" fill="rgb(0,128,0)" stroke-width="5" stroke="rgb(0,0,0)" />
	<path d="M6237,4274 5937,4274 5937,4874 6237,4874 6237,4274 z " fill-rule="evenodd" fill="rgb(0,128,0)" stroke-width="5" stroke="rgb(0,0,0)" />
	<path d="M5935,4576 5635,4576 5635,5176 5935,5176 5935,4576 z " fill-rule="evenodd" fill="rgb(0,128,0)" stroke-width="5" stroke="rgb(0,0,0)" />
	<path d="M6239,3068 5939,3068 5939,3668 6239,3668 6239,3068 z " fill-rule="evenodd" fill="rgb(0,128,0)" stroke-width="5" stroke="rgb(0,0,0)" />
	<path d="M5939,2164 5639,2164 5639,2764 5939,2764 5939,2164 z " fill-rule="evenodd" fill="rgb(0,128,0)" stroke-width="5" stroke="rgb(0,0,0)" />
	<path d="M5633,4878 5333,4878 5333,5478 5633,5478 5633,4878 z " fill-rule="evenodd" fill="rgb(0,128,0)" stroke-width="5" stroke="rgb(0,0,0)" />
	<path d="M2619,4280 2319,4280 2319,4880 2619,4880 2619,4280 z " fill-rule="evenodd" fill="rgb(0,128,0)" stroke-width="5" stroke="rgb(0,0,0)" />
	<path d="M2319,3376 2019,3376 2019,3976 2319,3976 2319,3376 z " fill-rule="evenodd" fill="rgb(0,128,0)" stroke-width="5" stroke="rgb(0,0,0)" />
	<path d="M7141,4574 6841,4574 6841,5174 7141,5174 7141,4574 z " fill-rule="evenodd" fill="rgb(0,128,0)" stroke-width="5" stroke="rgb(0,0,0)" />
	<path d="M6839,4876 6539,4876 6539,5476 6839,5476 6839,4876 z " fill-rule="evenodd" fill="rgb(0,128,0)" stroke-width="5" stroke="rgb(0,0,0)" />
	<path d="M6841,3670 6541,3670 6541,4270 6841,4270 6841,3670 z " fill-rule="evenodd" fill="rgb(0,128,0)" stroke-width="5" stroke="rgb(0,0,0)" />
	<path d="M6541,2766 6241,2766 6241,3366 6541,3366 6541,2766 z " fill-rule="evenodd" fill="rgb(0,128,0)" stroke-width="5" stroke="rgb(0,0,0)" />
	<path d="M6241,1862 5941,1862 5941,2462 6241,2462 6241,1862 z " fill-rule="evenodd" fill="rgb(0,128,0)" stroke-width="5" stroke="rgb(0,0,0)" />
	<path d="M2617,5486 2317,5486 2317,6086 2617,6086 2617,5486 z " fill-rule="evenodd" fill="rgb(0,128,0)" stroke-width="5" stroke="rgb(0,0,0)" />
	<path d="M2317,4582 2017,4582 2017,5182 2317,5182 2317,4582 z " fill-rule="evenodd" fill="rgb(0,128,0)" stroke-width="5" stroke="rgb(0,0,0)" />
	<path d="M2017,3678 1717,3678 1717,4278 2017,4278 2017,3678 z " fill-rule="evenodd" fill="rgb(0,128,0)" stroke-width="5" stroke="rgb(0,0,0)" />
	<path d="M1417,1870 1117,1870 1117,2470 1417,2470 1417,1870 z " fill-rule="evenodd" fill="rgb(0,128,0)" stroke-width="5" stroke="rgb(0,0,0)" />
	<path d="M7443,4272 7143,4272 7143,4872 7443,4872 7443,4272 z " fill-rule="evenodd" fill="rgb(0,128,0)" stroke-width="5" stroke="rgb(0,0,0)" />
	<path d="M7143,3368 6843,3368 6843,3968 7143,3968 7143,3368 z " fill-rule="evenodd" fill="rgb(0,128,0)" stroke-width="5" stroke="rgb(0,0,0)" />
	<path d="M6843,2464 6543,2464 6543,3064 6843,3064 6843,2464 z " fill-rule="evenodd" fill="rgb(0,128,0)" stroke-width="5" stroke="rgb(0,0,0)" />
	<path d="M2315,5788 2015,5788 2015,6388 2315,6388 2315,5788 z " fill-rule="evenodd" fill="rgb(0,128,0)" stroke-width="5" stroke="rgb(0,0,0)" />
	<path d="M2015,4884 1715,4884 1715,5484 2015,5484 2015,4884 z " fill-rule="evenodd" fill="rgb(0,128,0)" stroke-width="5" stroke="rgb(0,0,0)" />
	<path d="M1715,3980 1415,3980 1415,4580 1715,4580 1715,3980 z " fill-rule="evenodd" fill="rgb(0,128,0)" stroke-width="5" stroke="rgb(0,0,0)" />
	<path d="M1115,2172 815,2172 815,2772 1115,2772 1115,2172 z " fill-rule="evenodd" fill="rgb(0,128,0)" stroke-width="5" stroke="rgb(0,0,0)" />
	<path d="M8045,4874 7745,4874 7745,5474 8045,5474 8045,4874 z " fill-rule="evenodd" fill="rgb(0,128,0)" stroke-width="5" stroke="rgb(0,0,0)" />
	<path d="M7745,3970 7445,3970 7445,4570 7745,4570 7745,3970 z " fill-rule="evenodd" fill="rgb(0,128,0)" stroke-width="5" stroke="rgb(0,0,0)" />
	<path d="M7445,3066 7145,3066 7145,3666 7445,3666 7445,3066 z " fill-rule="evenodd" fill="rgb(0,128,0)" stroke-width="5" stroke="rgb(0,0,0)" />
	<path d="M7145,2162 6845,2162 6845,2762 7145,2762 7145,2162 z " fill-rule="evenodd" fill="rgb(0,128,0)" stroke-width="5" stroke="rgb(0,0,0)" />
	<path d="M2013,6090 1713,6090 1713,6690 2013,6690 2013,6090 z " fill-rule="evenodd" fill="rgb(0,128,0)" stroke-width="5" stroke="rgb(0,0,0)" />
	<path d="M1713,5186 1413,5186 1413,5786 1713,5786 1713,5186 z " fill-rule="evenodd" fill="rgb(0,128,0)" stroke-width="5" stroke="rgb(0,0,0)" />
	<path d="M1413,4282 1113,4282 1113,4882 1413,4882 1413,4282 z " fill-rule="evenodd" fill="rgb(0,128,0)" stroke-width="5" stroke="rgb(0,0,0)" />
	<path d="M1113,3378 813,3378 813,3978 1113,3978 1113,3378 z " fill-rule="evenodd" fill="rgb(0,128,0)" stroke-width="5" stroke="rgb(0,0,0)" />
	<path d="M8347,4572 8047,4572 8047,5172 8347,5172 8347,4572 z " fill-rule="evenodd" fill="rgb(0,128,0)" stroke-width="5" stroke="rgb(0,0,0)" />
	<path d="M8047,3668 7747,3668 7747,4268 8047,4268 8047,3668 z " fill-rule="evenodd" fill="rgb(0,128,0)" stroke-width="5" stroke="rgb(0,0,0)" />
	<path d="M7747,2764 7447,2764 7447,3364 7747,3364 7747,2764 z " fill-rule="evenodd" fill="rgb(0,128,0)" stroke-width="5" stroke="rgb(0,0,0)" />
	<path d="M1411,5488 1111,5488 1111,6088 1411,6088 1411,5488 z " fill-rule="evenodd" fill="rgb(0,128,0)" stroke-width="5" stroke="rgb(0,0,0)" />
	<path d="M1111,4584 811,4584 811,5184 1111,5184 1111,4584 z " fill-rule="evenodd" fill="rgb(0,128,0)" stroke-width="5" stroke="rgb(0,0,0)" />
	<path d="M811,3680 511,3680 511,4280 811,4280 811,3680 z " fill-rule="evenodd" fill="rgb(0,128,0)" stroke-width="5" stroke="rgb(0,0,0)" />
	<path d="M8349,3366 8049,3366 8049,3966 8349,3966 8349,3366 z " fill-rule="evenodd" fill="rgb(0,128,0)" stroke-width="5" stroke="rgb(0,0,0)" />
	<path d="M1109,5790 809,5790 809,6390 1109,6390 1109,5790 z " fill-rule="evenodd" fill="rgb(0,128,0)" stroke-width="5" stroke="rgb(0,0,0)" />
	<path d="M809,4886 509,4886 509,5486 809,5486 809,4886 z " fill-rule="evenodd" fill="rgb(0,128,0)" stroke-width="5" stroke="rgb(0,0,0)" />
	<path d="M509,3982 209,3982 209,4582 509,4582 509,3982 z " fill-rule="evenodd" fill="rgb(0,128,0)" stroke-width="5" stroke="rgb(0,0,0)" />
	<path d="M807,6092 507,6092 507,6692 807,6692 807,6092 z " fill-rule="evenodd" fill="rgb(0,128,0)" stroke-width="5" stroke="rgb(0,0,0)" />
	<path d="M507,5188 207,5188 207,5788 507,5788 507,5188 z " fill-rule="evenodd" fill="rgb(0,128,0)" stroke-width="5" stroke="rgb(0,0,0)" />
	<path d="M3231,658 3231,538.448 3437,622 3422.4,658 3231,658 z " fill-rule="evenodd" fill="rgb(255,0,0)" stroke-width="5" stroke="rgb(0,0,0)" />
	<path d="M2929,960 2929,660 3421.58,660 3299.88,960 2929,960 z " fill-rule="evenodd" fill="rgb(255,0,0)" stroke-width="5" stroke="rgb(0,0,0)" />
	<path d="M3529,960 3407.34,960 3529,660 3529,960 z " fill-rule="evenodd" fill="rgb(255,0,0)" stroke-width="5" stroke="rgb(0,0,0)" />
	<path d="M2627,1262 2627,962 3227,962 3227,1139.65 3177.36,1262 2627,1262 z " fill-rule="evenodd" fill="rgb(255,0,0)" stroke-width="5" stroke="rgb(0,0,0)" />
	<path d="M2327,358 2327,171.79 2786.1,358 2327,358 z " fill-rule="evenodd" fill="rgb(255,0,0)" stroke-width="5" stroke="rgb(0,0,0)" />
	<path d="M4433,1260 3833,1260 3833,960 4267.85,960 4433,1027.06 4433,1260 z " fill-rule="evenodd" fill="rgb(255,0,0)" stroke-width="5" stroke="rgb(0,0,0)" />
	<path d="M3227,2770 3827,2770 3827,2952 3227,2952 3227,2770 z " fill-rule="evenodd" fill="rgb(255,0,0)" stroke-width="5" stroke="rgb(0,0,0)" />
	<path d="M3827,3070 3700,3070 3700,3052 3827,3052 3827,3070 z " fill-rule="evenodd" fill="rgb(255,0,0)" stroke-width="5" stroke="rgb(0,0,0)" />
	<path d="M2625,360 2625,660 2150,660 2150,360 2625,360 z " fill-rule="evenodd" fill="rgb(255,0,0)" stroke-width="5" stroke="rgb(0,0,0)" />
	<path d="M4433,3068 4433,2768 5033,2768 5033,2952 4900,2952 4900,3052 4950,3052 4950,3068 4433,3068 z " fill-rule="evenodd" fill="rgb(255,0,0)" stroke-width="5" stroke="rgb(0,0,0)" />
	<path d="M4135,958 4135,906.057 4262.93,958 4135,958 z " fill-rule="evenodd" fill="rgb(255,0,0)" stroke-width="5" stroke="rgb(0,0,0)" />
	<path d="M4127,3674 4127,3974 3700,3974 3700,3674 4127,3674 z " fill-rule="evenodd" fill="rgb(255,0,0)" stroke-width="5" stroke="rgb(0,0,0)" />
	<path d="M3825,3976 3825,4276 3700,4276 3700,3976 3825,3976 z " fill-rule="evenodd" fill="rgb(255,0,0)" stroke-width="5" stroke="rgb(0,0,0)" />
	<path d="M2623,3674 2623,3374 2900,3374 2900,3674 2623,3674 z " fill-rule="evenodd" fill="rgb(255,0,0)" stroke-width="5" stroke="rgb(0,0,0)" />
	<path d="M2623,1566 2623,1866 2023,1866 2023,1602 2150,1602 2150,1566 2623,1566 z " fill-rule="evenodd" fill="rgb(255,0,0)" stroke-width="5" stroke="rgb(0,0,0)" />
	<path d="M2323,662 2323,962 2150,962 2150,662 2323,662 z " fill-rule="evenodd" fill="rgb(255,0,0)" stroke-width="5" stroke="rgb(0,0,0)" />
	<path d="M5635,3370 5635,3670 5050,3670 5050,3370 5635,3370 z " fill-rule="evenodd" fill="rgb(255,0,0)" stroke-width="5" stroke="rgb(0,0,0)" />
	<path d="M5333,3672 5333,3972 5050,3972 5050,3672 5333,3672 z " fill-rule="evenodd" fill="rgb(255,0,0)" stroke-width="5" stroke="rgb(0,0,0)" />
	<path d="M4733,3972 4733,3672 4950,3672 4950,3972 4733,3972 z " fill-rule="evenodd" fill="rgb(255,0,0)" stroke-width="5" stroke="rgb(0,0,0)" />
	<path d="M5337,1560 4737,1560 4737,1260 5006.71,1260 5337,1394.11 5337,1560 z " fill-rule="evenodd" fill="rgb(255,0,0)" stroke-width="5" stroke="rgb(0,0,0)" />
	<path d="M4431,4274 4431,3974 4950,3974 4950,4274 4431,4274 z " fill-rule="evenodd" fill="rgb(255,0,0)" stroke-width="5" stroke="rgb(0,0,0)" />
	<path d="M4125,4880 4125,4952 3700,4952 3700,4880 4125,4880 z " fill-rule="evenodd" fill="rgb(255,0,0)" stroke-width="5" stroke="rgb(0,0,0)" />
	<path d="M2621,4880 2621,4580 2900,4580 2900,4880 2621,4880 z " fill-rule="evenodd" fill="rgb(255,0,0)" stroke-width="5" stroke="rgb(0,0,0)" />
	<path d="M2321,3976 2321,3676 2900,3676 2900,3976 2321,3976 z " fill-rule="evenodd" fill="rgb(255,0,0)" stroke-width="5" stroke="rgb(0,0,0)" />
	<path d="M2021,2772 2621,2772 2621,3072 2050,3072 2050,2952 2021,2952 2021,2772 z " fill-rule="evenodd" fill="rgb(255,0,0)" stroke-width="5" stroke="rgb(0,0,0)" />
	<path d="M5633,4576 5633,4876 5050,4876 5050,4576 5633,4576 z " fill-rule="evenodd" fill="rgb(255,0,0)" stroke-width="5" stroke="rgb(0,0,0)" />
	<path d="M5331,4878 5331,5178 5050,5178 5050,4878 5331,4878 z " fill-rule="evenodd" fill="rgb(255,0,0)" stroke-width="5" stroke="rgb(0,0,0)" />
	<path d="M4731,4878 4950,4878 4950,4952 4731,4952 4731,4878 z " fill-rule="evenodd" fill="rgb(255,0,0)" stroke-width="5" stroke="rgb(0,0,0)" />
	<path d="M2619,6086 2619,5786 2900,5786 2900,6052 3100,6052 3100,6086 2619,6086 z " fill-rule="evenodd" fill="rgb(255,0,0)" stroke-width="5" stroke="rgb(0,0,0)" />
	<path d="M2319,5182 2319,4882 2900,4882 2900,5182 2319,5182 z " fill-rule="evenodd" fill="rgb(255,0,0)" stroke-width="5" stroke="rgb(0,0,0)" />
	<path d="M2319,3074 2319,3374 1719,3374 1719,3152 2050,3152 2050,3074 2319,3074 z " fill-rule="evenodd" fill="rgb(255,0,0)" stroke-width="5" stroke="rgb(0,0,0)" />
	<path d="M1119,1566 1119,1502 1400,1502 1400,1566 1119,1566 z " fill-rule="evenodd" fill="rgb(255,0,0)" stroke-width="5" stroke="rgb(0,0,0)" />
	<path d="M5333,5480 5933,5480 5933,5552 5333,5552 5333,5480 z " fill-rule="evenodd" fill="rgb(255,0,0)" stroke-width="5" stroke="rgb(0,0,0)" />
	<path d="M6241,1860 5641,1860 5641,1560 5745.56,1560 6241,1761.17 6241,1860 z " fill-rule="evenodd" fill="rgb(255,0,0)" stroke-width="5" stroke="rgb(0,0,0)" />
	<path d="M2919,6690 3100,6690 3100,6852 2919,6852 2919,6690 z " fill-rule="evenodd" fill="rgb(255,0,0)" stroke-width="5" stroke="rgb(0,0,0)" />
	<path d="M1417,1868 817,1868 817,1568 1400,1568 1400,1602 1417,1602 1417,1868 z " fill-rule="evenodd" fill="rgb(255,0,0)" stroke-width="5" stroke="rgb(0,0,0)" />
	<path d="M6539,5478 7139,5478 7139,5552 6539,5552 6539,5478 z " fill-rule="evenodd" fill="rgb(255,0,0)" stroke-width="5" stroke="rgb(0,0,0)" />
	<path d="M815,2774 1415,2774 1415,2952 815,2952 815,2774 z " fill-rule="evenodd" fill="rgb(255,0,0)" stroke-width="5" stroke="rgb(0,0,0)" />
	<path d="M7745,5476 8345,5476 8345,5552 7745,5552 7745,5476 z " fill-rule="evenodd" fill="rgb(255,0,0)" stroke-width="5" stroke="rgb(0,0,0)" />
	<path d="M7145,2160 6545,2160 6545,1884.6 7145,2128.22 7145,2160 z " fill-rule="evenodd" fill="rgb(255,0,0)" stroke-width="5" stroke="rgb(0,0,0)" />
	<path d="M1713,6692 2313,6692 2313,6952 1713,6952 1713,6692 z " fill-rule="evenodd" fill="rgb(255,0,0)" stroke-width="5" stroke="rgb(0,0,0)" />
	<path d="M1113,3376 513,3376 513,3152 1113,3152 1113,3376 z " fill-rule="evenodd" fill="rgb(255,0,0)" stroke-width="5" stroke="rgb(0,0,0)" />
	<path d="M8047,5474 8047,5174 8600,5174 8600,5474 8047,5474 z " fill-rule="evenodd" fill="rgb(255,0,0)" stroke-width="5" stroke="rgb(0,0,0)" />
	<path d="M511,2474 511,2774 100,2774 100,2474 511,2474 z " fill-rule="evenodd" fill="rgb(255,0,0)" stroke-width="5" stroke="rgb(0,0,0)" />
	<path d="M211,1870 100,1870 100,1602 211,1602 211,1870 z " fill-rule="evenodd" fill="rgb(255,0,0)" stroke-width="5" stroke="rgb(0,0,0)" />
	<path d="M8349,5172 8349,4872 8600,4872 8600,5172 8349,5172 z " fill-rule="evenodd" fill="rgb(255,0,0)" stroke-width="5" stroke="rgb(0,0,0)" />
	<path d="M8049,4268 8049,3968 8600,3968 8600,4268 8049,4268 z " fill-rule="evenodd" fill="rgb(255,0,0)" stroke-width="5" stroke="rgb(0,0,0)" />
	<path d="M7449,2460 7449,2251.65 7962.12,2460 7449,2460 z " fill-rule="evenodd" fill="rgb(255,0,0)" stroke-width="5" stroke="rgb(0,0,0)" />
	<path d="M509,3680 509,3980 100,3980 100,3680 509,3680 z " fill-rule="evenodd" fill="rgb(255,0,0)" stroke-width="5" stroke="rgb(0,0,0)" />
	<path d="M209,2776 209,2952 100,2952 100,2776 209,2776 z " fill-rule="evenodd" fill="rgb(255,0,0)" stroke-width="5" stroke="rgb(0,0,0)" />
	<path d="M8351,3966 8351,3666 8600,3666 8600,3966 8351,3966 z " fill-rule="evenodd" fill="rgb(255,0,0)" stroke-width="5" stroke="rgb(0,0,0)" />
	<path d="M8051,3062 8051,2762 8600,2762 8600,3062 8051,3062 z " fill-rule="evenodd" fill="rgb(255,0,0)" stroke-width="5" stroke="rgb(0,0,0)" />
	<path d="M507,6694 1107,6694 1107,6952 507,6952 507,6694 z " fill-rule="evenodd" fill="rgb(255,0,0)" stroke-width="5" stroke="rgb(0,0,0)" />
	<path d="M507,4886 507,5186 100,5186 100,4886 507,4886 z " fill-rule="evenodd" fill="rgb(255,0,0)" stroke-width="5" stroke="rgb(0,0,0)" />
	<path d="M207,3982 207,4282 100,4282 100,3982 207,3982 z " fill-rule="evenodd" fill="rgb(255,0,0)" stroke-width="5" stroke="rgb(0,0,0)" />
	<path d="M8353,2760 8353,2618.71 8600,2719 8600,2760 8353,2760 z " fill-rule="evenodd" fill="rgb(255,0,0)" stroke-width="5" stroke="rgb(0,0,0)" />
	<path d="M505,6092 505,6392 100,6392 100,6092 505,6092 z " fill-rule="evenodd" fill="rgb(255,0,0)" stroke-width="5" stroke="rgb(0,0,0)" />
	<path d="M205,5188 205,5488 100,5488 100,5188 205,5188 z " fill-rule="evenodd" fill="rgb(255,0,0)" stroke-width="5" stroke="rgb(0,0,0)" />
	<path d="M203,6394 203,6694 100,6694 100,6394 203,6394 z " fill-rule="evenodd" fill="rgb(255,0,0)" stroke-width="5" stroke="rgb(0,0,0)" />
	<path d="M3831,1260 3531,1260 3531,660.812 3831,782.622 3831,1260 z " fill-rule="evenodd" fill="rgb(255,0,0)" stroke-width="5" stroke="rgb(0,0,0)" />
	<path d="M3529,962 3529,1562 3229,1562 3229,1399.79 3406.53,962 3529,962 z " fill-rule="evenodd" fill="rgb(255,0,0)" stroke-width="5" stroke="rgb(0,0,0)" />
	<path d="M3229,962 3299.07,962 3229,1134.72 3229,962 z " fill-rule="evenodd" fill="rgb(255,0,0)" stroke-width="5" stroke="rgb(0,0,0)" />
	<path d="M3227,1864 2927,1864 2927,1264 3176.55,1264 3080,1502 2950,1502 2950,1602 3147,1602 3227,1404.72 3227,1864 z " fill-rule="evenodd" fill="rgb(255,0,0)" stroke-width="5" stroke="rgb(0,0,0)" />
	<path d="M3229,658 2929,658 2929,415.958 3229,537.636 3229,658 z " fill-rule="evenodd" fill="rgb(255,0,0)" stroke-width="5" stroke="rgb(0,0,0)" />
	<path d="M2927,960 2627,960 2627,360 2791.03,360 2927,415.147 2927,960 z " fill-rule="evenodd" fill="rgb(255,0,0)" stroke-width="5" stroke="rgb(0,0,0)" />
	<path d="M4131,2468 4431,2468 4431,3068 4131,3068 4131,3052 4200,3052 4200,2952 4131,2952 4131,2468 z " fill-rule="evenodd" fill="rgb(255,0,0)" stroke-width="5" stroke="rgb(0,0,0)" />
	<path d="M3829,2770 4129,2770 4129,2952 3829,2952 3829,2770 z " fill-rule="evenodd" fill="rgb(255,0,0)" stroke-width="5" stroke="rgb(0,0,0)" />
	<path d="M4129,3370 3829,3370 3829,3052 4129,3052 4129,3370 z " fill-rule="evenodd" fill="rgb(255,0,0)" stroke-width="5" stroke="rgb(0,0,0)" />
	<path d="M4133,958 3833,958 3833,783.434 4133,905.245 4133,958 z " fill-rule="evenodd" fill="rgb(255,0,0)" stroke-width="5" stroke="rgb(0,0,0)" />
	<path d="M3827,3072 3827,3672 3700,3672 3700,3072 3827,3072 z " fill-rule="evenodd" fill="rgb(255,0,0)" stroke-width="5" stroke="rgb(0,0,0)" />
	<path d="M2925,2470 3225,2470 3225,2952 2925,2952 2925,2470 z " fill-rule="evenodd" fill="rgb(255,0,0)" stroke-width="5" stroke="rgb(0,0,0)" />
	<path d="M2325,358 2150,358 2150,100 2325,170.979 2325,358 z " fill-rule="evenodd" fill="rgb(255,0,0)" stroke-width="5" stroke="rgb(0,0,0)" />
	<path d="M5035,2768 5335,2768 5335,3368 5050,3368 5050,2952 5035,2952 5035,2768 z " fill-rule="evenodd" fill="rgb(255,0,0)" stroke-width="5" stroke="rgb(0,0,0)" />
	<path d="M4733,3670 4733,3070 4950,3070 4950,3670 4733,3670 z " fill-rule="evenodd" fill="rgb(255,0,0)" stroke-width="5" stroke="rgb(0,0,0)" />
	<path d="M4735,1560 4435,1560 4435,1027.87 4735,1149.68 4735,1560 z " fill-rule="evenodd" fill="rgb(255,0,0)" stroke-width="5" stroke="rgb(0,0,0)" />
	<path d="M3825,4278 3825,4878 3700,4878 3700,4278 3825,4278 z " fill-rule="evenodd" fill="rgb(255,0,0)" stroke-width="5" stroke="rgb(0,0,0)" />
	<path d="M2623,3372 2623,2772 2923,2772 2923,2952 2850,2952 2850,3152 2900,3152 2900,3372 2623,3372 z " fill-rule="evenodd" fill="rgb(255,0,0)" stroke-width="5" stroke="rgb(0,0,0)" />
	<path d="M2323,964 2323,1564 2150,1564 2150,964 2323,964 z " fill-rule="evenodd" fill="rgb(255,0,0)" stroke-width="5" stroke="rgb(0,0,0)" />
	<path d="M5333,3974 5333,4574 5050,4574 5050,3974 5333,3974 z " fill-rule="evenodd" fill="rgb(255,0,0)" stroke-width="5" stroke="rgb(0,0,0)" />
	<path d="M4731,4876 4731,4276 4950,4276 4950,4876 4731,4876 z " fill-rule="evenodd" fill="rgb(255,0,0)" stroke-width="5" stroke="rgb(0,0,0)" />
	<path d="M4429,4578 4729,4578 4729,4952 4429,4952 4429,4578 z " fill-rule="evenodd" fill="rgb(255,0,0)" stroke-width="5" stroke="rgb(0,0,0)" />
	<path d="M4737,1258 4737,1150.49 5001.78,1258 4737,1258 z " fill-rule="evenodd" fill="rgb(255,0,0)" stroke-width="5" stroke="rgb(0,0,0)" />
	<path d="M4127,4880 4427,4880 4427,4952 4127,4952 4127,4880 z " fill-rule="evenodd" fill="rgb(255,0,0)" stroke-width="5" stroke="rgb(0,0,0)" />
	<path d="M2621,4578 2621,3978 2900,3978 2900,4578 2621,4578 z " fill-rule="evenodd" fill="rgb(255,0,0)" stroke-width="5" stroke="rgb(0,0,0)" />
	<path d="M2021,1866 1721,1866 1721,1602 2021,1602 2021,1866 z " fill-rule="evenodd" fill="rgb(255,0,0)" stroke-width="5" stroke="rgb(0,0,0)" />
	<path d="M5331,5180 5331,5552 5050,5552 5050,5180 5331,5180 z " fill-rule="evenodd" fill="rgb(255,0,0)" stroke-width="5" stroke="rgb(0,0,0)" />
	<path d="M5639,1860 5339,1860 5339,1394.92 5639,1516.73 5639,1860 z " fill-rule="evenodd" fill="rgb(255,0,0)" stroke-width="5" stroke="rgb(0,0,0)" />
	<path d="M2619,5784 2619,5184 2900,5184 2900,5784 2619,5784 z " fill-rule="evenodd" fill="rgb(255,0,0)" stroke-width="5" stroke="rgb(0,0,0)" />
	<path d="M1719,2472 2019,2472 2019,2952 1719,2952 1719,2472 z " fill-rule="evenodd" fill="rgb(255,0,0)" stroke-width="5" stroke="rgb(0,0,0)" />
	<path d="M1719,2168 1419,2168 1419,1602 1719,1602 1719,2168 z " fill-rule="evenodd" fill="rgb(255,0,0)" stroke-width="5" stroke="rgb(0,0,0)" />
	<path d="M6237,5178 6537,5178 6537,5552 6237,5552 6237,5178 z " fill-rule="evenodd" fill="rgb(255,0,0)" stroke-width="5" stroke="rgb(0,0,0)" />
	<path d="M5935,5480 6235,5480 6235,5552 5935,5552 5935,5480 z " fill-rule="evenodd" fill="rgb(255,0,0)" stroke-width="5" stroke="rgb(0,0,0)" />
	<path d="M5641,1558 5641,1517.54 5740.64,1558 5641,1558 z " fill-rule="evenodd" fill="rgb(255,0,0)" stroke-width="5" stroke="rgb(0,0,0)" />
	<path d="M2919,6688 2919,6088 3100,6088 3100,6688 2919,6688 z " fill-rule="evenodd" fill="rgb(255,0,0)" stroke-width="5" stroke="rgb(0,0,0)" />
	<path d="M2617,6390 2917,6390 2917,6852 2900,6852 2900,6952 2617,6952 2617,6390 z " fill-rule="evenodd" fill="rgb(255,0,0)" stroke-width="5" stroke="rgb(0,0,0)" />
	<path d="M1417,2774 1717,2774 1717,2952 1417,2952 1417,2774 z " fill-rule="evenodd" fill="rgb(255,0,0)" stroke-width="5" stroke="rgb(0,0,0)" />
	<path d="M1717,3374 1417,3374 1417,3152 1717,3152 1717,3374 z " fill-rule="evenodd" fill="rgb(255,0,0)" stroke-width="5" stroke="rgb(0,0,0)" />
	<path d="M1117,1566 817,1566 817,1502 1117,1502 1117,1566 z " fill-rule="evenodd" fill="rgb(255,0,0)" stroke-width="5" stroke="rgb(0,0,0)" />
	<path d="M7443,5176 7743,5176 7743,5552 7443,5552 7443,5176 z " fill-rule="evenodd" fill="rgb(255,0,0)" stroke-width="5" stroke="rgb(0,0,0)" />
	<path d="M7141,5478 7441,5478 7441,5552 7141,5552 7141,5478 z " fill-rule="evenodd" fill="rgb(255,0,0)" stroke-width="5" stroke="rgb(0,0,0)" />
	<path d="M6543,2160 6243,2160 6243,1761.98 6543,1883.79 6543,2160 z " fill-rule="evenodd" fill="rgb(255,0,0)" stroke-width="5" stroke="rgb(0,0,0)" />
	<path d="M2315,6692 2615,6692 2615,6952 2315,6952 2315,6692 z " fill-rule="evenodd" fill="rgb(255,0,0)" stroke-width="5" stroke="rgb(0,0,0)" />
	<path d="M1415,3676 1115,3676 1115,3152 1415,3152 1415,3676 z " fill-rule="evenodd" fill="rgb(255,0,0)" stroke-width="5" stroke="rgb(0,0,0)" />
	<path d="M815,1868 515,1868 515,1602 700,1602 700,1502 815,1502 815,1868 z " fill-rule="evenodd" fill="rgb(255,0,0)" stroke-width="5" stroke="rgb(0,0,0)" />
	<path d="M513,2474 813,2474 813,2952 513,2952 513,2474 z " fill-rule="evenodd" fill="rgb(255,0,0)" stroke-width="5" stroke="rgb(0,0,0)" />
	<path d="M513,2170 213,2170 213,1602 513,1602 513,2170 z " fill-rule="evenodd" fill="rgb(255,0,0)" stroke-width="5" stroke="rgb(0,0,0)" />
	<path d="M8347,5476 8600,5476 8600,5552 8347,5552 8347,5476 z " fill-rule="evenodd" fill="rgb(255,0,0)" stroke-width="5" stroke="rgb(0,0,0)" />
	<path d="M7447,2460 7147,2460 7147,2129.03 7447,2250.84 7447,2460 z " fill-rule="evenodd" fill="rgb(255,0,0)" stroke-width="5" stroke="rgb(0,0,0)" />
	<path d="M1411,6392 1711,6392 1711,6952 1411,6952 1411,6392 z " fill-rule="evenodd" fill="rgb(255,0,0)" stroke-width="5" stroke="rgb(0,0,0)" />
	<path d="M211,2776 511,2776 511,2952 211,2952 211,2776 z " fill-rule="evenodd" fill="rgb(255,0,0)" stroke-width="5" stroke="rgb(0,0,0)" />
	<path d="M511,3376 211,3376 211,3152 511,3152 511,3376 z " fill-rule="evenodd" fill="rgb(255,0,0)" stroke-width="5" stroke="rgb(0,0,0)" />
	<path d="M211,1872 211,2472 100,2472 100,1872 211,1872 z " fill-rule="evenodd" fill="rgb(255,0,0)" stroke-width="5" stroke="rgb(0,0,0)" />
	<path d="M8349,4870 8349,4270 8600,4270 8600,4870 8349,4870 z " fill-rule="evenodd" fill="rgb(255,0,0)" stroke-width="5" stroke="rgb(0,0,0)" />
	<path d="M8049,3062 7749,3062 7749,2462 7967.05,2462 8049,2495.28 8049,3062 z " fill-rule="evenodd" fill="rgb(255,0,0)" stroke-width="5" stroke="rgb(0,0,0)" />
	<path d="M1109,6694 1409,6694 1409,6952 1109,6952 1109,6694 z " fill-rule="evenodd" fill="rgb(255,0,0)" stroke-width="5" stroke="rgb(0,0,0)" />
	<path d="M209,3678 100,3678 100,3152 209,3152 209,3678 z " fill-rule="evenodd" fill="rgb(255,0,0)" stroke-width="5" stroke="rgb(0,0,0)" />
	<path d="M8351,3664 8351,3064 8600,3064 8600,3664 8351,3664 z " fill-rule="evenodd" fill="rgb(255,0,0)" stroke-width="5" stroke="rgb(0,0,0)" />
	<path d="M8351,2760 8051,2760 8051,2496.09 8351,2617.9 8351,2760 z " fill-rule="evenodd" fill="rgb(255,0,0)" stroke-width="5" stroke="rgb(0,0,0)" />
	<path d="M207,4284 207,4884 100,4884 100,4284 207,4284 z " fill-rule="evenodd" fill="rgb(255,0,0)" stroke-width="5" stroke="rgb(0,0,0)" />
	<path d="M205,6394 505,6394 505,6952 205,6952 205,6394 z " fill-rule="evenodd" fill="rgb(255,0,0)" stroke-width="5" stroke="rgb(0,0,0)" />
	<path d="M205,5490 205,6090 100,6090 100,5490 205,5490 z " fill-rule="evenodd" fill="rgb(255,0,0)" stroke-width="5" stroke="rgb(0,0,0)" />
	<path d="M203,6696 203,6952 100,6952 100,6696 203,6696 z " fill-rule="evenodd" fill="rgb(255,0,0)" stroke-width="5" stroke="rgb(0,0,0)" />
	<polyline points="3524,665 2924,665 3524,665 3524,1265 3524,665 " fill="none" stroke-width="100" stroke="rgb(0,0,0)" />
	<circle cx="3524" cy="665" r="-10" fill="rgb(0,0,0)" />
	<circle cx="2924" cy="665" r="-10" fill="rgb(0,0,0)" />
	<circle cx="3524" cy="665" r="-10" fill="rgb(0,0,0)" />
	<circle cx="3524" cy="1265" r="-10" fill="rgb(0,0,0)" />
	<circle cx="3524" cy="665" r="-10" fill="rgb(0,0,0)" />
	<polyline points="3524,1325 3524,665 2864,665 " fill="none" stroke-width="0.5" stroke="rgb(128,0,128)" />
</svg>
