<?xml version="1.0" standalone="no" ?>
<!DOCTYPE svg PUBLIC "-//W3C//DTD SVG 1.1//EN" "http://www.w3.org/Graphics/SVG/1.1/DTD/svg11.dtd">
<svg width="8700px" height="7052px" xmlns="http://www.w3.org/2000/svg" version="1.1" >
	<path d="M4948,4258 4348,4258 4348,4558 4948,4558 4948,4258 z " fill-rule="evenodd" fill="rgb(0,128,0)" stroke-width="5" stroke="rgb(0,0,0)" />
	<path d="M4950,3052 4350,3052 4350,3352 4950,3352 4950,3052 z " fill-rule="evenodd" fill="rgb(0,128,0)" stroke-width="5" stroke="rgb(0,0,0)" />
	<path d="M4648,3354 4048,3354 4048,3654 4648,3654 4648,3354 z " fill-rule="evenodd" fill="rgb(0,128,0)" stroke-width="5" stroke="rgb(0,0,0)" />
	<path d="M4952,1846 4352,1846 4352,2146 4952,2146 4952,1846 z " fill-rule="evenodd" fill="rgb(0,128,0)" stroke-width="5" stroke="rgb(0,0,0)" />
	<path d="M4650,2148 4050,2148 4050,2448 4650,2448 4650,2148 z " fill-rule="evenodd" fill="rgb(0,128,0)" stroke-width="5" stroke="rgb(0,0,0)" />
	<path d="M4348,2450 3748,2450 3748,2750 4348,2750 4348,2450 z " fill-rule="evenodd" fill="rgb(0,128,0)" stroke-width="5" stroke="rgb(0,0,0)" />
	<path d="M6154,4256 5554,4256 5554,4556 6154,4556 6154,4256 z " fill-rule="evenodd" fill="rgb(0,128,0)" stroke-width="5" stroke="rgb(0,0,0)" />
	<path d="M5852,4558 5252,4558 5252,4858 5852,4858 5852,4558 z " fill-rule="evenodd" fill="rgb(0,128,0)" stroke-width="5" stroke="rgb(0,0,0)" />
	<path d="M5854,3352 5254,3352 5254,3652 5854,3652 5854,3352 z " fill-rule="evenodd" fill="rgb(0,128,0)" stroke-width="5" stroke="rgb(0,0,0)" />
	<path d="M5554,2448 4954,2448 4954,2748 5554,2748 5554,2448 z " fill-rule="evenodd" fill="rgb(0,128,0)" stroke-width="5" stroke="rgb(0,0,0)" />
	<path d="M4646,4560 4046,4560 4046,4860 4646,4860 4646,4560 z " fill-rule="evenodd" fill="rgb(0,128,0)" stroke-width="5" stroke="rgb(0,0,0)" />
	<path d="M4346,3656 3746,3656 3746,3956 4346,3956 4346,3656 z " fill-rule="evenodd" fill="rgb(0,128,0)" stroke-width="5" stroke="rgb(0,0,0)" />
	<path d="M5254,1544 4654,1544 4654,1844 5254,1844 5254,1544 z " fill-rule="evenodd" fill="rgb(0,128,0)" stroke-width="5" stroke="rgb(0,0,0)" />
	<path d="M4350,1244 3750,1244 3750,1544 4350,1544 4350,1244 z " fill-rule="evenodd" fill="rgb(0,128,0)" stroke-width="5" stroke="rgb(0,0,0)" />
	<path d="M4048,1546 3448,1546 3448,1846 4048,1846 4048,1546 z " fill-rule="evenodd" fill="rgb(0,128,0)" stroke-width="5" stroke="rgb(0,0,0)" />
	<path d="M3746,1848 3146,1848 3146,2148 3746,2148 3746,1848 z " fill-rule="evenodd" fill="rgb(0,128,0)" stroke-width="5" stroke="rgb(0,0,0)" />
	<path d="M6756,4858 6156,4858 6156,5158 6756,5158 6756,4858 z " fill-rule="evenodd" fill="rgb(0,128,0)" stroke-width="5" stroke="rgb(0,0,0)" />
	<path d="M6454,5160 5854,5160 5854,5460 6454,5460 6454,5160 z " fill-rule="evenodd" fill="rgb(0,128,0)" stroke-width="5" stroke="rgb(0,0,0)" />
	<path d="M6456,3954 5856,3954 5856,4254 6456,4254 6456,3954 z " fill-rule="evenodd" fill="rgb(0,128,0)" stroke-width="5" stroke="rgb(0,0,0)" />
	<path d="M6156,3050 5556,3050 5556,3350 6156,3350 6156,3050 z " fill-rule="evenodd" fill="rgb(0,128,0)" stroke-width="5" stroke="rgb(0,0,0)" />
	<path d="M5856,2146 5256,2146 5256,2446 5856,2446 5856,2146 z " fill-rule="evenodd" fill="rgb(0,128,0)" stroke-width="5" stroke="rgb(0,0,0)" />
	<path d="M3444,2150 2844,2150 2844,2450 3444,2450 3444,2150 z " fill-rule="evenodd" fill="rgb(0,128,0)" stroke-width="5" stroke="rgb(0,0,0)" />
	<path d="M7058,4556 6458,4556 6458,4856 7058,4856 7058,4556 z " fill-rule="evenodd" fill="rgb(0,128,0)" stroke-width="5" stroke="rgb(0,0,0)" />
	<path d="M6758,3652 6158,3652 6158,3952 6758,3952 6758,3652 z " fill-rule="evenodd" fill="rgb(0,128,0)" stroke-width="5" stroke="rgb(0,0,0)" />
	<path d="M6458,2748 5858,2748 5858,3048 6458,3048 6458,2748 z " fill-rule="evenodd" fill="rgb(0,128,0)" stroke-width="5" stroke="rgb(0,0,0)" />
	<path d="M6158,1844 5558,1844 5558,2144 6158,2144 6158,1844 z " fill-rule="evenodd" fill="rgb(0,128,0)" stroke-width="5" stroke="rgb(0,0,0)" />
	<path d="M3142,2452 2542,2452 2542,2752 3142,2752 3142,2452 z " fill-rule="evenodd" fill="rgb(0,128,0)" stroke-width="5" stroke="rgb(0,0,0)" />
	<path d="M2842,1548 2242,1548 2242,1848 2842,1848 2842,1548 z " fill-rule="evenodd" fill="rgb(0,128,0)" stroke-width="5" stroke="rgb(0,0,0)" />
	<path d="M7660,5158 7060,5158 7060,5458 7660,5458 7660,5158 z " fill-rule="evenodd" fill="rgb(0,128,0)" stroke-width="5" stroke="rgb(0,0,0)" />
	<path d="M7360,4254 6760,4254 6760,4554 7360,4554 7360,4254 z " fill-rule="evenodd" fill="rgb(0,128,0)" stroke-width="5" stroke="rgb(0,0,0)" />
	<path d="M7060,3350 6460,3350 6460,3650 7060,3650 7060,3350 z " fill-rule="evenodd" fill="rgb(0,128,0)" stroke-width="5" stroke="rgb(0,0,0)" />
	<path d="M6760,2446 6160,2446 6160,2746 6760,2746 6760,2446 z " fill-rule="evenodd" fill="rgb(0,128,0)" stroke-width="5" stroke="rgb(0,0,0)" />
	<path d="M2840,2754 2240,2754 2240,3054 2840,3054 2840,2754 z " fill-rule="evenodd" fill="rgb(0,128,0)" stroke-width="5" stroke="rgb(0,0,0)" />
	<path d="M2540,1850 1940,1850 1940,2150 2540,2150 2540,1850 z " fill-rule="evenodd" fill="rgb(0,128,0)" stroke-width="5" stroke="rgb(0,0,0)" />
	<path d="M7962,4856 7362,4856 7362,5156 7962,5156 7962,4856 z " fill-rule="evenodd" fill="rgb(0,128,0)" stroke-width="5" stroke="rgb(0,0,0)" />
	<path d="M7662,3952 7062,3952 7062,4252 7662,4252 7662,3952 z " fill-rule="evenodd" fill="rgb(0,128,0)" stroke-width="5" stroke="rgb(0,0,0)" />
	<path d="M7362,3048 6762,3048 6762,3348 7362,3348 7362,3048 z " fill-rule="evenodd" fill="rgb(0,128,0)" stroke-width="5" stroke="rgb(0,0,0)" />
	<path d="M7062,2144 6462,2144 6462,2444 7062,2444 7062,2144 z " fill-rule="evenodd" fill="rgb(0,128,0)" stroke-width="5" stroke="rgb(0,0,0)" />
	<path d="M2838,3960 2238,3960 2238,4260 2838,4260 2838,3960 z " fill-rule="evenodd" fill="rgb(0,128,0)" stroke-width="5" stroke="rgb(0,0,0)" />
	<path d="M2238,2152 1638,2152 1638,2452 2238,2452 2238,2152 z " fill-rule="evenodd" fill="rgb(0,128,0)" stroke-width="5" stroke="rgb(0,0,0)" />
	<path d="M8264,4554 7664,4554 7664,4854 8264,4854 8264,4554 z " fill-rule="evenodd" fill="rgb(0,128,0)" stroke-width="5" stroke="rgb(0,0,0)" />
	<path d="M7964,3650 7364,3650 7364,3950 7964,3950 7964,3650 z " fill-rule="evenodd" fill="rgb(0,128,0)" stroke-width="5" stroke="rgb(0,0,0)" />
	<path d="M7664,2746 7064,2746 7064,3046 7664,3046 7664,2746 z " fill-rule="evenodd" fill="rgb(0,128,0)" stroke-width="5" stroke="rgb(0,0,0)" />
	<path d="M2836,5166 2236,5166 2236,5466 2836,5466 2836,5166 z " fill-rule="evenodd" fill="rgb(0,128,0)" stroke-width="5" stroke="rgb(0,0,0)" />
	<path d="M2536,4262 1936,4262 1936,4562 2536,4562 2536,4262 z " fill-rule="evenodd" fill="rgb(0,128,0)" stroke-width="5" stroke="rgb(0,0,0)" />
	<path d="M2236,3358 1636,3358 1636,3658 2236,3658 2236,3358 z " fill-rule="evenodd" fill="rgb(0,128,0)" stroke-width="5" stroke="rgb(0,0,0)" />
	<path d="M1936,2454 1336,2454 1336,2754 1936,2754 1936,2454 z " fill-rule="evenodd" fill="rgb(0,128,0)" stroke-width="5" stroke="rgb(0,0,0)" />
	<path d="M8566,4252 7966,4252 7966,4552 8566,4552 8566,4252 z " fill-rule="evenodd" fill="rgb(0,128,0)" stroke-width="5" stroke="rgb(0,0,0)" />
	<path d="M8266,3348 7666,3348 7666,3648 8266,3648 8266,3348 z " fill-rule="evenodd" fill="rgb(0,128,0)" stroke-width="5" stroke="rgb(0,0,0)" />
	<path d="M2834,6372 2234,6372 2234,6672 2834,6672 2834,6372 z " fill-rule="evenodd" fill="rgb(0,128,0)" stroke-width="5" stroke="rgb(0,0,0)" />
	<path d="M2534,5468 1934,5468 1934,5768 2534,5768 2534,5468 z " fill-rule="evenodd" fill="rgb(0,128,0)" stroke-width="5" stroke="rgb(0,0,0)" />
	<path d="M2234,4564 1634,4564 1634,4864 2234,4864 2234,4564 z " fill-rule="evenodd" fill="rgb(0,128,0)" stroke-width="5" stroke="rgb(0,0,0)" />
	<path d="M1934,3660 1334,3660 1334,3960 1934,3960 1934,3660 z " fill-rule="evenodd" fill="rgb(0,128,0)" stroke-width="5" stroke="rgb(0,0,0)" />
	<path d="M1334,1852 734,1852 734,2152 1334,2152 1334,1852 z " fill-rule="evenodd" fill="rgb(0,128,0)" stroke-width="5" stroke="rgb(0,0,0)" />
	<path d="M8568,3046 7968,3046 7968,3346 8568,3346 8568,3046 z " fill-rule="evenodd" fill="rgb(0,128,0)" stroke-width="5" stroke="rgb(0,0,0)" />
	<path d="M2232,5770 1632,5770 1632,6070 2232,6070 2232,5770 z " fill-rule="evenodd" fill="rgb(0,128,0)" stroke-width="5" stroke="rgb(0,0,0)" />
	<path d="M1932,4866 1332,4866 1332,5166 1932,5166 1932,4866 z " fill-rule="evenodd" fill="rgb(0,128,0)" stroke-width="5" stroke="rgb(0,0,0)" />
	<path d="M1632,3962 1032,3962 1032,4262 1632,4262 1632,3962 z " fill-rule="evenodd" fill="rgb(0,128,0)" stroke-width="5" stroke="rgb(0,0,0)" />
	<path d="M1032,2154 432,2154 432,2454 1032,2454 1032,2154 z " fill-rule="evenodd" fill="rgb(0,128,0)" stroke-width="5" stroke="rgb(0,0,0)" />
	<path d="M1930,6072 1330,6072 1330,6372 1930,6372 1930,6072 z " fill-rule="evenodd" fill="rgb(0,128,0)" stroke-width="5" stroke="rgb(0,0,0)" />
	<path d="M1630,5168 1030,5168 1030,5468 1630,5468 1630,5168 z " fill-rule="evenodd" fill="rgb(0,128,0)" stroke-width="5" stroke="rgb(0,0,0)" />
	<path d="M1330,4264 730,4264 730,4564 1330,4564 1330,4264 z " fill-rule="evenodd" fill="rgb(0,128,0)" stroke-width="5" stroke="rgb(0,0,0)" />
	<path d="M1030,3360 430,3360 430,3660 1030,3660 1030,3360 z " fill-rule="evenodd" fill="rgb(0,128,0)" stroke-width="5" stroke="rgb(0,0,0)" />
	<path d="M730,2456 130,2456 130,2756 730,2756 730,2456 z " fill-rule="evenodd" fill="rgb(0,128,0)" stroke-width="5" stroke="rgb(0,0,0)" />
	<path d="M1628,6374 1028,6374 1028,6674 1628,6674 1628,6374 z " fill-rule="evenodd" fill="rgb(0,128,0)" stroke-width="5" stroke="rgb(0,0,0)" />
	<path d="M1328,5470 728,5470 728,5770 1328,5770 1328,5470 z " fill-rule="evenodd" fill="rgb(0,128,0)" stroke-width="5" stroke="rgb(0,0,0)" />
	<path d="M1028,4566 428,4566 428,4866 1028,4866 1028,4566 z " fill-rule="evenodd" fill="rgb(0,128,0)" stroke-width="5" stroke="rgb(0,0,0)" />
	<path d="M728,3662 128,3662 128,3962 728,3962 728,3662 z " fill-rule="evenodd" fill="rgb(0,128,0)" stroke-width="5" stroke="rgb(0,0,0)" />
	<path d="M1026,5772 426,5772 426,6072 1026,6072 1026,5772 z " fill-rule="evenodd" fill="rgb(0,128,0)" stroke-width="5" stroke="rgb(0,0,0)" />
	<path d="M726,4868 126,4868 126,5168 726,5168 726,4868 z " fill-rule="evenodd" fill="rgb(0,128,0)" stroke-width="5" stroke="rgb(0,0,0)" />
	<path d="M724,6074 124,6074 124,6374 724,6374 724,6074 z " fill-rule="evenodd" fill="rgb(0,128,0)" stroke-width="5" stroke="rgb(0,0,0)" />
	<path d="M5552,3956 5252,3956 5252,4556 5552,4556 5552,3956 z " fill-rule="evenodd" fill="rgb(0,128,0)" stroke-width="5" stroke="rgb(0,0,0)" />
	<path d="M4950,3354 4650,3354 4650,3954 4950,3954 4950,3354 z " fill-rule="evenodd" fill="rgb(0,128,0)" stroke-width="5" stroke="rgb(0,0,0)" />
	<path d="M4648,3656 4348,3656 4348,4256 4648,4256 4648,3656 z " fill-rule="evenodd" fill="rgb(0,128,0)" stroke-width="5" stroke="rgb(0,0,0)" />
	<path d="M4952,2148 4652,2148 4652,2748 4952,2748 4952,2148 z " fill-rule="evenodd" fill="rgb(0,128,0)" stroke-width="5" stroke="rgb(0,0,0)" />
	<path d="M4650,2450 4350,2450 4350,3050 4650,3050 4650,2450 z " fill-rule="evenodd" fill="rgb(0,128,0)" stroke-width="5" stroke="rgb(0,0,0)" />
	<path d="M6154,4558 5854,4558 5854,5158 6154,5158 6154,4558 z " fill-rule="evenodd" fill="rgb(0,128,0)" stroke-width="5" stroke="rgb(0,0,0)" />
	<path d="M5852,4860 5552,4860 5552,5460 5852,5460 5852,4860 z " fill-rule="evenodd" fill="rgb(0,128,0)" stroke-width="5" stroke="rgb(0,0,0)" />
	<path d="M5854,3654 5554,3654 5554,4254 5854,4254 5854,3654 z " fill-rule="evenodd" fill="rgb(0,128,0)" stroke-width="5" stroke="rgb(0,0,0)" />
	<path d="M5554,2750 5254,2750 5254,3350 5554,3350 5554,2750 z " fill-rule="evenodd" fill="rgb(0,128,0)" stroke-width="5" stroke="rgb(0,0,0)" />
	<path d="M4346,3958 4046,3958 4046,4558 4346,4558 4346,3958 z " fill-rule="evenodd" fill="rgb(0,128,0)" stroke-width="5" stroke="rgb(0,0,0)" />
	<path d="M5254,1846 4954,1846 4954,2446 5254,2446 5254,1846 z " fill-rule="evenodd" fill="rgb(0,128,0)" stroke-width="5" stroke="rgb(0,0,0)" />
	<path d="M4046,3054 3746,3054 3746,3654 4046,3654 4046,3054 z " fill-rule="evenodd" fill="rgb(0,128,0)" stroke-width="5" stroke="rgb(0,0,0)" />
	<path d="M4652,1244 4352,1244 4352,1844 4652,1844 4652,1244 z " fill-rule="evenodd" fill="rgb(0,128,0)" stroke-width="5" stroke="rgb(0,0,0)" />
	<path d="M4350,1546 4050,1546 4050,2146 4350,2146 4350,1546 z " fill-rule="evenodd" fill="rgb(0,128,0)" stroke-width="5" stroke="rgb(0,0,0)" />
	<path d="M4048,1848 3748,1848 3748,2448 4048,2448 4048,1848 z " fill-rule="evenodd" fill="rgb(0,128,0)" stroke-width="5" stroke="rgb(0,0,0)" />
	<path d="M3746,2150 3446,2150 3446,2750 3746,2750 3746,2150 z " fill-rule="evenodd" fill="rgb(0,128,0)" stroke-width="5" stroke="rgb(0,0,0)" />
	<path d="M6456,4256 6156,4256 6156,4856 6456,4856 6456,4256 z " fill-rule="evenodd" fill="rgb(0,128,0)" stroke-width="5" stroke="rgb(0,0,0)" />
	<path d="M6156,3352 5856,3352 5856,3952 6156,3952 6156,3352 z " fill-rule="evenodd" fill="rgb(0,128,0)" stroke-width="5" stroke="rgb(0,0,0)" />
	<path d="M5856,2448 5556,2448 5556,3048 5856,3048 5856,2448 z " fill-rule="evenodd" fill="rgb(0,128,0)" stroke-width="5" stroke="rgb(0,0,0)" />
	<path d="M5556,1544 5256,1544 5256,2144 5556,2144 5556,1544 z " fill-rule="evenodd" fill="rgb(0,128,0)" stroke-width="5" stroke="rgb(0,0,0)" />
	<path d="M4044,4260 3744,4260 3744,4860 4044,4860 4044,4260 z " fill-rule="evenodd" fill="rgb(0,128,0)" stroke-width="5" stroke="rgb(0,0,0)" />
	<path d="M3748,944 3448,944 3448,1544 3748,1544 3748,944 z " fill-rule="evenodd" fill="rgb(0,128,0)" stroke-width="5" stroke="rgb(0,0,0)" />
	<path d="M7058,4858 6758,4858 6758,5458 7058,5458 7058,4858 z " fill-rule="evenodd" fill="rgb(0,128,0)" stroke-width="5" stroke="rgb(0,0,0)" />
	<path d="M6758,3954 6458,3954 6458,4554 6758,4554 6758,3954 z " fill-rule="evenodd" fill="rgb(0,128,0)" stroke-width="5" stroke="rgb(0,0,0)" />
	<path d="M6458,3050 6158,3050 6158,3650 6458,3650 6458,3050 z " fill-rule="evenodd" fill="rgb(0,128,0)" stroke-width="5" stroke="rgb(0,0,0)" />
	<path d="M6158,2146 5858,2146 5858,2746 6158,2746 6158,2146 z " fill-rule="evenodd" fill="rgb(0,128,0)" stroke-width="5" stroke="rgb(0,0,0)" />
	<path d="M2842,1850 2542,1850 2542,2450 2842,2450 2842,1850 z " fill-rule="evenodd" fill="rgb(0,128,0)" stroke-width="5" stroke="rgb(0,0,0)" />
	<path d="M2844,644 2544,644 2544,1244 2844,1244 2844,644 z " fill-rule="evenodd" fill="rgb(0,128,0)" stroke-width="5" stroke="rgb(0,0,0)" />
	<path d="M2542,946 2242,946 2242,1546 2542,1546 2542,946 z " fill-rule="evenodd" fill="rgb(0,128,0)" stroke-width="5" stroke="rgb(0,0,0)" />
	<path d="M7360,4556 7060,4556 7060,5156 7360,5156 7360,4556 z " fill-rule="evenodd" fill="rgb(0,128,0)" stroke-width="5" stroke="rgb(0,0,0)" />
	<path d="M7060,3652 6760,3652 6760,4252 7060,4252 7060,3652 z " fill-rule="evenodd" fill="rgb(0,128,0)" stroke-width="5" stroke="rgb(0,0,0)" />
	<path d="M6760,2748 6460,2748 6460,3348 6760,3348 6760,2748 z " fill-rule="evenodd" fill="rgb(0,128,0)" stroke-width="5" stroke="rgb(0,0,0)" />
	<path d="M2840,3056 2540,3056 2540,3656 2840,3656 2840,3056 z " fill-rule="evenodd" fill="rgb(0,128,0)" stroke-width="5" stroke="rgb(0,0,0)" />
	<path d="M2540,2152 2240,2152 2240,2752 2540,2752 2540,2152 z " fill-rule="evenodd" fill="rgb(0,128,0)" stroke-width="5" stroke="rgb(0,0,0)" />
	<path d="M7662,4254 7362,4254 7362,4854 7662,4854 7662,4254 z " fill-rule="evenodd" fill="rgb(0,128,0)" stroke-width="5" stroke="rgb(0,0,0)" />
	<path d="M7362,3350 7062,3350 7062,3950 7362,3950 7362,3350 z " fill-rule="evenodd" fill="rgb(0,128,0)" stroke-width="5" stroke="rgb(0,0,0)" />
	<path d="M7062,2446 6762,2446 6762,3046 7062,3046 7062,2446 z " fill-rule="evenodd" fill="rgb(0,128,0)" stroke-width="5" stroke="rgb(0,0,0)" />
	<path d="M2838,4262 2538,4262 2538,4862 2838,4862 2838,4262 z " fill-rule="evenodd" fill="rgb(0,128,0)" stroke-width="5" stroke="rgb(0,0,0)" />
	<path d="M2538,3358 2238,3358 2238,3958 2538,3958 2538,3358 z " fill-rule="evenodd" fill="rgb(0,128,0)" stroke-width="5" stroke="rgb(0,0,0)" />
	<path d="M8264,4856 7964,4856 7964,5456 8264,5456 8264,4856 z " fill-rule="evenodd" fill="rgb(0,128,0)" stroke-width="5" stroke="rgb(0,0,0)" />
	<path d="M7964,3952 7664,3952 7664,4552 7964,4552 7964,3952 z " fill-rule="evenodd" fill="rgb(0,128,0)" stroke-width="5" stroke="rgb(0,0,0)" />
	<path d="M7664,3048 7364,3048 7364,3648 7664,3648 7664,3048 z " fill-rule="evenodd" fill="rgb(0,128,0)" stroke-width="5" stroke="rgb(0,0,0)" />
	<path d="M2836,5468 2536,5468 2536,6068 2836,6068 2836,5468 z " fill-rule="evenodd" fill="rgb(0,128,0)" stroke-width="5" stroke="rgb(0,0,0)" />
	<path d="M2536,4564 2236,4564 2236,5164 2536,5164 2536,4564 z " fill-rule="evenodd" fill="rgb(0,128,0)" stroke-width="5" stroke="rgb(0,0,0)" />
	<path d="M2236,3660 1936,3660 1936,4260 2236,4260 2236,3660 z " fill-rule="evenodd" fill="rgb(0,128,0)" stroke-width="5" stroke="rgb(0,0,0)" />
	<path d="M1636,1852 1336,1852 1336,2452 1636,2452 1636,1852 z " fill-rule="evenodd" fill="rgb(0,128,0)" stroke-width="5" stroke="rgb(0,0,0)" />
	<path d="M8566,4554 8266,4554 8266,5154 8566,5154 8566,4554 z " fill-rule="evenodd" fill="rgb(0,128,0)" stroke-width="5" stroke="rgb(0,0,0)" />
	<path d="M8266,3650 7966,3650 7966,4250 8266,4250 8266,3650 z " fill-rule="evenodd" fill="rgb(0,128,0)" stroke-width="5" stroke="rgb(0,0,0)" />
	<path d="M7966,2746 7666,2746 7666,3346 7966,3346 7966,2746 z " fill-rule="evenodd" fill="rgb(0,128,0)" stroke-width="5" stroke="rgb(0,0,0)" />
	<path d="M2534,5770 2234,5770 2234,6370 2534,6370 2534,5770 z " fill-rule="evenodd" fill="rgb(0,128,0)" stroke-width="5" stroke="rgb(0,0,0)" />
	<path d="M2234,4866 1934,4866 1934,5466 2234,5466 2234,4866 z " fill-rule="evenodd" fill="rgb(0,128,0)" stroke-width="5" stroke="rgb(0,0,0)" />
	<path d="M1934,3962 1634,3962 1634,4562 1934,4562 1934,3962 z " fill-rule="evenodd" fill="rgb(0,128,0)" stroke-width="5" stroke="rgb(0,0,0)" />
	<path d="M1334,2154 1034,2154 1034,2754 1334,2754 1334,2154 z " fill-rule="evenodd" fill="rgb(0,128,0)" stroke-width="5" stroke="rgb(0,0,0)" />
	<path d="M8568,3348 8268,3348 8268,3948 8568,3948 8568,3348 z " fill-rule="evenodd" fill="rgb(0,128,0)" stroke-width="5" stroke="rgb(0,0,0)" />
	<path d="M2232,6072 1932,6072 1932,6672 2232,6672 2232,6072 z " fill-rule="evenodd" fill="rgb(0,128,0)" stroke-width="5" stroke="rgb(0,0,0)" />
	<path d="M1932,5168 1632,5168 1632,5768 1932,5768 1932,5168 z " fill-rule="evenodd" fill="rgb(0,128,0)" stroke-width="5" stroke="rgb(0,0,0)" />
	<path d="M1632,4264 1332,4264 1332,4864 1632,4864 1632,4264 z " fill-rule="evenodd" fill="rgb(0,128,0)" stroke-width="5" stroke="rgb(0,0,0)" />
	<path d="M1332,3360 1032,3360 1032,3960 1332,3960 1332,3360 z " fill-rule="evenodd" fill="rgb(0,128,0)" stroke-width="5" stroke="rgb(0,0,0)" />
	<path d="M1630,5470 1330,5470 1330,6070 1630,6070 1630,5470 z " fill-rule="evenodd" fill="rgb(0,128,0)" stroke-width="5" stroke="rgb(0,0,0)" />
	<path d="M1330,4566 1030,4566 1030,5166 1330,5166 1330,4566 z " fill-rule="evenodd" fill="rgb(0,128,0)" stroke-width="5" stroke="rgb(0,0,0)" />
	<path d="M1030,3662 730,3662 730,4262 1030,4262 1030,3662 z " fill-rule="evenodd" fill="rgb(0,128,0)" stroke-width="5" stroke="rgb(0,0,0)" />
	<path d="M430,1854 130,1854 130,2454 430,2454 430,1854 z " fill-rule="evenodd" fill="rgb(0,128,0)" stroke-width="5" stroke="rgb(0,0,0)" />
	<path d="M1328,5772 1028,5772 1028,6372 1328,6372 1328,5772 z " fill-rule="evenodd" fill="rgb(0,128,0)" stroke-width="5" stroke="rgb(0,0,0)" />
	<path d="M1028,4868 728,4868 728,5468 1028,5468 1028,4868 z " fill-rule="evenodd" fill="rgb(0,128,0)" stroke-width="5" stroke="rgb(0,0,0)" />
	<path d="M728,3964 428,3964 428,4564 728,4564 728,3964 z " fill-rule="evenodd" fill="rgb(0,128,0)" stroke-width="5" stroke="rgb(0,0,0)" />
	<path d="M1026,6074 726,6074 726,6674 1026,6674 1026,6074 z " fill-rule="evenodd" fill="rgb(0,128,0)" stroke-width="5" stroke="rgb(0,0,0)" />
	<path d="M726,5170 426,5170 426,5770 726,5770 726,5170 z " fill-rule="evenodd" fill="rgb(0,128,0)" stroke-width="5" stroke="rgb(0,0,0)" />
	<path d="M426,4266 126,4266 126,4866 426,4866 426,4266 z " fill-rule="evenodd" fill="rgb(0,128,0)" stroke-width="5" stroke="rgb(0,0,0)" />
	<path d="M424,5472 124,5472 124,6072 424,6072 424,5472 z " fill-rule="evenodd" fill="rgb(0,128,0)" stroke-width="5" stroke="rgb(0,0,0)" />
	<path d="M5552,3654 5552,3954 5050,3954 5050,3654 5552,3654 z " fill-rule="evenodd" fill="rgb(255,0,0)" stroke-width="5" stroke="rgb(0,0,0)" />
	<path d="M5250,3956 5250,4256 5050,4256 5050,3956 5250,3956 z " fill-rule="evenodd" fill="rgb(255,0,0)" stroke-width="5" stroke="rgb(0,0,0)" />
	<path d="M4650,4256 4650,3956 4950,3956 4950,4256 4650,4256 z " fill-rule="evenodd" fill="rgb(255,0,0)" stroke-width="5" stroke="rgb(0,0,0)" />
	<path d="M4652,3050 4652,2750 5252,2750 5252,3050 5050,3050 5050,2952 4900,2952 4900,3050 4652,3050 z " fill-rule="evenodd" fill="rgb(255,0,0)" stroke-width="5" stroke="rgb(0,0,0)" />
	<path d="M5550,4860 5550,5160 5050,5160 5050,4860 5550,4860 z " fill-rule="evenodd" fill="rgb(255,0,0)" stroke-width="5" stroke="rgb(0,0,0)" />
	<path d="M5248,5162 5248,5462 5050,5462 5050,5162 5248,5162 z " fill-rule="evenodd" fill="rgb(255,0,0)" stroke-width="5" stroke="rgb(0,0,0)" />
	<path d="M3446,2752 4046,2752 4046,2952 3446,2952 3446,2752 z " fill-rule="evenodd" fill="rgb(255,0,0)" stroke-width="5" stroke="rgb(0,0,0)" />
	<path d="M4652,1242 4052,1242 4052,942 4223.52,942 4652,1115.98 4652,1242 z " fill-rule="evenodd" fill="rgb(255,0,0)" stroke-width="5" stroke="rgb(0,0,0)" />
	<path d="M5552,5462 6152,5462 6152,5552 5552,5552 5552,5462 z " fill-rule="evenodd" fill="rgb(255,0,0)" stroke-width="5" stroke="rgb(0,0,0)" />
	<path d="M5556,1542 4956,1542 4956,1242 4962.38,1242 5556,1483.03 5556,1542 z " fill-rule="evenodd" fill="rgb(255,0,0)" stroke-width="5" stroke="rgb(0,0,0)" />
	<path d="M3744,4862 4344,4862 4344,4952 3744,4952 3744,4862 z " fill-rule="evenodd" fill="rgb(255,0,0)" stroke-width="5" stroke="rgb(0,0,0)" />
	<path d="M4044,3958 4044,4258 3700,4258 3700,3958 4044,3958 z " fill-rule="evenodd" fill="rgb(255,0,0)" stroke-width="5" stroke="rgb(0,0,0)" />
	<path d="M3744,3054 3744,3354 3700,3354 3700,3054 3744,3054 z " fill-rule="evenodd" fill="rgb(255,0,0)" stroke-width="5" stroke="rgb(0,0,0)" />
	<path d="M3148,942 3148,642 3428.89,642 3307.18,942 3148,942 z " fill-rule="evenodd" fill="rgb(255,0,0)" stroke-width="5" stroke="rgb(0,0,0)" />
	<path d="M3748,942 3414.64,942 3529,660 3748,748.922 3748,942 z " fill-rule="evenodd" fill="rgb(255,0,0)" stroke-width="5" stroke="rgb(0,0,0)" />
	<path d="M3446,944 3446,1244 3292.18,1244 3413.83,944 3446,944 z " fill-rule="evenodd" fill="rgb(255,0,0)" stroke-width="5" stroke="rgb(0,0,0)" />
	<path d="M2846,1244 2846,944 3306.37,944 3184.67,1244 2846,1244 z " fill-rule="evenodd" fill="rgb(255,0,0)" stroke-width="5" stroke="rgb(0,0,0)" />
	<path d="M2544,1546 2544,1246 3144,1246 3144,1344.24 3080,1502 2950,1502 2950,1546 2544,1546 z " fill-rule="evenodd" fill="rgb(255,0,0)" stroke-width="5" stroke="rgb(0,0,0)" />
	<path d="M6758,5460 7358,5460 7358,5552 6758,5552 6758,5460 z " fill-rule="evenodd" fill="rgb(255,0,0)" stroke-width="5" stroke="rgb(0,0,0)" />
	<path d="M3742,4260 3742,4560 3700,4560 3700,4260 3742,4260 z " fill-rule="evenodd" fill="rgb(255,0,0)" stroke-width="5" stroke="rgb(0,0,0)" />
	<path d="M2842,3656 2842,3356 2900,3356 2900,3656 2842,3656 z " fill-rule="evenodd" fill="rgb(255,0,0)" stroke-width="5" stroke="rgb(0,0,0)" />
	<path d="M2546,340 2546,260.615 2741.72,340 2546,340 z " fill-rule="evenodd" fill="rgb(255,0,0)" stroke-width="5" stroke="rgb(0,0,0)" />
	<path d="M2844,642 2244,642 2244,342 2746.66,342 2844,381.483 2844,642 z " fill-rule="evenodd" fill="rgb(255,0,0)" stroke-width="5" stroke="rgb(0,0,0)" />
	<path d="M2542,644 2542,944 2150,944 2150,644 2542,644 z " fill-rule="evenodd" fill="rgb(255,0,0)" stroke-width="5" stroke="rgb(0,0,0)" />
	<path d="M5860,1842 5860,1606.47 6440.08,1842 5860,1842 z " fill-rule="evenodd" fill="rgb(255,0,0)" stroke-width="5" stroke="rgb(0,0,0)" />
	<path d="M2840,4862 2840,4562 2900,4562 2900,4862 2840,4862 z " fill-rule="evenodd" fill="rgb(255,0,0)" stroke-width="5" stroke="rgb(0,0,0)" />
	<path d="M2540,3958 2540,3658 2900,3658 2900,3958 2540,3958 z " fill-rule="evenodd" fill="rgb(255,0,0)" stroke-width="5" stroke="rgb(0,0,0)" />
	<path d="M2240,946 2240,1246 2150,1246 2150,946 2240,946 z " fill-rule="evenodd" fill="rgb(255,0,0)" stroke-width="5" stroke="rgb(0,0,0)" />
	<path d="M2838,6068 2838,5768 2900,5768 2900,6052 3100,6052 3100,6068 2838,6068 z " fill-rule="evenodd" fill="rgb(255,0,0)" stroke-width="5" stroke="rgb(0,0,0)" />
	<path d="M2538,5164 2538,4864 2900,4864 2900,5164 2538,5164 z " fill-rule="evenodd" fill="rgb(255,0,0)" stroke-width="5" stroke="rgb(0,0,0)" />
	<path d="M2538,3056 2538,3356 1938,3356 1938,3152 2050,3152 2050,3056 2538,3056 z " fill-rule="evenodd" fill="rgb(255,0,0)" stroke-width="5" stroke="rgb(0,0,0)" />
	<path d="M1338,1548 1338,1502 1400,1502 1400,1548 1338,1548 z " fill-rule="evenodd" fill="rgb(255,0,0)" stroke-width="5" stroke="rgb(0,0,0)" />
	<path d="M7964,5458 8564,5458 8564,5552 7964,5552 7964,5458 z " fill-rule="evenodd" fill="rgb(255,0,0)" stroke-width="5" stroke="rgb(0,0,0)" />
	<path d="M6764,2142 6764,1973.52 7178.94,2142 6764,2142 z " fill-rule="evenodd" fill="rgb(255,0,0)" stroke-width="5" stroke="rgb(0,0,0)" />
	<path d="M2536,6370 2536,6070 3100,6070 3100,6370 2536,6370 z " fill-rule="evenodd" fill="rgb(255,0,0)" stroke-width="5" stroke="rgb(0,0,0)" />
	<path d="M1636,1850 1036,1850 1036,1550 1400,1550 1400,1602 1636,1602 1636,1850 z " fill-rule="evenodd" fill="rgb(255,0,0)" stroke-width="5" stroke="rgb(0,0,0)" />
	<path d="M8266,5456 8266,5156 8600,5156 8600,5456 8266,5456 z " fill-rule="evenodd" fill="rgb(255,0,0)" stroke-width="5" stroke="rgb(0,0,0)" />
	<path d="M7966,2744 7366,2744 7366,2444 7922.72,2444 7966,2461.57 7966,2744 z " fill-rule="evenodd" fill="rgb(255,0,0)" stroke-width="5" stroke="rgb(0,0,0)" />
	<path d="M1034,2756 1634,2756 1634,2952 1034,2952 1034,2756 z " fill-rule="evenodd" fill="rgb(255,0,0)" stroke-width="5" stroke="rgb(0,0,0)" />
	<path d="M8568,5154 8568,4854 8600,4854 8600,5154 8568,5154 z " fill-rule="evenodd" fill="rgb(255,0,0)" stroke-width="5" stroke="rgb(0,0,0)" />
	<path d="M8268,4250 8268,3950 8600,3950 8600,4250 8268,4250 z " fill-rule="evenodd" fill="rgb(255,0,0)" stroke-width="5" stroke="rgb(0,0,0)" />
	<path d="M7668,2442 7668,2340.58 7917.79,2442 7668,2442 z " fill-rule="evenodd" fill="rgb(255,0,0)" stroke-width="5" stroke="rgb(0,0,0)" />
	<path d="M1932,6674 2532,6674 2532,6952 1932,6952 1932,6674 z " fill-rule="evenodd" fill="rgb(255,0,0)" stroke-width="5" stroke="rgb(0,0,0)" />
	<path d="M1332,3358 732,3358 732,3152 1332,3152 1332,3358 z " fill-rule="evenodd" fill="rgb(255,0,0)" stroke-width="5" stroke="rgb(0,0,0)" />
	<path d="M732,1550 700,1550 700,1502 732,1502 732,1550 z " fill-rule="evenodd" fill="rgb(255,0,0)" stroke-width="5" stroke="rgb(0,0,0)" />
	<path d="M8570,3948 8570,3648 8600,3648 8600,3948 8570,3948 z " fill-rule="evenodd" fill="rgb(255,0,0)" stroke-width="5" stroke="rgb(0,0,0)" />
	<path d="M8270,3044 8270,2744 8600,2744 8600,3044 8270,3044 z " fill-rule="evenodd" fill="rgb(255,0,0)" stroke-width="5" stroke="rgb(0,0,0)" />
	<path d="M430,1852 100,1852 100,1602 430,1602 430,1852 z " fill-rule="evenodd" fill="rgb(255,0,0)" stroke-width="5" stroke="rgb(0,0,0)" />
	<path d="M8572,2742 8572,2707.63 8600,2719 8600,2742 8572,2742 z " fill-rule="evenodd" fill="rgb(255,0,0)" stroke-width="5" stroke="rgb(0,0,0)" />
	<path d="M428,2758 428,2952 100,2952 100,2758 428,2758 z " fill-rule="evenodd" fill="rgb(255,0,0)" stroke-width="5" stroke="rgb(0,0,0)" />
	<path d="M128,1854 128,2154 100,2154 100,1854 128,1854 z " fill-rule="evenodd" fill="rgb(255,0,0)" stroke-width="5" stroke="rgb(0,0,0)" />
	<path d="M726,6676 1326,6676 1326,6952 726,6952 726,6676 z " fill-rule="evenodd" fill="rgb(255,0,0)" stroke-width="5" stroke="rgb(0,0,0)" />
	<path d="M426,3964 426,4264 100,4264 100,3964 426,3964 z " fill-rule="evenodd" fill="rgb(255,0,0)" stroke-width="5" stroke="rgb(0,0,0)" />
	<path d="M126,3360 100,3360 100,3152 126,3152 126,3360 z " fill-rule="evenodd" fill="rgb(255,0,0)" stroke-width="5" stroke="rgb(0,0,0)" />
	<path d="M424,5170 424,5470 100,5470 100,5170 424,5170 z " fill-rule="evenodd" fill="rgb(255,0,0)" stroke-width="5" stroke="rgb(0,0,0)" />
	<path d="M124,4266 124,4566 100,4566 100,4266 124,4266 z " fill-rule="evenodd" fill="rgb(255,0,0)" stroke-width="5" stroke="rgb(0,0,0)" />
	<path d="M422,6376 422,6676 100,6676 100,6376 422,6376 z " fill-rule="evenodd" fill="rgb(255,0,0)" stroke-width="5" stroke="rgb(0,0,0)" />
	<path d="M122,5472 122,5772 100,5772 100,5472 122,5472 z " fill-rule="evenodd" fill="rgb(255,0,0)" stroke-width="5" stroke="rgb(0,0,0)" />
	<path d="M120,6678 120,6952 100,6952 100,6678 120,6678 z " fill-rule="evenodd" fill="rgb(255,0,0)" stroke-width="5" stroke="rgb(0,0,0)" />
	<path d="M5250,4258 5250,4858 5050,4858 5050,4258 5250,4258 z " fill-rule="evenodd" fill="rgb(255,0,0)" stroke-width="5" stroke="rgb(0,0,0)" />
	<path d="M4648,4560 4948,4560 4948,4952 4648,4952 4648,4560 z " fill-rule="evenodd" fill="rgb(255,0,0)" stroke-width="5" stroke="rgb(0,0,0)" />
	<path d="M5252,3052 5252,3652 5050,3652 5050,3052 5252,3052 z " fill-rule="evenodd" fill="rgb(255,0,0)" stroke-width="5" stroke="rgb(0,0,0)" />
	<path d="M4048,2752 4348,2752 4348,3352 4048,3352 4048,3052 4200,3052 4200,2952 4048,2952 4048,2752 z " fill-rule="evenodd" fill="rgb(255,0,0)" stroke-width="5" stroke="rgb(0,0,0)" />
	<path d="M5250,5162 5550,5162 5550,5552 5250,5552 5250,5162 z " fill-rule="evenodd" fill="rgb(255,0,0)" stroke-width="5" stroke="rgb(0,0,0)" />
	<path d="M5248,5464 5248,5552 5050,5552 5050,5464 5248,5464 z " fill-rule="evenodd" fill="rgb(255,0,0)" stroke-width="5" stroke="rgb(0,0,0)" />
	<path d="M4346,4862 4646,4862 4646,4952 4346,4952 4346,4862 z " fill-rule="evenodd" fill="rgb(255,0,0)" stroke-width="5" stroke="rgb(0,0,0)" />
	<path d="M4954,1542 4654,1542 4654,1116.79 4954,1238.6 4954,1542 z " fill-rule="evenodd" fill="rgb(255,0,0)" stroke-width="5" stroke="rgb(0,0,0)" />
	<path d="M6456,5160 6756,5160 6756,5552 6456,5552 6456,5160 z " fill-rule="evenodd" fill="rgb(255,0,0)" stroke-width="5" stroke="rgb(0,0,0)" />
	<path d="M6154,5462 6454,5462 6454,5552 6154,5552 6154,5462 z " fill-rule="evenodd" fill="rgb(255,0,0)" stroke-width="5" stroke="rgb(0,0,0)" />
	<path d="M3744,3356 3744,3956 3700,3956 3700,3356 3744,3356 z " fill-rule="evenodd" fill="rgb(255,0,0)" stroke-width="5" stroke="rgb(0,0,0)" />
	<path d="M4956,1240 4956,1239.41 4957.45,1240 4956,1240 z " fill-rule="evenodd" fill="rgb(255,0,0)" stroke-width="5" stroke="rgb(0,0,0)" />
	<path d="M3144,2452 3444,2452 3444,2952 3144,2952 3144,2452 z " fill-rule="evenodd" fill="rgb(255,0,0)" stroke-width="5" stroke="rgb(0,0,0)" />
	<path d="M4052,940 4052,872.356 4218.6,940 4052,940 z " fill-rule="evenodd" fill="rgb(255,0,0)" stroke-width="5" stroke="rgb(0,0,0)" />
	<path d="M4050,1242 3750,1242 3750,749.734 4050,871.544 4050,1242 z " fill-rule="evenodd" fill="rgb(255,0,0)" stroke-width="5" stroke="rgb(0,0,0)" />
	<path d="M3446,1246 3446,1846 3146,1846 3146,1602 3147,1602 3291.37,1246 3446,1246 z " fill-rule="evenodd" fill="rgb(255,0,0)" stroke-width="5" stroke="rgb(0,0,0)" />
	<path d="M3146,1246 3183.85,1246 3146,1339.31 3146,1246 z " fill-rule="evenodd" fill="rgb(255,0,0)" stroke-width="5" stroke="rgb(0,0,0)" />
	<path d="M3144,2148 2844,2148 2844,1548 2950,1548 2950,1602 3144,1602 3144,2148 z " fill-rule="evenodd" fill="rgb(255,0,0)" stroke-width="5" stroke="rgb(0,0,0)" />
	<path d="M5858,1842 5558,1842 5558,1483.84 5858,1605.65 5858,1842 z " fill-rule="evenodd" fill="rgb(255,0,0)" stroke-width="5" stroke="rgb(0,0,0)" />
	<path d="M3742,4562 3742,4952 3700,4952 3700,4562 3742,4562 z " fill-rule="evenodd" fill="rgb(255,0,0)" stroke-width="5" stroke="rgb(0,0,0)" />
	<path d="M2842,3354 2842,2754 3142,2754 3142,2952 2850,2952 2850,3152 2900,3152 2900,3354 2842,3354 z " fill-rule="evenodd" fill="rgb(255,0,0)" stroke-width="5" stroke="rgb(0,0,0)" />
	<path d="M3148,640 3148,504.783 3437,622 3429.7,640 3148,640 z " fill-rule="evenodd" fill="rgb(255,0,0)" stroke-width="5" stroke="rgb(0,0,0)" />
	<path d="M3146,942 2846,942 2846,382.294 3146,503.972 3146,942 z " fill-rule="evenodd" fill="rgb(255,0,0)" stroke-width="5" stroke="rgb(0,0,0)" />
	<path d="M7360,5460 7660,5460 7660,5552 7360,5552 7360,5460 z " fill-rule="evenodd" fill="rgb(255,0,0)" stroke-width="5" stroke="rgb(0,0,0)" />
	<path d="M6460,2444 6160,2444 6160,1844 6445.01,1844 6460,1850.09 6460,2444 z " fill-rule="evenodd" fill="rgb(255,0,0)" stroke-width="5" stroke="rgb(0,0,0)" />
	<path d="M2840,4560 2840,3960 2900,3960 2900,4560 2840,4560 z " fill-rule="evenodd" fill="rgb(255,0,0)" stroke-width="5" stroke="rgb(0,0,0)" />
	<path d="M2240,1248 2240,1848 1940,1848 1940,1602 2150,1602 2150,1248 2240,1248 z " fill-rule="evenodd" fill="rgb(255,0,0)" stroke-width="5" stroke="rgb(0,0,0)" />
	<path d="M2544,340 2244,340 2244,138.126 2544,259.804 2544,340 z " fill-rule="evenodd" fill="rgb(255,0,0)" stroke-width="5" stroke="rgb(0,0,0)" />
	<path d="M2242,642 2150,642 2150,100 2242,137.315 2242,642 z " fill-rule="evenodd" fill="rgb(255,0,0)" stroke-width="5" stroke="rgb(0,0,0)" />
	<path d="M7662,5158 7962,5158 7962,5552 7662,5552 7662,5158 z " fill-rule="evenodd" fill="rgb(255,0,0)" stroke-width="5" stroke="rgb(0,0,0)" />
	<path d="M6762,2142 6462,2142 6462,1850.9 6762,1972.71 6762,2142 z " fill-rule="evenodd" fill="rgb(255,0,0)" stroke-width="5" stroke="rgb(0,0,0)" />
	<path d="M2838,5766 2838,5166 2900,5166 2900,5766 2838,5766 z " fill-rule="evenodd" fill="rgb(255,0,0)" stroke-width="5" stroke="rgb(0,0,0)" />
	<path d="M1938,2454 2238,2454 2238,3054 2050,3054 2050,2952 1938,2952 1938,2454 z " fill-rule="evenodd" fill="rgb(255,0,0)" stroke-width="5" stroke="rgb(0,0,0)" />
	<path d="M1938,2150 1638,2150 1638,1602 1938,1602 1938,2150 z " fill-rule="evenodd" fill="rgb(255,0,0)" stroke-width="5" stroke="rgb(0,0,0)" />
	<path d="M7364,2744 7064,2744 7064,2144 7183.86,2144 7364,2217.14 7364,2744 z " fill-rule="evenodd" fill="rgb(255,0,0)" stroke-width="5" stroke="rgb(0,0,0)" />
	<path d="M2836,6372 3100,6372 3100,6852 2900,6852 2900,6952 2836,6952 2836,6372 z " fill-rule="evenodd" fill="rgb(255,0,0)" stroke-width="5" stroke="rgb(0,0,0)" />
	<path d="M1636,2756 1936,2756 1936,2952 1636,2952 1636,2756 z " fill-rule="evenodd" fill="rgb(255,0,0)" stroke-width="5" stroke="rgb(0,0,0)" />
	<path d="M1936,3356 1636,3356 1636,3152 1936,3152 1936,3356 z " fill-rule="evenodd" fill="rgb(255,0,0)" stroke-width="5" stroke="rgb(0,0,0)" />
	<path d="M1336,1548 1036,1548 1036,1502 1336,1502 1336,1548 z " fill-rule="evenodd" fill="rgb(255,0,0)" stroke-width="5" stroke="rgb(0,0,0)" />
	<path d="M8566,5458 8600,5458 8600,5552 8566,5552 8566,5458 z " fill-rule="evenodd" fill="rgb(255,0,0)" stroke-width="5" stroke="rgb(0,0,0)" />
	<path d="M7666,2442 7366,2442 7366,2217.95 7666,2339.76 7666,2442 z " fill-rule="evenodd" fill="rgb(255,0,0)" stroke-width="5" stroke="rgb(0,0,0)" />
	<path d="M2534,6674 2834,6674 2834,6952 2534,6952 2534,6674 z " fill-rule="evenodd" fill="rgb(255,0,0)" stroke-width="5" stroke="rgb(0,0,0)" />
	<path d="M1634,3658 1334,3658 1334,3152 1634,3152 1634,3658 z " fill-rule="evenodd" fill="rgb(255,0,0)" stroke-width="5" stroke="rgb(0,0,0)" />
	<path d="M1034,1850 734,1850 734,1502 1034,1502 1034,1850 z " fill-rule="evenodd" fill="rgb(255,0,0)" stroke-width="5" stroke="rgb(0,0,0)" />
	<path d="M8568,4852 8568,4252 8600,4252 8600,4852 8568,4852 z " fill-rule="evenodd" fill="rgb(255,0,0)" stroke-width="5" stroke="rgb(0,0,0)" />
	<path d="M8268,3044 7968,3044 7968,2462.39 8268,2584.2 8268,3044 z " fill-rule="evenodd" fill="rgb(255,0,0)" stroke-width="5" stroke="rgb(0,0,0)" />
	<path d="M732,2456 1032,2456 1032,2952 732,2952 732,2456 z " fill-rule="evenodd" fill="rgb(255,0,0)" stroke-width="5" stroke="rgb(0,0,0)" />
	<path d="M732,1552 732,2152 432,2152 432,1602 700,1602 700,1552 732,1552 z " fill-rule="evenodd" fill="rgb(255,0,0)" stroke-width="5" stroke="rgb(0,0,0)" />
	<path d="M8570,3646 8570,3046 8600,3046 8600,3646 8570,3646 z " fill-rule="evenodd" fill="rgb(255,0,0)" stroke-width="5" stroke="rgb(0,0,0)" />
	<path d="M8570,2742 8270,2742 8270,2585.01 8570,2706.82 8570,2742 z " fill-rule="evenodd" fill="rgb(255,0,0)" stroke-width="5" stroke="rgb(0,0,0)" />
	<path d="M1630,6374 1930,6374 1930,6952 1630,6952 1630,6374 z " fill-rule="evenodd" fill="rgb(255,0,0)" stroke-width="5" stroke="rgb(0,0,0)" />
	<path d="M430,2758 730,2758 730,2952 430,2952 430,2758 z " fill-rule="evenodd" fill="rgb(255,0,0)" stroke-width="5" stroke="rgb(0,0,0)" />
	<path d="M730,3358 430,3358 430,3152 730,3152 730,3358 z " fill-rule="evenodd" fill="rgb(255,0,0)" stroke-width="5" stroke="rgb(0,0,0)" />
	<path d="M1328,6676 1628,6676 1628,6952 1328,6952 1328,6676 z " fill-rule="evenodd" fill="rgb(255,0,0)" stroke-width="5" stroke="rgb(0,0,0)" />
	<path d="M428,3660 128,3660 128,3152 428,3152 428,3660 z " fill-rule="evenodd" fill="rgb(255,0,0)" stroke-width="5" stroke="rgb(0,0,0)" />
	<path d="M128,2156 128,2756 100,2756 100,2156 128,2156 z " fill-rule="evenodd" fill="rgb(255,0,0)" stroke-width="5" stroke="rgb(0,0,0)" />
	<path d="M126,3362 126,3962 100,3962 100,3362 126,3362 z " fill-rule="evenodd" fill="rgb(255,0,0)" stroke-width="5" stroke="rgb(0,0,0)" />
	<path d="M424,6376 724,6376 724,6952 424,6952 424,6376 z " fill-rule="evenodd" fill="rgb(255,0,0)" stroke-width="5" stroke="rgb(0,0,0)" />
	<path d="M124,4568 124,5168 100,5168 100,4568 124,4568 z " fill-rule="evenodd" fill="rgb(255,0,0)" stroke-width="5" stroke="rgb(0,0,0)" />
	<path d="M122,6678 422,6678 422,6952 122,6952 122,6678 z " fill-rule="evenodd" fill="rgb(255,0,0)" stroke-width="5" stroke="rgb(0,0,0)" />
	<path d="M122,5774 122,6374 100,6374 100,5774 122,5774 z " fill-rule="evenodd" fill="rgb(255,0,0)" stroke-width="5" stroke="rgb(0,0,0)" />
	<polyline points="4945,3057 4345,3057 4945,3057 4945,3657 4945,3057 " fill="none" stroke-width="100" stroke="rgb(0,0,0)" />
	<circle cx="4945" cy="3057" r="-10" fill="rgb(0,0,0)" />
	<circle cx="4345" cy="3057" r="-10" fill="rgb(0,0,0)" />
	<circle cx="4945" cy="3057" r="-10" fill="rgb(0,0,0)" />
	<circle cx="4945" cy="3657" r="-10" fill="rgb(0,0,0)" />
	<circle cx="4945" cy="3057" r="-10" fill="rgb(0,0,0)" />
	<polyline points="4945,3717 4945,3057 4285,3057 " fill="none" stroke-width="0.5" stroke="rgb(128,0,128)" />
</svg>
