<?xml version="1.0" standalone="no" ?>
<!DOCTYPE svg PUBLIC "-//W3C//DTD SVG 1.1//EN" "http://www.w3.org/Graphics/SVG/1.1/DTD/svg11.dtd">
<svg width="8700px" height="7052px" xmlns="http://www.w3.org/2000/svg" version="1.1" >
	<path d="M100,2300.64 524.264,2724.91 736.396,2512.78 312.132,2088.51 100,2300.64 z " fill-rule="evenodd" fill="rgb(0,128,0)" stroke-width="5" stroke="rgb(0,0,0)" />
	<path d="M527.092,2300.64 951.357,2724.91 1163.49,2512.78 739.225,2088.51 527.092,2300.64 z " fill-rule="evenodd" fill="rgb(0,128,0)" stroke-width="5" stroke="rgb(0,0,0)" />
	<path d="M954.185,2300.64 1378.45,2724.91 1590.58,2512.78 1166.32,2088.51 954.185,2300.64 z " fill-rule="evenodd" fill="rgb(0,128,0)" stroke-width="5" stroke="rgb(0,0,0)" />
	<path d="M100,4003.36 524.264,4427.62 736.396,4215.49 312.132,3791.22 100,4003.36 z " fill-rule="evenodd" fill="rgb(0,128,0)" stroke-width="5" stroke="rgb(0,0,0)" />
	<path d="M1381.28,2300.64 1805.54,2724.91 2017.67,2512.78 1593.41,2088.51 1381.28,2300.64 z " fill-rule="evenodd" fill="rgb(0,128,0)" stroke-width="5" stroke="rgb(0,0,0)" />
	<path d="M527.092,4003.36 951.357,4427.62 1163.49,4215.49 739.225,3791.22 527.092,4003.36 z " fill-rule="evenodd" fill="rgb(0,128,0)" stroke-width="5" stroke="rgb(0,0,0)" />
	<path d="M100,4854.71 524.264,5278.98 736.396,5066.85 312.132,4642.58 100,4854.71 z " fill-rule="evenodd" fill="rgb(0,128,0)" stroke-width="5" stroke="rgb(0,0,0)" />
	<path d="M2235.46,597.93 2659.73,1022.19 2871.86,810.062 2447.59,385.798 2235.46,597.93 z " fill-rule="evenodd" fill="rgb(0,128,0)" stroke-width="5" stroke="rgb(0,0,0)" />
	<path d="M2235.46,1449.29 2659.73,1873.55 2871.86,1661.42 2447.59,1237.15 2235.46,1449.29 z " fill-rule="evenodd" fill="rgb(0,128,0)" stroke-width="5" stroke="rgb(0,0,0)" />
	<path d="M1808.37,2300.64 2232.63,2724.91 2444.77,2512.78 2020.5,2088.51 1808.37,2300.64 z " fill-rule="evenodd" fill="rgb(0,128,0)" stroke-width="5" stroke="rgb(0,0,0)" />
	<path d="M954.185,4003.36 1378.45,4427.62 1590.58,4215.49 1166.32,3791.22 954.185,4003.36 z " fill-rule="evenodd" fill="rgb(0,128,0)" stroke-width="5" stroke="rgb(0,0,0)" />
	<path d="M527.092,4854.71 951.357,5278.98 1163.49,5066.85 739.225,4642.58 527.092,4854.71 z " fill-rule="evenodd" fill="rgb(0,128,0)" stroke-width="5" stroke="rgb(0,0,0)" />
	<path d="M100,5706.07 524.264,6130.33 736.396,5918.2 312.132,5493.94 100,5706.07 z " fill-rule="evenodd" fill="rgb(0,128,0)" stroke-width="5" stroke="rgb(0,0,0)" />
	<path d="M2235.46,2300.64 2659.73,2724.91 2871.86,2512.78 2447.59,2088.51 2235.46,2300.64 z " fill-rule="evenodd" fill="rgb(0,128,0)" stroke-width="5" stroke="rgb(0,0,0)" />
	<path d="M1381.28,4003.36 1805.54,4427.62 2017.67,4215.49 1593.41,3791.22 1381.28,4003.36 z " fill-rule="evenodd" fill="rgb(0,128,0)" stroke-width="5" stroke="rgb(0,0,0)" />
	<path d="M954.185,4854.71 1378.45,5278.98 1590.58,5066.85 1166.32,4642.58 954.185,4854.71 z " fill-rule="evenodd" fill="rgb(0,128,0)" stroke-width="5" stroke="rgb(0,0,0)" />
	<path d="M527.092,5706.07 951.357,6130.33 1163.49,5918.2 739.225,5493.94 527.092,5706.07 z " fill-rule="evenodd" fill="rgb(0,128,0)" stroke-width="5" stroke="rgb(0,0,0)" />
	<path d="M2662.55,2300.64 3086.82,2724.91 3298.95,2512.78 2874.69,2088.51 2662.55,2300.64 z " fill-rule="evenodd" fill="rgb(0,128,0)" stroke-width="5" stroke="rgb(0,0,0)" />
	<path d="M2235.46,3152 2659.73,3576.26 2871.86,3364.13 2447.59,2939.87 2235.46,3152 z " fill-rule="evenodd" fill="rgb(0,128,0)" stroke-width="5" stroke="rgb(0,0,0)" />
	<path d="M1808.37,4003.36 2232.63,4427.62 2444.77,4215.49 2020.5,3791.22 1808.37,4003.36 z " fill-rule="evenodd" fill="rgb(0,128,0)" stroke-width="5" stroke="rgb(0,0,0)" />
	<path d="M1381.28,4854.71 1805.54,5278.98 2017.67,5066.85 1593.41,4642.58 1381.28,4854.71 z " fill-rule="evenodd" fill="rgb(0,128,0)" stroke-width="5" stroke="rgb(0,0,0)" />
	<path d="M954.185,5706.07 1378.45,6130.33 1590.58,5918.2 1166.32,5493.94 954.185,5706.07 z " fill-rule="evenodd" fill="rgb(0,128,0)" stroke-width="5" stroke="rgb(0,0,0)" />
	<path d="M3516.74,1449.29 3941,1873.55 4153.14,1661.42 3728.87,1237.15 3516.74,1449.29 z " fill-rule="evenodd" fill="rgb(0,128,0)" stroke-width="5" stroke="rgb(0,0,0)" />
	<path d="M3089.65,2300.64 3513.91,2724.91 3726.04,2512.78 3301.78,2088.51 3089.65,2300.64 z " fill-rule="evenodd" fill="rgb(0,128,0)" stroke-width="5" stroke="rgb(0,0,0)" />
	<path d="M2235.46,4003.36 2659.73,4427.62 2871.86,4215.49 2447.59,3791.22 2235.46,4003.36 z " fill-rule="evenodd" fill="rgb(0,128,0)" stroke-width="5" stroke="rgb(0,0,0)" />
	<path d="M1808.37,4854.71 2232.63,5278.98 2444.77,5066.85 2020.5,4642.58 1808.37,4854.71 z " fill-rule="evenodd" fill="rgb(0,128,0)" stroke-width="5" stroke="rgb(0,0,0)" />
	<path d="M1381.28,5706.07 1805.54,6130.33 2017.67,5918.2 1593.41,5493.94 1381.28,5706.07 z " fill-rule="evenodd" fill="rgb(0,128,0)" stroke-width="5" stroke="rgb(0,0,0)" />
	<path d="M3943.83,1449.29 4368.1,1873.55 4580.23,1661.42 4155.96,1237.15 3943.83,1449.29 z " fill-rule="evenodd" fill="rgb(0,128,0)" stroke-width="5" stroke="rgb(0,0,0)" />
	<path d="M3516.74,2300.64 3941,2724.91 4153.14,2512.78 3728.87,2088.51 3516.74,2300.64 z " fill-rule="evenodd" fill="rgb(0,128,0)" stroke-width="5" stroke="rgb(0,0,0)" />
	<path d="M2235.46,4854.71 2659.73,5278.98 2871.86,5066.85 2447.59,4642.58 2235.46,4854.71 z " fill-rule="evenodd" fill="rgb(0,128,0)" stroke-width="5" stroke="rgb(0,0,0)" />
	<path d="M1808.37,5706.07 2232.63,6130.33 2444.77,5918.2 2020.5,5493.94 1808.37,5706.07 z " fill-rule="evenodd" fill="rgb(0,128,0)" stroke-width="5" stroke="rgb(0,0,0)" />
	<path d="M4370.92,1449.29 4795.19,1873.55 5007.32,1661.42 4583.06,1237.15 4370.92,1449.29 z " fill-rule="evenodd" fill="rgb(0,128,0)" stroke-width="5" stroke="rgb(0,0,0)" />
	<path d="M3943.83,2300.64 4368.1,2724.91 4580.23,2512.78 4155.96,2088.51 3943.83,2300.64 z " fill-rule="evenodd" fill="rgb(0,128,0)" stroke-width="5" stroke="rgb(0,0,0)" />
	<path d="M2235.46,5706.07 2659.73,6130.33 2871.86,5918.2 2447.59,5493.94 2235.46,5706.07 z " fill-rule="evenodd" fill="rgb(0,128,0)" stroke-width="5" stroke="rgb(0,0,0)" />
	<path d="M4370.92,2300.64 4795.19,2724.91 5007.32,2512.78 4583.06,2088.51 4370.92,2300.64 z " fill-rule="evenodd" fill="rgb(0,128,0)" stroke-width="5" stroke="rgb(0,0,0)" />
	<path d="M4798.02,2300.64 5222.28,2724.91 5434.41,2512.78 5010.15,2088.51 4798.02,2300.64 z " fill-rule="evenodd" fill="rgb(0,128,0)" stroke-width="5" stroke="rgb(0,0,0)" />
	<path d="M3943.83,4003.36 4368.1,4427.62 4580.23,4215.49 4155.96,3791.22 3943.83,4003.36 z " fill-rule="evenodd" fill="rgb(0,128,0)" stroke-width="5" stroke="rgb(0,0,0)" />
	<path d="M5225.11,2300.64 5649.37,2724.91 5861.51,2512.78 5437.24,2088.51 5225.11,2300.64 z " fill-rule="evenodd" fill="rgb(0,128,0)" stroke-width="5" stroke="rgb(0,0,0)" />
	<path d="M5652.2,2300.64 6076.47,2724.91 6288.6,2512.78 5864.33,2088.51 5652.2,2300.64 z " fill-rule="evenodd" fill="rgb(0,128,0)" stroke-width="5" stroke="rgb(0,0,0)" />
	<path d="M5225.11,3152 5649.37,3576.26 5861.51,3364.13 5437.24,2939.87 5225.11,3152 z " fill-rule="evenodd" fill="rgb(0,128,0)" stroke-width="5" stroke="rgb(0,0,0)" />
	<path d="M6079.29,2300.64 6503.56,2724.91 6715.69,2512.78 6291.43,2088.51 6079.29,2300.64 z " fill-rule="evenodd" fill="rgb(0,128,0)" stroke-width="5" stroke="rgb(0,0,0)" />
	<path d="M5652.2,3152 6076.47,3576.26 6288.6,3364.13 5864.33,2939.87 5652.2,3152 z " fill-rule="evenodd" fill="rgb(0,128,0)" stroke-width="5" stroke="rgb(0,0,0)" />
	<path d="M5225.11,4003.36 5649.37,4427.62 5861.51,4215.49 5437.24,3791.22 5225.11,4003.36 z " fill-rule="evenodd" fill="rgb(0,128,0)" stroke-width="5" stroke="rgb(0,0,0)" />
	<path d="M6506.39,2300.64 6930.65,2724.91 7142.78,2512.78 6718.52,2088.51 6506.39,2300.64 z " fill-rule="evenodd" fill="rgb(0,128,0)" stroke-width="5" stroke="rgb(0,0,0)" />
	<path d="M6079.29,3152 6503.56,3576.26 6715.69,3364.13 6291.43,2939.87 6079.29,3152 z " fill-rule="evenodd" fill="rgb(0,128,0)" stroke-width="5" stroke="rgb(0,0,0)" />
	<path d="M5652.2,4003.36 6076.47,4427.62 6288.6,4215.49 5864.33,3791.22 5652.2,4003.36 z " fill-rule="evenodd" fill="rgb(0,128,0)" stroke-width="5" stroke="rgb(0,0,0)" />
	<path d="M5225.11,4854.71 5649.37,5278.98 5861.51,5066.85 5437.24,4642.58 5225.11,4854.71 z " fill-rule="evenodd" fill="rgb(0,128,0)" stroke-width="5" stroke="rgb(0,0,0)" />
	<path d="M6506.39,3152 6930.65,3576.26 7142.78,3364.13 6718.52,2939.87 6506.39,3152 z " fill-rule="evenodd" fill="rgb(0,128,0)" stroke-width="5" stroke="rgb(0,0,0)" />
	<path d="M6079.29,4003.36 6503.56,4427.62 6715.69,4215.49 6291.43,3791.22 6079.29,4003.36 z " fill-rule="evenodd" fill="rgb(0,128,0)" stroke-width="5" stroke="rgb(0,0,0)" />
	<path d="M5652.2,4854.71 6076.47,5278.98 6288.6,5066.85 5864.33,4642.58 5652.2,4854.71 z " fill-rule="evenodd" fill="rgb(0,128,0)" stroke-width="5" stroke="rgb(0,0,0)" />
	<path d="M6933.48,3152 7357.74,3576.26 7569.88,3364.13 7145.61,2939.87 6933.48,3152 z " fill-rule="evenodd" fill="rgb(0,128,0)" stroke-width="5" stroke="rgb(0,0,0)" />
	<path d="M6506.39,4003.36 6930.65,4427.62 7142.78,4215.49 6718.52,3791.22 6506.39,4003.36 z " fill-rule="evenodd" fill="rgb(0,128,0)" stroke-width="5" stroke="rgb(0,0,0)" />
	<path d="M6079.29,4854.71 6503.56,5278.98 6715.69,5066.85 6291.43,4642.58 6079.29,4854.71 z " fill-rule="evenodd" fill="rgb(0,128,0)" stroke-width="5" stroke="rgb(0,0,0)" />
	<path d="M7360.57,3152 7784.84,3576.26 7996.97,3364.13 7572.7,2939.87 7360.57,3152 z " fill-rule="evenodd" fill="rgb(0,128,0)" stroke-width="5" stroke="rgb(0,0,0)" />
	<path d="M6933.48,4003.36 7357.74,4427.62 7569.88,4215.49 7145.61,3791.22 6933.48,4003.36 z " fill-rule="evenodd" fill="rgb(0,128,0)" stroke-width="5" stroke="rgb(0,0,0)" />
	<path d="M6506.39,4854.71 6930.65,5278.98 7142.78,5066.85 6718.52,4642.58 6506.39,4854.71 z " fill-rule="evenodd" fill="rgb(0,128,0)" stroke-width="5" stroke="rgb(0,0,0)" />
	<path d="M7787.66,3152 8211.93,3576.26 8424.06,3364.13 7999.8,2939.87 7787.66,3152 z " fill-rule="evenodd" fill="rgb(0,128,0)" stroke-width="5" stroke="rgb(0,0,0)" />
	<path d="M7360.57,4003.36 7784.84,4427.62 7996.97,4215.49 7572.7,3791.22 7360.57,4003.36 z " fill-rule="evenodd" fill="rgb(0,128,0)" stroke-width="5" stroke="rgb(0,0,0)" />
	<path d="M6933.48,4854.71 7357.74,5278.98 7569.88,5066.85 7145.61,4642.58 6933.48,4854.71 z " fill-rule="evenodd" fill="rgb(0,128,0)" stroke-width="5" stroke="rgb(0,0,0)" />
	<path d="M7787.66,4003.36 8211.93,4427.62 8424.06,4215.49 7999.8,3791.22 7787.66,4003.36 z " fill-rule="evenodd" fill="rgb(0,128,0)" stroke-width="5" stroke="rgb(0,0,0)" />
	<path d="M7360.57,4854.71 7784.84,5278.98 7996.97,5066.85 7572.7,4642.58 7360.57,4854.71 z " fill-rule="evenodd" fill="rgb(0,128,0)" stroke-width="5" stroke="rgb(0,0,0)" />
	<path d="M7787.66,4854.71 8211.93,5278.98 8424.06,5066.85 7999.8,4642.58 7787.66,4854.71 z " fill-rule="evenodd" fill="rgb(0,128,0)" stroke-width="5" stroke="rgb(0,0,0)" />
	<path d="M313.546,2087.1 525.678,2299.23 949.942,1874.97 737.81,1662.83 313.546,2087.1 z " fill-rule="evenodd" fill="rgb(0,128,0)" stroke-width="5" stroke="rgb(0,0,0)" />
	<path d="M740.639,2087.1 952.771,2299.23 1377.03,1874.97 1164.9,1662.83 740.639,2087.1 z " fill-rule="evenodd" fill="rgb(0,128,0)" stroke-width="5" stroke="rgb(0,0,0)" />
	<path d="M1167.73,2087.1 1379.86,2299.23 1804.13,1874.97 1592,1662.83 1167.73,2087.1 z " fill-rule="evenodd" fill="rgb(0,128,0)" stroke-width="5" stroke="rgb(0,0,0)" />
	<path d="M313.546,3789.81 525.678,4001.94 949.942,3577.68 737.81,3365.55 313.546,3789.81 z " fill-rule="evenodd" fill="rgb(0,128,0)" stroke-width="5" stroke="rgb(0,0,0)" />
	<path d="M1594.82,2087.1 1806.96,2299.23 2231.22,1874.97 2019.09,1662.83 1594.82,2087.1 z " fill-rule="evenodd" fill="rgb(0,128,0)" stroke-width="5" stroke="rgb(0,0,0)" />
	<path d="M740.639,3789.81 952.771,4001.94 1377.03,3577.68 1164.9,3365.55 740.639,3789.81 z " fill-rule="evenodd" fill="rgb(0,128,0)" stroke-width="5" stroke="rgb(0,0,0)" />
	<path d="M313.546,4641.17 525.678,4853.3 949.942,4429.03 737.81,4216.9 313.546,4641.17 z " fill-rule="evenodd" fill="rgb(0,128,0)" stroke-width="5" stroke="rgb(0,0,0)" />
	<path d="M2449.01,1235.74 2661.14,1447.87 3085.4,1023.61 2873.27,811.477 2449.01,1235.74 z " fill-rule="evenodd" fill="rgb(0,128,0)" stroke-width="5" stroke="rgb(0,0,0)" />
	<path d="M2021.92,2087.1 2234.05,2299.23 2658.31,1874.97 2446.18,1662.83 2021.92,2087.1 z " fill-rule="evenodd" fill="rgb(0,128,0)" stroke-width="5" stroke="rgb(0,0,0)" />
	<path d="M1167.73,3789.81 1379.86,4001.94 1804.13,3577.68 1592,3365.55 1167.73,3789.81 z " fill-rule="evenodd" fill="rgb(0,128,0)" stroke-width="5" stroke="rgb(0,0,0)" />
	<path d="M740.639,4641.17 952.771,4853.3 1377.03,4429.03 1164.9,4216.9 740.639,4641.17 z " fill-rule="evenodd" fill="rgb(0,128,0)" stroke-width="5" stroke="rgb(0,0,0)" />
	<path d="M313.546,5492.52 525.678,5704.66 949.942,5280.39 737.81,5068.26 313.546,5492.52 z " fill-rule="evenodd" fill="rgb(0,128,0)" stroke-width="5" stroke="rgb(0,0,0)" />
	<path d="M2449.01,2087.1 2661.14,2299.23 3085.4,1874.97 2873.27,1662.83 2449.01,2087.1 z " fill-rule="evenodd" fill="rgb(0,128,0)" stroke-width="5" stroke="rgb(0,0,0)" />
	<path d="M1594.82,3789.81 1806.96,4001.94 2231.22,3577.68 2019.09,3365.55 1594.82,3789.81 z " fill-rule="evenodd" fill="rgb(0,128,0)" stroke-width="5" stroke="rgb(0,0,0)" />
	<path d="M1167.73,4641.17 1379.86,4853.3 1804.13,4429.03 1592,4216.9 1167.73,4641.17 z " fill-rule="evenodd" fill="rgb(0,128,0)" stroke-width="5" stroke="rgb(0,0,0)" />
	<path d="M740.639,5492.52 952.771,5704.66 1377.03,5280.39 1164.9,5068.26 740.639,5492.52 z " fill-rule="evenodd" fill="rgb(0,128,0)" stroke-width="5" stroke="rgb(0,0,0)" />
	<path d="M313.546,6343.88 525.678,6556.01 949.942,6131.75 737.81,5919.62 313.546,6343.88 z " fill-rule="evenodd" fill="rgb(0,128,0)" stroke-width="5" stroke="rgb(0,0,0)" />
	<path d="M3303.19,1235.74 3515.33,1447.87 3939.59,1023.61 3727.46,811.477 3303.19,1235.74 z " fill-rule="evenodd" fill="rgb(0,128,0)" stroke-width="5" stroke="rgb(0,0,0)" />
	<path d="M2876.1,2087.1 3088.23,2299.23 3512.5,1874.97 3300.37,1662.83 2876.1,2087.1 z " fill-rule="evenodd" fill="rgb(0,128,0)" stroke-width="5" stroke="rgb(0,0,0)" />
	<path d="M2021.92,3789.81 2234.05,4001.94 2658.31,3577.68 2446.18,3365.55 2021.92,3789.81 z " fill-rule="evenodd" fill="rgb(0,128,0)" stroke-width="5" stroke="rgb(0,0,0)" />
	<path d="M1594.82,4641.17 1806.96,4853.3 2231.22,4429.03 2019.09,4216.9 1594.82,4641.17 z " fill-rule="evenodd" fill="rgb(0,128,0)" stroke-width="5" stroke="rgb(0,0,0)" />
	<path d="M1167.73,5492.52 1379.86,5704.66 1804.13,5280.39 1592,5068.26 1167.73,5492.52 z " fill-rule="evenodd" fill="rgb(0,128,0)" stroke-width="5" stroke="rgb(0,0,0)" />
	<path d="M740.639,6343.88 952.771,6556.01 1377.03,6131.75 1164.9,5919.62 740.639,6343.88 z " fill-rule="evenodd" fill="rgb(0,128,0)" stroke-width="5" stroke="rgb(0,0,0)" />
	<path d="M3303.19,2087.1 3515.33,2299.23 3939.59,1874.97 3727.46,1662.83 3303.19,2087.1 z " fill-rule="evenodd" fill="rgb(0,128,0)" stroke-width="5" stroke="rgb(0,0,0)" />
	<path d="M2021.92,4641.17 2234.05,4853.3 2658.31,4429.03 2446.18,4216.9 2021.92,4641.17 z " fill-rule="evenodd" fill="rgb(0,128,0)" stroke-width="5" stroke="rgb(0,0,0)" />
	<path d="M1594.82,5492.52 1806.96,5704.66 2231.22,5280.39 2019.09,5068.26 1594.82,5492.52 z " fill-rule="evenodd" fill="rgb(0,128,0)" stroke-width="5" stroke="rgb(0,0,0)" />
	<path d="M1167.73,6343.88 1379.86,6556.01 1804.13,6131.75 1592,5919.62 1167.73,6343.88 z " fill-rule="evenodd" fill="rgb(0,128,0)" stroke-width="5" stroke="rgb(0,0,0)" />
	<path d="M3730.29,2087.1 3942.42,2299.23 4366.68,1874.97 4154.55,1662.83 3730.29,2087.1 z " fill-rule="evenodd" fill="rgb(0,128,0)" stroke-width="5" stroke="rgb(0,0,0)" />
	<path d="M2021.92,5492.52 2234.05,5704.66 2658.31,5280.39 2446.18,5068.26 2021.92,5492.52 z " fill-rule="evenodd" fill="rgb(0,128,0)" stroke-width="5" stroke="rgb(0,0,0)" />
	<path d="M1594.82,6343.88 1806.96,6556.01 2231.22,6131.75 2019.09,5919.62 1594.82,6343.88 z " fill-rule="evenodd" fill="rgb(0,128,0)" stroke-width="5" stroke="rgb(0,0,0)" />
	<path d="M4157.38,2087.1 4369.51,2299.23 4793.77,1874.97 4581.64,1662.83 4157.38,2087.1 z " fill-rule="evenodd" fill="rgb(0,128,0)" stroke-width="5" stroke="rgb(0,0,0)" />
	<path d="M2021.92,6343.88 2234.05,6556.01 2658.31,6131.75 2446.18,5919.62 2021.92,6343.88 z " fill-rule="evenodd" fill="rgb(0,128,0)" stroke-width="5" stroke="rgb(0,0,0)" />
	<path d="M4584.47,2087.1 4796.6,2299.23 5220.87,1874.97 5008.74,1662.83 4584.47,2087.1 z " fill-rule="evenodd" fill="rgb(0,128,0)" stroke-width="5" stroke="rgb(0,0,0)" />
	<path d="M3730.29,3789.81 3942.42,4001.94 4366.68,3577.68 4154.55,3365.55 3730.29,3789.81 z " fill-rule="evenodd" fill="rgb(0,128,0)" stroke-width="5" stroke="rgb(0,0,0)" />
	<path d="M5011.56,2087.1 5223.7,2299.23 5647.96,1874.97 5435.83,1662.83 5011.56,2087.1 z " fill-rule="evenodd" fill="rgb(0,128,0)" stroke-width="5" stroke="rgb(0,0,0)" />
	<path d="M4157.38,3789.81 4369.51,4001.94 4793.77,3577.68 4581.64,3365.55 4157.38,3789.81 z " fill-rule="evenodd" fill="rgb(0,128,0)" stroke-width="5" stroke="rgb(0,0,0)" />
	<path d="M3730.29,4641.17 3942.42,4853.3 4366.68,4429.03 4154.55,4216.9 3730.29,4641.17 z " fill-rule="evenodd" fill="rgb(0,128,0)" stroke-width="5" stroke="rgb(0,0,0)" />
	<path d="M5438.66,2087.1 5650.79,2299.23 6075.05,1874.97 5862.92,1662.83 5438.66,2087.1 z " fill-rule="evenodd" fill="rgb(0,128,0)" stroke-width="5" stroke="rgb(0,0,0)" />
	<path d="M4157.38,4641.17 4369.51,4853.3 4793.77,4429.03 4581.64,4216.9 4157.38,4641.17 z " fill-rule="evenodd" fill="rgb(0,128,0)" stroke-width="5" stroke="rgb(0,0,0)" />
	<path d="M5438.66,2938.45 5650.79,3150.59 6075.05,2726.32 5862.92,2514.19 5438.66,2938.45 z " fill-rule="evenodd" fill="rgb(0,128,0)" stroke-width="5" stroke="rgb(0,0,0)" />
	<path d="M5865.75,2938.45 6077.88,3150.59 6502.14,2726.32 6290.01,2514.19 5865.75,2938.45 z " fill-rule="evenodd" fill="rgb(0,128,0)" stroke-width="5" stroke="rgb(0,0,0)" />
	<path d="M5438.66,3789.81 5650.79,4001.94 6075.05,3577.68 5862.92,3365.55 5438.66,3789.81 z " fill-rule="evenodd" fill="rgb(0,128,0)" stroke-width="5" stroke="rgb(0,0,0)" />
	<path d="M6292.84,2938.45 6504.97,3150.59 6929.24,2726.32 6717.11,2514.19 6292.84,2938.45 z " fill-rule="evenodd" fill="rgb(0,128,0)" stroke-width="5" stroke="rgb(0,0,0)" />
	<path d="M5865.75,3789.81 6077.88,4001.94 6502.14,3577.68 6290.01,3365.55 5865.75,3789.81 z " fill-rule="evenodd" fill="rgb(0,128,0)" stroke-width="5" stroke="rgb(0,0,0)" />
	<path d="M5438.66,4641.17 5650.79,4853.3 6075.05,4429.03 5862.92,4216.9 5438.66,4641.17 z " fill-rule="evenodd" fill="rgb(0,128,0)" stroke-width="5" stroke="rgb(0,0,0)" />
	<path d="M6719.93,2938.45 6932.07,3150.59 7356.33,2726.32 7144.2,2514.19 6719.93,2938.45 z " fill-rule="evenodd" fill="rgb(0,128,0)" stroke-width="5" stroke="rgb(0,0,0)" />
	<path d="M6292.84,3789.81 6504.97,4001.94 6929.24,3577.68 6717.11,3365.55 6292.84,3789.81 z " fill-rule="evenodd" fill="rgb(0,128,0)" stroke-width="5" stroke="rgb(0,0,0)" />
	<path d="M5865.75,4641.17 6077.88,4853.3 6502.14,4429.03 6290.01,4216.9 5865.75,4641.17 z " fill-rule="evenodd" fill="rgb(0,128,0)" stroke-width="5" stroke="rgb(0,0,0)" />
	<path d="M7147.03,2938.45 7359.16,3150.59 7783.42,2726.32 7571.29,2514.19 7147.03,2938.45 z " fill-rule="evenodd" fill="rgb(0,128,0)" stroke-width="5" stroke="rgb(0,0,0)" />
	<path d="M6719.93,3789.81 6932.07,4001.94 7356.33,3577.68 7144.2,3365.55 6719.93,3789.81 z " fill-rule="evenodd" fill="rgb(0,128,0)" stroke-width="5" stroke="rgb(0,0,0)" />
	<path d="M6292.84,4641.17 6504.97,4853.3 6929.24,4429.03 6717.11,4216.9 6292.84,4641.17 z " fill-rule="evenodd" fill="rgb(0,128,0)" stroke-width="5" stroke="rgb(0,0,0)" />
	<path d="M7574.12,2938.45 7786.25,3150.59 8210.51,2726.32 7998.38,2514.19 7574.12,2938.45 z " fill-rule="evenodd" fill="rgb(0,128,0)" stroke-width="5" stroke="rgb(0,0,0)" />
	<path d="M7147.03,3789.81 7359.16,4001.94 7783.42,3577.68 7571.29,3365.55 7147.03,3789.81 z " fill-rule="evenodd" fill="rgb(0,128,0)" stroke-width="5" stroke="rgb(0,0,0)" />
	<path d="M6719.93,4641.17 6932.07,4853.3 7356.33,4429.03 7144.2,4216.9 6719.93,4641.17 z " fill-rule="evenodd" fill="rgb(0,128,0)" stroke-width="5" stroke="rgb(0,0,0)" />
	<path d="M7574.12,3789.81 7786.25,4001.94 8210.51,3577.68 7998.38,3365.55 7574.12,3789.81 z " fill-rule="evenodd" fill="rgb(0,128,0)" stroke-width="5" stroke="rgb(0,0,0)" />
	<path d="M7147.03,4641.17 7359.16,4853.3 7783.42,4429.03 7571.29,4216.9 7147.03,4641.17 z " fill-rule="evenodd" fill="rgb(0,128,0)" stroke-width="5" stroke="rgb(0,0,0)" />
	<path d="M7574.12,4641.17 7786.25,4853.3 8210.51,4429.03 7998.38,4216.9 7574.12,4641.17 z " fill-rule="evenodd" fill="rgb(0,128,0)" stroke-width="5" stroke="rgb(0,0,0)" />
	<path d="M309.304,3364.13 100,3573.44 100,3154.83 309.304,3364.13 z " fill-rule="evenodd" fill="rgb(255,0,0)" stroke-width="5" stroke="rgb(0,0,0)" />
	<path d="M736.396,3364.13 524.264,3576.26 100,3152 524.264,3152 736.396,3364.13 z " fill-rule="evenodd" fill="rgb(255,0,0)" stroke-width="5" stroke="rgb(0,0,0)" />
	<path d="M312.132,2939.87 324.264,2952 300,2952 312.132,2939.87 z " fill-rule="evenodd" fill="rgb(255,0,0)" stroke-width="5" stroke="rgb(0,0,0)" />
	<path d="M1163.49,3364.13 951.357,3576.26 527.092,3152 951.357,3152 1163.49,3364.13 z " fill-rule="evenodd" fill="rgb(255,0,0)" stroke-width="5" stroke="rgb(0,0,0)" />
	<path d="M739.225,2939.87 751.357,2952 727.092,2952 739.225,2939.87 z " fill-rule="evenodd" fill="rgb(255,0,0)" stroke-width="5" stroke="rgb(0,0,0)" />
	<path d="M309.304,4215.49 100,4424.79 100,4006.18 309.304,4215.49 z " fill-rule="evenodd" fill="rgb(255,0,0)" stroke-width="5" stroke="rgb(0,0,0)" />
	<path d="M736.396,1661.42 524.264,1873.55 252.713,1602 676.977,1602 736.396,1661.42 z " fill-rule="evenodd" fill="rgb(255,0,0)" stroke-width="5" stroke="rgb(0,0,0)" />
	<path d="M1163.49,1661.42 951.357,1873.55 679.806,1602 700,1602 700,1502 1004.07,1502 1163.49,1661.42 z " fill-rule="evenodd" fill="rgb(255,0,0)" stroke-width="5" stroke="rgb(0,0,0)" />
	<path d="M1590.58,1661.42 1378.45,1873.55 1006.9,1502 1400,1502 1400,1602 1531.16,1602 1590.58,1661.42 z " fill-rule="evenodd" fill="rgb(255,0,0)" stroke-width="5" stroke="rgb(0,0,0)" />
	<path d="M309.304,2512.78 100,2722.08 100,2303.47 309.304,2512.78 z " fill-rule="evenodd" fill="rgb(255,0,0)" stroke-width="5" stroke="rgb(0,0,0)" />
	<path d="M2017.67,1661.42 1805.54,1873.55 1533.99,1602 1958.25,1602 2017.67,1661.42 z " fill-rule="evenodd" fill="rgb(255,0,0)" stroke-width="5" stroke="rgb(0,0,0)" />
	<path d="M2444.77,1661.42 2232.63,1873.55 1961.08,1602 2150,1602 2150,1366.65 2444.77,1661.42 z " fill-rule="evenodd" fill="rgb(255,0,0)" stroke-width="5" stroke="rgb(0,0,0)" />
	<path d="M1590.58,3364.13 1378.45,3576.26 954.185,3152 1378.45,3152 1590.58,3364.13 z " fill-rule="evenodd" fill="rgb(255,0,0)" stroke-width="5" stroke="rgb(0,0,0)" />
	<path d="M1166.32,2939.87 1178.45,2952 1154.18,2952 1166.32,2939.87 z " fill-rule="evenodd" fill="rgb(255,0,0)" stroke-width="5" stroke="rgb(0,0,0)" />
	<path d="M309.304,5066.85 100,5276.15 100,4857.54 309.304,5066.85 z " fill-rule="evenodd" fill="rgb(255,0,0)" stroke-width="5" stroke="rgb(0,0,0)" />
	<path d="M309.304,1661.42 100,1870.72 100,1602 249.885,1602 309.304,1661.42 z " fill-rule="evenodd" fill="rgb(255,0,0)" stroke-width="5" stroke="rgb(0,0,0)" />
	<path d="M2444.77,810.062 2232.63,1022.19 2150,939.56 2150,515.296 2444.77,810.062 z " fill-rule="evenodd" fill="rgb(255,0,0)" stroke-width="5" stroke="rgb(0,0,0)" />
	<path d="M3298.95,810.062 3086.82,1022.19 2662.55,597.93 2868.9,391.583 2888.37,399.477 3298.95,810.062 z " fill-rule="evenodd" fill="rgb(255,0,0)" stroke-width="5" stroke="rgb(0,0,0)" />
	<path d="M2017.67,3364.13 1805.54,3576.26 1381.28,3152 1805.54,3152 2017.67,3364.13 z " fill-rule="evenodd" fill="rgb(255,0,0)" stroke-width="5" stroke="rgb(0,0,0)" />
	<path d="M1593.41,2939.87 1605.54,2952 1581.28,2952 1593.41,2939.87 z " fill-rule="evenodd" fill="rgb(255,0,0)" stroke-width="5" stroke="rgb(0,0,0)" />
	<path d="M309.304,5918.2 100,6127.51 100,5708.9 309.304,5918.2 z " fill-rule="evenodd" fill="rgb(255,0,0)" stroke-width="5" stroke="rgb(0,0,0)" />
	<path d="M2232.63,170.838 2169.85,108.049 2259.19,144.285 2232.63,170.838 z " fill-rule="evenodd" fill="rgb(255,0,0)" stroke-width="5" stroke="rgb(0,0,0)" />
	<path d="M3089.65,597.93 3172.75,514.823 3437,622 3343.7,851.983 3089.65,597.93 z " fill-rule="evenodd" fill="rgb(255,0,0)" stroke-width="5" stroke="rgb(0,0,0)" />
	<path d="M3726.04,810.062 3513.91,1022.19 3420.15,928.429 3529,660 3608.1,692.116 3726.04,810.062 z " fill-rule="evenodd" fill="rgb(255,0,0)" stroke-width="5" stroke="rgb(0,0,0)" />
	<path d="M3298.95,1661.42 3086.82,1873.55 2662.55,1449.29 2874.69,1237.15 3097.18,1459.65 3080,1502 2950,1502 2950,1602 3147,1602 3173.7,1536.17 3298.95,1661.42 z " fill-rule="evenodd" fill="rgb(255,0,0)" stroke-width="5" stroke="rgb(0,0,0)" />
	<path d="M2444.77,3364.13 2232.63,3576.26 1808.37,3152 2050,3152 2050,2969.37 2444.77,3364.13 z " fill-rule="evenodd" fill="rgb(255,0,0)" stroke-width="5" stroke="rgb(0,0,0)" />
	<path d="M2020.5,2939.87 2032.63,2952 2008.37,2952 2020.5,2939.87 z " fill-rule="evenodd" fill="rgb(255,0,0)" stroke-width="5" stroke="rgb(0,0,0)" />
	<path d="M309.304,6769.56 126.862,6952 100,6952 100,6560.25 309.304,6769.56 z " fill-rule="evenodd" fill="rgb(255,0,0)" stroke-width="5" stroke="rgb(0,0,0)" />
	<path d="M100,6557.43 312.132,6345.29 736.396,6769.56 553.954,6952 494.574,6952 100,6557.43 z " fill-rule="evenodd" fill="rgb(255,0,0)" stroke-width="5" stroke="rgb(0,0,0)" />
	<path d="M3941,1022.19 3612.86,694.05 4079.63,883.573 3941,1022.19 z " fill-rule="evenodd" fill="rgb(255,0,0)" stroke-width="5" stroke="rgb(0,0,0)" />
	<path d="M3089.65,1449.29 3109.4,1429.54 3098,1457.64 3089.65,1449.29 z " fill-rule="evenodd" fill="rgb(255,0,0)" stroke-width="5" stroke="rgb(0,0,0)" />
	<path d="M3301.78,1237.15 3726.04,1661.42 3513.91,1873.55 3174.51,1534.15 3290.29,1248.64 3301.78,1237.15 z " fill-rule="evenodd" fill="rgb(255,0,0)" stroke-width="5" stroke="rgb(0,0,0)" />
	<path d="M527.092,6557.43 739.225,6345.29 1163.49,6769.56 981.047,6952 921.666,6952 527.092,6557.43 z " fill-rule="evenodd" fill="rgb(255,0,0)" stroke-width="5" stroke="rgb(0,0,0)" />
	<path d="M4368.1,1022.19 4331.91,986.01 4383.38,1006.91 4368.1,1022.19 z " fill-rule="evenodd" fill="rgb(255,0,0)" stroke-width="5" stroke="rgb(0,0,0)" />
	<path d="M2662.55,3152 2850,2964.55 2850,3152 2900,3152 2900,3389.45 2662.55,3152 z " fill-rule="evenodd" fill="rgb(255,0,0)" stroke-width="5" stroke="rgb(0,0,0)" />
	<path d="M2874.69,2939.87 2886.82,2952 2862.55,2952 2874.69,2939.87 z " fill-rule="evenodd" fill="rgb(255,0,0)" stroke-width="5" stroke="rgb(0,0,0)" />
	<path d="M954.185,6557.43 1166.32,6345.29 1590.58,6769.56 1408.14,6952 1348.76,6952 954.185,6557.43 z " fill-rule="evenodd" fill="rgb(255,0,0)" stroke-width="5" stroke="rgb(0,0,0)" />
	<path d="M3726.04,3364.13 3700,3390.18 3700,3338.09 3726.04,3364.13 z " fill-rule="evenodd" fill="rgb(255,0,0)" stroke-width="5" stroke="rgb(0,0,0)" />
	<path d="M3301.78,2939.87 3313.91,2952 3289.65,2952 3301.78,2939.87 z " fill-rule="evenodd" fill="rgb(255,0,0)" stroke-width="5" stroke="rgb(0,0,0)" />
	<path d="M2662.55,4003.36 2874.69,3791.22 2900,3816.54 2900,4240.8 2662.55,4003.36 z " fill-rule="evenodd" fill="rgb(255,0,0)" stroke-width="5" stroke="rgb(0,0,0)" />
	<path d="M1381.28,6557.43 1593.41,6345.29 2017.67,6769.56 1835.23,6952 1775.85,6952 1381.28,6557.43 z " fill-rule="evenodd" fill="rgb(255,0,0)" stroke-width="5" stroke="rgb(0,0,0)" />
	<path d="M4153.14,3364.13 3941,3576.26 3700,3335.26 3700,3052 3841,3052 4153.14,3364.13 z " fill-rule="evenodd" fill="rgb(255,0,0)" stroke-width="5" stroke="rgb(0,0,0)" />
	<path d="M3728.87,2939.87 3741,2952 3716.74,2952 3728.87,2939.87 z " fill-rule="evenodd" fill="rgb(255,0,0)" stroke-width="5" stroke="rgb(0,0,0)" />
	<path d="M3726.04,4215.49 3700,4241.53 3700,4189.45 3726.04,4215.49 z " fill-rule="evenodd" fill="rgb(255,0,0)" stroke-width="5" stroke="rgb(0,0,0)" />
	<path d="M2662.55,4854.71 2874.69,4642.58 2900,4667.89 2900,5092.16 2662.55,4854.71 z " fill-rule="evenodd" fill="rgb(255,0,0)" stroke-width="5" stroke="rgb(0,0,0)" />
	<path d="M1808.37,6557.43 2020.5,6345.29 2444.77,6769.56 2262.32,6952 2202.94,6952 1808.37,6557.43 z " fill-rule="evenodd" fill="rgb(255,0,0)" stroke-width="5" stroke="rgb(0,0,0)" />
	<path d="M5434.41,1661.42 5222.28,1873.55 4798.02,1449.29 4992.91,1254.4 5050.96,1277.97 5434.41,1661.42 z " fill-rule="evenodd" fill="rgb(255,0,0)" stroke-width="5" stroke="rgb(0,0,0)" />
	<path d="M4580.23,3364.13 4368.1,3576.26 3943.83,3152 4043.83,3052 4200,3052 4200,2983.9 4580.23,3364.13 z " fill-rule="evenodd" fill="rgb(255,0,0)" stroke-width="5" stroke="rgb(0,0,0)" />
	<path d="M4155.96,2939.87 4168.1,2952 4143.83,2952 4155.96,2939.87 z " fill-rule="evenodd" fill="rgb(255,0,0)" stroke-width="5" stroke="rgb(0,0,0)" />
	<path d="M3728.87,3791.22 4153.14,4215.49 3941,4427.62 3700,4186.62 3700,3820.1 3728.87,3791.22 z " fill-rule="evenodd" fill="rgb(255,0,0)" stroke-width="5" stroke="rgb(0,0,0)" />
	<path d="M2662.55,5706.07 2874.69,5493.94 2900,5519.25 2900,5943.51 2662.55,5706.07 z " fill-rule="evenodd" fill="rgb(255,0,0)" stroke-width="5" stroke="rgb(0,0,0)" />
	<path d="M3086.82,6130.33 3008.49,6052 3100,6052 3100,6117.15 3086.82,6130.33 z " fill-rule="evenodd" fill="rgb(255,0,0)" stroke-width="5" stroke="rgb(0,0,0)" />
	<path d="M2235.46,6557.43 2447.59,6345.29 2871.86,6769.56 2689.42,6952 2630.04,6952 2235.46,6557.43 z " fill-rule="evenodd" fill="rgb(255,0,0)" stroke-width="5" stroke="rgb(0,0,0)" />
	<path d="M5861.51,1661.42 5649.37,1873.55 5225.11,1449.29 5296.66,1377.73 5770.02,1569.93 5861.51,1661.42 z " fill-rule="evenodd" fill="rgb(255,0,0)" stroke-width="5" stroke="rgb(0,0,0)" />
	<path d="M4795.19,3576.26 4370.92,3152 4583.06,2939.87 4950,3306.81 4950,3421.45 4795.19,3576.26 z " fill-rule="evenodd" fill="rgb(255,0,0)" stroke-width="5" stroke="rgb(0,0,0)" />
	<path d="M3728.87,4642.58 4038.29,4952 3700,4952 3700,4671.45 3728.87,4642.58 z " fill-rule="evenodd" fill="rgb(255,0,0)" stroke-width="5" stroke="rgb(0,0,0)" />
	<path d="M2662.55,6557.43 2874.69,6345.29 3100,6570.61 3100,6852 2957.13,6852 2662.55,6557.43 z " fill-rule="evenodd" fill="rgb(255,0,0)" stroke-width="5" stroke="rgb(0,0,0)" />
	<path d="M6076.47,1873.55 5774.78,1571.86 6203.91,1746.11 6076.47,1873.55 z " fill-rule="evenodd" fill="rgb(255,0,0)" stroke-width="5" stroke="rgb(0,0,0)" />
	<path d="M4798.02,3152 4900,3050.02 4900,3052 4950,3052 4950,3303.98 4798.02,3152 z " fill-rule="evenodd" fill="rgb(255,0,0)" stroke-width="5" stroke="rgb(0,0,0)" />
	<path d="M5434.41,3364.13 5222.28,3576.26 5050,3403.98 5050,2979.72 5434.41,3364.13 z " fill-rule="evenodd" fill="rgb(255,0,0)" stroke-width="5" stroke="rgb(0,0,0)" />
	<path d="M5010.15,2939.87 5022.28,2952 4998.02,2952 5010.15,2939.87 z " fill-rule="evenodd" fill="rgb(255,0,0)" stroke-width="5" stroke="rgb(0,0,0)" />
	<path d="M4795.19,4427.62 4370.92,4003.36 4583.06,3791.22 4950,4158.17 4950,4272.81 4795.19,4427.62 z " fill-rule="evenodd" fill="rgb(255,0,0)" stroke-width="5" stroke="rgb(0,0,0)" />
	<path d="M3943.83,4854.71 4155.96,4642.58 4465.38,4952 4041.12,4952 3943.83,4854.71 z " fill-rule="evenodd" fill="rgb(255,0,0)" stroke-width="5" stroke="rgb(0,0,0)" />
	<path d="M3089.65,6557.43 3100,6547.07 3100,6567.78 3089.65,6557.43 z " fill-rule="evenodd" fill="rgb(255,0,0)" stroke-width="5" stroke="rgb(0,0,0)" />
	<path d="M6503.56,1873.55 6493.83,1863.82 6507.67,1869.44 6503.56,1873.55 z " fill-rule="evenodd" fill="rgb(255,0,0)" stroke-width="5" stroke="rgb(0,0,0)" />
	<path d="M4798.02,4003.36 4950,3851.37 4950,4155.34 4798.02,4003.36 z " fill-rule="evenodd" fill="rgb(255,0,0)" stroke-width="5" stroke="rgb(0,0,0)" />
	<path d="M5434.41,4215.49 5222.28,4427.62 5050,4255.34 5050,3831.08 5434.41,4215.49 z " fill-rule="evenodd" fill="rgb(255,0,0)" stroke-width="5" stroke="rgb(0,0,0)" />
	<path d="M4370.92,4854.71 4583.06,4642.58 4892.48,4952 4468.21,4952 4370.92,4854.71 z " fill-rule="evenodd" fill="rgb(255,0,0)" stroke-width="5" stroke="rgb(0,0,0)" />
	<path d="M4798.02,4854.71 4950,4702.73 4950,4952 4895.3,4952 4798.02,4854.71 z " fill-rule="evenodd" fill="rgb(255,0,0)" stroke-width="5" stroke="rgb(0,0,0)" />
	<path d="M5434.41,5066.85 5222.28,5278.98 5050,5106.7 5050,4682.43 5434.41,5066.85 z " fill-rule="evenodd" fill="rgb(255,0,0)" stroke-width="5" stroke="rgb(0,0,0)" />
	<path d="M5068.21,5552 5050,5552 5050,5533.79 5068.21,5552 z " fill-rule="evenodd" fill="rgb(255,0,0)" stroke-width="5" stroke="rgb(0,0,0)" />
	<path d="M7569.88,2512.78 7357.74,2724.91 6933.48,2300.64 7117.19,2116.93 7212.88,2155.78 7569.88,2512.78 z " fill-rule="evenodd" fill="rgb(255,0,0)" stroke-width="5" stroke="rgb(0,0,0)" />
	<path d="M5437.24,5493.94 5495.3,5552 5379.18,5552 5437.24,5493.94 z " fill-rule="evenodd" fill="rgb(255,0,0)" stroke-width="5" stroke="rgb(0,0,0)" />
	<path d="M7996.97,2512.78 7784.84,2724.91 7360.57,2300.64 7420.95,2240.27 7931.94,2447.74 7996.97,2512.78 z " fill-rule="evenodd" fill="rgb(255,0,0)" stroke-width="5" stroke="rgb(0,0,0)" />
	<path d="M5864.33,5493.94 5922.4,5552 5806.27,5552 5864.33,5493.94 z " fill-rule="evenodd" fill="rgb(255,0,0)" stroke-width="5" stroke="rgb(0,0,0)" />
	<path d="M8211.93,2724.91 7936.7,2449.68 8328.2,2608.64 8211.93,2724.91 z " fill-rule="evenodd" fill="rgb(255,0,0)" stroke-width="5" stroke="rgb(0,0,0)" />
	<path d="M6291.43,5493.94 6349.49,5552 6233.36,5552 6291.43,5493.94 z " fill-rule="evenodd" fill="rgb(255,0,0)" stroke-width="5" stroke="rgb(0,0,0)" />
	<path d="M6718.52,5493.94 6776.58,5552 6660.46,5552 6718.52,5493.94 z " fill-rule="evenodd" fill="rgb(255,0,0)" stroke-width="5" stroke="rgb(0,0,0)" />
	<path d="M8214.76,3152 8426.89,2939.87 8600,3112.98 8600,3537.24 8214.76,3152 z " fill-rule="evenodd" fill="rgb(255,0,0)" stroke-width="5" stroke="rgb(0,0,0)" />
	<path d="M7145.61,5493.94 7203.67,5552 7087.55,5552 7145.61,5493.94 z " fill-rule="evenodd" fill="rgb(255,0,0)" stroke-width="5" stroke="rgb(0,0,0)" />
	<path d="M8214.76,4003.36 8426.89,3791.22 8600,3964.34 8600,4388.6 8214.76,4003.36 z " fill-rule="evenodd" fill="rgb(255,0,0)" stroke-width="5" stroke="rgb(0,0,0)" />
	<path d="M7572.7,5493.94 7630.77,5552 7514.64,5552 7572.7,5493.94 z " fill-rule="evenodd" fill="rgb(255,0,0)" stroke-width="5" stroke="rgb(0,0,0)" />
	<path d="M8214.76,4854.71 8426.89,4642.58 8600,4815.69 8600,5239.96 8214.76,4854.71 z " fill-rule="evenodd" fill="rgb(255,0,0)" stroke-width="5" stroke="rgb(0,0,0)" />
	<path d="M7999.8,5493.94 8057.86,5552 7941.73,5552 7999.8,5493.94 z " fill-rule="evenodd" fill="rgb(255,0,0)" stroke-width="5" stroke="rgb(0,0,0)" />
	<path d="M8426.89,5493.94 8484.95,5552 8368.83,5552 8426.89,5493.94 z " fill-rule="evenodd" fill="rgb(255,0,0)" stroke-width="5" stroke="rgb(0,0,0)" />
	<path d="M310.718,2514.19 522.85,2726.32 297.172,2952 100,2952 100,2724.91 310.718,2514.19 z " fill-rule="evenodd" fill="rgb(255,0,0)" stroke-width="5" stroke="rgb(0,0,0)" />
	<path d="M313.546,2938.45 737.81,2514.19 949.942,2726.32 724.264,2952 327.092,2952 313.546,2938.45 z " fill-rule="evenodd" fill="rgb(255,0,0)" stroke-width="5" stroke="rgb(0,0,0)" />
	<path d="M740.639,2938.45 1164.9,2514.19 1377.03,2726.32 1151.36,2952 754.185,2952 740.639,2938.45 z " fill-rule="evenodd" fill="rgb(255,0,0)" stroke-width="5" stroke="rgb(0,0,0)" />
	<path d="M310.718,3365.55 522.85,3577.68 100,4000.53 100,3576.26 310.718,3365.55 z " fill-rule="evenodd" fill="rgb(255,0,0)" stroke-width="5" stroke="rgb(0,0,0)" />
	<path d="M310.718,1662.83 522.85,1874.97 100,2297.82 100,1873.55 310.718,1662.83 z " fill-rule="evenodd" fill="rgb(255,0,0)" stroke-width="5" stroke="rgb(0,0,0)" />
	<path d="M2231.22,1023.61 2150,1104.83 2150,942.389 2231.22,1023.61 z " fill-rule="evenodd" fill="rgb(255,0,0)" stroke-width="5" stroke="rgb(0,0,0)" />
	<path d="M2446.18,811.477 2658.31,1023.61 2234.05,1447.87 2150,1363.82 2150,1107.66 2446.18,811.477 z " fill-rule="evenodd" fill="rgb(255,0,0)" stroke-width="5" stroke="rgb(0,0,0)" />
	<path d="M1167.73,2938.45 1592,2514.19 1804.13,2726.32 1578.45,2952 1181.28,2952 1167.73,2938.45 z " fill-rule="evenodd" fill="rgb(255,0,0)" stroke-width="5" stroke="rgb(0,0,0)" />
	<path d="M310.718,4216.9 522.85,4429.03 100,4851.88 100,4427.62 310.718,4216.9 z " fill-rule="evenodd" fill="rgb(255,0,0)" stroke-width="5" stroke="rgb(0,0,0)" />
	<path d="M2231.22,172.252 2150,253.472 2150,100 2165.09,106.119 2231.22,172.252 z " fill-rule="evenodd" fill="rgb(255,0,0)" stroke-width="5" stroke="rgb(0,0,0)" />
	<path d="M2234.05,596.516 2150,512.468 2150,256.3 2261.2,145.102 2563.04,267.526 2234.05,596.516 z " fill-rule="evenodd" fill="rgb(255,0,0)" stroke-width="5" stroke="rgb(0,0,0)" />
	<path d="M2661.14,596.516 2449.01,384.384 2565.05,268.342 2866.89,390.767 2661.14,596.516 z " fill-rule="evenodd" fill="rgb(255,0,0)" stroke-width="5" stroke="rgb(0,0,0)" />
	<path d="M3088.23,596.516 2893.12,401.407 3170.74,514.007 3088.23,596.516 z " fill-rule="evenodd" fill="rgb(255,0,0)" stroke-width="5" stroke="rgb(0,0,0)" />
	<path d="M1594.82,2938.45 2019.09,2514.19 2231.22,2726.32 2005.54,2952 1608.37,2952 1594.82,2938.45 z " fill-rule="evenodd" fill="rgb(255,0,0)" stroke-width="5" stroke="rgb(0,0,0)" />
	<path d="M310.718,5068.26 522.85,5280.39 100,5703.24 100,5278.98 310.718,5068.26 z " fill-rule="evenodd" fill="rgb(255,0,0)" stroke-width="5" stroke="rgb(0,0,0)" />
	<path d="M3088.23,1447.87 2876.1,1235.74 3300.37,811.477 3342.88,853.995 3111.33,1424.78 3088.23,1447.87 z " fill-rule="evenodd" fill="rgb(255,0,0)" stroke-width="5" stroke="rgb(0,0,0)" />
	<path d="M3512.5,1023.61 3292.22,1243.88 3419.33,930.442 3512.5,1023.61 z " fill-rule="evenodd" fill="rgb(255,0,0)" stroke-width="5" stroke="rgb(0,0,0)" />
	<path d="M2021.92,2938.45 2446.18,2514.19 2658.31,2726.32 2234.05,3150.59 2050,2966.54 2050,2952 2035.46,2952 2021.92,2938.45 z " fill-rule="evenodd" fill="rgb(255,0,0)" stroke-width="5" stroke="rgb(0,0,0)" />
	<path d="M310.718,5919.62 522.85,6131.75 100,6554.6 100,6130.33 310.718,5919.62 z " fill-rule="evenodd" fill="rgb(255,0,0)" stroke-width="5" stroke="rgb(0,0,0)" />
	<path d="M2661.14,3150.59 2449.01,2938.45 2873.27,2514.19 3085.4,2726.32 2859.73,2952 2850,2952 2850,2961.73 2661.14,3150.59 z " fill-rule="evenodd" fill="rgb(255,0,0)" stroke-width="5" stroke="rgb(0,0,0)" />
	<path d="M310.718,6770.97 491.745,6952 129.69,6952 310.718,6770.97 z " fill-rule="evenodd" fill="rgb(255,0,0)" stroke-width="5" stroke="rgb(0,0,0)" />
	<path d="M737.81,6770.97 918.838,6952 556.783,6952 737.81,6770.97 z " fill-rule="evenodd" fill="rgb(255,0,0)" stroke-width="5" stroke="rgb(0,0,0)" />
	<path d="M4366.68,1023.61 3942.42,1447.87 3730.29,1235.74 4081.64,884.39 4327.15,984.076 4366.68,1023.61 z " fill-rule="evenodd" fill="rgb(255,0,0)" stroke-width="5" stroke="rgb(0,0,0)" />
	<path d="M2876.1,2938.45 3300.37,2514.19 3512.5,2726.32 3286.82,2952 2889.65,2952 2876.1,2938.45 z " fill-rule="evenodd" fill="rgb(255,0,0)" stroke-width="5" stroke="rgb(0,0,0)" />
	<path d="M2661.14,4001.94 2449.01,3789.81 2873.27,3365.55 2900,3392.27 2900,3763.08 2661.14,4001.94 z " fill-rule="evenodd" fill="rgb(255,0,0)" stroke-width="5" stroke="rgb(0,0,0)" />
	<path d="M1164.9,6770.97 1345.93,6952 983.875,6952 1164.9,6770.97 z " fill-rule="evenodd" fill="rgb(255,0,0)" stroke-width="5" stroke="rgb(0,0,0)" />
	<path d="M4369.51,1447.87 4157.38,1235.74 4385.39,1007.73 4687.14,1130.24 4369.51,1447.87 z " fill-rule="evenodd" fill="rgb(255,0,0)" stroke-width="5" stroke="rgb(0,0,0)" />
	<path d="M3303.19,2938.45 3727.46,2514.19 3939.59,2726.32 3713.91,2952 3316.74,2952 3303.19,2938.45 z " fill-rule="evenodd" fill="rgb(255,0,0)" stroke-width="5" stroke="rgb(0,0,0)" />
	<path d="M2876.1,3789.81 2900,3765.91 2900,3813.71 2876.1,3789.81 z " fill-rule="evenodd" fill="rgb(255,0,0)" stroke-width="5" stroke="rgb(0,0,0)" />
	<path d="M2661.14,4853.3 2449.01,4641.17 2873.27,4216.9 2900,4243.63 2900,4614.44 2661.14,4853.3 z " fill-rule="evenodd" fill="rgb(255,0,0)" stroke-width="5" stroke="rgb(0,0,0)" />
	<path d="M1592,6770.97 1773.02,6952 1410.97,6952 1592,6770.97 z " fill-rule="evenodd" fill="rgb(255,0,0)" stroke-width="5" stroke="rgb(0,0,0)" />
	<path d="M4796.6,1447.87 4584.47,1235.74 4689.15,1131.06 4990.9,1253.58 4796.6,1447.87 z " fill-rule="evenodd" fill="rgb(255,0,0)" stroke-width="5" stroke="rgb(0,0,0)" />
	<path d="M3730.29,2938.45 4154.55,2514.19 4366.68,2726.32 4141,2952 3743.83,2952 3730.29,2938.45 z " fill-rule="evenodd" fill="rgb(255,0,0)" stroke-width="5" stroke="rgb(0,0,0)" />
	<path d="M3942.42,3150.59 3843.83,3052 4041,3052 3942.42,3150.59 z " fill-rule="evenodd" fill="rgb(255,0,0)" stroke-width="5" stroke="rgb(0,0,0)" />
	<path d="M3727.46,3365.55 3939.59,3577.68 3700,3817.27 3700,3393 3727.46,3365.55 z " fill-rule="evenodd" fill="rgb(255,0,0)" stroke-width="5" stroke="rgb(0,0,0)" />
	<path d="M2876.1,4641.17 2900,4617.27 2900,4665.07 2876.1,4641.17 z " fill-rule="evenodd" fill="rgb(255,0,0)" stroke-width="5" stroke="rgb(0,0,0)" />
	<path d="M2661.14,5704.66 2449.01,5492.52 2873.27,5068.26 2900,5094.99 2900,5465.8 2661.14,5704.66 z " fill-rule="evenodd" fill="rgb(255,0,0)" stroke-width="5" stroke="rgb(0,0,0)" />
	<path d="M2019.09,6770.97 2200.12,6952 1838.06,6952 2019.09,6770.97 z " fill-rule="evenodd" fill="rgb(255,0,0)" stroke-width="5" stroke="rgb(0,0,0)" />
	<path d="M5223.7,1447.87 5055.73,1279.9 5294.65,1376.92 5223.7,1447.87 z " fill-rule="evenodd" fill="rgb(255,0,0)" stroke-width="5" stroke="rgb(0,0,0)" />
	<path d="M4157.38,2938.45 4581.64,2514.19 4793.77,2726.32 4369.51,3150.59 4200,2981.08 4200,2952 4170.92,2952 4157.38,2938.45 z " fill-rule="evenodd" fill="rgb(255,0,0)" stroke-width="5" stroke="rgb(0,0,0)" />
	<path d="M3727.46,4216.9 3939.59,4429.03 3700,4668.62 3700,4244.36 3727.46,4216.9 z " fill-rule="evenodd" fill="rgb(255,0,0)" stroke-width="5" stroke="rgb(0,0,0)" />
	<path d="M2876.1,5492.52 2900,5468.62 2900,5516.42 2876.1,5492.52 z " fill-rule="evenodd" fill="rgb(255,0,0)" stroke-width="5" stroke="rgb(0,0,0)" />
	<path d="M3085.4,6131.75 2661.14,6556.01 2449.01,6343.88 2873.27,5919.62 2900,5946.34 2900,6052 3005.66,6052 3085.4,6131.75 z " fill-rule="evenodd" fill="rgb(255,0,0)" stroke-width="5" stroke="rgb(0,0,0)" />
	<path d="M2446.18,6770.97 2627.21,6952 2265.15,6952 2446.18,6770.97 z " fill-rule="evenodd" fill="rgb(255,0,0)" stroke-width="5" stroke="rgb(0,0,0)" />
	<path d="M4796.6,3150.59 4584.47,2938.45 5008.74,2514.19 5220.87,2726.32 4995.19,2952 4900,2952 4900,3047.19 4796.6,3150.59 z " fill-rule="evenodd" fill="rgb(255,0,0)" stroke-width="5" stroke="rgb(0,0,0)" />
	<path d="M3088.23,6556.01 2876.1,6343.88 3100,6119.98 3100,6544.25 3088.23,6556.01 z " fill-rule="evenodd" fill="rgb(255,0,0)" stroke-width="5" stroke="rgb(0,0,0)" />
	<path d="M2873.27,6770.97 2954.3,6852 2900,6852 2900,6952 2692.25,6952 2873.27,6770.97 z " fill-rule="evenodd" fill="rgb(255,0,0)" stroke-width="5" stroke="rgb(0,0,0)" />
	<path d="M5011.56,2938.45 5435.83,2514.19 5647.96,2726.32 5223.7,3150.59 5050,2976.89 5050,2952 5025.11,2952 5011.56,2938.45 z " fill-rule="evenodd" fill="rgb(255,0,0)" stroke-width="5" stroke="rgb(0,0,0)" />
	<path d="M4796.6,4001.94 4584.47,3789.81 4950,3424.28 4950,3848.55 4796.6,4001.94 z " fill-rule="evenodd" fill="rgb(255,0,0)" stroke-width="5" stroke="rgb(0,0,0)" />
	<path d="M5220.87,3577.68 5050,3748.55 5050,3406.81 5220.87,3577.68 z " fill-rule="evenodd" fill="rgb(255,0,0)" stroke-width="5" stroke="rgb(0,0,0)" />
	<path d="M6502.14,1874.97 6077.88,2299.23 5865.75,2087.1 6205.92,1746.92 6489.07,1861.89 6502.14,1874.97 z " fill-rule="evenodd" fill="rgb(255,0,0)" stroke-width="5" stroke="rgb(0,0,0)" />
	<path d="M5435.83,3365.55 5647.96,3577.68 5223.7,4001.94 5050,3828.25 5050,3751.37 5435.83,3365.55 z " fill-rule="evenodd" fill="rgb(255,0,0)" stroke-width="5" stroke="rgb(0,0,0)" />
	<path d="M4796.6,4853.3 4584.47,4641.17 4950,4275.64 4950,4699.9 4796.6,4853.3 z " fill-rule="evenodd" fill="rgb(255,0,0)" stroke-width="5" stroke="rgb(0,0,0)" />
	<path d="M5220.87,4429.03 5050,4599.9 5050,4258.17 5220.87,4429.03 z " fill-rule="evenodd" fill="rgb(255,0,0)" stroke-width="5" stroke="rgb(0,0,0)" />
	<path d="M6504.97,2299.23 6292.84,2087.1 6509.68,1870.26 6811.43,1992.78 6504.97,2299.23 z " fill-rule="evenodd" fill="rgb(255,0,0)" stroke-width="5" stroke="rgb(0,0,0)" />
	<path d="M5435.83,4216.9 5647.96,4429.03 5223.7,4853.3 5050,4679.6 5050,4602.73 5435.83,4216.9 z " fill-rule="evenodd" fill="rgb(255,0,0)" stroke-width="5" stroke="rgb(0,0,0)" />
	<path d="M5220.87,5280.39 5050,5451.26 5050,5109.52 5220.87,5280.39 z " fill-rule="evenodd" fill="rgb(255,0,0)" stroke-width="5" stroke="rgb(0,0,0)" />
	<path d="M6932.07,2299.23 6719.93,2087.1 6813.44,1993.59 7115.18,2116.11 6932.07,2299.23 z " fill-rule="evenodd" fill="rgb(255,0,0)" stroke-width="5" stroke="rgb(0,0,0)" />
	<path d="M5050,5530.96 5050,5454.09 5435.83,5068.26 5647.96,5280.39 5376.35,5552 5071.04,5552 5050,5530.96 z " fill-rule="evenodd" fill="rgb(255,0,0)" stroke-width="5" stroke="rgb(0,0,0)" />
	<path d="M7359.16,2299.23 7217.65,2157.72 7418.94,2239.45 7359.16,2299.23 z " fill-rule="evenodd" fill="rgb(255,0,0)" stroke-width="5" stroke="rgb(0,0,0)" />
	<path d="M5438.66,5492.52 5862.92,5068.26 6075.05,5280.39 5803.44,5552 5498.13,5552 5438.66,5492.52 z " fill-rule="evenodd" fill="rgb(255,0,0)" stroke-width="5" stroke="rgb(0,0,0)" />
	<path d="M5865.75,5492.52 6290.01,5068.26 6502.14,5280.39 6230.54,5552 5925.23,5552 5865.75,5492.52 z " fill-rule="evenodd" fill="rgb(255,0,0)" stroke-width="5" stroke="rgb(0,0,0)" />
	<path d="M6292.84,5492.52 6717.11,5068.26 6929.24,5280.39 6657.63,5552 6352.32,5552 6292.84,5492.52 z " fill-rule="evenodd" fill="rgb(255,0,0)" stroke-width="5" stroke="rgb(0,0,0)" />
	<path d="M8213.34,3150.59 8001.21,2938.45 8330.21,2609.46 8600,2719 8600,2763.93 8213.34,3150.59 z " fill-rule="evenodd" fill="rgb(255,0,0)" stroke-width="5" stroke="rgb(0,0,0)" />
	<path d="M6719.93,5492.52 7144.2,5068.26 7356.33,5280.39 7084.72,5552 6779.41,5552 6719.93,5492.52 z " fill-rule="evenodd" fill="rgb(255,0,0)" stroke-width="5" stroke="rgb(0,0,0)" />
	<path d="M8428.3,2938.45 8600,2766.76 8600,3110.15 8428.3,2938.45 z " fill-rule="evenodd" fill="rgb(255,0,0)" stroke-width="5" stroke="rgb(0,0,0)" />
	<path d="M8213.34,4001.94 8001.21,3789.81 8425.48,3365.55 8600,3540.07 8600,3615.29 8213.34,4001.94 z " fill-rule="evenodd" fill="rgb(255,0,0)" stroke-width="5" stroke="rgb(0,0,0)" />
	<path d="M7147.03,5492.52 7571.29,5068.26 7783.42,5280.39 7511.81,5552 7206.5,5552 7147.03,5492.52 z " fill-rule="evenodd" fill="rgb(255,0,0)" stroke-width="5" stroke="rgb(0,0,0)" />
	<path d="M8428.3,3789.81 8600,3618.11 8600,3961.51 8428.3,3789.81 z " fill-rule="evenodd" fill="rgb(255,0,0)" stroke-width="5" stroke="rgb(0,0,0)" />
	<path d="M8213.34,4853.3 8001.21,4641.17 8425.48,4216.9 8600,4391.43 8600,4466.64 8213.34,4853.3 z " fill-rule="evenodd" fill="rgb(255,0,0)" stroke-width="5" stroke="rgb(0,0,0)" />
	<path d="M7574.12,5492.52 7998.38,5068.26 8210.51,5280.39 7938.91,5552 7633.6,5552 7574.12,5492.52 z " fill-rule="evenodd" fill="rgb(255,0,0)" stroke-width="5" stroke="rgb(0,0,0)" />
	<path d="M8428.3,4641.17 8600,4469.47 8600,4812.86 8428.3,4641.17 z " fill-rule="evenodd" fill="rgb(255,0,0)" stroke-width="5" stroke="rgb(0,0,0)" />
	<path d="M8001.21,5492.52 8425.48,5068.26 8600,5242.78 8600,5318 8366,5552 8060.69,5552 8001.21,5492.52 z " fill-rule="evenodd" fill="rgb(255,0,0)" stroke-width="5" stroke="rgb(0,0,0)" />
	<path d="M8428.3,5492.52 8600,5320.83 8600,5552 8487.78,5552 8428.3,5492.52 z " fill-rule="evenodd" fill="rgb(255,0,0)" stroke-width="5" stroke="rgb(0,0,0)" />
	<polyline points="95,3157 519.264,3581.26 95,3157 519.264,2732.74 95,3157 " fill="none" stroke-width="100" stroke="rgb(0,0,0)" />
	<circle cx="95" cy="3157" r="-14.1421" fill="rgb(0,0,0)" />
	<circle cx="519.264" cy="3581.26" r="-14.1421" fill="rgb(0,0,0)" />
	<circle cx="95" cy="3157" r="-14.1421" fill="rgb(0,0,0)" />
	<circle cx="519.264" cy="2732.74" r="-14.1421" fill="rgb(0,0,0)" />
	<circle cx="95" cy="3157" r="-14.1421" fill="rgb(0,0,0)" />
	<polyline points="95,4090.38 95,3157 -371.69,3157 " fill="none" stroke-width="0.5" stroke="rgb(128,0,128)" />
</svg>
