<?xml version="1.0" standalone="no" ?>
<!DOCTYPE svg PUBLIC "-//W3C//DTD SVG 1.1//EN" "http://www.w3.org/Graphics/SVG/1.1/DTD/svg11.dtd">
<svg width="8700px" height="7052px" xmlns="http://www.w3.org/2000/svg" version="1.1" >
	<path d="M1998.64,2297.82 1574.38,2722.08 1786.51,2934.21 2210.78,2509.95 1998.64,2297.82 z " fill-rule="evenodd" fill="rgb(0,128,0)" stroke-width="5" stroke="rgb(0,0,0)" />
	<path d="M1998.64,3152 1574.38,3576.26 1786.51,3788.4 2210.78,3364.13 1998.64,3152 z " fill-rule="evenodd" fill="rgb(0,128,0)" stroke-width="5" stroke="rgb(0,0,0)" />
	<path d="M4552.71,3152 4128.45,3576.26 4340.58,3788.4 4764.85,3364.13 4552.71,3152 z " fill-rule="evenodd" fill="rgb(0,128,0)" stroke-width="5" stroke="rgb(0,0,0)" />
	<path d="M4552.71,3579.09 4128.45,4003.36 4340.58,4215.49 4764.85,3791.22 4552.71,3579.09 z " fill-rule="evenodd" fill="rgb(0,128,0)" stroke-width="5" stroke="rgb(0,0,0)" />
	<path d="M4552.71,4006.18 4128.45,4430.45 4340.58,4642.58 4764.85,4218.32 4552.71,4006.18 z " fill-rule="evenodd" fill="rgb(0,128,0)" stroke-width="5" stroke="rgb(0,0,0)" />
	<path d="M2850,2297.82 2425.74,2722.08 2637.87,2934.21 3062.13,2509.95 2850,2297.82 z " fill-rule="evenodd" fill="rgb(0,128,0)" stroke-width="5" stroke="rgb(0,0,0)" />
	<path d="M1998.64,1870.72 1574.38,2294.99 1786.51,2507.12 2210.78,2082.85 1998.64,1870.72 z " fill-rule="evenodd" fill="rgb(0,128,0)" stroke-width="5" stroke="rgb(0,0,0)" />
	<path d="M1998.64,3579.09 1574.38,4003.36 1786.51,4215.49 2210.78,3791.22 1998.64,3579.09 z " fill-rule="evenodd" fill="rgb(0,128,0)" stroke-width="5" stroke="rgb(0,0,0)" />
	<path d="M1147.29,1870.72 723.023,2294.99 935.155,2507.12 1359.42,2082.85 1147.29,1870.72 z " fill-rule="evenodd" fill="rgb(0,128,0)" stroke-width="5" stroke="rgb(0,0,0)" />
	<path d="M1147.29,2297.82 723.023,2722.08 935.155,2934.21 1359.42,2509.95 1147.29,2297.82 z " fill-rule="evenodd" fill="rgb(0,128,0)" stroke-width="5" stroke="rgb(0,0,0)" />
	<path d="M1147.29,3152 723.023,3576.26 935.155,3788.4 1359.42,3364.13 1147.29,3152 z " fill-rule="evenodd" fill="rgb(0,128,0)" stroke-width="5" stroke="rgb(0,0,0)" />
	<path d="M4552.71,2724.91 4128.45,3149.17 4340.58,3361.3 4764.85,2937.04 4552.71,2724.91 z " fill-rule="evenodd" fill="rgb(0,128,0)" stroke-width="5" stroke="rgb(0,0,0)" />
	<path d="M3701.36,2297.82 3277.09,2722.08 3489.22,2934.21 3913.49,2509.95 3701.36,2297.82 z " fill-rule="evenodd" fill="rgb(0,128,0)" stroke-width="5" stroke="rgb(0,0,0)" />
	<path d="M2850,1870.72 2425.74,2294.99 2637.87,2507.12 3062.13,2082.85 2850,1870.72 z " fill-rule="evenodd" fill="rgb(0,128,0)" stroke-width="5" stroke="rgb(0,0,0)" />
	<path d="M1998.64,4006.18 1574.38,4430.45 1786.51,4642.58 2210.78,4218.32 1998.64,4006.18 z " fill-rule="evenodd" fill="rgb(0,128,0)" stroke-width="5" stroke="rgb(0,0,0)" />
	<path d="M1147.29,3579.09 723.023,4003.36 935.155,4215.49 1359.42,3791.22 1147.29,3579.09 z " fill-rule="evenodd" fill="rgb(0,128,0)" stroke-width="5" stroke="rgb(0,0,0)" />
	<path d="M6255.43,3152 5831.16,3576.26 6043.29,3788.4 6467.56,3364.13 6255.43,3152 z " fill-rule="evenodd" fill="rgb(0,128,0)" stroke-width="5" stroke="rgb(0,0,0)" />
	<path d="M6255.43,3579.09 5831.16,4003.36 6043.29,4215.49 6467.56,3791.22 6255.43,3579.09 z " fill-rule="evenodd" fill="rgb(0,128,0)" stroke-width="5" stroke="rgb(0,0,0)" />
	<path d="M6255.43,4006.18 5831.16,4430.45 6043.29,4642.58 6467.56,4218.32 6255.43,4006.18 z " fill-rule="evenodd" fill="rgb(0,128,0)" stroke-width="5" stroke="rgb(0,0,0)" />
	<path d="M4552.71,2297.82 4128.45,2722.08 4340.58,2934.21 4764.85,2509.95 4552.71,2297.82 z " fill-rule="evenodd" fill="rgb(0,128,0)" stroke-width="5" stroke="rgb(0,0,0)" />
	<path d="M6255.43,4433.28 5831.16,4857.54 6043.29,5069.67 6467.56,4645.41 6255.43,4433.28 z " fill-rule="evenodd" fill="rgb(0,128,0)" stroke-width="5" stroke="rgb(0,0,0)" />
	<path d="M6255.43,4860.37 5831.16,5284.63 6043.29,5496.77 6467.56,5072.5 6255.43,4860.37 z " fill-rule="evenodd" fill="rgb(0,128,0)" stroke-width="5" stroke="rgb(0,0,0)" />
	<path d="M3701.36,1870.72 3277.09,2294.99 3489.22,2507.12 3913.49,2082.85 3701.36,1870.72 z " fill-rule="evenodd" fill="rgb(0,128,0)" stroke-width="5" stroke="rgb(0,0,0)" />
	<path d="M1998.64,4433.28 1574.38,4857.54 1786.51,5069.67 2210.78,4645.41 1998.64,4433.28 z " fill-rule="evenodd" fill="rgb(0,128,0)" stroke-width="5" stroke="rgb(0,0,0)" />
	<path d="M1147.29,4006.18 723.023,4430.45 935.155,4642.58 1359.42,4218.32 1147.29,4006.18 z " fill-rule="evenodd" fill="rgb(0,128,0)" stroke-width="5" stroke="rgb(0,0,0)" />
	<path d="M7106.78,3152 6682.52,3576.26 6894.65,3788.4 7318.91,3364.13 7106.78,3152 z " fill-rule="evenodd" fill="rgb(0,128,0)" stroke-width="5" stroke="rgb(0,0,0)" />
	<path d="M7106.78,3579.09 6682.52,4003.36 6894.65,4215.49 7318.91,3791.22 7106.78,3579.09 z " fill-rule="evenodd" fill="rgb(0,128,0)" stroke-width="5" stroke="rgb(0,0,0)" />
	<path d="M7106.78,4006.18 6682.52,4430.45 6894.65,4642.58 7318.91,4218.32 7106.78,4006.18 z " fill-rule="evenodd" fill="rgb(0,128,0)" stroke-width="5" stroke="rgb(0,0,0)" />
	<path d="M6255.43,2724.91 5831.16,3149.17 6043.29,3361.3 6467.56,2937.04 6255.43,2724.91 z " fill-rule="evenodd" fill="rgb(0,128,0)" stroke-width="5" stroke="rgb(0,0,0)" />
	<path d="M5404.07,2297.82 4979.81,2722.08 5191.94,2934.21 5616.2,2509.95 5404.07,2297.82 z " fill-rule="evenodd" fill="rgb(0,128,0)" stroke-width="5" stroke="rgb(0,0,0)" />
	<path d="M7106.78,4433.28 6682.52,4857.54 6894.65,5069.67 7318.91,4645.41 7106.78,4433.28 z " fill-rule="evenodd" fill="rgb(0,128,0)" stroke-width="5" stroke="rgb(0,0,0)" />
	<path d="M7106.78,4860.37 6682.52,5284.63 6894.65,5496.77 7318.91,5072.5 7106.78,4860.37 z " fill-rule="evenodd" fill="rgb(0,128,0)" stroke-width="5" stroke="rgb(0,0,0)" />
	<path d="M4552.71,1870.72 4128.45,2294.99 4340.58,2507.12 4764.85,2082.85 4552.71,1870.72 z " fill-rule="evenodd" fill="rgb(0,128,0)" stroke-width="5" stroke="rgb(0,0,0)" />
	<path d="M3701.36,1443.63 3277.09,1867.89 3489.22,2080.03 3913.49,1655.76 3701.36,1443.63 z " fill-rule="evenodd" fill="rgb(0,128,0)" stroke-width="5" stroke="rgb(0,0,0)" />
	<path d="M2850,1016.54 2425.74,1440.8 2637.87,1652.93 3062.13,1228.67 2850,1016.54 z " fill-rule="evenodd" fill="rgb(0,128,0)" stroke-width="5" stroke="rgb(0,0,0)" />
	<path d="M1998.64,4860.37 1574.38,5284.63 1786.51,5496.77 2210.78,5072.5 1998.64,4860.37 z " fill-rule="evenodd" fill="rgb(0,128,0)" stroke-width="5" stroke="rgb(0,0,0)" />
	<path d="M1147.29,4433.28 723.023,4857.54 935.155,5069.67 1359.42,4645.41 1147.29,4433.28 z " fill-rule="evenodd" fill="rgb(0,128,0)" stroke-width="5" stroke="rgb(0,0,0)" />
	<path d="M7958.14,3152 7533.88,3576.26 7746.01,3788.4 8170.27,3364.13 7958.14,3152 z " fill-rule="evenodd" fill="rgb(0,128,0)" stroke-width="5" stroke="rgb(0,0,0)" />
	<path d="M7958.14,3579.09 7533.88,4003.36 7746.01,4215.49 8170.27,3791.22 7958.14,3579.09 z " fill-rule="evenodd" fill="rgb(0,128,0)" stroke-width="5" stroke="rgb(0,0,0)" />
	<path d="M7958.14,4006.18 7533.88,4430.45 7746.01,4642.58 8170.27,4218.32 7958.14,4006.18 z " fill-rule="evenodd" fill="rgb(0,128,0)" stroke-width="5" stroke="rgb(0,0,0)" />
	<path d="M7106.78,2724.91 6682.52,3149.17 6894.65,3361.3 7318.91,2937.04 7106.78,2724.91 z " fill-rule="evenodd" fill="rgb(0,128,0)" stroke-width="5" stroke="rgb(0,0,0)" />
	<path d="M6255.43,2297.82 5831.16,2722.08 6043.29,2934.21 6467.56,2509.95 6255.43,2297.82 z " fill-rule="evenodd" fill="rgb(0,128,0)" stroke-width="5" stroke="rgb(0,0,0)" />
	<path d="M7958.14,4433.28 7533.88,4857.54 7746.01,5069.67 8170.27,4645.41 7958.14,4433.28 z " fill-rule="evenodd" fill="rgb(0,128,0)" stroke-width="5" stroke="rgb(0,0,0)" />
	<path d="M7958.14,4860.37 7533.88,5284.63 7746.01,5496.77 8170.27,5072.5 7958.14,4860.37 z " fill-rule="evenodd" fill="rgb(0,128,0)" stroke-width="5" stroke="rgb(0,0,0)" />
	<path d="M5404.07,1870.72 4979.81,2294.99 5191.94,2507.12 5616.2,2082.85 5404.07,1870.72 z " fill-rule="evenodd" fill="rgb(0,128,0)" stroke-width="5" stroke="rgb(0,0,0)" />
	<path d="M4552.71,1443.63 4128.45,1867.89 4340.58,2080.03 4764.85,1655.76 4552.71,1443.63 z " fill-rule="evenodd" fill="rgb(0,128,0)" stroke-width="5" stroke="rgb(0,0,0)" />
	<path d="M3701.36,1016.54 3277.09,1440.8 3489.22,1652.93 3913.49,1228.67 3701.36,1016.54 z " fill-rule="evenodd" fill="rgb(0,128,0)" stroke-width="5" stroke="rgb(0,0,0)" />
	<path d="M2850,589.445 2425.74,1013.71 2637.87,1225.84 3062.13,801.577 2850,589.445 z " fill-rule="evenodd" fill="rgb(0,128,0)" stroke-width="5" stroke="rgb(0,0,0)" />
	<path d="M1998.64,5287.46 1574.38,5711.73 1786.51,5923.86 2210.78,5499.59 1998.64,5287.46 z " fill-rule="evenodd" fill="rgb(0,128,0)" stroke-width="5" stroke="rgb(0,0,0)" />
	<path d="M1147.29,4860.37 723.023,5284.63 935.155,5496.77 1359.42,5072.5 1147.29,4860.37 z " fill-rule="evenodd" fill="rgb(0,128,0)" stroke-width="5" stroke="rgb(0,0,0)" />
	<path d="M7958.14,2724.91 7533.88,3149.17 7746.01,3361.3 8170.27,2937.04 7958.14,2724.91 z " fill-rule="evenodd" fill="rgb(0,128,0)" stroke-width="5" stroke="rgb(0,0,0)" />
	<path d="M7106.78,2297.82 6682.52,2722.08 6894.65,2934.21 7318.91,2509.95 7106.78,2297.82 z " fill-rule="evenodd" fill="rgb(0,128,0)" stroke-width="5" stroke="rgb(0,0,0)" />
	<path d="M6255.43,1870.72 5831.16,2294.99 6043.29,2507.12 6467.56,2082.85 6255.43,1870.72 z " fill-rule="evenodd" fill="rgb(0,128,0)" stroke-width="5" stroke="rgb(0,0,0)" />
	<path d="M5404.07,1443.63 4979.81,1867.89 5191.94,2080.03 5616.2,1655.76 5404.07,1443.63 z " fill-rule="evenodd" fill="rgb(0,128,0)" stroke-width="5" stroke="rgb(0,0,0)" />
	<path d="M2850,6141.65 2425.74,6565.91 2637.87,6778.04 3062.13,6353.78 2850,6141.65 z " fill-rule="evenodd" fill="rgb(0,128,0)" stroke-width="5" stroke="rgb(0,0,0)" />
	<path d="M1998.64,5714.55 1574.38,6138.82 1786.51,6350.95 2210.78,5926.69 1998.64,5714.55 z " fill-rule="evenodd" fill="rgb(0,128,0)" stroke-width="5" stroke="rgb(0,0,0)" />
	<path d="M1147.29,5287.46 723.023,5711.73 935.155,5923.86 1359.42,5499.59 1147.29,5287.46 z " fill-rule="evenodd" fill="rgb(0,128,0)" stroke-width="5" stroke="rgb(0,0,0)" />
	<path d="M1998.64,6141.65 1574.38,6565.91 1786.51,6778.04 2210.78,6353.78 1998.64,6141.65 z " fill-rule="evenodd" fill="rgb(0,128,0)" stroke-width="5" stroke="rgb(0,0,0)" />
	<path d="M1147.29,5714.55 723.023,6138.82 935.155,6350.95 1359.42,5926.69 1147.29,5714.55 z " fill-rule="evenodd" fill="rgb(0,128,0)" stroke-width="5" stroke="rgb(0,0,0)" />
	<path d="M1147.29,6141.65 723.023,6565.91 935.155,6778.04 1359.42,6353.78 1147.29,6141.65 z " fill-rule="evenodd" fill="rgb(0,128,0)" stroke-width="5" stroke="rgb(0,0,0)" />
	<path d="M3914.9,3365.55 3702.77,3577.68 4127.03,4001.94 4339.17,3789.81 3914.9,3365.55 z " fill-rule="evenodd" fill="rgb(0,128,0)" stroke-width="5" stroke="rgb(0,0,0)" />
	<path d="M3914.9,3792.64 3702.77,4004.77 4127.03,4429.03 4339.17,4216.9 3914.9,3792.64 z " fill-rule="evenodd" fill="rgb(0,128,0)" stroke-width="5" stroke="rgb(0,0,0)" />
	<path d="M3914.9,4219.73 3702.77,4431.86 4127.03,4856.13 4339.17,4644 3914.9,4219.73 z " fill-rule="evenodd" fill="rgb(0,128,0)" stroke-width="5" stroke="rgb(0,0,0)" />
	<path d="M2212.19,2511.36 2000.06,2723.49 2424.32,3147.76 2636.45,2935.63 2212.19,2511.36 z " fill-rule="evenodd" fill="rgb(0,128,0)" stroke-width="5" stroke="rgb(0,0,0)" />
	<path d="M2212.19,3365.55 2000.06,3577.68 2424.32,4001.94 2636.45,3789.81 2212.19,3365.55 z " fill-rule="evenodd" fill="rgb(0,128,0)" stroke-width="5" stroke="rgb(0,0,0)" />
	<path d="M2212.19,2084.27 2000.06,2296.4 2424.32,2720.66 2636.45,2508.53 2212.19,2084.27 z " fill-rule="evenodd" fill="rgb(0,128,0)" stroke-width="5" stroke="rgb(0,0,0)" />
	<path d="M2212.19,3792.64 2000.06,4004.77 2424.32,4429.03 2636.45,4216.9 2212.19,3792.64 z " fill-rule="evenodd" fill="rgb(0,128,0)" stroke-width="5" stroke="rgb(0,0,0)" />
	<path d="M1360.83,1657.18 1148.7,1869.31 1572.97,2293.57 1785.1,2081.44 1360.83,1657.18 z " fill-rule="evenodd" fill="rgb(0,128,0)" stroke-width="5" stroke="rgb(0,0,0)" />
	<path d="M1360.83,2084.27 1148.7,2296.4 1572.97,2720.66 1785.1,2508.53 1360.83,2084.27 z " fill-rule="evenodd" fill="rgb(0,128,0)" stroke-width="5" stroke="rgb(0,0,0)" />
	<path d="M1360.83,3365.55 1148.7,3577.68 1572.97,4001.94 1785.1,3789.81 1360.83,3365.55 z " fill-rule="evenodd" fill="rgb(0,128,0)" stroke-width="5" stroke="rgb(0,0,0)" />
	<path d="M5617.62,3365.55 5405.48,3577.68 5829.75,4001.94 6041.88,3789.81 5617.62,3365.55 z " fill-rule="evenodd" fill="rgb(0,128,0)" stroke-width="5" stroke="rgb(0,0,0)" />
	<path d="M5617.62,3792.64 5405.48,4004.77 5829.75,4429.03 6041.88,4216.9 5617.62,3792.64 z " fill-rule="evenodd" fill="rgb(0,128,0)" stroke-width="5" stroke="rgb(0,0,0)" />
	<path d="M5617.62,4219.73 5405.48,4431.86 5829.75,4856.13 6041.88,4644 5617.62,4219.73 z " fill-rule="evenodd" fill="rgb(0,128,0)" stroke-width="5" stroke="rgb(0,0,0)" />
	<path d="M5617.62,4646.82 5405.48,4858.96 5829.75,5283.22 6041.88,5071.09 5617.62,4646.82 z " fill-rule="evenodd" fill="rgb(0,128,0)" stroke-width="5" stroke="rgb(0,0,0)" />
	<path d="M3063.55,2084.27 2851.41,2296.4 3275.68,2720.66 3487.81,2508.53 3063.55,2084.27 z " fill-rule="evenodd" fill="rgb(0,128,0)" stroke-width="5" stroke="rgb(0,0,0)" />
	<path d="M2212.19,1657.18 2000.06,1869.31 2424.32,2293.57 2636.45,2081.44 2212.19,1657.18 z " fill-rule="evenodd" fill="rgb(0,128,0)" stroke-width="5" stroke="rgb(0,0,0)" />
	<path d="M2212.19,4219.73 2000.06,4431.86 2424.32,4856.13 2636.45,4644 2212.19,4219.73 z " fill-rule="evenodd" fill="rgb(0,128,0)" stroke-width="5" stroke="rgb(0,0,0)" />
	<path d="M1360.83,3792.64 1148.7,4004.77 1572.97,4429.03 1785.1,4216.9 1360.83,3792.64 z " fill-rule="evenodd" fill="rgb(0,128,0)" stroke-width="5" stroke="rgb(0,0,0)" />
	<path d="M509.477,1657.18 297.345,1869.31 721.609,2293.57 933.741,2081.44 509.477,1657.18 z " fill-rule="evenodd" fill="rgb(0,128,0)" stroke-width="5" stroke="rgb(0,0,0)" />
	<path d="M509.477,2084.27 297.345,2296.4 721.609,2720.66 933.741,2508.53 509.477,2084.27 z " fill-rule="evenodd" fill="rgb(0,128,0)" stroke-width="5" stroke="rgb(0,0,0)" />
	<path d="M509.477,3365.55 297.345,3577.68 721.609,4001.94 933.741,3789.81 509.477,3365.55 z " fill-rule="evenodd" fill="rgb(0,128,0)" stroke-width="5" stroke="rgb(0,0,0)" />
	<path d="M6468.97,3365.55 6256.84,3577.68 6681.1,4001.94 6893.24,3789.81 6468.97,3365.55 z " fill-rule="evenodd" fill="rgb(0,128,0)" stroke-width="5" stroke="rgb(0,0,0)" />
	<path d="M6468.97,3792.64 6256.84,4004.77 6681.1,4429.03 6893.24,4216.9 6468.97,3792.64 z " fill-rule="evenodd" fill="rgb(0,128,0)" stroke-width="5" stroke="rgb(0,0,0)" />
	<path d="M6468.97,4219.73 6256.84,4431.86 6681.1,4856.13 6893.24,4644 6468.97,4219.73 z " fill-rule="evenodd" fill="rgb(0,128,0)" stroke-width="5" stroke="rgb(0,0,0)" />
	<path d="M5617.62,2938.45 5405.48,3150.59 5829.75,3574.85 6041.88,3362.72 5617.62,2938.45 z " fill-rule="evenodd" fill="rgb(0,128,0)" stroke-width="5" stroke="rgb(0,0,0)" />
	<path d="M6468.97,4646.82 6256.84,4858.96 6681.1,5283.22 6893.24,5071.09 6468.97,4646.82 z " fill-rule="evenodd" fill="rgb(0,128,0)" stroke-width="5" stroke="rgb(0,0,0)" />
	<path d="M3914.9,2084.27 3702.77,2296.4 4127.03,2720.66 4339.17,2508.53 3914.9,2084.27 z " fill-rule="evenodd" fill="rgb(0,128,0)" stroke-width="5" stroke="rgb(0,0,0)" />
	<path d="M3063.55,1657.18 2851.41,1869.31 3275.68,2293.57 3487.81,2081.44 3063.55,1657.18 z " fill-rule="evenodd" fill="rgb(0,128,0)" stroke-width="5" stroke="rgb(0,0,0)" />
	<path d="M2212.19,4646.82 2000.06,4858.96 2424.32,5283.22 2636.45,5071.09 2212.19,4646.82 z " fill-rule="evenodd" fill="rgb(0,128,0)" stroke-width="5" stroke="rgb(0,0,0)" />
	<path d="M1360.83,4219.73 1148.7,4431.86 1572.97,4856.13 1785.1,4644 1360.83,4219.73 z " fill-rule="evenodd" fill="rgb(0,128,0)" stroke-width="5" stroke="rgb(0,0,0)" />
	<path d="M509.477,3792.64 297.345,4004.77 721.609,4429.03 933.741,4216.9 509.477,3792.64 z " fill-rule="evenodd" fill="rgb(0,128,0)" stroke-width="5" stroke="rgb(0,0,0)" />
	<path d="M7320.33,3365.55 7108.2,3577.68 7532.46,4001.94 7744.59,3789.81 7320.33,3365.55 z " fill-rule="evenodd" fill="rgb(0,128,0)" stroke-width="5" stroke="rgb(0,0,0)" />
	<path d="M7320.33,3792.64 7108.2,4004.77 7532.46,4429.03 7744.59,4216.9 7320.33,3792.64 z " fill-rule="evenodd" fill="rgb(0,128,0)" stroke-width="5" stroke="rgb(0,0,0)" />
	<path d="M7320.33,4219.73 7108.2,4431.86 7532.46,4856.13 7744.59,4644 7320.33,4219.73 z " fill-rule="evenodd" fill="rgb(0,128,0)" stroke-width="5" stroke="rgb(0,0,0)" />
	<path d="M6468.97,2938.45 6256.84,3150.59 6681.1,3574.85 6893.24,3362.72 6468.97,2938.45 z " fill-rule="evenodd" fill="rgb(0,128,0)" stroke-width="5" stroke="rgb(0,0,0)" />
	<path d="M5617.62,2511.36 5405.48,2723.49 5829.75,3147.76 6041.88,2935.63 5617.62,2511.36 z " fill-rule="evenodd" fill="rgb(0,128,0)" stroke-width="5" stroke="rgb(0,0,0)" />
	<path d="M7320.33,4646.82 7108.2,4858.96 7532.46,5283.22 7744.59,5071.09 7320.33,4646.82 z " fill-rule="evenodd" fill="rgb(0,128,0)" stroke-width="5" stroke="rgb(0,0,0)" />
	<path d="M4766.26,2084.27 4554.13,2296.4 4978.39,2720.66 5190.52,2508.53 4766.26,2084.27 z " fill-rule="evenodd" fill="rgb(0,128,0)" stroke-width="5" stroke="rgb(0,0,0)" />
	<path d="M3914.9,1657.18 3702.77,1869.31 4127.03,2293.57 4339.17,2081.44 3914.9,1657.18 z " fill-rule="evenodd" fill="rgb(0,128,0)" stroke-width="5" stroke="rgb(0,0,0)" />
	<path d="M2212.19,5073.92 2000.06,5286.05 2424.32,5710.31 2636.45,5498.18 2212.19,5073.92 z " fill-rule="evenodd" fill="rgb(0,128,0)" stroke-width="5" stroke="rgb(0,0,0)" />
	<path d="M1360.83,4646.82 1148.7,4858.96 1572.97,5283.22 1785.1,5071.09 1360.83,4646.82 z " fill-rule="evenodd" fill="rgb(0,128,0)" stroke-width="5" stroke="rgb(0,0,0)" />
	<path d="M509.477,4219.73 297.345,4431.86 721.609,4856.13 933.741,4644 509.477,4219.73 z " fill-rule="evenodd" fill="rgb(0,128,0)" stroke-width="5" stroke="rgb(0,0,0)" />
	<path d="M8171.69,3365.55 7959.55,3577.68 8383.82,4001.94 8595.95,3789.81 8171.69,3365.55 z " fill-rule="evenodd" fill="rgb(0,128,0)" stroke-width="5" stroke="rgb(0,0,0)" />
	<path d="M8171.69,3792.64 7959.55,4004.77 8383.82,4429.03 8595.95,4216.9 8171.69,3792.64 z " fill-rule="evenodd" fill="rgb(0,128,0)" stroke-width="5" stroke="rgb(0,0,0)" />
	<path d="M8171.69,4219.73 7959.55,4431.86 8383.82,4856.13 8595.95,4644 8171.69,4219.73 z " fill-rule="evenodd" fill="rgb(0,128,0)" stroke-width="5" stroke="rgb(0,0,0)" />
	<path d="M7320.33,2938.45 7108.2,3150.59 7532.46,3574.85 7744.59,3362.72 7320.33,2938.45 z " fill-rule="evenodd" fill="rgb(0,128,0)" stroke-width="5" stroke="rgb(0,0,0)" />
	<path d="M6468.97,2511.36 6256.84,2723.49 6681.1,3147.76 6893.24,2935.63 6468.97,2511.36 z " fill-rule="evenodd" fill="rgb(0,128,0)" stroke-width="5" stroke="rgb(0,0,0)" />
	<path d="M8171.69,4646.82 7959.55,4858.96 8383.82,5283.22 8595.95,5071.09 8171.69,4646.82 z " fill-rule="evenodd" fill="rgb(0,128,0)" stroke-width="5" stroke="rgb(0,0,0)" />
	<path d="M5617.62,2084.27 5405.48,2296.4 5829.75,2720.66 6041.88,2508.53 5617.62,2084.27 z " fill-rule="evenodd" fill="rgb(0,128,0)" stroke-width="5" stroke="rgb(0,0,0)" />
	<path d="M4766.26,1657.18 4554.13,1869.31 4978.39,2293.57 5190.52,2081.44 4766.26,1657.18 z " fill-rule="evenodd" fill="rgb(0,128,0)" stroke-width="5" stroke="rgb(0,0,0)" />
	<path d="M3914.9,1230.08 3702.77,1442.22 4127.03,1866.48 4339.17,1654.35 3914.9,1230.08 z " fill-rule="evenodd" fill="rgb(0,128,0)" stroke-width="5" stroke="rgb(0,0,0)" />
	<path d="M2212.19,5501.01 2000.06,5713.14 2424.32,6137.4 2636.45,5925.27 2212.19,5501.01 z " fill-rule="evenodd" fill="rgb(0,128,0)" stroke-width="5" stroke="rgb(0,0,0)" />
	<path d="M1360.83,5073.92 1148.7,5286.05 1572.97,5710.31 1785.1,5498.18 1360.83,5073.92 z " fill-rule="evenodd" fill="rgb(0,128,0)" stroke-width="5" stroke="rgb(0,0,0)" />
	<path d="M509.477,4646.82 297.345,4858.96 721.609,5283.22 933.741,5071.09 509.477,4646.82 z " fill-rule="evenodd" fill="rgb(0,128,0)" stroke-width="5" stroke="rgb(0,0,0)" />
	<path d="M8171.69,2938.45 7959.55,3150.59 8383.82,3574.85 8595.95,3362.72 8171.69,2938.45 z " fill-rule="evenodd" fill="rgb(0,128,0)" stroke-width="5" stroke="rgb(0,0,0)" />
	<path d="M7320.33,2511.36 7108.2,2723.49 7532.46,3147.76 7744.59,2935.63 7320.33,2511.36 z " fill-rule="evenodd" fill="rgb(0,128,0)" stroke-width="5" stroke="rgb(0,0,0)" />
	<path d="M6468.97,2084.27 6256.84,2296.4 6681.1,2720.66 6893.24,2508.53 6468.97,2084.27 z " fill-rule="evenodd" fill="rgb(0,128,0)" stroke-width="5" stroke="rgb(0,0,0)" />
	<path d="M5617.62,1657.18 5405.48,1869.31 5829.75,2293.57 6041.88,2081.44 5617.62,1657.18 z " fill-rule="evenodd" fill="rgb(0,128,0)" stroke-width="5" stroke="rgb(0,0,0)" />
	<path d="M4766.26,1230.08 4554.13,1442.22 4978.39,1866.48 5190.52,1654.35 4766.26,1230.08 z " fill-rule="evenodd" fill="rgb(0,128,0)" stroke-width="5" stroke="rgb(0,0,0)" />
	<path d="M2212.19,5928.1 2000.06,6140.23 2424.32,6564.5 2636.45,6352.37 2212.19,5928.1 z " fill-rule="evenodd" fill="rgb(0,128,0)" stroke-width="5" stroke="rgb(0,0,0)" />
	<path d="M1360.83,5501.01 1148.7,5713.14 1572.97,6137.4 1785.1,5925.27 1360.83,5501.01 z " fill-rule="evenodd" fill="rgb(0,128,0)" stroke-width="5" stroke="rgb(0,0,0)" />
	<path d="M509.477,5073.92 297.345,5286.05 721.609,5710.31 933.741,5498.18 509.477,5073.92 z " fill-rule="evenodd" fill="rgb(0,128,0)" stroke-width="5" stroke="rgb(0,0,0)" />
	<path d="M1360.83,5928.1 1148.7,6140.23 1572.97,6564.5 1785.1,6352.37 1360.83,5928.1 z " fill-rule="evenodd" fill="rgb(0,128,0)" stroke-width="5" stroke="rgb(0,0,0)" />
	<path d="M509.477,5501.01 297.345,5713.14 721.609,6137.4 933.741,5925.27 509.477,5501.01 z " fill-rule="evenodd" fill="rgb(0,128,0)" stroke-width="5" stroke="rgb(0,0,0)" />
	<path d="M509.477,5928.1 297.345,6140.23 721.609,6564.5 933.741,6352.37 509.477,5928.1 z " fill-rule="evenodd" fill="rgb(0,128,0)" stroke-width="5" stroke="rgb(0,0,0)" />
	<path d="M3701.36,3152 3913.49,3364.13 3700,3577.62 3700,3153.36 3701.36,3152 z " fill-rule="evenodd" fill="rgb(255,0,0)" stroke-width="5" stroke="rgb(0,0,0)" />
	<path d="M3701.36,3579.09 3913.49,3791.22 3700,4004.71 3700,3580.45 3701.36,3579.09 z " fill-rule="evenodd" fill="rgb(255,0,0)" stroke-width="5" stroke="rgb(0,0,0)" />
	<path d="M3701.36,4006.18 3913.49,4218.32 3700,4431.81 3700,4007.54 3701.36,4006.18 z " fill-rule="evenodd" fill="rgb(255,0,0)" stroke-width="5" stroke="rgb(0,0,0)" />
	<path d="M2637.87,3361.3 2425.74,3149.17 2850,2724.91 3062.13,2937.04 3047.17,2952 2850,2952 2850,3149.17 2637.87,3361.3 z " fill-rule="evenodd" fill="rgb(255,0,0)" stroke-width="5" stroke="rgb(0,0,0)" />
	<path d="M2637.87,3788.4 2425.74,3576.26 2850,3152 2900,3202 2900,3526.26 2637.87,3788.4 z " fill-rule="evenodd" fill="rgb(255,0,0)" stroke-width="5" stroke="rgb(0,0,0)" />
	<path d="M2637.87,4215.49 2425.74,4003.36 2850,3579.09 2900,3629.09 2900,3953.36 2637.87,4215.49 z " fill-rule="evenodd" fill="rgb(255,0,0)" stroke-width="5" stroke="rgb(0,0,0)" />
	<path d="M1998.64,2724.91 2210.78,2937.04 2050,3097.82 2050,2952 1771.55,2952 1998.64,2724.91 z " fill-rule="evenodd" fill="rgb(255,0,0)" stroke-width="5" stroke="rgb(0,0,0)" />
	<path d="M1786.51,3361.3 1577.21,3152 1995.82,3152 1786.51,3361.3 z " fill-rule="evenodd" fill="rgb(255,0,0)" stroke-width="5" stroke="rgb(0,0,0)" />
	<path d="M3701.36,2724.91 3913.49,2937.04 3898.53,2952 3474.26,2952 3701.36,2724.91 z " fill-rule="evenodd" fill="rgb(255,0,0)" stroke-width="5" stroke="rgb(0,0,0)" />
	<path d="M3700,3150.53 3700,3052 3798.53,3052 3700,3150.53 z " fill-rule="evenodd" fill="rgb(255,0,0)" stroke-width="5" stroke="rgb(0,0,0)" />
	<path d="M4128.45,4857.54 4552.71,4433.28 4764.85,4645.41 4458.25,4952 4222.91,4952 4128.45,4857.54 z " fill-rule="evenodd" fill="rgb(255,0,0)" stroke-width="5" stroke="rgb(0,0,0)" />
	<path d="M4552.71,4860.37 4644.34,4952 4461.08,4952 4552.71,4860.37 z " fill-rule="evenodd" fill="rgb(255,0,0)" stroke-width="5" stroke="rgb(0,0,0)" />
	<path d="M3701.36,4433.28 3913.49,4645.41 3700,4858.9 3700,4434.63 3701.36,4433.28 z " fill-rule="evenodd" fill="rgb(255,0,0)" stroke-width="5" stroke="rgb(0,0,0)" />
	<path d="M2637.87,4642.58 2425.74,4430.45 2850,4006.18 2900,4056.18 2900,4380.45 2637.87,4642.58 z " fill-rule="evenodd" fill="rgb(255,0,0)" stroke-width="5" stroke="rgb(0,0,0)" />
	<path d="M1359.42,1655.76 935.155,2080.03 723.023,1867.89 1088.92,1502 1205.66,1502 1359.42,1655.76 z " fill-rule="evenodd" fill="rgb(255,0,0)" stroke-width="5" stroke="rgb(0,0,0)" />
	<path d="M1147.29,2724.91 1359.42,2937.04 1344.46,2952 920.194,2952 1147.29,2724.91 z " fill-rule="evenodd" fill="rgb(255,0,0)" stroke-width="5" stroke="rgb(0,0,0)" />
	<path d="M935.155,3361.3 725.851,3152 1144.46,3152 935.155,3361.3 z " fill-rule="evenodd" fill="rgb(255,0,0)" stroke-width="5" stroke="rgb(0,0,0)" />
	<path d="M5404.07,3152 5616.2,3364.13 5191.94,3788.4 5050,3646.46 5050,3506.07 5404.07,3152 z " fill-rule="evenodd" fill="rgb(255,0,0)" stroke-width="5" stroke="rgb(0,0,0)" />
	<path d="M5404.07,3579.09 5616.2,3791.22 5191.94,4215.49 5050,4073.55 5050,3933.16 5404.07,3579.09 z " fill-rule="evenodd" fill="rgb(255,0,0)" stroke-width="5" stroke="rgb(0,0,0)" />
	<path d="M5404.07,4006.18 5616.2,4218.32 5191.94,4642.58 5050,4500.64 5050,4360.25 5404.07,4006.18 z " fill-rule="evenodd" fill="rgb(255,0,0)" stroke-width="5" stroke="rgb(0,0,0)" />
	<path d="M5404.07,4433.28 5616.2,4645.41 5191.94,5069.67 5050,4927.74 5050,4787.35 5404.07,4433.28 z " fill-rule="evenodd" fill="rgb(255,0,0)" stroke-width="5" stroke="rgb(0,0,0)" />
	<path d="M5404.07,4860.37 5616.2,5072.5 5191.94,5496.77 5050,5354.83 5050,5214.44 5404.07,4860.37 z " fill-rule="evenodd" fill="rgb(255,0,0)" stroke-width="5" stroke="rgb(0,0,0)" />
	<path d="M2210.78,1655.76 1786.51,2080.03 1574.38,1867.89 1840.27,1602 2150,1602 2150,1594.99 2210.78,1655.76 z " fill-rule="evenodd" fill="rgb(255,0,0)" stroke-width="5" stroke="rgb(0,0,0)" />
	<path d="M5404.07,5287.46 5616.2,5499.59 5563.8,5552 5139.53,5552 5404.07,5287.46 z " fill-rule="evenodd" fill="rgb(255,0,0)" stroke-width="5" stroke="rgb(0,0,0)" />
	<path d="M3701.36,4860.37 3792.99,4952 3700,4952 3700,4861.73 3701.36,4860.37 z " fill-rule="evenodd" fill="rgb(255,0,0)" stroke-width="5" stroke="rgb(0,0,0)" />
	<path d="M2637.87,5069.67 2425.74,4857.54 2850,4433.28 2900,4483.28 2900,4807.54 2637.87,5069.67 z " fill-rule="evenodd" fill="rgb(255,0,0)" stroke-width="5" stroke="rgb(0,0,0)" />
	<path d="M935.155,1652.93 784.221,1502 1086.09,1502 935.155,1652.93 z " fill-rule="evenodd" fill="rgb(255,0,0)" stroke-width="5" stroke="rgb(0,0,0)" />
	<path d="M100,1636.73 100,1602 134.732,1602 100,1636.73 z " fill-rule="evenodd" fill="rgb(255,0,0)" stroke-width="5" stroke="rgb(0,0,0)" />
	<path d="M137.56,1602 454.3,1602 508.062,1655.76 100,2063.82 100,1639.56 137.56,1602 z " fill-rule="evenodd" fill="rgb(255,0,0)" stroke-width="5" stroke="rgb(0,0,0)" />
	<path d="M295.93,1870.72 508.062,2082.85 100,2490.92 100,2066.65 295.93,1870.72 z " fill-rule="evenodd" fill="rgb(255,0,0)" stroke-width="5" stroke="rgb(0,0,0)" />
	<path d="M295.93,2297.82 508.062,2509.95 100,2918.01 100,2493.75 295.93,2297.82 z " fill-rule="evenodd" fill="rgb(255,0,0)" stroke-width="5" stroke="rgb(0,0,0)" />
	<path d="M295.93,2724.91 508.062,2937.04 493.102,2952 100,2952 100,2920.84 295.93,2724.91 z " fill-rule="evenodd" fill="rgb(255,0,0)" stroke-width="5" stroke="rgb(0,0,0)" />
	<path d="M100,3345.1 100,3152 293.102,3152 100,3345.1 z " fill-rule="evenodd" fill="rgb(255,0,0)" stroke-width="5" stroke="rgb(0,0,0)" />
	<path d="M295.93,3152 508.062,3364.13 100,3772.19 100,3347.93 295.93,3152 z " fill-rule="evenodd" fill="rgb(255,0,0)" stroke-width="5" stroke="rgb(0,0,0)" />
	<path d="M5404.07,2724.91 5616.2,2937.04 5191.94,3361.3 5050,3219.37 5050,3078.98 5404.07,2724.91 z " fill-rule="evenodd" fill="rgb(255,0,0)" stroke-width="5" stroke="rgb(0,0,0)" />
	<path d="M3062.13,1655.76 2637.87,2080.03 2425.74,1867.89 2850,1443.63 2950,1543.63 2950,1602 3008.37,1602 3062.13,1655.76 z " fill-rule="evenodd" fill="rgb(255,0,0)" stroke-width="5" stroke="rgb(0,0,0)" />
	<path d="M6255.43,5287.46 6467.56,5499.59 6415.15,5552 5990.89,5552 6255.43,5287.46 z " fill-rule="evenodd" fill="rgb(255,0,0)" stroke-width="5" stroke="rgb(0,0,0)" />
	<path d="M1786.51,1652.93 1735.58,1602 1837.45,1602 1786.51,1652.93 z " fill-rule="evenodd" fill="rgb(255,0,0)" stroke-width="5" stroke="rgb(0,0,0)" />
	<path d="M2210.78,1228.67 2150,1289.45 2150,1167.89 2210.78,1228.67 z " fill-rule="evenodd" fill="rgb(255,0,0)" stroke-width="5" stroke="rgb(0,0,0)" />
	<path d="M2637.87,5496.77 2425.74,5284.63 2850,4860.37 2900,4910.37 2900,5234.63 2637.87,5496.77 z " fill-rule="evenodd" fill="rgb(255,0,0)" stroke-width="5" stroke="rgb(0,0,0)" />
	<path d="M295.93,3579.09 508.062,3791.22 100,4199.29 100,3775.02 295.93,3579.09 z " fill-rule="evenodd" fill="rgb(255,0,0)" stroke-width="5" stroke="rgb(0,0,0)" />
	<path d="M7106.78,5287.46 7318.91,5499.59 7266.51,5552 6842.25,5552 7106.78,5287.46 z " fill-rule="evenodd" fill="rgb(255,0,0)" stroke-width="5" stroke="rgb(0,0,0)" />
	<path d="M2210.78,801.577 2150,862.353 2150,740.802 2210.78,801.577 z " fill-rule="evenodd" fill="rgb(255,0,0)" stroke-width="5" stroke="rgb(0,0,0)" />
	<path d="M2637.87,5923.86 2425.74,5711.73 2850,5287.46 2900,5337.46 2900,5661.73 2637.87,5923.86 z " fill-rule="evenodd" fill="rgb(255,0,0)" stroke-width="5" stroke="rgb(0,0,0)" />
	<path d="M295.93,4006.18 508.062,4218.32 100,4626.38 100,4202.12 295.93,4006.18 z " fill-rule="evenodd" fill="rgb(255,0,0)" stroke-width="5" stroke="rgb(0,0,0)" />
	<path d="M7958.14,5287.46 8170.27,5499.59 8117.87,5552 7693.6,5552 7958.14,5287.46 z " fill-rule="evenodd" fill="rgb(255,0,0)" stroke-width="5" stroke="rgb(0,0,0)" />
	<path d="M2210.78,374.485 2150,435.26 2150,313.709 2210.78,374.485 z " fill-rule="evenodd" fill="rgb(255,0,0)" stroke-width="5" stroke="rgb(0,0,0)" />
	<path d="M2637.87,6350.95 2425.74,6138.82 2850,5714.55 2900,5764.55 2900,6052 2936.82,6052 2637.87,6350.95 z " fill-rule="evenodd" fill="rgb(255,0,0)" stroke-width="5" stroke="rgb(0,0,0)" />
	<path d="M295.93,4433.28 508.062,4645.41 100,5053.47 100,4629.21 295.93,4433.28 z " fill-rule="evenodd" fill="rgb(255,0,0)" stroke-width="5" stroke="rgb(0,0,0)" />
	<path d="M8597.36,3788.4 8385.23,3576.26 8600,3361.5 8600,3785.76 8597.36,3788.4 z " fill-rule="evenodd" fill="rgb(255,0,0)" stroke-width="5" stroke="rgb(0,0,0)" />
	<path d="M8597.36,4215.49 8385.23,4003.36 8600,3788.59 8600,4212.85 8597.36,4215.49 z " fill-rule="evenodd" fill="rgb(255,0,0)" stroke-width="5" stroke="rgb(0,0,0)" />
	<path d="M8597.36,4642.58 8385.23,4430.45 8600,4215.68 8600,4639.95 8597.36,4642.58 z " fill-rule="evenodd" fill="rgb(255,0,0)" stroke-width="5" stroke="rgb(0,0,0)" />
	<path d="M8597.36,5069.67 8385.23,4857.54 8600,4642.77 8600,5067.04 8597.36,5069.67 z " fill-rule="evenodd" fill="rgb(255,0,0)" stroke-width="5" stroke="rgb(0,0,0)" />
	<path d="M8597.36,5496.77 8385.23,5284.63 8600,5069.87 8600,5494.13 8597.36,5496.77 z " fill-rule="evenodd" fill="rgb(255,0,0)" stroke-width="5" stroke="rgb(0,0,0)" />
	<path d="M8600,5496.96 8600,5552 8544.96,5552 8600,5496.96 z " fill-rule="evenodd" fill="rgb(255,0,0)" stroke-width="5" stroke="rgb(0,0,0)" />
	<path d="M4764.85,1228.67 4340.58,1652.93 4128.45,1440.8 4510.66,1058.59 4652.26,1116.08 4764.85,1228.67 z " fill-rule="evenodd" fill="rgb(255,0,0)" stroke-width="5" stroke="rgb(0,0,0)" />
	<path d="M3601.4,689.398 3903.15,811.917 3489.22,1225.84 3354.27,1090.88 3459.56,831.245 3601.4,689.398 z " fill-rule="evenodd" fill="rgb(255,0,0)" stroke-width="5" stroke="rgb(0,0,0)" />
	<path d="M3277.09,1013.71 3278.77,1012.03 3277.8,1014.42 3277.09,1013.71 z " fill-rule="evenodd" fill="rgb(255,0,0)" stroke-width="5" stroke="rgb(0,0,0)" />
	<path d="M2637.87,798.749 2425.74,586.617 2692.37,319.982 2994.21,442.407 2637.87,798.749 z " fill-rule="evenodd" fill="rgb(255,0,0)" stroke-width="5" stroke="rgb(0,0,0)" />
	<path d="M295.93,4860.37 508.062,5072.5 100,5480.56 100,5056.3 295.93,4860.37 z " fill-rule="evenodd" fill="rgb(255,0,0)" stroke-width="5" stroke="rgb(0,0,0)" />
	<path d="M8597.36,3361.3 8385.23,3149.17 8600,2934.4 8600,3358.67 8597.36,3361.3 z " fill-rule="evenodd" fill="rgb(255,0,0)" stroke-width="5" stroke="rgb(0,0,0)" />
	<path d="M7746.01,2934.21 7533.88,2722.08 7843.94,2412.01 8145.69,2534.53 7746.01,2934.21 z " fill-rule="evenodd" fill="rgb(255,0,0)" stroke-width="5" stroke="rgb(0,0,0)" />
	<path d="M6894.65,2507.12 6682.52,2294.99 6934.68,2042.82 7236.43,2165.34 6894.65,2507.12 z " fill-rule="evenodd" fill="rgb(255,0,0)" stroke-width="5" stroke="rgb(0,0,0)" />
	<path d="M6043.29,2080.03 5831.16,1867.89 6025.42,1673.63 6327.17,1796.15 6043.29,2080.03 z " fill-rule="evenodd" fill="rgb(255,0,0)" stroke-width="5" stroke="rgb(0,0,0)" />
	<path d="M5191.94,1652.93 4979.81,1440.8 5116.16,1304.44 5417.91,1426.96 5191.94,1652.93 z " fill-rule="evenodd" fill="rgb(255,0,0)" stroke-width="5" stroke="rgb(0,0,0)" />
	<path d="M4340.58,1225.84 4128.45,1013.71 4206.91,935.253 4508.65,1057.77 4340.58,1225.84 z " fill-rule="evenodd" fill="rgb(255,0,0)" stroke-width="5" stroke="rgb(0,0,0)" />
	<path d="M3277.09,586.617 3298.06,565.647 3437,622 3401.06,710.586 3277.09,586.617 z " fill-rule="evenodd" fill="rgb(255,0,0)" stroke-width="5" stroke="rgb(0,0,0)" />
	<path d="M3489.22,798.749 3477.49,787.016 3529,660 3599.39,688.581 3489.22,798.749 z " fill-rule="evenodd" fill="rgb(255,0,0)" stroke-width="5" stroke="rgb(0,0,0)" />
	<path d="M2637.87,371.656 2513.74,247.533 2690.36,319.166 2637.87,371.656 z " fill-rule="evenodd" fill="rgb(255,0,0)" stroke-width="5" stroke="rgb(0,0,0)" />
	<path d="M2850,6568.74 3062.13,6780.87 2991,6852 2900,6852 2900,6943 2891,6952 2466.74,6952 2850,6568.74 z " fill-rule="evenodd" fill="rgb(255,0,0)" stroke-width="5" stroke="rgb(0,0,0)" />
	<path d="M295.93,5287.46 508.062,5499.59 100,5907.66 100,5483.39 295.93,5287.46 z " fill-rule="evenodd" fill="rgb(255,0,0)" stroke-width="5" stroke="rgb(0,0,0)" />
	<path d="M8597.36,2934.21 8385.23,2722.08 8449.44,2657.87 8600,2719 8600,2931.58 8597.36,2934.21 z " fill-rule="evenodd" fill="rgb(255,0,0)" stroke-width="5" stroke="rgb(0,0,0)" />
	<path d="M7746.01,2507.12 7533.88,2294.99 7540.18,2288.68 7841.93,2411.2 7746.01,2507.12 z " fill-rule="evenodd" fill="rgb(255,0,0)" stroke-width="5" stroke="rgb(0,0,0)" />
	<path d="M6894.65,2080.03 6804.65,1990.03 6932.67,2042.01 6894.65,2080.03 z " fill-rule="evenodd" fill="rgb(255,0,0)" stroke-width="5" stroke="rgb(0,0,0)" />
	<path d="M1998.64,6568.74 2210.78,6780.87 2039.65,6952 1615.38,6952 1998.64,6568.74 z " fill-rule="evenodd" fill="rgb(255,0,0)" stroke-width="5" stroke="rgb(0,0,0)" />
	<path d="M295.93,5714.55 508.062,5926.69 100,6334.75 100,5910.49 295.93,5714.55 z " fill-rule="evenodd" fill="rgb(255,0,0)" stroke-width="5" stroke="rgb(0,0,0)" />
	<path d="M1147.29,6568.74 1359.42,6780.87 1188.29,6952 764.027,6952 1147.29,6568.74 z " fill-rule="evenodd" fill="rgb(255,0,0)" stroke-width="5" stroke="rgb(0,0,0)" />
	<path d="M295.93,6141.65 508.062,6353.78 100,6761.84 100,6337.58 295.93,6141.65 z " fill-rule="evenodd" fill="rgb(255,0,0)" stroke-width="5" stroke="rgb(0,0,0)" />
	<path d="M295.93,6568.74 508.062,6780.87 336.934,6952 100,6952 100,6764.67 295.93,6568.74 z " fill-rule="evenodd" fill="rgb(255,0,0)" stroke-width="5" stroke="rgb(0,0,0)" />
	<path d="M3063.55,2938.45 3077.09,2952 3050,2952 3063.55,2938.45 z " fill-rule="evenodd" fill="rgb(255,0,0)" stroke-width="5" stroke="rgb(0,0,0)" />
	<path d="M2852.83,3152 2900,3152 2900,3199.17 2852.83,3152 z " fill-rule="evenodd" fill="rgb(255,0,0)" stroke-width="5" stroke="rgb(0,0,0)" />
	<path d="M2851.41,3577.68 2900,3529.09 2900,3626.26 2851.41,3577.68 z " fill-rule="evenodd" fill="rgb(255,0,0)" stroke-width="5" stroke="rgb(0,0,0)" />
	<path d="M2851.41,4004.77 2900,3956.18 2900,4053.36 2851.41,4004.77 z " fill-rule="evenodd" fill="rgb(255,0,0)" stroke-width="5" stroke="rgb(0,0,0)" />
	<path d="M2212.19,2938.45 2636.45,3362.72 2424.32,3574.85 2001.47,3152 2050,3152 2050,3100.64 2212.19,2938.45 z " fill-rule="evenodd" fill="rgb(255,0,0)" stroke-width="5" stroke="rgb(0,0,0)" />
	<path d="M4554.13,3577.68 4766.26,3365.55 4950,3549.29 4950,3973.55 4554.13,3577.68 z " fill-rule="evenodd" fill="rgb(255,0,0)" stroke-width="5" stroke="rgb(0,0,0)" />
	<path d="M5190.52,3789.81 5050,3930.33 5050,3649.29 5190.52,3789.81 z " fill-rule="evenodd" fill="rgb(255,0,0)" stroke-width="5" stroke="rgb(0,0,0)" />
	<path d="M4554.13,4004.77 4766.26,3792.64 4950,3976.38 4950,4400.64 4554.13,4004.77 z " fill-rule="evenodd" fill="rgb(255,0,0)" stroke-width="5" stroke="rgb(0,0,0)" />
	<path d="M5190.52,4216.9 5050,4357.43 5050,4076.38 5190.52,4216.9 z " fill-rule="evenodd" fill="rgb(255,0,0)" stroke-width="5" stroke="rgb(0,0,0)" />
	<path d="M4554.13,4431.86 4766.26,4219.73 4950,4403.47 4950,4827.74 4554.13,4431.86 z " fill-rule="evenodd" fill="rgb(255,0,0)" stroke-width="5" stroke="rgb(0,0,0)" />
	<path d="M5190.52,4644 5050,4784.52 5050,4503.47 5190.52,4644 z " fill-rule="evenodd" fill="rgb(255,0,0)" stroke-width="5" stroke="rgb(0,0,0)" />
	<path d="M3914.9,2938.45 3928.45,2952 3901.36,2952 3914.9,2938.45 z " fill-rule="evenodd" fill="rgb(255,0,0)" stroke-width="5" stroke="rgb(0,0,0)" />
	<path d="M4339.17,3362.72 4127.03,3574.85 3702.77,3150.59 3801.36,3052 4028.45,3052 4339.17,3362.72 z " fill-rule="evenodd" fill="rgb(255,0,0)" stroke-width="5" stroke="rgb(0,0,0)" />
	<path d="M2851.41,2723.49 3063.55,2511.36 3487.81,2935.63 3471.44,2952 3079.92,2952 2851.41,2723.49 z " fill-rule="evenodd" fill="rgb(255,0,0)" stroke-width="5" stroke="rgb(0,0,0)" />
	<path d="M4554.13,4858.96 4766.26,4646.82 4950,4830.56 4950,4952 4647.17,4952 4554.13,4858.96 z " fill-rule="evenodd" fill="rgb(255,0,0)" stroke-width="5" stroke="rgb(0,0,0)" />
	<path d="M5190.52,5071.09 5050,5211.61 5050,4930.56 5190.52,5071.09 z " fill-rule="evenodd" fill="rgb(255,0,0)" stroke-width="5" stroke="rgb(0,0,0)" />
	<path d="M5190.52,5498.18 5136.7,5552 5050,5552 5050,5357.66 5190.52,5498.18 z " fill-rule="evenodd" fill="rgb(255,0,0)" stroke-width="5" stroke="rgb(0,0,0)" />
	<path d="M3702.77,4858.96 3914.9,4646.82 4220.08,4952 3795.82,4952 3702.77,4858.96 z " fill-rule="evenodd" fill="rgb(255,0,0)" stroke-width="5" stroke="rgb(0,0,0)" />
	<path d="M2851.41,4431.86 2900,4383.28 2900,4480.45 2851.41,4431.86 z " fill-rule="evenodd" fill="rgb(255,0,0)" stroke-width="5" stroke="rgb(0,0,0)" />
	<path d="M1148.7,2723.49 1360.83,2511.36 1785.1,2935.63 1768.72,2952 1377.21,2952 1148.7,2723.49 z " fill-rule="evenodd" fill="rgb(255,0,0)" stroke-width="5" stroke="rgb(0,0,0)" />
	<path d="M1360.83,2938.45 1374.38,2952 1347.29,2952 1360.83,2938.45 z " fill-rule="evenodd" fill="rgb(255,0,0)" stroke-width="5" stroke="rgb(0,0,0)" />
	<path d="M1785.1,3362.72 1572.97,3574.85 1150.12,3152 1574.38,3152 1785.1,3362.72 z " fill-rule="evenodd" fill="rgb(255,0,0)" stroke-width="5" stroke="rgb(0,0,0)" />
	<path d="M4554.13,3150.59 4766.26,2938.45 4950,3122.19 4950,3546.46 4554.13,3150.59 z " fill-rule="evenodd" fill="rgb(255,0,0)" stroke-width="5" stroke="rgb(0,0,0)" />
	<path d="M5190.52,3362.72 5050,3503.24 5050,3222.19 5190.52,3362.72 z " fill-rule="evenodd" fill="rgb(255,0,0)" stroke-width="5" stroke="rgb(0,0,0)" />
	<path d="M3702.77,2723.49 3914.9,2511.36 4339.17,2935.63 4127.03,3147.76 4031.28,3052 4200,3052 4200,2952 3931.28,2952 3702.77,2723.49 z " fill-rule="evenodd" fill="rgb(255,0,0)" stroke-width="5" stroke="rgb(0,0,0)" />
	<path d="M5405.48,5286.05 5617.62,5073.92 6041.88,5498.18 5988.06,5552 5671.44,5552 5405.48,5286.05 z " fill-rule="evenodd" fill="rgb(255,0,0)" stroke-width="5" stroke="rgb(0,0,0)" />
	<path d="M5617.62,5501.01 5668.61,5552 5566.62,5552 5617.62,5501.01 z " fill-rule="evenodd" fill="rgb(255,0,0)" stroke-width="5" stroke="rgb(0,0,0)" />
	<path d="M2851.41,4858.96 2900,4810.37 2900,4907.54 2851.41,4858.96 z " fill-rule="evenodd" fill="rgb(255,0,0)" stroke-width="5" stroke="rgb(0,0,0)" />
	<path d="M1785.1,1654.35 1572.97,1866.48 1208.49,1502 1400,1502 1400,1602 1732.75,1602 1785.1,1654.35 z " fill-rule="evenodd" fill="rgb(255,0,0)" stroke-width="5" stroke="rgb(0,0,0)" />
	<path d="M933.741,1654.35 721.609,1866.48 457.129,1602 700,1602 700,1502 781.393,1502 933.741,1654.35 z " fill-rule="evenodd" fill="rgb(255,0,0)" stroke-width="5" stroke="rgb(0,0,0)" />
	<path d="M297.345,2723.49 509.477,2511.36 933.741,2935.63 917.366,2952 525.851,2952 297.345,2723.49 z " fill-rule="evenodd" fill="rgb(255,0,0)" stroke-width="5" stroke="rgb(0,0,0)" />
	<path d="M509.477,2938.45 523.023,2952 495.93,2952 509.477,2938.45 z " fill-rule="evenodd" fill="rgb(255,0,0)" stroke-width="5" stroke="rgb(0,0,0)" />
	<path d="M933.741,3362.72 721.609,3574.85 298.759,3152 723.023,3152 933.741,3362.72 z " fill-rule="evenodd" fill="rgb(255,0,0)" stroke-width="5" stroke="rgb(0,0,0)" />
	<path d="M4554.13,2723.49 4766.26,2511.36 5190.52,2935.63 5050,3076.15 5050,2952 4900,2952 4900,3052 4950,3052 4950,3119.37 4554.13,2723.49 z " fill-rule="evenodd" fill="rgb(255,0,0)" stroke-width="5" stroke="rgb(0,0,0)" />
	<path d="M6256.84,5286.05 6468.97,5073.92 6893.24,5498.18 6839.42,5552 6522.79,5552 6256.84,5286.05 z " fill-rule="evenodd" fill="rgb(255,0,0)" stroke-width="5" stroke="rgb(0,0,0)" />
	<path d="M6468.97,5501.01 6519.96,5552 6417.98,5552 6468.97,5501.01 z " fill-rule="evenodd" fill="rgb(255,0,0)" stroke-width="5" stroke="rgb(0,0,0)" />
	<path d="M2212.19,1230.08 2636.45,1654.35 2424.32,1866.48 2150,1592.16 2150,1292.27 2212.19,1230.08 z " fill-rule="evenodd" fill="rgb(255,0,0)" stroke-width="5" stroke="rgb(0,0,0)" />
	<path d="M2851.41,5286.05 2900,5237.46 2900,5334.63 2851.41,5286.05 z " fill-rule="evenodd" fill="rgb(255,0,0)" stroke-width="5" stroke="rgb(0,0,0)" />
	<path d="M7108.2,5286.05 7320.33,5073.92 7744.59,5498.18 7690.77,5552 7374.15,5552 7108.2,5286.05 z " fill-rule="evenodd" fill="rgb(255,0,0)" stroke-width="5" stroke="rgb(0,0,0)" />
	<path d="M7320.33,5501.01 7371.32,5552 7269.34,5552 7320.33,5501.01 z " fill-rule="evenodd" fill="rgb(255,0,0)" stroke-width="5" stroke="rgb(0,0,0)" />
	<path d="M2851.41,1442.22 3063.55,1230.08 3153.73,1320.26 3080,1502 2950,1502 2950,1540.8 2851.41,1442.22 z " fill-rule="evenodd" fill="rgb(255,0,0)" stroke-width="5" stroke="rgb(0,0,0)" />
	<path d="M3487.81,1654.35 3275.68,1866.48 3011.2,1602 3147,1602 3230.23,1396.76 3487.81,1654.35 z " fill-rule="evenodd" fill="rgb(255,0,0)" stroke-width="5" stroke="rgb(0,0,0)" />
	<path d="M2212.19,802.991 2636.45,1227.26 2424.32,1439.39 2150,1165.07 2150,865.181 2212.19,802.991 z " fill-rule="evenodd" fill="rgb(255,0,0)" stroke-width="5" stroke="rgb(0,0,0)" />
	<path d="M2851.41,5713.14 2900,5664.55 2900,5761.73 2851.41,5713.14 z " fill-rule="evenodd" fill="rgb(255,0,0)" stroke-width="5" stroke="rgb(0,0,0)" />
	<path d="M7959.55,5286.05 8171.69,5073.92 8595.95,5498.18 8542.13,5552 8225.51,5552 7959.55,5286.05 z " fill-rule="evenodd" fill="rgb(255,0,0)" stroke-width="5" stroke="rgb(0,0,0)" />
	<path d="M8171.69,5501.01 8222.68,5552 8120.69,5552 8171.69,5501.01 z " fill-rule="evenodd" fill="rgb(255,0,0)" stroke-width="5" stroke="rgb(0,0,0)" />
	<path d="M2851.41,1015.12 3063.55,802.991 3276.99,1016.43 3154.54,1318.25 2851.41,1015.12 z " fill-rule="evenodd" fill="rgb(255,0,0)" stroke-width="5" stroke="rgb(0,0,0)" />
	<path d="M3487.81,1227.26 3275.68,1439.39 3231.04,1394.75 3353.45,1092.9 3487.81,1227.26 z " fill-rule="evenodd" fill="rgb(255,0,0)" stroke-width="5" stroke="rgb(0,0,0)" />
	<path d="M2212.19,375.899 2636.45,800.163 2424.32,1012.29 2150,737.973 2150,438.088 2212.19,375.899 z " fill-rule="evenodd" fill="rgb(255,0,0)" stroke-width="5" stroke="rgb(0,0,0)" />
	<path d="M2851.41,6140.23 2939.65,6052 3100,6052 3100,6388.82 2851.41,6140.23 z " fill-rule="evenodd" fill="rgb(255,0,0)" stroke-width="5" stroke="rgb(0,0,0)" />
	<path d="M4339.17,1227.26 4127.03,1439.39 3702.77,1015.12 3905.16,812.734 3937.97,826.054 4339.17,1227.26 z " fill-rule="evenodd" fill="rgb(255,0,0)" stroke-width="5" stroke="rgb(0,0,0)" />
	<path d="M3275.68,1012.29 2851.41,588.031 2996.22,443.223 3222.75,535.101 3400.25,712.598 3280.7,1007.27 3275.68,1012.29 z " fill-rule="evenodd" fill="rgb(255,0,0)" stroke-width="5" stroke="rgb(0,0,0)" />
	<path d="M3487.81,800.163 3461.49,826.487 3476.68,789.029 3487.81,800.163 z " fill-rule="evenodd" fill="rgb(255,0,0)" stroke-width="5" stroke="rgb(0,0,0)" />
	<path d="M2636.45,373.07 2424.32,585.202 2150,310.881 2150,100 2508.99,245.603 2636.45,373.07 z " fill-rule="evenodd" fill="rgb(255,0,0)" stroke-width="5" stroke="rgb(0,0,0)" />
	<path d="M2851.41,6567.33 3063.55,6355.19 3100,6391.65 3100,6815.91 2851.41,6567.33 z " fill-rule="evenodd" fill="rgb(255,0,0)" stroke-width="5" stroke="rgb(0,0,0)" />
	<path d="M8595.95,2935.63 8383.82,3147.76 7959.55,2723.49 8147.7,2535.35 8228.47,2568.15 8595.95,2935.63 z " fill-rule="evenodd" fill="rgb(255,0,0)" stroke-width="5" stroke="rgb(0,0,0)" />
	<path d="M7744.59,2508.53 7532.46,2720.66 7108.2,2296.4 7238.44,2166.16 7514.18,2278.12 7744.59,2508.53 z " fill-rule="evenodd" fill="rgb(255,0,0)" stroke-width="5" stroke="rgb(0,0,0)" />
	<path d="M6893.24,2081.44 6681.1,2293.57 6256.84,1869.31 6329.18,1796.97 6799.89,1988.09 6893.24,2081.44 z " fill-rule="evenodd" fill="rgb(255,0,0)" stroke-width="5" stroke="rgb(0,0,0)" />
	<path d="M5829.75,1866.48 5405.48,1442.22 5419.92,1427.78 6023.41,1672.82 5829.75,1866.48 z " fill-rule="evenodd" fill="rgb(255,0,0)" stroke-width="5" stroke="rgb(0,0,0)" />
	<path d="M4978.39,1439.39 4657.02,1118.01 5114.15,1303.63 4978.39,1439.39 z " fill-rule="evenodd" fill="rgb(255,0,0)" stroke-width="5" stroke="rgb(0,0,0)" />
	<path d="M4127.03,1012.29 3942.73,827.988 4204.89,934.436 4127.03,1012.29 z " fill-rule="evenodd" fill="rgb(255,0,0)" stroke-width="5" stroke="rgb(0,0,0)" />
	<path d="M3275.68,585.202 3227.51,537.031 3296.05,564.831 3275.68,585.202 z " fill-rule="evenodd" fill="rgb(255,0,0)" stroke-width="5" stroke="rgb(0,0,0)" />
	<path d="M3063.55,6782.29 3100,6818.74 3100,6852 2993.83,6852 3063.55,6782.29 z " fill-rule="evenodd" fill="rgb(255,0,0)" stroke-width="5" stroke="rgb(0,0,0)" />
	<path d="M2900,6945.83 2900,6952 2893.83,6952 2900,6945.83 z " fill-rule="evenodd" fill="rgb(255,0,0)" stroke-width="5" stroke="rgb(0,0,0)" />
	<path d="M2000.06,6567.33 2212.19,6355.19 2636.45,6779.46 2463.91,6952 2384.73,6952 2000.06,6567.33 z " fill-rule="evenodd" fill="rgb(255,0,0)" stroke-width="5" stroke="rgb(0,0,0)" />
	<path d="M8383.82,2720.66 8233.23,2570.08 8447.43,2657.05 8383.82,2720.66 z " fill-rule="evenodd" fill="rgb(255,0,0)" stroke-width="5" stroke="rgb(0,0,0)" />
	<path d="M7532.46,2293.57 7518.94,2280.05 7538.17,2287.86 7532.46,2293.57 z " fill-rule="evenodd" fill="rgb(255,0,0)" stroke-width="5" stroke="rgb(0,0,0)" />
	<path d="M2212.19,6782.29 2381.9,6952 2042.48,6952 2212.19,6782.29 z " fill-rule="evenodd" fill="rgb(255,0,0)" stroke-width="5" stroke="rgb(0,0,0)" />
	<path d="M1148.7,6567.33 1360.83,6355.19 1785.1,6779.46 1612.55,6952 1533.38,6952 1148.7,6567.33 z " fill-rule="evenodd" fill="rgb(255,0,0)" stroke-width="5" stroke="rgb(0,0,0)" />
	<path d="M1360.83,6782.29 1530.55,6952 1191.12,6952 1360.83,6782.29 z " fill-rule="evenodd" fill="rgb(255,0,0)" stroke-width="5" stroke="rgb(0,0,0)" />
	<path d="M297.345,6567.33 509.477,6355.19 933.741,6779.46 761.198,6952 682.019,6952 297.345,6567.33 z " fill-rule="evenodd" fill="rgb(255,0,0)" stroke-width="5" stroke="rgb(0,0,0)" />
	<path d="M509.477,6782.29 679.19,6952 339.763,6952 509.477,6782.29 z " fill-rule="evenodd" fill="rgb(255,0,0)" stroke-width="5" stroke="rgb(0,0,0)" />
	<polyline points="2845,3157 2420.74,3581.26 2845,3157 3269.26,3581.26 2845,3157 " fill="none" stroke-width="100" stroke="rgb(0,0,0)" />
	<circle cx="2845" cy="3157" r="-7.07107" fill="rgb(0,0,0)" />
	<circle cx="2420.74" cy="3581.26" r="-7.07107" fill="rgb(0,0,0)" />
	<circle cx="2845" cy="3157" r="-7.07107" fill="rgb(0,0,0)" />
	<circle cx="3269.26" cy="3581.26" r="-7.07107" fill="rgb(0,0,0)" />
	<circle cx="2845" cy="3157" r="-7.07107" fill="rgb(0,0,0)" />
	<polyline points="2845,3623.69 2845,3157 1911.62,3157 " fill="none" stroke-width="0.5" stroke="rgb(128,0,128)" />
</svg>
