<?xml version="1.0" standalone="no" ?>
<!DOCTYPE svg PUBLIC "-//W3C//DTD SVG 1.1//EN" "http://www.w3.org/Graphics/SVG/1.1/DTD/svg11.dtd">
<svg width="1600px" height="29470px" xmlns="http://www.w3.org/2000/svg" version="1.1" >
	<path d="M100,29370 700,29370 700,29070 100,29070 z " fill-rule="evenodd" fill="rgb(255,255,255)" stroke-width="10" stroke="rgb(0,0,0)" />
	<path d="M100,29040 700,29040 700,28740 100,28740 z " fill-rule="evenodd" fill="rgb(255,255,255)" stroke-width="10" stroke="rgb(0,0,0)" />
	<path d="M100,28710 700,28710 700,28410 100,28410 z " fill-rule="evenodd" fill="rgb(255,255,255)" stroke-width="10" stroke="rgb(0,0,0)" />
	<path d="M100,28380 700,28380 700,28080 100,28080 z " fill-rule="evenodd" fill="rgb(255,255,255)" stroke-width="10" stroke="rgb(0,0,0)" />
	<path d="M100,28050 700,28050 700,27750 100,27750 z " fill-rule="evenodd" fill="rgb(255,255,255)" stroke-width="10" stroke="rgb(0,0,0)" />
	<path d="M100,27720 700,27720 700,27420 100,27420 z " fill-rule="evenodd" fill="rgb(255,255,255)" stroke-width="10" stroke="rgb(0,0,0)" />
	<path d="M100,27390 700,27390 700,27090 100,27090 z " fill-rule="evenodd" fill="rgb(255,255,255)" stroke-width="10" stroke="rgb(0,0,0)" />
	<path d="M100,27060 700,27060 700,26760 100,26760 z " fill-rule="evenodd" fill="rgb(255,255,255)" stroke-width="10" stroke="rgb(0,0,0)" />
	<path d="M100,26730 700,26730 700,26430 100,26430 z " fill-rule="evenodd" fill="rgb(255,255,255)" stroke-width="10" stroke="rgb(0,0,0)" />
	<path d="M100,26400 700,26400 700,26100 100,26100 z " fill-rule="evenodd" fill="rgb(255,255,255)" stroke-width="10" stroke="rgb(0,0,0)" />
	<path d="M100,26070 700,26070 700,25770 100,25770 z " fill-rule="evenodd" fill="rgb(255,255,255)" stroke-width="10" stroke="rgb(0,0,0)" />
	<path d="M100,25740 700,25740 700,25440 100,25440 z " fill-rule="evenodd" fill="rgb(255,255,255)" stroke-width="10" stroke="rgb(0,0,0)" />
	<path d="M100,25410 700,25410 700,25110 100,25110 z " fill-rule="evenodd" fill="rgb(255,255,255)" stroke-width="10" stroke="rgb(0,0,0)" />
	<path d="M100,25080 700,25080 700,24780 100,24780 z " fill-rule="evenodd" fill="rgb(255,255,255)" stroke-width="10" stroke="rgb(0,0,0)" />
	<path d="M100,24750 700,24750 700,24450 100,24450 z " fill-rule="evenodd" fill="rgb(255,255,255)" stroke-width="10" stroke="rgb(0,0,0)" />
	<path d="M100,24420 700,24420 700,24120 100,24120 z " fill-rule="evenodd" fill="rgb(255,255,255)" stroke-width="10" stroke="rgb(0,0,0)" />
	<path d="M100,24090 700,24090 700,23790 100,23790 z " fill-rule="evenodd" fill="rgb(255,255,255)" stroke-width="10" stroke="rgb(0,0,0)" />
	<path d="M100,23760 700,23760 700,23460 100,23460 z " fill-rule="evenodd" fill="rgb(255,255,255)" stroke-width="10" stroke="rgb(0,0,0)" />
	<path d="M100,23430 700,23430 700,23130 100,23130 z " fill-rule="evenodd" fill="rgb(255,255,255)" stroke-width="10" stroke="rgb(0,0,0)" />
	<path d="M100,23100 700,23100 700,22800 100,22800 z " fill-rule="evenodd" fill="rgb(255,255,255)" stroke-width="10" stroke="rgb(0,0,0)" />
	<path d="M100,22770 700,22770 700,22470 100,22470 z " fill-rule="evenodd" fill="rgb(255,255,255)" stroke-width="10" stroke="rgb(0,0,0)" />
	<path d="M100,22440 700,22440 700,22140 100,22140 z " fill-rule="evenodd" fill="rgb(255,255,255)" stroke-width="10" stroke="rgb(0,0,0)" />
	<path d="M100,22110 700,22110 700,21810 100,21810 z " fill-rule="evenodd" fill="rgb(255,255,255)" stroke-width="10" stroke="rgb(0,0,0)" />
	<path d="M100,21780 700,21780 700,21480 100,21480 z " fill-rule="evenodd" fill="rgb(255,255,255)" stroke-width="10" stroke="rgb(0,0,0)" />
	<path d="M100,21450 700,21450 700,21150 100,21150 z " fill-rule="evenodd" fill="rgb(255,255,255)" stroke-width="10" stroke="rgb(0,0,0)" />
	<path d="M100,21120 700,21120 700,20820 100,20820 z " fill-rule="evenodd" fill="rgb(255,255,255)" stroke-width="10" stroke="rgb(0,0,0)" />
	<path d="M100,20790 700,20790 700,20490 100,20490 z " fill-rule="evenodd" fill="rgb(255,255,255)" stroke-width="10" stroke="rgb(0,0,0)" />
	<path d="M100,20460 700,20460 700,20160 100,20160 z " fill-rule="evenodd" fill="rgb(255,255,255)" stroke-width="10" stroke="rgb(0,0,0)" />
	<path d="M100,20130 700,20130 700,19830 100,19830 z " fill-rule="evenodd" fill="rgb(255,255,255)" stroke-width="10" stroke="rgb(0,0,0)" />
	<path d="M100,19800 700,19800 700,19500 100,19500 z " fill-rule="evenodd" fill="rgb(255,255,255)" stroke-width="10" stroke="rgb(0,0,0)" />
	<path d="M100,19470 700,19470 700,19170 100,19170 z " fill-rule="evenodd" fill="rgb(255,255,255)" stroke-width="10" stroke="rgb(0,0,0)" />
	<path d="M100,19140 700,19140 700,18840 100,18840 z " fill-rule="evenodd" fill="rgb(255,255,255)" stroke-width="10" stroke="rgb(0,0,0)" />
	<path d="M100,18810 700,18810 700,18510 100,18510 z " fill-rule="evenodd" fill="rgb(255,255,255)" stroke-width="10" stroke="rgb(0,0,0)" />
	<path d="M100,18480 700,18480 700,18180 100,18180 z " fill-rule="evenodd" fill="rgb(255,255,255)" stroke-width="10" stroke="rgb(0,0,0)" />
	<path d="M100,18150 700,18150 700,17850 100,17850 z " fill-rule="evenodd" fill="rgb(255,255,255)" stroke-width="10" stroke="rgb(0,0,0)" />
	<path d="M100,17820 700,17820 700,17520 100,17520 z " fill-rule="evenodd" fill="rgb(255,255,255)" stroke-width="10" stroke="rgb(0,0,0)" />
	<path d="M100,17490 700,17490 700,17190 100,17190 z " fill-rule="evenodd" fill="rgb(255,255,255)" stroke-width="10" stroke="rgb(0,0,0)" />
	<path d="M100,17160 700,17160 700,16860 100,16860 z " fill-rule="evenodd" fill="rgb(255,255,255)" stroke-width="10" stroke="rgb(0,0,0)" />
	<path d="M100,16830 700,16830 700,16530 100,16530 z " fill-rule="evenodd" fill="rgb(255,255,255)" stroke-width="10" stroke="rgb(0,0,0)" />
	<path d="M100,16500 700,16500 700,16200 100,16200 z " fill-rule="evenodd" fill="rgb(255,255,255)" stroke-width="10" stroke="rgb(0,0,0)" />
	<path d="M100,16170 700,16170 700,15870 100,15870 z " fill-rule="evenodd" fill="rgb(255,255,255)" stroke-width="10" stroke="rgb(0,0,0)" />
	<path d="M100,15840 700,15840 700,15540 100,15540 z " fill-rule="evenodd" fill="rgb(255,255,255)" stroke-width="10" stroke="rgb(0,0,0)" />
	<path d="M100,15510 700,15510 700,15210 100,15210 z " fill-rule="evenodd" fill="rgb(255,255,255)" stroke-width="10" stroke="rgb(0,0,0)" />
	<path d="M100,15180 700,15180 700,14880 100,14880 z " fill-rule="evenodd" fill="rgb(255,255,255)" stroke-width="10" stroke="rgb(0,0,0)" />
	<path d="M100,14850 700,14850 700,14550 100,14550 z " fill-rule="evenodd" fill="rgb(255,255,255)" stroke-width="10" stroke="rgb(0,0,0)" />
	<path d="M100,14520 700,14520 700,14220 100,14220 z " fill-rule="evenodd" fill="rgb(255,255,255)" stroke-width="10" stroke="rgb(0,0,0)" />
	<path d="M100,14190 700,14190 700,13890 100,13890 z " fill-rule="evenodd" fill="rgb(255,255,255)" stroke-width="10" stroke="rgb(0,0,0)" />
	<path d="M100,13860 700,13860 700,13560 100,13560 z " fill-rule="evenodd" fill="rgb(255,255,255)" stroke-width="10" stroke="rgb(0,0,0)" />
	<path d="M100,13530 700,13530 700,13230 100,13230 z " fill-rule="evenodd" fill="rgb(255,255,255)" stroke-width="10" stroke="rgb(0,0,0)" />
	<path d="M100,13200 700,13200 700,12900 100,12900 z " fill-rule="evenodd" fill="rgb(255,255,255)" stroke-width="10" stroke="rgb(0,0,0)" />
	<path d="M100,12870 700,12870 700,12570 100,12570 z " fill-rule="evenodd" fill="rgb(255,255,255)" stroke-width="10" stroke="rgb(0,0,0)" />
	<path d="M100,12540 700,12540 700,12240 100,12240 z " fill-rule="evenodd" fill="rgb(255,255,255)" stroke-width="10" stroke="rgb(0,0,0)" />
	<path d="M100,12210 700,12210 700,11910 100,11910 z " fill-rule="evenodd" fill="rgb(255,255,255)" stroke-width="10" stroke="rgb(0,0,0)" />
	<path d="M100,11880 700,11880 700,11580 100,11580 z " fill-rule="evenodd" fill="rgb(255,255,255)" stroke-width="10" stroke="rgb(0,0,0)" />
	<path d="M100,11550 700,11550 700,11250 100,11250 z " fill-rule="evenodd" fill="rgb(255,255,255)" stroke-width="10" stroke="rgb(0,0,0)" />
	<path d="M100,11220 700,11220 700,10920 100,10920 z " fill-rule="evenodd" fill="rgb(255,255,255)" stroke-width="10" stroke="rgb(0,0,0)" />
	<path d="M100,10890 700,10890 700,10590 100,10590 z " fill-rule="evenodd" fill="rgb(255,255,255)" stroke-width="10" stroke="rgb(0,0,0)" />
	<path d="M100,10560 700,10560 700,10260 100,10260 z " fill-rule="evenodd" fill="rgb(255,255,255)" stroke-width="10" stroke="rgb(0,0,0)" />
	<path d="M100,10230 700,10230 700,9930 100,9930 z " fill-rule="evenodd" fill="rgb(255,255,255)" stroke-width="10" stroke="rgb(0,0,0)" />
	<path d="M100,9900 700,9900 700,9600 100,9600 z " fill-rule="evenodd" fill="rgb(255,255,255)" stroke-width="10" stroke="rgb(0,0,0)" />
	<path d="M100,9570 700,9570 700,9270 100,9270 z " fill-rule="evenodd" fill="rgb(255,255,255)" stroke-width="10" stroke="rgb(0,0,0)" />
	<path d="M100,9240 700,9240 700,8940 100,8940 z " fill-rule="evenodd" fill="rgb(255,255,255)" stroke-width="10" stroke="rgb(0,0,0)" />
	<path d="M100,8910 700,8910 700,8610 100,8610 z " fill-rule="evenodd" fill="rgb(255,255,255)" stroke-width="10" stroke="rgb(0,0,0)" />
	<path d="M100,8580 700,8580 700,8280 100,8280 z " fill-rule="evenodd" fill="rgb(255,255,255)" stroke-width="10" stroke="rgb(0,0,0)" />
	<path d="M100,8250 700,8250 700,7950 100,7950 z " fill-rule="evenodd" fill="rgb(255,255,255)" stroke-width="10" stroke="rgb(0,0,0)" />
	<path d="M100,7920 700,7920 700,7620 100,7620 z " fill-rule="evenodd" fill="rgb(255,255,255)" stroke-width="10" stroke="rgb(0,0,0)" />
	<path d="M100,7590 700,7590 700,7290 100,7290 z " fill-rule="evenodd" fill="rgb(255,255,255)" stroke-width="10" stroke="rgb(0,0,0)" />
	<path d="M100,7260 700,7260 700,6960 100,6960 z " fill-rule="evenodd" fill="rgb(255,255,255)" stroke-width="10" stroke="rgb(0,0,0)" />
	<path d="M100,6930 700,6930 700,6630 100,6630 z " fill-rule="evenodd" fill="rgb(255,255,255)" stroke-width="10" stroke="rgb(0,0,0)" />
	<path d="M100,6600 700,6600 700,6300 100,6300 z " fill-rule="evenodd" fill="rgb(255,255,255)" stroke-width="10" stroke="rgb(0,0,0)" />
	<path d="M100,6270 700,6270 700,5970 100,5970 z " fill-rule="evenodd" fill="rgb(255,255,255)" stroke-width="10" stroke="rgb(0,0,0)" />
	<path d="M100,5940 700,5940 700,5640 100,5640 z " fill-rule="evenodd" fill="rgb(255,255,255)" stroke-width="10" stroke="rgb(0,0,0)" />
	<path d="M100,5610 700,5610 700,5310 100,5310 z " fill-rule="evenodd" fill="rgb(255,255,255)" stroke-width="10" stroke="rgb(0,0,0)" />
	<path d="M100,5280 700,5280 700,4980 100,4980 z " fill-rule="evenodd" fill="rgb(255,255,255)" stroke-width="10" stroke="rgb(0,0,0)" />
	<path d="M100,4950 700,4950 700,4650 100,4650 z " fill-rule="evenodd" fill="rgb(255,255,255)" stroke-width="10" stroke="rgb(0,0,0)" />
	<path d="M100,4620 700,4620 700,4320 100,4320 z " fill-rule="evenodd" fill="rgb(255,255,255)" stroke-width="10" stroke="rgb(0,0,0)" />
	<path d="M100,4290 700,4290 700,3990 100,3990 z " fill-rule="evenodd" fill="rgb(255,255,255)" stroke-width="10" stroke="rgb(0,0,0)" />
	<path d="M100,3960 700,3960 700,3660 100,3660 z " fill-rule="evenodd" fill="rgb(255,255,255)" stroke-width="10" stroke="rgb(0,0,0)" />
	<path d="M100,3630 700,3630 700,3330 100,3330 z " fill-rule="evenodd" fill="rgb(255,255,255)" stroke-width="10" stroke="rgb(0,0,0)" />
	<path d="M100,3300 700,3300 700,3000 100,3000 z " fill-rule="evenodd" fill="rgb(255,255,255)" stroke-width="10" stroke="rgb(0,0,0)" />
	<path d="M100,2970 700,2970 700,2670 100,2670 z " fill-rule="evenodd" fill="rgb(255,255,255)" stroke-width="10" stroke="rgb(0,0,0)" />
	<path d="M100,2640 700,2640 700,2340 100,2340 z " fill-rule="evenodd" fill="rgb(255,255,255)" stroke-width="10" stroke="rgb(0,0,0)" />
	<path d="M100,2310 700,2310 700,2010 100,2010 z " fill-rule="evenodd" fill="rgb(255,255,255)" stroke-width="10" stroke="rgb(0,0,0)" />
	<path d="M100,1980 700,1980 700,1680 100,1680 z " fill-rule="evenodd" fill="rgb(255,255,255)" stroke-width="10" stroke="rgb(0,0,0)" />
	<path d="M100,1650 700,1650 700,1350 100,1350 z " fill-rule="evenodd" fill="rgb(255,255,255)" stroke-width="10" stroke="rgb(0,0,0)" />
	<path d="M100,1320 700,1320 700,1020 100,1020 z " fill-rule="evenodd" fill="rgb(255,255,255)" stroke-width="10" stroke="rgb(0,0,0)" />
	<path d="M100,990 700,990 700,690 100,690 z " fill-rule="evenodd" fill="rgb(255,255,255)" stroke-width="10" stroke="rgb(0,0,0)" />
	<path d="M100,660 700,660 700,360 100,360 z " fill-rule="evenodd" fill="rgb(255,255,255)" stroke-width="10" stroke="rgb(0,0,0)" />
	<path d="M100,330 700,330 700,30 100,30 z " fill-rule="evenodd" fill="rgb(255,255,255)" stroke-width="10" stroke="rgb(0,0,0)" />
	<path d="M100,29070 700,29070 700,29370 241.421,29370 100,29228.6 100,29070 z " fill-rule="evenodd" fill="rgb(255,0,0)" stroke-width="10" stroke="rgb(0,0,0)" />
	<path d="M100,16860 700,16860 700,17160 100,17160 170.711,17089.3 100,17018.6 100,16860 z " fill-rule="evenodd" fill="rgb(255,0,0)" stroke-width="10" stroke="rgb(0,0,0)" />
	<path d="M700,28740 700,29040 100,29040 100,29038.1 398.082,28740 700,28740 z " fill-rule="evenodd" fill="rgb(255,0,0)" stroke-width="10" stroke="rgb(0,0,0)" />
	<path d="M100,173.34 256.66,173.34 100,330 100,173.34 z " fill-rule="evenodd" fill="rgb(255,0,0)" stroke-width="10" stroke="rgb(0,0,0)" />
	<path d="M700,28410 700,28710 100,28710 100,28708.1 398.082,28410 700,28410 z " fill-rule="evenodd" fill="rgb(255,0,0)" stroke-width="10" stroke="rgb(0,0,0)" />
	<path d="M256.66,330 100,330 256.66,173.34 256.66,330 z " fill-rule="evenodd" fill="rgb(255,0,0)" stroke-width="10" stroke="rgb(0,0,0)" />
	<path d="M100,16530 700,16530 700,16830 100,16830 100,16828.1 169.751,16758.3 100,16688.6 100,16530 z " fill-rule="evenodd" fill="rgb(255,0,0)" stroke-width="10" stroke="rgb(0,0,0)" />
	<path d="M237.421,28380 134.315,28380 187.868,28326.4 237.421,28376 237.421,28380 z " fill-rule="evenodd" fill="rgb(255,0,0)" stroke-width="10" stroke="rgb(0,0,0)" />
	<path d="M330.012,27750 330.012,27904.6 175.433,27750 330.012,27750 z " fill-rule="evenodd" fill="rgb(255,0,0)" stroke-width="10" stroke="rgb(0,0,0)" />
	<path d="M700,27420 700,27720 100,27720 100,27448.3 166.828,27420 700,27420 z " fill-rule="evenodd" fill="rgb(255,0,0)" stroke-width="10" stroke="rgb(0,0,0)" />
	<path d="M700,27090 700,27390 100,27390 100,27388.1 398.082,27090 700,27090 z " fill-rule="evenodd" fill="rgb(255,0,0)" stroke-width="10" stroke="rgb(0,0,0)" />
	<path d="M256.66,173.34 413.32,173.34 256.66,330 256.66,173.34 z " fill-rule="evenodd" fill="rgb(255,0,0)" stroke-width="10" stroke="rgb(0,0,0)" />
	<path d="M100,26760 700,26760 700,27060 241.421,27060 100,26918.6 100,26760 z " fill-rule="evenodd" fill="rgb(255,0,0)" stroke-width="10" stroke="rgb(0,0,0)" />
	<path d="M700,26730 100,26730 100,26430 642.61,26430 700,26487.4 700,26730 z " fill-rule="evenodd" fill="rgb(255,0,0)" stroke-width="10" stroke="rgb(0,0,0)" />
	<path d="M100,26400 100,26100 700,26100 700,26298.8 598.812,26400 100,26400 z " fill-rule="evenodd" fill="rgb(255,0,0)" stroke-width="10" stroke="rgb(0,0,0)" />
	<path d="M692.245,12210 589.138,12210 692.245,12106.9 692.245,12210 z " fill-rule="evenodd" fill="rgb(255,0,0)" stroke-width="10" stroke="rgb(0,0,0)" />
	<path d="M370.747,1320 370.747,1081.39 609.357,1320 370.747,1320 z " fill-rule="evenodd" fill="rgb(255,0,0)" stroke-width="10" stroke="rgb(0,0,0)" />
	<path d="M700,25770 700,26070 100,26070 100,26068.1 398.082,25770 700,25770 z " fill-rule="evenodd" fill="rgb(255,0,0)" stroke-width="10" stroke="rgb(0,0,0)" />
	<path d="M413.32,330 256.66,330 413.32,173.34 413.32,330 z " fill-rule="evenodd" fill="rgb(255,0,0)" stroke-width="10" stroke="rgb(0,0,0)" />
	<path d="M700,25740 100,25740 100,25440 652.958,25440 700,25551.2 700,25740 z " fill-rule="evenodd" fill="rgb(255,0,0)" stroke-width="10" stroke="rgb(0,0,0)" />
	<path d="M700,25110 700,25410 100,25410 100,25312.5 578.843,25110 700,25110 z " fill-rule="evenodd" fill="rgb(255,0,0)" stroke-width="10" stroke="rgb(0,0,0)" />
	<path d="M589.138,11880 589.138,11656.8 683.502,11880 589.138,11880 z " fill-rule="evenodd" fill="rgb(255,0,0)" stroke-width="10" stroke="rgb(0,0,0)" />
	<path d="M100,24780 700,24780 700,25080 188.466,25080 100,24991.5 100,24780 z " fill-rule="evenodd" fill="rgb(255,0,0)" stroke-width="10" stroke="rgb(0,0,0)" />
	<path d="M100,28080 700,28080 700,28380 241.421,28380 100,28238.6 100,28080 z " fill-rule="evenodd" fill="rgb(255,0,0)" stroke-width="10" stroke="rgb(0,0,0)" />
	<path d="M100,24750 100,24450 262.579,24450 562.579,24750 100,24750 z " fill-rule="evenodd" fill="rgb(255,0,0)" stroke-width="10" stroke="rgb(0,0,0)" />
	<path d="M698.082,24420 669.522,24420 698.082,24391.4 698.082,24420 z " fill-rule="evenodd" fill="rgb(255,0,0)" stroke-width="10" stroke="rgb(0,0,0)" />
	<path d="M567.899,175.421 567.899,330 413.32,175.421 567.899,175.421 z " fill-rule="evenodd" fill="rgb(255,0,0)" stroke-width="10" stroke="rgb(0,0,0)" />
	<path d="M100,24420 100,24120 700,24120 700,24389.5 669.522,24420 100,24420 z " fill-rule="evenodd" fill="rgb(255,0,0)" stroke-width="10" stroke="rgb(0,0,0)" />
	<path d="M642.61,24450 642.61,24688.6 590.179,24636.2 519.468,24706.9 262.579,24450 642.61,24450 z " fill-rule="evenodd" fill="rgb(255,0,0)" stroke-width="10" stroke="rgb(0,0,0)" />
	<path d="M589.138,12106.9 692.245,12106.9 589.138,12210 589.138,12106.9 z " fill-rule="evenodd" fill="rgb(255,0,0)" stroke-width="10" stroke="rgb(0,0,0)" />
	<path d="M700,23790 700,24090 100,24090 100,24088.1 398.082,23790 700,23790 z " fill-rule="evenodd" fill="rgb(255,0,0)" stroke-width="10" stroke="rgb(0,0,0)" />
	<path d="M117.755,29370 179.588,29308.2 241.421,29370 117.755,29370 z " fill-rule="evenodd" fill="rgb(255,0,0)" stroke-width="10" stroke="rgb(0,0,0)" />
	<path d="M100,23460 700,23460 700,23760 188.466,23760 100,23671.5 100,23460 z " fill-rule="evenodd" fill="rgb(255,0,0)" stroke-width="10" stroke="rgb(0,0,0)" />
	<path d="M100,23430 100,23130 223.246,23130 350.112,23430 100,23430 z " fill-rule="evenodd" fill="rgb(255,0,0)" stroke-width="10" stroke="rgb(0,0,0)" />
	<path d="M683.502,11880 629.634,11752.6 683.502,11729.8 683.502,11880 z " fill-rule="evenodd" fill="rgb(255,0,0)" stroke-width="10" stroke="rgb(0,0,0)" />
	<path d="M100,1051.32 305.535,1051.32 370.747,1205.53 100,1320 100,1051.32 z " fill-rule="evenodd" fill="rgb(255,0,0)" stroke-width="10" stroke="rgb(0,0,0)" />
	<path d="M100,23100 100,22800 386.841,22800 513.573,23100 100,23100 z " fill-rule="evenodd" fill="rgb(255,0,0)" stroke-width="10" stroke="rgb(0,0,0)" />
	<path d="M100,22770 100,22470 468.727,22470 595.459,22770 100,22770 z " fill-rule="evenodd" fill="rgb(255,0,0)" stroke-width="10" stroke="rgb(0,0,0)" />
	<path d="M100,22440 100,22140 550.613,22140 677.345,22440 100,22440 z " fill-rule="evenodd" fill="rgb(255,0,0)" stroke-width="10" stroke="rgb(0,0,0)" />
	<path d="M700.722,2432.47 700.722,2640 493.188,2432.47 700.722,2432.47 z " fill-rule="evenodd" fill="rgb(255,0,0)" stroke-width="10" stroke="rgb(0,0,0)" />
	<path d="M700,22110 100,22110 100,21810 632.499,21810 700,21969.8 700,22110 z " fill-rule="evenodd" fill="rgb(255,0,0)" stroke-width="10" stroke="rgb(0,0,0)" />
	<path d="M685.81,21242.5 685.81,21450 478.276,21242.5 685.81,21242.5 z " fill-rule="evenodd" fill="rgb(255,0,0)" stroke-width="10" stroke="rgb(0,0,0)" />
	<path d="M100,21480 700,21480 700,21780 188.466,21780 100,21691.5 100,21480 z " fill-rule="evenodd" fill="rgb(255,0,0)" stroke-width="10" stroke="rgb(0,0,0)" />
	<path d="M478.276,21150 478.276,21450 100,21450 400,21150 478.276,21150 z " fill-rule="evenodd" fill="rgb(255,0,0)" stroke-width="10" stroke="rgb(0,0,0)" />
	<path d="M680.815,20820 680.815,21120 302.54,21120 602.54,20820 680.815,20820 z " fill-rule="evenodd" fill="rgb(255,0,0)" stroke-width="10" stroke="rgb(0,0,0)" />
	<path d="M680.815,20790 302.54,20790 602.54,20490 623.425,20490 680.815,20547.4 680.815,20790 z " fill-rule="evenodd" fill="rgb(255,0,0)" stroke-width="10" stroke="rgb(0,0,0)" />
	<path d="M100,20460 100,20160 262.579,20160 562.579,20460 100,20460 z " fill-rule="evenodd" fill="rgb(255,0,0)" stroke-width="10" stroke="rgb(0,0,0)" />
	<path d="M413.32,330 413.32,175.421 567.899,330 413.32,330 z " fill-rule="evenodd" fill="rgb(255,0,0)" stroke-width="10" stroke="rgb(0,0,0)" />
	<path d="M129.982,27428.4 138.425,27420 146.868,27428.4 129.982,27428.4 z " fill-rule="evenodd" fill="rgb(255,0,0)" stroke-width="10" stroke="rgb(0,0,0)" />
	<path d="M100,16500 100,16200 700,16200 700,16469.5 669.522,16500 100,16500 z " fill-rule="evenodd" fill="rgb(255,0,0)" stroke-width="10" stroke="rgb(0,0,0)" />
	<path d="M692.245,12106.9 589.138,12106.9 692.245,12003.8 692.245,12106.9 z " fill-rule="evenodd" fill="rgb(255,0,0)" stroke-width="10" stroke="rgb(0,0,0)" />
	<path d="M667.006,19830 667.006,20130 400,20130 100,19830 667.006,19830 z " fill-rule="evenodd" fill="rgb(255,0,0)" stroke-width="10" stroke="rgb(0,0,0)" />
	<path d="M669.441,19500 669.441,19800 157.907,19800 112.715,19754.8 367.522,19500 669.441,19500 z " fill-rule="evenodd" fill="rgb(255,0,0)" stroke-width="10" stroke="rgb(0,0,0)" />
	<path d="M478.276,21450 478.276,21242.5 685.81,21450 478.276,21450 z " fill-rule="evenodd" fill="rgb(255,0,0)" stroke-width="10" stroke="rgb(0,0,0)" />
	<path d="M698.381,21810 698.381,21966 632.499,21810 698.381,21810 z " fill-rule="evenodd" fill="rgb(255,0,0)" stroke-width="10" stroke="rgb(0,0,0)" />
	<path d="M698.381,22140 698.381,22440 677.345,22440 550.613,22140 698.381,22140 z " fill-rule="evenodd" fill="rgb(255,0,0)" stroke-width="10" stroke="rgb(0,0,0)" />
	<path d="M698.381,22470 698.381,22770 595.459,22770 468.727,22470 698.381,22470 z " fill-rule="evenodd" fill="rgb(255,0,0)" stroke-width="10" stroke="rgb(0,0,0)" />
	<path d="M698.381,22800 698.381,23100 513.573,23100 386.841,22800 698.381,22800 z " fill-rule="evenodd" fill="rgb(255,0,0)" stroke-width="10" stroke="rgb(0,0,0)" />
	<path d="M131.348,27060 186.385,27005 241.421,27060 131.348,27060 z " fill-rule="evenodd" fill="rgb(255,0,0)" stroke-width="10" stroke="rgb(0,0,0)" />
	<path d="M188.466,19470 100,19381.5 100,19170 602.54,19170 302.54,19470 188.466,19470 z " fill-rule="evenodd" fill="rgb(255,0,0)" stroke-width="10" stroke="rgb(0,0,0)" />
	<path d="M100,19140 100,18840 602.54,18840 302.54,19140 100,19140 z " fill-rule="evenodd" fill="rgb(255,0,0)" stroke-width="10" stroke="rgb(0,0,0)" />
	<path d="M100,18810 100,18510 602.54,18510 302.54,18810 100,18810 z " fill-rule="evenodd" fill="rgb(255,0,0)" stroke-width="10" stroke="rgb(0,0,0)" />
	<path d="M100,21120 100,20820 602.54,20820 302.54,21120 100,21120 z " fill-rule="evenodd" fill="rgb(255,0,0)" stroke-width="10" stroke="rgb(0,0,0)" />
	<path d="M100,20790 100,20490 602.54,20490 302.54,20790 100,20790 z " fill-rule="evenodd" fill="rgb(255,0,0)" stroke-width="10" stroke="rgb(0,0,0)" />
	<path d="M100,18480 100,18180 602.54,18180 302.54,18480 100,18480 z " fill-rule="evenodd" fill="rgb(255,0,0)" stroke-width="10" stroke="rgb(0,0,0)" />
	<path d="M616.806,23130 616.806,23430 350.112,23430 280.07,23264.2 414.266,23130 616.806,23130 z " fill-rule="evenodd" fill="rgb(255,0,0)" stroke-width="10" stroke="rgb(0,0,0)" />
	<path d="M414.546,25110 294.119,25230.4 173.691,25110 414.546,25110 z " fill-rule="evenodd" fill="rgb(255,0,0)" stroke-width="10" stroke="rgb(0,0,0)" />
	<path d="M675.413,17546.6 675.413,17701.1 558.986,17584.7 597.138,17546.6 675.413,17546.6 z " fill-rule="evenodd" fill="rgb(255,0,0)" stroke-width="10" stroke="rgb(0,0,0)" />
	<path d="M100,16170 100,15870 700,15870 700,16139.5 669.522,16170 100,16170 z " fill-rule="evenodd" fill="rgb(255,0,0)" stroke-width="10" stroke="rgb(0,0,0)" />
	<path d="M589.138,12003.8 692.245,12003.8 589.138,12106.9 589.138,12003.8 z " fill-rule="evenodd" fill="rgb(255,0,0)" stroke-width="10" stroke="rgb(0,0,0)" />
	<path d="M493.188,2640 493.188,2432.47 700.722,2640 493.188,2640 z " fill-rule="evenodd" fill="rgb(255,0,0)" stroke-width="10" stroke="rgb(0,0,0)" />
	<path d="M556.551,17850 556.551,18150 178.276,18150 478.276,17850 556.551,17850 z " fill-rule="evenodd" fill="rgb(255,0,0)" stroke-width="10" stroke="rgb(0,0,0)" />
	<path d="M100,15840 100,15540 700,15540 700,15809.5 669.522,15840 100,15840 z " fill-rule="evenodd" fill="rgb(255,0,0)" stroke-width="10" stroke="rgb(0,0,0)" />
	<path d="M680.815,18510 680.815,18810 302.54,18810 602.54,18510 680.815,18510 z " fill-rule="evenodd" fill="rgb(255,0,0)" stroke-width="10" stroke="rgb(0,0,0)" />
	<path d="M100,15510 100,15210 700,15210 700,15479.5 669.522,15510 100,15510 z " fill-rule="evenodd" fill="rgb(255,0,0)" stroke-width="10" stroke="rgb(0,0,0)" />
	<path d="M680.815,19170 680.815,19470 302.54,19470 602.54,19170 680.815,19170 z " fill-rule="evenodd" fill="rgb(255,0,0)" stroke-width="10" stroke="rgb(0,0,0)" />
	<path d="M100,15180 100,14880 700,14880 700,15149.5 669.522,15180 100,15180 z " fill-rule="evenodd" fill="rgb(255,0,0)" stroke-width="10" stroke="rgb(0,0,0)" />
	<path d="M100,18150 100,17850 478.276,17850 178.276,18150 100,18150 z " fill-rule="evenodd" fill="rgb(255,0,0)" stroke-width="10" stroke="rgb(0,0,0)" />
	<path d="M100,14850 100,14550 700,14550 700,14819.5 679.441,14840.1 689.359,14850 100,14850 z " fill-rule="evenodd" fill="rgb(255,0,0)" stroke-width="10" stroke="rgb(0,0,0)" />
	<path d="M680.815,18180 680.815,18480 302.54,18480 602.54,18180 680.815,18180 z " fill-rule="evenodd" fill="rgb(255,0,0)" stroke-width="10" stroke="rgb(0,0,0)" />
	<path d="M556.551,17520 556.551,17820 178.276,17820 478.276,17520 556.551,17520 z " fill-rule="evenodd" fill="rgb(255,0,0)" stroke-width="10" stroke="rgb(0,0,0)" />
	<path d="M562.579,20460 262.579,20160 638.012,20160 638.012,20429.5 607.534,20460 562.579,20460 z " fill-rule="evenodd" fill="rgb(255,0,0)" stroke-width="10" stroke="rgb(0,0,0)" />
	<path d="M680.815,18840 680.815,19140 302.54,19140 602.54,18840 680.815,18840 z " fill-rule="evenodd" fill="rgb(255,0,0)" stroke-width="10" stroke="rgb(0,0,0)" />
	<path d="M550.866,17190 550.866,17490 475.433,17490 175.433,17190 550.866,17190 z " fill-rule="evenodd" fill="rgb(255,0,0)" stroke-width="10" stroke="rgb(0,0,0)" />
	<path d="M100,17820 100,17520 478.276,17520 178.276,17820 100,17820 z " fill-rule="evenodd" fill="rgb(255,0,0)" stroke-width="10" stroke="rgb(0,0,0)" />
	<path d="M100,17490 100,17190 175.433,17190 475.433,17490 100,17490 z " fill-rule="evenodd" fill="rgb(255,0,0)" stroke-width="10" stroke="rgb(0,0,0)" />
	<path d="M100,28050 100,27750 175.433,27750 326.854,27901.4 178.276,28050 100,28050 z " fill-rule="evenodd" fill="rgb(255,0,0)" stroke-width="10" stroke="rgb(0,0,0)" />
	<path d="M700,14220 700,14520 100,14520 100,14220 317.969,14220 228.101,14309.9 298.812,14380.6 438.112,14241.3 429.112,14220 700,14220 z " fill-rule="evenodd" fill="rgb(255,0,0)" stroke-width="10" stroke="rgb(0,0,0)" />
	<path d="M632.012,27750 632.012,28050 330.012,28050 630.012,27750 632.012,27750 z " fill-rule="evenodd" fill="rgb(255,0,0)" stroke-width="10" stroke="rgb(0,0,0)" />
	<path d="M100,14190 100,13890 556.579,13890 256.579,14190 100,14190 z " fill-rule="evenodd" fill="rgb(255,0,0)" stroke-width="10" stroke="rgb(0,0,0)" />
	<path d="M700,13860 100,13860 100,13560 558.66,13560 700,13701.3 700,13860 z " fill-rule="evenodd" fill="rgb(255,0,0)" stroke-width="10" stroke="rgb(0,0,0)" />
	<path d="M700,13530 100,13530 100,13230 556.579,13230 522.264,13264.3 592.975,13335 628.33,13299.7 700,13371.3 700,13530 z " fill-rule="evenodd" fill="rgb(255,0,0)" stroke-width="10" stroke="rgb(0,0,0)" />
	<path d="M640.61,12900 640.61,13200 100,13200 275.736,13024.3 151.472,12900 640.61,12900 z " fill-rule="evenodd" fill="rgb(255,0,0)" stroke-width="10" stroke="rgb(0,0,0)" />
	<path d="M100,12870 100,12570 556.579,12570 276.695,12849.9 296.812,12870 100,12870 z " fill-rule="evenodd" fill="rgb(255,0,0)" stroke-width="10" stroke="rgb(0,0,0)" />
	<path d="M100,12240 700,12240 700,12540 294.893,12540 100,12345.1 100,12240 z " fill-rule="evenodd" fill="rgb(255,0,0)" stroke-width="10" stroke="rgb(0,0,0)" />
	<path d="M589.138,11910 589.138,12210 400,12210 100,11910 589.138,11910 z " fill-rule="evenodd" fill="rgb(255,0,0)" stroke-width="10" stroke="rgb(0,0,0)" />
	<path d="M589.138,11580 589.138,11880 400,11880 100,11580 589.138,11580 z " fill-rule="evenodd" fill="rgb(255,0,0)" stroke-width="10" stroke="rgb(0,0,0)" />
	<path d="M328.531,1320 100.088,1320 328.531,1223.38 328.531,1320 z " fill-rule="evenodd" fill="rgb(255,0,0)" stroke-width="10" stroke="rgb(0,0,0)" />
	<path d="M100,11550 100,11250 495.209,11250 622.025,11549.9 621.969,11550 100,11550 z " fill-rule="evenodd" fill="rgb(255,0,0)" stroke-width="10" stroke="rgb(0,0,0)" />
	<path d="M700,11220 100,11220 100,10920 558.66,10920 700,11061.3 700,11220 z " fill-rule="evenodd" fill="rgb(255,0,0)" stroke-width="10" stroke="rgb(0,0,0)" />
	<path d="M700,10590 700,10890 100,10890 100,10808 317.969,10590 354.202,10590 406.796,10642.6 459.39,10590 700,10590 z " fill-rule="evenodd" fill="rgb(255,0,0)" stroke-width="10" stroke="rgb(0,0,0)" />
	<path d="M100,10560 100,10260 700,10260 700,10560 369.441,10560 313.01,10503.6 256.579,10560 100,10560 z " fill-rule="evenodd" fill="rgb(255,0,0)" stroke-width="10" stroke="rgb(0,0,0)" />
	<path d="M100,19500 296.812,19500 280.695,19516.1 316.051,19551.5 100,19767.5 100,19500 z " fill-rule="evenodd" fill="rgb(255,0,0)" stroke-width="10" stroke="rgb(0,0,0)" />
	<path d="M674.843,26430 690.959,26446.1 674.843,26462.2 674.843,26430 z " fill-rule="evenodd" fill="rgb(255,0,0)" stroke-width="10" stroke="rgb(0,0,0)" />
	<path d="M100,9930 700,9930 700,10230 294.893,10230 100,10035.1 100,9930 z " fill-rule="evenodd" fill="rgb(255,0,0)" stroke-width="10" stroke="rgb(0,0,0)" />
	<path d="M700,9900 100,9900 100,9600 558.66,9600 700,9741.34 700,9900 z " fill-rule="evenodd" fill="rgb(255,0,0)" stroke-width="10" stroke="rgb(0,0,0)" />
	<path d="M589.138,9270 589.138,9570 400,9570 100,9270 589.138,9270 z " fill-rule="evenodd" fill="rgb(255,0,0)" stroke-width="10" stroke="rgb(0,0,0)" />
	<path d="M700,9240 100,9240 100,8940 669.525,8940 700,9012.08 700,9240 z " fill-rule="evenodd" fill="rgb(255,0,0)" stroke-width="10" stroke="rgb(0,0,0)" />
	<path d="M640.61,8610 640.61,8910 100,8910 400,8610 640.61,8610 z " fill-rule="evenodd" fill="rgb(255,0,0)" stroke-width="10" stroke="rgb(0,0,0)" />
	<path d="M535.478,660 535.478,499.421 696.056,660 535.478,660 z " fill-rule="evenodd" fill="rgb(255,0,0)" stroke-width="10" stroke="rgb(0,0,0)" />
	<path d="M100,8580 100,8280 556.579,8280 256.579,8580 100,8580 z " fill-rule="evenodd" fill="rgb(255,0,0)" stroke-width="10" stroke="rgb(0,0,0)" />
	<path d="M100,7950 700,7950 700,8250 100,8250 100,8085.42 152.431,8032.99 100,7980.56 100,7950 z " fill-rule="evenodd" fill="rgb(255,0,0)" stroke-width="10" stroke="rgb(0,0,0)" />
	<path d="M130.559,25770 398.082,25770 130.559,26037.5 130.559,25770 z " fill-rule="evenodd" fill="rgb(255,0,0)" stroke-width="10" stroke="rgb(0,0,0)" />
	<path d="M100,7620 700,7620 700,7920 294.893,7920 100,7725.11 100,7620 z " fill-rule="evenodd" fill="rgb(255,0,0)" stroke-width="10" stroke="rgb(0,0,0)" />
	<path d="M700,7559.01 669.006,7590 100,7590 100,7290 558.66,7290 700,7431.34 700,7559.01 z " fill-rule="evenodd" fill="rgb(255,0,0)" stroke-width="10" stroke="rgb(0,0,0)" />
	<path d="M556.551,18150 556.551,17960.9 586.362,17931.1 678.952,18150 556.551,18150 z " fill-rule="evenodd" fill="rgb(255,0,0)" stroke-width="10" stroke="rgb(0,0,0)" />
	<path d="M584.029,990 100,990 584.029,785.311 584.029,990 z " fill-rule="evenodd" fill="rgb(255,0,0)" stroke-width="10" stroke="rgb(0,0,0)" />
	<path d="M700,7260 100,7260 100,7227.47 700,6974 700,7260 z " fill-rule="evenodd" fill="rgb(255,0,0)" stroke-width="10" stroke="rgb(0,0,0)" />
	<path d="M700,6630 700,6930 100,6930 100,6815.58 539.31,6630 700,6630 z " fill-rule="evenodd" fill="rgb(255,0,0)" stroke-width="10" stroke="rgb(0,0,0)" />
	<path d="M700,6300 700,6600 100,6600 100,6403.7 345.469,6300 700,6300 z " fill-rule="evenodd" fill="rgb(255,0,0)" stroke-width="10" stroke="rgb(0,0,0)" />
	<path d="M100,6270 100,5970 609.534,5970 309.534,6270 100,6270 z " fill-rule="evenodd" fill="rgb(255,0,0)" stroke-width="10" stroke="rgb(0,0,0)" />
	<path d="M700,5640 700,5940 100,5940 100,5661.81 151.628,5640 700,5640 z " fill-rule="evenodd" fill="rgb(255,0,0)" stroke-width="10" stroke="rgb(0,0,0)" />
	<path d="M100,5610 100,5310 609.534,5310 309.534,5610 100,5610 z " fill-rule="evenodd" fill="rgb(255,0,0)" stroke-width="10" stroke="rgb(0,0,0)" />
	<path d="M696.056,499.421 696.056,660 535.478,499.421 696.056,499.421 z " fill-rule="evenodd" fill="rgb(255,0,0)" stroke-width="10" stroke="rgb(0,0,0)" />
	<path d="M100,5280 100,4980 556.579,4980 256.579,5280 100,5280 z " fill-rule="evenodd" fill="rgb(255,0,0)" stroke-width="10" stroke="rgb(0,0,0)" />
	<path d="M700,4650 700,4950 100,4950 100,4785.42 235.421,4650 700,4650 z " fill-rule="evenodd" fill="rgb(255,0,0)" stroke-width="10" stroke="rgb(0,0,0)" />
	<path d="M130.559,23790 398.082,23790 130.559,24057.5 130.559,23790 z " fill-rule="evenodd" fill="rgb(255,0,0)" stroke-width="10" stroke="rgb(0,0,0)" />
	<path d="M100,4320 700,4320 700,4589.01 669.006,4620 294.893,4620 100,4425.11 100,4320 z " fill-rule="evenodd" fill="rgb(255,0,0)" stroke-width="10" stroke="rgb(0,0,0)" />
	<path d="M134.994,20130 134.994,19865 400,20130 134.994,20130 z " fill-rule="evenodd" fill="rgb(255,0,0)" stroke-width="10" stroke="rgb(0,0,0)" />
	<path d="M100,4290 100,3990 609.534,3990 309.534,4290 100,4290 z " fill-rule="evenodd" fill="rgb(255,0,0)" stroke-width="10" stroke="rgb(0,0,0)" />
	<path d="M673.17,25487.8 673.17,25440 693.361,25487.8 673.17,25487.8 z " fill-rule="evenodd" fill="rgb(255,0,0)" stroke-width="10" stroke="rgb(0,0,0)" />
	<path d="M678.952,17908.4 678.952,18150 576.874,17908.4 678.952,17908.4 z " fill-rule="evenodd" fill="rgb(255,0,0)" stroke-width="10" stroke="rgb(0,0,0)" />
	<path d="M535.478,660 100,660 535.478,476.037 535.478,660 z " fill-rule="evenodd" fill="rgb(255,0,0)" stroke-width="10" stroke="rgb(0,0,0)" />
	<path d="M100,3960 100,3660 609.534,3660 309.534,3960 100,3960 z " fill-rule="evenodd" fill="rgb(255,0,0)" stroke-width="10" stroke="rgb(0,0,0)" />
	<path d="M700,3630 100,3630 100,3617.61 700,3364.15 700,3630 z " fill-rule="evenodd" fill="rgb(255,0,0)" stroke-width="10" stroke="rgb(0,0,0)" />
	<path d="M700,3000 700,3300 100,3300 100,3135.42 235.421,3000 700,3000 z " fill-rule="evenodd" fill="rgb(255,0,0)" stroke-width="10" stroke="rgb(0,0,0)" />
	<path d="M130.559,28740 398.082,28740 130.559,29007.5 130.559,28740 z " fill-rule="evenodd" fill="rgb(255,0,0)" stroke-width="10" stroke="rgb(0,0,0)" />
	<path d="M609.357,1054.99 609.357,1320 424.3,1134.94 504.25,1054.99 609.357,1054.99 z " fill-rule="evenodd" fill="rgb(255,0,0)" stroke-width="10" stroke="rgb(0,0,0)" />
	<path d="M130.559,28410 398.082,28410 130.559,28677.5 130.559,28410 z " fill-rule="evenodd" fill="rgb(255,0,0)" stroke-width="10" stroke="rgb(0,0,0)" />
	<path d="M130.559,27090 398.082,27090 130.559,27357.5 130.559,27090 z " fill-rule="evenodd" fill="rgb(255,0,0)" stroke-width="10" stroke="rgb(0,0,0)" />
	<path d="M100,21182.5 367.522,21182.5 100,21450 100,21182.5 z " fill-rule="evenodd" fill="rgb(255,0,0)" stroke-width="10" stroke="rgb(0,0,0)" />
	<path d="M556.551,17582.3 675.413,17701.1 556.551,17820 556.551,17582.3 z " fill-rule="evenodd" fill="rgb(255,0,0)" stroke-width="10" stroke="rgb(0,0,0)" />
	<path d="M350.365,2670 650.365,2970 100,2970 100,2678.64 108.641,2670 350.365,2670 z " fill-rule="evenodd" fill="rgb(255,0,0)" stroke-width="10" stroke="rgb(0,0,0)" />
	<path d="M100,2640 100,2340 350.365,2340 493.188,2482.82 351.767,2624.24 367.522,2640 100,2640 z " fill-rule="evenodd" fill="rgb(255,0,0)" stroke-width="10" stroke="rgb(0,0,0)" />
	<path d="M100,2310 100,2010 700,2010 700,2087.43 477.433,2310 100,2310 z " fill-rule="evenodd" fill="rgb(255,0,0)" stroke-width="10" stroke="rgb(0,0,0)" />
	<path d="M660.245,26379.5 639.767,26400 619.289,26379.5 660.245,26379.5 z " fill-rule="evenodd" fill="rgb(255,0,0)" stroke-width="10" stroke="rgb(0,0,0)" />
	<path d="M100,1980 100,1680 700,1680 700,1757.43 477.433,1980 100,1980 z " fill-rule="evenodd" fill="rgb(255,0,0)" stroke-width="10" stroke="rgb(0,0,0)" />
	<path d="M115.033,23760 115.033,23686.6 188.466,23760 115.033,23760 z " fill-rule="evenodd" fill="rgb(255,0,0)" stroke-width="10" stroke="rgb(0,0,0)" />
	<path d="M100,1650 100,1350 700,1350 700,1427.43 477.433,1650 100,1650 z " fill-rule="evenodd" fill="rgb(255,0,0)" stroke-width="10" stroke="rgb(0,0,0)" />
	<path d="M115.033,21780 115.033,21706.6 188.466,21780 115.033,21780 z " fill-rule="evenodd" fill="rgb(255,0,0)" stroke-width="10" stroke="rgb(0,0,0)" />
	<path d="M115.033,25080 115.033,25006.6 188.466,25080 115.033,25080 z " fill-rule="evenodd" fill="rgb(255,0,0)" stroke-width="10" stroke="rgb(0,0,0)" />
</svg>
