<?xml version="1.0" standalone="no" ?>
<!DOCTYPE svg PUBLIC "-//W3C//DTD SVG 1.1//EN" "http://www.w3.org/Graphics/SVG/1.1/DTD/svg11.dtd">
<svg width="8700px" height="7052px" xmlns="http://www.w3.org/2000/svg" version="1.1" >
	<path d="M3348.64,2624.91 3772.91,2200.64 3560.78,1988.51 3136.51,2412.78 3348.64,2624.91 z " fill-rule="evenodd" fill="rgb(0,128,0)" stroke-width="5" stroke="rgb(0,0,0)" />
	<path d="M3348.64,2197.82 3772.91,1773.55 3560.78,1561.42 3136.51,1985.68 3348.64,2197.82 z " fill-rule="evenodd" fill="rgb(0,128,0)" stroke-width="5" stroke="rgb(0,0,0)" />
	<path d="M4200,3479.09 4624.26,3054.83 4412.13,2842.7 3987.87,3266.96 4200,3479.09 z " fill-rule="evenodd" fill="rgb(0,128,0)" stroke-width="5" stroke="rgb(0,0,0)" />
	<path d="M4200,2624.91 4624.26,2200.64 4412.13,1988.51 3987.87,2412.78 4200,2624.91 z " fill-rule="evenodd" fill="rgb(0,128,0)" stroke-width="5" stroke="rgb(0,0,0)" />
	<path d="M2497.29,3052 2921.55,2627.74 2709.42,2415.6 2285.15,2839.87 2497.29,3052 z " fill-rule="evenodd" fill="rgb(0,128,0)" stroke-width="5" stroke="rgb(0,0,0)" />
	<path d="M2497.29,2624.91 2921.55,2200.64 2709.42,1988.51 2285.15,2412.78 2497.29,2624.91 z " fill-rule="evenodd" fill="rgb(0,128,0)" stroke-width="5" stroke="rgb(0,0,0)" />
	<path d="M2497.29,2197.82 2921.55,1773.55 2709.42,1561.42 2285.15,1985.68 2497.29,2197.82 z " fill-rule="evenodd" fill="rgb(0,128,0)" stroke-width="5" stroke="rgb(0,0,0)" />
	<path d="M4200,3906.18 4624.26,3481.92 4412.13,3269.79 3987.87,3694.05 4200,3906.18 z " fill-rule="evenodd" fill="rgb(0,128,0)" stroke-width="5" stroke="rgb(0,0,0)" />
	<path d="M2497.29,1770.72 2921.55,1346.46 2709.42,1134.33 2285.15,1558.59 2497.29,1770.72 z " fill-rule="evenodd" fill="rgb(0,128,0)" stroke-width="5" stroke="rgb(0,0,0)" />
	<path d="M2497.29,1343.63 2921.55,919.366 2709.42,707.234 2285.15,1131.5 2497.29,1343.63 z " fill-rule="evenodd" fill="rgb(0,128,0)" stroke-width="5" stroke="rgb(0,0,0)" />
	<path d="M4200,2197.82 4624.26,1773.55 4412.13,1561.42 3987.87,1985.68 4200,2197.82 z " fill-rule="evenodd" fill="rgb(0,128,0)" stroke-width="5" stroke="rgb(0,0,0)" />
	<path d="M5051.36,2624.91 5475.62,2200.64 5263.49,1988.51 4839.22,2412.78 5051.36,2624.91 z " fill-rule="evenodd" fill="rgb(0,128,0)" stroke-width="5" stroke="rgb(0,0,0)" />
	<path d="M5902.71,4760.37 6326.98,4336.11 6114.85,4123.97 5690.58,4548.24 5902.71,4760.37 z " fill-rule="evenodd" fill="rgb(0,128,0)" stroke-width="5" stroke="rgb(0,0,0)" />
	<path d="M5902.71,4333.28 6326.98,3909.01 6114.85,3696.88 5690.58,4121.15 5902.71,4333.28 z " fill-rule="evenodd" fill="rgb(0,128,0)" stroke-width="5" stroke="rgb(0,0,0)" />
	<path d="M5902.71,3906.18 6326.98,3481.92 6114.85,3269.79 5690.58,3694.05 5902.71,3906.18 z " fill-rule="evenodd" fill="rgb(0,128,0)" stroke-width="5" stroke="rgb(0,0,0)" />
	<path d="M5902.71,3479.09 6326.98,3054.83 6114.85,2842.7 5690.58,3266.96 5902.71,3479.09 z " fill-rule="evenodd" fill="rgb(0,128,0)" stroke-width="5" stroke="rgb(0,0,0)" />
	<path d="M5902.71,3052 6326.98,2627.74 6114.85,2415.6 5690.58,2839.87 5902.71,3052 z " fill-rule="evenodd" fill="rgb(0,128,0)" stroke-width="5" stroke="rgb(0,0,0)" />
	<path d="M1645.93,2624.91 2070.19,2200.64 1858.06,1988.51 1433.8,2412.78 1645.93,2624.91 z " fill-rule="evenodd" fill="rgb(0,128,0)" stroke-width="5" stroke="rgb(0,0,0)" />
	<path d="M4200,4333.28 4624.26,3909.01 4412.13,3696.88 3987.87,4121.15 4200,4333.28 z " fill-rule="evenodd" fill="rgb(0,128,0)" stroke-width="5" stroke="rgb(0,0,0)" />
	<path d="M4200,1770.72 4624.26,1346.46 4412.13,1134.33 3987.87,1558.59 4200,1770.72 z " fill-rule="evenodd" fill="rgb(0,128,0)" stroke-width="5" stroke="rgb(0,0,0)" />
	<path d="M5051.36,2197.82 5475.62,1773.55 5263.49,1561.42 4839.22,1985.68 5051.36,2197.82 z " fill-rule="evenodd" fill="rgb(0,128,0)" stroke-width="5" stroke="rgb(0,0,0)" />
	<path d="M5902.71,5187.46 6326.98,4763.2 6114.85,4551.07 5690.58,4975.33 5902.71,5187.46 z " fill-rule="evenodd" fill="rgb(0,128,0)" stroke-width="5" stroke="rgb(0,0,0)" />
	<path d="M5902.71,2624.91 6326.98,2200.64 6114.85,1988.51 5690.58,2412.78 5902.71,2624.91 z " fill-rule="evenodd" fill="rgb(0,128,0)" stroke-width="5" stroke="rgb(0,0,0)" />
	<path d="M6754.07,5187.46 7178.33,4763.2 6966.2,4551.07 6541.94,4975.33 6754.07,5187.46 z " fill-rule="evenodd" fill="rgb(0,128,0)" stroke-width="5" stroke="rgb(0,0,0)" />
	<path d="M6754.07,4760.37 7178.33,4336.11 6966.2,4123.97 6541.94,4548.24 6754.07,4760.37 z " fill-rule="evenodd" fill="rgb(0,128,0)" stroke-width="5" stroke="rgb(0,0,0)" />
	<path d="M6754.07,4333.28 7178.33,3909.01 6966.2,3696.88 6541.94,4121.15 6754.07,4333.28 z " fill-rule="evenodd" fill="rgb(0,128,0)" stroke-width="5" stroke="rgb(0,0,0)" />
	<path d="M6754.07,3906.18 7178.33,3481.92 6966.2,3269.79 6541.94,3694.05 6754.07,3906.18 z " fill-rule="evenodd" fill="rgb(0,128,0)" stroke-width="5" stroke="rgb(0,0,0)" />
	<path d="M6754.07,3479.09 7178.33,3054.83 6966.2,2842.7 6541.94,3266.96 6754.07,3479.09 z " fill-rule="evenodd" fill="rgb(0,128,0)" stroke-width="5" stroke="rgb(0,0,0)" />
	<path d="M6754.07,3052 7178.33,2627.74 6966.2,2415.6 6541.94,2839.87 6754.07,3052 z " fill-rule="evenodd" fill="rgb(0,128,0)" stroke-width="5" stroke="rgb(0,0,0)" />
	<path d="M794.574,2624.91 1218.84,2200.64 1006.71,1988.51 582.442,2412.78 794.574,2624.91 z " fill-rule="evenodd" fill="rgb(0,128,0)" stroke-width="5" stroke="rgb(0,0,0)" />
	<path d="M794.574,2197.82 1218.84,1773.55 1006.71,1561.42 582.442,1985.68 794.574,2197.82 z " fill-rule="evenodd" fill="rgb(0,128,0)" stroke-width="5" stroke="rgb(0,0,0)" />
	<path d="M4200,4760.37 4624.26,4336.11 4412.13,4123.97 3987.87,4548.24 4200,4760.37 z " fill-rule="evenodd" fill="rgb(0,128,0)" stroke-width="5" stroke="rgb(0,0,0)" />
	<path d="M7605.43,5187.46 8029.69,4763.2 7817.56,4551.07 7393.29,4975.33 7605.43,5187.46 z " fill-rule="evenodd" fill="rgb(0,128,0)" stroke-width="5" stroke="rgb(0,0,0)" />
	<path d="M7605.43,4760.37 8029.69,4336.11 7817.56,4123.97 7393.29,4548.24 7605.43,4760.37 z " fill-rule="evenodd" fill="rgb(0,128,0)" stroke-width="5" stroke="rgb(0,0,0)" />
	<path d="M7605.43,4333.28 8029.69,3909.01 7817.56,3696.88 7393.29,4121.15 7605.43,4333.28 z " fill-rule="evenodd" fill="rgb(0,128,0)" stroke-width="5" stroke="rgb(0,0,0)" />
	<path d="M7605.43,3906.18 8029.69,3481.92 7817.56,3269.79 7393.29,3694.05 7605.43,3906.18 z " fill-rule="evenodd" fill="rgb(0,128,0)" stroke-width="5" stroke="rgb(0,0,0)" />
	<path d="M7605.43,3479.09 8029.69,3054.83 7817.56,2842.7 7393.29,3266.96 7605.43,3479.09 z " fill-rule="evenodd" fill="rgb(0,128,0)" stroke-width="5" stroke="rgb(0,0,0)" />
	<path d="M7605.43,3052 8029.69,2627.74 7817.56,2415.6 7393.29,2839.87 7605.43,3052 z " fill-rule="evenodd" fill="rgb(0,128,0)" stroke-width="5" stroke="rgb(0,0,0)" />
	<path d="M1645.93,3906.18 2070.19,3481.92 1858.06,3269.79 1433.8,3694.05 1645.93,3906.18 z " fill-rule="evenodd" fill="rgb(0,128,0)" stroke-width="5" stroke="rgb(0,0,0)" />
	<path d="M794.574,3906.18 1218.84,3481.92 1006.71,3269.79 582.442,3694.05 794.574,3906.18 z " fill-rule="evenodd" fill="rgb(0,128,0)" stroke-width="5" stroke="rgb(0,0,0)" />
	<path d="M1645.93,4333.28 2070.19,3909.01 1858.06,3696.88 1433.8,4121.15 1645.93,4333.28 z " fill-rule="evenodd" fill="rgb(0,128,0)" stroke-width="5" stroke="rgb(0,0,0)" />
	<path d="M794.574,4333.28 1218.84,3909.01 1006.71,3696.88 582.442,4121.15 794.574,4333.28 z " fill-rule="evenodd" fill="rgb(0,128,0)" stroke-width="5" stroke="rgb(0,0,0)" />
	<path d="M1645.93,4760.37 2070.19,4336.11 1858.06,4123.97 1433.8,4548.24 1645.93,4760.37 z " fill-rule="evenodd" fill="rgb(0,128,0)" stroke-width="5" stroke="rgb(0,0,0)" />
	<path d="M794.574,4760.37 1218.84,4336.11 1006.71,4123.97 582.442,4548.24 794.574,4760.37 z " fill-rule="evenodd" fill="rgb(0,128,0)" stroke-width="5" stroke="rgb(0,0,0)" />
	<path d="M1645.93,5187.46 2070.19,4763.2 1858.06,4551.07 1433.8,4975.33 1645.93,5187.46 z " fill-rule="evenodd" fill="rgb(0,128,0)" stroke-width="5" stroke="rgb(0,0,0)" />
	<path d="M794.574,5187.46 1218.84,4763.2 1006.71,4551.07 582.442,4975.33 794.574,5187.46 z " fill-rule="evenodd" fill="rgb(0,128,0)" stroke-width="5" stroke="rgb(0,0,0)" />
	<path d="M1645.93,5614.55 2070.19,5190.29 1858.06,4978.16 1433.8,5402.42 1645.93,5614.55 z " fill-rule="evenodd" fill="rgb(0,128,0)" stroke-width="5" stroke="rgb(0,0,0)" />
	<path d="M794.574,5614.55 1218.84,5190.29 1006.71,4978.16 582.442,5402.42 794.574,5614.55 z " fill-rule="evenodd" fill="rgb(0,128,0)" stroke-width="5" stroke="rgb(0,0,0)" />
	<path d="M1645.93,6041.65 2070.19,5617.38 1858.06,5405.25 1433.8,5829.52 1645.93,6041.65 z " fill-rule="evenodd" fill="rgb(0,128,0)" stroke-width="5" stroke="rgb(0,0,0)" />
	<path d="M794.574,6041.65 1218.84,5617.38 1006.71,5405.25 582.442,5829.52 794.574,6041.65 z " fill-rule="evenodd" fill="rgb(0,128,0)" stroke-width="5" stroke="rgb(0,0,0)" />
	<path d="M1645.93,6468.74 2070.19,6044.48 1858.06,5832.34 1433.8,6256.61 1645.93,6468.74 z " fill-rule="evenodd" fill="rgb(0,128,0)" stroke-width="5" stroke="rgb(0,0,0)" />
	<path d="M2497.29,6895.83 2921.55,6471.57 2709.42,6259.44 2285.15,6683.7 2497.29,6895.83 z " fill-rule="evenodd" fill="rgb(0,128,0)" stroke-width="5" stroke="rgb(0,0,0)" />
	<path d="M794.574,6468.74 1218.84,6044.48 1006.71,5832.34 582.442,6256.61 794.574,6468.74 z " fill-rule="evenodd" fill="rgb(0,128,0)" stroke-width="5" stroke="rgb(0,0,0)" />
	<path d="M1645.93,6895.83 2070.19,6471.57 1858.06,6259.44 1433.8,6683.7 1645.93,6895.83 z " fill-rule="evenodd" fill="rgb(0,128,0)" stroke-width="5" stroke="rgb(0,0,0)" />
	<path d="M794.574,6895.83 1218.84,6471.57 1006.71,6259.44 582.442,6683.7 794.574,6895.83 z " fill-rule="evenodd" fill="rgb(0,128,0)" stroke-width="5" stroke="rgb(0,0,0)" />
	<path d="M3135.1,2838.45 3347.23,2626.32 2922.97,2202.06 2710.83,2414.19 3135.1,2838.45 z " fill-rule="evenodd" fill="rgb(0,128,0)" stroke-width="5" stroke="rgb(0,0,0)" />
	<path d="M3135.1,2411.36 3347.23,2199.23 2922.97,1774.97 2710.83,1987.1 3135.1,2411.36 z " fill-rule="evenodd" fill="rgb(0,128,0)" stroke-width="5" stroke="rgb(0,0,0)" />
	<path d="M3986.45,2838.45 4198.59,2626.32 3774.32,2202.06 3562.19,2414.19 3986.45,2838.45 z " fill-rule="evenodd" fill="rgb(0,128,0)" stroke-width="5" stroke="rgb(0,0,0)" />
	<path d="M3986.45,2411.36 4198.59,2199.23 3774.32,1774.97 3562.19,1987.1 3986.45,2411.36 z " fill-rule="evenodd" fill="rgb(0,128,0)" stroke-width="5" stroke="rgb(0,0,0)" />
	<path d="M4837.81,2838.45 5049.94,2626.32 4625.68,2202.06 4413.55,2414.19 4837.81,2838.45 z " fill-rule="evenodd" fill="rgb(0,128,0)" stroke-width="5" stroke="rgb(0,0,0)" />
	<path d="M2283.74,2838.45 2495.87,2626.32 2071.61,2202.06 1859.48,2414.19 2283.74,2838.45 z " fill-rule="evenodd" fill="rgb(0,128,0)" stroke-width="5" stroke="rgb(0,0,0)" />
	<path d="M2283.74,2411.36 2495.87,2199.23 2071.61,1774.97 1859.48,1987.1 2283.74,2411.36 z " fill-rule="evenodd" fill="rgb(0,128,0)" stroke-width="5" stroke="rgb(0,0,0)" />
	<path d="M3986.45,1984.27 4198.59,1772.14 3774.32,1347.87 3562.19,1560 3986.45,1984.27 z " fill-rule="evenodd" fill="rgb(0,128,0)" stroke-width="5" stroke="rgb(0,0,0)" />
	<path d="M4837.81,2411.36 5049.94,2199.23 4625.68,1774.97 4413.55,1987.1 4837.81,2411.36 z " fill-rule="evenodd" fill="rgb(0,128,0)" stroke-width="5" stroke="rgb(0,0,0)" />
	<path d="M5689.17,4546.82 5901.3,4334.69 5477.03,3910.43 5264.9,4122.56 5689.17,4546.82 z " fill-rule="evenodd" fill="rgb(0,128,0)" stroke-width="5" stroke="rgb(0,0,0)" />
	<path d="M5689.17,4119.73 5901.3,3907.6 5477.03,3483.34 5264.9,3695.47 5689.17,4119.73 z " fill-rule="evenodd" fill="rgb(0,128,0)" stroke-width="5" stroke="rgb(0,0,0)" />
	<path d="M5689.17,3692.64 5901.3,3480.51 5477.03,3056.24 5264.9,3268.37 5689.17,3692.64 z " fill-rule="evenodd" fill="rgb(0,128,0)" stroke-width="5" stroke="rgb(0,0,0)" />
	<path d="M5689.17,3265.55 5901.3,3053.41 5477.03,2629.15 5264.9,2841.28 5689.17,3265.55 z " fill-rule="evenodd" fill="rgb(0,128,0)" stroke-width="5" stroke="rgb(0,0,0)" />
	<path d="M5689.17,2838.45 5901.3,2626.32 5477.03,2202.06 5264.9,2414.19 5689.17,2838.45 z " fill-rule="evenodd" fill="rgb(0,128,0)" stroke-width="5" stroke="rgb(0,0,0)" />
	<path d="M1432.38,2838.45 1644.52,2626.32 1220.25,2202.06 1008.12,2414.19 1432.38,2838.45 z " fill-rule="evenodd" fill="rgb(0,128,0)" stroke-width="5" stroke="rgb(0,0,0)" />
	<path d="M1432.38,2411.36 1644.52,2199.23 1220.25,1774.97 1008.12,1987.1 1432.38,2411.36 z " fill-rule="evenodd" fill="rgb(0,128,0)" stroke-width="5" stroke="rgb(0,0,0)" />
	<path d="M3986.45,1557.18 4198.59,1345.04 3774.32,920.78 3562.19,1132.91 3986.45,1557.18 z " fill-rule="evenodd" fill="rgb(0,128,0)" stroke-width="5" stroke="rgb(0,0,0)" />
	<path d="M4837.81,1984.27 5049.94,1772.14 4625.68,1347.87 4413.55,1560 4837.81,1984.27 z " fill-rule="evenodd" fill="rgb(0,128,0)" stroke-width="5" stroke="rgb(0,0,0)" />
	<path d="M5689.17,4973.92 5901.3,4761.78 5477.03,4337.52 5264.9,4549.65 5689.17,4973.92 z " fill-rule="evenodd" fill="rgb(0,128,0)" stroke-width="5" stroke="rgb(0,0,0)" />
	<path d="M5689.17,2411.36 5901.3,2199.23 5477.03,1774.97 5264.9,1987.1 5689.17,2411.36 z " fill-rule="evenodd" fill="rgb(0,128,0)" stroke-width="5" stroke="rgb(0,0,0)" />
	<path d="M6540.52,5401.01 6752.66,5188.88 6328.39,4764.61 6116.26,4976.74 6540.52,5401.01 z " fill-rule="evenodd" fill="rgb(0,128,0)" stroke-width="5" stroke="rgb(0,0,0)" />
	<path d="M6540.52,4973.92 6752.66,4761.78 6328.39,4337.52 6116.26,4549.65 6540.52,4973.92 z " fill-rule="evenodd" fill="rgb(0,128,0)" stroke-width="5" stroke="rgb(0,0,0)" />
	<path d="M6540.52,4546.82 6752.66,4334.69 6328.39,3910.43 6116.26,4122.56 6540.52,4546.82 z " fill-rule="evenodd" fill="rgb(0,128,0)" stroke-width="5" stroke="rgb(0,0,0)" />
	<path d="M6540.52,4119.73 6752.66,3907.6 6328.39,3483.34 6116.26,3695.47 6540.52,4119.73 z " fill-rule="evenodd" fill="rgb(0,128,0)" stroke-width="5" stroke="rgb(0,0,0)" />
	<path d="M6540.52,3692.64 6752.66,3480.51 6328.39,3056.24 6116.26,3268.37 6540.52,3692.64 z " fill-rule="evenodd" fill="rgb(0,128,0)" stroke-width="5" stroke="rgb(0,0,0)" />
	<path d="M6540.52,3265.55 6752.66,3053.41 6328.39,2629.15 6116.26,2841.28 6540.52,3265.55 z " fill-rule="evenodd" fill="rgb(0,128,0)" stroke-width="5" stroke="rgb(0,0,0)" />
	<path d="M6540.52,2838.45 6752.66,2626.32 6328.39,2202.06 6116.26,2414.19 6540.52,2838.45 z " fill-rule="evenodd" fill="rgb(0,128,0)" stroke-width="5" stroke="rgb(0,0,0)" />
	<path d="M581.027,2838.45 793.16,2626.32 368.895,2202.06 156.763,2414.19 581.027,2838.45 z " fill-rule="evenodd" fill="rgb(0,128,0)" stroke-width="5" stroke="rgb(0,0,0)" />
	<path d="M581.027,2411.36 793.16,2199.23 368.895,1774.97 156.763,1987.1 581.027,2411.36 z " fill-rule="evenodd" fill="rgb(0,128,0)" stroke-width="5" stroke="rgb(0,0,0)" />
	<path d="M5689.17,5401.01 5901.3,5188.88 5477.03,4764.61 5264.9,4976.74 5689.17,5401.01 z " fill-rule="evenodd" fill="rgb(0,128,0)" stroke-width="5" stroke="rgb(0,0,0)" />
	<path d="M7391.88,5401.01 7604.01,5188.88 7179.75,4764.61 6967.62,4976.74 7391.88,5401.01 z " fill-rule="evenodd" fill="rgb(0,128,0)" stroke-width="5" stroke="rgb(0,0,0)" />
	<path d="M7391.88,4973.92 7604.01,4761.78 7179.75,4337.52 6967.62,4549.65 7391.88,4973.92 z " fill-rule="evenodd" fill="rgb(0,128,0)" stroke-width="5" stroke="rgb(0,0,0)" />
	<path d="M7391.88,4546.82 7604.01,4334.69 7179.75,3910.43 6967.62,4122.56 7391.88,4546.82 z " fill-rule="evenodd" fill="rgb(0,128,0)" stroke-width="5" stroke="rgb(0,0,0)" />
	<path d="M7391.88,4119.73 7604.01,3907.6 7179.75,3483.34 6967.62,3695.47 7391.88,4119.73 z " fill-rule="evenodd" fill="rgb(0,128,0)" stroke-width="5" stroke="rgb(0,0,0)" />
	<path d="M7391.88,3692.64 7604.01,3480.51 7179.75,3056.24 6967.62,3268.37 7391.88,3692.64 z " fill-rule="evenodd" fill="rgb(0,128,0)" stroke-width="5" stroke="rgb(0,0,0)" />
	<path d="M7391.88,3265.55 7604.01,3053.41 7179.75,2629.15 6967.62,2841.28 7391.88,3265.55 z " fill-rule="evenodd" fill="rgb(0,128,0)" stroke-width="5" stroke="rgb(0,0,0)" />
	<path d="M7391.88,2838.45 7604.01,2626.32 7179.75,2202.06 6967.62,2414.19 7391.88,2838.45 z " fill-rule="evenodd" fill="rgb(0,128,0)" stroke-width="5" stroke="rgb(0,0,0)" />
	<path d="M2283.74,4119.73 2495.87,3907.6 2071.61,3483.34 1859.48,3695.47 2283.74,4119.73 z " fill-rule="evenodd" fill="rgb(0,128,0)" stroke-width="5" stroke="rgb(0,0,0)" />
	<path d="M8243.24,5401.01 8455.37,5188.88 8031.1,4764.61 7818.97,4976.74 8243.24,5401.01 z " fill-rule="evenodd" fill="rgb(0,128,0)" stroke-width="5" stroke="rgb(0,0,0)" />
	<path d="M8243.24,4973.92 8455.37,4761.78 8031.1,4337.52 7818.97,4549.65 8243.24,4973.92 z " fill-rule="evenodd" fill="rgb(0,128,0)" stroke-width="5" stroke="rgb(0,0,0)" />
	<path d="M8243.24,4546.82 8455.37,4334.69 8031.1,3910.43 7818.97,4122.56 8243.24,4546.82 z " fill-rule="evenodd" fill="rgb(0,128,0)" stroke-width="5" stroke="rgb(0,0,0)" />
	<path d="M8243.24,4119.73 8455.37,3907.6 8031.1,3483.34 7818.97,3695.47 8243.24,4119.73 z " fill-rule="evenodd" fill="rgb(0,128,0)" stroke-width="5" stroke="rgb(0,0,0)" />
	<path d="M8243.24,3692.64 8455.37,3480.51 8031.1,3056.24 7818.97,3268.37 8243.24,3692.64 z " fill-rule="evenodd" fill="rgb(0,128,0)" stroke-width="5" stroke="rgb(0,0,0)" />
	<path d="M8243.24,3265.55 8455.37,3053.41 8031.1,2629.15 7818.97,2841.28 8243.24,3265.55 z " fill-rule="evenodd" fill="rgb(0,128,0)" stroke-width="5" stroke="rgb(0,0,0)" />
	<path d="M1432.38,4119.73 1644.52,3907.6 1220.25,3483.34 1008.12,3695.47 1432.38,4119.73 z " fill-rule="evenodd" fill="rgb(0,128,0)" stroke-width="5" stroke="rgb(0,0,0)" />
	<path d="M2283.74,4546.82 2495.87,4334.69 2071.61,3910.43 1859.48,4122.56 2283.74,4546.82 z " fill-rule="evenodd" fill="rgb(0,128,0)" stroke-width="5" stroke="rgb(0,0,0)" />
	<path d="M581.027,4119.73 793.16,3907.6 368.895,3483.34 156.763,3695.47 581.027,4119.73 z " fill-rule="evenodd" fill="rgb(0,128,0)" stroke-width="5" stroke="rgb(0,0,0)" />
	<path d="M1432.38,4546.82 1644.52,4334.69 1220.25,3910.43 1008.12,4122.56 1432.38,4546.82 z " fill-rule="evenodd" fill="rgb(0,128,0)" stroke-width="5" stroke="rgb(0,0,0)" />
	<path d="M2283.74,4973.92 2495.87,4761.78 2071.61,4337.52 1859.48,4549.65 2283.74,4973.92 z " fill-rule="evenodd" fill="rgb(0,128,0)" stroke-width="5" stroke="rgb(0,0,0)" />
	<path d="M581.027,4546.82 793.16,4334.69 368.895,3910.43 156.763,4122.56 581.027,4546.82 z " fill-rule="evenodd" fill="rgb(0,128,0)" stroke-width="5" stroke="rgb(0,0,0)" />
	<path d="M1432.38,4973.92 1644.52,4761.78 1220.25,4337.52 1008.12,4549.65 1432.38,4973.92 z " fill-rule="evenodd" fill="rgb(0,128,0)" stroke-width="5" stroke="rgb(0,0,0)" />
	<path d="M2283.74,5401.01 2495.87,5188.88 2071.61,4764.61 1859.48,4976.74 2283.74,5401.01 z " fill-rule="evenodd" fill="rgb(0,128,0)" stroke-width="5" stroke="rgb(0,0,0)" />
	<path d="M581.027,4973.92 793.16,4761.78 368.895,4337.52 156.763,4549.65 581.027,4973.92 z " fill-rule="evenodd" fill="rgb(0,128,0)" stroke-width="5" stroke="rgb(0,0,0)" />
	<path d="M1432.38,5401.01 1644.52,5188.88 1220.25,4764.61 1008.12,4976.74 1432.38,5401.01 z " fill-rule="evenodd" fill="rgb(0,128,0)" stroke-width="5" stroke="rgb(0,0,0)" />
	<path d="M2283.74,5828.1 2495.87,5615.97 2071.61,5191.71 1859.48,5403.84 2283.74,5828.1 z " fill-rule="evenodd" fill="rgb(0,128,0)" stroke-width="5" stroke="rgb(0,0,0)" />
	<path d="M581.027,5401.01 793.16,5188.88 368.895,4764.61 156.763,4976.74 581.027,5401.01 z " fill-rule="evenodd" fill="rgb(0,128,0)" stroke-width="5" stroke="rgb(0,0,0)" />
	<path d="M1432.38,5828.1 1644.52,5615.97 1220.25,5191.71 1008.12,5403.84 1432.38,5828.1 z " fill-rule="evenodd" fill="rgb(0,128,0)" stroke-width="5" stroke="rgb(0,0,0)" />
	<path d="M2283.74,6255.19 2495.87,6043.06 2071.61,5618.8 1859.48,5830.93 2283.74,6255.19 z " fill-rule="evenodd" fill="rgb(0,128,0)" stroke-width="5" stroke="rgb(0,0,0)" />
	<path d="M581.027,5828.1 793.16,5615.97 368.895,5191.71 156.763,5403.84 581.027,5828.1 z " fill-rule="evenodd" fill="rgb(0,128,0)" stroke-width="5" stroke="rgb(0,0,0)" />
	<path d="M1432.38,6255.19 1644.52,6043.06 1220.25,5618.8 1008.12,5830.93 1432.38,6255.19 z " fill-rule="evenodd" fill="rgb(0,128,0)" stroke-width="5" stroke="rgb(0,0,0)" />
	<path d="M2283.74,6682.29 2495.87,6470.15 2071.61,6045.89 1859.48,6258.02 2283.74,6682.29 z " fill-rule="evenodd" fill="rgb(0,128,0)" stroke-width="5" stroke="rgb(0,0,0)" />
	<path d="M581.027,6255.19 793.16,6043.06 368.895,5618.8 156.763,5830.93 581.027,6255.19 z " fill-rule="evenodd" fill="rgb(0,128,0)" stroke-width="5" stroke="rgb(0,0,0)" />
	<path d="M1432.38,6682.29 1644.52,6470.15 1220.25,6045.89 1008.12,6258.02 1432.38,6682.29 z " fill-rule="evenodd" fill="rgb(0,128,0)" stroke-width="5" stroke="rgb(0,0,0)" />
	<path d="M581.027,6682.29 793.16,6470.15 368.895,6045.89 156.763,6258.02 581.027,6682.29 z " fill-rule="evenodd" fill="rgb(0,128,0)" stroke-width="5" stroke="rgb(0,0,0)" />
	<path d="M3136.51,2839.87 3560.78,2415.6 3772.91,2627.74 3448.64,2952 3248.64,2952 3136.51,2839.87 z " fill-rule="evenodd" fill="rgb(255,0,0)" stroke-width="5" stroke="rgb(0,0,0)" />
	<path d="M3987.87,2839.87 4412.13,2415.6 4624.26,2627.74 4200,3052 4200,2952 4100,2952 3987.87,2839.87 z " fill-rule="evenodd" fill="rgb(255,0,0)" stroke-width="5" stroke="rgb(0,0,0)" />
	<path d="M5263.49,3269.79 5475.62,3481.92 5051.36,3906.18 5050,3904.83 5050,3483.28 5263.49,3269.79 z " fill-rule="evenodd" fill="rgb(255,0,0)" stroke-width="5" stroke="rgb(0,0,0)" />
	<path d="M4839.22,3694.05 4950,3583.28 4950,3804.83 4839.22,3694.05 z " fill-rule="evenodd" fill="rgb(255,0,0)" stroke-width="5" stroke="rgb(0,0,0)" />
	<path d="M5263.49,2842.7 5475.62,3054.83 5051.36,3479.09 5050,3477.74 5050,3056.18 5263.49,2842.7 z " fill-rule="evenodd" fill="rgb(255,0,0)" stroke-width="5" stroke="rgb(0,0,0)" />
	<path d="M4839.22,3266.96 4950,3156.18 4950,3377.74 4839.22,3266.96 z " fill-rule="evenodd" fill="rgb(255,0,0)" stroke-width="5" stroke="rgb(0,0,0)" />
	<path d="M4839.22,2839.87 5263.49,2415.6 5475.62,2627.74 5051.36,3052 5050,3050.64 5050,2952 4951.36,2952 4839.22,2839.87 z " fill-rule="evenodd" fill="rgb(255,0,0)" stroke-width="5" stroke="rgb(0,0,0)" />
	<path d="M3772.91,3054.83 3700,3127.74 3700,3052 3770.08,3052 3772.91,3054.83 z " fill-rule="evenodd" fill="rgb(255,0,0)" stroke-width="5" stroke="rgb(0,0,0)" />
	<path d="M3560.78,2842.7 3670.08,2952 3451.47,2952 3560.78,2842.7 z " fill-rule="evenodd" fill="rgb(255,0,0)" stroke-width="5" stroke="rgb(0,0,0)" />
	<path d="M3560.78,1134.33 3772.91,1346.46 3348.64,1770.72 3156.5,1578.58 3183.77,1511.34 3560.78,1134.33 z " fill-rule="evenodd" fill="rgb(255,0,0)" stroke-width="5" stroke="rgb(0,0,0)" />
	<path d="M5263.49,3696.88 5475.62,3909.01 5051.36,4333.28 5050,4331.92 5050,3910.37 5263.49,3696.88 z " fill-rule="evenodd" fill="rgb(255,0,0)" stroke-width="5" stroke="rgb(0,0,0)" />
	<path d="M4839.22,4121.15 4950,4010.37 4950,4231.92 4839.22,4121.15 z " fill-rule="evenodd" fill="rgb(255,0,0)" stroke-width="5" stroke="rgb(0,0,0)" />
	<path d="M1433.8,2839.87 1858.06,2415.6 2070.19,2627.74 1745.93,2952 1545.93,2952 1433.8,2839.87 z " fill-rule="evenodd" fill="rgb(255,0,0)" stroke-width="5" stroke="rgb(0,0,0)" />
	<path d="M2070.19,1773.55 1645.93,2197.82 1433.8,1985.68 1817.48,1602 1898.64,1602 2070.19,1773.55 z " fill-rule="evenodd" fill="rgb(255,0,0)" stroke-width="5" stroke="rgb(0,0,0)" />
	<path d="M2497.29,3479.09 2285.15,3266.96 2709.42,2842.7 2850,2983.28 2850,3126.38 2497.29,3479.09 z " fill-rule="evenodd" fill="rgb(255,0,0)" stroke-width="5" stroke="rgb(0,0,0)" />
	<path d="M3772.91,3481.92 3700,3554.83 3700,3409.01 3772.91,3481.92 z " fill-rule="evenodd" fill="rgb(255,0,0)" stroke-width="5" stroke="rgb(0,0,0)" />
	<path d="M1645.93,1770.72 1477.21,1602 1814.65,1602 1645.93,1770.72 z " fill-rule="evenodd" fill="rgb(255,0,0)" stroke-width="5" stroke="rgb(0,0,0)" />
	<path d="M5263.49,4123.97 5475.62,4336.11 5051.36,4760.37 5050,4759.01 5050,4337.46 5263.49,4123.97 z " fill-rule="evenodd" fill="rgb(255,0,0)" stroke-width="5" stroke="rgb(0,0,0)" />
	<path d="M4839.22,4548.24 4950,4437.46 4950,4659.01 4839.22,4548.24 z " fill-rule="evenodd" fill="rgb(255,0,0)" stroke-width="5" stroke="rgb(0,0,0)" />
	<path d="M2921.55,492.273 2497.29,916.538 2285.15,704.405 2676.15,313.405 2788.08,358.801 2921.55,492.273 z " fill-rule="evenodd" fill="rgb(255,0,0)" stroke-width="5" stroke="rgb(0,0,0)" />
	<path d="M3560.78,707.234 3772.91,919.366 3348.64,1343.63 3279.72,1274.71 3475.1,792.905 3560.78,707.234 z " fill-rule="evenodd" fill="rgb(255,0,0)" stroke-width="5" stroke="rgb(0,0,0)" />
	<path d="M3136.51,1131.5 3294.33,973.679 3203.24,1198.22 3136.51,1131.5 z " fill-rule="evenodd" fill="rgb(255,0,0)" stroke-width="5" stroke="rgb(0,0,0)" />
	<path d="M6541.94,5402.42 6966.2,4978.16 7178.33,5190.29 6816.62,5552 6691.51,5552 6541.94,5402.42 z " fill-rule="evenodd" fill="rgb(255,0,0)" stroke-width="5" stroke="rgb(0,0,0)" />
	<path d="M582.442,2839.87 1006.71,2415.6 1218.84,2627.74 894.574,2952 694.574,2952 582.442,2839.87 z " fill-rule="evenodd" fill="rgb(255,0,0)" stroke-width="5" stroke="rgb(0,0,0)" />
	<path d="M1645.93,3479.09 1433.8,3266.96 1548.76,3152 1973.02,3152 1645.93,3479.09 z " fill-rule="evenodd" fill="rgb(255,0,0)" stroke-width="5" stroke="rgb(0,0,0)" />
	<path d="M2070.19,3054.83 2050,3075.02 2050,3034.63 2070.19,3054.83 z " fill-rule="evenodd" fill="rgb(255,0,0)" stroke-width="5" stroke="rgb(0,0,0)" />
	<path d="M1858.06,2842.7 1967.37,2952 1748.76,2952 1858.06,2842.7 z " fill-rule="evenodd" fill="rgb(255,0,0)" stroke-width="5" stroke="rgb(0,0,0)" />
	<path d="M2497.29,3906.18 2285.15,3694.05 2709.42,3269.79 2900,3460.37 2900,3503.47 2497.29,3906.18 z " fill-rule="evenodd" fill="rgb(255,0,0)" stroke-width="5" stroke="rgb(0,0,0)" />
	<path d="M794.574,1770.72 625.851,1602 700,1602 700,1502 1063.3,1502 794.574,1770.72 z " fill-rule="evenodd" fill="rgb(255,0,0)" stroke-width="5" stroke="rgb(0,0,0)" />
	<path d="M3772.91,3909.01 3700,3981.92 3700,3836.11 3772.91,3909.01 z " fill-rule="evenodd" fill="rgb(255,0,0)" stroke-width="5" stroke="rgb(0,0,0)" />
	<path d="M5263.49,4551.07 5475.62,4763.2 5051.36,5187.46 5050,5186.11 5050,4764.55 5263.49,4551.07 z " fill-rule="evenodd" fill="rgb(255,0,0)" stroke-width="5" stroke="rgb(0,0,0)" />
	<path d="M4950,4864.55 4950,4952 4862.55,4952 4950,4864.55 z " fill-rule="evenodd" fill="rgb(255,0,0)" stroke-width="5" stroke="rgb(0,0,0)" />
	<path d="M5690.58,5402.42 6114.85,4978.16 6326.98,5190.29 5965.27,5552 5840.16,5552 5690.58,5402.42 z " fill-rule="evenodd" fill="rgb(255,0,0)" stroke-width="5" stroke="rgb(0,0,0)" />
	<path d="M2497.29,489.445 2285.15,277.313 2372.3,190.165 2674.14,312.589 2497.29,489.445 z " fill-rule="evenodd" fill="rgb(255,0,0)" stroke-width="5" stroke="rgb(0,0,0)" />
	<path d="M3477.03,788.147 3529,660 3583.18,682 3477.03,788.147 z " fill-rule="evenodd" fill="rgb(255,0,0)" stroke-width="5" stroke="rgb(0,0,0)" />
	<path d="M3136.51,704.405 3281.85,559.071 3437,622 3326.5,894.39 3136.51,704.405 z " fill-rule="evenodd" fill="rgb(255,0,0)" stroke-width="5" stroke="rgb(0,0,0)" />
	<path d="M4200,1343.63 3987.87,1131.5 4190.7,928.671 4492.44,1051.19 4200,1343.63 z " fill-rule="evenodd" fill="rgb(255,0,0)" stroke-width="5" stroke="rgb(0,0,0)" />
	<path d="M5051.36,1770.72 4839.22,1558.59 5099.95,1297.86 5401.7,1420.38 5051.36,1770.72 z " fill-rule="evenodd" fill="rgb(255,0,0)" stroke-width="5" stroke="rgb(0,0,0)" />
	<path d="M5902.71,2197.82 5690.58,1985.68 6009.21,1667.05 6310.96,1789.57 5902.71,2197.82 z " fill-rule="evenodd" fill="rgb(255,0,0)" stroke-width="5" stroke="rgb(0,0,0)" />
	<path d="M6966.2,5405.25 7112.95,5552 6819.45,5552 6966.2,5405.25 z " fill-rule="evenodd" fill="rgb(255,0,0)" stroke-width="5" stroke="rgb(0,0,0)" />
	<path d="M7178.33,2200.64 6754.07,2624.91 6541.94,2412.78 6918.47,2036.24 7079.19,2101.5 7178.33,2200.64 z " fill-rule="evenodd" fill="rgb(255,0,0)" stroke-width="5" stroke="rgb(0,0,0)" />
	<path d="M7817.56,5405.25 7964.31,5552 7670.81,5552 7817.56,5405.25 z " fill-rule="evenodd" fill="rgb(255,0,0)" stroke-width="5" stroke="rgb(0,0,0)" />
	<path d="M7393.29,5402.42 7817.56,4978.16 8029.69,5190.29 7667.98,5552 7542.87,5552 7393.29,5402.42 z " fill-rule="evenodd" fill="rgb(255,0,0)" stroke-width="5" stroke="rgb(0,0,0)" />
	<path d="M155.349,2415.6 367.481,2627.74 100,2895.22 100,2470.95 155.349,2415.6 z " fill-rule="evenodd" fill="rgb(255,0,0)" stroke-width="5" stroke="rgb(0,0,0)" />
	<path d="M155.349,1988.51 367.481,2200.64 100,2468.12 100,2043.86 155.349,1988.51 z " fill-rule="evenodd" fill="rgb(255,0,0)" stroke-width="5" stroke="rgb(0,0,0)" />
	<path d="M367.481,1773.55 100,2041.03 100,1616.77 114.768,1602 195.93,1602 367.481,1773.55 z " fill-rule="evenodd" fill="rgb(255,0,0)" stroke-width="5" stroke="rgb(0,0,0)" />
	<path d="M794.574,3479.09 582.442,3266.96 697.402,3152 1121.67,3152 794.574,3479.09 z " fill-rule="evenodd" fill="rgb(255,0,0)" stroke-width="5" stroke="rgb(0,0,0)" />
	<path d="M1006.71,2842.7 1116.01,2952 897.402,2952 1006.71,2842.7 z " fill-rule="evenodd" fill="rgb(255,0,0)" stroke-width="5" stroke="rgb(0,0,0)" />
	<path d="M100,1613.94 100,1602 111.94,1602 100,1613.94 z " fill-rule="evenodd" fill="rgb(255,0,0)" stroke-width="5" stroke="rgb(0,0,0)" />
	<path d="M2497.29,4333.28 2285.15,4121.15 2709.42,3696.88 2900,3887.46 2900,3930.56 2497.29,4333.28 z " fill-rule="evenodd" fill="rgb(255,0,0)" stroke-width="5" stroke="rgb(0,0,0)" />
	<path d="M3772.91,4336.11 3700,4409.01 3700,4263.2 3772.91,4336.11 z " fill-rule="evenodd" fill="rgb(255,0,0)" stroke-width="5" stroke="rgb(0,0,0)" />
	<path d="M4412.13,4551.07 4624.26,4763.2 4435.46,4952 4011.2,4952 4412.13,4551.07 z " fill-rule="evenodd" fill="rgb(255,0,0)" stroke-width="5" stroke="rgb(0,0,0)" />
	<path d="M5263.49,4978.16 5475.62,5190.29 5113.91,5552 5050,5552 5050,5191.65 5263.49,4978.16 z " fill-rule="evenodd" fill="rgb(255,0,0)" stroke-width="5" stroke="rgb(0,0,0)" />
	<path d="M6114.85,5405.25 6261.59,5552 5968.1,5552 6114.85,5405.25 z " fill-rule="evenodd" fill="rgb(255,0,0)" stroke-width="5" stroke="rgb(0,0,0)" />
	<path d="M5051.36,1343.63 4941.08,1233.35 5097.94,1297.04 5051.36,1343.63 z " fill-rule="evenodd" fill="rgb(255,0,0)" stroke-width="5" stroke="rgb(0,0,0)" />
	<path d="M5902.71,1770.72 5690.58,1558.59 5705.46,1543.72 6007.2,1666.23 5902.71,1770.72 z " fill-rule="evenodd" fill="rgb(255,0,0)" stroke-width="5" stroke="rgb(0,0,0)" />
	<path d="M6754.07,2197.82 6541.94,1985.68 6614.71,1912.91 6916.46,2035.42 6754.07,2197.82 z " fill-rule="evenodd" fill="rgb(255,0,0)" stroke-width="5" stroke="rgb(0,0,0)" />
	<path d="M7605.43,2624.91 7393.29,2412.78 7523.97,2282.1 7825.72,2404.62 7605.43,2624.91 z " fill-rule="evenodd" fill="rgb(255,0,0)" stroke-width="5" stroke="rgb(0,0,0)" />
	<path d="M8600,5474.17 8600,5552 8522.17,5552 8600,5474.17 z " fill-rule="evenodd" fill="rgb(255,0,0)" stroke-width="5" stroke="rgb(0,0,0)" />
	<path d="M8519.34,5552 8394.23,5552 8244.65,5402.42 8600,5047.07 8600,5471.34 8519.34,5552 z " fill-rule="evenodd" fill="rgb(255,0,0)" stroke-width="5" stroke="rgb(0,0,0)" />
	<path d="M8456.78,5187.46 8244.65,4975.33 8600,4619.98 8600,5044.25 8456.78,5187.46 z " fill-rule="evenodd" fill="rgb(255,0,0)" stroke-width="5" stroke="rgb(0,0,0)" />
	<path d="M8456.78,4760.37 8244.65,4548.24 8600,4192.89 8600,4617.15 8456.78,4760.37 z " fill-rule="evenodd" fill="rgb(255,0,0)" stroke-width="5" stroke="rgb(0,0,0)" />
	<path d="M8456.78,4333.28 8244.65,4121.15 8600,3765.8 8600,4190.06 8456.78,4333.28 z " fill-rule="evenodd" fill="rgb(255,0,0)" stroke-width="5" stroke="rgb(0,0,0)" />
	<path d="M8456.78,3906.18 8244.65,3694.05 8600,3338.7 8600,3762.97 8456.78,3906.18 z " fill-rule="evenodd" fill="rgb(255,0,0)" stroke-width="5" stroke="rgb(0,0,0)" />
	<path d="M8456.78,3479.09 8244.65,3266.96 8600,2911.61 8600,3335.88 8456.78,3479.09 z " fill-rule="evenodd" fill="rgb(255,0,0)" stroke-width="5" stroke="rgb(0,0,0)" />
	<path d="M8456.78,3052 8244.65,2839.87 8433.23,2651.29 8600,2719 8600,2908.78 8456.78,3052 z " fill-rule="evenodd" fill="rgb(255,0,0)" stroke-width="5" stroke="rgb(0,0,0)" />
	<path d="M100,3322.31 100,3152 270.31,3152 100,3322.31 z " fill-rule="evenodd" fill="rgb(255,0,0)" stroke-width="5" stroke="rgb(0,0,0)" />
	<path d="M155.349,2842.7 264.653,2952 100,2952 100,2898.05 155.349,2842.7 z " fill-rule="evenodd" fill="rgb(255,0,0)" stroke-width="5" stroke="rgb(0,0,0)" />
	<path d="M2497.29,4760.37 2285.15,4548.24 2709.42,4123.97 2900,4314.55 2900,4357.66 2497.29,4760.37 z " fill-rule="evenodd" fill="rgb(255,0,0)" stroke-width="5" stroke="rgb(0,0,0)" />
	<path d="M3772.91,4763.2 3700,4836.11 3700,4690.29 3772.91,4763.2 z " fill-rule="evenodd" fill="rgb(255,0,0)" stroke-width="5" stroke="rgb(0,0,0)" />
	<path d="M5263.49,5405.25 5410.24,5552 5116.74,5552 5263.49,5405.25 z " fill-rule="evenodd" fill="rgb(255,0,0)" stroke-width="5" stroke="rgb(0,0,0)" />
	<path d="M155.349,3269.79 367.481,3481.92 100,3749.4 100,3325.14 155.349,3269.79 z " fill-rule="evenodd" fill="rgb(255,0,0)" stroke-width="5" stroke="rgb(0,0,0)" />
	<path d="M2497.29,5187.46 2285.15,4975.33 2709.42,4551.07 2900,4741.65 2900,4784.75 2497.29,5187.46 z " fill-rule="evenodd" fill="rgb(255,0,0)" stroke-width="5" stroke="rgb(0,0,0)" />
	<path d="M155.349,3696.88 367.481,3909.01 100,4176.49 100,3752.23 155.349,3696.88 z " fill-rule="evenodd" fill="rgb(255,0,0)" stroke-width="5" stroke="rgb(0,0,0)" />
	<path d="M2497.29,5614.55 2285.15,5402.42 2709.42,4978.16 2900,5168.74 2900,5211.84 2497.29,5614.55 z " fill-rule="evenodd" fill="rgb(255,0,0)" stroke-width="5" stroke="rgb(0,0,0)" />
	<path d="M155.349,4123.97 367.481,4336.11 100,4603.59 100,4179.32 155.349,4123.97 z " fill-rule="evenodd" fill="rgb(255,0,0)" stroke-width="5" stroke="rgb(0,0,0)" />
	<path d="M2497.29,6041.65 2285.15,5829.52 2709.42,5405.25 2900,5595.83 2900,5638.93 2497.29,6041.65 z " fill-rule="evenodd" fill="rgb(255,0,0)" stroke-width="5" stroke="rgb(0,0,0)" />
	<path d="M155.349,4551.07 367.481,4763.2 100,5030.68 100,4606.42 155.349,4551.07 z " fill-rule="evenodd" fill="rgb(255,0,0)" stroke-width="5" stroke="rgb(0,0,0)" />
	<path d="M2497.29,6468.74 2285.15,6256.61 2709.42,5832.34 2900,6022.92 2900,6052 2914.03,6052 2497.29,6468.74 z " fill-rule="evenodd" fill="rgb(255,0,0)" stroke-width="5" stroke="rgb(0,0,0)" />
	<path d="M155.349,4978.16 367.481,5190.29 100,5457.77 100,5033.51 155.349,4978.16 z " fill-rule="evenodd" fill="rgb(255,0,0)" stroke-width="5" stroke="rgb(0,0,0)" />
	<path d="M155.349,5405.25 367.481,5617.38 100,5884.86 100,5460.6 155.349,5405.25 z " fill-rule="evenodd" fill="rgb(255,0,0)" stroke-width="5" stroke="rgb(0,0,0)" />
	<path d="M2868.21,6952 2443.95,6952 2709.42,6686.53 2900,6877.11 2900,6920.21 2868.21,6952 z " fill-rule="evenodd" fill="rgb(255,0,0)" stroke-width="5" stroke="rgb(0,0,0)" />
	<path d="M155.349,5832.34 367.481,6044.48 100,6311.96 100,5887.69 155.349,5832.34 z " fill-rule="evenodd" fill="rgb(255,0,0)" stroke-width="5" stroke="rgb(0,0,0)" />
	<path d="M1858.06,6686.53 2070.19,6898.66 2016.86,6952 1592.59,6952 1858.06,6686.53 z " fill-rule="evenodd" fill="rgb(255,0,0)" stroke-width="5" stroke="rgb(0,0,0)" />
	<path d="M155.349,6259.44 367.481,6471.57 100,6739.05 100,6314.79 155.349,6259.44 z " fill-rule="evenodd" fill="rgb(255,0,0)" stroke-width="5" stroke="rgb(0,0,0)" />
	<path d="M1006.71,6686.53 1218.84,6898.66 1165.5,6952 741.235,6952 1006.71,6686.53 z " fill-rule="evenodd" fill="rgb(255,0,0)" stroke-width="5" stroke="rgb(0,0,0)" />
	<path d="M155.349,6686.53 367.481,6898.66 314.142,6952 100,6952 100,6741.88 155.349,6686.53 z " fill-rule="evenodd" fill="rgb(255,0,0)" stroke-width="5" stroke="rgb(0,0,0)" />
	<path d="M3347.23,1772.14 3135.1,1984.27 2710.83,1560 2922.97,1347.87 3077.09,1502 2950,1502 2950,1602 3147,1602 3155.68,1580.59 3347.23,1772.14 z " fill-rule="evenodd" fill="rgb(255,0,0)" stroke-width="5" stroke="rgb(0,0,0)" />
	<path d="M4198.59,3053.41 3986.45,3265.55 3772.91,3052 4197.17,3052 4198.59,3053.41 z " fill-rule="evenodd" fill="rgb(255,0,0)" stroke-width="5" stroke="rgb(0,0,0)" />
	<path d="M3562.19,2841.28 3774.32,2629.15 4097.17,2952 3672.91,2952 3562.19,2841.28 z " fill-rule="evenodd" fill="rgb(255,0,0)" stroke-width="5" stroke="rgb(0,0,0)" />
	<path d="M4837.81,3692.64 4413.55,3268.37 4625.68,3056.24 4950,3380.56 4950,3580.45 4837.81,3692.64 z " fill-rule="evenodd" fill="rgb(255,0,0)" stroke-width="5" stroke="rgb(0,0,0)" />
	<path d="M4837.81,3265.55 4413.55,2841.28 4625.68,2629.15 4948.53,2952 4900,2952 4900,3052 4950,3052 4950,3153.36 4837.81,3265.55 z " fill-rule="evenodd" fill="rgb(255,0,0)" stroke-width="5" stroke="rgb(0,0,0)" />
	<path d="M2495.87,1772.14 2283.74,1984.27 1901.47,1602 2150,1602 2150,1426.26 2495.87,1772.14 z " fill-rule="evenodd" fill="rgb(255,0,0)" stroke-width="5" stroke="rgb(0,0,0)" />
	<path d="M2710.83,2841.28 2922.97,2629.15 3245.82,2952 2850,2952 2850,2980.45 2710.83,2841.28 z " fill-rule="evenodd" fill="rgb(255,0,0)" stroke-width="5" stroke="rgb(0,0,0)" />
	<path d="M3774.32,3056.24 4198.59,3480.51 3986.45,3692.64 3700,3406.18 3700,3130.56 3774.32,3056.24 z " fill-rule="evenodd" fill="rgb(255,0,0)" stroke-width="5" stroke="rgb(0,0,0)" />
	<path d="M2495.87,1345.04 2283.74,1557.18 2150,1423.44 2150,999.172 2495.87,1345.04 z " fill-rule="evenodd" fill="rgb(255,0,0)" stroke-width="5" stroke="rgb(0,0,0)" />
	<path d="M2495.87,917.952 2283.74,1130.08 2150,996.343 2150,572.079 2495.87,917.952 z " fill-rule="evenodd" fill="rgb(255,0,0)" stroke-width="5" stroke="rgb(0,0,0)" />
	<path d="M3347.23,1345.04 3185.7,1506.58 3278.91,1276.72 3347.23,1345.04 z " fill-rule="evenodd" fill="rgb(255,0,0)" stroke-width="5" stroke="rgb(0,0,0)" />
	<path d="M2710.83,1132.91 2922.97,920.78 3202.42,1200.24 3080,1502 3079.92,1502 2710.83,1132.91 z " fill-rule="evenodd" fill="rgb(255,0,0)" stroke-width="5" stroke="rgb(0,0,0)" />
	<path d="M4837.81,4119.73 4413.55,3695.47 4625.68,3483.34 4950,3807.66 4950,4007.54 4837.81,4119.73 z " fill-rule="evenodd" fill="rgb(255,0,0)" stroke-width="5" stroke="rgb(0,0,0)" />
	<path d="M1644.52,1772.14 1432.38,1984.27 1008.12,1560 1066.12,1502 1374.38,1502 1400,1527.62 1400,1602 1474.38,1602 1644.52,1772.14 z " fill-rule="evenodd" fill="rgb(255,0,0)" stroke-width="5" stroke="rgb(0,0,0)" />
	<path d="M1859.48,2841.28 2071.61,2629.15 2495.87,3053.41 2283.74,3265.55 2050,3031.81 2050,2952 1970.19,2952 1859.48,2841.28 z " fill-rule="evenodd" fill="rgb(255,0,0)" stroke-width="5" stroke="rgb(0,0,0)" />
	<path d="M2710.83,3268.37 2850,3129.21 2850,3152 2900,3152 2900,3457.54 2710.83,3268.37 z " fill-rule="evenodd" fill="rgb(255,0,0)" stroke-width="5" stroke="rgb(0,0,0)" />
	<path d="M1377.21,1502 1400,1502 1400,1524.79 1377.21,1502 z " fill-rule="evenodd" fill="rgb(255,0,0)" stroke-width="5" stroke="rgb(0,0,0)" />
	<path d="M3774.32,3483.34 4198.59,3907.6 3986.45,4119.73 3700,3833.28 3700,3557.66 3774.32,3483.34 z " fill-rule="evenodd" fill="rgb(255,0,0)" stroke-width="5" stroke="rgb(0,0,0)" />
	<path d="M4837.81,4546.82 4413.55,4122.56 4625.68,3910.43 4950,4234.75 4950,4434.63 4837.81,4546.82 z " fill-rule="evenodd" fill="rgb(255,0,0)" stroke-width="5" stroke="rgb(0,0,0)" />
	<path d="M2495.87,490.859 2283.74,702.991 2150,569.251 2150,144.987 2495.87,490.859 z " fill-rule="evenodd" fill="rgb(255,0,0)" stroke-width="5" stroke="rgb(0,0,0)" />
	<path d="M3135.1,1130.08 2710.83,705.82 2922.97,493.688 3325.68,896.402 3296.26,968.92 3135.1,1130.08 z " fill-rule="evenodd" fill="rgb(255,0,0)" stroke-width="5" stroke="rgb(0,0,0)" />
	<path d="M793.16,1772.14 581.027,1984.27 198.759,1602 623.023,1602 793.16,1772.14 z " fill-rule="evenodd" fill="rgb(255,0,0)" stroke-width="5" stroke="rgb(0,0,0)" />
	<path d="M1432.38,3265.55 1318.84,3152 1545.93,3152 1432.38,3265.55 z " fill-rule="evenodd" fill="rgb(255,0,0)" stroke-width="5" stroke="rgb(0,0,0)" />
	<path d="M1008.12,2841.28 1220.25,2629.15 1543.1,2952 1118.84,2952 1008.12,2841.28 z " fill-rule="evenodd" fill="rgb(255,0,0)" stroke-width="5" stroke="rgb(0,0,0)" />
	<path d="M2071.61,3056.24 2495.87,3480.51 2283.74,3692.64 1859.48,3268.37 1975.85,3152 2050,3152 2050,3077.85 2071.61,3056.24 z " fill-rule="evenodd" fill="rgb(255,0,0)" stroke-width="5" stroke="rgb(0,0,0)" />
	<path d="M2710.83,3695.47 2900,3506.3 2900,3884.63 2710.83,3695.47 z " fill-rule="evenodd" fill="rgb(255,0,0)" stroke-width="5" stroke="rgb(0,0,0)" />
	<path d="M3774.32,3910.43 4198.59,4334.69 3986.45,4546.82 3700,4260.37 3700,3984.75 3774.32,3910.43 z " fill-rule="evenodd" fill="rgb(255,0,0)" stroke-width="5" stroke="rgb(0,0,0)" />
	<path d="M4859.73,4952 4815.89,4952 4413.55,4549.65 4625.68,4337.52 4950,4661.84 4950,4861.73 4859.73,4952 z " fill-rule="evenodd" fill="rgb(255,0,0)" stroke-width="5" stroke="rgb(0,0,0)" />
	<path d="M2283.74,275.899 2150,142.158 2150,100 2370.29,189.349 2283.74,275.899 z " fill-rule="evenodd" fill="rgb(255,0,0)" stroke-width="5" stroke="rgb(0,0,0)" />
	<path d="M3135.1,702.991 2792.84,360.731 3279.83,558.254 3135.1,702.991 z " fill-rule="evenodd" fill="rgb(255,0,0)" stroke-width="5" stroke="rgb(0,0,0)" />
	<path d="M3986.45,1130.08 3562.19,705.82 3585.19,682.816 4188.68,927.854 3986.45,1130.08 z " fill-rule="evenodd" fill="rgb(255,0,0)" stroke-width="5" stroke="rgb(0,0,0)" />
	<path d="M5049.94,1345.04 4837.81,1557.18 4413.55,1132.91 4494.45,1052.01 4936.32,1231.42 5049.94,1345.04 z " fill-rule="evenodd" fill="rgb(255,0,0)" stroke-width="5" stroke="rgb(0,0,0)" />
	<path d="M5901.3,1772.14 5689.17,1984.27 5264.9,1560 5403.71,1421.2 5650.61,1521.45 5901.3,1772.14 z " fill-rule="evenodd" fill="rgb(255,0,0)" stroke-width="5" stroke="rgb(0,0,0)" />
	<path d="M6116.26,5403.84 6328.39,5191.71 6688.69,5552 6264.42,5552 6116.26,5403.84 z " fill-rule="evenodd" fill="rgb(255,0,0)" stroke-width="5" stroke="rgb(0,0,0)" />
	<path d="M6752.66,2199.23 6540.52,2411.36 6116.26,1987.1 6312.97,1790.39 6364.9,1811.47 6752.66,2199.23 z " fill-rule="evenodd" fill="rgb(255,0,0)" stroke-width="5" stroke="rgb(0,0,0)" />
	<path d="M6967.62,5403.84 7179.75,5191.71 7540.04,5552 7115.78,5552 6967.62,5403.84 z " fill-rule="evenodd" fill="rgb(255,0,0)" stroke-width="5" stroke="rgb(0,0,0)" />
	<path d="M581.027,3265.55 467.481,3152 694.574,3152 581.027,3265.55 z " fill-rule="evenodd" fill="rgb(255,0,0)" stroke-width="5" stroke="rgb(0,0,0)" />
	<path d="M156.763,2841.28 368.895,2629.15 691.745,2952 267.481,2952 156.763,2841.28 z " fill-rule="evenodd" fill="rgb(255,0,0)" stroke-width="5" stroke="rgb(0,0,0)" />
	<path d="M1644.52,3480.51 1432.38,3692.64 1008.12,3268.37 1124.49,3152 1316.01,3152 1644.52,3480.51 z " fill-rule="evenodd" fill="rgb(255,0,0)" stroke-width="5" stroke="rgb(0,0,0)" />
	<path d="M2710.83,4122.56 2900,3933.39 2900,4311.73 2710.83,4122.56 z " fill-rule="evenodd" fill="rgb(255,0,0)" stroke-width="5" stroke="rgb(0,0,0)" />
	<path d="M3774.32,4337.52 4198.59,4761.78 4008.37,4952 3964.54,4952 3700,4687.46 3700,4411.84 3774.32,4337.52 z " fill-rule="evenodd" fill="rgb(255,0,0)" stroke-width="5" stroke="rgb(0,0,0)" />
	<path d="M4625.68,4764.61 4813.07,4952 4438.29,4952 4625.68,4764.61 z " fill-rule="evenodd" fill="rgb(255,0,0)" stroke-width="5" stroke="rgb(0,0,0)" />
	<path d="M5264.9,5403.84 5477.03,5191.71 5837.33,5552 5413.07,5552 5264.9,5403.84 z " fill-rule="evenodd" fill="rgb(255,0,0)" stroke-width="5" stroke="rgb(0,0,0)" />
	<path d="M5689.17,1557.18 5655.37,1523.38 5703.44,1542.9 5689.17,1557.18 z " fill-rule="evenodd" fill="rgb(255,0,0)" stroke-width="5" stroke="rgb(0,0,0)" />
	<path d="M6540.52,1984.27 6369.66,1813.41 6612.7,1912.09 6540.52,1984.27 z " fill-rule="evenodd" fill="rgb(255,0,0)" stroke-width="5" stroke="rgb(0,0,0)" />
	<path d="M7391.88,2411.36 7083.95,2103.43 7521.96,2281.28 7391.88,2411.36 z " fill-rule="evenodd" fill="rgb(255,0,0)" stroke-width="5" stroke="rgb(0,0,0)" />
	<path d="M7818.97,5403.84 8031.1,5191.71 8391.4,5552 7967.14,5552 7818.97,5403.84 z " fill-rule="evenodd" fill="rgb(255,0,0)" stroke-width="5" stroke="rgb(0,0,0)" />
	<path d="M8243.24,2838.45 7818.97,2414.19 7827.73,2405.43 8431.22,2650.47 8243.24,2838.45 z " fill-rule="evenodd" fill="rgb(255,0,0)" stroke-width="5" stroke="rgb(0,0,0)" />
	<path d="M793.16,3480.51 581.027,3692.64 156.763,3268.37 273.138,3152 464.653,3152 793.16,3480.51 z " fill-rule="evenodd" fill="rgb(255,0,0)" stroke-width="5" stroke="rgb(0,0,0)" />
	<path d="M2710.83,4549.65 2900,4360.49 2900,4738.82 2710.83,4549.65 z " fill-rule="evenodd" fill="rgb(255,0,0)" stroke-width="5" stroke="rgb(0,0,0)" />
	<path d="M3774.32,4764.61 3961.71,4952 3700,4952 3700,4838.93 3774.32,4764.61 z " fill-rule="evenodd" fill="rgb(255,0,0)" stroke-width="5" stroke="rgb(0,0,0)" />
	<path d="M2710.83,4976.74 2900,4787.58 2900,5165.91 2710.83,4976.74 z " fill-rule="evenodd" fill="rgb(255,0,0)" stroke-width="5" stroke="rgb(0,0,0)" />
	<path d="M2710.83,5403.84 2900,5214.67 2900,5593 2710.83,5403.84 z " fill-rule="evenodd" fill="rgb(255,0,0)" stroke-width="5" stroke="rgb(0,0,0)" />
	<path d="M2710.83,5830.93 2900,5641.76 2900,6020.1 2710.83,5830.93 z " fill-rule="evenodd" fill="rgb(255,0,0)" stroke-width="5" stroke="rgb(0,0,0)" />
	<path d="M2931.9,6052 3100,6052 3100,6220.1 2931.9,6052 z " fill-rule="evenodd" fill="rgb(255,0,0)" stroke-width="5" stroke="rgb(0,0,0)" />
	<path d="M3100,6222.92 3100,6647.19 2710.83,6258.02 2916.86,6052 2929.08,6052 3100,6222.92 z " fill-rule="evenodd" fill="rgb(255,0,0)" stroke-width="5" stroke="rgb(0,0,0)" />
	<path d="M2710.83,6685.11 2922.97,6472.98 3100,6650.02 3100,6852 2900,6852 2900,6874.28 2710.83,6685.11 z " fill-rule="evenodd" fill="rgb(255,0,0)" stroke-width="5" stroke="rgb(0,0,0)" />
	<path d="M1859.48,6685.11 2071.61,6472.98 2495.87,6897.25 2441.12,6952 2126.36,6952 1859.48,6685.11 z " fill-rule="evenodd" fill="rgb(255,0,0)" stroke-width="5" stroke="rgb(0,0,0)" />
	<path d="M2900,6923.04 2900,6952 2871.04,6952 2900,6923.04 z " fill-rule="evenodd" fill="rgb(255,0,0)" stroke-width="5" stroke="rgb(0,0,0)" />
	<path d="M1008.12,6685.11 1220.25,6472.98 1644.52,6897.25 1589.76,6952 1275.01,6952 1008.12,6685.11 z " fill-rule="evenodd" fill="rgb(255,0,0)" stroke-width="5" stroke="rgb(0,0,0)" />
	<path d="M2071.61,6900.08 2123.53,6952 2019.68,6952 2071.61,6900.08 z " fill-rule="evenodd" fill="rgb(255,0,0)" stroke-width="5" stroke="rgb(0,0,0)" />
	<path d="M156.763,6685.11 368.895,6472.98 793.16,6897.25 738.406,6952 423.649,6952 156.763,6685.11 z " fill-rule="evenodd" fill="rgb(255,0,0)" stroke-width="5" stroke="rgb(0,0,0)" />
	<path d="M1220.25,6900.08 1272.18,6952 1168.33,6952 1220.25,6900.08 z " fill-rule="evenodd" fill="rgb(255,0,0)" stroke-width="5" stroke="rgb(0,0,0)" />
	<path d="M368.895,6900.08 420.82,6952 316.971,6952 368.895,6900.08 z " fill-rule="evenodd" fill="rgb(255,0,0)" stroke-width="5" stroke="rgb(0,0,0)" />
	<polyline points="4195,3057 4619.26,2632.74 4195,3057 3770.74,2632.74 4195,3057 " fill="none" stroke-width="100" stroke="rgb(0,0,0)" />
	<circle cx="4195" cy="3057" r="-7.07107" fill="rgb(0,0,0)" />
	<circle cx="4619.26" cy="2632.74" r="-7.07107" fill="rgb(0,0,0)" />
	<circle cx="4195" cy="3057" r="-7.07107" fill="rgb(0,0,0)" />
	<circle cx="3770.74" cy="2632.74" r="-7.07107" fill="rgb(0,0,0)" />
	<circle cx="4195" cy="3057" r="-7.07107" fill="rgb(0,0,0)" />
	<polyline points="4195,3523.69 4195,3057 3261.62,3057 " fill="none" stroke-width="0.5" stroke="rgb(128,0,128)" />
</svg>
