<?xml version="1.0" standalone="no" ?>
<!DOCTYPE svg PUBLIC "-//W3C//DTD SVG 1.1//EN" "http://www.w3.org/Graphics/SVG/1.1/DTD/svg11.dtd">
<svg width="8700px" height="7052px" xmlns="http://www.w3.org/2000/svg" version="1.1" >
	<path d="M4198.64,4697.82 4622.91,4273.55 4410.78,4061.42 3986.51,4485.68 4198.64,4697.82 z " fill-rule="evenodd" fill="rgb(0,128,0)" stroke-width="5" stroke="rgb(0,0,0)" />
	<path d="M5901.36,5552 6325.62,5127.74 6113.49,4915.6 5689.22,5339.87 5901.36,5552 z " fill-rule="evenodd" fill="rgb(0,128,0)" stroke-width="5" stroke="rgb(0,0,0)" />
	<path d="M4198.64,4270.72 4622.91,3846.46 4410.78,3634.33 3986.51,4058.59 4198.64,4270.72 z " fill-rule="evenodd" fill="rgb(0,128,0)" stroke-width="5" stroke="rgb(0,0,0)" />
	<path d="M5901.36,5124.91 6325.62,4700.64 6113.49,4488.51 5689.22,4912.78 5901.36,5124.91 z " fill-rule="evenodd" fill="rgb(0,128,0)" stroke-width="5" stroke="rgb(0,0,0)" />
	<path d="M6752.71,5552 7176.98,5127.74 6964.85,4915.6 6540.58,5339.87 6752.71,5552 z " fill-rule="evenodd" fill="rgb(0,128,0)" stroke-width="5" stroke="rgb(0,0,0)" />
	<path d="M2495.93,2989.45 2920.19,2565.18 2708.06,2353.05 2283.8,2777.31 2495.93,2989.45 z " fill-rule="evenodd" fill="rgb(0,128,0)" stroke-width="5" stroke="rgb(0,0,0)" />
	<path d="M4198.64,3843.63 4622.91,3419.37 4410.78,3207.23 3986.51,3631.5 4198.64,3843.63 z " fill-rule="evenodd" fill="rgb(0,128,0)" stroke-width="5" stroke="rgb(0,0,0)" />
	<path d="M5901.36,4697.82 6325.62,4273.55 6113.49,4061.42 5689.22,4485.68 5901.36,4697.82 z " fill-rule="evenodd" fill="rgb(0,128,0)" stroke-width="5" stroke="rgb(0,0,0)" />
	<path d="M6752.71,5124.91 7176.98,4700.64 6964.85,4488.51 6540.58,4912.78 6752.71,5124.91 z " fill-rule="evenodd" fill="rgb(0,128,0)" stroke-width="5" stroke="rgb(0,0,0)" />
	<path d="M7604.07,5552 8028.33,5127.74 7816.2,4915.6 7391.94,5339.87 7604.07,5552 z " fill-rule="evenodd" fill="rgb(0,128,0)" stroke-width="5" stroke="rgb(0,0,0)" />
	<path d="M1644.57,5124.91 2068.84,4700.64 1856.71,4488.51 1432.44,4912.78 1644.57,5124.91 z " fill-rule="evenodd" fill="rgb(0,128,0)" stroke-width="5" stroke="rgb(0,0,0)" />
	<path d="M1644.57,4697.82 2068.84,4273.55 1856.71,4061.42 1432.44,4485.68 1644.57,4697.82 z " fill-rule="evenodd" fill="rgb(0,128,0)" stroke-width="5" stroke="rgb(0,0,0)" />
	<path d="M1644.57,4270.72 2068.84,3846.46 1856.71,3634.33 1432.44,4058.59 1644.57,4270.72 z " fill-rule="evenodd" fill="rgb(0,128,0)" stroke-width="5" stroke="rgb(0,0,0)" />
	<path d="M1644.57,3843.63 2068.84,3419.37 1856.71,3207.23 1432.44,3631.5 1644.57,3843.63 z " fill-rule="evenodd" fill="rgb(0,128,0)" stroke-width="5" stroke="rgb(0,0,0)" />
	<path d="M1644.57,2562.35 2068.84,2138.09 1856.71,1925.96 1432.44,2350.22 1644.57,2562.35 z " fill-rule="evenodd" fill="rgb(0,128,0)" stroke-width="5" stroke="rgb(0,0,0)" />
	<path d="M2495.93,2562.35 2920.19,2138.09 2708.06,1925.96 2283.8,2350.22 2495.93,2562.35 z " fill-rule="evenodd" fill="rgb(0,128,0)" stroke-width="5" stroke="rgb(0,0,0)" />
	<path d="M5901.36,4270.72 6325.62,3846.46 6113.49,3634.33 5689.22,4058.59 5901.36,4270.72 z " fill-rule="evenodd" fill="rgb(0,128,0)" stroke-width="5" stroke="rgb(0,0,0)" />
	<path d="M6752.71,4697.82 7176.98,4273.55 6964.85,4061.42 6540.58,4485.68 6752.71,4697.82 z " fill-rule="evenodd" fill="rgb(0,128,0)" stroke-width="5" stroke="rgb(0,0,0)" />
	<path d="M7604.07,5124.91 8028.33,4700.64 7816.2,4488.51 7391.94,4912.78 7604.07,5124.91 z " fill-rule="evenodd" fill="rgb(0,128,0)" stroke-width="5" stroke="rgb(0,0,0)" />
	<path d="M793.217,5124.91 1217.48,4700.64 1005.35,4488.51 581.085,4912.78 793.217,5124.91 z " fill-rule="evenodd" fill="rgb(0,128,0)" stroke-width="5" stroke="rgb(0,0,0)" />
	<path d="M793.217,4697.82 1217.48,4273.55 1005.35,4061.42 581.085,4485.68 793.217,4697.82 z " fill-rule="evenodd" fill="rgb(0,128,0)" stroke-width="5" stroke="rgb(0,0,0)" />
	<path d="M793.217,4270.72 1217.48,3846.46 1005.35,3634.33 581.085,4058.59 793.217,4270.72 z " fill-rule="evenodd" fill="rgb(0,128,0)" stroke-width="5" stroke="rgb(0,0,0)" />
	<path d="M1644.57,5552 2068.84,5127.74 1856.71,4915.6 1432.44,5339.87 1644.57,5552 z " fill-rule="evenodd" fill="rgb(0,128,0)" stroke-width="5" stroke="rgb(0,0,0)" />
	<path d="M793.217,3843.63 1217.48,3419.37 1005.35,3207.23 581.085,3631.5 793.217,3843.63 z " fill-rule="evenodd" fill="rgb(0,128,0)" stroke-width="5" stroke="rgb(0,0,0)" />
	<path d="M793.217,2562.35 1217.48,2138.09 1005.35,1925.96 581.085,2350.22 793.217,2562.35 z " fill-rule="evenodd" fill="rgb(0,128,0)" stroke-width="5" stroke="rgb(0,0,0)" />
	<path d="M2495.93,2135.26 2920.19,1711 2708.06,1498.86 2283.8,1923.13 2495.93,2135.26 z " fill-rule="evenodd" fill="rgb(0,128,0)" stroke-width="5" stroke="rgb(0,0,0)" />
	<path d="M3347.29,2562.35 3771.55,2138.09 3559.42,1925.96 3135.15,2350.22 3347.29,2562.35 z " fill-rule="evenodd" fill="rgb(0,128,0)" stroke-width="5" stroke="rgb(0,0,0)" />
	<path d="M5901.36,3843.63 6325.62,3419.37 6113.49,3207.23 5689.22,3631.5 5901.36,3843.63 z " fill-rule="evenodd" fill="rgb(0,128,0)" stroke-width="5" stroke="rgb(0,0,0)" />
	<path d="M6752.71,4270.72 7176.98,3846.46 6964.85,3634.33 6540.58,4058.59 6752.71,4270.72 z " fill-rule="evenodd" fill="rgb(0,128,0)" stroke-width="5" stroke="rgb(0,0,0)" />
	<path d="M7604.07,4697.82 8028.33,4273.55 7816.2,4061.42 7391.94,4485.68 7604.07,4697.82 z " fill-rule="evenodd" fill="rgb(0,128,0)" stroke-width="5" stroke="rgb(0,0,0)" />
	<path d="M793.217,5552 1217.48,5127.74 1005.35,4915.6 581.085,5339.87 793.217,5552 z " fill-rule="evenodd" fill="rgb(0,128,0)" stroke-width="5" stroke="rgb(0,0,0)" />
	<path d="M1644.57,5979.09 2068.84,5554.83 1856.71,5342.7 1432.44,5766.96 1644.57,5979.09 z " fill-rule="evenodd" fill="rgb(0,128,0)" stroke-width="5" stroke="rgb(0,0,0)" />
	<path d="M2495.93,1708.17 2920.19,1283.9 2708.06,1071.77 2283.8,1496.04 2495.93,1708.17 z " fill-rule="evenodd" fill="rgb(0,128,0)" stroke-width="5" stroke="rgb(0,0,0)" />
	<path d="M3347.29,2135.26 3771.55,1711 3559.42,1498.86 3135.15,1923.13 3347.29,2135.26 z " fill-rule="evenodd" fill="rgb(0,128,0)" stroke-width="5" stroke="rgb(0,0,0)" />
	<path d="M4198.64,2562.35 4622.91,2138.09 4410.78,1925.96 3986.51,2350.22 4198.64,2562.35 z " fill-rule="evenodd" fill="rgb(0,128,0)" stroke-width="5" stroke="rgb(0,0,0)" />
	<path d="M5901.36,3416.54 6325.62,2992.27 6113.49,2780.14 5689.22,3204.41 5901.36,3416.54 z " fill-rule="evenodd" fill="rgb(0,128,0)" stroke-width="5" stroke="rgb(0,0,0)" />
	<path d="M6752.71,3843.63 7176.98,3419.37 6964.85,3207.23 6540.58,3631.5 6752.71,3843.63 z " fill-rule="evenodd" fill="rgb(0,128,0)" stroke-width="5" stroke="rgb(0,0,0)" />
	<path d="M7604.07,4270.72 8028.33,3846.46 7816.2,3634.33 7391.94,4058.59 7604.07,4270.72 z " fill-rule="evenodd" fill="rgb(0,128,0)" stroke-width="5" stroke="rgb(0,0,0)" />
	<path d="M793.217,5979.09 1217.48,5554.83 1005.35,5342.7 581.085,5766.96 793.217,5979.09 z " fill-rule="evenodd" fill="rgb(0,128,0)" stroke-width="5" stroke="rgb(0,0,0)" />
	<path d="M1644.57,6406.18 2068.84,5981.92 1856.71,5769.79 1432.44,6194.05 1644.57,6406.18 z " fill-rule="evenodd" fill="rgb(0,128,0)" stroke-width="5" stroke="rgb(0,0,0)" />
	<path d="M2495.93,6833.28 2920.19,6409.01 2708.06,6196.88 2283.8,6621.15 2495.93,6833.28 z " fill-rule="evenodd" fill="rgb(0,128,0)" stroke-width="5" stroke="rgb(0,0,0)" />
	<path d="M2495.93,1281.08 2920.19,856.811 2708.06,644.679 2283.8,1068.94 2495.93,1281.08 z " fill-rule="evenodd" fill="rgb(0,128,0)" stroke-width="5" stroke="rgb(0,0,0)" />
	<path d="M4198.64,2135.26 4622.91,1711 4410.78,1498.86 3986.51,1923.13 4198.64,2135.26 z " fill-rule="evenodd" fill="rgb(0,128,0)" stroke-width="5" stroke="rgb(0,0,0)" />
	<path d="M5050,2562.35 5474.26,2138.09 5262.13,1925.96 4837.87,2350.22 5050,2562.35 z " fill-rule="evenodd" fill="rgb(0,128,0)" stroke-width="5" stroke="rgb(0,0,0)" />
	<path d="M5901.36,2989.45 6325.62,2565.18 6113.49,2353.05 5689.22,2777.31 5901.36,2989.45 z " fill-rule="evenodd" fill="rgb(0,128,0)" stroke-width="5" stroke="rgb(0,0,0)" />
	<path d="M6752.71,3416.54 7176.98,2992.27 6964.85,2780.14 6540.58,3204.41 6752.71,3416.54 z " fill-rule="evenodd" fill="rgb(0,128,0)" stroke-width="5" stroke="rgb(0,0,0)" />
	<path d="M7604.07,3843.63 8028.33,3419.37 7816.2,3207.23 7391.94,3631.5 7604.07,3843.63 z " fill-rule="evenodd" fill="rgb(0,128,0)" stroke-width="5" stroke="rgb(0,0,0)" />
	<path d="M793.217,6406.18 1217.48,5981.92 1005.35,5769.79 581.085,6194.05 793.217,6406.18 z " fill-rule="evenodd" fill="rgb(0,128,0)" stroke-width="5" stroke="rgb(0,0,0)" />
	<path d="M1644.57,6833.28 2068.84,6409.01 1856.71,6196.88 1432.44,6621.15 1644.57,6833.28 z " fill-rule="evenodd" fill="rgb(0,128,0)" stroke-width="5" stroke="rgb(0,0,0)" />
	<path d="M4198.64,1708.17 4622.91,1283.9 4410.78,1071.77 3986.51,1496.04 4198.64,1708.17 z " fill-rule="evenodd" fill="rgb(0,128,0)" stroke-width="5" stroke="rgb(0,0,0)" />
	<path d="M5050,2135.26 5474.26,1711 5262.13,1498.86 4837.87,1923.13 5050,2135.26 z " fill-rule="evenodd" fill="rgb(0,128,0)" stroke-width="5" stroke="rgb(0,0,0)" />
	<path d="M5901.36,2562.35 6325.62,2138.09 6113.49,1925.96 5689.22,2350.22 5901.36,2562.35 z " fill-rule="evenodd" fill="rgb(0,128,0)" stroke-width="5" stroke="rgb(0,0,0)" />
	<path d="M6752.71,2989.45 7176.98,2565.18 6964.85,2353.05 6540.58,2777.31 6752.71,2989.45 z " fill-rule="evenodd" fill="rgb(0,128,0)" stroke-width="5" stroke="rgb(0,0,0)" />
	<path d="M7604.07,3416.54 8028.33,2992.27 7816.2,2780.14 7391.94,3204.41 7604.07,3416.54 z " fill-rule="evenodd" fill="rgb(0,128,0)" stroke-width="5" stroke="rgb(0,0,0)" />
	<path d="M793.217,6833.28 1217.48,6409.01 1005.35,6196.88 581.085,6621.15 793.217,6833.28 z " fill-rule="evenodd" fill="rgb(0,128,0)" stroke-width="5" stroke="rgb(0,0,0)" />
	<path d="M5687.81,5338.45 5899.94,5126.32 5475.68,4702.06 5263.55,4914.19 5687.81,5338.45 z " fill-rule="evenodd" fill="rgb(0,128,0)" stroke-width="5" stroke="rgb(0,0,0)" />
	<path d="M5687.81,4911.36 5899.94,4699.23 5475.68,4274.97 5263.55,4487.1 5687.81,4911.36 z " fill-rule="evenodd" fill="rgb(0,128,0)" stroke-width="5" stroke="rgb(0,0,0)" />
	<path d="M6539.17,5338.45 6751.3,5126.32 6327.03,4702.06 6114.9,4914.19 6539.17,5338.45 z " fill-rule="evenodd" fill="rgb(0,128,0)" stroke-width="5" stroke="rgb(0,0,0)" />
	<path d="M2282.38,5338.45 2494.52,5126.32 2070.25,4702.06 1858.12,4914.19 2282.38,5338.45 z " fill-rule="evenodd" fill="rgb(0,128,0)" stroke-width="5" stroke="rgb(0,0,0)" />
	<path d="M2282.38,4911.36 2494.52,4699.23 2070.25,4274.97 1858.12,4487.1 2282.38,4911.36 z " fill-rule="evenodd" fill="rgb(0,128,0)" stroke-width="5" stroke="rgb(0,0,0)" />
	<path d="M2282.38,4484.27 2494.52,4272.14 2070.25,3847.87 1858.12,4060 2282.38,4484.27 z " fill-rule="evenodd" fill="rgb(0,128,0)" stroke-width="5" stroke="rgb(0,0,0)" />
	<path d="M2282.38,4057.18 2494.52,3845.04 2070.25,3420.78 1858.12,3632.91 2282.38,4057.18 z " fill-rule="evenodd" fill="rgb(0,128,0)" stroke-width="5" stroke="rgb(0,0,0)" />
	<path d="M2282.38,2775.9 2494.52,2563.77 2070.25,2139.5 1858.12,2351.63 2282.38,2775.9 z " fill-rule="evenodd" fill="rgb(0,128,0)" stroke-width="5" stroke="rgb(0,0,0)" />
	<path d="M5687.81,4484.27 5899.94,4272.14 5475.68,3847.87 5263.55,4060 5687.81,4484.27 z " fill-rule="evenodd" fill="rgb(0,128,0)" stroke-width="5" stroke="rgb(0,0,0)" />
	<path d="M6539.17,4911.36 6751.3,4699.23 6327.03,4274.97 6114.9,4487.1 6539.17,4911.36 z " fill-rule="evenodd" fill="rgb(0,128,0)" stroke-width="5" stroke="rgb(0,0,0)" />
	<path d="M7390.52,5338.45 7602.66,5126.32 7178.39,4702.06 6966.26,4914.19 7390.52,5338.45 z " fill-rule="evenodd" fill="rgb(0,128,0)" stroke-width="5" stroke="rgb(0,0,0)" />
	<path d="M1431.03,5338.45 1643.16,5126.32 1218.9,4702.06 1006.76,4914.19 1431.03,5338.45 z " fill-rule="evenodd" fill="rgb(0,128,0)" stroke-width="5" stroke="rgb(0,0,0)" />
	<path d="M1431.03,4911.36 1643.16,4699.23 1218.9,4274.97 1006.76,4487.1 1431.03,4911.36 z " fill-rule="evenodd" fill="rgb(0,128,0)" stroke-width="5" stroke="rgb(0,0,0)" />
	<path d="M1431.03,4484.27 1643.16,4272.14 1218.9,3847.87 1006.76,4060 1431.03,4484.27 z " fill-rule="evenodd" fill="rgb(0,128,0)" stroke-width="5" stroke="rgb(0,0,0)" />
	<path d="M2282.38,5765.55 2494.52,5553.41 2070.25,5129.15 1858.12,5341.28 2282.38,5765.55 z " fill-rule="evenodd" fill="rgb(0,128,0)" stroke-width="5" stroke="rgb(0,0,0)" />
	<path d="M1431.03,4057.18 1643.16,3845.04 1218.9,3420.78 1006.76,3632.91 1431.03,4057.18 z " fill-rule="evenodd" fill="rgb(0,128,0)" stroke-width="5" stroke="rgb(0,0,0)" />
	<path d="M1431.03,2775.9 1643.16,2563.77 1218.9,2139.5 1006.76,2351.63 1431.03,2775.9 z " fill-rule="evenodd" fill="rgb(0,128,0)" stroke-width="5" stroke="rgb(0,0,0)" />
	<path d="M1431.03,2348.81 1643.16,2136.67 1218.9,1712.41 1006.76,1924.54 1431.03,2348.81 z " fill-rule="evenodd" fill="rgb(0,128,0)" stroke-width="5" stroke="rgb(0,0,0)" />
	<path d="M2282.38,2348.81 2494.52,2136.67 2070.25,1712.41 1858.12,1924.54 2282.38,2348.81 z " fill-rule="evenodd" fill="rgb(0,128,0)" stroke-width="5" stroke="rgb(0,0,0)" />
	<path d="M3133.74,2775.9 3345.87,2563.77 2921.61,2139.5 2709.48,2351.63 3133.74,2775.9 z " fill-rule="evenodd" fill="rgb(0,128,0)" stroke-width="5" stroke="rgb(0,0,0)" />
	<path d="M5687.81,4057.18 5899.94,3845.04 5475.68,3420.78 5263.55,3632.91 5687.81,4057.18 z " fill-rule="evenodd" fill="rgb(0,128,0)" stroke-width="5" stroke="rgb(0,0,0)" />
	<path d="M6539.17,4484.27 6751.3,4272.14 6327.03,3847.87 6114.9,4060 6539.17,4484.27 z " fill-rule="evenodd" fill="rgb(0,128,0)" stroke-width="5" stroke="rgb(0,0,0)" />
	<path d="M7390.52,4911.36 7602.66,4699.23 7178.39,4274.97 6966.26,4487.1 7390.52,4911.36 z " fill-rule="evenodd" fill="rgb(0,128,0)" stroke-width="5" stroke="rgb(0,0,0)" />
	<path d="M8241.88,5338.45 8454.01,5126.32 8029.75,4702.06 7817.62,4914.19 8241.88,5338.45 z " fill-rule="evenodd" fill="rgb(0,128,0)" stroke-width="5" stroke="rgb(0,0,0)" />
	<path d="M579.671,5338.45 791.803,5126.32 367.539,4702.06 155.407,4914.19 579.671,5338.45 z " fill-rule="evenodd" fill="rgb(0,128,0)" stroke-width="5" stroke="rgb(0,0,0)" />
	<path d="M579.671,4911.36 791.803,4699.23 367.539,4274.97 155.407,4487.1 579.671,4911.36 z " fill-rule="evenodd" fill="rgb(0,128,0)" stroke-width="5" stroke="rgb(0,0,0)" />
	<path d="M579.671,4484.27 791.803,4272.14 367.539,3847.87 155.407,4060 579.671,4484.27 z " fill-rule="evenodd" fill="rgb(0,128,0)" stroke-width="5" stroke="rgb(0,0,0)" />
	<path d="M1431.03,5765.55 1643.16,5553.41 1218.9,5129.15 1006.76,5341.28 1431.03,5765.55 z " fill-rule="evenodd" fill="rgb(0,128,0)" stroke-width="5" stroke="rgb(0,0,0)" />
	<path d="M2282.38,6192.64 2494.52,5980.51 2070.25,5556.24 1858.12,5768.37 2282.38,6192.64 z " fill-rule="evenodd" fill="rgb(0,128,0)" stroke-width="5" stroke="rgb(0,0,0)" />
	<path d="M579.671,4057.18 791.803,3845.04 367.539,3420.78 155.407,3632.91 579.671,4057.18 z " fill-rule="evenodd" fill="rgb(0,128,0)" stroke-width="5" stroke="rgb(0,0,0)" />
	<path d="M579.671,2775.9 791.803,2563.77 367.539,2139.5 155.407,2351.63 579.671,2775.9 z " fill-rule="evenodd" fill="rgb(0,128,0)" stroke-width="5" stroke="rgb(0,0,0)" />
	<path d="M579.671,2348.81 791.803,2136.67 367.539,1712.41 155.407,1924.54 579.671,2348.81 z " fill-rule="evenodd" fill="rgb(0,128,0)" stroke-width="5" stroke="rgb(0,0,0)" />
	<path d="M3133.74,2348.81 3345.87,2136.67 2921.61,1712.41 2709.48,1924.54 3133.74,2348.81 z " fill-rule="evenodd" fill="rgb(0,128,0)" stroke-width="5" stroke="rgb(0,0,0)" />
	<path d="M3985.1,2775.9 4197.23,2563.77 3772.97,2139.5 3560.83,2351.63 3985.1,2775.9 z " fill-rule="evenodd" fill="rgb(0,128,0)" stroke-width="5" stroke="rgb(0,0,0)" />
	<path d="M5687.81,3630.08 5899.94,3417.95 5475.68,2993.69 5263.55,3205.82 5687.81,3630.08 z " fill-rule="evenodd" fill="rgb(0,128,0)" stroke-width="5" stroke="rgb(0,0,0)" />
	<path d="M6539.17,4057.18 6751.3,3845.04 6327.03,3420.78 6114.9,3632.91 6539.17,4057.18 z " fill-rule="evenodd" fill="rgb(0,128,0)" stroke-width="5" stroke="rgb(0,0,0)" />
	<path d="M7390.52,4484.27 7602.66,4272.14 7178.39,3847.87 6966.26,4060 7390.52,4484.27 z " fill-rule="evenodd" fill="rgb(0,128,0)" stroke-width="5" stroke="rgb(0,0,0)" />
	<path d="M8241.88,4911.36 8454.01,4699.23 8029.75,4274.97 7817.62,4487.1 8241.88,4911.36 z " fill-rule="evenodd" fill="rgb(0,128,0)" stroke-width="5" stroke="rgb(0,0,0)" />
	<path d="M579.671,5765.55 791.803,5553.41 367.539,5129.15 155.407,5341.28 579.671,5765.55 z " fill-rule="evenodd" fill="rgb(0,128,0)" stroke-width="5" stroke="rgb(0,0,0)" />
	<path d="M1431.03,6192.64 1643.16,5980.51 1218.9,5556.24 1006.76,5768.37 1431.03,6192.64 z " fill-rule="evenodd" fill="rgb(0,128,0)" stroke-width="5" stroke="rgb(0,0,0)" />
	<path d="M2282.38,6619.73 2494.52,6407.6 2070.25,5983.34 1858.12,6195.47 2282.38,6619.73 z " fill-rule="evenodd" fill="rgb(0,128,0)" stroke-width="5" stroke="rgb(0,0,0)" />
	<path d="M3985.1,2348.81 4197.23,2136.67 3772.97,1712.41 3560.83,1924.54 3985.1,2348.81 z " fill-rule="evenodd" fill="rgb(0,128,0)" stroke-width="5" stroke="rgb(0,0,0)" />
	<path d="M4836.45,2775.9 5048.59,2563.77 4624.32,2139.5 4412.19,2351.63 4836.45,2775.9 z " fill-rule="evenodd" fill="rgb(0,128,0)" stroke-width="5" stroke="rgb(0,0,0)" />
	<path d="M5687.81,3202.99 5899.94,2990.86 5475.68,2566.6 5263.55,2778.73 5687.81,3202.99 z " fill-rule="evenodd" fill="rgb(0,128,0)" stroke-width="5" stroke="rgb(0,0,0)" />
	<path d="M6539.17,3630.08 6751.3,3417.95 6327.03,2993.69 6114.9,3205.82 6539.17,3630.08 z " fill-rule="evenodd" fill="rgb(0,128,0)" stroke-width="5" stroke="rgb(0,0,0)" />
	<path d="M7390.52,4057.18 7602.66,3845.04 7178.39,3420.78 6966.26,3632.91 7390.52,4057.18 z " fill-rule="evenodd" fill="rgb(0,128,0)" stroke-width="5" stroke="rgb(0,0,0)" />
	<path d="M8241.88,4484.27 8454.01,4272.14 8029.75,3847.87 7817.62,4060 8241.88,4484.27 z " fill-rule="evenodd" fill="rgb(0,128,0)" stroke-width="5" stroke="rgb(0,0,0)" />
	<path d="M579.671,6192.64 791.803,5980.51 367.539,5556.24 155.407,5768.37 579.671,6192.64 z " fill-rule="evenodd" fill="rgb(0,128,0)" stroke-width="5" stroke="rgb(0,0,0)" />
	<path d="M1431.03,6619.73 1643.16,6407.6 1218.9,5983.34 1006.76,6195.47 1431.03,6619.73 z " fill-rule="evenodd" fill="rgb(0,128,0)" stroke-width="5" stroke="rgb(0,0,0)" />
	<path d="M3985.1,1921.71 4197.23,1709.58 3772.97,1285.32 3560.83,1497.45 3985.1,1921.71 z " fill-rule="evenodd" fill="rgb(0,128,0)" stroke-width="5" stroke="rgb(0,0,0)" />
	<path d="M4836.45,2348.81 5048.59,2136.67 4624.32,1712.41 4412.19,1924.54 4836.45,2348.81 z " fill-rule="evenodd" fill="rgb(0,128,0)" stroke-width="5" stroke="rgb(0,0,0)" />
	<path d="M5687.81,2775.9 5899.94,2563.77 5475.68,2139.5 5263.55,2351.63 5687.81,2775.9 z " fill-rule="evenodd" fill="rgb(0,128,0)" stroke-width="5" stroke="rgb(0,0,0)" />
	<path d="M6539.17,3202.99 6751.3,2990.86 6327.03,2566.6 6114.9,2778.73 6539.17,3202.99 z " fill-rule="evenodd" fill="rgb(0,128,0)" stroke-width="5" stroke="rgb(0,0,0)" />
	<path d="M7390.52,3630.08 7602.66,3417.95 7178.39,2993.69 6966.26,3205.82 7390.52,3630.08 z " fill-rule="evenodd" fill="rgb(0,128,0)" stroke-width="5" stroke="rgb(0,0,0)" />
	<path d="M8241.88,4057.18 8454.01,3845.04 8029.75,3420.78 7817.62,3632.91 8241.88,4057.18 z " fill-rule="evenodd" fill="rgb(0,128,0)" stroke-width="5" stroke="rgb(0,0,0)" />
	<path d="M579.671,6619.73 791.803,6407.6 367.539,5983.34 155.407,6195.47 579.671,6619.73 z " fill-rule="evenodd" fill="rgb(0,128,0)" stroke-width="5" stroke="rgb(0,0,0)" />
	<path d="M3985.1,1494.62 4197.23,1282.49 3772.97,858.225 3560.83,1070.36 3985.1,1494.62 z " fill-rule="evenodd" fill="rgb(0,128,0)" stroke-width="5" stroke="rgb(0,0,0)" />
	<path d="M4836.45,1921.71 5048.59,1709.58 4624.32,1285.32 4412.19,1497.45 4836.45,1921.71 z " fill-rule="evenodd" fill="rgb(0,128,0)" stroke-width="5" stroke="rgb(0,0,0)" />
	<path d="M5687.81,2348.81 5899.94,2136.67 5475.68,1712.41 5263.55,1924.54 5687.81,2348.81 z " fill-rule="evenodd" fill="rgb(0,128,0)" stroke-width="5" stroke="rgb(0,0,0)" />
	<path d="M6539.17,2775.9 6751.3,2563.77 6327.03,2139.5 6114.9,2351.63 6539.17,2775.9 z " fill-rule="evenodd" fill="rgb(0,128,0)" stroke-width="5" stroke="rgb(0,0,0)" />
	<path d="M7390.52,3202.99 7602.66,2990.86 7178.39,2566.6 6966.26,2778.73 7390.52,3202.99 z " fill-rule="evenodd" fill="rgb(0,128,0)" stroke-width="5" stroke="rgb(0,0,0)" />
	<path d="M8241.88,3630.08 8454.01,3417.95 8029.75,2993.69 7817.62,3205.82 8241.88,3630.08 z " fill-rule="evenodd" fill="rgb(0,128,0)" stroke-width="5" stroke="rgb(0,0,0)" />
	<path d="M8241.88,3202.99 8454.01,2990.86 8029.75,2566.6 7817.62,2778.73 8241.88,3202.99 z " fill-rule="evenodd" fill="rgb(0,128,0)" stroke-width="5" stroke="rgb(0,0,0)" />
	<path d="M4410.78,4915.6 4447.17,4952 4374.38,4952 4410.78,4915.6 z " fill-rule="evenodd" fill="rgb(255,0,0)" stroke-width="5" stroke="rgb(0,0,0)" />
	<path d="M3986.51,4912.78 4410.78,4488.51 4622.91,4700.64 4371.55,4952 4025.74,4952 3986.51,4912.78 z " fill-rule="evenodd" fill="rgb(255,0,0)" stroke-width="5" stroke="rgb(0,0,0)" />
	<path d="M5262.13,5342.7 5471.44,5552 5052.83,5552 5262.13,5342.7 z " fill-rule="evenodd" fill="rgb(255,0,0)" stroke-width="5" stroke="rgb(0,0,0)" />
	<path d="M5262.13,4915.6 5474.26,5127.74 5050,5552 5050,5127.74 5262.13,4915.6 z " fill-rule="evenodd" fill="rgb(255,0,0)" stroke-width="5" stroke="rgb(0,0,0)" />
	<path d="M5262.13,4488.51 5474.26,4700.64 5050,5124.91 5050,4700.64 5262.13,4488.51 z " fill-rule="evenodd" fill="rgb(255,0,0)" stroke-width="5" stroke="rgb(0,0,0)" />
	<path d="M4837.87,4912.78 4950,4800.64 4950,4952 4877.09,4952 4837.87,4912.78 z " fill-rule="evenodd" fill="rgb(255,0,0)" stroke-width="5" stroke="rgb(0,0,0)" />
	<path d="M6113.49,5342.7 6322.79,5552 5904.18,5552 6113.49,5342.7 z " fill-rule="evenodd" fill="rgb(255,0,0)" stroke-width="5" stroke="rgb(0,0,0)" />
	<path d="M3771.55,4700.64 3700,4772.19 3700,4629.09 3771.55,4700.64 z " fill-rule="evenodd" fill="rgb(255,0,0)" stroke-width="5" stroke="rgb(0,0,0)" />
	<path d="M3771.55,4273.55 3700,4345.1 3700,4202 3771.55,4273.55 z " fill-rule="evenodd" fill="rgb(255,0,0)" stroke-width="5" stroke="rgb(0,0,0)" />
	<path d="M3771.55,3846.46 3700,3918.01 3700,3774.91 3771.55,3846.46 z " fill-rule="evenodd" fill="rgb(255,0,0)" stroke-width="5" stroke="rgb(0,0,0)" />
	<path d="M3771.55,3419.37 3700,3490.92 3700,3347.82 3771.55,3419.37 z " fill-rule="evenodd" fill="rgb(255,0,0)" stroke-width="5" stroke="rgb(0,0,0)" />
	<path d="M5262.13,4061.42 5474.26,4273.55 5050,4697.82 5050,4273.55 5262.13,4061.42 z " fill-rule="evenodd" fill="rgb(255,0,0)" stroke-width="5" stroke="rgb(0,0,0)" />
	<path d="M4837.87,4485.68 4950,4373.55 4950,4597.82 4837.87,4485.68 z " fill-rule="evenodd" fill="rgb(255,0,0)" stroke-width="5" stroke="rgb(0,0,0)" />
	<path d="M6964.85,5342.7 7174.15,5552 6755.54,5552 6964.85,5342.7 z " fill-rule="evenodd" fill="rgb(255,0,0)" stroke-width="5" stroke="rgb(0,0,0)" />
	<path d="M2495.93,5124.91 2283.8,4912.78 2708.06,4488.51 2900,4680.45 2900,4720.84 2495.93,5124.91 z " fill-rule="evenodd" fill="rgb(255,0,0)" stroke-width="5" stroke="rgb(0,0,0)" />
	<path d="M2495.93,4697.82 2283.8,4485.68 2708.06,4061.42 2900,4253.36 2900,4293.75 2495.93,4697.82 z " fill-rule="evenodd" fill="rgb(255,0,0)" stroke-width="5" stroke="rgb(0,0,0)" />
	<path d="M2495.93,4270.72 2283.8,4058.59 2708.06,3634.33 2900,3826.26 2900,3866.65 2495.93,4270.72 z " fill-rule="evenodd" fill="rgb(255,0,0)" stroke-width="5" stroke="rgb(0,0,0)" />
	<path d="M2495.93,3843.63 2283.8,3631.5 2708.06,3207.23 2900,3399.17 2900,3439.56 2495.93,3843.63 z " fill-rule="evenodd" fill="rgb(255,0,0)" stroke-width="5" stroke="rgb(0,0,0)" />
	<path d="M2495.93,3416.54 2283.8,3204.41 2708.06,2780.14 2879.92,2952 2850,2952 2850,3062.47 2495.93,3416.54 z " fill-rule="evenodd" fill="rgb(255,0,0)" stroke-width="5" stroke="rgb(0,0,0)" />
	<path d="M3700,3063.82 3700,3052 3711.82,3052 3700,3063.82 z " fill-rule="evenodd" fill="rgb(255,0,0)" stroke-width="5" stroke="rgb(0,0,0)" />
	<path d="M3559.42,2780.14 3731.28,2952 3387.56,2952 3559.42,2780.14 z " fill-rule="evenodd" fill="rgb(255,0,0)" stroke-width="5" stroke="rgb(0,0,0)" />
	<path d="M5262.13,3634.33 5474.26,3846.46 5050,4270.72 5050,3846.46 5262.13,3634.33 z " fill-rule="evenodd" fill="rgb(255,0,0)" stroke-width="5" stroke="rgb(0,0,0)" />
	<path d="M4837.87,4058.59 4950,3946.46 4950,4170.72 4837.87,4058.59 z " fill-rule="evenodd" fill="rgb(255,0,0)" stroke-width="5" stroke="rgb(0,0,0)" />
	<path d="M7816.2,5342.7 8025.51,5552 7606.9,5552 7816.2,5342.7 z " fill-rule="evenodd" fill="rgb(255,0,0)" stroke-width="5" stroke="rgb(0,0,0)" />
	<path d="M2495.93,5552 2283.8,5339.87 2708.06,4915.6 2900,5107.54 2900,5147.93 2495.93,5552 z " fill-rule="evenodd" fill="rgb(255,0,0)" stroke-width="5" stroke="rgb(0,0,0)" />
	<path d="M1644.57,3416.54 1432.44,3204.41 1484.85,3152 1909.11,3152 1644.57,3416.54 z " fill-rule="evenodd" fill="rgb(255,0,0)" stroke-width="5" stroke="rgb(0,0,0)" />
	<path d="M2068.84,2992.27 2050,3011.11 2050,2973.44 2068.84,2992.27 z " fill-rule="evenodd" fill="rgb(255,0,0)" stroke-width="5" stroke="rgb(0,0,0)" />
	<path d="M1856.71,2780.14 2028.56,2952 1684.85,2952 1856.71,2780.14 z " fill-rule="evenodd" fill="rgb(255,0,0)" stroke-width="5" stroke="rgb(0,0,0)" />
	<path d="M1432.44,2777.31 1856.71,2353.05 2068.84,2565.18 1682.02,2952 1607.13,2952 1432.44,2777.31 z " fill-rule="evenodd" fill="rgb(255,0,0)" stroke-width="5" stroke="rgb(0,0,0)" />
	<path d="M2068.84,1711 1644.57,2135.26 1432.44,1923.13 1753.57,1602 1959.84,1602 2068.84,1711 z " fill-rule="evenodd" fill="rgb(255,0,0)" stroke-width="5" stroke="rgb(0,0,0)" />
	<path d="M3135.15,2777.31 3559.42,2353.05 3771.55,2565.18 3384.73,2952 3309.84,2952 3135.15,2777.31 z " fill-rule="evenodd" fill="rgb(255,0,0)" stroke-width="5" stroke="rgb(0,0,0)" />
	<path d="M4410.78,2780.14 4622.91,2992.27 4198.64,3416.54 3986.51,3204.41 4138.92,3052 4200,3052 4200,2990.92 4410.78,2780.14 z " fill-rule="evenodd" fill="rgb(255,0,0)" stroke-width="5" stroke="rgb(0,0,0)" />
	<path d="M5262.13,3207.23 5474.26,3419.37 5050,3843.63 5050,3419.37 5262.13,3207.23 z " fill-rule="evenodd" fill="rgb(255,0,0)" stroke-width="5" stroke="rgb(0,0,0)" />
	<path d="M4837.87,3631.5 4950,3519.37 4950,3743.63 4837.87,3631.5 z " fill-rule="evenodd" fill="rgb(255,0,0)" stroke-width="5" stroke="rgb(0,0,0)" />
	<path d="M8600,5410.25 8600,5552 8458.25,5552 8600,5410.25 z " fill-rule="evenodd" fill="rgb(255,0,0)" stroke-width="5" stroke="rgb(0,0,0)" />
	<path d="M8455.43,5552 8243.29,5339.87 8600,4983.16 8600,5407.43 8455.43,5552 z " fill-rule="evenodd" fill="rgb(255,0,0)" stroke-width="5" stroke="rgb(0,0,0)" />
	<path d="M2495.93,5979.09 2283.8,5766.96 2708.06,5342.7 2900,5534.63 2900,5575.02 2495.93,5979.09 z " fill-rule="evenodd" fill="rgb(255,0,0)" stroke-width="5" stroke="rgb(0,0,0)" />
	<path d="M793.217,3416.54 581.085,3204.41 633.491,3152 1057.75,3152 793.217,3416.54 z " fill-rule="evenodd" fill="rgb(255,0,0)" stroke-width="5" stroke="rgb(0,0,0)" />
	<path d="M1005.35,2780.14 1177.21,2952 833.491,2952 1005.35,2780.14 z " fill-rule="evenodd" fill="rgb(255,0,0)" stroke-width="5" stroke="rgb(0,0,0)" />
	<path d="M581.085,2777.31 1005.35,2353.05 1217.48,2565.18 830.662,2952 755.772,2952 581.085,2777.31 z " fill-rule="evenodd" fill="rgb(255,0,0)" stroke-width="5" stroke="rgb(0,0,0)" />
	<path d="M1217.48,1711 793.217,2135.26 581.085,1923.13 1002.21,1502 1008.49,1502 1217.48,1711 z " fill-rule="evenodd" fill="rgb(255,0,0)" stroke-width="5" stroke="rgb(0,0,0)" />
	<path d="M793.217,1708.17 687.05,1602 700,1602 700,1502 999.385,1502 793.217,1708.17 z " fill-rule="evenodd" fill="rgb(255,0,0)" stroke-width="5" stroke="rgb(0,0,0)" />
	<path d="M1644.57,1708.17 1538.41,1602 1750.74,1602 1644.57,1708.17 z " fill-rule="evenodd" fill="rgb(255,0,0)" stroke-width="5" stroke="rgb(0,0,0)" />
	<path d="M3986.51,2777.31 4410.78,2353.05 4622.91,2565.18 4200,2988.09 4200,2952 4161.2,2952 3986.51,2777.31 z " fill-rule="evenodd" fill="rgb(255,0,0)" stroke-width="5" stroke="rgb(0,0,0)" />
	<path d="M5262.13,2780.14 5474.26,2992.27 5050,3416.54 5050,2992.27 5262.13,2780.14 z " fill-rule="evenodd" fill="rgb(255,0,0)" stroke-width="5" stroke="rgb(0,0,0)" />
	<path d="M4837.87,3204.41 4950,3092.27 4950,3316.54 4837.87,3204.41 z " fill-rule="evenodd" fill="rgb(255,0,0)" stroke-width="5" stroke="rgb(0,0,0)" />
	<path d="M8455.43,5124.91 8243.29,4912.78 8600,4556.07 8600,4980.33 8455.43,5124.91 z " fill-rule="evenodd" fill="rgb(255,0,0)" stroke-width="5" stroke="rgb(0,0,0)" />
	<path d="M153.993,4488.51 366.125,4700.64 100,4966.77 100,4542.5 153.993,4488.51 z " fill-rule="evenodd" fill="rgb(255,0,0)" stroke-width="5" stroke="rgb(0,0,0)" />
	<path d="M153.993,4061.42 366.125,4273.55 100,4539.68 100,4115.41 153.993,4061.42 z " fill-rule="evenodd" fill="rgb(255,0,0)" stroke-width="5" stroke="rgb(0,0,0)" />
	<path d="M153.993,3634.33 366.125,3846.46 100,4112.58 100,3688.32 153.993,3634.33 z " fill-rule="evenodd" fill="rgb(255,0,0)" stroke-width="5" stroke="rgb(0,0,0)" />
	<path d="M153.993,3207.23 366.125,3419.37 100,3685.49 100,3261.23 153.993,3207.23 z " fill-rule="evenodd" fill="rgb(255,0,0)" stroke-width="5" stroke="rgb(0,0,0)" />
	<path d="M100,3258.4 100,3152 206.398,3152 100,3258.4 z " fill-rule="evenodd" fill="rgb(255,0,0)" stroke-width="5" stroke="rgb(0,0,0)" />
	<path d="M153.993,2780.14 325.851,2952 100,2952 100,2834.13 153.993,2780.14 z " fill-rule="evenodd" fill="rgb(255,0,0)" stroke-width="5" stroke="rgb(0,0,0)" />
	<path d="M2495.93,6406.18 2283.8,6194.05 2708.06,5769.79 2900,5961.73 2900,6002.12 2495.93,6406.18 z " fill-rule="evenodd" fill="rgb(255,0,0)" stroke-width="5" stroke="rgb(0,0,0)" />
	<path d="M153.993,2353.05 366.125,2565.18 100,2831.31 100,2407.04 153.993,2353.05 z " fill-rule="evenodd" fill="rgb(255,0,0)" stroke-width="5" stroke="rgb(0,0,0)" />
	<path d="M153.993,1925.96 366.125,2138.09 100,2404.21 100,1979.95 153.993,1925.96 z " fill-rule="evenodd" fill="rgb(255,0,0)" stroke-width="5" stroke="rgb(0,0,0)" />
	<path d="M366.125,1711 100,1977.12 100,1602 257.129,1602 366.125,1711 z " fill-rule="evenodd" fill="rgb(255,0,0)" stroke-width="5" stroke="rgb(0,0,0)" />
	<path d="M4837.87,2777.31 5262.13,2353.05 5474.26,2565.18 5050,2989.45 5050,2952 5012.55,2952 4837.87,2777.31 z " fill-rule="evenodd" fill="rgb(255,0,0)" stroke-width="5" stroke="rgb(0,0,0)" />
	<path d="M8455.43,4697.82 8243.29,4485.68 8600,4128.98 8600,4553.24 8455.43,4697.82 z " fill-rule="evenodd" fill="rgb(255,0,0)" stroke-width="5" stroke="rgb(0,0,0)" />
	<path d="M153.993,4915.6 366.125,5127.74 100,5393.86 100,4969.6 153.993,4915.6 z " fill-rule="evenodd" fill="rgb(255,0,0)" stroke-width="5" stroke="rgb(0,0,0)" />
	<path d="M3559.42,1071.77 3771.55,1283.9 3347.29,1708.17 3174.16,1535.04 3227.36,1403.83 3559.42,1071.77 z " fill-rule="evenodd" fill="rgb(255,0,0)" stroke-width="5" stroke="rgb(0,0,0)" />
	<path d="M8455.43,4270.72 8243.29,4058.59 8600,3701.88 8600,4126.15 8455.43,4270.72 z " fill-rule="evenodd" fill="rgb(255,0,0)" stroke-width="5" stroke="rgb(0,0,0)" />
	<path d="M153.993,5342.7 366.125,5554.83 100,5820.95 100,5396.69 153.993,5342.7 z " fill-rule="evenodd" fill="rgb(255,0,0)" stroke-width="5" stroke="rgb(0,0,0)" />
	<path d="M2804.3,6952 2380.04,6952 2708.06,6623.97 2920.19,6836.11 2904.3,6852 2900,6852 2900,6856.3 2804.3,6952 z " fill-rule="evenodd" fill="rgb(255,0,0)" stroke-width="5" stroke="rgb(0,0,0)" />
	<path d="M2920.19,429.718 2495.93,853.983 2283.8,641.851 2630.69,294.963 2891.04,400.56 2920.19,429.718 z " fill-rule="evenodd" fill="rgb(255,0,0)" stroke-width="5" stroke="rgb(0,0,0)" />
	<path d="M3771.55,856.811 3347.29,1281.08 3297.38,1231.17 3518.7,685.397 3539.74,664.36 3606.01,691.268 3771.55,856.811 z " fill-rule="evenodd" fill="rgb(255,0,0)" stroke-width="5" stroke="rgb(0,0,0)" />
	<path d="M3135.15,1068.94 3337.96,866.142 3220.9,1154.69 3135.15,1068.94 z " fill-rule="evenodd" fill="rgb(255,0,0)" stroke-width="5" stroke="rgb(0,0,0)" />
	<path d="M8455.43,3843.63 8243.29,3631.5 8600,3274.79 8600,3699.06 8455.43,3843.63 z " fill-rule="evenodd" fill="rgb(255,0,0)" stroke-width="5" stroke="rgb(0,0,0)" />
	<path d="M153.993,5769.79 366.125,5981.92 100,6248.05 100,5823.78 153.993,5769.79 z " fill-rule="evenodd" fill="rgb(255,0,0)" stroke-width="5" stroke="rgb(0,0,0)" />
	<path d="M1856.71,6623.97 2068.84,6836.11 1952.94,6952 1528.68,6952 1856.71,6623.97 z " fill-rule="evenodd" fill="rgb(255,0,0)" stroke-width="5" stroke="rgb(0,0,0)" />
	<path d="M2495.93,426.89 2283.8,214.758 2326.83,171.723 2628.67,294.147 2495.93,426.89 z " fill-rule="evenodd" fill="rgb(255,0,0)" stroke-width="5" stroke="rgb(0,0,0)" />
	<path d="M3520.63,680.639 3529,660 3537.73,663.543 3520.63,680.639 z " fill-rule="evenodd" fill="rgb(255,0,0)" stroke-width="5" stroke="rgb(0,0,0)" />
	<path d="M3135.15,641.851 3236.38,540.628 3437,622 3344.16,850.854 3135.15,641.851 z " fill-rule="evenodd" fill="rgb(255,0,0)" stroke-width="5" stroke="rgb(0,0,0)" />
	<path d="M4198.64,1281.08 3986.51,1068.94 4145.24,910.215 4446.99,1032.73 4198.64,1281.08 z " fill-rule="evenodd" fill="rgb(255,0,0)" stroke-width="5" stroke="rgb(0,0,0)" />
	<path d="M5050,1708.17 4837.87,1496.04 5054.5,1279.4 5356.24,1401.92 5050,1708.17 z " fill-rule="evenodd" fill="rgb(255,0,0)" stroke-width="5" stroke="rgb(0,0,0)" />
	<path d="M5901.36,2135.26 5689.22,1923.13 5963.76,1648.6 6265.5,1771.11 5901.36,2135.26 z " fill-rule="evenodd" fill="rgb(255,0,0)" stroke-width="5" stroke="rgb(0,0,0)" />
	<path d="M6752.71,2562.35 6540.58,2350.22 6873.02,2017.79 7174.76,2140.3 6752.71,2562.35 z " fill-rule="evenodd" fill="rgb(255,0,0)" stroke-width="5" stroke="rgb(0,0,0)" />
	<path d="M8028.33,2565.18 7604.07,2989.45 7391.94,2777.31 7782.28,2386.98 7896.51,2433.36 8028.33,2565.18 z " fill-rule="evenodd" fill="rgb(255,0,0)" stroke-width="5" stroke="rgb(0,0,0)" />
	<path d="M8455.43,3416.54 8243.29,3204.41 8600,2847.7 8600,3271.96 8455.43,3416.54 z " fill-rule="evenodd" fill="rgb(255,0,0)" stroke-width="5" stroke="rgb(0,0,0)" />
	<path d="M153.993,6196.88 366.125,6409.01 100,6675.14 100,6250.87 153.993,6196.88 z " fill-rule="evenodd" fill="rgb(255,0,0)" stroke-width="5" stroke="rgb(0,0,0)" />
	<path d="M1005.35,6623.97 1217.48,6836.11 1101.59,6952 677.323,6952 1005.35,6623.97 z " fill-rule="evenodd" fill="rgb(255,0,0)" stroke-width="5" stroke="rgb(0,0,0)" />
	<path d="M5050,1281.08 5044.11,1275.19 5052.49,1278.59 5050,1281.08 z " fill-rule="evenodd" fill="rgb(255,0,0)" stroke-width="5" stroke="rgb(0,0,0)" />
	<path d="M5901.36,1708.17 5758.4,1565.21 5961.75,1647.78 5901.36,1708.17 z " fill-rule="evenodd" fill="rgb(255,0,0)" stroke-width="5" stroke="rgb(0,0,0)" />
	<path d="M6752.71,2135.26 6540.58,1923.13 6569.26,1894.45 6871,2016.97 6752.71,2135.26 z " fill-rule="evenodd" fill="rgb(255,0,0)" stroke-width="5" stroke="rgb(0,0,0)" />
	<path d="M7604.07,2562.35 7391.94,2350.22 7478.52,2263.64 7780.26,2386.16 7604.07,2562.35 z " fill-rule="evenodd" fill="rgb(255,0,0)" stroke-width="5" stroke="rgb(0,0,0)" />
	<path d="M8455.43,2989.45 8243.29,2777.31 8387.78,2632.83 8600,2719 8600,2844.87 8455.43,2989.45 z " fill-rule="evenodd" fill="rgb(255,0,0)" stroke-width="5" stroke="rgb(0,0,0)" />
	<path d="M153.993,6623.97 366.125,6836.11 250.231,6952 100,6952 100,6677.97 153.993,6623.97 z " fill-rule="evenodd" fill="rgb(255,0,0)" stroke-width="5" stroke="rgb(0,0,0)" />
	<path d="M3772.97,4702.06 4022.91,4952 3700,4952 3700,4775.02 3772.97,4702.06 z " fill-rule="evenodd" fill="rgb(255,0,0)" stroke-width="5" stroke="rgb(0,0,0)" />
	<path d="M3772.97,4274.97 4197.23,4699.23 3985.1,4911.36 3700,4626.26 3700,4347.93 3772.97,4274.97 z " fill-rule="evenodd" fill="rgb(255,0,0)" stroke-width="5" stroke="rgb(0,0,0)" />
	<path d="M3772.97,3847.87 4197.23,4272.14 3985.1,4484.27 3700,4199.17 3700,3920.84 3772.97,3847.87 z " fill-rule="evenodd" fill="rgb(255,0,0)" stroke-width="5" stroke="rgb(0,0,0)" />
	<path d="M4412.19,4914.19 4624.32,4702.06 4874.26,4952 4450,4952 4412.19,4914.19 z " fill-rule="evenodd" fill="rgb(255,0,0)" stroke-width="5" stroke="rgb(0,0,0)" />
	<path d="M4836.45,4911.36 4412.19,4487.1 4624.32,4274.97 4950,4600.64 4950,4797.82 4836.45,4911.36 z " fill-rule="evenodd" fill="rgb(255,0,0)" stroke-width="5" stroke="rgb(0,0,0)" />
	<path d="M5263.55,5341.28 5475.68,5129.15 5898.53,5552 5474.26,5552 5263.55,5341.28 z " fill-rule="evenodd" fill="rgb(255,0,0)" stroke-width="5" stroke="rgb(0,0,0)" />
	<path d="M2709.48,4914.19 2900,4723.67 2900,5104.71 2709.48,4914.19 z " fill-rule="evenodd" fill="rgb(255,0,0)" stroke-width="5" stroke="rgb(0,0,0)" />
	<path d="M2709.48,4487.1 2900,4296.57 2900,4677.62 2709.48,4487.1 z " fill-rule="evenodd" fill="rgb(255,0,0)" stroke-width="5" stroke="rgb(0,0,0)" />
	<path d="M2709.48,4060 2900,3869.48 2900,4250.53 2709.48,4060 z " fill-rule="evenodd" fill="rgb(255,0,0)" stroke-width="5" stroke="rgb(0,0,0)" />
	<path d="M2709.48,3632.91 2900,3442.39 2900,3823.44 2709.48,3632.91 z " fill-rule="evenodd" fill="rgb(255,0,0)" stroke-width="5" stroke="rgb(0,0,0)" />
	<path d="M2709.48,3205.82 2850,3065.3 2850,3152 2900,3152 2900,3396.34 2709.48,3205.82 z " fill-rule="evenodd" fill="rgb(255,0,0)" stroke-width="5" stroke="rgb(0,0,0)" />
	<path d="M3772.97,3420.78 4197.23,3845.04 3985.1,4057.18 3700,3772.08 3700,3493.75 3772.97,3420.78 z " fill-rule="evenodd" fill="rgb(255,0,0)" stroke-width="5" stroke="rgb(0,0,0)" />
	<path d="M4836.45,4484.27 4412.19,4060 4624.32,3847.87 4950,4173.55 4950,4370.72 4836.45,4484.27 z " fill-rule="evenodd" fill="rgb(255,0,0)" stroke-width="5" stroke="rgb(0,0,0)" />
	<path d="M6114.9,5341.28 6327.03,5129.15 6749.88,5552 6325.62,5552 6114.9,5341.28 z " fill-rule="evenodd" fill="rgb(255,0,0)" stroke-width="5" stroke="rgb(0,0,0)" />
	<path d="M2709.48,5341.28 2900,5150.76 2900,5531.81 2709.48,5341.28 z " fill-rule="evenodd" fill="rgb(255,0,0)" stroke-width="5" stroke="rgb(0,0,0)" />
	<path d="M2070.25,2993.69 2494.52,3417.95 2282.38,3630.08 1858.12,3205.82 1911.94,3152 2050,3152 2050,3013.94 2070.25,2993.69 z " fill-rule="evenodd" fill="rgb(255,0,0)" stroke-width="5" stroke="rgb(0,0,0)" />
	<path d="M1858.12,2778.73 2070.25,2566.6 2494.52,2990.86 2282.38,3202.99 2050,2970.61 2050,2952 2031.39,2952 1858.12,2778.73 z " fill-rule="evenodd" fill="rgb(255,0,0)" stroke-width="5" stroke="rgb(0,0,0)" />
	<path d="M2709.48,2778.73 2921.61,2566.6 3307.01,2952 2882.75,2952 2709.48,2778.73 z " fill-rule="evenodd" fill="rgb(255,0,0)" stroke-width="5" stroke="rgb(0,0,0)" />
	<path d="M4197.23,3417.95 3985.1,3630.08 3700,3344.99 3700,3066.65 3714.65,3052 3831.28,3052 4197.23,3417.95 z " fill-rule="evenodd" fill="rgb(255,0,0)" stroke-width="5" stroke="rgb(0,0,0)" />
	<path d="M4836.45,4057.18 4412.19,3632.91 4624.32,3420.78 4950,3746.46 4950,3943.63 4836.45,4057.18 z " fill-rule="evenodd" fill="rgb(255,0,0)" stroke-width="5" stroke="rgb(0,0,0)" />
	<path d="M6966.26,5341.28 7178.39,5129.15 7601.24,5552 7176.98,5552 6966.26,5341.28 z " fill-rule="evenodd" fill="rgb(255,0,0)" stroke-width="5" stroke="rgb(0,0,0)" />
	<path d="M2709.48,5768.37 2900,5577.85 2900,5958.9 2709.48,5768.37 z " fill-rule="evenodd" fill="rgb(255,0,0)" stroke-width="5" stroke="rgb(0,0,0)" />
	<path d="M2993.1,6052 3100,6052 3100,6158.9 2993.1,6052 z " fill-rule="evenodd" fill="rgb(255,0,0)" stroke-width="5" stroke="rgb(0,0,0)" />
	<path d="M1643.16,3417.95 1431.03,3630.08 1006.76,3205.82 1060.58,3152 1377.21,3152 1643.16,3417.95 z " fill-rule="evenodd" fill="rgb(255,0,0)" stroke-width="5" stroke="rgb(0,0,0)" />
	<path d="M1431.03,3202.99 1380.04,3152 1482.02,3152 1431.03,3202.99 z " fill-rule="evenodd" fill="rgb(255,0,0)" stroke-width="5" stroke="rgb(0,0,0)" />
	<path d="M1006.76,2778.73 1218.9,2566.6 1604.3,2952 1180.04,2952 1006.76,2778.73 z " fill-rule="evenodd" fill="rgb(255,0,0)" stroke-width="5" stroke="rgb(0,0,0)" />
	<path d="M1643.16,1709.58 1431.03,1921.71 1011.31,1502 1400,1502 1400,1602 1535.58,1602 1643.16,1709.58 z " fill-rule="evenodd" fill="rgb(255,0,0)" stroke-width="5" stroke="rgb(0,0,0)" />
	<path d="M3985.1,3202.99 3834.11,3052 4136.09,3052 3985.1,3202.99 z " fill-rule="evenodd" fill="rgb(255,0,0)" stroke-width="5" stroke="rgb(0,0,0)" />
	<path d="M3560.83,2778.73 3772.97,2566.6 4158.37,2952 3734.11,2952 3560.83,2778.73 z " fill-rule="evenodd" fill="rgb(255,0,0)" stroke-width="5" stroke="rgb(0,0,0)" />
	<path d="M4836.45,3630.08 4412.19,3205.82 4624.32,2993.69 4950,3319.37 4950,3516.54 4836.45,3630.08 z " fill-rule="evenodd" fill="rgb(255,0,0)" stroke-width="5" stroke="rgb(0,0,0)" />
	<path d="M7817.62,5341.28 8029.75,5129.15 8452.6,5552 8028.33,5552 7817.62,5341.28 z " fill-rule="evenodd" fill="rgb(255,0,0)" stroke-width="5" stroke="rgb(0,0,0)" />
	<path d="M791.803,3417.95 579.671,3630.08 155.407,3205.82 209.227,3152 525.851,3152 791.803,3417.95 z " fill-rule="evenodd" fill="rgb(255,0,0)" stroke-width="5" stroke="rgb(0,0,0)" />
	<path d="M3100,6161.73 3100,6585.99 2709.48,6195.47 2900,6004.94 2900,6052 2990.27,6052 3100,6161.73 z " fill-rule="evenodd" fill="rgb(255,0,0)" stroke-width="5" stroke="rgb(0,0,0)" />
	<path d="M579.671,3202.99 528.68,3152 630.662,3152 579.671,3202.99 z " fill-rule="evenodd" fill="rgb(255,0,0)" stroke-width="5" stroke="rgb(0,0,0)" />
	<path d="M155.407,2778.73 367.539,2566.6 752.944,2952 328.68,2952 155.407,2778.73 z " fill-rule="evenodd" fill="rgb(255,0,0)" stroke-width="5" stroke="rgb(0,0,0)" />
	<path d="M791.803,1709.58 579.671,1921.71 259.957,1602 684.221,1602 791.803,1709.58 z " fill-rule="evenodd" fill="rgb(255,0,0)" stroke-width="5" stroke="rgb(0,0,0)" />
	<path d="M2494.52,1709.58 2282.38,1921.71 1962.67,1602 2150,1602 2150,1365.07 2494.52,1709.58 z " fill-rule="evenodd" fill="rgb(255,0,0)" stroke-width="5" stroke="rgb(0,0,0)" />
	<path d="M4836.45,3202.99 4412.19,2778.73 4624.32,2566.6 5009.73,2952 4900,2952 4900,3052 4950,3052 4950,3089.45 4836.45,3202.99 z " fill-rule="evenodd" fill="rgb(255,0,0)" stroke-width="5" stroke="rgb(0,0,0)" />
	<path d="M2709.48,6622.56 2921.61,6410.43 3100,6588.82 3100,6852 2938.92,6852 2709.48,6622.56 z " fill-rule="evenodd" fill="rgb(255,0,0)" stroke-width="5" stroke="rgb(0,0,0)" />
	<path d="M2494.52,1282.49 2282.38,1494.62 2150,1362.24 2150,937.973 2494.52,1282.49 z " fill-rule="evenodd" fill="rgb(255,0,0)" stroke-width="5" stroke="rgb(0,0,0)" />
	<path d="M3345.87,1709.58 3133.74,1921.71 2709.48,1497.45 2921.61,1285.32 3096.82,1460.53 3080,1502 2950,1502 2950,1602 3147,1602 3173.34,1537.05 3345.87,1709.58 z " fill-rule="evenodd" fill="rgb(255,0,0)" stroke-width="5" stroke="rgb(0,0,0)" />
	<path d="M1858.12,6622.56 2070.25,6410.43 2494.52,6834.69 2377.21,6952 2187.56,6952 1858.12,6622.56 z " fill-rule="evenodd" fill="rgb(255,0,0)" stroke-width="5" stroke="rgb(0,0,0)" />
	<path d="M2921.61,6837.52 2936.09,6852 2907.13,6852 2921.61,6837.52 z " fill-rule="evenodd" fill="rgb(255,0,0)" stroke-width="5" stroke="rgb(0,0,0)" />
	<path d="M2900,6859.13 2900,6952 2807.13,6952 2900,6859.13 z " fill-rule="evenodd" fill="rgb(255,0,0)" stroke-width="5" stroke="rgb(0,0,0)" />
	<path d="M2494.52,855.397 2282.38,1067.53 2150,935.145 2150,510.881 2494.52,855.397 z " fill-rule="evenodd" fill="rgb(255,0,0)" stroke-width="5" stroke="rgb(0,0,0)" />
	<path d="M3345.87,1282.49 3229.29,1399.07 3296.56,1233.18 3345.87,1282.49 z " fill-rule="evenodd" fill="rgb(255,0,0)" stroke-width="5" stroke="rgb(0,0,0)" />
	<path d="M2709.48,1070.36 2921.61,858.225 3220.08,1156.7 3097.64,1458.52 2709.48,1070.36 z " fill-rule="evenodd" fill="rgb(255,0,0)" stroke-width="5" stroke="rgb(0,0,0)" />
	<path d="M1006.76,6622.56 1218.9,6410.43 1643.16,6834.69 1525.85,6952 1336.2,6952 1006.76,6622.56 z " fill-rule="evenodd" fill="rgb(255,0,0)" stroke-width="5" stroke="rgb(0,0,0)" />
	<path d="M2070.25,6837.52 2184.73,6952 1955.77,6952 2070.25,6837.52 z " fill-rule="evenodd" fill="rgb(255,0,0)" stroke-width="5" stroke="rgb(0,0,0)" />
	<path d="M2494.52,428.304 2282.38,640.436 2150,508.052 2150,100 2177.27,111.062 2494.52,428.304 z " fill-rule="evenodd" fill="rgb(255,0,0)" stroke-width="5" stroke="rgb(0,0,0)" />
	<path d="M3133.74,1067.53 2709.48,643.265 2921.61,431.133 3343.34,852.866 3339.89,861.383 3133.74,1067.53 z " fill-rule="evenodd" fill="rgb(255,0,0)" stroke-width="5" stroke="rgb(0,0,0)" />
	<path d="M155.407,6622.56 367.539,6410.43 791.803,6834.69 674.495,6952 484.847,6952 155.407,6622.56 z " fill-rule="evenodd" fill="rgb(255,0,0)" stroke-width="5" stroke="rgb(0,0,0)" />
	<path d="M1218.9,6837.52 1333.38,6952 1104.42,6952 1218.9,6837.52 z " fill-rule="evenodd" fill="rgb(255,0,0)" stroke-width="5" stroke="rgb(0,0,0)" />
	<path d="M2282.38,213.344 2182.03,112.992 2324.82,170.907 2282.38,213.344 z " fill-rule="evenodd" fill="rgb(255,0,0)" stroke-width="5" stroke="rgb(0,0,0)" />
	<path d="M3133.74,640.436 2895.79,402.49 3234.36,539.812 3133.74,640.436 z " fill-rule="evenodd" fill="rgb(255,0,0)" stroke-width="5" stroke="rgb(0,0,0)" />
	<path d="M3985.1,1067.53 3610.77,693.201 4143.23,909.398 3985.1,1067.53 z " fill-rule="evenodd" fill="rgb(255,0,0)" stroke-width="5" stroke="rgb(0,0,0)" />
	<path d="M5048.59,1282.49 4836.45,1494.62 4412.19,1070.36 4449,1033.55 5039.35,1273.25 5048.59,1282.49 z " fill-rule="evenodd" fill="rgb(255,0,0)" stroke-width="5" stroke="rgb(0,0,0)" />
	<path d="M5899.94,1709.58 5687.81,1921.71 5263.55,1497.45 5358.26,1402.74 5753.64,1563.28 5899.94,1709.58 z " fill-rule="evenodd" fill="rgb(255,0,0)" stroke-width="5" stroke="rgb(0,0,0)" />
	<path d="M6751.3,2136.67 6539.17,2348.81 6114.9,1924.54 6267.51,1771.93 6467.93,1853.31 6751.3,2136.67 z " fill-rule="evenodd" fill="rgb(255,0,0)" stroke-width="5" stroke="rgb(0,0,0)" />
	<path d="M7602.66,2563.77 7390.52,2775.9 6966.26,2351.63 7176.77,2141.12 7182.22,2143.33 7602.66,2563.77 z " fill-rule="evenodd" fill="rgb(255,0,0)" stroke-width="5" stroke="rgb(0,0,0)" />
	<path d="M367.539,6837.52 482.019,6952 253.059,6952 367.539,6837.52 z " fill-rule="evenodd" fill="rgb(255,0,0)" stroke-width="5" stroke="rgb(0,0,0)" />
	<path d="M6539.17,1921.71 6472.69,1855.24 6567.25,1893.63 6539.17,1921.71 z " fill-rule="evenodd" fill="rgb(255,0,0)" stroke-width="5" stroke="rgb(0,0,0)" />
	<path d="M7390.52,2348.81 7186.98,2145.27 7476.51,2262.82 7390.52,2348.81 z " fill-rule="evenodd" fill="rgb(255,0,0)" stroke-width="5" stroke="rgb(0,0,0)" />
	<path d="M8241.88,2775.9 7901.27,2435.29 8385.77,2632.01 8241.88,2775.9 z " fill-rule="evenodd" fill="rgb(255,0,0)" stroke-width="5" stroke="rgb(0,0,0)" />
	<polyline points="5045,5557 5469.26,5132.74 5045,5557 4620.74,5132.74 5045,5557 " fill="none" stroke-width="100" stroke="rgb(0,0,0)" />
	<circle cx="5045" cy="5557" r="-7.07107" fill="rgb(0,0,0)" />
	<circle cx="5469.26" cy="5132.74" r="-7.07107" fill="rgb(0,0,0)" />
	<circle cx="5045" cy="5557" r="-7.07107" fill="rgb(0,0,0)" />
	<circle cx="4620.74" cy="5132.74" r="-7.07107" fill="rgb(0,0,0)" />
	<circle cx="5045" cy="5557" r="-7.07107" fill="rgb(0,0,0)" />
	<polyline points="5045,6023.69 5045,5557 4111.62,5557 " fill="none" stroke-width="0.5" stroke="rgb(128,0,128)" />
</svg>
