<?xml version="1.0" standalone="no" ?>
<!DOCTYPE svg PUBLIC "-//W3C//DTD SVG 1.1//EN" "http://www.w3.org/Graphics/SVG/1.1/DTD/svg11.dtd">
<svg width="8700px" height="7052px" xmlns="http://www.w3.org/2000/svg" version="1.1" >
	<path d="M4198.64,2952 4622.91,2527.74 4410.78,2315.6 3986.51,2739.87 4198.64,2952 z " fill-rule="evenodd" fill="rgb(0,128,0)" stroke-width="5" stroke="rgb(0,0,0)" />
	<path d="M4198.64,2524.91 4622.91,2100.64 4410.78,1888.51 3986.51,2312.78 4198.64,2524.91 z " fill-rule="evenodd" fill="rgb(0,128,0)" stroke-width="5" stroke="rgb(0,0,0)" />
	<path d="M4198.64,2097.82 4622.91,1673.55 4410.78,1461.42 3986.51,1885.68 4198.64,2097.82 z " fill-rule="evenodd" fill="rgb(0,128,0)" stroke-width="5" stroke="rgb(0,0,0)" />
	<path d="M5050,2952 5474.26,2527.74 5262.13,2315.6 4837.87,2739.87 5050,2952 z " fill-rule="evenodd" fill="rgb(0,128,0)" stroke-width="5" stroke="rgb(0,0,0)" />
	<path d="M5050,2524.91 5474.26,2100.64 5262.13,1888.51 4837.87,2312.78 5050,2524.91 z " fill-rule="evenodd" fill="rgb(0,128,0)" stroke-width="5" stroke="rgb(0,0,0)" />
	<path d="M5901.36,3806.18 6325.62,3381.92 6113.49,3169.79 5689.22,3594.05 5901.36,3806.18 z " fill-rule="evenodd" fill="rgb(0,128,0)" stroke-width="5" stroke="rgb(0,0,0)" />
	<path d="M5901.36,3379.09 6325.62,2954.83 6113.49,2742.7 5689.22,3166.96 5901.36,3379.09 z " fill-rule="evenodd" fill="rgb(0,128,0)" stroke-width="5" stroke="rgb(0,0,0)" />
	<path d="M5901.36,2952 6325.62,2527.74 6113.49,2315.6 5689.22,2739.87 5901.36,2952 z " fill-rule="evenodd" fill="rgb(0,128,0)" stroke-width="5" stroke="rgb(0,0,0)" />
	<path d="M3347.29,2952 3771.55,2527.74 3559.42,2315.6 3135.15,2739.87 3347.29,2952 z " fill-rule="evenodd" fill="rgb(0,128,0)" stroke-width="5" stroke="rgb(0,0,0)" />
	<path d="M3347.29,2524.91 3771.55,2100.64 3559.42,1888.51 3135.15,2312.78 3347.29,2524.91 z " fill-rule="evenodd" fill="rgb(0,128,0)" stroke-width="5" stroke="rgb(0,0,0)" />
	<path d="M3347.29,2097.82 3771.55,1673.55 3559.42,1461.42 3135.15,1885.68 3347.29,2097.82 z " fill-rule="evenodd" fill="rgb(0,128,0)" stroke-width="5" stroke="rgb(0,0,0)" />
	<path d="M4198.64,1670.72 4622.91,1246.46 4410.78,1034.33 3986.51,1458.59 4198.64,1670.72 z " fill-rule="evenodd" fill="rgb(0,128,0)" stroke-width="5" stroke="rgb(0,0,0)" />
	<path d="M5050,2097.82 5474.26,1673.55 5262.13,1461.42 4837.87,1885.68 5050,2097.82 z " fill-rule="evenodd" fill="rgb(0,128,0)" stroke-width="5" stroke="rgb(0,0,0)" />
	<path d="M5901.36,4233.28 6325.62,3809.01 6113.49,3596.88 5689.22,4021.15 5901.36,4233.28 z " fill-rule="evenodd" fill="rgb(0,128,0)" stroke-width="5" stroke="rgb(0,0,0)" />
	<path d="M5901.36,2524.91 6325.62,2100.64 6113.49,1888.51 5689.22,2312.78 5901.36,2524.91 z " fill-rule="evenodd" fill="rgb(0,128,0)" stroke-width="5" stroke="rgb(0,0,0)" />
	<path d="M6752.71,4660.37 7176.98,4236.11 6964.85,4023.97 6540.58,4448.24 6752.71,4660.37 z " fill-rule="evenodd" fill="rgb(0,128,0)" stroke-width="5" stroke="rgb(0,0,0)" />
	<path d="M6752.71,4233.28 7176.98,3809.01 6964.85,3596.88 6540.58,4021.15 6752.71,4233.28 z " fill-rule="evenodd" fill="rgb(0,128,0)" stroke-width="5" stroke="rgb(0,0,0)" />
	<path d="M6752.71,3806.18 7176.98,3381.92 6964.85,3169.79 6540.58,3594.05 6752.71,3806.18 z " fill-rule="evenodd" fill="rgb(0,128,0)" stroke-width="5" stroke="rgb(0,0,0)" />
	<path d="M6752.71,3379.09 7176.98,2954.83 6964.85,2742.7 6540.58,3166.96 6752.71,3379.09 z " fill-rule="evenodd" fill="rgb(0,128,0)" stroke-width="5" stroke="rgb(0,0,0)" />
	<path d="M6752.71,2952 7176.98,2527.74 6964.85,2315.6 6540.58,2739.87 6752.71,2952 z " fill-rule="evenodd" fill="rgb(0,128,0)" stroke-width="5" stroke="rgb(0,0,0)" />
	<path d="M2495.93,2952 2920.19,2527.74 2708.06,2315.6 2283.8,2739.87 2495.93,2952 z " fill-rule="evenodd" fill="rgb(0,128,0)" stroke-width="5" stroke="rgb(0,0,0)" />
	<path d="M2495.93,2524.91 2920.19,2100.64 2708.06,1888.51 2283.8,2312.78 2495.93,2524.91 z " fill-rule="evenodd" fill="rgb(0,128,0)" stroke-width="5" stroke="rgb(0,0,0)" />
	<path d="M2495.93,2097.82 2920.19,1673.55 2708.06,1461.42 2283.8,1885.68 2495.93,2097.82 z " fill-rule="evenodd" fill="rgb(0,128,0)" stroke-width="5" stroke="rgb(0,0,0)" />
	<path d="M4198.64,3806.18 4622.91,3381.92 4410.78,3169.79 3986.51,3594.05 4198.64,3806.18 z " fill-rule="evenodd" fill="rgb(0,128,0)" stroke-width="5" stroke="rgb(0,0,0)" />
	<path d="M2495.93,1670.72 2920.19,1246.46 2708.06,1034.33 2283.8,1458.59 2495.93,1670.72 z " fill-rule="evenodd" fill="rgb(0,128,0)" stroke-width="5" stroke="rgb(0,0,0)" />
	<path d="M2495.93,1243.63 2920.19,819.366 2708.06,607.234 2283.8,1031.5 2495.93,1243.63 z " fill-rule="evenodd" fill="rgb(0,128,0)" stroke-width="5" stroke="rgb(0,0,0)" />
	<path d="M5901.36,4660.37 6325.62,4236.11 6113.49,4023.97 5689.22,4448.24 5901.36,4660.37 z " fill-rule="evenodd" fill="rgb(0,128,0)" stroke-width="5" stroke="rgb(0,0,0)" />
	<path d="M6752.71,5087.46 7176.98,4663.2 6964.85,4451.07 6540.58,4875.33 6752.71,5087.46 z " fill-rule="evenodd" fill="rgb(0,128,0)" stroke-width="5" stroke="rgb(0,0,0)" />
	<path d="M7604.07,5514.55 8028.33,5090.29 7816.2,4878.16 7391.94,5302.42 7604.07,5514.55 z " fill-rule="evenodd" fill="rgb(0,128,0)" stroke-width="5" stroke="rgb(0,0,0)" />
	<path d="M7604.07,5087.46 8028.33,4663.2 7816.2,4451.07 7391.94,4875.33 7604.07,5087.46 z " fill-rule="evenodd" fill="rgb(0,128,0)" stroke-width="5" stroke="rgb(0,0,0)" />
	<path d="M7604.07,4660.37 8028.33,4236.11 7816.2,4023.97 7391.94,4448.24 7604.07,4660.37 z " fill-rule="evenodd" fill="rgb(0,128,0)" stroke-width="5" stroke="rgb(0,0,0)" />
	<path d="M7604.07,4233.28 8028.33,3809.01 7816.2,3596.88 7391.94,4021.15 7604.07,4233.28 z " fill-rule="evenodd" fill="rgb(0,128,0)" stroke-width="5" stroke="rgb(0,0,0)" />
	<path d="M7604.07,3806.18 8028.33,3381.92 7816.2,3169.79 7391.94,3594.05 7604.07,3806.18 z " fill-rule="evenodd" fill="rgb(0,128,0)" stroke-width="5" stroke="rgb(0,0,0)" />
	<path d="M7604.07,3379.09 8028.33,2954.83 7816.2,2742.7 7391.94,3166.96 7604.07,3379.09 z " fill-rule="evenodd" fill="rgb(0,128,0)" stroke-width="5" stroke="rgb(0,0,0)" />
	<path d="M1644.57,2952 2068.84,2527.74 1856.71,2315.6 1432.44,2739.87 1644.57,2952 z " fill-rule="evenodd" fill="rgb(0,128,0)" stroke-width="5" stroke="rgb(0,0,0)" />
	<path d="M1644.57,2524.91 2068.84,2100.64 1856.71,1888.51 1432.44,2312.78 1644.57,2524.91 z " fill-rule="evenodd" fill="rgb(0,128,0)" stroke-width="5" stroke="rgb(0,0,0)" />
	<path d="M4198.64,4233.28 4622.91,3809.01 4410.78,3596.88 3986.51,4021.15 4198.64,4233.28 z " fill-rule="evenodd" fill="rgb(0,128,0)" stroke-width="5" stroke="rgb(0,0,0)" />
	<path d="M5901.36,5087.46 6325.62,4663.2 6113.49,4451.07 5689.22,4875.33 5901.36,5087.46 z " fill-rule="evenodd" fill="rgb(0,128,0)" stroke-width="5" stroke="rgb(0,0,0)" />
	<path d="M6752.71,5514.55 7176.98,5090.29 6964.85,4878.16 6540.58,5302.42 6752.71,5514.55 z " fill-rule="evenodd" fill="rgb(0,128,0)" stroke-width="5" stroke="rgb(0,0,0)" />
	<path d="M793.217,2952 1217.48,2527.74 1005.35,2315.6 581.085,2739.87 793.217,2952 z " fill-rule="evenodd" fill="rgb(0,128,0)" stroke-width="5" stroke="rgb(0,0,0)" />
	<path d="M793.217,2524.91 1217.48,2100.64 1005.35,1888.51 581.085,2312.78 793.217,2524.91 z " fill-rule="evenodd" fill="rgb(0,128,0)" stroke-width="5" stroke="rgb(0,0,0)" />
	<path d="M4198.64,4660.37 4622.91,4236.11 4410.78,4023.97 3986.51,4448.24 4198.64,4660.37 z " fill-rule="evenodd" fill="rgb(0,128,0)" stroke-width="5" stroke="rgb(0,0,0)" />
	<path d="M5901.36,5514.55 6325.62,5090.29 6113.49,4878.16 5689.22,5302.42 5901.36,5514.55 z " fill-rule="evenodd" fill="rgb(0,128,0)" stroke-width="5" stroke="rgb(0,0,0)" />
	<path d="M1644.57,3806.18 2068.84,3381.92 1856.71,3169.79 1432.44,3594.05 1644.57,3806.18 z " fill-rule="evenodd" fill="rgb(0,128,0)" stroke-width="5" stroke="rgb(0,0,0)" />
	<path d="M793.217,3806.18 1217.48,3381.92 1005.35,3169.79 581.085,3594.05 793.217,3806.18 z " fill-rule="evenodd" fill="rgb(0,128,0)" stroke-width="5" stroke="rgb(0,0,0)" />
	<path d="M1644.57,4233.28 2068.84,3809.01 1856.71,3596.88 1432.44,4021.15 1644.57,4233.28 z " fill-rule="evenodd" fill="rgb(0,128,0)" stroke-width="5" stroke="rgb(0,0,0)" />
	<path d="M793.217,4233.28 1217.48,3809.01 1005.35,3596.88 581.085,4021.15 793.217,4233.28 z " fill-rule="evenodd" fill="rgb(0,128,0)" stroke-width="5" stroke="rgb(0,0,0)" />
	<path d="M1644.57,4660.37 2068.84,4236.11 1856.71,4023.97 1432.44,4448.24 1644.57,4660.37 z " fill-rule="evenodd" fill="rgb(0,128,0)" stroke-width="5" stroke="rgb(0,0,0)" />
	<path d="M793.217,4660.37 1217.48,4236.11 1005.35,4023.97 581.085,4448.24 793.217,4660.37 z " fill-rule="evenodd" fill="rgb(0,128,0)" stroke-width="5" stroke="rgb(0,0,0)" />
	<path d="M1644.57,5087.46 2068.84,4663.2 1856.71,4451.07 1432.44,4875.33 1644.57,5087.46 z " fill-rule="evenodd" fill="rgb(0,128,0)" stroke-width="5" stroke="rgb(0,0,0)" />
	<path d="M793.217,5087.46 1217.48,4663.2 1005.35,4451.07 581.085,4875.33 793.217,5087.46 z " fill-rule="evenodd" fill="rgb(0,128,0)" stroke-width="5" stroke="rgb(0,0,0)" />
	<path d="M1644.57,5514.55 2068.84,5090.29 1856.71,4878.16 1432.44,5302.42 1644.57,5514.55 z " fill-rule="evenodd" fill="rgb(0,128,0)" stroke-width="5" stroke="rgb(0,0,0)" />
	<path d="M793.217,5514.55 1217.48,5090.29 1005.35,4878.16 581.085,5302.42 793.217,5514.55 z " fill-rule="evenodd" fill="rgb(0,128,0)" stroke-width="5" stroke="rgb(0,0,0)" />
	<path d="M1644.57,5941.65 2068.84,5517.38 1856.71,5305.25 1432.44,5729.52 1644.57,5941.65 z " fill-rule="evenodd" fill="rgb(0,128,0)" stroke-width="5" stroke="rgb(0,0,0)" />
	<path d="M793.217,5941.65 1217.48,5517.38 1005.35,5305.25 581.085,5729.52 793.217,5941.65 z " fill-rule="evenodd" fill="rgb(0,128,0)" stroke-width="5" stroke="rgb(0,0,0)" />
	<path d="M1644.57,6368.74 2068.84,5944.48 1856.71,5732.34 1432.44,6156.61 1644.57,6368.74 z " fill-rule="evenodd" fill="rgb(0,128,0)" stroke-width="5" stroke="rgb(0,0,0)" />
	<path d="M2495.93,6795.83 2920.19,6371.57 2708.06,6159.44 2283.8,6583.7 2495.93,6795.83 z " fill-rule="evenodd" fill="rgb(0,128,0)" stroke-width="5" stroke="rgb(0,0,0)" />
	<path d="M793.217,6368.74 1217.48,5944.48 1005.35,5732.34 581.085,6156.61 793.217,6368.74 z " fill-rule="evenodd" fill="rgb(0,128,0)" stroke-width="5" stroke="rgb(0,0,0)" />
	<path d="M1644.57,6795.83 2068.84,6371.57 1856.71,6159.44 1432.44,6583.7 1644.57,6795.83 z " fill-rule="evenodd" fill="rgb(0,128,0)" stroke-width="5" stroke="rgb(0,0,0)" />
	<path d="M793.217,6795.83 1217.48,6371.57 1005.35,6159.44 581.085,6583.7 793.217,6795.83 z " fill-rule="evenodd" fill="rgb(0,128,0)" stroke-width="5" stroke="rgb(0,0,0)" />
	<path d="M3985.1,2738.45 4197.23,2526.32 3772.97,2102.06 3560.83,2314.19 3985.1,2738.45 z " fill-rule="evenodd" fill="rgb(0,128,0)" stroke-width="5" stroke="rgb(0,0,0)" />
	<path d="M3985.1,2311.36 4197.23,2099.23 3772.97,1674.97 3560.83,1887.1 3985.1,2311.36 z " fill-rule="evenodd" fill="rgb(0,128,0)" stroke-width="5" stroke="rgb(0,0,0)" />
	<path d="M3985.1,1884.27 4197.23,1672.14 3772.97,1247.87 3560.83,1460 3985.1,1884.27 z " fill-rule="evenodd" fill="rgb(0,128,0)" stroke-width="5" stroke="rgb(0,0,0)" />
	<path d="M4836.45,2738.45 5048.59,2526.32 4624.32,2102.06 4412.19,2314.19 4836.45,2738.45 z " fill-rule="evenodd" fill="rgb(0,128,0)" stroke-width="5" stroke="rgb(0,0,0)" />
	<path d="M4836.45,2311.36 5048.59,2099.23 4624.32,1674.97 4412.19,1887.1 4836.45,2311.36 z " fill-rule="evenodd" fill="rgb(0,128,0)" stroke-width="5" stroke="rgb(0,0,0)" />
	<path d="M5687.81,3592.64 5899.94,3380.51 5475.68,2956.24 5263.55,3168.37 5687.81,3592.64 z " fill-rule="evenodd" fill="rgb(0,128,0)" stroke-width="5" stroke="rgb(0,0,0)" />
	<path d="M5687.81,3165.55 5899.94,2953.41 5475.68,2529.15 5263.55,2741.28 5687.81,3165.55 z " fill-rule="evenodd" fill="rgb(0,128,0)" stroke-width="5" stroke="rgb(0,0,0)" />
	<path d="M5687.81,2738.45 5899.94,2526.32 5475.68,2102.06 5263.55,2314.19 5687.81,2738.45 z " fill-rule="evenodd" fill="rgb(0,128,0)" stroke-width="5" stroke="rgb(0,0,0)" />
	<path d="M3133.74,2738.45 3345.87,2526.32 2921.61,2102.06 2709.48,2314.19 3133.74,2738.45 z " fill-rule="evenodd" fill="rgb(0,128,0)" stroke-width="5" stroke="rgb(0,0,0)" />
	<path d="M3133.74,2311.36 3345.87,2099.23 2921.61,1674.97 2709.48,1887.1 3133.74,2311.36 z " fill-rule="evenodd" fill="rgb(0,128,0)" stroke-width="5" stroke="rgb(0,0,0)" />
	<path d="M3985.1,1457.18 4197.23,1245.04 3772.97,820.78 3560.83,1032.91 3985.1,1457.18 z " fill-rule="evenodd" fill="rgb(0,128,0)" stroke-width="5" stroke="rgb(0,0,0)" />
	<path d="M4836.45,1884.27 5048.59,1672.14 4624.32,1247.87 4412.19,1460 4836.45,1884.27 z " fill-rule="evenodd" fill="rgb(0,128,0)" stroke-width="5" stroke="rgb(0,0,0)" />
	<path d="M5687.81,4019.73 5899.94,3807.6 5475.68,3383.34 5263.55,3595.47 5687.81,4019.73 z " fill-rule="evenodd" fill="rgb(0,128,0)" stroke-width="5" stroke="rgb(0,0,0)" />
	<path d="M5687.81,2311.36 5899.94,2099.23 5475.68,1674.97 5263.55,1887.1 5687.81,2311.36 z " fill-rule="evenodd" fill="rgb(0,128,0)" stroke-width="5" stroke="rgb(0,0,0)" />
	<path d="M6539.17,4446.82 6751.3,4234.69 6327.03,3810.43 6114.9,4022.56 6539.17,4446.82 z " fill-rule="evenodd" fill="rgb(0,128,0)" stroke-width="5" stroke="rgb(0,0,0)" />
	<path d="M6539.17,4019.73 6751.3,3807.6 6327.03,3383.34 6114.9,3595.47 6539.17,4019.73 z " fill-rule="evenodd" fill="rgb(0,128,0)" stroke-width="5" stroke="rgb(0,0,0)" />
	<path d="M6539.17,3592.64 6751.3,3380.51 6327.03,2956.24 6114.9,3168.37 6539.17,3592.64 z " fill-rule="evenodd" fill="rgb(0,128,0)" stroke-width="5" stroke="rgb(0,0,0)" />
	<path d="M6539.17,3165.55 6751.3,2953.41 6327.03,2529.15 6114.9,2741.28 6539.17,3165.55 z " fill-rule="evenodd" fill="rgb(0,128,0)" stroke-width="5" stroke="rgb(0,0,0)" />
	<path d="M6539.17,2738.45 6751.3,2526.32 6327.03,2102.06 6114.9,2314.19 6539.17,2738.45 z " fill-rule="evenodd" fill="rgb(0,128,0)" stroke-width="5" stroke="rgb(0,0,0)" />
	<path d="M2282.38,2738.45 2494.52,2526.32 2070.25,2102.06 1858.12,2314.19 2282.38,2738.45 z " fill-rule="evenodd" fill="rgb(0,128,0)" stroke-width="5" stroke="rgb(0,0,0)" />
	<path d="M2282.38,2311.36 2494.52,2099.23 2070.25,1674.97 1858.12,1887.1 2282.38,2311.36 z " fill-rule="evenodd" fill="rgb(0,128,0)" stroke-width="5" stroke="rgb(0,0,0)" />
	<path d="M5687.81,4446.82 5899.94,4234.69 5475.68,3810.43 5263.55,4022.56 5687.81,4446.82 z " fill-rule="evenodd" fill="rgb(0,128,0)" stroke-width="5" stroke="rgb(0,0,0)" />
	<path d="M6539.17,4873.92 6751.3,4661.78 6327.03,4237.52 6114.9,4449.65 6539.17,4873.92 z " fill-rule="evenodd" fill="rgb(0,128,0)" stroke-width="5" stroke="rgb(0,0,0)" />
	<path d="M7390.52,5301.01 7602.66,5088.88 7178.39,4664.61 6966.26,4876.74 7390.52,5301.01 z " fill-rule="evenodd" fill="rgb(0,128,0)" stroke-width="5" stroke="rgb(0,0,0)" />
	<path d="M7390.52,4873.92 7602.66,4661.78 7178.39,4237.52 6966.26,4449.65 7390.52,4873.92 z " fill-rule="evenodd" fill="rgb(0,128,0)" stroke-width="5" stroke="rgb(0,0,0)" />
	<path d="M7390.52,4446.82 7602.66,4234.69 7178.39,3810.43 6966.26,4022.56 7390.52,4446.82 z " fill-rule="evenodd" fill="rgb(0,128,0)" stroke-width="5" stroke="rgb(0,0,0)" />
	<path d="M7390.52,4019.73 7602.66,3807.6 7178.39,3383.34 6966.26,3595.47 7390.52,4019.73 z " fill-rule="evenodd" fill="rgb(0,128,0)" stroke-width="5" stroke="rgb(0,0,0)" />
	<path d="M7390.52,3592.64 7602.66,3380.51 7178.39,2956.24 6966.26,3168.37 7390.52,3592.64 z " fill-rule="evenodd" fill="rgb(0,128,0)" stroke-width="5" stroke="rgb(0,0,0)" />
	<path d="M7390.52,3165.55 7602.66,2953.41 7178.39,2529.15 6966.26,2741.28 7390.52,3165.55 z " fill-rule="evenodd" fill="rgb(0,128,0)" stroke-width="5" stroke="rgb(0,0,0)" />
	<path d="M1431.03,2738.45 1643.16,2526.32 1218.9,2102.06 1006.76,2314.19 1431.03,2738.45 z " fill-rule="evenodd" fill="rgb(0,128,0)" stroke-width="5" stroke="rgb(0,0,0)" />
	<path d="M1431.03,2311.36 1643.16,2099.23 1218.9,1674.97 1006.76,1887.1 1431.03,2311.36 z " fill-rule="evenodd" fill="rgb(0,128,0)" stroke-width="5" stroke="rgb(0,0,0)" />
	<path d="M2282.38,3165.55 2494.52,2953.41 2070.25,2529.15 1858.12,2741.28 2282.38,3165.55 z " fill-rule="evenodd" fill="rgb(0,128,0)" stroke-width="5" stroke="rgb(0,0,0)" />
	<path d="M5687.81,4873.92 5899.94,4661.78 5475.68,4237.52 5263.55,4449.65 5687.81,4873.92 z " fill-rule="evenodd" fill="rgb(0,128,0)" stroke-width="5" stroke="rgb(0,0,0)" />
	<path d="M6539.17,5301.01 6751.3,5088.88 6327.03,4664.61 6114.9,4876.74 6539.17,5301.01 z " fill-rule="evenodd" fill="rgb(0,128,0)" stroke-width="5" stroke="rgb(0,0,0)" />
	<path d="M8241.88,5301.01 8454.01,5088.88 8029.75,4664.61 7817.62,4876.74 8241.88,5301.01 z " fill-rule="evenodd" fill="rgb(0,128,0)" stroke-width="5" stroke="rgb(0,0,0)" />
	<path d="M8241.88,4873.92 8454.01,4661.78 8029.75,4237.52 7817.62,4449.65 8241.88,4873.92 z " fill-rule="evenodd" fill="rgb(0,128,0)" stroke-width="5" stroke="rgb(0,0,0)" />
	<path d="M8241.88,4446.82 8454.01,4234.69 8029.75,3810.43 7817.62,4022.56 8241.88,4446.82 z " fill-rule="evenodd" fill="rgb(0,128,0)" stroke-width="5" stroke="rgb(0,0,0)" />
	<path d="M8241.88,4019.73 8454.01,3807.6 8029.75,3383.34 7817.62,3595.47 8241.88,4019.73 z " fill-rule="evenodd" fill="rgb(0,128,0)" stroke-width="5" stroke="rgb(0,0,0)" />
	<path d="M8241.88,3592.64 8454.01,3380.51 8029.75,2956.24 7817.62,3168.37 8241.88,3592.64 z " fill-rule="evenodd" fill="rgb(0,128,0)" stroke-width="5" stroke="rgb(0,0,0)" />
	<path d="M8241.88,3165.55 8454.01,2953.41 8029.75,2529.15 7817.62,2741.28 8241.88,3165.55 z " fill-rule="evenodd" fill="rgb(0,128,0)" stroke-width="5" stroke="rgb(0,0,0)" />
	<path d="M579.671,2738.45 791.803,2526.32 367.539,2102.06 155.407,2314.19 579.671,2738.45 z " fill-rule="evenodd" fill="rgb(0,128,0)" stroke-width="5" stroke="rgb(0,0,0)" />
	<path d="M579.671,2311.36 791.803,2099.23 367.539,1674.97 155.407,1887.1 579.671,2311.36 z " fill-rule="evenodd" fill="rgb(0,128,0)" stroke-width="5" stroke="rgb(0,0,0)" />
	<path d="M5687.81,5301.01 5899.94,5088.88 5475.68,4664.61 5263.55,4876.74 5687.81,5301.01 z " fill-rule="evenodd" fill="rgb(0,128,0)" stroke-width="5" stroke="rgb(0,0,0)" />
	<path d="M2282.38,4019.73 2494.52,3807.6 2070.25,3383.34 1858.12,3595.47 2282.38,4019.73 z " fill-rule="evenodd" fill="rgb(0,128,0)" stroke-width="5" stroke="rgb(0,0,0)" />
	<path d="M1431.03,4019.73 1643.16,3807.6 1218.9,3383.34 1006.76,3595.47 1431.03,4019.73 z " fill-rule="evenodd" fill="rgb(0,128,0)" stroke-width="5" stroke="rgb(0,0,0)" />
	<path d="M2282.38,4446.82 2494.52,4234.69 2070.25,3810.43 1858.12,4022.56 2282.38,4446.82 z " fill-rule="evenodd" fill="rgb(0,128,0)" stroke-width="5" stroke="rgb(0,0,0)" />
	<path d="M579.671,4019.73 791.803,3807.6 367.539,3383.34 155.407,3595.47 579.671,4019.73 z " fill-rule="evenodd" fill="rgb(0,128,0)" stroke-width="5" stroke="rgb(0,0,0)" />
	<path d="M1431.03,4446.82 1643.16,4234.69 1218.9,3810.43 1006.76,4022.56 1431.03,4446.82 z " fill-rule="evenodd" fill="rgb(0,128,0)" stroke-width="5" stroke="rgb(0,0,0)" />
	<path d="M2282.38,4873.92 2494.52,4661.78 2070.25,4237.52 1858.12,4449.65 2282.38,4873.92 z " fill-rule="evenodd" fill="rgb(0,128,0)" stroke-width="5" stroke="rgb(0,0,0)" />
	<path d="M579.671,4446.82 791.803,4234.69 367.539,3810.43 155.407,4022.56 579.671,4446.82 z " fill-rule="evenodd" fill="rgb(0,128,0)" stroke-width="5" stroke="rgb(0,0,0)" />
	<path d="M1431.03,4873.92 1643.16,4661.78 1218.9,4237.52 1006.76,4449.65 1431.03,4873.92 z " fill-rule="evenodd" fill="rgb(0,128,0)" stroke-width="5" stroke="rgb(0,0,0)" />
	<path d="M2282.38,5301.01 2494.52,5088.88 2070.25,4664.61 1858.12,4876.74 2282.38,5301.01 z " fill-rule="evenodd" fill="rgb(0,128,0)" stroke-width="5" stroke="rgb(0,0,0)" />
	<path d="M579.671,4873.92 791.803,4661.78 367.539,4237.52 155.407,4449.65 579.671,4873.92 z " fill-rule="evenodd" fill="rgb(0,128,0)" stroke-width="5" stroke="rgb(0,0,0)" />
	<path d="M1431.03,5301.01 1643.16,5088.88 1218.9,4664.61 1006.76,4876.74 1431.03,5301.01 z " fill-rule="evenodd" fill="rgb(0,128,0)" stroke-width="5" stroke="rgb(0,0,0)" />
	<path d="M2282.38,5728.1 2494.52,5515.97 2070.25,5091.71 1858.12,5303.84 2282.38,5728.1 z " fill-rule="evenodd" fill="rgb(0,128,0)" stroke-width="5" stroke="rgb(0,0,0)" />
	<path d="M579.671,5301.01 791.803,5088.88 367.539,4664.61 155.407,4876.74 579.671,5301.01 z " fill-rule="evenodd" fill="rgb(0,128,0)" stroke-width="5" stroke="rgb(0,0,0)" />
	<path d="M1431.03,5728.1 1643.16,5515.97 1218.9,5091.71 1006.76,5303.84 1431.03,5728.1 z " fill-rule="evenodd" fill="rgb(0,128,0)" stroke-width="5" stroke="rgb(0,0,0)" />
	<path d="M2282.38,6155.19 2494.52,5943.06 2070.25,5518.8 1858.12,5730.93 2282.38,6155.19 z " fill-rule="evenodd" fill="rgb(0,128,0)" stroke-width="5" stroke="rgb(0,0,0)" />
	<path d="M579.671,5728.1 791.803,5515.97 367.539,5091.71 155.407,5303.84 579.671,5728.1 z " fill-rule="evenodd" fill="rgb(0,128,0)" stroke-width="5" stroke="rgb(0,0,0)" />
	<path d="M1431.03,6155.19 1643.16,5943.06 1218.9,5518.8 1006.76,5730.93 1431.03,6155.19 z " fill-rule="evenodd" fill="rgb(0,128,0)" stroke-width="5" stroke="rgb(0,0,0)" />
	<path d="M2282.38,6582.29 2494.52,6370.15 2070.25,5945.89 1858.12,6158.02 2282.38,6582.29 z " fill-rule="evenodd" fill="rgb(0,128,0)" stroke-width="5" stroke="rgb(0,0,0)" />
	<path d="M579.671,6155.19 791.803,5943.06 367.539,5518.8 155.407,5730.93 579.671,6155.19 z " fill-rule="evenodd" fill="rgb(0,128,0)" stroke-width="5" stroke="rgb(0,0,0)" />
	<path d="M1431.03,6582.29 1643.16,6370.15 1218.9,5945.89 1006.76,6158.02 1431.03,6582.29 z " fill-rule="evenodd" fill="rgb(0,128,0)" stroke-width="5" stroke="rgb(0,0,0)" />
	<path d="M579.671,6582.29 791.803,6370.15 367.539,5945.89 155.407,6158.02 579.671,6582.29 z " fill-rule="evenodd" fill="rgb(0,128,0)" stroke-width="5" stroke="rgb(0,0,0)" />
	<path d="M5262.13,2742.7 5474.26,2954.83 5050,3379.09 5050,3379.09 5050,2954.83 5262.13,2742.7 z " fill-rule="evenodd" fill="rgb(255,0,0)" stroke-width="5" stroke="rgb(0,0,0)" />
	<path d="M4837.87,3166.96 4950,3054.83 4950,3279.09 4837.87,3166.96 z " fill-rule="evenodd" fill="rgb(255,0,0)" stroke-width="5" stroke="rgb(0,0,0)" />
	<path d="M4410.78,2742.7 4622.91,2954.83 4198.64,3379.09 3986.51,3166.96 4101.47,3052 4200,3052 4200,2953.47 4410.78,2742.7 z " fill-rule="evenodd" fill="rgb(255,0,0)" stroke-width="5" stroke="rgb(0,0,0)" />
	<path d="M5262.13,3169.79 5474.26,3381.92 5050,3806.18 5050,3806.18 5050,3381.92 5262.13,3169.79 z " fill-rule="evenodd" fill="rgb(255,0,0)" stroke-width="5" stroke="rgb(0,0,0)" />
	<path d="M4837.87,3594.05 4950,3481.92 4950,3706.18 4837.87,3594.05 z " fill-rule="evenodd" fill="rgb(255,0,0)" stroke-width="5" stroke="rgb(0,0,0)" />
	<path d="M3559.42,1034.33 3771.55,1246.46 3347.29,1670.72 3184.96,1508.39 3252.91,1340.84 3559.42,1034.33 z " fill-rule="evenodd" fill="rgb(255,0,0)" stroke-width="5" stroke="rgb(0,0,0)" />
	<path d="M3771.55,819.366 3347.29,1243.63 3308.18,1204.53 3529,660 3669.05,716.865 3771.55,819.366 z " fill-rule="evenodd" fill="rgb(255,0,0)" stroke-width="5" stroke="rgb(0,0,0)" />
	<path d="M3135.15,1031.5 3363.52,803.137 3231.71,1128.05 3135.15,1031.5 z " fill-rule="evenodd" fill="rgb(255,0,0)" stroke-width="5" stroke="rgb(0,0,0)" />
	<path d="M3559.42,2742.7 3768.72,2952 3350.12,2952 3559.42,2742.7 z " fill-rule="evenodd" fill="rgb(255,0,0)" stroke-width="5" stroke="rgb(0,0,0)" />
	<path d="M5262.13,3596.88 5474.26,3809.01 5050,4233.28 5050,4233.28 5050,3809.01 5262.13,3596.88 z " fill-rule="evenodd" fill="rgb(255,0,0)" stroke-width="5" stroke="rgb(0,0,0)" />
	<path d="M4837.87,4021.15 4950,3909.01 4950,4133.28 4837.87,4021.15 z " fill-rule="evenodd" fill="rgb(255,0,0)" stroke-width="5" stroke="rgb(0,0,0)" />
	<path d="M2495.93,816.538 2283.8,604.405 2604.05,284.158 2905.89,406.583 2495.93,816.538 z " fill-rule="evenodd" fill="rgb(255,0,0)" stroke-width="5" stroke="rgb(0,0,0)" />
	<path d="M2495.93,389.445 2283.8,177.313 2300.19,160.918 2602.03,283.342 2495.93,389.445 z " fill-rule="evenodd" fill="rgb(255,0,0)" stroke-width="5" stroke="rgb(0,0,0)" />
	<path d="M3347.29,816.538 3135.15,604.405 3209.74,529.823 3437,622 3365.45,798.378 3347.29,816.538 z " fill-rule="evenodd" fill="rgb(255,0,0)" stroke-width="5" stroke="rgb(0,0,0)" />
	<path d="M4198.64,1243.63 3986.51,1031.5 4118.61,899.401 4420.35,1021.92 4198.64,1243.63 z " fill-rule="evenodd" fill="rgb(255,0,0)" stroke-width="5" stroke="rgb(0,0,0)" />
	<path d="M5050,1670.72 4837.87,1458.59 5027.87,1268.59 5329.61,1391.11 5050,1670.72 z " fill-rule="evenodd" fill="rgb(255,0,0)" stroke-width="5" stroke="rgb(0,0,0)" />
	<path d="M5901.36,2097.82 5689.22,1885.68 5937.13,1637.78 6238.87,1760.3 5901.36,2097.82 z " fill-rule="evenodd" fill="rgb(255,0,0)" stroke-width="5" stroke="rgb(0,0,0)" />
	<path d="M6752.71,2524.91 6540.58,2312.78 6846.38,2006.97 7148.13,2129.49 6752.71,2524.91 z " fill-rule="evenodd" fill="rgb(255,0,0)" stroke-width="5" stroke="rgb(0,0,0)" />
	<path d="M8028.33,2527.74 7604.07,2952 7391.94,2739.87 7755.64,2376.16 7959.56,2458.96 8028.33,2527.74 z " fill-rule="evenodd" fill="rgb(255,0,0)" stroke-width="5" stroke="rgb(0,0,0)" />
	<path d="M2068.84,1673.55 1644.57,2097.82 1432.44,1885.68 1716.12,1602 1997.29,1602 2068.84,1673.55 z " fill-rule="evenodd" fill="rgb(255,0,0)" stroke-width="5" stroke="rgb(0,0,0)" />
	<path d="M2495.93,3379.09 2283.8,3166.96 2708.06,2742.7 2917.37,2952 2850,2952 2850,3025.02 2495.93,3379.09 z " fill-rule="evenodd" fill="rgb(255,0,0)" stroke-width="5" stroke="rgb(0,0,0)" />
	<path d="M3771.55,3381.92 3700,3453.47 3700,3310.37 3771.55,3381.92 z " fill-rule="evenodd" fill="rgb(255,0,0)" stroke-width="5" stroke="rgb(0,0,0)" />
	<path d="M1644.57,1670.72 1575.85,1602 1713.3,1602 1644.57,1670.72 z " fill-rule="evenodd" fill="rgb(255,0,0)" stroke-width="5" stroke="rgb(0,0,0)" />
	<path d="M5262.13,4023.97 5474.26,4236.11 5050,4660.37 5050,4660.37 5050,4236.11 5262.13,4023.97 z " fill-rule="evenodd" fill="rgb(255,0,0)" stroke-width="5" stroke="rgb(0,0,0)" />
	<path d="M4837.87,4448.24 4950,4336.11 4950,4560.37 4837.87,4448.24 z " fill-rule="evenodd" fill="rgb(255,0,0)" stroke-width="5" stroke="rgb(0,0,0)" />
	<path d="M5901.36,1670.72 5821.45,1590.81 5935.11,1636.96 5901.36,1670.72 z " fill-rule="evenodd" fill="rgb(255,0,0)" stroke-width="5" stroke="rgb(0,0,0)" />
	<path d="M6752.71,2097.82 6540.58,1885.68 6542.63,1883.64 6844.37,2006.16 6752.71,2097.82 z " fill-rule="evenodd" fill="rgb(255,0,0)" stroke-width="5" stroke="rgb(0,0,0)" />
	<path d="M7816.2,5305.25 8028.33,5517.38 7993.72,5552 7569.45,5552 7816.2,5305.25 z " fill-rule="evenodd" fill="rgb(255,0,0)" stroke-width="5" stroke="rgb(0,0,0)" />
	<path d="M7604.07,2524.91 7391.94,2312.78 7451.89,2252.83 7753.63,2375.35 7604.07,2524.91 z " fill-rule="evenodd" fill="rgb(255,0,0)" stroke-width="5" stroke="rgb(0,0,0)" />
	<path d="M8600,5372.81 8600,5552 8420.81,5552 8600,5372.81 z " fill-rule="evenodd" fill="rgb(255,0,0)" stroke-width="5" stroke="rgb(0,0,0)" />
	<path d="M8455.43,5514.55 8243.29,5302.42 8600,4945.72 8600,5369.98 8455.43,5514.55 z " fill-rule="evenodd" fill="rgb(255,0,0)" stroke-width="5" stroke="rgb(0,0,0)" />
	<path d="M8455.43,5087.46 8243.29,4875.33 8600,4518.62 8600,4942.89 8455.43,5087.46 z " fill-rule="evenodd" fill="rgb(255,0,0)" stroke-width="5" stroke="rgb(0,0,0)" />
	<path d="M8455.43,4660.37 8243.29,4448.24 8600,4091.53 8600,4515.8 8455.43,4660.37 z " fill-rule="evenodd" fill="rgb(255,0,0)" stroke-width="5" stroke="rgb(0,0,0)" />
	<path d="M8455.43,4233.28 8243.29,4021.15 8600,3664.44 8600,4088.7 8455.43,4233.28 z " fill-rule="evenodd" fill="rgb(255,0,0)" stroke-width="5" stroke="rgb(0,0,0)" />
	<path d="M8455.43,3806.18 8243.29,3594.05 8600,3237.35 8600,3661.61 8455.43,3806.18 z " fill-rule="evenodd" fill="rgb(255,0,0)" stroke-width="5" stroke="rgb(0,0,0)" />
	<path d="M8455.43,3379.09 8243.29,3166.96 8600,2810.25 8600,3234.52 8455.43,3379.09 z " fill-rule="evenodd" fill="rgb(255,0,0)" stroke-width="5" stroke="rgb(0,0,0)" />
	<path d="M8455.43,2952 8243.29,2739.87 8361.15,2622.02 8600,2719 8600,2807.43 8455.43,2952 z " fill-rule="evenodd" fill="rgb(255,0,0)" stroke-width="5" stroke="rgb(0,0,0)" />
	<path d="M1217.48,1673.55 793.217,2097.82 581.085,1885.68 964.768,1502 1045.93,1502 1217.48,1673.55 z " fill-rule="evenodd" fill="rgb(255,0,0)" stroke-width="5" stroke="rgb(0,0,0)" />
	<path d="M1644.57,3379.09 1432.44,3166.96 1447.4,3152 1871.67,3152 1644.57,3379.09 z " fill-rule="evenodd" fill="rgb(255,0,0)" stroke-width="5" stroke="rgb(0,0,0)" />
	<path d="M1856.71,2742.7 2068.84,2954.83 2050,2973.67 2050,2952 1647.4,2952 1856.71,2742.7 z " fill-rule="evenodd" fill="rgb(255,0,0)" stroke-width="5" stroke="rgb(0,0,0)" />
	<path d="M2495.93,3806.18 2283.8,3594.05 2708.06,3169.79 2900,3361.73 2900,3402.12 2495.93,3806.18 z " fill-rule="evenodd" fill="rgb(255,0,0)" stroke-width="5" stroke="rgb(0,0,0)" />
	<path d="M793.217,1670.72 700,1577.51 700,1502 961.94,1502 793.217,1670.72 z " fill-rule="evenodd" fill="rgb(255,0,0)" stroke-width="5" stroke="rgb(0,0,0)" />
	<path d="M3771.55,3809.01 3700,3880.56 3700,3737.46 3771.55,3809.01 z " fill-rule="evenodd" fill="rgb(255,0,0)" stroke-width="5" stroke="rgb(0,0,0)" />
	<path d="M5262.13,4451.07 5474.26,4663.2 5050,5087.46 5050,5087.46 5050,4663.2 5262.13,4451.07 z " fill-rule="evenodd" fill="rgb(255,0,0)" stroke-width="5" stroke="rgb(0,0,0)" />
	<path d="M4837.87,4875.33 4950,4763.2 4950,4952 4914.54,4952 4837.87,4875.33 z " fill-rule="evenodd" fill="rgb(255,0,0)" stroke-width="5" stroke="rgb(0,0,0)" />
	<path d="M6964.85,5305.25 7176.98,5517.38 7142.36,5552 6718.1,5552 6964.85,5305.25 z " fill-rule="evenodd" fill="rgb(255,0,0)" stroke-width="5" stroke="rgb(0,0,0)" />
	<path d="M153.993,2315.6 366.125,2527.74 100,2793.86 100,2369.6 153.993,2315.6 z " fill-rule="evenodd" fill="rgb(255,0,0)" stroke-width="5" stroke="rgb(0,0,0)" />
	<path d="M153.993,1888.51 366.125,2100.64 100,2366.77 100,1942.5 153.993,1888.51 z " fill-rule="evenodd" fill="rgb(255,0,0)" stroke-width="5" stroke="rgb(0,0,0)" />
	<path d="M366.125,1673.55 100,1939.68 100,1602 294.574,1602 366.125,1673.55 z " fill-rule="evenodd" fill="rgb(255,0,0)" stroke-width="5" stroke="rgb(0,0,0)" />
	<path d="M793.217,3379.09 581.085,3166.96 596.046,3152 1020.31,3152 793.217,3379.09 z " fill-rule="evenodd" fill="rgb(255,0,0)" stroke-width="5" stroke="rgb(0,0,0)" />
	<path d="M1005.35,2742.7 1214.65,2952 796.046,2952 1005.35,2742.7 z " fill-rule="evenodd" fill="rgb(255,0,0)" stroke-width="5" stroke="rgb(0,0,0)" />
	<path d="M2495.93,4233.28 2283.8,4021.15 2708.06,3596.88 2900,3788.82 2900,3829.21 2495.93,4233.28 z " fill-rule="evenodd" fill="rgb(255,0,0)" stroke-width="5" stroke="rgb(0,0,0)" />
	<path d="M3771.55,4236.11 3700,4307.66 3700,4164.55 3771.55,4236.11 z " fill-rule="evenodd" fill="rgb(255,0,0)" stroke-width="5" stroke="rgb(0,0,0)" />
	<path d="M3986.51,4875.33 4410.78,4451.07 4622.91,4663.2 4334.11,4952 4063.18,4952 3986.51,4875.33 z " fill-rule="evenodd" fill="rgb(255,0,0)" stroke-width="5" stroke="rgb(0,0,0)" />
	<path d="M5262.13,4878.16 5474.26,5090.29 5050,5514.55 5050,5514.55 5050,5090.29 5262.13,4878.16 z " fill-rule="evenodd" fill="rgb(255,0,0)" stroke-width="5" stroke="rgb(0,0,0)" />
	<path d="M6113.49,5305.25 6325.62,5517.38 6291,5552 5866.74,5552 6113.49,5305.25 z " fill-rule="evenodd" fill="rgb(255,0,0)" stroke-width="5" stroke="rgb(0,0,0)" />
	<path d="M100,3220.95 100,3152 168.953,3152 100,3220.95 z " fill-rule="evenodd" fill="rgb(255,0,0)" stroke-width="5" stroke="rgb(0,0,0)" />
	<path d="M153.993,2742.7 363.296,2952 100,2952 100,2796.69 153.993,2742.7 z " fill-rule="evenodd" fill="rgb(255,0,0)" stroke-width="5" stroke="rgb(0,0,0)" />
	<path d="M2495.93,4660.37 2283.8,4448.24 2708.06,4023.97 2900,4215.91 2900,4256.3 2495.93,4660.37 z " fill-rule="evenodd" fill="rgb(255,0,0)" stroke-width="5" stroke="rgb(0,0,0)" />
	<path d="M3771.55,4663.2 3700,4734.75 3700,4591.65 3771.55,4663.2 z " fill-rule="evenodd" fill="rgb(255,0,0)" stroke-width="5" stroke="rgb(0,0,0)" />
	<path d="M4410.78,4878.16 4484.62,4952 4336.93,4952 4410.78,4878.16 z " fill-rule="evenodd" fill="rgb(255,0,0)" stroke-width="5" stroke="rgb(0,0,0)" />
	<path d="M5262.13,5305.25 5474.26,5517.38 5439.65,5552 5050,5552 5050,5517.38 5262.13,5305.25 z " fill-rule="evenodd" fill="rgb(255,0,0)" stroke-width="5" stroke="rgb(0,0,0)" />
	<path d="M153.993,3169.79 366.125,3381.92 100,3648.05 100,3223.78 153.993,3169.79 z " fill-rule="evenodd" fill="rgb(255,0,0)" stroke-width="5" stroke="rgb(0,0,0)" />
	<path d="M2495.93,5087.46 2283.8,4875.33 2708.06,4451.07 2900,4643 2900,4683.39 2495.93,5087.46 z " fill-rule="evenodd" fill="rgb(255,0,0)" stroke-width="5" stroke="rgb(0,0,0)" />
	<path d="M153.993,3596.88 366.125,3809.01 100,4075.14 100,3650.87 153.993,3596.88 z " fill-rule="evenodd" fill="rgb(255,0,0)" stroke-width="5" stroke="rgb(0,0,0)" />
	<path d="M2495.93,5514.55 2283.8,5302.42 2708.06,4878.16 2900,5070.1 2900,5110.49 2495.93,5514.55 z " fill-rule="evenodd" fill="rgb(255,0,0)" stroke-width="5" stroke="rgb(0,0,0)" />
	<path d="M153.993,4023.97 366.125,4236.11 100,4502.23 100,4077.97 153.993,4023.97 z " fill-rule="evenodd" fill="rgb(255,0,0)" stroke-width="5" stroke="rgb(0,0,0)" />
	<path d="M2495.93,5941.65 2283.8,5729.52 2708.06,5305.25 2900,5497.19 2900,5537.58 2495.93,5941.65 z " fill-rule="evenodd" fill="rgb(255,0,0)" stroke-width="5" stroke="rgb(0,0,0)" />
	<path d="M153.993,4451.07 366.125,4663.2 100,4929.32 100,4505.06 153.993,4451.07 z " fill-rule="evenodd" fill="rgb(255,0,0)" stroke-width="5" stroke="rgb(0,0,0)" />
	<path d="M2495.93,6368.74 2283.8,6156.61 2708.06,5732.34 2900,5924.28 2900,5964.67 2495.93,6368.74 z " fill-rule="evenodd" fill="rgb(255,0,0)" stroke-width="5" stroke="rgb(0,0,0)" />
	<path d="M153.993,4878.16 366.125,5090.29 100,5356.42 100,4932.15 153.993,4878.16 z " fill-rule="evenodd" fill="rgb(255,0,0)" stroke-width="5" stroke="rgb(0,0,0)" />
	<path d="M153.993,5305.25 366.125,5517.38 100,5783.51 100,5359.24 153.993,5305.25 z " fill-rule="evenodd" fill="rgb(255,0,0)" stroke-width="5" stroke="rgb(0,0,0)" />
	<path d="M2708.06,6586.53 2920.19,6798.66 2766.86,6952 2342.59,6952 2708.06,6586.53 z " fill-rule="evenodd" fill="rgb(255,0,0)" stroke-width="5" stroke="rgb(0,0,0)" />
	<path d="M153.993,5732.34 366.125,5944.48 100,6210.6 100,5786.34 153.993,5732.34 z " fill-rule="evenodd" fill="rgb(255,0,0)" stroke-width="5" stroke="rgb(0,0,0)" />
	<path d="M1856.71,6586.53 2068.84,6798.66 1915.5,6952 1491.23,6952 1856.71,6586.53 z " fill-rule="evenodd" fill="rgb(255,0,0)" stroke-width="5" stroke="rgb(0,0,0)" />
	<path d="M153.993,6159.44 366.125,6371.57 100,6637.69 100,6213.43 153.993,6159.44 z " fill-rule="evenodd" fill="rgb(255,0,0)" stroke-width="5" stroke="rgb(0,0,0)" />
	<path d="M1005.35,6586.53 1217.48,6798.66 1064.14,6952 639.878,6952 1005.35,6586.53 z " fill-rule="evenodd" fill="rgb(255,0,0)" stroke-width="5" stroke="rgb(0,0,0)" />
	<path d="M153.993,6586.53 366.125,6798.66 212.786,6952 100,6952 100,6640.52 153.993,6586.53 z " fill-rule="evenodd" fill="rgb(255,0,0)" stroke-width="5" stroke="rgb(0,0,0)" />
	<path d="M4836.45,3165.55 4412.19,2741.28 4624.32,2529.15 5047.17,2952 4900,2952 4900,3052 4950,3052 4950,3052 4836.45,3165.55 z " fill-rule="evenodd" fill="rgb(255,0,0)" stroke-width="5" stroke="rgb(0,0,0)" />
	<path d="M3345.87,1672.14 3133.74,1884.27 2709.48,1460 2921.61,1247.87 3107.63,1433.89 3080,1502 2950,1502 2950,1602 3147,1602 3184.14,1510.41 3345.87,1672.14 z " fill-rule="evenodd" fill="rgb(255,0,0)" stroke-width="5" stroke="rgb(0,0,0)" />
	<path d="M3985.1,3165.55 3871.55,3052 4098.64,3052 3985.1,3165.55 z " fill-rule="evenodd" fill="rgb(255,0,0)" stroke-width="5" stroke="rgb(0,0,0)" />
	<path d="M3560.83,2741.28 3772.97,2529.15 4195.82,2952 3771.55,2952 3560.83,2741.28 z " fill-rule="evenodd" fill="rgb(255,0,0)" stroke-width="5" stroke="rgb(0,0,0)" />
	<path d="M4836.45,3592.64 4412.19,3168.37 4624.32,2956.24 4950,3281.92 4950,3479.09 4836.45,3592.64 z " fill-rule="evenodd" fill="rgb(255,0,0)" stroke-width="5" stroke="rgb(0,0,0)" />
	<path d="M3345.87,1245.04 3254.84,1336.08 3307.37,1206.54 3345.87,1245.04 z " fill-rule="evenodd" fill="rgb(255,0,0)" stroke-width="5" stroke="rgb(0,0,0)" />
	<path d="M2709.48,1032.91 2921.61,820.78 3230.89,1130.06 3108.45,1431.88 2709.48,1032.91 z " fill-rule="evenodd" fill="rgb(255,0,0)" stroke-width="5" stroke="rgb(0,0,0)" />
	<path d="M3345.87,817.952 3133.74,1030.08 2709.48,605.82 2907.9,407.399 2954.03,426.111 3345.87,817.952 z " fill-rule="evenodd" fill="rgb(255,0,0)" stroke-width="5" stroke="rgb(0,0,0)" />
	<path d="M2494.52,1672.14 2282.38,1884.27 2000.12,1602 2150,1602 2150,1327.62 2494.52,1672.14 z " fill-rule="evenodd" fill="rgb(255,0,0)" stroke-width="5" stroke="rgb(0,0,0)" />
	<path d="M2709.48,2741.28 2921.61,2529.15 3344.46,2952 2920.19,2952 2709.48,2741.28 z " fill-rule="evenodd" fill="rgb(255,0,0)" stroke-width="5" stroke="rgb(0,0,0)" />
	<path d="M4197.23,3380.51 3985.1,3592.64 3700,3307.54 3700,3052 3868.72,3052 4197.23,3380.51 z " fill-rule="evenodd" fill="rgb(255,0,0)" stroke-width="5" stroke="rgb(0,0,0)" />
	<path d="M2494.52,1245.04 2282.38,1457.18 2150,1324.79 2150,900.528 2494.52,1245.04 z " fill-rule="evenodd" fill="rgb(255,0,0)" stroke-width="5" stroke="rgb(0,0,0)" />
	<path d="M2494.52,817.952 2282.38,1030.08 2150,897.7 2150,473.436 2494.52,817.952 z " fill-rule="evenodd" fill="rgb(255,0,0)" stroke-width="5" stroke="rgb(0,0,0)" />
	<path d="M4836.45,4019.73 4412.19,3595.47 4624.32,3383.34 4950,3709.01 4950,3906.18 4836.45,4019.73 z " fill-rule="evenodd" fill="rgb(255,0,0)" stroke-width="5" stroke="rgb(0,0,0)" />
	<path d="M2494.52,390.859 2282.38,602.991 2150,470.607 2150,100 2240.27,136.613 2494.52,390.859 z " fill-rule="evenodd" fill="rgb(255,0,0)" stroke-width="5" stroke="rgb(0,0,0)" />
	<path d="M2282.38,175.899 2245.03,138.543 2298.18,160.102 2282.38,175.899 z " fill-rule="evenodd" fill="rgb(255,0,0)" stroke-width="5" stroke="rgb(0,0,0)" />
	<path d="M3133.74,602.991 2958.79,428.041 3207.72,529.007 3133.74,602.991 z " fill-rule="evenodd" fill="rgb(255,0,0)" stroke-width="5" stroke="rgb(0,0,0)" />
	<path d="M3985.1,1030.08 3673.81,718.799 4116.6,898.584 3985.1,1030.08 z " fill-rule="evenodd" fill="rgb(255,0,0)" stroke-width="5" stroke="rgb(0,0,0)" />
	<path d="M4836.45,1457.18 4412.19,1032.91 4422.37,1022.74 5025.86,1267.77 4836.45,1457.18 z " fill-rule="evenodd" fill="rgb(255,0,0)" stroke-width="5" stroke="rgb(0,0,0)" />
	<path d="M5899.94,1672.14 5687.81,1884.27 5263.55,1460 5331.62,1391.93 5816.68,1588.88 5899.94,1672.14 z " fill-rule="evenodd" fill="rgb(255,0,0)" stroke-width="5" stroke="rgb(0,0,0)" />
	<path d="M6751.3,2099.23 6539.17,2311.36 6114.9,1887.1 6240.88,1761.12 6530.97,1878.9 6751.3,2099.23 z " fill-rule="evenodd" fill="rgb(255,0,0)" stroke-width="5" stroke="rgb(0,0,0)" />
	<path d="M7602.66,2526.32 7390.52,2738.45 6966.26,2314.19 7150.14,2130.31 7245.26,2168.93 7602.66,2526.32 z " fill-rule="evenodd" fill="rgb(255,0,0)" stroke-width="5" stroke="rgb(0,0,0)" />
	<path d="M1643.16,1672.14 1431.03,1884.27 1048.76,1502 1400,1502 1400,1602 1573.02,1602 1643.16,1672.14 z " fill-rule="evenodd" fill="rgb(255,0,0)" stroke-width="5" stroke="rgb(0,0,0)" />
	<path d="M2709.48,3168.37 2850,3027.85 2850,3152 2900,3152 2900,3358.9 2709.48,3168.37 z " fill-rule="evenodd" fill="rgb(255,0,0)" stroke-width="5" stroke="rgb(0,0,0)" />
	<path d="M3772.97,3383.34 4197.23,3807.6 3985.1,4019.73 3700,3734.63 3700,3456.3 3772.97,3383.34 z " fill-rule="evenodd" fill="rgb(255,0,0)" stroke-width="5" stroke="rgb(0,0,0)" />
	<path d="M4836.45,4446.82 4412.19,4022.56 4624.32,3810.43 4950,4136.11 4950,4333.28 4836.45,4446.82 z " fill-rule="evenodd" fill="rgb(255,0,0)" stroke-width="5" stroke="rgb(0,0,0)" />
	<path d="M6539.17,1884.27 6535.74,1880.84 6540.62,1882.82 6539.17,1884.27 z " fill-rule="evenodd" fill="rgb(255,0,0)" stroke-width="5" stroke="rgb(0,0,0)" />
	<path d="M6966.26,5303.84 7178.39,5091.71 7602.66,5515.97 7566.62,5552 7214.42,5552 6966.26,5303.84 z " fill-rule="evenodd" fill="rgb(255,0,0)" stroke-width="5" stroke="rgb(0,0,0)" />
	<path d="M7390.52,2311.36 7250.03,2170.86 7449.87,2252.01 7390.52,2311.36 z " fill-rule="evenodd" fill="rgb(255,0,0)" stroke-width="5" stroke="rgb(0,0,0)" />
	<path d="M8029.75,5518.8 8062.95,5552 7996.55,5552 8029.75,5518.8 z " fill-rule="evenodd" fill="rgb(255,0,0)" stroke-width="5" stroke="rgb(0,0,0)" />
	<path d="M7817.62,5303.84 8029.75,5091.71 8454.01,5515.97 8417.98,5552 8065.78,5552 7817.62,5303.84 z " fill-rule="evenodd" fill="rgb(255,0,0)" stroke-width="5" stroke="rgb(0,0,0)" />
	<path d="M8241.88,2738.45 7964.32,2460.89 8359.13,2621.2 8241.88,2738.45 z " fill-rule="evenodd" fill="rgb(255,0,0)" stroke-width="5" stroke="rgb(0,0,0)" />
	<path d="M791.803,1672.14 579.671,1884.27 297.402,1602 700,1602 700,1580.33 791.803,1672.14 z " fill-rule="evenodd" fill="rgb(255,0,0)" stroke-width="5" stroke="rgb(0,0,0)" />
	<path d="M1431.03,3165.55 1417.48,3152 1444.57,3152 1431.03,3165.55 z " fill-rule="evenodd" fill="rgb(255,0,0)" stroke-width="5" stroke="rgb(0,0,0)" />
	<path d="M1006.76,2741.28 1218.9,2529.15 1641.75,2952 1217.48,2952 1006.76,2741.28 z " fill-rule="evenodd" fill="rgb(255,0,0)" stroke-width="5" stroke="rgb(0,0,0)" />
	<path d="M2070.25,2956.24 2494.52,3380.51 2282.38,3592.64 1858.12,3168.37 1874.49,3152 2050,3152 2050,2976.49 2070.25,2956.24 z " fill-rule="evenodd" fill="rgb(255,0,0)" stroke-width="5" stroke="rgb(0,0,0)" />
	<path d="M2709.48,3595.47 2900,3404.94 2900,3785.99 2709.48,3595.47 z " fill-rule="evenodd" fill="rgb(255,0,0)" stroke-width="5" stroke="rgb(0,0,0)" />
	<path d="M3772.97,3810.43 4197.23,4234.69 3985.1,4446.82 3700,4161.73 3700,3883.39 3772.97,3810.43 z " fill-rule="evenodd" fill="rgb(255,0,0)" stroke-width="5" stroke="rgb(0,0,0)" />
	<path d="M4836.45,4873.92 4412.19,4449.65 4624.32,4237.52 4950,4563.2 4950,4760.37 4836.45,4873.92 z " fill-rule="evenodd" fill="rgb(255,0,0)" stroke-width="5" stroke="rgb(0,0,0)" />
	<path d="M6114.9,5303.84 6327.03,5091.71 6751.3,5515.97 6715.27,5552 6363.07,5552 6114.9,5303.84 z " fill-rule="evenodd" fill="rgb(255,0,0)" stroke-width="5" stroke="rgb(0,0,0)" />
	<path d="M7178.39,5518.8 7211.59,5552 7145.19,5552 7178.39,5518.8 z " fill-rule="evenodd" fill="rgb(255,0,0)" stroke-width="5" stroke="rgb(0,0,0)" />
	<path d="M579.671,3165.55 566.125,3152 593.217,3152 579.671,3165.55 z " fill-rule="evenodd" fill="rgb(255,0,0)" stroke-width="5" stroke="rgb(0,0,0)" />
	<path d="M155.407,2741.28 367.539,2529.15 790.389,2952 366.125,2952 155.407,2741.28 z " fill-rule="evenodd" fill="rgb(255,0,0)" stroke-width="5" stroke="rgb(0,0,0)" />
	<path d="M1643.16,3380.51 1431.03,3592.64 1006.76,3168.37 1023.14,3152 1414.65,3152 1643.16,3380.51 z " fill-rule="evenodd" fill="rgb(255,0,0)" stroke-width="5" stroke="rgb(0,0,0)" />
	<path d="M2709.48,4022.56 2900,3832.04 2900,4213.08 2709.48,4022.56 z " fill-rule="evenodd" fill="rgb(255,0,0)" stroke-width="5" stroke="rgb(0,0,0)" />
	<path d="M3772.97,4237.52 4197.23,4661.78 3985.1,4873.92 3700,4588.82 3700,4310.49 3772.97,4237.52 z " fill-rule="evenodd" fill="rgb(255,0,0)" stroke-width="5" stroke="rgb(0,0,0)" />
	<path d="M4412.19,4876.74 4624.32,4664.61 4911.71,4952 4487.45,4952 4412.19,4876.74 z " fill-rule="evenodd" fill="rgb(255,0,0)" stroke-width="5" stroke="rgb(0,0,0)" />
	<path d="M5263.55,5303.84 5475.68,5091.71 5899.94,5515.97 5863.91,5552 5511.71,5552 5263.55,5303.84 z " fill-rule="evenodd" fill="rgb(255,0,0)" stroke-width="5" stroke="rgb(0,0,0)" />
	<path d="M6327.03,5518.8 6360.24,5552 6293.83,5552 6327.03,5518.8 z " fill-rule="evenodd" fill="rgb(255,0,0)" stroke-width="5" stroke="rgb(0,0,0)" />
	<path d="M791.803,3380.51 579.671,3592.64 155.407,3168.37 171.782,3152 563.296,3152 791.803,3380.51 z " fill-rule="evenodd" fill="rgb(255,0,0)" stroke-width="5" stroke="rgb(0,0,0)" />
	<path d="M2709.48,4449.65 2900,4259.13 2900,4640.18 2709.48,4449.65 z " fill-rule="evenodd" fill="rgb(255,0,0)" stroke-width="5" stroke="rgb(0,0,0)" />
	<path d="M3772.97,4664.61 4060.35,4952 3700,4952 3700,4737.58 3772.97,4664.61 z " fill-rule="evenodd" fill="rgb(255,0,0)" stroke-width="5" stroke="rgb(0,0,0)" />
	<path d="M5475.68,5518.8 5508.88,5552 5442.48,5552 5475.68,5518.8 z " fill-rule="evenodd" fill="rgb(255,0,0)" stroke-width="5" stroke="rgb(0,0,0)" />
	<path d="M2709.48,4876.74 2900,4686.22 2900,5067.27 2709.48,4876.74 z " fill-rule="evenodd" fill="rgb(255,0,0)" stroke-width="5" stroke="rgb(0,0,0)" />
	<path d="M2709.48,5303.84 2900,5113.31 2900,5494.36 2709.48,5303.84 z " fill-rule="evenodd" fill="rgb(255,0,0)" stroke-width="5" stroke="rgb(0,0,0)" />
	<path d="M2709.48,5730.93 2900,5540.41 2900,5921.45 2709.48,5730.93 z " fill-rule="evenodd" fill="rgb(255,0,0)" stroke-width="5" stroke="rgb(0,0,0)" />
	<path d="M3030.55,6052 3100,6052 3100,6121.45 3030.55,6052 z " fill-rule="evenodd" fill="rgb(255,0,0)" stroke-width="5" stroke="rgb(0,0,0)" />
	<path d="M3100,6124.28 3100,6548.55 2709.48,6158.02 2900,5967.5 2900,6052 3027.72,6052 3100,6124.28 z " fill-rule="evenodd" fill="rgb(255,0,0)" stroke-width="5" stroke="rgb(0,0,0)" />
	<path d="M2709.48,6585.11 2921.61,6372.98 3100,6551.37 3100,6852 2976.36,6852 2709.48,6585.11 z " fill-rule="evenodd" fill="rgb(255,0,0)" stroke-width="5" stroke="rgb(0,0,0)" />
	<path d="M1858.12,6585.11 2070.25,6372.98 2494.52,6797.25 2339.76,6952 2225.01,6952 1858.12,6585.11 z " fill-rule="evenodd" fill="rgb(255,0,0)" stroke-width="5" stroke="rgb(0,0,0)" />
	<path d="M2921.61,6800.08 2973.53,6852 2900,6852 2900,6952 2769.68,6952 2921.61,6800.08 z " fill-rule="evenodd" fill="rgb(255,0,0)" stroke-width="5" stroke="rgb(0,0,0)" />
	<path d="M1006.76,6585.11 1218.9,6372.98 1643.16,6797.25 1488.41,6952 1373.65,6952 1006.76,6585.11 z " fill-rule="evenodd" fill="rgb(255,0,0)" stroke-width="5" stroke="rgb(0,0,0)" />
	<path d="M2070.25,6800.08 2222.18,6952 1918.33,6952 2070.25,6800.08 z " fill-rule="evenodd" fill="rgb(255,0,0)" stroke-width="5" stroke="rgb(0,0,0)" />
	<path d="M155.407,6585.11 367.539,6372.98 791.803,6797.25 637.05,6952 522.292,6952 155.407,6585.11 z " fill-rule="evenodd" fill="rgb(255,0,0)" stroke-width="5" stroke="rgb(0,0,0)" />
	<path d="M1218.9,6800.08 1370.82,6952 1066.97,6952 1218.9,6800.08 z " fill-rule="evenodd" fill="rgb(255,0,0)" stroke-width="5" stroke="rgb(0,0,0)" />
	<path d="M367.539,6800.08 519.464,6952 215.614,6952 367.539,6800.08 z " fill-rule="evenodd" fill="rgb(255,0,0)" stroke-width="5" stroke="rgb(0,0,0)" />
	<polyline points="5045,2957 5469.26,2532.74 5045,2957 4620.74,2532.74 5045,2957 " fill="none" stroke-width="100" stroke="rgb(0,0,0)" />
	<circle cx="5045" cy="2957" r="-7.07107" fill="rgb(0,0,0)" />
	<circle cx="5469.26" cy="2532.74" r="-7.07107" fill="rgb(0,0,0)" />
	<circle cx="5045" cy="2957" r="-7.07107" fill="rgb(0,0,0)" />
	<circle cx="4620.74" cy="2532.74" r="-7.07107" fill="rgb(0,0,0)" />
	<circle cx="5045" cy="2957" r="-7.07107" fill="rgb(0,0,0)" />
	<polyline points="5045,3423.69 5045,2957 4111.62,2957 " fill="none" stroke-width="0.5" stroke="rgb(128,0,128)" />
</svg>
